%TF.GenerationSoftware,KiCad,Pcbnew,7.0.7*%
%TF.CreationDate,2023-10-16T15:11:45+02:00*%
%TF.ProjectId,GradientAmplifierFilter_V3,47726164-6965-46e7-9441-6d706c696669,rev?*%
%TF.SameCoordinates,Original*%
%TF.FileFunction,Soldermask,Bot*%
%TF.FilePolarity,Negative*%
%FSLAX46Y46*%
G04 Gerber Fmt 4.6, Leading zero omitted, Abs format (unit mm)*
G04 Created by KiCad (PCBNEW 7.0.7) date 2023-10-16 15:11:45*
%MOMM*%
%LPD*%
G01*
G04 APERTURE LIST*
%ADD10C,10.000000*%
%ADD11C,1.600000*%
%ADD12C,1.800000*%
%ADD13C,1.575000*%
%ADD14C,10.500000*%
%ADD15R,8.500000X5.500000*%
G04 APERTURE END LIST*
D10*
X103886000Y-106680000D02*
X104140000Y-88900000D01*
X144780000Y-106934000D02*
X134620000Y-116840000D01*
X147574000Y-76200000D02*
X159258000Y-76200000D01*
X94234000Y-107950000D02*
X83058000Y-117348000D01*
X159258000Y-76200000D02*
X161544000Y-75946000D01*
X185674000Y-111760000D02*
X187198000Y-119126000D01*
X184658000Y-82296000D02*
X191008000Y-76200000D01*
X101473000Y-76327000D02*
X101346000Y-58674000D01*
X201422000Y-95250000D02*
X185674000Y-111760000D01*
X152400000Y-74676000D02*
X152400000Y-58928000D01*
X191008000Y-76200000D02*
X209804000Y-75946000D01*
X57658000Y-71374000D02*
X68072000Y-71374000D01*
X109474000Y-76708000D02*
X101473000Y-76327000D01*
X154940000Y-107950000D02*
X155194000Y-90678000D01*
X94742000Y-76200000D02*
X108204000Y-76454000D01*
X153416000Y-76200000D02*
X152400000Y-74676000D01*
X194564000Y-88138000D02*
X212852000Y-88138000D01*
X192278000Y-124206000D02*
X220218000Y-125222000D01*
X187198000Y-119126000D02*
X192278000Y-124206000D01*
X118364000Y-107442000D02*
X94234000Y-107950000D01*
X45974000Y-58674000D02*
X57658000Y-71374000D01*
X90424000Y-81280000D02*
X94742000Y-76200000D01*
X131318000Y-81534000D02*
X141732000Y-81280000D01*
X212852000Y-88138000D02*
X203708000Y-88138000D01*
X144780000Y-106934000D02*
X154940000Y-107950000D01*
X203708000Y-88138000D02*
X201422000Y-95250000D01*
X108204000Y-76454000D02*
X114554000Y-72390000D01*
X141732000Y-81280000D02*
X147574000Y-76200000D01*
X164084000Y-88392000D02*
X153162000Y-88392000D01*
X114554000Y-72390000D02*
X109474000Y-76708000D01*
X209804000Y-75946000D02*
X219202000Y-68326000D01*
X80518000Y-81788000D02*
X90424000Y-81280000D01*
X50546000Y-123190000D02*
X47498000Y-124968000D01*
X169672000Y-107950000D02*
X154940000Y-107950000D01*
X67310000Y-105664000D02*
X50546000Y-123190000D01*
X219202000Y-68326000D02*
X219964000Y-57658000D01*
X155194000Y-90678000D02*
X154940000Y-107950000D01*
X161544000Y-75946000D02*
X166116000Y-71374000D01*
X104140000Y-88900000D02*
X99314000Y-88900000D01*
D11*
%TO.C,C3*%
X100360000Y-80050000D03*
X100360000Y-85050000D03*
%TD*%
D12*
%TO.C,C8*%
X192610000Y-80010000D03*
X192610000Y-85010000D03*
%TD*%
D13*
%TO.C,C1*%
X92710000Y-81480000D03*
X92710000Y-106480000D03*
%TD*%
D11*
%TO.C,C2*%
X106680000Y-80050000D03*
X106680000Y-85050000D03*
%TD*%
D14*
%TO.C,H5*%
X219710000Y-58420000D03*
%TD*%
D11*
%TO.C,C9*%
X210820000Y-80050000D03*
X210820000Y-85050000D03*
%TD*%
D15*
%TO.C,L2*%
X83060000Y-117680000D03*
X65910000Y-107480000D03*
%TD*%
D11*
%TO.C,C5*%
X158750000Y-80050000D03*
X158750000Y-85050000D03*
%TD*%
D15*
%TO.C,L5*%
X165860000Y-71550000D03*
X183010000Y-81750000D03*
%TD*%
D11*
%TO.C,C6*%
X152400000Y-80050000D03*
X152400000Y-85050000D03*
%TD*%
D15*
%TO.C,L6*%
X185930000Y-117680000D03*
X168780000Y-107480000D03*
%TD*%
%TO.C,L3*%
X115060000Y-71550000D03*
X132210000Y-81750000D03*
%TD*%
D14*
%TO.C,H6*%
X219710000Y-124460000D03*
%TD*%
D12*
%TO.C,C7*%
X201930000Y-80010000D03*
X201930000Y-85010000D03*
%TD*%
D13*
%TO.C,C4*%
X143510000Y-81575000D03*
X143510000Y-106575000D03*
%TD*%
D14*
%TO.C,H4*%
X152400000Y-58420000D03*
%TD*%
D15*
%TO.C,L4*%
X133860000Y-117680000D03*
X116710000Y-107480000D03*
%TD*%
D14*
%TO.C,H1*%
X45720000Y-58420000D03*
%TD*%
%TO.C,H2*%
X45720000Y-124460000D03*
%TD*%
%TO.C,H3*%
X101600000Y-58420000D03*
%TD*%
D15*
%TO.C,L1*%
X64390000Y-71550000D03*
X81540000Y-81750000D03*
%TD*%
M02*
