%TF.GenerationSoftware,KiCad,Pcbnew,7.0.7*%
%TF.CreationDate,2023-10-16T15:11:54+02:00*%
%TF.ProjectId,GradientAmplifierFilter_V3,47726164-6965-46e7-9441-6d706c696669,rev?*%
%TF.SameCoordinates,Original*%
%TF.FileFunction,Drillmap*%
%TF.FilePolarity,Positive*%
%FSLAX45Y45*%
G04 Gerber Fmt 4.5, Leading zero omitted, Abs format (unit mm)*
G04 Created by KiCad (PCBNEW 7.0.7) date 2023-10-16 15:11:54*
%MOMM*%
%LPD*%
G01*
G04 APERTURE LIST*
%ADD10C,0.100000*%
%ADD11C,0.200000*%
G04 APERTURE END LIST*
D10*
X3810000Y-5207000D02*
X22606000Y-5207000D01*
X22606000Y-13208000D01*
X3810000Y-13208000D01*
X3810000Y-5207000D01*
D11*
X4065777Y-13524484D02*
X4065777Y-13324484D01*
X4065777Y-13324484D02*
X4113396Y-13324484D01*
X4113396Y-13324484D02*
X4141967Y-13334008D01*
X4141967Y-13334008D02*
X4161015Y-13353055D01*
X4161015Y-13353055D02*
X4170539Y-13372103D01*
X4170539Y-13372103D02*
X4180062Y-13410198D01*
X4180062Y-13410198D02*
X4180062Y-13438769D01*
X4180062Y-13438769D02*
X4170539Y-13476865D01*
X4170539Y-13476865D02*
X4161015Y-13495912D01*
X4161015Y-13495912D02*
X4141967Y-13514960D01*
X4141967Y-13514960D02*
X4113396Y-13524484D01*
X4113396Y-13524484D02*
X4065777Y-13524484D01*
X4265777Y-13524484D02*
X4265777Y-13391150D01*
X4265777Y-13429246D02*
X4275301Y-13410198D01*
X4275301Y-13410198D02*
X4284824Y-13400674D01*
X4284824Y-13400674D02*
X4303872Y-13391150D01*
X4303872Y-13391150D02*
X4322920Y-13391150D01*
X4389586Y-13524484D02*
X4389586Y-13391150D01*
X4389586Y-13324484D02*
X4380063Y-13334008D01*
X4380063Y-13334008D02*
X4389586Y-13343531D01*
X4389586Y-13343531D02*
X4399110Y-13334008D01*
X4399110Y-13334008D02*
X4389586Y-13324484D01*
X4389586Y-13324484D02*
X4389586Y-13343531D01*
X4513396Y-13524484D02*
X4494348Y-13514960D01*
X4494348Y-13514960D02*
X4484824Y-13495912D01*
X4484824Y-13495912D02*
X4484824Y-13324484D01*
X4618158Y-13524484D02*
X4599110Y-13514960D01*
X4599110Y-13514960D02*
X4589586Y-13495912D01*
X4589586Y-13495912D02*
X4589586Y-13324484D01*
X4846729Y-13524484D02*
X4846729Y-13324484D01*
X4846729Y-13324484D02*
X4913396Y-13467341D01*
X4913396Y-13467341D02*
X4980063Y-13324484D01*
X4980063Y-13324484D02*
X4980063Y-13524484D01*
X5161015Y-13524484D02*
X5161015Y-13419722D01*
X5161015Y-13419722D02*
X5151491Y-13400674D01*
X5151491Y-13400674D02*
X5132444Y-13391150D01*
X5132444Y-13391150D02*
X5094348Y-13391150D01*
X5094348Y-13391150D02*
X5075301Y-13400674D01*
X5161015Y-13514960D02*
X5141967Y-13524484D01*
X5141967Y-13524484D02*
X5094348Y-13524484D01*
X5094348Y-13524484D02*
X5075301Y-13514960D01*
X5075301Y-13514960D02*
X5065777Y-13495912D01*
X5065777Y-13495912D02*
X5065777Y-13476865D01*
X5065777Y-13476865D02*
X5075301Y-13457817D01*
X5075301Y-13457817D02*
X5094348Y-13448293D01*
X5094348Y-13448293D02*
X5141967Y-13448293D01*
X5141967Y-13448293D02*
X5161015Y-13438769D01*
X5256253Y-13391150D02*
X5256253Y-13591150D01*
X5256253Y-13400674D02*
X5275301Y-13391150D01*
X5275301Y-13391150D02*
X5313396Y-13391150D01*
X5313396Y-13391150D02*
X5332444Y-13400674D01*
X5332444Y-13400674D02*
X5341967Y-13410198D01*
X5341967Y-13410198D02*
X5351491Y-13429246D01*
X5351491Y-13429246D02*
X5351491Y-13486388D01*
X5351491Y-13486388D02*
X5341967Y-13505436D01*
X5341967Y-13505436D02*
X5332444Y-13514960D01*
X5332444Y-13514960D02*
X5313396Y-13524484D01*
X5313396Y-13524484D02*
X5275301Y-13524484D01*
X5275301Y-13524484D02*
X5256253Y-13514960D01*
X5437205Y-13505436D02*
X5446729Y-13514960D01*
X5446729Y-13514960D02*
X5437205Y-13524484D01*
X5437205Y-13524484D02*
X5427682Y-13514960D01*
X5427682Y-13514960D02*
X5437205Y-13505436D01*
X5437205Y-13505436D02*
X5437205Y-13524484D01*
X5437205Y-13400674D02*
X5446729Y-13410198D01*
X5446729Y-13410198D02*
X5437205Y-13419722D01*
X5437205Y-13419722D02*
X5427682Y-13410198D01*
X5427682Y-13410198D02*
X5437205Y-13400674D01*
X5437205Y-13400674D02*
X5437205Y-13419722D01*
M02*
