%TF.GenerationSoftware,KiCad,Pcbnew,7.0.7*%
%TF.CreationDate,2023-10-16T15:11:45+02:00*%
%TF.ProjectId,GradientAmplifierFilter_V3,47726164-6965-46e7-9441-6d706c696669,rev?*%
%TF.SameCoordinates,Original*%
%TF.FileFunction,Legend,Top*%
%TF.FilePolarity,Positive*%
%FSLAX46Y46*%
G04 Gerber Fmt 4.6, Leading zero omitted, Abs format (unit mm)*
G04 Created by KiCad (PCBNEW 7.0.7) date 2023-10-16 15:11:45*
%MOMM*%
%LPD*%
G01*
G04 APERTURE LIST*
%ADD10C,0.150000*%
%ADD11C,0.254000*%
%ADD12C,0.100000*%
%ADD13C,0.120000*%
G04 APERTURE END LIST*
D10*
X42500779Y-116201819D02*
X42500779Y-115201819D01*
X42976969Y-116201819D02*
X42976969Y-115201819D01*
X42976969Y-115201819D02*
X43548397Y-116201819D01*
X43548397Y-116201819D02*
X43548397Y-115201819D01*
X44024588Y-115820866D02*
X44786493Y-115820866D01*
X216173255Y-114947819D02*
X216363731Y-114947819D01*
X216363731Y-114947819D02*
X216458969Y-114995438D01*
X216458969Y-114995438D02*
X216554207Y-115090676D01*
X216554207Y-115090676D02*
X216601826Y-115281152D01*
X216601826Y-115281152D02*
X216601826Y-115614485D01*
X216601826Y-115614485D02*
X216554207Y-115804961D01*
X216554207Y-115804961D02*
X216458969Y-115900200D01*
X216458969Y-115900200D02*
X216363731Y-115947819D01*
X216363731Y-115947819D02*
X216173255Y-115947819D01*
X216173255Y-115947819D02*
X216078017Y-115900200D01*
X216078017Y-115900200D02*
X215982779Y-115804961D01*
X215982779Y-115804961D02*
X215935160Y-115614485D01*
X215935160Y-115614485D02*
X215935160Y-115281152D01*
X215935160Y-115281152D02*
X215982779Y-115090676D01*
X215982779Y-115090676D02*
X216078017Y-114995438D01*
X216078017Y-114995438D02*
X216173255Y-114947819D01*
X217458969Y-115281152D02*
X217458969Y-115947819D01*
X217030398Y-115281152D02*
X217030398Y-115804961D01*
X217030398Y-115804961D02*
X217078017Y-115900200D01*
X217078017Y-115900200D02*
X217173255Y-115947819D01*
X217173255Y-115947819D02*
X217316112Y-115947819D01*
X217316112Y-115947819D02*
X217411350Y-115900200D01*
X217411350Y-115900200D02*
X217458969Y-115852580D01*
X217792303Y-115281152D02*
X218173255Y-115281152D01*
X217935160Y-114947819D02*
X217935160Y-115804961D01*
X217935160Y-115804961D02*
X217982779Y-115900200D01*
X217982779Y-115900200D02*
X218078017Y-115947819D01*
X218078017Y-115947819D02*
X218173255Y-115947819D01*
X218506589Y-115566866D02*
X219268494Y-115566866D01*
X51644779Y-54733819D02*
X51644779Y-53733819D01*
X52120969Y-54733819D02*
X52120969Y-53733819D01*
X52120969Y-53733819D02*
X52692397Y-54733819D01*
X52692397Y-54733819D02*
X52692397Y-53733819D01*
X53168588Y-54352866D02*
X53930493Y-54352866D01*
X53549540Y-54733819D02*
X53549540Y-53971914D01*
X208045255Y-54241819D02*
X208235731Y-54241819D01*
X208235731Y-54241819D02*
X208330969Y-54289438D01*
X208330969Y-54289438D02*
X208426207Y-54384676D01*
X208426207Y-54384676D02*
X208473826Y-54575152D01*
X208473826Y-54575152D02*
X208473826Y-54908485D01*
X208473826Y-54908485D02*
X208426207Y-55098961D01*
X208426207Y-55098961D02*
X208330969Y-55194200D01*
X208330969Y-55194200D02*
X208235731Y-55241819D01*
X208235731Y-55241819D02*
X208045255Y-55241819D01*
X208045255Y-55241819D02*
X207950017Y-55194200D01*
X207950017Y-55194200D02*
X207854779Y-55098961D01*
X207854779Y-55098961D02*
X207807160Y-54908485D01*
X207807160Y-54908485D02*
X207807160Y-54575152D01*
X207807160Y-54575152D02*
X207854779Y-54384676D01*
X207854779Y-54384676D02*
X207950017Y-54289438D01*
X207950017Y-54289438D02*
X208045255Y-54241819D01*
X209330969Y-54575152D02*
X209330969Y-55241819D01*
X208902398Y-54575152D02*
X208902398Y-55098961D01*
X208902398Y-55098961D02*
X208950017Y-55194200D01*
X208950017Y-55194200D02*
X209045255Y-55241819D01*
X209045255Y-55241819D02*
X209188112Y-55241819D01*
X209188112Y-55241819D02*
X209283350Y-55194200D01*
X209283350Y-55194200D02*
X209330969Y-55146580D01*
X209664303Y-54575152D02*
X210045255Y-54575152D01*
X209807160Y-54241819D02*
X209807160Y-55098961D01*
X209807160Y-55098961D02*
X209854779Y-55194200D01*
X209854779Y-55194200D02*
X209950017Y-55241819D01*
X209950017Y-55241819D02*
X210045255Y-55241819D01*
X210378589Y-54860866D02*
X211140494Y-54860866D01*
X210759541Y-55241819D02*
X210759541Y-54479914D01*
X103719580Y-82716666D02*
X103767200Y-82764285D01*
X103767200Y-82764285D02*
X103814819Y-82907142D01*
X103814819Y-82907142D02*
X103814819Y-83002380D01*
X103814819Y-83002380D02*
X103767200Y-83145237D01*
X103767200Y-83145237D02*
X103671961Y-83240475D01*
X103671961Y-83240475D02*
X103576723Y-83288094D01*
X103576723Y-83288094D02*
X103386247Y-83335713D01*
X103386247Y-83335713D02*
X103243390Y-83335713D01*
X103243390Y-83335713D02*
X103052914Y-83288094D01*
X103052914Y-83288094D02*
X102957676Y-83240475D01*
X102957676Y-83240475D02*
X102862438Y-83145237D01*
X102862438Y-83145237D02*
X102814819Y-83002380D01*
X102814819Y-83002380D02*
X102814819Y-82907142D01*
X102814819Y-82907142D02*
X102862438Y-82764285D01*
X102862438Y-82764285D02*
X102910057Y-82716666D01*
X102814819Y-82383332D02*
X102814819Y-81764285D01*
X102814819Y-81764285D02*
X103195771Y-82097618D01*
X103195771Y-82097618D02*
X103195771Y-81954761D01*
X103195771Y-81954761D02*
X103243390Y-81859523D01*
X103243390Y-81859523D02*
X103291009Y-81811904D01*
X103291009Y-81811904D02*
X103386247Y-81764285D01*
X103386247Y-81764285D02*
X103624342Y-81764285D01*
X103624342Y-81764285D02*
X103719580Y-81811904D01*
X103719580Y-81811904D02*
X103767200Y-81859523D01*
X103767200Y-81859523D02*
X103814819Y-81954761D01*
X103814819Y-81954761D02*
X103814819Y-82240475D01*
X103814819Y-82240475D02*
X103767200Y-82335713D01*
X103767200Y-82335713D02*
X103719580Y-82383332D01*
X197469580Y-82676666D02*
X197517200Y-82724285D01*
X197517200Y-82724285D02*
X197564819Y-82867142D01*
X197564819Y-82867142D02*
X197564819Y-82962380D01*
X197564819Y-82962380D02*
X197517200Y-83105237D01*
X197517200Y-83105237D02*
X197421961Y-83200475D01*
X197421961Y-83200475D02*
X197326723Y-83248094D01*
X197326723Y-83248094D02*
X197136247Y-83295713D01*
X197136247Y-83295713D02*
X196993390Y-83295713D01*
X196993390Y-83295713D02*
X196802914Y-83248094D01*
X196802914Y-83248094D02*
X196707676Y-83200475D01*
X196707676Y-83200475D02*
X196612438Y-83105237D01*
X196612438Y-83105237D02*
X196564819Y-82962380D01*
X196564819Y-82962380D02*
X196564819Y-82867142D01*
X196564819Y-82867142D02*
X196612438Y-82724285D01*
X196612438Y-82724285D02*
X196660057Y-82676666D01*
X196993390Y-82105237D02*
X196945771Y-82200475D01*
X196945771Y-82200475D02*
X196898152Y-82248094D01*
X196898152Y-82248094D02*
X196802914Y-82295713D01*
X196802914Y-82295713D02*
X196755295Y-82295713D01*
X196755295Y-82295713D02*
X196660057Y-82248094D01*
X196660057Y-82248094D02*
X196612438Y-82200475D01*
X196612438Y-82200475D02*
X196564819Y-82105237D01*
X196564819Y-82105237D02*
X196564819Y-81914761D01*
X196564819Y-81914761D02*
X196612438Y-81819523D01*
X196612438Y-81819523D02*
X196660057Y-81771904D01*
X196660057Y-81771904D02*
X196755295Y-81724285D01*
X196755295Y-81724285D02*
X196802914Y-81724285D01*
X196802914Y-81724285D02*
X196898152Y-81771904D01*
X196898152Y-81771904D02*
X196945771Y-81819523D01*
X196945771Y-81819523D02*
X196993390Y-81914761D01*
X196993390Y-81914761D02*
X196993390Y-82105237D01*
X196993390Y-82105237D02*
X197041009Y-82200475D01*
X197041009Y-82200475D02*
X197088628Y-82248094D01*
X197088628Y-82248094D02*
X197183866Y-82295713D01*
X197183866Y-82295713D02*
X197374342Y-82295713D01*
X197374342Y-82295713D02*
X197469580Y-82248094D01*
X197469580Y-82248094D02*
X197517200Y-82200475D01*
X197517200Y-82200475D02*
X197564819Y-82105237D01*
X197564819Y-82105237D02*
X197564819Y-81914761D01*
X197564819Y-81914761D02*
X197517200Y-81819523D01*
X197517200Y-81819523D02*
X197469580Y-81771904D01*
X197469580Y-81771904D02*
X197374342Y-81724285D01*
X197374342Y-81724285D02*
X197183866Y-81724285D01*
X197183866Y-81724285D02*
X197088628Y-81771904D01*
X197088628Y-81771904D02*
X197041009Y-81819523D01*
X197041009Y-81819523D02*
X196993390Y-81914761D01*
D11*
X93163365Y-94191666D02*
X93223842Y-94252142D01*
X93223842Y-94252142D02*
X93284318Y-94433571D01*
X93284318Y-94433571D02*
X93284318Y-94554523D01*
X93284318Y-94554523D02*
X93223842Y-94735952D01*
X93223842Y-94735952D02*
X93102889Y-94856904D01*
X93102889Y-94856904D02*
X92981937Y-94917381D01*
X92981937Y-94917381D02*
X92740032Y-94977857D01*
X92740032Y-94977857D02*
X92558603Y-94977857D01*
X92558603Y-94977857D02*
X92316699Y-94917381D01*
X92316699Y-94917381D02*
X92195746Y-94856904D01*
X92195746Y-94856904D02*
X92074794Y-94735952D01*
X92074794Y-94735952D02*
X92014318Y-94554523D01*
X92014318Y-94554523D02*
X92014318Y-94433571D01*
X92014318Y-94433571D02*
X92074794Y-94252142D01*
X92074794Y-94252142D02*
X92135270Y-94191666D01*
X93284318Y-92982142D02*
X93284318Y-93707857D01*
X93284318Y-93345000D02*
X92014318Y-93345000D01*
X92014318Y-93345000D02*
X92195746Y-93465952D01*
X92195746Y-93465952D02*
X92316699Y-93586904D01*
X92316699Y-93586904D02*
X92377175Y-93707857D01*
D10*
X110039580Y-82716666D02*
X110087200Y-82764285D01*
X110087200Y-82764285D02*
X110134819Y-82907142D01*
X110134819Y-82907142D02*
X110134819Y-83002380D01*
X110134819Y-83002380D02*
X110087200Y-83145237D01*
X110087200Y-83145237D02*
X109991961Y-83240475D01*
X109991961Y-83240475D02*
X109896723Y-83288094D01*
X109896723Y-83288094D02*
X109706247Y-83335713D01*
X109706247Y-83335713D02*
X109563390Y-83335713D01*
X109563390Y-83335713D02*
X109372914Y-83288094D01*
X109372914Y-83288094D02*
X109277676Y-83240475D01*
X109277676Y-83240475D02*
X109182438Y-83145237D01*
X109182438Y-83145237D02*
X109134819Y-83002380D01*
X109134819Y-83002380D02*
X109134819Y-82907142D01*
X109134819Y-82907142D02*
X109182438Y-82764285D01*
X109182438Y-82764285D02*
X109230057Y-82716666D01*
X109230057Y-82335713D02*
X109182438Y-82288094D01*
X109182438Y-82288094D02*
X109134819Y-82192856D01*
X109134819Y-82192856D02*
X109134819Y-81954761D01*
X109134819Y-81954761D02*
X109182438Y-81859523D01*
X109182438Y-81859523D02*
X109230057Y-81811904D01*
X109230057Y-81811904D02*
X109325295Y-81764285D01*
X109325295Y-81764285D02*
X109420533Y-81764285D01*
X109420533Y-81764285D02*
X109563390Y-81811904D01*
X109563390Y-81811904D02*
X110134819Y-82383332D01*
X110134819Y-82383332D02*
X110134819Y-81764285D01*
X218948095Y-58874819D02*
X218948095Y-57874819D01*
X218948095Y-58351009D02*
X219519523Y-58351009D01*
X219519523Y-58874819D02*
X219519523Y-57874819D01*
X220471904Y-57874819D02*
X219995714Y-57874819D01*
X219995714Y-57874819D02*
X219948095Y-58351009D01*
X219948095Y-58351009D02*
X219995714Y-58303390D01*
X219995714Y-58303390D02*
X220090952Y-58255771D01*
X220090952Y-58255771D02*
X220329047Y-58255771D01*
X220329047Y-58255771D02*
X220424285Y-58303390D01*
X220424285Y-58303390D02*
X220471904Y-58351009D01*
X220471904Y-58351009D02*
X220519523Y-58446247D01*
X220519523Y-58446247D02*
X220519523Y-58684342D01*
X220519523Y-58684342D02*
X220471904Y-58779580D01*
X220471904Y-58779580D02*
X220424285Y-58827200D01*
X220424285Y-58827200D02*
X220329047Y-58874819D01*
X220329047Y-58874819D02*
X220090952Y-58874819D01*
X220090952Y-58874819D02*
X219995714Y-58827200D01*
X219995714Y-58827200D02*
X219948095Y-58779580D01*
X213719580Y-82716666D02*
X213767200Y-82764285D01*
X213767200Y-82764285D02*
X213814819Y-82907142D01*
X213814819Y-82907142D02*
X213814819Y-83002380D01*
X213814819Y-83002380D02*
X213767200Y-83145237D01*
X213767200Y-83145237D02*
X213671961Y-83240475D01*
X213671961Y-83240475D02*
X213576723Y-83288094D01*
X213576723Y-83288094D02*
X213386247Y-83335713D01*
X213386247Y-83335713D02*
X213243390Y-83335713D01*
X213243390Y-83335713D02*
X213052914Y-83288094D01*
X213052914Y-83288094D02*
X212957676Y-83240475D01*
X212957676Y-83240475D02*
X212862438Y-83145237D01*
X212862438Y-83145237D02*
X212814819Y-83002380D01*
X212814819Y-83002380D02*
X212814819Y-82907142D01*
X212814819Y-82907142D02*
X212862438Y-82764285D01*
X212862438Y-82764285D02*
X212910057Y-82716666D01*
X213814819Y-82240475D02*
X213814819Y-82049999D01*
X213814819Y-82049999D02*
X213767200Y-81954761D01*
X213767200Y-81954761D02*
X213719580Y-81907142D01*
X213719580Y-81907142D02*
X213576723Y-81811904D01*
X213576723Y-81811904D02*
X213386247Y-81764285D01*
X213386247Y-81764285D02*
X213005295Y-81764285D01*
X213005295Y-81764285D02*
X212910057Y-81811904D01*
X212910057Y-81811904D02*
X212862438Y-81859523D01*
X212862438Y-81859523D02*
X212814819Y-81954761D01*
X212814819Y-81954761D02*
X212814819Y-82145237D01*
X212814819Y-82145237D02*
X212862438Y-82240475D01*
X212862438Y-82240475D02*
X212910057Y-82288094D01*
X212910057Y-82288094D02*
X213005295Y-82335713D01*
X213005295Y-82335713D02*
X213243390Y-82335713D01*
X213243390Y-82335713D02*
X213338628Y-82288094D01*
X213338628Y-82288094D02*
X213386247Y-82240475D01*
X213386247Y-82240475D02*
X213433866Y-82145237D01*
X213433866Y-82145237D02*
X213433866Y-81954761D01*
X213433866Y-81954761D02*
X213386247Y-81859523D01*
X213386247Y-81859523D02*
X213338628Y-81811904D01*
X213338628Y-81811904D02*
X213243390Y-81764285D01*
D12*
X70143333Y-98637419D02*
X69667143Y-98637419D01*
X69667143Y-98637419D02*
X69667143Y-97637419D01*
X70429048Y-97732657D02*
X70476667Y-97685038D01*
X70476667Y-97685038D02*
X70571905Y-97637419D01*
X70571905Y-97637419D02*
X70810000Y-97637419D01*
X70810000Y-97637419D02*
X70905238Y-97685038D01*
X70905238Y-97685038D02*
X70952857Y-97732657D01*
X70952857Y-97732657D02*
X71000476Y-97827895D01*
X71000476Y-97827895D02*
X71000476Y-97923133D01*
X71000476Y-97923133D02*
X70952857Y-98065990D01*
X70952857Y-98065990D02*
X70381429Y-98637419D01*
X70381429Y-98637419D02*
X71000476Y-98637419D01*
D10*
X160979580Y-82716666D02*
X161027200Y-82764285D01*
X161027200Y-82764285D02*
X161074819Y-82907142D01*
X161074819Y-82907142D02*
X161074819Y-83002380D01*
X161074819Y-83002380D02*
X161027200Y-83145237D01*
X161027200Y-83145237D02*
X160931961Y-83240475D01*
X160931961Y-83240475D02*
X160836723Y-83288094D01*
X160836723Y-83288094D02*
X160646247Y-83335713D01*
X160646247Y-83335713D02*
X160503390Y-83335713D01*
X160503390Y-83335713D02*
X160312914Y-83288094D01*
X160312914Y-83288094D02*
X160217676Y-83240475D01*
X160217676Y-83240475D02*
X160122438Y-83145237D01*
X160122438Y-83145237D02*
X160074819Y-83002380D01*
X160074819Y-83002380D02*
X160074819Y-82907142D01*
X160074819Y-82907142D02*
X160122438Y-82764285D01*
X160122438Y-82764285D02*
X160170057Y-82716666D01*
X160074819Y-81811904D02*
X160074819Y-82288094D01*
X160074819Y-82288094D02*
X160551009Y-82335713D01*
X160551009Y-82335713D02*
X160503390Y-82288094D01*
X160503390Y-82288094D02*
X160455771Y-82192856D01*
X160455771Y-82192856D02*
X160455771Y-81954761D01*
X160455771Y-81954761D02*
X160503390Y-81859523D01*
X160503390Y-81859523D02*
X160551009Y-81811904D01*
X160551009Y-81811904D02*
X160646247Y-81764285D01*
X160646247Y-81764285D02*
X160884342Y-81764285D01*
X160884342Y-81764285D02*
X160979580Y-81811904D01*
X160979580Y-81811904D02*
X161027200Y-81859523D01*
X161027200Y-81859523D02*
X161074819Y-81954761D01*
X161074819Y-81954761D02*
X161074819Y-82192856D01*
X161074819Y-82192856D02*
X161027200Y-82288094D01*
X161027200Y-82288094D02*
X160979580Y-82335713D01*
D12*
X178776666Y-90592580D02*
X179252856Y-90592580D01*
X179252856Y-90592580D02*
X179252856Y-91592580D01*
X177967142Y-91592580D02*
X178443332Y-91592580D01*
X178443332Y-91592580D02*
X178490951Y-91116390D01*
X178490951Y-91116390D02*
X178443332Y-91164009D01*
X178443332Y-91164009D02*
X178348094Y-91211628D01*
X178348094Y-91211628D02*
X178109999Y-91211628D01*
X178109999Y-91211628D02*
X178014761Y-91164009D01*
X178014761Y-91164009D02*
X177967142Y-91116390D01*
X177967142Y-91116390D02*
X177919523Y-91021152D01*
X177919523Y-91021152D02*
X177919523Y-90783057D01*
X177919523Y-90783057D02*
X177967142Y-90687819D01*
X177967142Y-90687819D02*
X178014761Y-90640200D01*
X178014761Y-90640200D02*
X178109999Y-90592580D01*
X178109999Y-90592580D02*
X178348094Y-90592580D01*
X178348094Y-90592580D02*
X178443332Y-90640200D01*
X178443332Y-90640200D02*
X178490951Y-90687819D01*
D10*
X155759580Y-82716666D02*
X155807200Y-82764285D01*
X155807200Y-82764285D02*
X155854819Y-82907142D01*
X155854819Y-82907142D02*
X155854819Y-83002380D01*
X155854819Y-83002380D02*
X155807200Y-83145237D01*
X155807200Y-83145237D02*
X155711961Y-83240475D01*
X155711961Y-83240475D02*
X155616723Y-83288094D01*
X155616723Y-83288094D02*
X155426247Y-83335713D01*
X155426247Y-83335713D02*
X155283390Y-83335713D01*
X155283390Y-83335713D02*
X155092914Y-83288094D01*
X155092914Y-83288094D02*
X154997676Y-83240475D01*
X154997676Y-83240475D02*
X154902438Y-83145237D01*
X154902438Y-83145237D02*
X154854819Y-83002380D01*
X154854819Y-83002380D02*
X154854819Y-82907142D01*
X154854819Y-82907142D02*
X154902438Y-82764285D01*
X154902438Y-82764285D02*
X154950057Y-82716666D01*
X154854819Y-81859523D02*
X154854819Y-82049999D01*
X154854819Y-82049999D02*
X154902438Y-82145237D01*
X154902438Y-82145237D02*
X154950057Y-82192856D01*
X154950057Y-82192856D02*
X155092914Y-82288094D01*
X155092914Y-82288094D02*
X155283390Y-82335713D01*
X155283390Y-82335713D02*
X155664342Y-82335713D01*
X155664342Y-82335713D02*
X155759580Y-82288094D01*
X155759580Y-82288094D02*
X155807200Y-82240475D01*
X155807200Y-82240475D02*
X155854819Y-82145237D01*
X155854819Y-82145237D02*
X155854819Y-81954761D01*
X155854819Y-81954761D02*
X155807200Y-81859523D01*
X155807200Y-81859523D02*
X155759580Y-81811904D01*
X155759580Y-81811904D02*
X155664342Y-81764285D01*
X155664342Y-81764285D02*
X155426247Y-81764285D01*
X155426247Y-81764285D02*
X155331009Y-81811904D01*
X155331009Y-81811904D02*
X155283390Y-81859523D01*
X155283390Y-81859523D02*
X155235771Y-81954761D01*
X155235771Y-81954761D02*
X155235771Y-82145237D01*
X155235771Y-82145237D02*
X155283390Y-82240475D01*
X155283390Y-82240475D02*
X155331009Y-82288094D01*
X155331009Y-82288094D02*
X155426247Y-82335713D01*
D12*
X173013333Y-98637419D02*
X172537143Y-98637419D01*
X172537143Y-98637419D02*
X172537143Y-97637419D01*
X173775238Y-97637419D02*
X173584762Y-97637419D01*
X173584762Y-97637419D02*
X173489524Y-97685038D01*
X173489524Y-97685038D02*
X173441905Y-97732657D01*
X173441905Y-97732657D02*
X173346667Y-97875514D01*
X173346667Y-97875514D02*
X173299048Y-98065990D01*
X173299048Y-98065990D02*
X173299048Y-98446942D01*
X173299048Y-98446942D02*
X173346667Y-98542180D01*
X173346667Y-98542180D02*
X173394286Y-98589800D01*
X173394286Y-98589800D02*
X173489524Y-98637419D01*
X173489524Y-98637419D02*
X173680000Y-98637419D01*
X173680000Y-98637419D02*
X173775238Y-98589800D01*
X173775238Y-98589800D02*
X173822857Y-98542180D01*
X173822857Y-98542180D02*
X173870476Y-98446942D01*
X173870476Y-98446942D02*
X173870476Y-98208847D01*
X173870476Y-98208847D02*
X173822857Y-98113609D01*
X173822857Y-98113609D02*
X173775238Y-98065990D01*
X173775238Y-98065990D02*
X173680000Y-98018371D01*
X173680000Y-98018371D02*
X173489524Y-98018371D01*
X173489524Y-98018371D02*
X173394286Y-98065990D01*
X173394286Y-98065990D02*
X173346667Y-98113609D01*
X173346667Y-98113609D02*
X173299048Y-98208847D01*
X127976666Y-90592580D02*
X128452856Y-90592580D01*
X128452856Y-90592580D02*
X128452856Y-91592580D01*
X127738570Y-91592580D02*
X127119523Y-91592580D01*
X127119523Y-91592580D02*
X127452856Y-91211628D01*
X127452856Y-91211628D02*
X127309999Y-91211628D01*
X127309999Y-91211628D02*
X127214761Y-91164009D01*
X127214761Y-91164009D02*
X127167142Y-91116390D01*
X127167142Y-91116390D02*
X127119523Y-91021152D01*
X127119523Y-91021152D02*
X127119523Y-90783057D01*
X127119523Y-90783057D02*
X127167142Y-90687819D01*
X127167142Y-90687819D02*
X127214761Y-90640200D01*
X127214761Y-90640200D02*
X127309999Y-90592580D01*
X127309999Y-90592580D02*
X127595713Y-90592580D01*
X127595713Y-90592580D02*
X127690951Y-90640200D01*
X127690951Y-90640200D02*
X127738570Y-90687819D01*
D10*
X218948095Y-118664819D02*
X218948095Y-117664819D01*
X218948095Y-118141009D02*
X219519523Y-118141009D01*
X219519523Y-118664819D02*
X219519523Y-117664819D01*
X220424285Y-117664819D02*
X220233809Y-117664819D01*
X220233809Y-117664819D02*
X220138571Y-117712438D01*
X220138571Y-117712438D02*
X220090952Y-117760057D01*
X220090952Y-117760057D02*
X219995714Y-117902914D01*
X219995714Y-117902914D02*
X219948095Y-118093390D01*
X219948095Y-118093390D02*
X219948095Y-118474342D01*
X219948095Y-118474342D02*
X219995714Y-118569580D01*
X219995714Y-118569580D02*
X220043333Y-118617200D01*
X220043333Y-118617200D02*
X220138571Y-118664819D01*
X220138571Y-118664819D02*
X220329047Y-118664819D01*
X220329047Y-118664819D02*
X220424285Y-118617200D01*
X220424285Y-118617200D02*
X220471904Y-118569580D01*
X220471904Y-118569580D02*
X220519523Y-118474342D01*
X220519523Y-118474342D02*
X220519523Y-118236247D01*
X220519523Y-118236247D02*
X220471904Y-118141009D01*
X220471904Y-118141009D02*
X220424285Y-118093390D01*
X220424285Y-118093390D02*
X220329047Y-118045771D01*
X220329047Y-118045771D02*
X220138571Y-118045771D01*
X220138571Y-118045771D02*
X220043333Y-118093390D01*
X220043333Y-118093390D02*
X219995714Y-118141009D01*
X219995714Y-118141009D02*
X219948095Y-118236247D01*
X206789580Y-82676666D02*
X206837200Y-82724285D01*
X206837200Y-82724285D02*
X206884819Y-82867142D01*
X206884819Y-82867142D02*
X206884819Y-82962380D01*
X206884819Y-82962380D02*
X206837200Y-83105237D01*
X206837200Y-83105237D02*
X206741961Y-83200475D01*
X206741961Y-83200475D02*
X206646723Y-83248094D01*
X206646723Y-83248094D02*
X206456247Y-83295713D01*
X206456247Y-83295713D02*
X206313390Y-83295713D01*
X206313390Y-83295713D02*
X206122914Y-83248094D01*
X206122914Y-83248094D02*
X206027676Y-83200475D01*
X206027676Y-83200475D02*
X205932438Y-83105237D01*
X205932438Y-83105237D02*
X205884819Y-82962380D01*
X205884819Y-82962380D02*
X205884819Y-82867142D01*
X205884819Y-82867142D02*
X205932438Y-82724285D01*
X205932438Y-82724285D02*
X205980057Y-82676666D01*
X205884819Y-82343332D02*
X205884819Y-81676666D01*
X205884819Y-81676666D02*
X206884819Y-82105237D01*
D11*
X143963365Y-94286666D02*
X144023842Y-94347142D01*
X144023842Y-94347142D02*
X144084318Y-94528571D01*
X144084318Y-94528571D02*
X144084318Y-94649523D01*
X144084318Y-94649523D02*
X144023842Y-94830952D01*
X144023842Y-94830952D02*
X143902889Y-94951904D01*
X143902889Y-94951904D02*
X143781937Y-95012381D01*
X143781937Y-95012381D02*
X143540032Y-95072857D01*
X143540032Y-95072857D02*
X143358603Y-95072857D01*
X143358603Y-95072857D02*
X143116699Y-95012381D01*
X143116699Y-95012381D02*
X142995746Y-94951904D01*
X142995746Y-94951904D02*
X142874794Y-94830952D01*
X142874794Y-94830952D02*
X142814318Y-94649523D01*
X142814318Y-94649523D02*
X142814318Y-94528571D01*
X142814318Y-94528571D02*
X142874794Y-94347142D01*
X142874794Y-94347142D02*
X142935270Y-94286666D01*
X143237651Y-93198095D02*
X144084318Y-93198095D01*
X142753842Y-93500476D02*
X143660984Y-93802857D01*
X143660984Y-93802857D02*
X143660984Y-93016666D01*
D10*
X151638095Y-58874819D02*
X151638095Y-57874819D01*
X151638095Y-58351009D02*
X152209523Y-58351009D01*
X152209523Y-58874819D02*
X152209523Y-57874819D01*
X153114285Y-58208152D02*
X153114285Y-58874819D01*
X152876190Y-57827200D02*
X152638095Y-58541485D01*
X152638095Y-58541485D02*
X153257142Y-58541485D01*
D12*
X120943333Y-98637419D02*
X120467143Y-98637419D01*
X120467143Y-98637419D02*
X120467143Y-97637419D01*
X121705238Y-97970752D02*
X121705238Y-98637419D01*
X121467143Y-97589800D02*
X121229048Y-98304085D01*
X121229048Y-98304085D02*
X121848095Y-98304085D01*
D10*
X44958095Y-58874819D02*
X44958095Y-57874819D01*
X44958095Y-58351009D02*
X45529523Y-58351009D01*
X45529523Y-58874819D02*
X45529523Y-57874819D01*
X46529523Y-58874819D02*
X45958095Y-58874819D01*
X46243809Y-58874819D02*
X46243809Y-57874819D01*
X46243809Y-57874819D02*
X46148571Y-58017676D01*
X46148571Y-58017676D02*
X46053333Y-58112914D01*
X46053333Y-58112914D02*
X45958095Y-58160533D01*
X44958095Y-118664819D02*
X44958095Y-117664819D01*
X44958095Y-118141009D02*
X45529523Y-118141009D01*
X45529523Y-118664819D02*
X45529523Y-117664819D01*
X45958095Y-117760057D02*
X46005714Y-117712438D01*
X46005714Y-117712438D02*
X46100952Y-117664819D01*
X46100952Y-117664819D02*
X46339047Y-117664819D01*
X46339047Y-117664819D02*
X46434285Y-117712438D01*
X46434285Y-117712438D02*
X46481904Y-117760057D01*
X46481904Y-117760057D02*
X46529523Y-117855295D01*
X46529523Y-117855295D02*
X46529523Y-117950533D01*
X46529523Y-117950533D02*
X46481904Y-118093390D01*
X46481904Y-118093390D02*
X45910476Y-118664819D01*
X45910476Y-118664819D02*
X46529523Y-118664819D01*
X100838095Y-52624819D02*
X100838095Y-51624819D01*
X100838095Y-52101009D02*
X101409523Y-52101009D01*
X101409523Y-52624819D02*
X101409523Y-51624819D01*
X101790476Y-51624819D02*
X102409523Y-51624819D01*
X102409523Y-51624819D02*
X102076190Y-52005771D01*
X102076190Y-52005771D02*
X102219047Y-52005771D01*
X102219047Y-52005771D02*
X102314285Y-52053390D01*
X102314285Y-52053390D02*
X102361904Y-52101009D01*
X102361904Y-52101009D02*
X102409523Y-52196247D01*
X102409523Y-52196247D02*
X102409523Y-52434342D01*
X102409523Y-52434342D02*
X102361904Y-52529580D01*
X102361904Y-52529580D02*
X102314285Y-52577200D01*
X102314285Y-52577200D02*
X102219047Y-52624819D01*
X102219047Y-52624819D02*
X101933333Y-52624819D01*
X101933333Y-52624819D02*
X101838095Y-52577200D01*
X101838095Y-52577200D02*
X101790476Y-52529580D01*
D12*
X77306666Y-90592580D02*
X77782856Y-90592580D01*
X77782856Y-90592580D02*
X77782856Y-91592580D01*
X76449523Y-90592580D02*
X77020951Y-90592580D01*
X76735237Y-90592580D02*
X76735237Y-91592580D01*
X76735237Y-91592580D02*
X76830475Y-91449723D01*
X76830475Y-91449723D02*
X76925713Y-91354485D01*
X76925713Y-91354485D02*
X77020951Y-91306866D01*
D13*
%TO.C,C3*%
X102230000Y-78930000D02*
X98490000Y-78930000D01*
X102230000Y-78930000D02*
X102230000Y-86170000D01*
X98490000Y-78930000D02*
X98490000Y-86170000D01*
X102230000Y-86170000D02*
X98490000Y-86170000D01*
%TO.C,C8*%
X195980000Y-78890000D02*
X192911000Y-78890000D01*
X195980000Y-78890000D02*
X195980000Y-86130000D01*
X192309000Y-78890000D02*
X189240000Y-78890000D01*
X189240000Y-78890000D02*
X189240000Y-86130000D01*
X195980000Y-86130000D02*
X192911000Y-86130000D01*
X192309000Y-86130000D02*
X189240000Y-86130000D01*
D12*
%TO.C,C1*%
X96460000Y-79730000D02*
X96460000Y-108230000D01*
X88960000Y-79730000D02*
X96460000Y-79730000D01*
X96460000Y-108230000D02*
X88960000Y-108230000D01*
X88960000Y-108230000D02*
X88960000Y-79730000D01*
D13*
%TO.C,C2*%
X108550000Y-78930000D02*
X104810000Y-78930000D01*
X108550000Y-78930000D02*
X108550000Y-86170000D01*
X104810000Y-78930000D02*
X104810000Y-86170000D01*
X108550000Y-86170000D02*
X104810000Y-86170000D01*
%TO.C,C9*%
X212690000Y-78930000D02*
X208950000Y-78930000D01*
X212690000Y-78930000D02*
X212690000Y-86170000D01*
X208950000Y-78930000D02*
X208950000Y-86170000D01*
X212690000Y-86170000D02*
X208950000Y-86170000D01*
D12*
%TO.C,L2*%
X60910000Y-102680000D02*
X86410000Y-102680000D01*
X86410000Y-102680000D02*
X86410000Y-123380000D01*
X86410000Y-123380000D02*
X60910000Y-123380000D01*
X60910000Y-123380000D02*
X60910000Y-102680000D01*
D13*
%TO.C,C5*%
X160620000Y-78930000D02*
X156880000Y-78930000D01*
X160620000Y-78930000D02*
X160620000Y-86170000D01*
X156880000Y-78930000D02*
X156880000Y-86170000D01*
X160620000Y-86170000D02*
X156880000Y-86170000D01*
D12*
%TO.C,L5*%
X188010000Y-86550000D02*
X162510000Y-86550000D01*
X162510000Y-86550000D02*
X162510000Y-65850000D01*
X162510000Y-65850000D02*
X188010000Y-65850000D01*
X188010000Y-65850000D02*
X188010000Y-86550000D01*
D13*
%TO.C,C6*%
X154270000Y-78930000D02*
X150530000Y-78930000D01*
X154270000Y-78930000D02*
X154270000Y-86170000D01*
X150530000Y-78930000D02*
X150530000Y-86170000D01*
X154270000Y-86170000D02*
X150530000Y-86170000D01*
D12*
%TO.C,L6*%
X163780000Y-102680000D02*
X189280000Y-102680000D01*
X189280000Y-102680000D02*
X189280000Y-123380000D01*
X189280000Y-123380000D02*
X163780000Y-123380000D01*
X163780000Y-123380000D02*
X163780000Y-102680000D01*
%TO.C,L3*%
X137210000Y-86550000D02*
X111710000Y-86550000D01*
X111710000Y-86550000D02*
X111710000Y-65850000D01*
X111710000Y-65850000D02*
X137210000Y-65850000D01*
X137210000Y-65850000D02*
X137210000Y-86550000D01*
D13*
%TO.C,C7*%
X205300000Y-78890000D02*
X202231000Y-78890000D01*
X205300000Y-78890000D02*
X205300000Y-86130000D01*
X201629000Y-78890000D02*
X198560000Y-78890000D01*
X198560000Y-78890000D02*
X198560000Y-86130000D01*
X205300000Y-86130000D02*
X202231000Y-86130000D01*
X201629000Y-86130000D02*
X198560000Y-86130000D01*
D12*
%TO.C,C4*%
X147260000Y-79825000D02*
X147260000Y-108325000D01*
X139760000Y-79825000D02*
X147260000Y-79825000D01*
X147260000Y-108325000D02*
X139760000Y-108325000D01*
X139760000Y-108325000D02*
X139760000Y-79825000D01*
%TO.C,L4*%
X111710000Y-102680000D02*
X137210000Y-102680000D01*
X137210000Y-102680000D02*
X137210000Y-123380000D01*
X137210000Y-123380000D02*
X111710000Y-123380000D01*
X111710000Y-123380000D02*
X111710000Y-102680000D01*
%TO.C,L1*%
X86540000Y-86550000D02*
X61040000Y-86550000D01*
X61040000Y-86550000D02*
X61040000Y-65850000D01*
X61040000Y-65850000D02*
X86540000Y-65850000D01*
X86540000Y-65850000D02*
X86540000Y-86550000D01*
%TD*%
M02*
