%TF.GenerationSoftware,KiCad,Pcbnew,7.0.7*%
%TF.CreationDate,2023-09-25T12:20:41+02:00*%
%TF.ProjectId,GradientAmplifierFilter_V1,47726164-6965-46e7-9441-6d706c696669,rev?*%
%TF.SameCoordinates,Original*%
%TF.FileFunction,Legend,Top*%
%TF.FilePolarity,Positive*%
%FSLAX46Y46*%
G04 Gerber Fmt 4.6, Leading zero omitted, Abs format (unit mm)*
G04 Created by KiCad (PCBNEW 7.0.7) date 2023-09-25 12:20:41*
%MOMM*%
%LPD*%
G01*
G04 APERTURE LIST*
%ADD10C,0.150000*%
%ADD11C,0.400000*%
%ADD12C,0.100000*%
%ADD13C,0.254000*%
%ADD14C,0.300000*%
%ADD15C,0.120000*%
%TA.AperFunction,Profile*%
%ADD16C,0.150000*%
%TD*%
G04 APERTURE END LIST*
D10*
X20763922Y-32719819D02*
X21335350Y-32719819D01*
X21049636Y-33719819D02*
X21049636Y-32719819D01*
X21811541Y-33719819D02*
X21716303Y-33672200D01*
X21716303Y-33672200D02*
X21668684Y-33624580D01*
X21668684Y-33624580D02*
X21621065Y-33529342D01*
X21621065Y-33529342D02*
X21621065Y-33243628D01*
X21621065Y-33243628D02*
X21668684Y-33148390D01*
X21668684Y-33148390D02*
X21716303Y-33100771D01*
X21716303Y-33100771D02*
X21811541Y-33053152D01*
X21811541Y-33053152D02*
X21954398Y-33053152D01*
X21954398Y-33053152D02*
X22049636Y-33100771D01*
X22049636Y-33100771D02*
X22097255Y-33148390D01*
X22097255Y-33148390D02*
X22144874Y-33243628D01*
X22144874Y-33243628D02*
X22144874Y-33529342D01*
X22144874Y-33529342D02*
X22097255Y-33624580D01*
X22097255Y-33624580D02*
X22049636Y-33672200D01*
X22049636Y-33672200D02*
X21954398Y-33719819D01*
X21954398Y-33719819D02*
X21811541Y-33719819D01*
X23335351Y-33719819D02*
X23335351Y-32719819D01*
X23335351Y-33100771D02*
X23430589Y-33053152D01*
X23430589Y-33053152D02*
X23621065Y-33053152D01*
X23621065Y-33053152D02*
X23716303Y-33100771D01*
X23716303Y-33100771D02*
X23763922Y-33148390D01*
X23763922Y-33148390D02*
X23811541Y-33243628D01*
X23811541Y-33243628D02*
X23811541Y-33529342D01*
X23811541Y-33529342D02*
X23763922Y-33624580D01*
X23763922Y-33624580D02*
X23716303Y-33672200D01*
X23716303Y-33672200D02*
X23621065Y-33719819D01*
X23621065Y-33719819D02*
X23430589Y-33719819D01*
X23430589Y-33719819D02*
X23335351Y-33672200D01*
X24621065Y-33672200D02*
X24525827Y-33719819D01*
X24525827Y-33719819D02*
X24335351Y-33719819D01*
X24335351Y-33719819D02*
X24240113Y-33672200D01*
X24240113Y-33672200D02*
X24192494Y-33576961D01*
X24192494Y-33576961D02*
X24192494Y-33196009D01*
X24192494Y-33196009D02*
X24240113Y-33100771D01*
X24240113Y-33100771D02*
X24335351Y-33053152D01*
X24335351Y-33053152D02*
X24525827Y-33053152D01*
X24525827Y-33053152D02*
X24621065Y-33100771D01*
X24621065Y-33100771D02*
X24668684Y-33196009D01*
X24668684Y-33196009D02*
X24668684Y-33291247D01*
X24668684Y-33291247D02*
X24192494Y-33386485D01*
X26287732Y-33053152D02*
X26287732Y-33719819D01*
X25859161Y-33053152D02*
X25859161Y-33576961D01*
X25859161Y-33576961D02*
X25906780Y-33672200D01*
X25906780Y-33672200D02*
X26002018Y-33719819D01*
X26002018Y-33719819D02*
X26144875Y-33719819D01*
X26144875Y-33719819D02*
X26240113Y-33672200D01*
X26240113Y-33672200D02*
X26287732Y-33624580D01*
X26716304Y-33672200D02*
X26811542Y-33719819D01*
X26811542Y-33719819D02*
X27002018Y-33719819D01*
X27002018Y-33719819D02*
X27097256Y-33672200D01*
X27097256Y-33672200D02*
X27144875Y-33576961D01*
X27144875Y-33576961D02*
X27144875Y-33529342D01*
X27144875Y-33529342D02*
X27097256Y-33434104D01*
X27097256Y-33434104D02*
X27002018Y-33386485D01*
X27002018Y-33386485D02*
X26859161Y-33386485D01*
X26859161Y-33386485D02*
X26763923Y-33338866D01*
X26763923Y-33338866D02*
X26716304Y-33243628D01*
X26716304Y-33243628D02*
X26716304Y-33196009D01*
X26716304Y-33196009D02*
X26763923Y-33100771D01*
X26763923Y-33100771D02*
X26859161Y-33053152D01*
X26859161Y-33053152D02*
X27002018Y-33053152D01*
X27002018Y-33053152D02*
X27097256Y-33100771D01*
X27954399Y-33672200D02*
X27859161Y-33719819D01*
X27859161Y-33719819D02*
X27668685Y-33719819D01*
X27668685Y-33719819D02*
X27573447Y-33672200D01*
X27573447Y-33672200D02*
X27525828Y-33576961D01*
X27525828Y-33576961D02*
X27525828Y-33196009D01*
X27525828Y-33196009D02*
X27573447Y-33100771D01*
X27573447Y-33100771D02*
X27668685Y-33053152D01*
X27668685Y-33053152D02*
X27859161Y-33053152D01*
X27859161Y-33053152D02*
X27954399Y-33100771D01*
X27954399Y-33100771D02*
X28002018Y-33196009D01*
X28002018Y-33196009D02*
X28002018Y-33291247D01*
X28002018Y-33291247D02*
X27525828Y-33386485D01*
X28859161Y-33719819D02*
X28859161Y-32719819D01*
X28859161Y-33672200D02*
X28763923Y-33719819D01*
X28763923Y-33719819D02*
X28573447Y-33719819D01*
X28573447Y-33719819D02*
X28478209Y-33672200D01*
X28478209Y-33672200D02*
X28430590Y-33624580D01*
X28430590Y-33624580D02*
X28382971Y-33529342D01*
X28382971Y-33529342D02*
X28382971Y-33243628D01*
X28382971Y-33243628D02*
X28430590Y-33148390D01*
X28430590Y-33148390D02*
X28478209Y-33100771D01*
X28478209Y-33100771D02*
X28573447Y-33053152D01*
X28573447Y-33053152D02*
X28763923Y-33053152D01*
X28763923Y-33053152D02*
X28859161Y-33100771D01*
X30240114Y-33719819D02*
X30144876Y-33672200D01*
X30144876Y-33672200D02*
X30097257Y-33624580D01*
X30097257Y-33624580D02*
X30049638Y-33529342D01*
X30049638Y-33529342D02*
X30049638Y-33243628D01*
X30049638Y-33243628D02*
X30097257Y-33148390D01*
X30097257Y-33148390D02*
X30144876Y-33100771D01*
X30144876Y-33100771D02*
X30240114Y-33053152D01*
X30240114Y-33053152D02*
X30382971Y-33053152D01*
X30382971Y-33053152D02*
X30478209Y-33100771D01*
X30478209Y-33100771D02*
X30525828Y-33148390D01*
X30525828Y-33148390D02*
X30573447Y-33243628D01*
X30573447Y-33243628D02*
X30573447Y-33529342D01*
X30573447Y-33529342D02*
X30525828Y-33624580D01*
X30525828Y-33624580D02*
X30478209Y-33672200D01*
X30478209Y-33672200D02*
X30382971Y-33719819D01*
X30382971Y-33719819D02*
X30240114Y-33719819D01*
X31002019Y-33053152D02*
X31002019Y-33719819D01*
X31002019Y-33148390D02*
X31049638Y-33100771D01*
X31049638Y-33100771D02*
X31144876Y-33053152D01*
X31144876Y-33053152D02*
X31287733Y-33053152D01*
X31287733Y-33053152D02*
X31382971Y-33100771D01*
X31382971Y-33100771D02*
X31430590Y-33196009D01*
X31430590Y-33196009D02*
X31430590Y-33719819D01*
X32668686Y-33719819D02*
X32668686Y-32719819D01*
X33144876Y-33196009D02*
X33478209Y-33196009D01*
X33621066Y-33719819D02*
X33144876Y-33719819D01*
X33144876Y-33719819D02*
X33144876Y-32719819D01*
X33144876Y-32719819D02*
X33621066Y-32719819D01*
X34621066Y-33624580D02*
X34573447Y-33672200D01*
X34573447Y-33672200D02*
X34430590Y-33719819D01*
X34430590Y-33719819D02*
X34335352Y-33719819D01*
X34335352Y-33719819D02*
X34192495Y-33672200D01*
X34192495Y-33672200D02*
X34097257Y-33576961D01*
X34097257Y-33576961D02*
X34049638Y-33481723D01*
X34049638Y-33481723D02*
X34002019Y-33291247D01*
X34002019Y-33291247D02*
X34002019Y-33148390D01*
X34002019Y-33148390D02*
X34049638Y-32957914D01*
X34049638Y-32957914D02*
X34097257Y-32862676D01*
X34097257Y-32862676D02*
X34192495Y-32767438D01*
X34192495Y-32767438D02*
X34335352Y-32719819D01*
X34335352Y-32719819D02*
X34430590Y-32719819D01*
X34430590Y-32719819D02*
X34573447Y-32767438D01*
X34573447Y-32767438D02*
X34621066Y-32815057D01*
X35240114Y-32719819D02*
X35430590Y-32719819D01*
X35430590Y-32719819D02*
X35525828Y-32767438D01*
X35525828Y-32767438D02*
X35621066Y-32862676D01*
X35621066Y-32862676D02*
X35668685Y-33053152D01*
X35668685Y-33053152D02*
X35668685Y-33386485D01*
X35668685Y-33386485D02*
X35621066Y-33576961D01*
X35621066Y-33576961D02*
X35525828Y-33672200D01*
X35525828Y-33672200D02*
X35430590Y-33719819D01*
X35430590Y-33719819D02*
X35240114Y-33719819D01*
X35240114Y-33719819D02*
X35144876Y-33672200D01*
X35144876Y-33672200D02*
X35049638Y-33576961D01*
X35049638Y-33576961D02*
X35002019Y-33386485D01*
X35002019Y-33386485D02*
X35002019Y-33053152D01*
X35002019Y-33053152D02*
X35049638Y-32862676D01*
X35049638Y-32862676D02*
X35144876Y-32767438D01*
X35144876Y-32767438D02*
X35240114Y-32719819D01*
X36763924Y-32719819D02*
X37430590Y-33719819D01*
X37430590Y-32719819D02*
X36763924Y-33719819D01*
X37811543Y-33719819D02*
X37811543Y-32719819D01*
X37811543Y-32719819D02*
X38192495Y-32719819D01*
X38192495Y-32719819D02*
X38287733Y-32767438D01*
X38287733Y-32767438D02*
X38335352Y-32815057D01*
X38335352Y-32815057D02*
X38382971Y-32910295D01*
X38382971Y-32910295D02*
X38382971Y-33053152D01*
X38382971Y-33053152D02*
X38335352Y-33148390D01*
X38335352Y-33148390D02*
X38287733Y-33196009D01*
X38287733Y-33196009D02*
X38192495Y-33243628D01*
X38192495Y-33243628D02*
X37811543Y-33243628D01*
X38763924Y-33434104D02*
X39240114Y-33434104D01*
X38668686Y-33719819D02*
X39002019Y-32719819D01*
X39002019Y-32719819D02*
X39335352Y-33719819D01*
X40954400Y-33719819D02*
X40382972Y-33719819D01*
X40668686Y-33719819D02*
X40668686Y-32719819D01*
X40668686Y-32719819D02*
X40573448Y-32862676D01*
X40573448Y-32862676D02*
X40478210Y-32957914D01*
X40478210Y-32957914D02*
X40382972Y-33005533D01*
X41287734Y-32719819D02*
X41954400Y-32719819D01*
X41954400Y-32719819D02*
X41525829Y-33719819D01*
X42811543Y-32719819D02*
X42335353Y-32719819D01*
X42335353Y-32719819D02*
X42287734Y-33196009D01*
X42287734Y-33196009D02*
X42335353Y-33148390D01*
X42335353Y-33148390D02*
X42430591Y-33100771D01*
X42430591Y-33100771D02*
X42668686Y-33100771D01*
X42668686Y-33100771D02*
X42763924Y-33148390D01*
X42763924Y-33148390D02*
X42811543Y-33196009D01*
X42811543Y-33196009D02*
X42859162Y-33291247D01*
X42859162Y-33291247D02*
X42859162Y-33529342D01*
X42859162Y-33529342D02*
X42811543Y-33624580D01*
X42811543Y-33624580D02*
X42763924Y-33672200D01*
X42763924Y-33672200D02*
X42668686Y-33719819D01*
X42668686Y-33719819D02*
X42430591Y-33719819D01*
X42430591Y-33719819D02*
X42335353Y-33672200D01*
X42335353Y-33672200D02*
X42287734Y-33624580D01*
X43287734Y-33338866D02*
X44049639Y-33338866D01*
X44430591Y-32719819D02*
X45049638Y-32719819D01*
X45049638Y-32719819D02*
X44716305Y-33100771D01*
X44716305Y-33100771D02*
X44859162Y-33100771D01*
X44859162Y-33100771D02*
X44954400Y-33148390D01*
X44954400Y-33148390D02*
X45002019Y-33196009D01*
X45002019Y-33196009D02*
X45049638Y-33291247D01*
X45049638Y-33291247D02*
X45049638Y-33529342D01*
X45049638Y-33529342D02*
X45002019Y-33624580D01*
X45002019Y-33624580D02*
X44954400Y-33672200D01*
X44954400Y-33672200D02*
X44859162Y-33719819D01*
X44859162Y-33719819D02*
X44573448Y-33719819D01*
X44573448Y-33719819D02*
X44478210Y-33672200D01*
X44478210Y-33672200D02*
X44430591Y-33624580D01*
X45954400Y-32719819D02*
X45478210Y-32719819D01*
X45478210Y-32719819D02*
X45430591Y-33196009D01*
X45430591Y-33196009D02*
X45478210Y-33148390D01*
X45478210Y-33148390D02*
X45573448Y-33100771D01*
X45573448Y-33100771D02*
X45811543Y-33100771D01*
X45811543Y-33100771D02*
X45906781Y-33148390D01*
X45906781Y-33148390D02*
X45954400Y-33196009D01*
X45954400Y-33196009D02*
X46002019Y-33291247D01*
X46002019Y-33291247D02*
X46002019Y-33529342D01*
X46002019Y-33529342D02*
X45954400Y-33624580D01*
X45954400Y-33624580D02*
X45906781Y-33672200D01*
X45906781Y-33672200D02*
X45811543Y-33719819D01*
X45811543Y-33719819D02*
X45573448Y-33719819D01*
X45573448Y-33719819D02*
X45478210Y-33672200D01*
X45478210Y-33672200D02*
X45430591Y-33624580D01*
X46621067Y-32719819D02*
X46716305Y-32719819D01*
X46716305Y-32719819D02*
X46811543Y-32767438D01*
X46811543Y-32767438D02*
X46859162Y-32815057D01*
X46859162Y-32815057D02*
X46906781Y-32910295D01*
X46906781Y-32910295D02*
X46954400Y-33100771D01*
X46954400Y-33100771D02*
X46954400Y-33338866D01*
X46954400Y-33338866D02*
X46906781Y-33529342D01*
X46906781Y-33529342D02*
X46859162Y-33624580D01*
X46859162Y-33624580D02*
X46811543Y-33672200D01*
X46811543Y-33672200D02*
X46716305Y-33719819D01*
X46716305Y-33719819D02*
X46621067Y-33719819D01*
X46621067Y-33719819D02*
X46525829Y-33672200D01*
X46525829Y-33672200D02*
X46478210Y-33624580D01*
X46478210Y-33624580D02*
X46430591Y-33529342D01*
X46430591Y-33529342D02*
X46382972Y-33338866D01*
X46382972Y-33338866D02*
X46382972Y-33100771D01*
X46382972Y-33100771D02*
X46430591Y-32910295D01*
X46430591Y-32910295D02*
X46478210Y-32815057D01*
X46478210Y-32815057D02*
X46525829Y-32767438D01*
X46525829Y-32767438D02*
X46621067Y-32719819D01*
D11*
X176119347Y-32822533D02*
X177643157Y-32822533D01*
X176881252Y-33584438D02*
X176881252Y-32060628D01*
X176119347Y-101402533D02*
X177643157Y-101402533D01*
X-4090652Y-33584438D02*
X-4090652Y-31584438D01*
X-3138271Y-32251104D02*
X-3138271Y-33584438D01*
X-3138271Y-32441580D02*
X-3043033Y-32346342D01*
X-3043033Y-32346342D02*
X-2852557Y-32251104D01*
X-2852557Y-32251104D02*
X-2566842Y-32251104D01*
X-2566842Y-32251104D02*
X-2376366Y-32346342D01*
X-2376366Y-32346342D02*
X-2281128Y-32536819D01*
X-2281128Y-32536819D02*
X-2281128Y-33584438D01*
X-1328747Y-32251104D02*
X-1328747Y-34251104D01*
X-1328747Y-32346342D02*
X-1138271Y-32251104D01*
X-1138271Y-32251104D02*
X-757318Y-32251104D01*
X-757318Y-32251104D02*
X-566842Y-32346342D01*
X-566842Y-32346342D02*
X-471604Y-32441580D01*
X-471604Y-32441580D02*
X-376366Y-32632057D01*
X-376366Y-32632057D02*
X-376366Y-33203485D01*
X-376366Y-33203485D02*
X-471604Y-33393961D01*
X-471604Y-33393961D02*
X-566842Y-33489200D01*
X-566842Y-33489200D02*
X-757318Y-33584438D01*
X-757318Y-33584438D02*
X-1138271Y-33584438D01*
X-1138271Y-33584438D02*
X-1328747Y-33489200D01*
X1337919Y-32251104D02*
X1337919Y-33584438D01*
X480776Y-32251104D02*
X480776Y-33298723D01*
X480776Y-33298723D02*
X576014Y-33489200D01*
X576014Y-33489200D02*
X766490Y-33584438D01*
X766490Y-33584438D02*
X1052205Y-33584438D01*
X1052205Y-33584438D02*
X1242681Y-33489200D01*
X1242681Y-33489200D02*
X1337919Y-33393961D01*
X2004586Y-32251104D02*
X2766490Y-32251104D01*
X2290300Y-31584438D02*
X2290300Y-33298723D01*
X2290300Y-33298723D02*
X2385538Y-33489200D01*
X2385538Y-33489200D02*
X2576014Y-33584438D01*
X2576014Y-33584438D02*
X2766490Y-33584438D01*
X161260299Y-31584438D02*
X161641252Y-31584438D01*
X161641252Y-31584438D02*
X161831728Y-31679676D01*
X161831728Y-31679676D02*
X162022204Y-31870152D01*
X162022204Y-31870152D02*
X162117442Y-32251104D01*
X162117442Y-32251104D02*
X162117442Y-32917771D01*
X162117442Y-32917771D02*
X162022204Y-33298723D01*
X162022204Y-33298723D02*
X161831728Y-33489200D01*
X161831728Y-33489200D02*
X161641252Y-33584438D01*
X161641252Y-33584438D02*
X161260299Y-33584438D01*
X161260299Y-33584438D02*
X161069823Y-33489200D01*
X161069823Y-33489200D02*
X160879347Y-33298723D01*
X160879347Y-33298723D02*
X160784109Y-32917771D01*
X160784109Y-32917771D02*
X160784109Y-32251104D01*
X160784109Y-32251104D02*
X160879347Y-31870152D01*
X160879347Y-31870152D02*
X161069823Y-31679676D01*
X161069823Y-31679676D02*
X161260299Y-31584438D01*
X163831728Y-32251104D02*
X163831728Y-33584438D01*
X162974585Y-32251104D02*
X162974585Y-33298723D01*
X162974585Y-33298723D02*
X163069823Y-33489200D01*
X163069823Y-33489200D02*
X163260299Y-33584438D01*
X163260299Y-33584438D02*
X163546014Y-33584438D01*
X163546014Y-33584438D02*
X163736490Y-33489200D01*
X163736490Y-33489200D02*
X163831728Y-33393961D01*
X164498395Y-32251104D02*
X165260299Y-32251104D01*
X164784109Y-31584438D02*
X164784109Y-33298723D01*
X164784109Y-33298723D02*
X164879347Y-33489200D01*
X164879347Y-33489200D02*
X165069823Y-33584438D01*
X165069823Y-33584438D02*
X165260299Y-33584438D01*
X165926966Y-32251104D02*
X165926966Y-34251104D01*
X165926966Y-32346342D02*
X166117442Y-32251104D01*
X166117442Y-32251104D02*
X166498395Y-32251104D01*
X166498395Y-32251104D02*
X166688871Y-32346342D01*
X166688871Y-32346342D02*
X166784109Y-32441580D01*
X166784109Y-32441580D02*
X166879347Y-32632057D01*
X166879347Y-32632057D02*
X166879347Y-33203485D01*
X166879347Y-33203485D02*
X166784109Y-33393961D01*
X166784109Y-33393961D02*
X166688871Y-33489200D01*
X166688871Y-33489200D02*
X166498395Y-33584438D01*
X166498395Y-33584438D02*
X166117442Y-33584438D01*
X166117442Y-33584438D02*
X165926966Y-33489200D01*
X168593633Y-32251104D02*
X168593633Y-33584438D01*
X167736490Y-32251104D02*
X167736490Y-33298723D01*
X167736490Y-33298723D02*
X167831728Y-33489200D01*
X167831728Y-33489200D02*
X168022204Y-33584438D01*
X168022204Y-33584438D02*
X168307919Y-33584438D01*
X168307919Y-33584438D02*
X168498395Y-33489200D01*
X168498395Y-33489200D02*
X168593633Y-33393961D01*
X169260300Y-32251104D02*
X170022204Y-32251104D01*
X169546014Y-31584438D02*
X169546014Y-33298723D01*
X169546014Y-33298723D02*
X169641252Y-33489200D01*
X169641252Y-33489200D02*
X169831728Y-33584438D01*
X169831728Y-33584438D02*
X170022204Y-33584438D01*
D10*
X20414398Y-25537914D02*
X20128684Y-25395057D01*
X20128684Y-25395057D02*
X19700112Y-25395057D01*
X19700112Y-25395057D02*
X19271541Y-25537914D01*
X19271541Y-25537914D02*
X18985826Y-25823628D01*
X18985826Y-25823628D02*
X18842969Y-26109342D01*
X18842969Y-26109342D02*
X18700112Y-26680771D01*
X18700112Y-26680771D02*
X18700112Y-27109342D01*
X18700112Y-27109342D02*
X18842969Y-27680771D01*
X18842969Y-27680771D02*
X18985826Y-27966485D01*
X18985826Y-27966485D02*
X19271541Y-28252200D01*
X19271541Y-28252200D02*
X19700112Y-28395057D01*
X19700112Y-28395057D02*
X19985826Y-28395057D01*
X19985826Y-28395057D02*
X20414398Y-28252200D01*
X20414398Y-28252200D02*
X20557255Y-28109342D01*
X20557255Y-28109342D02*
X20557255Y-27109342D01*
X20557255Y-27109342D02*
X19985826Y-27109342D01*
X21842969Y-28395057D02*
X21842969Y-26395057D01*
X21842969Y-26966485D02*
X21985826Y-26680771D01*
X21985826Y-26680771D02*
X22128684Y-26537914D01*
X22128684Y-26537914D02*
X22414398Y-26395057D01*
X22414398Y-26395057D02*
X22700112Y-26395057D01*
X24985827Y-28395057D02*
X24985827Y-26823628D01*
X24985827Y-26823628D02*
X24842969Y-26537914D01*
X24842969Y-26537914D02*
X24557255Y-26395057D01*
X24557255Y-26395057D02*
X23985827Y-26395057D01*
X23985827Y-26395057D02*
X23700112Y-26537914D01*
X24985827Y-28252200D02*
X24700112Y-28395057D01*
X24700112Y-28395057D02*
X23985827Y-28395057D01*
X23985827Y-28395057D02*
X23700112Y-28252200D01*
X23700112Y-28252200D02*
X23557255Y-27966485D01*
X23557255Y-27966485D02*
X23557255Y-27680771D01*
X23557255Y-27680771D02*
X23700112Y-27395057D01*
X23700112Y-27395057D02*
X23985827Y-27252200D01*
X23985827Y-27252200D02*
X24700112Y-27252200D01*
X24700112Y-27252200D02*
X24985827Y-27109342D01*
X27700113Y-28395057D02*
X27700113Y-25395057D01*
X27700113Y-28252200D02*
X27414398Y-28395057D01*
X27414398Y-28395057D02*
X26842970Y-28395057D01*
X26842970Y-28395057D02*
X26557255Y-28252200D01*
X26557255Y-28252200D02*
X26414398Y-28109342D01*
X26414398Y-28109342D02*
X26271541Y-27823628D01*
X26271541Y-27823628D02*
X26271541Y-26966485D01*
X26271541Y-26966485D02*
X26414398Y-26680771D01*
X26414398Y-26680771D02*
X26557255Y-26537914D01*
X26557255Y-26537914D02*
X26842970Y-26395057D01*
X26842970Y-26395057D02*
X27414398Y-26395057D01*
X27414398Y-26395057D02*
X27700113Y-26537914D01*
X29128684Y-28395057D02*
X29128684Y-26395057D01*
X29128684Y-25395057D02*
X28985827Y-25537914D01*
X28985827Y-25537914D02*
X29128684Y-25680771D01*
X29128684Y-25680771D02*
X29271541Y-25537914D01*
X29271541Y-25537914D02*
X29128684Y-25395057D01*
X29128684Y-25395057D02*
X29128684Y-25680771D01*
X31700112Y-28252200D02*
X31414398Y-28395057D01*
X31414398Y-28395057D02*
X30842970Y-28395057D01*
X30842970Y-28395057D02*
X30557255Y-28252200D01*
X30557255Y-28252200D02*
X30414398Y-27966485D01*
X30414398Y-27966485D02*
X30414398Y-26823628D01*
X30414398Y-26823628D02*
X30557255Y-26537914D01*
X30557255Y-26537914D02*
X30842970Y-26395057D01*
X30842970Y-26395057D02*
X31414398Y-26395057D01*
X31414398Y-26395057D02*
X31700112Y-26537914D01*
X31700112Y-26537914D02*
X31842970Y-26823628D01*
X31842970Y-26823628D02*
X31842970Y-27109342D01*
X31842970Y-27109342D02*
X30414398Y-27395057D01*
X33128684Y-26395057D02*
X33128684Y-28395057D01*
X33128684Y-26680771D02*
X33271541Y-26537914D01*
X33271541Y-26537914D02*
X33557256Y-26395057D01*
X33557256Y-26395057D02*
X33985827Y-26395057D01*
X33985827Y-26395057D02*
X34271541Y-26537914D01*
X34271541Y-26537914D02*
X34414399Y-26823628D01*
X34414399Y-26823628D02*
X34414399Y-28395057D01*
X35414399Y-26395057D02*
X36557256Y-26395057D01*
X35842970Y-25395057D02*
X35842970Y-27966485D01*
X35842970Y-27966485D02*
X35985827Y-28252200D01*
X35985827Y-28252200D02*
X36271542Y-28395057D01*
X36271542Y-28395057D02*
X36557256Y-28395057D01*
X37414399Y-27537914D02*
X38842971Y-27537914D01*
X37128685Y-28395057D02*
X38128685Y-25395057D01*
X38128685Y-25395057D02*
X39128685Y-28395057D01*
X40128685Y-28395057D02*
X40128685Y-26395057D01*
X40128685Y-26680771D02*
X40271542Y-26537914D01*
X40271542Y-26537914D02*
X40557257Y-26395057D01*
X40557257Y-26395057D02*
X40985828Y-26395057D01*
X40985828Y-26395057D02*
X41271542Y-26537914D01*
X41271542Y-26537914D02*
X41414400Y-26823628D01*
X41414400Y-26823628D02*
X41414400Y-28395057D01*
X41414400Y-26823628D02*
X41557257Y-26537914D01*
X41557257Y-26537914D02*
X41842971Y-26395057D01*
X41842971Y-26395057D02*
X42271542Y-26395057D01*
X42271542Y-26395057D02*
X42557257Y-26537914D01*
X42557257Y-26537914D02*
X42700114Y-26823628D01*
X42700114Y-26823628D02*
X42700114Y-28395057D01*
X44128685Y-26395057D02*
X44128685Y-29395057D01*
X44128685Y-26537914D02*
X44414400Y-26395057D01*
X44414400Y-26395057D02*
X44985828Y-26395057D01*
X44985828Y-26395057D02*
X45271542Y-26537914D01*
X45271542Y-26537914D02*
X45414400Y-26680771D01*
X45414400Y-26680771D02*
X45557257Y-26966485D01*
X45557257Y-26966485D02*
X45557257Y-27823628D01*
X45557257Y-27823628D02*
X45414400Y-28109342D01*
X45414400Y-28109342D02*
X45271542Y-28252200D01*
X45271542Y-28252200D02*
X44985828Y-28395057D01*
X44985828Y-28395057D02*
X44414400Y-28395057D01*
X44414400Y-28395057D02*
X44128685Y-28252200D01*
X47271543Y-28395057D02*
X46985828Y-28252200D01*
X46985828Y-28252200D02*
X46842971Y-27966485D01*
X46842971Y-27966485D02*
X46842971Y-25395057D01*
X48414400Y-28395057D02*
X48414400Y-26395057D01*
X48414400Y-25395057D02*
X48271543Y-25537914D01*
X48271543Y-25537914D02*
X48414400Y-25680771D01*
X48414400Y-25680771D02*
X48557257Y-25537914D01*
X48557257Y-25537914D02*
X48414400Y-25395057D01*
X48414400Y-25395057D02*
X48414400Y-25680771D01*
X49414400Y-26395057D02*
X50557257Y-26395057D01*
X49842971Y-28395057D02*
X49842971Y-25823628D01*
X49842971Y-25823628D02*
X49985828Y-25537914D01*
X49985828Y-25537914D02*
X50271543Y-25395057D01*
X50271543Y-25395057D02*
X50557257Y-25395057D01*
X51557257Y-28395057D02*
X51557257Y-26395057D01*
X51557257Y-25395057D02*
X51414400Y-25537914D01*
X51414400Y-25537914D02*
X51557257Y-25680771D01*
X51557257Y-25680771D02*
X51700114Y-25537914D01*
X51700114Y-25537914D02*
X51557257Y-25395057D01*
X51557257Y-25395057D02*
X51557257Y-25680771D01*
X54128685Y-28252200D02*
X53842971Y-28395057D01*
X53842971Y-28395057D02*
X53271543Y-28395057D01*
X53271543Y-28395057D02*
X52985828Y-28252200D01*
X52985828Y-28252200D02*
X52842971Y-27966485D01*
X52842971Y-27966485D02*
X52842971Y-26823628D01*
X52842971Y-26823628D02*
X52985828Y-26537914D01*
X52985828Y-26537914D02*
X53271543Y-26395057D01*
X53271543Y-26395057D02*
X53842971Y-26395057D01*
X53842971Y-26395057D02*
X54128685Y-26537914D01*
X54128685Y-26537914D02*
X54271543Y-26823628D01*
X54271543Y-26823628D02*
X54271543Y-27109342D01*
X54271543Y-27109342D02*
X52842971Y-27395057D01*
X55557257Y-28395057D02*
X55557257Y-26395057D01*
X55557257Y-26966485D02*
X55700114Y-26680771D01*
X55700114Y-26680771D02*
X55842972Y-26537914D01*
X55842972Y-26537914D02*
X56128686Y-26395057D01*
X56128686Y-26395057D02*
X56414400Y-26395057D01*
X58414400Y-26823628D02*
X57414400Y-26823628D01*
X57414400Y-28395057D02*
X57414400Y-25395057D01*
X57414400Y-25395057D02*
X58842972Y-25395057D01*
X59985829Y-28395057D02*
X59985829Y-26395057D01*
X59985829Y-25395057D02*
X59842972Y-25537914D01*
X59842972Y-25537914D02*
X59985829Y-25680771D01*
X59985829Y-25680771D02*
X60128686Y-25537914D01*
X60128686Y-25537914D02*
X59985829Y-25395057D01*
X59985829Y-25395057D02*
X59985829Y-25680771D01*
X61842972Y-28395057D02*
X61557257Y-28252200D01*
X61557257Y-28252200D02*
X61414400Y-27966485D01*
X61414400Y-27966485D02*
X61414400Y-25395057D01*
X62557258Y-26395057D02*
X63700115Y-26395057D01*
X62985829Y-25395057D02*
X62985829Y-27966485D01*
X62985829Y-27966485D02*
X63128686Y-28252200D01*
X63128686Y-28252200D02*
X63414401Y-28395057D01*
X63414401Y-28395057D02*
X63700115Y-28395057D01*
X65842972Y-28252200D02*
X65557258Y-28395057D01*
X65557258Y-28395057D02*
X64985830Y-28395057D01*
X64985830Y-28395057D02*
X64700115Y-28252200D01*
X64700115Y-28252200D02*
X64557258Y-27966485D01*
X64557258Y-27966485D02*
X64557258Y-26823628D01*
X64557258Y-26823628D02*
X64700115Y-26537914D01*
X64700115Y-26537914D02*
X64985830Y-26395057D01*
X64985830Y-26395057D02*
X65557258Y-26395057D01*
X65557258Y-26395057D02*
X65842972Y-26537914D01*
X65842972Y-26537914D02*
X65985830Y-26823628D01*
X65985830Y-26823628D02*
X65985830Y-27109342D01*
X65985830Y-27109342D02*
X64557258Y-27395057D01*
X67271544Y-28395057D02*
X67271544Y-26395057D01*
X67271544Y-26966485D02*
X67414401Y-26680771D01*
X67414401Y-26680771D02*
X67557259Y-26537914D01*
X67557259Y-26537914D02*
X67842973Y-26395057D01*
X67842973Y-26395057D02*
X68128687Y-26395057D01*
X68414402Y-28680771D02*
X70700116Y-28680771D01*
X70985830Y-25395057D02*
X71985830Y-28395057D01*
X71985830Y-28395057D02*
X72985830Y-25395057D01*
X75557259Y-28395057D02*
X73842973Y-28395057D01*
X74700116Y-28395057D02*
X74700116Y-25395057D01*
X74700116Y-25395057D02*
X74414402Y-25823628D01*
X74414402Y-25823628D02*
X74128687Y-26109342D01*
X74128687Y-26109342D02*
X73842973Y-26252200D01*
X76842973Y-28109342D02*
X76985830Y-28252200D01*
X76985830Y-28252200D02*
X76842973Y-28395057D01*
X76842973Y-28395057D02*
X76700116Y-28252200D01*
X76700116Y-28252200D02*
X76842973Y-28109342D01*
X76842973Y-28109342D02*
X76842973Y-28395057D01*
X78842973Y-25395057D02*
X79128687Y-25395057D01*
X79128687Y-25395057D02*
X79414401Y-25537914D01*
X79414401Y-25537914D02*
X79557259Y-25680771D01*
X79557259Y-25680771D02*
X79700116Y-25966485D01*
X79700116Y-25966485D02*
X79842973Y-26537914D01*
X79842973Y-26537914D02*
X79842973Y-27252200D01*
X79842973Y-27252200D02*
X79700116Y-27823628D01*
X79700116Y-27823628D02*
X79557259Y-28109342D01*
X79557259Y-28109342D02*
X79414401Y-28252200D01*
X79414401Y-28252200D02*
X79128687Y-28395057D01*
X79128687Y-28395057D02*
X78842973Y-28395057D01*
X78842973Y-28395057D02*
X78557259Y-28252200D01*
X78557259Y-28252200D02*
X78414401Y-28109342D01*
X78414401Y-28109342D02*
X78271544Y-27823628D01*
X78271544Y-27823628D02*
X78128687Y-27252200D01*
X78128687Y-27252200D02*
X78128687Y-26537914D01*
X78128687Y-26537914D02*
X78271544Y-25966485D01*
X78271544Y-25966485D02*
X78414401Y-25680771D01*
X78414401Y-25680771D02*
X78557259Y-25537914D01*
X78557259Y-25537914D02*
X78842973Y-25395057D01*
D11*
X-14250652Y-101402533D02*
X-12726843Y-101402533D01*
X-14250652Y-32822533D02*
X-12726843Y-32822533D01*
X-13488747Y-33584438D02*
X-13488747Y-32060628D01*
D12*
X41128095Y-51957419D02*
X41128095Y-52766942D01*
X41128095Y-52766942D02*
X41175714Y-52862180D01*
X41175714Y-52862180D02*
X41223333Y-52909800D01*
X41223333Y-52909800D02*
X41318571Y-52957419D01*
X41318571Y-52957419D02*
X41509047Y-52957419D01*
X41509047Y-52957419D02*
X41604285Y-52909800D01*
X41604285Y-52909800D02*
X41651904Y-52862180D01*
X41651904Y-52862180D02*
X41699523Y-52766942D01*
X41699523Y-52766942D02*
X41699523Y-51957419D01*
X42699523Y-52957419D02*
X42128095Y-52957419D01*
X42413809Y-52957419D02*
X42413809Y-51957419D01*
X42413809Y-51957419D02*
X42318571Y-52100276D01*
X42318571Y-52100276D02*
X42223333Y-52195514D01*
X42223333Y-52195514D02*
X42128095Y-52243133D01*
D13*
X170006667Y-88794318D02*
X170006667Y-89701461D01*
X170006667Y-89701461D02*
X169946190Y-89882889D01*
X169946190Y-89882889D02*
X169825238Y-90003842D01*
X169825238Y-90003842D02*
X169643809Y-90064318D01*
X169643809Y-90064318D02*
X169522857Y-90064318D01*
X171155714Y-89217651D02*
X171155714Y-90064318D01*
X170853333Y-88733842D02*
X170550952Y-89640984D01*
X170550952Y-89640984D02*
X171337143Y-89640984D01*
D10*
X39833333Y-70659580D02*
X39785714Y-70707200D01*
X39785714Y-70707200D02*
X39642857Y-70754819D01*
X39642857Y-70754819D02*
X39547619Y-70754819D01*
X39547619Y-70754819D02*
X39404762Y-70707200D01*
X39404762Y-70707200D02*
X39309524Y-70611961D01*
X39309524Y-70611961D02*
X39261905Y-70516723D01*
X39261905Y-70516723D02*
X39214286Y-70326247D01*
X39214286Y-70326247D02*
X39214286Y-70183390D01*
X39214286Y-70183390D02*
X39261905Y-69992914D01*
X39261905Y-69992914D02*
X39309524Y-69897676D01*
X39309524Y-69897676D02*
X39404762Y-69802438D01*
X39404762Y-69802438D02*
X39547619Y-69754819D01*
X39547619Y-69754819D02*
X39642857Y-69754819D01*
X39642857Y-69754819D02*
X39785714Y-69802438D01*
X39785714Y-69802438D02*
X39833333Y-69850057D01*
X40785714Y-70754819D02*
X40214286Y-70754819D01*
X40500000Y-70754819D02*
X40500000Y-69754819D01*
X40500000Y-69754819D02*
X40404762Y-69897676D01*
X40404762Y-69897676D02*
X40309524Y-69992914D01*
X40309524Y-69992914D02*
X40214286Y-70040533D01*
D13*
X-5253332Y-43314318D02*
X-5253332Y-44221461D01*
X-5253332Y-44221461D02*
X-5313809Y-44402889D01*
X-5313809Y-44402889D02*
X-5434761Y-44523842D01*
X-5434761Y-44523842D02*
X-5616190Y-44584318D01*
X-5616190Y-44584318D02*
X-5737142Y-44584318D01*
X-3983332Y-44584318D02*
X-4709047Y-44584318D01*
X-4346190Y-44584318D02*
X-4346190Y-43314318D01*
X-4346190Y-43314318D02*
X-4467142Y-43495746D01*
X-4467142Y-43495746D02*
X-4588094Y-43616699D01*
X-4588094Y-43616699D02*
X-4709047Y-43677175D01*
X106574318Y-43111666D02*
X106574318Y-43716428D01*
X106574318Y-43716428D02*
X105304318Y-43716428D01*
X106574318Y-42023094D02*
X106574318Y-42748809D01*
X106574318Y-42385952D02*
X105304318Y-42385952D01*
X105304318Y-42385952D02*
X105485746Y-42506904D01*
X105485746Y-42506904D02*
X105606699Y-42627856D01*
X105606699Y-42627856D02*
X105667175Y-42748809D01*
D12*
X152192580Y-64433333D02*
X152668771Y-64100000D01*
X152192580Y-63861905D02*
X153192580Y-63861905D01*
X153192580Y-63861905D02*
X153192580Y-64242857D01*
X153192580Y-64242857D02*
X153144961Y-64338095D01*
X153144961Y-64338095D02*
X153097342Y-64385714D01*
X153097342Y-64385714D02*
X153002104Y-64433333D01*
X153002104Y-64433333D02*
X152859247Y-64433333D01*
X152859247Y-64433333D02*
X152764009Y-64385714D01*
X152764009Y-64385714D02*
X152716390Y-64338095D01*
X152716390Y-64338095D02*
X152668771Y-64242857D01*
X152668771Y-64242857D02*
X152668771Y-63861905D01*
X153192580Y-64766667D02*
X153192580Y-65385714D01*
X153192580Y-65385714D02*
X152811628Y-65052381D01*
X152811628Y-65052381D02*
X152811628Y-65195238D01*
X152811628Y-65195238D02*
X152764009Y-65290476D01*
X152764009Y-65290476D02*
X152716390Y-65338095D01*
X152716390Y-65338095D02*
X152621152Y-65385714D01*
X152621152Y-65385714D02*
X152383057Y-65385714D01*
X152383057Y-65385714D02*
X152287819Y-65338095D01*
X152287819Y-65338095D02*
X152240200Y-65290476D01*
X152240200Y-65290476D02*
X152192580Y-65195238D01*
X152192580Y-65195238D02*
X152192580Y-64909524D01*
X152192580Y-64909524D02*
X152240200Y-64814286D01*
X152240200Y-64814286D02*
X152287819Y-64766667D01*
X61097419Y-58546666D02*
X60621228Y-58879999D01*
X61097419Y-59118094D02*
X60097419Y-59118094D01*
X60097419Y-59118094D02*
X60097419Y-58737142D01*
X60097419Y-58737142D02*
X60145038Y-58641904D01*
X60145038Y-58641904D02*
X60192657Y-58594285D01*
X60192657Y-58594285D02*
X60287895Y-58546666D01*
X60287895Y-58546666D02*
X60430752Y-58546666D01*
X60430752Y-58546666D02*
X60525990Y-58594285D01*
X60525990Y-58594285D02*
X60573609Y-58641904D01*
X60573609Y-58641904D02*
X60621228Y-58737142D01*
X60621228Y-58737142D02*
X60621228Y-59118094D01*
X61097419Y-57594285D02*
X61097419Y-58165713D01*
X61097419Y-57879999D02*
X60097419Y-57879999D01*
X60097419Y-57879999D02*
X60240276Y-57975237D01*
X60240276Y-57975237D02*
X60335514Y-58070475D01*
X60335514Y-58070475D02*
X60383133Y-58165713D01*
D14*
D13*
X-5253332Y-64904318D02*
X-5253332Y-65811461D01*
X-5253332Y-65811461D02*
X-5313809Y-65992889D01*
X-5313809Y-65992889D02*
X-5434761Y-66113842D01*
X-5434761Y-66113842D02*
X-5616190Y-66174318D01*
X-5616190Y-66174318D02*
X-5737142Y-66174318D01*
X-4769523Y-64904318D02*
X-3983332Y-64904318D01*
X-3983332Y-64904318D02*
X-4406666Y-65388127D01*
X-4406666Y-65388127D02*
X-4225237Y-65388127D01*
X-4225237Y-65388127D02*
X-4104285Y-65448603D01*
X-4104285Y-65448603D02*
X-4043809Y-65509080D01*
X-4043809Y-65509080D02*
X-3983332Y-65630032D01*
X-3983332Y-65630032D02*
X-3983332Y-65932413D01*
X-3983332Y-65932413D02*
X-4043809Y-66053365D01*
X-4043809Y-66053365D02*
X-4104285Y-66113842D01*
X-4104285Y-66113842D02*
X-4225237Y-66174318D01*
X-4225237Y-66174318D02*
X-4588094Y-66174318D01*
X-4588094Y-66174318D02*
X-4709047Y-66113842D01*
X-4709047Y-66113842D02*
X-4769523Y-66053365D01*
D12*
X102566666Y-82192580D02*
X102899999Y-82668771D01*
X103138094Y-82192580D02*
X103138094Y-83192580D01*
X103138094Y-83192580D02*
X102757142Y-83192580D01*
X102757142Y-83192580D02*
X102661904Y-83144961D01*
X102661904Y-83144961D02*
X102614285Y-83097342D01*
X102614285Y-83097342D02*
X102566666Y-83002104D01*
X102566666Y-83002104D02*
X102566666Y-82859247D01*
X102566666Y-82859247D02*
X102614285Y-82764009D01*
X102614285Y-82764009D02*
X102661904Y-82716390D01*
X102661904Y-82716390D02*
X102757142Y-82668771D01*
X102757142Y-82668771D02*
X103138094Y-82668771D01*
X102185713Y-83097342D02*
X102138094Y-83144961D01*
X102138094Y-83144961D02*
X102042856Y-83192580D01*
X102042856Y-83192580D02*
X101804761Y-83192580D01*
X101804761Y-83192580D02*
X101709523Y-83144961D01*
X101709523Y-83144961D02*
X101661904Y-83097342D01*
X101661904Y-83097342D02*
X101614285Y-83002104D01*
X101614285Y-83002104D02*
X101614285Y-82906866D01*
X101614285Y-82906866D02*
X101661904Y-82764009D01*
X101661904Y-82764009D02*
X102233332Y-82192580D01*
X102233332Y-82192580D02*
X101614285Y-82192580D01*
D10*
X92359580Y-43166666D02*
X92407200Y-43214285D01*
X92407200Y-43214285D02*
X92454819Y-43357142D01*
X92454819Y-43357142D02*
X92454819Y-43452380D01*
X92454819Y-43452380D02*
X92407200Y-43595237D01*
X92407200Y-43595237D02*
X92311961Y-43690475D01*
X92311961Y-43690475D02*
X92216723Y-43738094D01*
X92216723Y-43738094D02*
X92026247Y-43785713D01*
X92026247Y-43785713D02*
X91883390Y-43785713D01*
X91883390Y-43785713D02*
X91692914Y-43738094D01*
X91692914Y-43738094D02*
X91597676Y-43690475D01*
X91597676Y-43690475D02*
X91502438Y-43595237D01*
X91502438Y-43595237D02*
X91454819Y-43452380D01*
X91454819Y-43452380D02*
X91454819Y-43357142D01*
X91454819Y-43357142D02*
X91502438Y-43214285D01*
X91502438Y-43214285D02*
X91550057Y-43166666D01*
X91788152Y-42309523D02*
X92454819Y-42309523D01*
X91407200Y-42547618D02*
X92121485Y-42785713D01*
X92121485Y-42785713D02*
X92121485Y-42166666D01*
X132979580Y-55166666D02*
X133027200Y-55214285D01*
X133027200Y-55214285D02*
X133074819Y-55357142D01*
X133074819Y-55357142D02*
X133074819Y-55452380D01*
X133074819Y-55452380D02*
X133027200Y-55595237D01*
X133027200Y-55595237D02*
X132931961Y-55690475D01*
X132931961Y-55690475D02*
X132836723Y-55738094D01*
X132836723Y-55738094D02*
X132646247Y-55785713D01*
X132646247Y-55785713D02*
X132503390Y-55785713D01*
X132503390Y-55785713D02*
X132312914Y-55738094D01*
X132312914Y-55738094D02*
X132217676Y-55690475D01*
X132217676Y-55690475D02*
X132122438Y-55595237D01*
X132122438Y-55595237D02*
X132074819Y-55452380D01*
X132074819Y-55452380D02*
X132074819Y-55357142D01*
X132074819Y-55357142D02*
X132122438Y-55214285D01*
X132122438Y-55214285D02*
X132170057Y-55166666D01*
X132170057Y-54785713D02*
X132122438Y-54738094D01*
X132122438Y-54738094D02*
X132074819Y-54642856D01*
X132074819Y-54642856D02*
X132074819Y-54404761D01*
X132074819Y-54404761D02*
X132122438Y-54309523D01*
X132122438Y-54309523D02*
X132170057Y-54261904D01*
X132170057Y-54261904D02*
X132265295Y-54214285D01*
X132265295Y-54214285D02*
X132360533Y-54214285D01*
X132360533Y-54214285D02*
X132503390Y-54261904D01*
X132503390Y-54261904D02*
X133074819Y-54833332D01*
X133074819Y-54833332D02*
X133074819Y-54214285D01*
D13*
X170006667Y-43314318D02*
X170006667Y-44221461D01*
X170006667Y-44221461D02*
X169946190Y-44402889D01*
X169946190Y-44402889D02*
X169825238Y-44523842D01*
X169825238Y-44523842D02*
X169643809Y-44584318D01*
X169643809Y-44584318D02*
X169522857Y-44584318D01*
X171216190Y-43314318D02*
X170611428Y-43314318D01*
X170611428Y-43314318D02*
X170550952Y-43919080D01*
X170550952Y-43919080D02*
X170611428Y-43858603D01*
X170611428Y-43858603D02*
X170732381Y-43798127D01*
X170732381Y-43798127D02*
X171034762Y-43798127D01*
X171034762Y-43798127D02*
X171155714Y-43858603D01*
X171155714Y-43858603D02*
X171216190Y-43919080D01*
X171216190Y-43919080D02*
X171276667Y-44040032D01*
X171276667Y-44040032D02*
X171276667Y-44342413D01*
X171276667Y-44342413D02*
X171216190Y-44463365D01*
X171216190Y-44463365D02*
X171155714Y-44523842D01*
X171155714Y-44523842D02*
X171034762Y-44584318D01*
X171034762Y-44584318D02*
X170732381Y-44584318D01*
X170732381Y-44584318D02*
X170611428Y-44523842D01*
X170611428Y-44523842D02*
X170550952Y-44463365D01*
D10*
X25389580Y-60686666D02*
X25437200Y-60734285D01*
X25437200Y-60734285D02*
X25484819Y-60877142D01*
X25484819Y-60877142D02*
X25484819Y-60972380D01*
X25484819Y-60972380D02*
X25437200Y-61115237D01*
X25437200Y-61115237D02*
X25341961Y-61210475D01*
X25341961Y-61210475D02*
X25246723Y-61258094D01*
X25246723Y-61258094D02*
X25056247Y-61305713D01*
X25056247Y-61305713D02*
X24913390Y-61305713D01*
X24913390Y-61305713D02*
X24722914Y-61258094D01*
X24722914Y-61258094D02*
X24627676Y-61210475D01*
X24627676Y-61210475D02*
X24532438Y-61115237D01*
X24532438Y-61115237D02*
X24484819Y-60972380D01*
X24484819Y-60972380D02*
X24484819Y-60877142D01*
X24484819Y-60877142D02*
X24532438Y-60734285D01*
X24532438Y-60734285D02*
X24580057Y-60686666D01*
X24484819Y-60353332D02*
X24484819Y-59734285D01*
X24484819Y-59734285D02*
X24865771Y-60067618D01*
X24865771Y-60067618D02*
X24865771Y-59924761D01*
X24865771Y-59924761D02*
X24913390Y-59829523D01*
X24913390Y-59829523D02*
X24961009Y-59781904D01*
X24961009Y-59781904D02*
X25056247Y-59734285D01*
X25056247Y-59734285D02*
X25294342Y-59734285D01*
X25294342Y-59734285D02*
X25389580Y-59781904D01*
X25389580Y-59781904D02*
X25437200Y-59829523D01*
X25437200Y-59829523D02*
X25484819Y-59924761D01*
X25484819Y-59924761D02*
X25484819Y-60210475D01*
X25484819Y-60210475D02*
X25437200Y-60305713D01*
X25437200Y-60305713D02*
X25389580Y-60353332D01*
X16564819Y-89896666D02*
X16088628Y-90229999D01*
X16564819Y-90468094D02*
X15564819Y-90468094D01*
X15564819Y-90468094D02*
X15564819Y-90087142D01*
X15564819Y-90087142D02*
X15612438Y-89991904D01*
X15612438Y-89991904D02*
X15660057Y-89944285D01*
X15660057Y-89944285D02*
X15755295Y-89896666D01*
X15755295Y-89896666D02*
X15898152Y-89896666D01*
X15898152Y-89896666D02*
X15993390Y-89944285D01*
X15993390Y-89944285D02*
X16041009Y-89991904D01*
X16041009Y-89991904D02*
X16088628Y-90087142D01*
X16088628Y-90087142D02*
X16088628Y-90468094D01*
X15898152Y-89039523D02*
X16564819Y-89039523D01*
X15517200Y-89277618D02*
X16231485Y-89515713D01*
X16231485Y-89515713D02*
X16231485Y-88896666D01*
D13*
X-5253332Y-71254318D02*
X-5253332Y-72161461D01*
X-5253332Y-72161461D02*
X-5313809Y-72342889D01*
X-5313809Y-72342889D02*
X-5434761Y-72463842D01*
X-5434761Y-72463842D02*
X-5616190Y-72524318D01*
X-5616190Y-72524318D02*
X-5737142Y-72524318D01*
X-4709047Y-71375270D02*
X-4648571Y-71314794D01*
X-4648571Y-71314794D02*
X-4527618Y-71254318D01*
X-4527618Y-71254318D02*
X-4225237Y-71254318D01*
X-4225237Y-71254318D02*
X-4104285Y-71314794D01*
X-4104285Y-71314794D02*
X-4043809Y-71375270D01*
X-4043809Y-71375270D02*
X-3983332Y-71496222D01*
X-3983332Y-71496222D02*
X-3983332Y-71617175D01*
X-3983332Y-71617175D02*
X-4043809Y-71798603D01*
X-4043809Y-71798603D02*
X-4769523Y-72524318D01*
X-4769523Y-72524318D02*
X-3983332Y-72524318D01*
D12*
%TO.C,U1*%
X40890000Y-52000000D02*
X40890000Y-56500000D01*
X27890000Y-38750000D02*
X53890000Y-38750000D01*
X53890000Y-38750000D02*
X53890000Y-65250000D01*
X53890000Y-65250000D02*
X27890000Y-65250000D01*
X27890000Y-65250000D02*
X27890000Y-38750000D01*
%TO.C,J4*%
X164460000Y-86490000D02*
X164430000Y-92490000D01*
X176400000Y-86490000D02*
X176430000Y-92490000D01*
D15*
%TO.C,C1*%
X31630000Y-71429000D02*
X31630000Y-72896000D01*
X31630000Y-71429000D02*
X48370000Y-71429000D01*
X31630000Y-75104000D02*
X31630000Y-76571000D01*
X31630000Y-76571000D02*
X48370000Y-76571000D01*
X48370000Y-71429000D02*
X48370000Y-72896000D01*
X48370000Y-75104000D02*
X48370000Y-76571000D01*
D12*
%TO.C,J1*%
X1140000Y-47010000D02*
X1170000Y-41010000D01*
X-10800000Y-47010000D02*
X-10830000Y-41010000D01*
%TO.C,L1*%
X93235000Y-55665000D02*
X118765000Y-55665000D01*
X118765000Y-55665000D02*
X118765000Y-30135000D01*
X93235000Y-30135000D02*
X93235000Y-55665000D01*
X118765000Y-30135000D02*
X93235000Y-30135000D01*
D15*
%TO.C,R3*%
X147050000Y-44640000D02*
X147050000Y-46080000D01*
X156170000Y-46080000D02*
X137930000Y-46080000D01*
X156170000Y-46080000D02*
X156170000Y-47880000D01*
X137930000Y-46080000D02*
X137930000Y-47880000D01*
X156170000Y-47880000D02*
X155270000Y-48780000D01*
X137930000Y-47880000D02*
X138830000Y-48780000D01*
X155270000Y-48780000D02*
X156170000Y-49680000D01*
X138830000Y-48780000D02*
X137930000Y-49680000D01*
X156170000Y-49680000D02*
X156170000Y-84320000D01*
X137930000Y-49680000D02*
X137930000Y-84320000D01*
X156170000Y-84320000D02*
X137930000Y-84320000D01*
X147050000Y-85760000D02*
X147050000Y-84320000D01*
%TO.C,R1*%
X66240000Y-78340000D02*
X66240000Y-76900000D01*
X57120000Y-76900000D02*
X75360000Y-76900000D01*
X57120000Y-76900000D02*
X57120000Y-75100000D01*
X75360000Y-76900000D02*
X75360000Y-75100000D01*
X57120000Y-75100000D02*
X58020000Y-74200000D01*
X75360000Y-75100000D02*
X74460000Y-74200000D01*
X58020000Y-74200000D02*
X57120000Y-73300000D01*
X74460000Y-74200000D02*
X75360000Y-73300000D01*
X57120000Y-73300000D02*
X57120000Y-38660000D01*
X75360000Y-73300000D02*
X75360000Y-38660000D01*
X57120000Y-38660000D02*
X75360000Y-38660000D01*
X66240000Y-37220000D02*
X66240000Y-38660000D01*
%TO.C,   *%
G36*
X155983333Y-107770000D02*
G01*
X155983333Y-108420000D01*
X155808333Y-108420000D01*
X155633333Y-108420000D01*
X155633333Y-107770000D01*
X155633333Y-107120000D01*
X155808333Y-107120000D01*
X155983333Y-107120000D01*
X155983333Y-107770000D01*
G37*
G36*
X158383333Y-107770000D02*
G01*
X158383333Y-108420000D01*
X158200000Y-108420000D01*
X158016666Y-108420000D01*
X158016666Y-107770000D01*
X158016666Y-107120000D01*
X158200000Y-107120000D01*
X158383333Y-107120000D01*
X158383333Y-107770000D01*
G37*
G36*
X158433333Y-104403542D02*
G01*
X158433333Y-104678560D01*
X157974916Y-105136780D01*
X157516498Y-105595000D01*
X157095749Y-105599930D01*
X156675000Y-105604860D01*
X156483605Y-105412430D01*
X156292210Y-105220000D01*
X156816845Y-105220000D01*
X157341480Y-105220000D01*
X157887406Y-104674261D01*
X158433333Y-104128523D01*
X158433333Y-104403542D01*
G37*
G36*
X159541782Y-102920087D02*
G01*
X159991666Y-103370175D01*
X159996434Y-103799254D01*
X160001203Y-104228333D01*
X159808934Y-104419728D01*
X159616666Y-104611123D01*
X159616666Y-104077928D01*
X159616666Y-103544734D01*
X159225000Y-103153333D01*
X158833333Y-102761932D01*
X158833333Y-102615966D01*
X158833333Y-102470000D01*
X158962615Y-102470000D01*
X159091898Y-102470000D01*
X159541782Y-102920087D01*
G37*
G36*
X158780674Y-101049370D02*
G01*
X158860621Y-101129292D01*
X158917551Y-101187372D01*
X158950168Y-101227054D01*
X158957175Y-101251781D01*
X158937275Y-101264996D01*
X158889173Y-101270142D01*
X158811571Y-101270663D01*
X158703174Y-101270002D01*
X158697602Y-101270000D01*
X158407789Y-101270000D01*
X158216666Y-101078333D01*
X158025543Y-100886667D01*
X158322613Y-100886667D01*
X158619683Y-100886667D01*
X158780674Y-101049370D01*
G37*
G36*
X158271673Y-106411477D02*
G01*
X158336647Y-106441202D01*
X158385354Y-106492120D01*
X158391384Y-106502788D01*
X158416022Y-106581179D01*
X158411594Y-106655947D01*
X158382331Y-106721909D01*
X158332465Y-106773883D01*
X158266225Y-106806684D01*
X158187844Y-106815131D01*
X158142361Y-106807842D01*
X158071948Y-106774756D01*
X158020093Y-106720500D01*
X157990098Y-106652695D01*
X157985269Y-106578956D01*
X158008908Y-106506904D01*
X158010592Y-106503997D01*
X158059890Y-106449205D01*
X158125219Y-106415504D01*
X158198505Y-106402919D01*
X158271673Y-106411477D01*
G37*
G36*
X155884258Y-106415424D02*
G01*
X155952794Y-106450820D01*
X155997224Y-106508207D01*
X156016089Y-106586271D01*
X156016666Y-106604794D01*
X156002407Y-106686603D01*
X155962364Y-106750656D01*
X155900638Y-106793963D01*
X155821329Y-106813535D01*
X155737641Y-106808256D01*
X155701992Y-106792045D01*
X155660638Y-106760938D01*
X155651477Y-106752247D01*
X155603019Y-106683658D01*
X155585772Y-106609870D01*
X155599575Y-106536491D01*
X155644265Y-106469132D01*
X155660084Y-106454032D01*
X155708752Y-106419081D01*
X155758717Y-106404917D01*
X155793074Y-106403333D01*
X155884258Y-106415424D01*
G37*
G36*
X155683333Y-102412036D02*
G01*
X155683333Y-102945195D01*
X156216666Y-103478333D01*
X156326391Y-103588288D01*
X156428508Y-103691140D01*
X156520662Y-103784480D01*
X156600498Y-103865897D01*
X156665660Y-103932982D01*
X156713792Y-103983324D01*
X156742540Y-104014513D01*
X156750000Y-104024069D01*
X156734270Y-104028351D01*
X156690827Y-104032009D01*
X156625288Y-104034773D01*
X156543271Y-104036375D01*
X156487103Y-104036667D01*
X156224206Y-104036667D01*
X155762103Y-103573480D01*
X155300000Y-103110294D01*
X155300000Y-102685709D01*
X155300000Y-102261123D01*
X155491666Y-102070000D01*
X155683333Y-101878877D01*
X155683333Y-102412036D01*
G37*
G36*
X159029166Y-103515848D02*
G01*
X159216666Y-103702463D01*
X159216666Y-104337327D01*
X159216206Y-104528307D01*
X159214814Y-104686584D01*
X159212473Y-104812778D01*
X159209166Y-104907506D01*
X159204877Y-104971389D01*
X159199587Y-105005044D01*
X159198217Y-105008596D01*
X159181530Y-105030461D01*
X159144753Y-105072001D01*
X159091455Y-105129406D01*
X159025203Y-105198869D01*
X158949565Y-105276580D01*
X158902567Y-105324167D01*
X158625367Y-105603333D01*
X158350319Y-105603333D01*
X158075271Y-105603333D01*
X158454143Y-105224167D01*
X158833014Y-104845000D01*
X158837340Y-104087116D01*
X158841666Y-103329232D01*
X159029166Y-103515848D01*
G37*
G36*
X158033336Y-101445003D02*
G01*
X158433333Y-101844739D01*
X158433333Y-102711821D01*
X158433333Y-103578902D01*
X158253894Y-103757784D01*
X158190853Y-103819868D01*
X158135855Y-103872597D01*
X158093280Y-103911882D01*
X158067506Y-103933637D01*
X158062227Y-103936667D01*
X158059996Y-103920489D01*
X158057896Y-103873915D01*
X158055964Y-103799878D01*
X158054239Y-103701317D01*
X158052757Y-103581165D01*
X158051555Y-103442359D01*
X158050671Y-103287835D01*
X158050142Y-103120529D01*
X158050000Y-102973916D01*
X158050000Y-102011166D01*
X157841677Y-101803344D01*
X157633355Y-101595522D01*
X157441807Y-101786526D01*
X157250259Y-101977531D01*
X157245962Y-102961265D01*
X157241666Y-103945000D01*
X157054166Y-103757144D01*
X156866666Y-103569289D01*
X156866666Y-102690342D01*
X156866666Y-101811395D01*
X157250002Y-101428330D01*
X157633339Y-101045266D01*
X158033336Y-101445003D01*
G37*
G36*
X159163857Y-101670758D02*
G01*
X159247230Y-101672836D01*
X159315209Y-101675943D01*
X159359965Y-101679786D01*
X159367515Y-101681003D01*
X159391382Y-101690226D01*
X159423606Y-101711269D01*
X159466956Y-101746553D01*
X159524200Y-101798505D01*
X159598107Y-101869549D01*
X159691446Y-101962107D01*
X159711265Y-101981984D01*
X160000000Y-102271962D01*
X160000000Y-102537647D01*
X159999744Y-102627511D01*
X159999039Y-102704378D01*
X159997975Y-102762661D01*
X159996642Y-102796770D01*
X159995691Y-102803333D01*
X159983306Y-102792001D01*
X159950257Y-102759894D01*
X159899413Y-102709849D01*
X159833639Y-102644701D01*
X159755803Y-102567287D01*
X159668771Y-102480442D01*
X159625000Y-102436667D01*
X159258617Y-102070000D01*
X159045975Y-102070000D01*
X158833333Y-102070000D01*
X158833333Y-101870000D01*
X158833333Y-101670000D01*
X159072916Y-101670000D01*
X159163857Y-101670758D01*
G37*
G36*
X155670969Y-104049305D02*
G01*
X156041938Y-104420000D01*
X156804302Y-104420000D01*
X156960123Y-104420284D01*
X157105237Y-104421096D01*
X157236345Y-104422379D01*
X157350148Y-104424075D01*
X157443348Y-104426125D01*
X157512644Y-104428472D01*
X157554738Y-104431057D01*
X157566666Y-104433422D01*
X157555379Y-104449115D01*
X157524202Y-104483769D01*
X157477160Y-104533127D01*
X157418279Y-104592931D01*
X157377559Y-104633422D01*
X157188451Y-104820000D01*
X156565059Y-104818943D01*
X156409087Y-104818246D01*
X156267991Y-104816759D01*
X156144990Y-104814567D01*
X156043302Y-104811755D01*
X155966146Y-104808406D01*
X155916740Y-104804603D01*
X155900000Y-104801572D01*
X155876652Y-104785456D01*
X155833809Y-104749118D01*
X155775336Y-104696107D01*
X155705103Y-104629975D01*
X155626977Y-104554274D01*
X155579166Y-104506979D01*
X155300000Y-104228701D01*
X155300000Y-103953656D01*
X155300000Y-103678611D01*
X155670969Y-104049305D01*
G37*
G36*
X156845697Y-101265966D02*
G01*
X156466666Y-101645266D01*
X156466666Y-102399300D01*
X156466399Y-102554206D01*
X156465635Y-102698360D01*
X156464428Y-102828448D01*
X156462833Y-102941157D01*
X156460906Y-103033175D01*
X156458701Y-103101189D01*
X156456274Y-103141887D01*
X156454166Y-103152552D01*
X156438815Y-103140922D01*
X156404694Y-103109359D01*
X156356092Y-103062006D01*
X156297296Y-103003003D01*
X156262500Y-102967428D01*
X156083333Y-102783085D01*
X156083333Y-102150447D01*
X156083796Y-101959754D01*
X156085195Y-101801770D01*
X156087548Y-101675883D01*
X156090871Y-101581481D01*
X156095181Y-101517953D01*
X156100496Y-101484685D01*
X156101782Y-101481404D01*
X156118469Y-101459538D01*
X156155246Y-101417999D01*
X156208544Y-101360594D01*
X156274796Y-101291131D01*
X156350434Y-101213420D01*
X156397432Y-101165833D01*
X156674632Y-100886667D01*
X156949680Y-100886667D01*
X157224728Y-100886667D01*
X156845697Y-101265966D01*
G37*
G36*
X159461795Y-107095750D02*
G01*
X159537403Y-107119292D01*
X159597875Y-107151733D01*
X159598532Y-107152226D01*
X159636806Y-107181097D01*
X159557730Y-107329715D01*
X159523886Y-107392878D01*
X159495899Y-107444278D01*
X159477409Y-107477279D01*
X159472147Y-107485790D01*
X159455076Y-107483344D01*
X159422052Y-107467454D01*
X159417749Y-107464957D01*
X159349348Y-107440394D01*
X159273834Y-107437782D01*
X159204156Y-107456468D01*
X159170879Y-107477346D01*
X159145081Y-107502415D01*
X159124822Y-107531930D01*
X159109454Y-107570010D01*
X159098331Y-107620774D01*
X159090805Y-107688343D01*
X159086228Y-107776836D01*
X159083953Y-107890373D01*
X159083333Y-108033073D01*
X159083333Y-108034433D01*
X159083333Y-108420000D01*
X158900000Y-108420000D01*
X158716666Y-108420000D01*
X158716666Y-107770000D01*
X158716666Y-107120000D01*
X158900000Y-107120000D01*
X159083333Y-107120000D01*
X159083333Y-107196279D01*
X159083333Y-107272557D01*
X159125391Y-107222574D01*
X159172602Y-107180126D01*
X159236715Y-107139531D01*
X159305746Y-107106975D01*
X159367708Y-107088639D01*
X159388838Y-107086667D01*
X159461795Y-107095750D01*
G37*
G36*
X154450000Y-106742619D02*
G01*
X154450000Y-107281905D01*
X154529320Y-107202584D01*
X154592866Y-107147284D01*
X154657467Y-107111700D01*
X154707335Y-107094573D01*
X154818261Y-107075594D01*
X154929301Y-107080442D01*
X155033434Y-107107138D01*
X155123642Y-107153705D01*
X155192908Y-107218165D01*
X155204774Y-107234756D01*
X155227540Y-107270729D01*
X155245817Y-107304665D01*
X155260162Y-107340718D01*
X155271133Y-107383043D01*
X155279284Y-107435794D01*
X155285175Y-107503125D01*
X155289361Y-107589193D01*
X155292399Y-107698150D01*
X155294846Y-107834152D01*
X155296054Y-107915833D01*
X155303258Y-108420000D01*
X155119488Y-108420000D01*
X154935718Y-108420000D01*
X154930359Y-107965833D01*
X154928354Y-107817859D01*
X154925646Y-107699491D01*
X154921391Y-107607003D01*
X154914742Y-107536670D01*
X154904855Y-107484765D01*
X154890883Y-107447561D01*
X154871981Y-107421332D01*
X154847304Y-107402352D01*
X154816006Y-107386894D01*
X154797254Y-107379179D01*
X154708758Y-107359981D01*
X154620759Y-107373835D01*
X154555941Y-107404995D01*
X154526046Y-107425147D01*
X154502355Y-107447370D01*
X154484151Y-107475590D01*
X154470716Y-107513729D01*
X154461334Y-107565713D01*
X154455288Y-107635464D01*
X154451861Y-107726907D01*
X154450337Y-107843966D01*
X154450000Y-107985019D01*
X154450000Y-108420000D01*
X154266666Y-108420000D01*
X154083333Y-108420000D01*
X154083333Y-107311667D01*
X154083333Y-106203333D01*
X154266666Y-106203333D01*
X154450000Y-106203333D01*
X154450000Y-106742619D01*
G37*
G36*
X162220571Y-107094064D02*
G01*
X162333958Y-107125095D01*
X162429697Y-107183004D01*
X162461690Y-107212685D01*
X162494850Y-107249203D01*
X162521700Y-107285312D01*
X162542972Y-107324990D01*
X162559399Y-107372218D01*
X162571716Y-107430978D01*
X162580657Y-107505250D01*
X162586953Y-107599013D01*
X162591340Y-107716249D01*
X162594551Y-107860937D01*
X162595882Y-107940833D01*
X162603375Y-108420000D01*
X162411000Y-108420000D01*
X162218625Y-108420000D01*
X162213479Y-107965833D01*
X162211793Y-107829893D01*
X162209961Y-107723100D01*
X162207665Y-107641266D01*
X162204581Y-107580207D01*
X162200390Y-107535735D01*
X162194771Y-107503664D01*
X162187401Y-107479808D01*
X162177961Y-107459980D01*
X162174176Y-107453333D01*
X162124811Y-107398622D01*
X162059530Y-107367333D01*
X161985522Y-107358862D01*
X161909976Y-107372606D01*
X161840081Y-107407959D01*
X161783027Y-107464319D01*
X161768237Y-107487435D01*
X161757630Y-107507999D01*
X161749416Y-107530220D01*
X161743291Y-107558435D01*
X161738950Y-107596980D01*
X161736089Y-107650194D01*
X161734404Y-107722412D01*
X161733590Y-107817972D01*
X161733342Y-107941211D01*
X161733333Y-107984769D01*
X161733333Y-108420000D01*
X161550000Y-108420000D01*
X161366666Y-108420000D01*
X161366666Y-107770000D01*
X161366666Y-107120000D01*
X161550000Y-107120000D01*
X161733333Y-107120000D01*
X161733333Y-107206803D01*
X161733333Y-107293607D01*
X161804166Y-107225282D01*
X161884368Y-107158253D01*
X161963718Y-107116602D01*
X162053958Y-107094843D01*
X162092117Y-107090763D01*
X162220571Y-107094064D01*
G37*
G36*
X153419267Y-107092067D02*
G01*
X153556081Y-107115848D01*
X153678371Y-107160718D01*
X153702833Y-107173595D01*
X153766666Y-107209471D01*
X153766666Y-107391462D01*
X153766666Y-107573453D01*
X153705013Y-107519321D01*
X153606230Y-107449301D01*
X153500369Y-107409175D01*
X153379447Y-107395958D01*
X153375000Y-107395946D01*
X153257775Y-107409860D01*
X153159556Y-107450831D01*
X153081650Y-107517842D01*
X153025362Y-107609879D01*
X152999818Y-107687425D01*
X152990335Y-107792537D01*
X153009696Y-107894932D01*
X153054496Y-107988307D01*
X153121331Y-108066361D01*
X153206798Y-108122792D01*
X153242648Y-108136990D01*
X153337082Y-108152803D01*
X153442551Y-108145521D01*
X153548838Y-108117728D01*
X153645722Y-108072007D01*
X153717063Y-108017039D01*
X153766666Y-107967436D01*
X153766666Y-108151667D01*
X153766229Y-108232726D01*
X153764121Y-108287066D01*
X153759146Y-108321301D01*
X153750110Y-108342041D01*
X153735817Y-108355899D01*
X153728893Y-108360648D01*
X153644278Y-108401227D01*
X153537341Y-108430102D01*
X153417311Y-108446316D01*
X153293420Y-108448910D01*
X153174898Y-108436928D01*
X153116666Y-108424138D01*
X152972538Y-108369219D01*
X152848814Y-108288778D01*
X152747307Y-108184305D01*
X152669827Y-108057289D01*
X152669340Y-108056252D01*
X152649703Y-108011160D01*
X152636862Y-107970092D01*
X152629406Y-107923940D01*
X152625924Y-107863595D01*
X152625005Y-107779947D01*
X152625000Y-107770000D01*
X152625740Y-107683535D01*
X152628904Y-107621279D01*
X152635901Y-107574123D01*
X152648143Y-107532957D01*
X152667041Y-107488674D01*
X152669340Y-107483747D01*
X152744823Y-107361138D01*
X152846069Y-107258318D01*
X152970771Y-107177100D01*
X153116622Y-107119296D01*
X153142359Y-107112186D01*
X153278002Y-107090479D01*
X153419267Y-107092067D01*
G37*
G36*
X157299421Y-107102100D02*
G01*
X157413552Y-107145905D01*
X157518457Y-107211528D01*
X157609495Y-107297997D01*
X157682027Y-107404340D01*
X157700799Y-107442926D01*
X157719857Y-107497663D01*
X157738529Y-107570560D01*
X157753017Y-107646618D01*
X157753944Y-107652813D01*
X157762898Y-107810657D01*
X157743872Y-107960618D01*
X157698139Y-108098300D01*
X157626969Y-108219305D01*
X157571863Y-108282795D01*
X157488759Y-108355062D01*
X157404005Y-108404178D01*
X157308139Y-108434079D01*
X157191704Y-108448702D01*
X157170184Y-108449903D01*
X157057920Y-108450147D01*
X156967829Y-108436559D01*
X156890495Y-108405949D01*
X156816504Y-108355126D01*
X156770881Y-108314631D01*
X156683333Y-108231831D01*
X156683333Y-108642582D01*
X156683333Y-109053333D01*
X156500000Y-109053333D01*
X156316666Y-109053333D01*
X156316666Y-108086667D01*
X156316666Y-107736563D01*
X156688314Y-107736563D01*
X156692962Y-107830332D01*
X156718636Y-107919902D01*
X156763719Y-108000191D01*
X156826596Y-108066120D01*
X156905649Y-108112606D01*
X156999263Y-108134569D01*
X157025000Y-108135633D01*
X157090925Y-108129279D01*
X157156289Y-108112989D01*
X157175142Y-108105583D01*
X157256925Y-108051994D01*
X157317899Y-107978891D01*
X157357824Y-107892246D01*
X157376462Y-107798027D01*
X157373576Y-107702204D01*
X157348928Y-107610747D01*
X157302278Y-107529623D01*
X157233390Y-107464804D01*
X157201473Y-107445762D01*
X157110969Y-107415335D01*
X157012688Y-107409479D01*
X156916874Y-107427260D01*
X156833770Y-107467742D01*
X156816693Y-107480868D01*
X156748564Y-107556750D01*
X156706310Y-107643676D01*
X156688314Y-107736563D01*
X156316666Y-107736563D01*
X156316666Y-107120000D01*
X156500000Y-107120000D01*
X156683333Y-107120000D01*
X156683333Y-107211667D01*
X156684787Y-107261879D01*
X156688539Y-107295175D01*
X156692175Y-107303333D01*
X156707408Y-107291921D01*
X156736008Y-107262965D01*
X156752795Y-107244363D01*
X156843448Y-107164499D01*
X156948077Y-107111312D01*
X157062043Y-107083832D01*
X157180705Y-107081085D01*
X157299421Y-107102100D01*
G37*
G36*
X160550214Y-107103376D02*
G01*
X160551819Y-107103678D01*
X160697772Y-107147007D01*
X160827758Y-107217251D01*
X160938179Y-107311694D01*
X161025437Y-107427623D01*
X161054903Y-107483321D01*
X161079576Y-107539023D01*
X161095076Y-107585820D01*
X161103535Y-107634921D01*
X161107084Y-107697537D01*
X161107810Y-107761667D01*
X161097723Y-107913028D01*
X161065057Y-108042223D01*
X161007744Y-108153359D01*
X160923716Y-108250544D01*
X160821292Y-108330994D01*
X160703299Y-108392337D01*
X160567139Y-108433106D01*
X160421872Y-108451957D01*
X160276560Y-108447543D01*
X160170844Y-108427581D01*
X160027120Y-108373047D01*
X159903506Y-108293007D01*
X159802081Y-108189136D01*
X159728939Y-108071485D01*
X159705129Y-108020473D01*
X159689669Y-107978162D01*
X159680777Y-107934758D01*
X159676669Y-107880471D01*
X159675561Y-107805506D01*
X159675546Y-107778333D01*
X159675793Y-107761690D01*
X160040400Y-107761690D01*
X160049693Y-107862450D01*
X160083463Y-107951843D01*
X160150999Y-108043072D01*
X160232432Y-108106057D01*
X160323947Y-108139672D01*
X160421729Y-108142793D01*
X160521966Y-108114295D01*
X160562873Y-108093218D01*
X160617623Y-108051767D01*
X160667649Y-107999060D01*
X160679539Y-107982729D01*
X160702031Y-107945248D01*
X160715625Y-107909649D01*
X160722503Y-107865650D01*
X160724844Y-107802971D01*
X160725000Y-107768400D01*
X160724091Y-107695935D01*
X160719794Y-107646573D01*
X160709749Y-107610098D01*
X160691597Y-107576296D01*
X160675000Y-107551862D01*
X160603152Y-107476411D01*
X160516080Y-107426883D01*
X160420126Y-107403995D01*
X160321636Y-107408465D01*
X160226954Y-107441010D01*
X160152544Y-107492783D01*
X160093178Y-107567871D01*
X160055346Y-107660502D01*
X160040400Y-107761690D01*
X159675793Y-107761690D01*
X159676887Y-107688131D01*
X159681657Y-107621235D01*
X159691223Y-107567685D01*
X159706951Y-107517518D01*
X159713740Y-107499973D01*
X159778203Y-107382214D01*
X159868163Y-107281440D01*
X159979330Y-107199681D01*
X160107410Y-107138965D01*
X160248112Y-107101323D01*
X160397145Y-107088783D01*
X160550214Y-107103376D01*
G37*
D12*
%TO.C,J3*%
X-10800000Y-62600000D02*
X-10830000Y-68600000D01*
X1140000Y-62600000D02*
X1170000Y-68600000D01*
D15*
%TO.C,R2*%
X122360000Y-77050000D02*
X120920000Y-77050000D01*
X120920000Y-86170000D02*
X120920000Y-67930000D01*
X120920000Y-86170000D02*
X119120000Y-86170000D01*
X120920000Y-67930000D02*
X119120000Y-67930000D01*
X119120000Y-86170000D02*
X118220000Y-85270000D01*
X119120000Y-67930000D02*
X118220000Y-68830000D01*
X118220000Y-85270000D02*
X117320000Y-86170000D01*
X118220000Y-68830000D02*
X117320000Y-67930000D01*
X117320000Y-86170000D02*
X82680000Y-86170000D01*
X117320000Y-67930000D02*
X82680000Y-67930000D01*
X82680000Y-86170000D02*
X82680000Y-67930000D01*
X81240000Y-77050000D02*
X82680000Y-77050000D01*
%TO.C,C4*%
X90870000Y-29630000D02*
X79130000Y-29630000D01*
X90870000Y-29630000D02*
X90870000Y-56370000D01*
X79130000Y-29630000D02*
X79130000Y-56370000D01*
X90870000Y-56370000D02*
X79130000Y-56370000D01*
%TO.C,C2*%
X123380000Y-64120000D02*
X132620000Y-64120000D01*
X123380000Y-64120000D02*
X123380000Y-45880000D01*
X132620000Y-64120000D02*
X132620000Y-45880000D01*
X123380000Y-45880000D02*
X132620000Y-45880000D01*
D12*
%TO.C,J5*%
X164460000Y-41010000D02*
X164430000Y-47010000D01*
X176400000Y-41010000D02*
X176430000Y-47010000D01*
D15*
%TO.C,C3*%
X23900000Y-47150000D02*
X12160000Y-47150000D01*
X23900000Y-47150000D02*
X23900000Y-73890000D01*
X12160000Y-47150000D02*
X12160000Y-73890000D01*
X23900000Y-73890000D02*
X12160000Y-73890000D01*
%TO.C,R4*%
X18030000Y-92600000D02*
X18030000Y-91650000D01*
X17110000Y-91650000D02*
X18950000Y-91650000D01*
X18950000Y-91650000D02*
X18950000Y-87810000D01*
X17110000Y-87810000D02*
X17110000Y-91650000D01*
X18950000Y-87810000D02*
X17110000Y-87810000D01*
X18030000Y-86860000D02*
X18030000Y-87810000D01*
D12*
%TO.C,J2*%
X1140000Y-92730000D02*
X1170000Y-86730000D01*
X-10800000Y-92730000D02*
X-10830000Y-86730000D01*
%TD*%
D16*
X-14990000Y-23690000D02*
X180590000Y-23690000D01*
X180590000Y-110050000D01*
X-14990000Y-110050000D01*
X-14990000Y-23690000D01*
X-3070000Y-28770000D02*
G75*
G03*
X-3070000Y-28770000I-4300000J0D01*
G01*
X174600000Y-104970000D02*
G75*
G03*
X174600000Y-104970000I-4300000J0D01*
G01*
X174600000Y-28770000D02*
G75*
G03*
X174600000Y-28770000I-4300000J0D01*
G01*
X-3070000Y-104970000D02*
G75*
G03*
X-3070000Y-104970000I-4300000J0D01*
G01*
M02*
