M48
;Layer_Color=9474304
;FILE_FORMAT=4:4
METRIC,LZ
;TYPE=PLATED
T01F00S00C0.4000
T02F00S00C0.7112
T03F00S00C3.3000
T04F00S00C6.6000
%
T01
X0095Y0337
Y0338
Y0339
Y034
Y0341
Y0342
Y0343
Y0344
Y0345
Y0346
Y0347
Y0348
Y0349
Y035
X00950277Y03509346
X02389992Y03509247
X02389715Y03499901
Y03489901
Y03479901
Y03469901
Y03459901
Y03449901
Y03439901
Y03429901
Y03419901
Y03409901
Y03399901
Y03389901
Y03379901
Y03369901
X06040008Y03380753
X06040286Y03390099
Y03400099
Y03410099
Y03420099
Y03430099
Y03440099
Y03450099
Y03460099
Y03470099
Y03480099
Y03490099
Y03500099
Y03510099
Y03520099
X0748Y0352
Y0351
Y035
Y0349
Y0348
Y0347
Y0346
Y0345
Y0344
Y0343
Y0342
Y0341
Y034
Y0339
X07479723Y03380654
T02
X0248Y0274
X0254Y0268
X026Y0274
X0586Y0276
X0592Y027
X0598Y0276
Y0288
Y03
X0592Y0294
X0586Y03
Y0288
X0592Y0282
Y0306
X0254Y0304
Y0292
Y028
X026Y0286
Y0298
X0248
Y0286
Y0338
X0254Y0332
X026Y0338
Y035
X0254Y0344
Y0356
X0248Y035
X0586Y0352
X0592Y0346
Y0334
X0586Y034
X0598
Y0352
Y0364
X0592Y0358
Y037
X0586Y0364
X026Y0362
X0248
X0253Y0368
X0254
T03
X0028Y0016
X0055
X00691278Y00159754
X0095Y0016
X07485Y00135
X07755
X07896277Y00134754
X08155Y00135
T04
X07625Y00395
X08025
X0081534Y004191
X0041656Y0042164
M30
