%TF.GenerationSoftware,Altium Limited,Altium Designer,23.9.2 (47)*%
G04 Layer_Color=0*
%FSLAX45Y45*%
%MOMM*%
%TF.SameCoordinates,B27666AA-0A3C-4052-95A3-D01BD246DD82*%
%TF.FilePolarity,Positive*%
%TF.FileFunction,NonPlated,1,2,NPTH,Drill*%
%TF.Part,Single*%
G01*
G75*
G36*
X44753427Y35078427D02*
Y35057126D01*
X44758987Y35014886D01*
X44770013Y34973734D01*
X44786319Y34934375D01*
X44807620Y34897479D01*
X44833554Y34863681D01*
X44863681Y34833554D01*
X44897479Y34807620D01*
X44934375Y34786319D01*
X44973734Y34770013D01*
X45014886Y34758987D01*
X45057126Y34753427D01*
X45078427D01*
X45099728D01*
X45141968Y34758987D01*
X45183118Y34770013D01*
X45222479Y34786319D01*
X45259375Y34807620D01*
X45293173Y34833554D01*
X45323300Y34863681D01*
X45349234Y34897479D01*
X45370535Y34934375D01*
X45386841Y34973734D01*
X45397867Y35014886D01*
X45403427Y35057126D01*
Y35078427D01*
Y35099728D01*
X45397867Y35141968D01*
X45386841Y35183118D01*
X45370535Y35222479D01*
X45349234Y35259375D01*
X45323300Y35293173D01*
X45293173Y35323300D01*
X45259375Y35349234D01*
X45222479Y35370535D01*
X45183118Y35386841D01*
X45141968Y35397867D01*
X45099728Y35403427D01*
X45078427D01*
X45057126D01*
X45014886Y35397867D01*
X44973734Y35386841D01*
X44934375Y35370535D01*
X44897479Y35349234D01*
X44863681Y35323300D01*
X44833554Y35293173D01*
X44807620Y35259375D01*
X44786319Y35222479D01*
X44770013Y35183118D01*
X44758987Y35141968D01*
X44753427Y35099728D01*
Y35078427D01*
D01*
D02*
G37*
G36*
X39096573Y29421573D02*
Y29400272D01*
X39102133Y29358032D01*
X39113159Y29316882D01*
X39129465Y29277521D01*
X39150766Y29240625D01*
X39176700Y29206827D01*
X39206827Y29176700D01*
X39240625Y29150766D01*
X39277521Y29129462D01*
X39316882Y29113159D01*
X39358032Y29102133D01*
X39400272Y29096573D01*
X39421573D01*
X39442874D01*
X39485114Y29102133D01*
X39526266Y29113159D01*
X39565625Y29129462D01*
X39602521Y29150766D01*
X39636319Y29176700D01*
X39666446Y29206827D01*
X39692380Y29240625D01*
X39713681Y29277521D01*
X39729987Y29316882D01*
X39741013Y29358032D01*
X39746573Y29400272D01*
Y29421573D01*
Y29442874D01*
X39741013Y29485114D01*
X39729987Y29526266D01*
X39713681Y29565625D01*
X39692380Y29602521D01*
X39666446Y29636319D01*
X39636319Y29666446D01*
X39602521Y29692380D01*
X39565625Y29713681D01*
X39526266Y29729984D01*
X39485114Y29741013D01*
X39442874Y29746573D01*
X39421573D01*
X39400272D01*
X39358032Y29741013D01*
X39316882Y29729984D01*
X39277521Y29713681D01*
X39240625Y29692380D01*
X39206827Y29666446D01*
X39176700Y29636319D01*
X39150766Y29602521D01*
X39129465Y29565625D01*
X39113159Y29526266D01*
X39102133Y29485114D01*
X39096573Y29442874D01*
Y29421573D01*
D01*
D02*
G37*
G36*
Y35078427D02*
Y35057126D01*
X39102133Y35014886D01*
X39113159Y34973734D01*
X39129465Y34934375D01*
X39150766Y34897479D01*
X39176700Y34863681D01*
X39206827Y34833554D01*
X39240625Y34807620D01*
X39277521Y34786319D01*
X39316882Y34770013D01*
X39358032Y34758987D01*
X39400272Y34753427D01*
X39421573D01*
X39442874D01*
X39485114Y34758987D01*
X39526266Y34770013D01*
X39565625Y34786319D01*
X39602521Y34807620D01*
X39636319Y34833554D01*
X39666446Y34863681D01*
X39692380Y34897479D01*
X39713681Y34934375D01*
X39729987Y34973734D01*
X39741013Y35014886D01*
X39746573Y35057126D01*
Y35078427D01*
Y35099728D01*
X39741013Y35141968D01*
X39729987Y35183118D01*
X39713681Y35222479D01*
X39692380Y35259375D01*
X39666446Y35293173D01*
X39636319Y35323300D01*
X39602521Y35349234D01*
X39565625Y35370535D01*
X39526266Y35386841D01*
X39485114Y35397867D01*
X39442874Y35403427D01*
X39421573D01*
X39400272D01*
X39358032Y35397867D01*
X39316882Y35386841D01*
X39277521Y35370535D01*
X39240625Y35349234D01*
X39206827Y35323300D01*
X39176700Y35293173D01*
X39150766Y35259375D01*
X39129465Y35222479D01*
X39113159Y35183118D01*
X39102133Y35141968D01*
X39096573Y35099728D01*
Y35078427D01*
D01*
D02*
G37*
G36*
X42100000Y32250000D02*
Y32235226D01*
X42105765Y32206247D01*
X42117072Y32178949D01*
X42133487Y32154379D01*
X42154382Y32133487D01*
X42178949Y32117072D01*
X42206247Y32105765D01*
X42235226Y32100000D01*
X42250000D01*
X42264774D01*
X42293753Y32105765D01*
X42321051Y32117072D01*
X42345618Y32133487D01*
X42366513Y32154379D01*
X42382928Y32178949D01*
X42394235Y32206247D01*
X42400000Y32235226D01*
Y32250000D01*
Y32264774D01*
X42394235Y32293753D01*
X42382928Y32321051D01*
X42366513Y32345618D01*
X42345618Y32366513D01*
X42321051Y32382928D01*
X42293753Y32394235D01*
X42264774Y32400000D01*
X42250000D01*
X42235226D01*
X42206247Y32394235D01*
X42178949Y32382928D01*
X42154382Y32366513D01*
X42133487Y32345618D01*
X42117072Y32321051D01*
X42105765Y32293753D01*
X42100000Y32264774D01*
Y32250000D01*
D01*
D02*
G37*
G36*
X44753427Y29421573D02*
Y29400272D01*
X44758987Y29358032D01*
X44770013Y29316882D01*
X44786319Y29277521D01*
X44807620Y29240625D01*
X44833554Y29206827D01*
X44863681Y29176700D01*
X44897479Y29150766D01*
X44934375Y29129462D01*
X44973734Y29113159D01*
X45014886Y29102133D01*
X45057126Y29096573D01*
X45078427D01*
X45099728D01*
X45141968Y29102133D01*
X45183118Y29113159D01*
X45222479Y29129462D01*
X45259375Y29150766D01*
X45293173Y29176700D01*
X45323300Y29206827D01*
X45349234Y29240625D01*
X45370535Y29277521D01*
X45386841Y29316882D01*
X45397867Y29358032D01*
X45403427Y29400272D01*
Y29421573D01*
Y29442874D01*
X45397867Y29485114D01*
X45386841Y29526266D01*
X45370535Y29565625D01*
X45349234Y29602521D01*
X45323300Y29636319D01*
X45293173Y29666446D01*
X45259375Y29692380D01*
X45222479Y29713681D01*
X45183118Y29729984D01*
X45141968Y29741013D01*
X45099728Y29746573D01*
X45078427D01*
X45057126D01*
X45014886Y29741013D01*
X44973734Y29729984D01*
X44934375Y29713681D01*
X44897479Y29692380D01*
X44863681Y29666446D01*
X44833554Y29636319D01*
X44807620Y29602521D01*
X44786319Y29565625D01*
X44770013Y29526266D01*
X44758987Y29485114D01*
X44753427Y29442874D01*
Y29421573D01*
D01*
D02*
G37*
G36*
X33650000Y32250000D02*
Y32235226D01*
X33655765Y32206247D01*
X33667072Y32178949D01*
X33683487Y32154379D01*
X33704379Y32133487D01*
X33728949Y32117072D01*
X33756247Y32105765D01*
X33785226Y32100000D01*
X33800000D01*
X33814774D01*
X33843753Y32105765D01*
X33871051Y32117072D01*
X33895618Y32133487D01*
X33916513Y32154379D01*
X33932928Y32178949D01*
X33944235Y32206247D01*
X33950000Y32235226D01*
Y32250000D01*
Y32264774D01*
X33944235Y32293753D01*
X33932928Y32321051D01*
X33916513Y32345618D01*
X33895618Y32366513D01*
X33871051Y32382928D01*
X33843753Y32394235D01*
X33814774Y32400000D01*
X33800000D01*
X33785226D01*
X33756247Y32394235D01*
X33728949Y32382928D01*
X33704379Y32366513D01*
X33683487Y32345618D01*
X33667072Y32321051D01*
X33655765Y32293753D01*
X33650000Y32264774D01*
Y32250000D01*
D01*
D02*
G37*
G36*
X42100000Y25800000D02*
Y25785226D01*
X42105765Y25756247D01*
X42117072Y25728949D01*
X42133487Y25704379D01*
X42154382Y25683487D01*
X42178949Y25667072D01*
X42206247Y25655765D01*
X42235226Y25650000D01*
X42250000D01*
X42264774D01*
X42293753Y25655765D01*
X42321051Y25667072D01*
X42345618Y25683487D01*
X42366513Y25704379D01*
X42382928Y25728949D01*
X42394235Y25756247D01*
X42400000Y25785226D01*
Y25800000D01*
Y25814774D01*
X42394235Y25843753D01*
X42382928Y25871051D01*
X42366513Y25895618D01*
X42345618Y25916513D01*
X42321051Y25932928D01*
X42293753Y25944235D01*
X42264774Y25950000D01*
X42250000D01*
X42235226D01*
X42206247Y25944235D01*
X42178949Y25932928D01*
X42154382Y25916513D01*
X42133487Y25895618D01*
X42117072Y25871051D01*
X42105765Y25843753D01*
X42100000Y25814774D01*
Y25800000D01*
D01*
D02*
G37*
G36*
X50700000Y51450000D02*
X50685226D01*
X50656247Y51455762D01*
X50628949Y51467072D01*
X50604379Y51483490D01*
X50583487Y51504382D01*
X50567072Y51528949D01*
X50555765Y51556244D01*
X50550000Y51585223D01*
Y51600000D01*
Y51614777D01*
X50555765Y51643750D01*
X50567072Y51671051D01*
X50583487Y51695618D01*
X50604379Y51716510D01*
X50628949Y51732928D01*
X50656247Y51744232D01*
X50685226Y51750000D01*
X50700000D01*
X50714774D01*
X50743753Y51744232D01*
X50771051Y51732928D01*
X50795618Y51716510D01*
X50816513Y51695618D01*
X50832928Y51671051D01*
X50844235Y51643750D01*
X50850000Y51614777D01*
Y51600000D01*
Y51585223D01*
X50844235Y51556244D01*
X50832928Y51528949D01*
X50816513Y51504382D01*
X50795618Y51483490D01*
X50771051Y51467072D01*
X50743753Y51455762D01*
X50714774Y51450000D01*
X50700000D01*
D01*
D02*
G37*
G36*
X55342603Y13907651D02*
Y13887987D01*
X55347736Y13848997D01*
X55357916Y13811011D01*
X55372961Y13774680D01*
X55392627Y13740620D01*
X55416565Y13709422D01*
X55444373Y13681615D01*
X55475574Y13657674D01*
X55509631Y13638011D01*
X55545966Y13622961D01*
X55583948Y13612782D01*
X55622937Y13607651D01*
X55642603D01*
X55662262D01*
X55701257Y13612782D01*
X55739240Y13622961D01*
X55775574Y13638011D01*
X55809631Y13657674D01*
X55840833Y13681615D01*
X55868640Y13709422D01*
X55892578Y13740620D01*
X55912244Y13774680D01*
X55927289Y13811011D01*
X55937469Y13848997D01*
X55942603Y13887987D01*
Y13907651D01*
Y13927313D01*
X55937469Y13966302D01*
X55927289Y14004289D01*
X55912244Y14040620D01*
X55892578Y14074680D01*
X55868640Y14105878D01*
X55840833Y14133685D01*
X55809631Y14157626D01*
X55775574Y14177289D01*
X55739240Y14192339D01*
X55701257Y14202518D01*
X55662262Y14207651D01*
X55642603D01*
X55622937D01*
X55583948Y14202518D01*
X55545966Y14192339D01*
X55509631Y14177289D01*
X55475574Y14157626D01*
X55444373Y14133685D01*
X55416565Y14105878D01*
X55392627Y14074680D01*
X55372961Y14040620D01*
X55357916Y14004289D01*
X55347736Y13966302D01*
X55342603Y13927313D01*
Y13907651D01*
D01*
D02*
G37*
G36*
X67686969Y13554097D02*
Y13532468D01*
X67692615Y13489578D01*
X67703815Y13447794D01*
X67720367Y13407828D01*
X67741998Y13370364D01*
X67768335Y13336044D01*
X67798920Y13305457D01*
X67833240Y13279123D01*
X67870703Y13257494D01*
X67910669Y13240939D01*
X67952454Y13229742D01*
X67995343Y13224097D01*
X68016974D01*
X68038599D01*
X68081488Y13229742D01*
X68123273Y13240939D01*
X68163239Y13257494D01*
X68200702Y13279123D01*
X68235022Y13305457D01*
X68265613Y13336044D01*
X68291943Y13370364D01*
X68313574Y13407828D01*
X68330127Y13447794D01*
X68341327Y13489578D01*
X68346973Y13532468D01*
Y13554097D01*
Y13575726D01*
X68341327Y13618614D01*
X68330127Y13660399D01*
X68313574Y13700365D01*
X68291943Y13737828D01*
X68265613Y13772147D01*
X68235022Y13802736D01*
X68200702Y13829070D01*
X68163239Y13850700D01*
X68123273Y13867255D01*
X68081488Y13878450D01*
X68038599Y13884097D01*
X68016974D01*
X67995343D01*
X67952454Y13878450D01*
X67910669Y13867255D01*
X67870703Y13850700D01*
X67833240Y13829070D01*
X67798920Y13802736D01*
X67768335Y13772147D01*
X67741998Y13737828D01*
X67720367Y13700365D01*
X67703815Y13660399D01*
X67692615Y13618614D01*
X67686969Y13575726D01*
Y13554097D01*
D01*
D02*
G37*
G36*
X64504993Y16736076D02*
Y16714449D01*
X64510638Y16671559D01*
X64521832Y16629774D01*
X64538385Y16589809D01*
X64560016Y16552345D01*
X64586353Y16518027D01*
X64616937Y16487437D01*
X64651257Y16461102D01*
X64688721Y16439474D01*
X64728687Y16422920D01*
X64770471Y16411723D01*
X64813361Y16406078D01*
X64834991D01*
X64856622D01*
X64899512Y16411723D01*
X64941290Y16422920D01*
X64981256Y16439474D01*
X65018719Y16461102D01*
X65053040Y16487437D01*
X65083630Y16518027D01*
X65109967Y16552345D01*
X65131592Y16589809D01*
X65148151Y16629774D01*
X65159344Y16671559D01*
X65164990Y16714449D01*
Y16736076D01*
Y16757706D01*
X65159344Y16800595D01*
X65148151Y16842380D01*
X65131592Y16882346D01*
X65109967Y16919809D01*
X65083630Y16954128D01*
X65053040Y16984717D01*
X65018719Y17011050D01*
X64981256Y17032680D01*
X64941290Y17049236D01*
X64899512Y17060431D01*
X64856622Y17066077D01*
X64834991D01*
X64813361D01*
X64770471Y17060431D01*
X64728687Y17049236D01*
X64688721Y17032680D01*
X64651257Y17011050D01*
X64616937Y16984717D01*
X64586353Y16954128D01*
X64560016Y16919809D01*
X64538385Y16882346D01*
X64521832Y16842380D01*
X64510638Y16800595D01*
X64504993Y16757706D01*
Y16736076D01*
D01*
D02*
G37*
G36*
X59000000Y19350000D02*
Y19335226D01*
X59005762Y19306245D01*
X59017072Y19278947D01*
X59033490Y19254379D01*
X59054382Y19233487D01*
X59078949Y19217072D01*
X59106250Y19205763D01*
X59135223Y19200000D01*
X59150000D01*
X59164777D01*
X59193750Y19205763D01*
X59221051Y19217072D01*
X59245618Y19233487D01*
X59266510Y19254379D01*
X59282928Y19278947D01*
X59294232Y19306245D01*
X59300000Y19335226D01*
Y19350000D01*
Y19364774D01*
X59294232Y19393753D01*
X59282928Y19421051D01*
X59266510Y19445619D01*
X59245618Y19466512D01*
X59221051Y19482928D01*
X59193750Y19494235D01*
X59164777Y19500000D01*
X59150000D01*
X59135223D01*
X59106250Y19494235D01*
X59078949Y19482928D01*
X59054382Y19466512D01*
X59033490Y19445619D01*
X59017072Y19421051D01*
X59005762Y19393753D01*
X59000000Y19364774D01*
Y19350000D01*
D01*
D02*
G37*
G36*
X60262347Y18857397D02*
Y18835768D01*
X60267993Y18792879D01*
X60279193Y18751096D01*
X60295746Y18711130D01*
X60317377Y18673666D01*
X60343707Y18639346D01*
X60374298Y18608759D01*
X60408618Y18582423D01*
X60446082Y18560794D01*
X60486047Y18544240D01*
X60527832Y18533043D01*
X60570721Y18527397D01*
X60592352D01*
X60613977D01*
X60656866Y18533043D01*
X60698651Y18544240D01*
X60738617Y18560794D01*
X60776080Y18582423D01*
X60810400Y18608759D01*
X60840991Y18639346D01*
X60867322Y18673666D01*
X60888953Y18711130D01*
X60905505Y18751096D01*
X60916705Y18792879D01*
X60922351Y18835768D01*
Y18857397D01*
Y18879027D01*
X60916705Y18921915D01*
X60905505Y18963699D01*
X60888953Y19003667D01*
X60867322Y19041129D01*
X60840991Y19075449D01*
X60810400Y19106036D01*
X60776080Y19132372D01*
X60738617Y19153999D01*
X60698651Y19170555D01*
X60656866Y19181750D01*
X60613977Y19187396D01*
X60592352D01*
X60570721D01*
X60527832Y19181750D01*
X60486047Y19170555D01*
X60446082Y19153999D01*
X60408618Y19132372D01*
X60374298Y19106036D01*
X60343707Y19075449D01*
X60317377Y19041129D01*
X60295746Y19003667D01*
X60279193Y18963699D01*
X60267993Y18921915D01*
X60262347Y18879027D01*
Y18857397D01*
D01*
D02*
G37*
G36*
X67450000Y25800000D02*
Y25785226D01*
X67455762Y25756247D01*
X67467072Y25728949D01*
X67483490Y25704379D01*
X67504382Y25683487D01*
X67528949Y25667072D01*
X67556244Y25655765D01*
X67585223Y25650000D01*
X67600000D01*
X67614777D01*
X67643750Y25655765D01*
X67671051Y25667072D01*
X67695618Y25683487D01*
X67716510Y25704379D01*
X67732928Y25728949D01*
X67744232Y25756247D01*
X67750000Y25785226D01*
Y25800000D01*
Y25814774D01*
X67744232Y25843753D01*
X67732928Y25871051D01*
X67716510Y25895618D01*
X67695618Y25916513D01*
X67671051Y25932928D01*
X67643750Y25944235D01*
X67614777Y25950000D01*
X67600000D01*
X67585223D01*
X67556244Y25944235D01*
X67528949Y25932928D01*
X67504382Y25916513D01*
X67483490Y25895618D01*
X67467072Y25871051D01*
X67455762Y25843753D01*
X67450000Y25814774D01*
Y25800000D01*
D01*
D02*
G37*
G36*
X59000000D02*
Y25785226D01*
X59005762Y25756247D01*
X59017072Y25728949D01*
X59033490Y25704379D01*
X59054382Y25683487D01*
X59078949Y25667072D01*
X59106250Y25655765D01*
X59135223Y25650000D01*
X59150000D01*
X59164777D01*
X59193750Y25655765D01*
X59221051Y25667072D01*
X59245618Y25683487D01*
X59266510Y25704379D01*
X59282928Y25728949D01*
X59294232Y25756247D01*
X59300000Y25785226D01*
Y25800000D01*
Y25814774D01*
X59294232Y25843753D01*
X59282928Y25871051D01*
X59266510Y25895618D01*
X59245618Y25916513D01*
X59221051Y25932928D01*
X59193750Y25944235D01*
X59164777Y25950000D01*
X59150000D01*
X59135223D01*
X59106250Y25944235D01*
X59078949Y25932928D01*
X59054382Y25916513D01*
X59033490Y25895618D01*
X59017072Y25871051D01*
X59005762Y25843753D01*
X59000000Y25814774D01*
Y25800000D01*
D01*
D02*
G37*
G36*
Y32250000D02*
Y32235226D01*
X59005762Y32206247D01*
X59017072Y32178949D01*
X59033490Y32154379D01*
X59054382Y32133487D01*
X59078949Y32117072D01*
X59106250Y32105765D01*
X59135223Y32100000D01*
X59150000D01*
X59164777D01*
X59193750Y32105765D01*
X59221051Y32117072D01*
X59245618Y32133487D01*
X59266510Y32154379D01*
X59282928Y32178949D01*
X59294232Y32206247D01*
X59300000Y32235226D01*
Y32250000D01*
Y32264774D01*
X59294232Y32293753D01*
X59282928Y32321051D01*
X59266510Y32345618D01*
X59245618Y32366513D01*
X59221051Y32382928D01*
X59193750Y32394235D01*
X59164777Y32400000D01*
X59150000D01*
X59135223D01*
X59106250Y32394235D01*
X59078949Y32382928D01*
X59054382Y32366513D01*
X59033490Y32345618D01*
X59017072Y32321051D01*
X59005762Y32293753D01*
X59000000Y32264774D01*
Y32250000D01*
D01*
D02*
G37*
G36*
Y38700000D02*
Y38685226D01*
X59005762Y38656247D01*
X59017072Y38628949D01*
X59033490Y38604379D01*
X59054382Y38583487D01*
X59078949Y38567072D01*
X59106250Y38555765D01*
X59135223Y38550000D01*
X59150000D01*
X59164777D01*
X59193750Y38555765D01*
X59221051Y38567072D01*
X59245618Y38583487D01*
X59266510Y38604379D01*
X59282928Y38628949D01*
X59294232Y38656247D01*
X59300000Y38685226D01*
Y38700000D01*
Y38714774D01*
X59294232Y38743753D01*
X59282928Y38771051D01*
X59266510Y38795618D01*
X59245618Y38816513D01*
X59221051Y38832928D01*
X59193750Y38844235D01*
X59164777Y38850000D01*
X59150000D01*
X59135223D01*
X59106250Y38844235D01*
X59078949Y38832928D01*
X59054382Y38816513D01*
X59033490Y38795618D01*
X59017072Y38771051D01*
X59005762Y38743753D01*
X59000000Y38714774D01*
Y38700000D01*
D01*
D02*
G37*
G36*
X67450000Y45150000D02*
Y45135226D01*
X67455762Y45106247D01*
X67467072Y45078949D01*
X67483490Y45054379D01*
X67504382Y45033487D01*
X67528949Y45017072D01*
X67556244Y45005765D01*
X67585223Y45000000D01*
X67600000D01*
X67614777D01*
X67643750Y45005765D01*
X67671051Y45017072D01*
X67695618Y45033487D01*
X67716510Y45054379D01*
X67732928Y45078949D01*
X67744232Y45106247D01*
X67750000Y45135226D01*
Y45150000D01*
Y45164774D01*
X67744232Y45193753D01*
X67732928Y45221051D01*
X67716510Y45245618D01*
X67695618Y45266513D01*
X67671051Y45282928D01*
X67643750Y45294235D01*
X67614777Y45300000D01*
X67600000D01*
X67585223D01*
X67556244Y45294235D01*
X67528949Y45282928D01*
X67504382Y45266513D01*
X67483490Y45245618D01*
X67467072Y45221051D01*
X67455762Y45193753D01*
X67450000Y45164774D01*
Y45150000D01*
D01*
D02*
G37*
G36*
X60262347Y45642603D02*
Y45620972D01*
X60267993Y45578085D01*
X60279193Y45536301D01*
X60295746Y45496335D01*
X60317377Y45458871D01*
X60343707Y45424551D01*
X60374298Y45393964D01*
X60408618Y45367627D01*
X60446082Y45345999D01*
X60486047Y45329446D01*
X60527832Y45318250D01*
X60570721Y45312601D01*
X60592352D01*
X60613977D01*
X60656866Y45318250D01*
X60698651Y45329446D01*
X60738617Y45345999D01*
X60776080Y45367627D01*
X60810400Y45393964D01*
X60840991Y45424551D01*
X60867322Y45458871D01*
X60888953Y45496335D01*
X60905505Y45536301D01*
X60916705Y45578085D01*
X60922351Y45620972D01*
Y45642603D01*
Y45664233D01*
X60916705Y45707120D01*
X60905505Y45748904D01*
X60888953Y45788870D01*
X60867322Y45826334D01*
X60840991Y45860654D01*
X60810400Y45891241D01*
X60776080Y45917575D01*
X60738617Y45939206D01*
X60698651Y45955759D01*
X60656866Y45966956D01*
X60613977Y45972601D01*
X60592352D01*
X60570721D01*
X60527832Y45966956D01*
X60486047Y45955759D01*
X60446082Y45939206D01*
X60408618Y45917575D01*
X60374298Y45891241D01*
X60343707Y45860654D01*
X60317377Y45826334D01*
X60295746Y45788870D01*
X60279193Y45748904D01*
X60267993Y45707120D01*
X60262347Y45664233D01*
Y45642603D01*
D01*
D02*
G37*
G36*
X55312604Y50592349D02*
Y50570721D01*
X55318250Y50527832D01*
X55329443Y50486047D01*
X55345996Y50446082D01*
X55367627Y50408618D01*
X55393964Y50374298D01*
X55424548Y50343710D01*
X55458868Y50317377D01*
X55496332Y50295746D01*
X55536298Y50279193D01*
X55578082Y50267996D01*
X55620972Y50262350D01*
X55642603D01*
X55664233D01*
X55707123Y50267996D01*
X55748907Y50279193D01*
X55788873Y50295746D01*
X55826337Y50317377D01*
X55860651Y50343710D01*
X55891241Y50374298D01*
X55917578Y50408618D01*
X55939203Y50446082D01*
X55955762Y50486047D01*
X55966956Y50527832D01*
X55972601Y50570721D01*
Y50592349D01*
Y50613980D01*
X55966956Y50656870D01*
X55955762Y50698651D01*
X55939203Y50738617D01*
X55917578Y50776080D01*
X55891241Y50810400D01*
X55860651Y50840988D01*
X55826337Y50867325D01*
X55788873Y50888953D01*
X55748907Y50905508D01*
X55707123Y50916705D01*
X55664233Y50922351D01*
X55642603D01*
X55620972D01*
X55578082Y50916705D01*
X55536298Y50905508D01*
X55496332Y50888953D01*
X55458868Y50867325D01*
X55424548Y50840988D01*
X55393964Y50810400D01*
X55367627Y50776080D01*
X55345996Y50738617D01*
X55329443Y50698651D01*
X55318250Y50656870D01*
X55312604Y50613980D01*
Y50592349D01*
D01*
D02*
G37*
G36*
X67686969Y50945901D02*
Y50924274D01*
X67692615Y50881384D01*
X67703815Y50839600D01*
X67720367Y50799634D01*
X67741998Y50762173D01*
X67768335Y50727853D01*
X67798920Y50697263D01*
X67833240Y50670929D01*
X67870703Y50649301D01*
X67910669Y50632745D01*
X67952454Y50621548D01*
X67995343Y50615903D01*
X68016974D01*
X68038599D01*
X68081488Y50621548D01*
X68123273Y50632745D01*
X68163239Y50649301D01*
X68200702Y50670929D01*
X68235022Y50697263D01*
X68265613Y50727853D01*
X68291943Y50762173D01*
X68313574Y50799634D01*
X68330127Y50839600D01*
X68341327Y50881384D01*
X68346973Y50924274D01*
Y50945901D01*
Y50967532D01*
X68341327Y51010422D01*
X68330127Y51052206D01*
X68313574Y51092172D01*
X68291943Y51129636D01*
X68265613Y51163953D01*
X68235022Y51194543D01*
X68200702Y51220874D01*
X68163239Y51242505D01*
X68123273Y51259064D01*
X68081488Y51270258D01*
X68038599Y51275903D01*
X68016974D01*
X67995343D01*
X67952454Y51270258D01*
X67910669Y51259064D01*
X67870703Y51242505D01*
X67833240Y51220874D01*
X67798920Y51194543D01*
X67768335Y51163953D01*
X67741998Y51129636D01*
X67720367Y51092172D01*
X67703815Y51052206D01*
X67692615Y51010422D01*
X67686969Y50967532D01*
Y50945901D01*
D01*
D02*
G37*
G36*
X64151434Y54481439D02*
Y54459808D01*
X64157080Y54416919D01*
X64168280Y54375134D01*
X64184833Y54335168D01*
X64206464Y54297705D01*
X64232800Y54263385D01*
X64263385Y54232800D01*
X64297705Y54206464D01*
X64335168Y54184833D01*
X64375134Y54168280D01*
X64416919Y54157080D01*
X64459808Y54151434D01*
X64481439D01*
X64503064D01*
X64545953Y54157080D01*
X64587738Y54168280D01*
X64627704Y54184833D01*
X64665167Y54206464D01*
X64699487Y54232800D01*
X64730078Y54263385D01*
X64756409Y54297705D01*
X64778040Y54335168D01*
X64794592Y54375134D01*
X64805792Y54416919D01*
X64811438Y54459808D01*
Y54481439D01*
Y54503064D01*
X64805792Y54545953D01*
X64794592Y54587738D01*
X64778040Y54627704D01*
X64756409Y54665167D01*
X64730078Y54699487D01*
X64699487Y54730078D01*
X64665167Y54756409D01*
X64627704Y54778040D01*
X64587738Y54794592D01*
X64545953Y54805792D01*
X64503064Y54811438D01*
X64481439D01*
X64459808D01*
X64416919Y54805792D01*
X64375134Y54794592D01*
X64335168Y54778040D01*
X64297705Y54756409D01*
X64263385Y54730078D01*
X64232800Y54699487D01*
X64206464Y54665167D01*
X64184833Y54627704D01*
X64168280Y54587738D01*
X64157080Y54545953D01*
X64151434Y54503064D01*
Y54481439D01*
D01*
D02*
G37*
G36*
X57433923Y54834991D02*
Y54813361D01*
X57439569Y54770471D01*
X57450763Y54728687D01*
X57467322Y54688721D01*
X57488947Y54651257D01*
X57515283Y54616937D01*
X57545874Y54586353D01*
X57580188Y54560016D01*
X57617651Y54538385D01*
X57657617Y54521832D01*
X57699408Y54510638D01*
X57742291Y54504993D01*
X57763922D01*
X57785553D01*
X57828442Y54510638D01*
X57870227Y54521832D01*
X57910193Y54538385D01*
X57947656Y54560016D01*
X57981976Y54586353D01*
X58012561Y54616937D01*
X58038898Y54651257D01*
X58060529Y54688721D01*
X58077081Y54728687D01*
X58088275Y54770471D01*
X58093921Y54813361D01*
Y54834991D01*
Y54856622D01*
X58088275Y54899506D01*
X58077081Y54941290D01*
X58060529Y54981256D01*
X58038898Y55018719D01*
X58012561Y55053040D01*
X57981976Y55083630D01*
X57947656Y55109967D01*
X57910193Y55131592D01*
X57870227Y55148151D01*
X57828442Y55159344D01*
X57785553Y55164990D01*
X57763922D01*
X57742291D01*
X57699408Y55159344D01*
X57657617Y55148151D01*
X57617651Y55131592D01*
X57580188Y55109967D01*
X57545874Y55083630D01*
X57515283Y55053040D01*
X57488947Y55018719D01*
X57467322Y54981256D01*
X57450763Y54941290D01*
X57439569Y54899506D01*
X57433923Y54856622D01*
Y54834991D01*
D01*
D02*
G37*
G36*
X60615906Y58016974D02*
Y57995343D01*
X60621552Y57952454D01*
X60632745Y57910669D01*
X60649298Y57870703D01*
X60670929Y57833240D01*
X60697266Y57798920D01*
X60727850Y57768335D01*
X60762170Y57741998D01*
X60799634Y57720367D01*
X60839600Y57703815D01*
X60881384Y57692615D01*
X60924274Y57686969D01*
X60945905D01*
X60967529D01*
X61010419Y57692615D01*
X61052203Y57703815D01*
X61092169Y57720367D01*
X61129633Y57741998D01*
X61163953Y57768335D01*
X61194543Y57798920D01*
X61220874Y57833240D01*
X61242505Y57870703D01*
X61259064Y57910669D01*
X61270258Y57952454D01*
X61275903Y57995343D01*
Y58016974D01*
Y58038599D01*
X61270258Y58081488D01*
X61259064Y58123273D01*
X61242505Y58163239D01*
X61220874Y58200702D01*
X61194543Y58235022D01*
X61163953Y58265613D01*
X61129633Y58291943D01*
X61092169Y58313574D01*
X61052203Y58330127D01*
X61010419Y58341327D01*
X60967529Y58346973D01*
X60945905D01*
X60924274D01*
X60881384Y58341327D01*
X60839600Y58330127D01*
X60799634Y58313574D01*
X60762170Y58291943D01*
X60727850Y58265613D01*
X60697266Y58235022D01*
X60670929Y58200702D01*
X60649298Y58163239D01*
X60632745Y58123273D01*
X60621552Y58081488D01*
X60615906Y58038599D01*
Y58016974D01*
D01*
D02*
G37*
G36*
X50000000Y62350000D02*
X49985226D01*
X49956247Y62355762D01*
X49928949Y62367072D01*
X49904382Y62383490D01*
X49883487Y62404382D01*
X49867072Y62428949D01*
X49855765Y62456244D01*
X49850000Y62485223D01*
Y62500000D01*
Y62514777D01*
X49855765Y62543750D01*
X49867072Y62571051D01*
X49883487Y62595618D01*
X49904382Y62616510D01*
X49928949Y62632928D01*
X49956247Y62644232D01*
X49985226Y62650000D01*
X50000000D01*
X50014774D01*
X50043753Y62644232D01*
X50071051Y62632928D01*
X50095618Y62616510D01*
X50116513Y62595618D01*
X50132928Y62571051D01*
X50144235Y62543750D01*
X50150000Y62514777D01*
Y62500000D01*
Y62485223D01*
X50144235Y62456244D01*
X50132928Y62428949D01*
X50116513Y62404382D01*
X50095618Y62383490D01*
X50071051Y62367072D01*
X50043753Y62355762D01*
X50014774Y62350000D01*
X50000000D01*
D01*
D02*
G37*
G36*
X54000000D02*
X53985223D01*
X53956244Y62355762D01*
X53928949Y62367072D01*
X53904382Y62383490D01*
X53883490Y62404382D01*
X53867072Y62428949D01*
X53855762Y62456244D01*
X53850000Y62485223D01*
Y62500000D01*
Y62514777D01*
X53855762Y62543750D01*
X53867072Y62571051D01*
X53883490Y62595618D01*
X53904382Y62616510D01*
X53928949Y62632928D01*
X53956244Y62644232D01*
X53985223Y62650000D01*
X54000000D01*
X54014777D01*
X54043750Y62644232D01*
X54071051Y62632928D01*
X54095618Y62616510D01*
X54116510Y62595618D01*
X54132928Y62571051D01*
X54144232Y62543750D01*
X54150000Y62514777D01*
Y62500000D01*
Y62485223D01*
X54144232Y62456244D01*
X54132928Y62428949D01*
X54116510Y62404382D01*
X54095618Y62383490D01*
X54071051Y62367072D01*
X54043750Y62355762D01*
X54014777Y62350000D01*
X54000000D01*
D01*
D02*
G37*
G36*
X58000000D02*
X57985223D01*
X57956250Y62355762D01*
X57928949Y62367072D01*
X57904382Y62383490D01*
X57883490Y62404382D01*
X57867072Y62428949D01*
X57855762Y62456244D01*
X57850000Y62485223D01*
Y62500000D01*
Y62514777D01*
X57855762Y62543750D01*
X57867072Y62571051D01*
X57883490Y62595618D01*
X57904382Y62616510D01*
X57928949Y62632928D01*
X57956250Y62644232D01*
X57985223Y62650000D01*
X58000000D01*
X58014777D01*
X58043750Y62644232D01*
X58071051Y62632928D01*
X58095618Y62616510D01*
X58116510Y62595618D01*
X58132928Y62571051D01*
X58144238Y62543750D01*
X58150000Y62514777D01*
Y62500000D01*
Y62485223D01*
X58144238Y62456244D01*
X58132928Y62428949D01*
X58116510Y62404382D01*
X58095618Y62383490D01*
X58071051Y62367072D01*
X58043750Y62355762D01*
X58014777Y62350000D01*
X58000000D01*
D01*
D02*
G37*
G36*
X62000000D02*
X61985223D01*
X61956244Y62355762D01*
X61928949Y62367072D01*
X61904382Y62383490D01*
X61883490Y62404382D01*
X61867072Y62428949D01*
X61855762Y62456244D01*
X61850000Y62485223D01*
Y62500000D01*
Y62514777D01*
X61855762Y62543750D01*
X61867072Y62571051D01*
X61883490Y62595618D01*
X61904382Y62616510D01*
X61928949Y62632928D01*
X61956244Y62644232D01*
X61985223Y62650000D01*
X62000000D01*
X62014777D01*
X62043750Y62644232D01*
X62071051Y62632928D01*
X62095618Y62616510D01*
X62116510Y62595618D01*
X62132928Y62571051D01*
X62144232Y62543750D01*
X62150000Y62514777D01*
Y62500000D01*
Y62485223D01*
X62144232Y62456244D01*
X62132928Y62428949D01*
X62116510Y62404382D01*
X62095618Y62383490D01*
X62071051Y62367072D01*
X62043750Y62355762D01*
X62014777Y62350000D01*
X62000000D01*
D01*
D02*
G37*
G36*
X65850000Y62500000D02*
Y62485223D01*
X65855762Y62456244D01*
X65867072Y62428949D01*
X65883490Y62404382D01*
X65904382Y62383490D01*
X65928949Y62367072D01*
X65956250Y62355762D01*
X65985223Y62350000D01*
X66000000D01*
X66014777D01*
X66043750Y62355762D01*
X66071051Y62367072D01*
X66095618Y62383490D01*
X66116510Y62404382D01*
X66132928Y62428949D01*
X66144238Y62456244D01*
X66150000Y62485223D01*
Y62500000D01*
Y62514777D01*
X66144238Y62543750D01*
X66132928Y62571051D01*
X66116510Y62595618D01*
X66095618Y62616510D01*
X66071051Y62632928D01*
X66043750Y62644232D01*
X66014777Y62650000D01*
X66000000D01*
X65985223D01*
X65956250Y62644232D01*
X65928949Y62632928D01*
X65904382Y62616510D01*
X65883490Y62595618D01*
X65867072Y62571051D01*
X65855762Y62543750D01*
X65850000Y62514777D01*
Y62500000D01*
D01*
D02*
G37*
G36*
X69850000D02*
Y62485223D01*
X69855762Y62456244D01*
X69867072Y62428949D01*
X69883490Y62404382D01*
X69904382Y62383490D01*
X69928949Y62367072D01*
X69956244Y62355762D01*
X69985223Y62350000D01*
X70000000D01*
X70014777D01*
X70043750Y62355762D01*
X70071051Y62367072D01*
X70095618Y62383490D01*
X70116510Y62404382D01*
X70132928Y62428949D01*
X70144232Y62456244D01*
X70150000Y62485223D01*
Y62500000D01*
Y62514777D01*
X70144232Y62543750D01*
X70132928Y62571051D01*
X70116510Y62595618D01*
X70095618Y62616510D01*
X70071051Y62632928D01*
X70043750Y62644232D01*
X70014777Y62650000D01*
X70000000D01*
X69985223D01*
X69956244Y62644232D01*
X69928949Y62632928D01*
X69904382Y62616510D01*
X69883490Y62595618D01*
X69867072Y62571051D01*
X69855762Y62543750D01*
X69850000Y62514777D01*
Y62500000D01*
D01*
D02*
G37*
G36*
X73850000D02*
Y62485223D01*
X73855762Y62456244D01*
X73867072Y62428949D01*
X73883490Y62404382D01*
X73904382Y62383490D01*
X73928949Y62367072D01*
X73956250Y62355762D01*
X73985223Y62350000D01*
X74000000D01*
X74014777D01*
X74043750Y62355762D01*
X74071051Y62367072D01*
X74095618Y62383490D01*
X74116510Y62404382D01*
X74132928Y62428949D01*
X74144238Y62456244D01*
X74150000Y62485223D01*
Y62500000D01*
Y62514777D01*
X74144238Y62543750D01*
X74132928Y62571051D01*
X74116510Y62595618D01*
X74095618Y62616510D01*
X74071051Y62632928D01*
X74043750Y62644232D01*
X74014777Y62650000D01*
X74000000D01*
X73985223D01*
X73956250Y62644232D01*
X73928949Y62632928D01*
X73904382Y62616510D01*
X73883490Y62595618D01*
X73867072Y62571051D01*
X73855762Y62543750D01*
X73850000Y62514777D01*
Y62500000D01*
D01*
D02*
G37*
G36*
X77850000D02*
Y62485223D01*
X77855762Y62456244D01*
X77867072Y62428949D01*
X77883490Y62404382D01*
X77904382Y62383490D01*
X77928949Y62367072D01*
X77956244Y62355762D01*
X77985223Y62350000D01*
X78000000D01*
X78014777D01*
X78043750Y62355762D01*
X78071051Y62367072D01*
X78095618Y62383490D01*
X78116510Y62404382D01*
X78132928Y62428949D01*
X78144232Y62456244D01*
X78150000Y62485223D01*
Y62500000D01*
Y62514777D01*
X78144232Y62543750D01*
X78132928Y62571051D01*
X78116510Y62595618D01*
X78095618Y62616510D01*
X78071051Y62632928D01*
X78043750Y62644232D01*
X78014777Y62650000D01*
X78000000D01*
X77985223D01*
X77956244Y62644232D01*
X77928949Y62632928D01*
X77904382Y62616510D01*
X77883490Y62595618D01*
X77867072Y62571051D01*
X77855762Y62543750D01*
X77850000Y62514777D01*
Y62500000D01*
D01*
D02*
G37*
G36*
X81850000D02*
Y62485223D01*
X81855762Y62456244D01*
X81867072Y62428949D01*
X81883490Y62404382D01*
X81904382Y62383490D01*
X81928949Y62367072D01*
X81956250Y62355762D01*
X81985223Y62350000D01*
X82000000D01*
X82014777D01*
X82043750Y62355762D01*
X82071051Y62367072D01*
X82095618Y62383490D01*
X82116510Y62404382D01*
X82132928Y62428949D01*
X82144238Y62456244D01*
X82150000Y62485223D01*
Y62500000D01*
Y62514777D01*
X82144238Y62543750D01*
X82132928Y62571051D01*
X82116510Y62595618D01*
X82095618Y62616510D01*
X82071051Y62632928D01*
X82043750Y62644232D01*
X82014777Y62650000D01*
X82000000D01*
X81985223D01*
X81956250Y62644232D01*
X81928949Y62632928D01*
X81904382Y62616510D01*
X81883490Y62595618D01*
X81867072Y62571051D01*
X81855762Y62543750D01*
X81850000Y62514777D01*
Y62500000D01*
D01*
D02*
G37*
G36*
X75900000Y58050000D02*
Y58035223D01*
X75905762Y58006244D01*
X75917072Y57978949D01*
X75933490Y57954382D01*
X75954382Y57933490D01*
X75978949Y57917072D01*
X76006250Y57905762D01*
X76035223Y57900000D01*
X76050000D01*
X76064777D01*
X76093750Y57905762D01*
X76121051Y57917072D01*
X76145618Y57933490D01*
X76166510Y57954382D01*
X76182928Y57978949D01*
X76194232Y58006244D01*
X76200000Y58035223D01*
Y58050000D01*
Y58064777D01*
X76194232Y58093750D01*
X76182928Y58121051D01*
X76166510Y58145618D01*
X76145618Y58166510D01*
X76121051Y58182928D01*
X76093750Y58194232D01*
X76064777Y58200000D01*
X76050000D01*
X76035223D01*
X76006250Y58194232D01*
X75978949Y58182928D01*
X75954382Y58166510D01*
X75933490Y58145618D01*
X75917072Y58121051D01*
X75905762Y58093750D01*
X75900000Y58064777D01*
Y58050000D01*
D01*
D02*
G37*
G36*
X82350000Y58500000D02*
Y58485223D01*
X82355762Y58456244D01*
X82367072Y58428949D01*
X82383490Y58404382D01*
X82404382Y58383490D01*
X82428949Y58367072D01*
X82456250Y58355762D01*
X82485223Y58350000D01*
X82500000D01*
X82514777D01*
X82543750Y58355762D01*
X82571051Y58367072D01*
X82595618Y58383490D01*
X82616510Y58404382D01*
X82632928Y58428949D01*
X82644238Y58456244D01*
X82650000Y58485223D01*
Y58500000D01*
Y58514771D01*
X82644238Y58543750D01*
X82632928Y58571051D01*
X82616510Y58595618D01*
X82595618Y58616510D01*
X82571051Y58632928D01*
X82543750Y58644232D01*
X82514777Y58650000D01*
X82500000D01*
X82485223D01*
X82456250Y58644232D01*
X82428949Y58632928D01*
X82404382Y58616510D01*
X82383490Y58595618D01*
X82367072Y58571051D01*
X82355762Y58543750D01*
X82350000Y58514771D01*
Y58500000D01*
D01*
D02*
G37*
G36*
Y54500000D02*
Y54485223D01*
X82355762Y54456244D01*
X82367072Y54428949D01*
X82383490Y54404382D01*
X82404382Y54383490D01*
X82428949Y54367072D01*
X82456250Y54355762D01*
X82485223Y54350000D01*
X82500000D01*
X82514777D01*
X82543750Y54355762D01*
X82571051Y54367072D01*
X82595618Y54383490D01*
X82616510Y54404382D01*
X82632928Y54428949D01*
X82644238Y54456244D01*
X82650000Y54485223D01*
Y54500000D01*
Y54514777D01*
X82644238Y54543750D01*
X82632928Y54571051D01*
X82616510Y54595618D01*
X82595618Y54616510D01*
X82571051Y54632928D01*
X82543750Y54644232D01*
X82514777Y54650000D01*
X82500000D01*
X82485223D01*
X82456250Y54644232D01*
X82428949Y54632928D01*
X82404382Y54616510D01*
X82383490Y54595618D01*
X82367072Y54571051D01*
X82355762Y54543750D01*
X82350000Y54514777D01*
Y54500000D01*
D01*
D02*
G37*
G36*
X75900000Y51600000D02*
Y51585223D01*
X75905762Y51556244D01*
X75917072Y51528949D01*
X75933490Y51504382D01*
X75954382Y51483490D01*
X75978949Y51467072D01*
X76006250Y51455762D01*
X76035223Y51450000D01*
X76050000D01*
X76064777D01*
X76093750Y51455762D01*
X76121051Y51467072D01*
X76145618Y51483490D01*
X76166510Y51504382D01*
X76182928Y51528949D01*
X76194232Y51556244D01*
X76200000Y51585223D01*
Y51600000D01*
Y51614777D01*
X76194232Y51643750D01*
X76182928Y51671051D01*
X76166510Y51695618D01*
X76145618Y51716510D01*
X76121051Y51732928D01*
X76093750Y51744232D01*
X76064777Y51750000D01*
X76050000D01*
X76035223D01*
X76006250Y51744232D01*
X75978949Y51732928D01*
X75954382Y51716510D01*
X75933490Y51695618D01*
X75917072Y51671051D01*
X75905762Y51643750D01*
X75900000Y51614777D01*
Y51600000D01*
D01*
D02*
G37*
G36*
X82350000Y50500000D02*
Y50485226D01*
X82355762Y50456247D01*
X82367072Y50428949D01*
X82383490Y50404379D01*
X82404382Y50383487D01*
X82428949Y50367072D01*
X82456250Y50355765D01*
X82485223Y50350000D01*
X82500000D01*
X82514777D01*
X82543750Y50355765D01*
X82571051Y50367072D01*
X82595618Y50383487D01*
X82616510Y50404379D01*
X82632928Y50428949D01*
X82644238Y50456247D01*
X82650000Y50485226D01*
Y50500000D01*
Y50514774D01*
X82644238Y50543753D01*
X82632928Y50571051D01*
X82616510Y50595618D01*
X82595618Y50616513D01*
X82571051Y50632928D01*
X82543750Y50644235D01*
X82514777Y50650000D01*
X82500000D01*
X82485223D01*
X82456250Y50644235D01*
X82428949Y50632928D01*
X82404382Y50616513D01*
X82383490Y50595618D01*
X82367072Y50571051D01*
X82355762Y50543753D01*
X82350000Y50514774D01*
Y50500000D01*
D01*
D02*
G37*
G36*
Y46500000D02*
Y46485226D01*
X82355762Y46456247D01*
X82367072Y46428949D01*
X82383490Y46404379D01*
X82404382Y46383487D01*
X82428949Y46367072D01*
X82456250Y46355765D01*
X82485223Y46350000D01*
X82500000D01*
X82514777D01*
X82543750Y46355765D01*
X82571051Y46367072D01*
X82595618Y46383487D01*
X82616510Y46404379D01*
X82632928Y46428949D01*
X82644238Y46456247D01*
X82650000Y46485226D01*
Y46500000D01*
Y46514774D01*
X82644238Y46543753D01*
X82632928Y46571051D01*
X82616510Y46595618D01*
X82595618Y46616513D01*
X82571051Y46632928D01*
X82543750Y46644235D01*
X82514777Y46650000D01*
X82500000D01*
X82485223D01*
X82456250Y46644235D01*
X82428949Y46632928D01*
X82404382Y46616513D01*
X82383490Y46595618D01*
X82367072Y46571051D01*
X82355762Y46543753D01*
X82350000Y46514774D01*
Y46500000D01*
D01*
D02*
G37*
G36*
X75900000Y45150000D02*
Y45135226D01*
X75905762Y45106247D01*
X75917072Y45078949D01*
X75933490Y45054379D01*
X75954382Y45033487D01*
X75978949Y45017072D01*
X76006250Y45005765D01*
X76035223Y45000000D01*
X76050000D01*
X76064777D01*
X76093750Y45005765D01*
X76121051Y45017072D01*
X76145618Y45033487D01*
X76166510Y45054379D01*
X76182928Y45078949D01*
X76194232Y45106247D01*
X76200000Y45135226D01*
Y45150000D01*
Y45164774D01*
X76194232Y45193753D01*
X76182928Y45221051D01*
X76166510Y45245618D01*
X76145618Y45266513D01*
X76121051Y45282928D01*
X76093750Y45294235D01*
X76064777Y45300000D01*
X76050000D01*
X76035223D01*
X76006250Y45294235D01*
X75978949Y45282928D01*
X75954382Y45266513D01*
X75933490Y45245618D01*
X75917072Y45221051D01*
X75905762Y45193753D01*
X75900000Y45164774D01*
Y45150000D01*
D01*
D02*
G37*
G36*
X82350000Y42500000D02*
Y42485226D01*
X82355762Y42456247D01*
X82367072Y42428949D01*
X82383490Y42404379D01*
X82404382Y42383487D01*
X82428949Y42367072D01*
X82456250Y42355765D01*
X82485223Y42350000D01*
X82500000D01*
X82514777D01*
X82543750Y42355765D01*
X82571051Y42367072D01*
X82595618Y42383487D01*
X82616510Y42404379D01*
X82632928Y42428949D01*
X82644238Y42456247D01*
X82650000Y42485226D01*
Y42500000D01*
Y42514774D01*
X82644238Y42543753D01*
X82632928Y42571051D01*
X82616510Y42595618D01*
X82595618Y42616513D01*
X82571051Y42632928D01*
X82543750Y42644235D01*
X82514777Y42650000D01*
X82500000D01*
X82485223D01*
X82456250Y42644235D01*
X82428949Y42632928D01*
X82404382Y42616513D01*
X82383490Y42595618D01*
X82367072Y42571051D01*
X82355762Y42543753D01*
X82350000Y42514774D01*
Y42500000D01*
D01*
D02*
G37*
G36*
X75900000Y38700000D02*
Y38685226D01*
X75905762Y38656247D01*
X75917072Y38628949D01*
X75933490Y38604379D01*
X75954382Y38583487D01*
X75978949Y38567072D01*
X76006250Y38555765D01*
X76035223Y38550000D01*
X76050000D01*
X76064777D01*
X76093750Y38555765D01*
X76121051Y38567072D01*
X76145618Y38583487D01*
X76166510Y38604379D01*
X76182928Y38628949D01*
X76194232Y38656247D01*
X76200000Y38685226D01*
Y38700000D01*
Y38714774D01*
X76194232Y38743753D01*
X76182928Y38771051D01*
X76166510Y38795618D01*
X76145618Y38816513D01*
X76121051Y38832928D01*
X76093750Y38844235D01*
X76064777Y38850000D01*
X76050000D01*
X76035223D01*
X76006250Y38844235D01*
X75978949Y38832928D01*
X75954382Y38816513D01*
X75933490Y38795618D01*
X75917072Y38771051D01*
X75905762Y38743753D01*
X75900000Y38714774D01*
Y38700000D01*
D01*
D02*
G37*
G36*
X82350000Y38500000D02*
Y38485226D01*
X82355762Y38456247D01*
X82367072Y38428949D01*
X82383490Y38404379D01*
X82404382Y38383487D01*
X82428949Y38367072D01*
X82456250Y38355765D01*
X82485223Y38350000D01*
X82500000D01*
X82514777D01*
X82543750Y38355765D01*
X82571051Y38367072D01*
X82595618Y38383487D01*
X82616510Y38404379D01*
X82632928Y38428949D01*
X82644238Y38456247D01*
X82650000Y38485226D01*
Y38500000D01*
Y38514774D01*
X82644238Y38543753D01*
X82632928Y38571051D01*
X82616510Y38595618D01*
X82595618Y38616513D01*
X82571051Y38632928D01*
X82543750Y38644235D01*
X82514777Y38650000D01*
X82500000D01*
X82485223D01*
X82456250Y38644235D01*
X82428949Y38632928D01*
X82404382Y38616513D01*
X82383490Y38595618D01*
X82367072Y38571051D01*
X82355762Y38543753D01*
X82350000Y38514774D01*
Y38500000D01*
D01*
D02*
G37*
G36*
Y34500000D02*
Y34485226D01*
X82355762Y34456247D01*
X82367072Y34428949D01*
X82383490Y34404379D01*
X82404382Y34383487D01*
X82428949Y34367072D01*
X82456250Y34355765D01*
X82485223Y34350000D01*
X82500000D01*
X82514777D01*
X82543750Y34355765D01*
X82571051Y34367072D01*
X82595618Y34383487D01*
X82616510Y34404379D01*
X82632928Y34428949D01*
X82644238Y34456247D01*
X82650000Y34485226D01*
Y34500000D01*
Y34514774D01*
X82644238Y34543753D01*
X82632928Y34571051D01*
X82616510Y34595618D01*
X82595618Y34616513D01*
X82571051Y34632928D01*
X82543750Y34644235D01*
X82514777Y34650000D01*
X82500000D01*
X82485223D01*
X82456250Y34644235D01*
X82428949Y34632928D01*
X82404382Y34616513D01*
X82383490Y34595618D01*
X82367072Y34571051D01*
X82355762Y34543753D01*
X82350000Y34514774D01*
Y34500000D01*
D01*
D02*
G37*
G36*
X75900000Y32250000D02*
Y32235226D01*
X75905762Y32206247D01*
X75917072Y32178949D01*
X75933490Y32154379D01*
X75954382Y32133487D01*
X75978949Y32117072D01*
X76006250Y32105765D01*
X76035223Y32100000D01*
X76050000D01*
X76064777D01*
X76093750Y32105765D01*
X76121051Y32117072D01*
X76145618Y32133487D01*
X76166510Y32154379D01*
X76182928Y32178949D01*
X76194232Y32206247D01*
X76200000Y32235226D01*
Y32250000D01*
Y32264774D01*
X76194232Y32293753D01*
X76182928Y32321051D01*
X76166510Y32345618D01*
X76145618Y32366513D01*
X76121051Y32382928D01*
X76093750Y32394235D01*
X76064777Y32400000D01*
X76050000D01*
X76035223D01*
X76006250Y32394235D01*
X75978949Y32382928D01*
X75954382Y32366513D01*
X75933490Y32345618D01*
X75917072Y32321051D01*
X75905762Y32293753D01*
X75900000Y32264774D01*
Y32250000D01*
D01*
D02*
G37*
G36*
X82350000Y30500000D02*
Y30485226D01*
X82355762Y30456247D01*
X82367072Y30428949D01*
X82383490Y30404379D01*
X82404382Y30383487D01*
X82428949Y30367072D01*
X82456250Y30355765D01*
X82485223Y30350000D01*
X82500000D01*
X82514777D01*
X82543750Y30355765D01*
X82571051Y30367072D01*
X82595618Y30383487D01*
X82616510Y30404379D01*
X82632928Y30428949D01*
X82644238Y30456247D01*
X82650000Y30485226D01*
Y30500000D01*
Y30514774D01*
X82644238Y30543753D01*
X82632928Y30571051D01*
X82616510Y30595618D01*
X82595618Y30616513D01*
X82571051Y30632928D01*
X82543750Y30644235D01*
X82514777Y30650000D01*
X82500000D01*
X82485223D01*
X82456250Y30644235D01*
X82428949Y30632928D01*
X82404382Y30616513D01*
X82383490Y30595618D01*
X82367072Y30571051D01*
X82355762Y30543753D01*
X82350000Y30514774D01*
Y30500000D01*
D01*
D02*
G37*
G36*
Y26500000D02*
Y26485226D01*
X82355762Y26456247D01*
X82367072Y26428949D01*
X82383490Y26404379D01*
X82404382Y26383487D01*
X82428949Y26367072D01*
X82456250Y26355765D01*
X82485223Y26350000D01*
X82500000D01*
X82514777D01*
X82543750Y26355765D01*
X82571051Y26367072D01*
X82595618Y26383487D01*
X82616510Y26404379D01*
X82632928Y26428949D01*
X82644238Y26456247D01*
X82650000Y26485226D01*
Y26500000D01*
Y26514774D01*
X82644238Y26543753D01*
X82632928Y26571051D01*
X82616510Y26595618D01*
X82595618Y26616513D01*
X82571051Y26632928D01*
X82543750Y26644235D01*
X82514777Y26650000D01*
X82500000D01*
X82485223D01*
X82456250Y26644235D01*
X82428949Y26632928D01*
X82404382Y26616513D01*
X82383490Y26595618D01*
X82367072Y26571051D01*
X82355762Y26543753D01*
X82350000Y26514774D01*
Y26500000D01*
D01*
D02*
G37*
G36*
Y22500000D02*
Y22485226D01*
X82355762Y22456245D01*
X82367072Y22428947D01*
X82383490Y22404379D01*
X82404382Y22383487D01*
X82428949Y22367072D01*
X82456250Y22355763D01*
X82485223Y22350000D01*
X82500000D01*
X82514777D01*
X82543750Y22355763D01*
X82571051Y22367072D01*
X82595618Y22383487D01*
X82616510Y22404379D01*
X82632928Y22428947D01*
X82644238Y22456245D01*
X82650000Y22485226D01*
Y22500000D01*
Y22514774D01*
X82644238Y22543753D01*
X82632928Y22571051D01*
X82616510Y22595619D01*
X82595618Y22616512D01*
X82571051Y22632928D01*
X82543750Y22644235D01*
X82514777Y22650000D01*
X82500000D01*
X82485223D01*
X82456250Y22644235D01*
X82428949Y22632928D01*
X82404382Y22616512D01*
X82383490Y22595619D01*
X82367072Y22571051D01*
X82355762Y22543753D01*
X82350000Y22514774D01*
Y22500000D01*
D01*
D02*
G37*
G36*
Y18500000D02*
Y18485226D01*
X82355762Y18456245D01*
X82367072Y18428947D01*
X82383490Y18404379D01*
X82404382Y18383487D01*
X82428949Y18367072D01*
X82456250Y18355763D01*
X82485223Y18350000D01*
X82500000D01*
X82514777D01*
X82543750Y18355763D01*
X82571051Y18367072D01*
X82595618Y18383487D01*
X82616510Y18404379D01*
X82632928Y18428947D01*
X82644238Y18456245D01*
X82650000Y18485226D01*
Y18500000D01*
Y18514774D01*
X82644238Y18543753D01*
X82632928Y18571051D01*
X82616510Y18595619D01*
X82595618Y18616512D01*
X82571051Y18632928D01*
X82543750Y18644235D01*
X82514777Y18650000D01*
X82500000D01*
X82485223D01*
X82456250Y18644235D01*
X82428949Y18632928D01*
X82404382Y18616512D01*
X82383490Y18595619D01*
X82367072Y18571051D01*
X82355762Y18543753D01*
X82350000Y18514774D01*
Y18500000D01*
D01*
D02*
G37*
G36*
Y14500000D02*
Y14485226D01*
X82355762Y14456245D01*
X82367072Y14428947D01*
X82383490Y14404379D01*
X82404382Y14383487D01*
X82428949Y14367072D01*
X82456250Y14355763D01*
X82485223Y14350000D01*
X82500000D01*
X82514777D01*
X82543750Y14355763D01*
X82571051Y14367072D01*
X82595618Y14383487D01*
X82616510Y14404379D01*
X82632928Y14428947D01*
X82644238Y14456245D01*
X82650000Y14485226D01*
Y14500000D01*
Y14514774D01*
X82644238Y14543753D01*
X82632928Y14571051D01*
X82616510Y14595619D01*
X82595618Y14616512D01*
X82571051Y14632928D01*
X82543750Y14644235D01*
X82514777Y14650000D01*
X82500000D01*
X82485223D01*
X82456250Y14644235D01*
X82428949Y14632928D01*
X82404382Y14616512D01*
X82383490Y14595619D01*
X82367072Y14571051D01*
X82355762Y14543753D01*
X82350000Y14514774D01*
Y14500000D01*
D01*
D02*
G37*
G36*
Y10500000D02*
Y10485226D01*
X82355762Y10456246D01*
X82367072Y10428948D01*
X82383490Y10404380D01*
X82404382Y10383487D01*
X82428949Y10367071D01*
X82456250Y10355764D01*
X82485223Y10350000D01*
X82500000D01*
X82514777D01*
X82543750Y10355764D01*
X82571051Y10367071D01*
X82595618Y10383487D01*
X82616510Y10404380D01*
X82632928Y10428948D01*
X82644238Y10456246D01*
X82650000Y10485226D01*
Y10500000D01*
Y10514773D01*
X82644238Y10543753D01*
X82632928Y10571051D01*
X82616510Y10595619D01*
X82595618Y10616512D01*
X82571051Y10632928D01*
X82543750Y10644235D01*
X82514777Y10650000D01*
X82500000D01*
X82485223D01*
X82456250Y10644235D01*
X82428949Y10632928D01*
X82404382Y10616512D01*
X82383490Y10595619D01*
X82367072Y10571051D01*
X82355762Y10543753D01*
X82350000Y10514773D01*
Y10500000D01*
D01*
D02*
G37*
G36*
Y6500000D02*
Y6485226D01*
X82355762Y6456246D01*
X82367072Y6428948D01*
X82383490Y6404380D01*
X82404382Y6383487D01*
X82428949Y6367072D01*
X82456250Y6355764D01*
X82485223Y6350000D01*
X82500000D01*
X82514777D01*
X82543750Y6355764D01*
X82571051Y6367072D01*
X82595618Y6383487D01*
X82616510Y6404380D01*
X82632928Y6428948D01*
X82644238Y6456246D01*
X82650000Y6485226D01*
Y6500000D01*
Y6514774D01*
X82644238Y6543753D01*
X82632928Y6571051D01*
X82616510Y6595619D01*
X82595618Y6616512D01*
X82571051Y6632928D01*
X82543750Y6644235D01*
X82514777Y6650000D01*
X82500000D01*
X82485223D01*
X82456250Y6644235D01*
X82428949Y6632928D01*
X82404382Y6616512D01*
X82383490Y6595619D01*
X82367072Y6571051D01*
X82355762Y6543753D01*
X82350000Y6514774D01*
Y6500000D01*
D01*
D02*
G37*
G36*
Y2794999D02*
Y2780225D01*
X82355762Y2751246D01*
X82367072Y2723948D01*
X82383490Y2699380D01*
X82404382Y2678487D01*
X82428949Y2662071D01*
X82456250Y2650764D01*
X82485223Y2644999D01*
X82500000D01*
X82514777D01*
X82543750Y2650764D01*
X82571051Y2662071D01*
X82595618Y2678487D01*
X82616510Y2699380D01*
X82632928Y2723948D01*
X82644238Y2751246D01*
X82650000Y2780225D01*
Y2794999D01*
Y2809773D01*
X82644238Y2838753D01*
X82632928Y2866051D01*
X82616510Y2890619D01*
X82595618Y2911512D01*
X82571051Y2927927D01*
X82543750Y2939235D01*
X82514777Y2944999D01*
X82500000D01*
X82485223D01*
X82456250Y2939235D01*
X82428949Y2927927D01*
X82404382Y2911512D01*
X82383490Y2890619D01*
X82367072Y2866051D01*
X82355762Y2838753D01*
X82350000Y2809773D01*
Y2794999D01*
D01*
D02*
G37*
G36*
X77850000D02*
Y2780225D01*
X77855762Y2751246D01*
X77867072Y2723948D01*
X77883490Y2699380D01*
X77904382Y2678487D01*
X77928949Y2662071D01*
X77956244Y2650764D01*
X77985223Y2644999D01*
X78000000D01*
X78014777D01*
X78043750Y2650764D01*
X78071051Y2662071D01*
X78095618Y2678487D01*
X78116510Y2699380D01*
X78132928Y2723948D01*
X78144232Y2751246D01*
X78150000Y2780225D01*
Y2794999D01*
Y2809773D01*
X78144232Y2838753D01*
X78132928Y2866051D01*
X78116510Y2890619D01*
X78095618Y2911512D01*
X78071051Y2927927D01*
X78043750Y2939235D01*
X78014777Y2944999D01*
X78000000D01*
X77985223D01*
X77956244Y2939235D01*
X77928949Y2927927D01*
X77904382Y2911512D01*
X77883490Y2890619D01*
X77867072Y2866051D01*
X77855762Y2838753D01*
X77850000Y2809773D01*
Y2794999D01*
D01*
D02*
G37*
G36*
X73850000D02*
Y2780225D01*
X73855762Y2751246D01*
X73867072Y2723948D01*
X73883490Y2699380D01*
X73904382Y2678487D01*
X73928949Y2662071D01*
X73956250Y2650764D01*
X73985223Y2644999D01*
X74000000D01*
X74014777D01*
X74043750Y2650764D01*
X74071051Y2662071D01*
X74095618Y2678487D01*
X74116510Y2699380D01*
X74132928Y2723948D01*
X74144238Y2751246D01*
X74150000Y2780225D01*
Y2794999D01*
Y2809773D01*
X74144238Y2838753D01*
X74132928Y2866051D01*
X74116510Y2890619D01*
X74095618Y2911512D01*
X74071051Y2927927D01*
X74043750Y2939235D01*
X74014777Y2944999D01*
X74000000D01*
X73985223D01*
X73956250Y2939235D01*
X73928949Y2927927D01*
X73904382Y2911512D01*
X73883490Y2890619D01*
X73867072Y2866051D01*
X73855762Y2838753D01*
X73850000Y2809773D01*
Y2794999D01*
D01*
D02*
G37*
G36*
X67450000Y6450000D02*
Y6435226D01*
X67455762Y6406247D01*
X67467072Y6378948D01*
X67483490Y6354380D01*
X67504382Y6333487D01*
X67528949Y6317072D01*
X67556244Y6305764D01*
X67585223Y6300000D01*
X67600000D01*
X67614777D01*
X67643750Y6305764D01*
X67671051Y6317072D01*
X67695618Y6333487D01*
X67716510Y6354380D01*
X67732928Y6378948D01*
X67744232Y6406247D01*
X67750000Y6435226D01*
Y6450000D01*
Y6464774D01*
X67744232Y6493753D01*
X67732928Y6521051D01*
X67716510Y6545619D01*
X67695618Y6566512D01*
X67671051Y6582928D01*
X67643750Y6594235D01*
X67614777Y6600000D01*
X67600000D01*
X67585223D01*
X67556244Y6594235D01*
X67528949Y6582928D01*
X67504382Y6566512D01*
X67483490Y6545619D01*
X67467072Y6521051D01*
X67455762Y6493753D01*
X67450000Y6464774D01*
Y6450000D01*
D01*
D02*
G37*
G36*
X69850000Y2794999D02*
Y2780225D01*
X69855762Y2751246D01*
X69867072Y2723948D01*
X69883490Y2699380D01*
X69904382Y2678487D01*
X69928949Y2662071D01*
X69956244Y2650764D01*
X69985223Y2644999D01*
X70000000D01*
X70014777D01*
X70043750Y2650764D01*
X70071051Y2662071D01*
X70095618Y2678487D01*
X70116510Y2699380D01*
X70132928Y2723948D01*
X70144232Y2751246D01*
X70150000Y2780225D01*
Y2794999D01*
Y2809773D01*
X70144232Y2838753D01*
X70132928Y2866051D01*
X70116510Y2890619D01*
X70095618Y2911512D01*
X70071051Y2927927D01*
X70043750Y2939235D01*
X70014777Y2944999D01*
X70000000D01*
X69985223D01*
X69956244Y2939235D01*
X69928949Y2927927D01*
X69904382Y2911512D01*
X69883490Y2890619D01*
X69867072Y2866051D01*
X69855762Y2838753D01*
X69850000Y2809773D01*
Y2794999D01*
D01*
D02*
G37*
G36*
X65850000D02*
Y2780225D01*
X65855762Y2751246D01*
X65867072Y2723948D01*
X65883490Y2699380D01*
X65904382Y2678487D01*
X65928949Y2662071D01*
X65956250Y2650764D01*
X65985223Y2644999D01*
X66000000D01*
X66014777D01*
X66043750Y2650764D01*
X66071051Y2662071D01*
X66095618Y2678487D01*
X66116510Y2699380D01*
X66132928Y2723948D01*
X66144238Y2751246D01*
X66150000Y2780225D01*
Y2794999D01*
Y2809773D01*
X66144238Y2838753D01*
X66132928Y2866051D01*
X66116510Y2890619D01*
X66095618Y2911512D01*
X66071051Y2927927D01*
X66043750Y2939235D01*
X66014777Y2944999D01*
X66000000D01*
X65985223D01*
X65956250Y2939235D01*
X65928949Y2927927D01*
X65904382Y2911512D01*
X65883490Y2890619D01*
X65867072Y2866051D01*
X65855762Y2838753D01*
X65850000Y2809773D01*
Y2794999D01*
D01*
D02*
G37*
G36*
X61850000D02*
Y2780225D01*
X61855762Y2751246D01*
X61867072Y2723948D01*
X61883490Y2699380D01*
X61904382Y2678487D01*
X61928949Y2662071D01*
X61956244Y2650764D01*
X61985223Y2644999D01*
X62000000D01*
X62014777D01*
X62043750Y2650764D01*
X62071051Y2662071D01*
X62095618Y2678487D01*
X62116510Y2699380D01*
X62132928Y2723948D01*
X62144232Y2751246D01*
X62150000Y2780225D01*
Y2794999D01*
Y2809773D01*
X62144232Y2838753D01*
X62132928Y2866051D01*
X62116510Y2890619D01*
X62095618Y2911512D01*
X62071051Y2927927D01*
X62043750Y2939235D01*
X62014777Y2944999D01*
X62000000D01*
X61985223D01*
X61956244Y2939235D01*
X61928949Y2927927D01*
X61904382Y2911512D01*
X61883490Y2890619D01*
X61867072Y2866051D01*
X61855762Y2838753D01*
X61850000Y2809773D01*
Y2794999D01*
D01*
D02*
G37*
G36*
X57850000D02*
Y2780225D01*
X57855762Y2751246D01*
X57867072Y2723948D01*
X57883490Y2699380D01*
X57904382Y2678487D01*
X57928949Y2662071D01*
X57956250Y2650764D01*
X57985223Y2644999D01*
X58000000D01*
X58014777D01*
X58043750Y2650764D01*
X58071051Y2662071D01*
X58095618Y2678487D01*
X58116510Y2699380D01*
X58132928Y2723948D01*
X58144238Y2751246D01*
X58150000Y2780225D01*
Y2794999D01*
Y2809773D01*
X58144238Y2838753D01*
X58132928Y2866051D01*
X58116510Y2890619D01*
X58095618Y2911512D01*
X58071051Y2927927D01*
X58043750Y2939235D01*
X58014777Y2944999D01*
X58000000D01*
X57985223D01*
X57956250Y2939235D01*
X57928949Y2927927D01*
X57904382Y2911512D01*
X57883490Y2890619D01*
X57867072Y2866051D01*
X57855762Y2838753D01*
X57850000Y2809773D01*
Y2794999D01*
D01*
D02*
G37*
G36*
X59000000Y6450000D02*
Y6435226D01*
X59005762Y6406247D01*
X59017072Y6378948D01*
X59033490Y6354380D01*
X59054382Y6333487D01*
X59078949Y6317072D01*
X59106250Y6305764D01*
X59135223Y6300000D01*
X59150000D01*
X59164777D01*
X59193750Y6305764D01*
X59221051Y6317072D01*
X59245618Y6333487D01*
X59266510Y6354380D01*
X59282928Y6378948D01*
X59294232Y6406247D01*
X59300000Y6435226D01*
Y6450000D01*
Y6464774D01*
X59294232Y6493753D01*
X59282928Y6521051D01*
X59266510Y6545619D01*
X59245618Y6566512D01*
X59221051Y6582928D01*
X59193750Y6594235D01*
X59164777Y6600000D01*
X59150000D01*
X59135223D01*
X59106250Y6594235D01*
X59078949Y6582928D01*
X59054382Y6566512D01*
X59033490Y6545619D01*
X59017072Y6521051D01*
X59005762Y6493753D01*
X59000000Y6464774D01*
Y6450000D01*
D01*
D02*
G37*
G36*
X60645905Y6483029D02*
Y6463366D01*
X60651038Y6424376D01*
X60661212Y6386390D01*
X60676263Y6350058D01*
X60695929Y6316000D01*
X60719867Y6284801D01*
X60747675Y6256993D01*
X60778876Y6233053D01*
X60812933Y6213390D01*
X60849261Y6198340D01*
X60887250Y6188162D01*
X60926239Y6183029D01*
X60945905D01*
X60965564D01*
X61004553Y6188162D01*
X61042542Y6198340D01*
X61078876Y6213390D01*
X61112933Y6233053D01*
X61144128Y6256993D01*
X61171936Y6284801D01*
X61195880Y6316000D01*
X61215540Y6350058D01*
X61230591Y6386390D01*
X61240771Y6424376D01*
X61245905Y6463366D01*
Y6483029D01*
Y6502692D01*
X61240771Y6541681D01*
X61230591Y6579668D01*
X61215540Y6616000D01*
X61195880Y6650058D01*
X61171936Y6681257D01*
X61144128Y6709065D01*
X61112933Y6733005D01*
X61078876Y6752668D01*
X61042542Y6767717D01*
X61004553Y6777896D01*
X60965564Y6783029D01*
X60945905D01*
X60926239D01*
X60887250Y6777896D01*
X60849261Y6767717D01*
X60812933Y6752668D01*
X60778876Y6733005D01*
X60747675Y6709065D01*
X60719867Y6681257D01*
X60695929Y6650058D01*
X60676263Y6616000D01*
X60661212Y6579668D01*
X60651038Y6541681D01*
X60645905Y6502692D01*
Y6483029D01*
D01*
D02*
G37*
G36*
X57463922Y9665009D02*
Y9645346D01*
X57469055Y9606357D01*
X57479236Y9568370D01*
X57494281Y9532038D01*
X57513947Y9497980D01*
X57537885Y9466781D01*
X57565692Y9438974D01*
X57596893Y9415033D01*
X57630951Y9395370D01*
X57667285Y9380321D01*
X57705267Y9370142D01*
X57744263Y9365009D01*
X57763922D01*
X57783588D01*
X57822577Y9370142D01*
X57860559Y9380321D01*
X57896893Y9395370D01*
X57930951Y9415033D01*
X57962152Y9438974D01*
X57989960Y9466781D01*
X58013898Y9497980D01*
X58033563Y9532038D01*
X58048608Y9568370D01*
X58058789Y9606357D01*
X58063922Y9645346D01*
Y9665009D01*
Y9684672D01*
X58058789Y9723662D01*
X58048608Y9761648D01*
X58033563Y9797980D01*
X58013898Y9832038D01*
X57989960Y9863237D01*
X57962152Y9891045D01*
X57930951Y9914985D01*
X57896893Y9934648D01*
X57860559Y9949698D01*
X57822577Y9959876D01*
X57783588Y9965009D01*
X57763922D01*
X57744263D01*
X57705267Y9959876D01*
X57667285Y9949698D01*
X57630951Y9934648D01*
X57596893Y9914985D01*
X57565692Y9891045D01*
X57537885Y9863237D01*
X57513947Y9832038D01*
X57494281Y9797980D01*
X57479236Y9761648D01*
X57469055Y9723662D01*
X57463922Y9684672D01*
Y9665009D01*
D01*
D02*
G37*
G36*
X50700000Y57900000D02*
X50685226D01*
X50656247Y57905762D01*
X50628949Y57917072D01*
X50604379Y57933490D01*
X50583487Y57954382D01*
X50567072Y57978949D01*
X50555765Y58006244D01*
X50550000Y58035223D01*
Y58050000D01*
Y58064777D01*
X50555765Y58093750D01*
X50567072Y58121051D01*
X50583487Y58145618D01*
X50604379Y58166510D01*
X50628949Y58182928D01*
X50656247Y58194232D01*
X50685226Y58200000D01*
X50700000D01*
X50714774D01*
X50743753Y58194232D01*
X50771051Y58182928D01*
X50795618Y58166510D01*
X50816513Y58145618D01*
X50832928Y58121051D01*
X50844235Y58093750D01*
X50850000Y58064777D01*
Y58050000D01*
Y58035223D01*
X50844235Y58006244D01*
X50832928Y57978949D01*
X50816513Y57954382D01*
X50795618Y57933490D01*
X50771051Y57917072D01*
X50743753Y57905762D01*
X50714774Y57900000D01*
X50700000D01*
D01*
D02*
G37*
G36*
X46000000Y62350000D02*
X45985226D01*
X45956247Y62355762D01*
X45928949Y62367072D01*
X45904379Y62383490D01*
X45883487Y62404382D01*
X45867072Y62428949D01*
X45855765Y62456244D01*
X45850000Y62485223D01*
Y62500000D01*
Y62514777D01*
X45855765Y62543750D01*
X45867072Y62571051D01*
X45883487Y62595618D01*
X45904379Y62616510D01*
X45928949Y62632928D01*
X45956247Y62644232D01*
X45985226Y62650000D01*
X46000000D01*
X46014774D01*
X46043753Y62644232D01*
X46071051Y62632928D01*
X46095618Y62616510D01*
X46116513Y62595618D01*
X46132928Y62571051D01*
X46144235Y62543750D01*
X46150000Y62514777D01*
Y62500000D01*
Y62485223D01*
X46144235Y62456244D01*
X46132928Y62428949D01*
X46116513Y62404382D01*
X46095618Y62383490D01*
X46071051Y62367072D01*
X46043753Y62355762D01*
X46014774Y62350000D01*
X46000000D01*
D01*
D02*
G37*
G36*
X38000000D02*
X37985226D01*
X37956247Y62355762D01*
X37928949Y62367072D01*
X37904379Y62383490D01*
X37883487Y62404382D01*
X37867072Y62428949D01*
X37855765Y62456244D01*
X37850000Y62485223D01*
Y62500000D01*
Y62514777D01*
X37855765Y62543750D01*
X37867072Y62571051D01*
X37883487Y62595618D01*
X37904379Y62616510D01*
X37928949Y62632928D01*
X37956247Y62644232D01*
X37985226Y62650000D01*
X38000000D01*
X38014774D01*
X38043753Y62644232D01*
X38071051Y62632928D01*
X38095618Y62616510D01*
X38116513Y62595618D01*
X38132928Y62571051D01*
X38144235Y62543750D01*
X38150000Y62514777D01*
Y62500000D01*
Y62485223D01*
X38144235Y62456244D01*
X38132928Y62428949D01*
X38116513Y62404382D01*
X38095618Y62383490D01*
X38071051Y62367072D01*
X38043753Y62355762D01*
X38014774Y62350000D01*
X38000000D01*
D01*
D02*
G37*
G36*
X42000000D02*
X41985226D01*
X41956247Y62355762D01*
X41928949Y62367072D01*
X41904382Y62383490D01*
X41883487Y62404382D01*
X41867072Y62428949D01*
X41855765Y62456244D01*
X41850000Y62485223D01*
Y62500000D01*
Y62514777D01*
X41855765Y62543750D01*
X41867072Y62571051D01*
X41883487Y62595618D01*
X41904382Y62616510D01*
X41928949Y62632928D01*
X41956247Y62644232D01*
X41985226Y62650000D01*
X42000000D01*
X42014774D01*
X42043753Y62644232D01*
X42071051Y62632928D01*
X42095618Y62616510D01*
X42116513Y62595618D01*
X42132928Y62571051D01*
X42144235Y62543750D01*
X42150000Y62514777D01*
Y62500000D01*
Y62485223D01*
X42144235Y62456244D01*
X42132928Y62428949D01*
X42116513Y62404382D01*
X42095618Y62383490D01*
X42071051Y62367072D01*
X42043753Y62355762D01*
X42014774Y62350000D01*
X42000000D01*
D01*
D02*
G37*
G36*
X42250000Y57900000D02*
X42235226D01*
X42206247Y57905762D01*
X42178949Y57917072D01*
X42154382Y57933490D01*
X42133487Y57954382D01*
X42117072Y57978949D01*
X42105765Y58006244D01*
X42100000Y58035223D01*
Y58050000D01*
Y58064777D01*
X42105765Y58093750D01*
X42117072Y58121051D01*
X42133487Y58145618D01*
X42154382Y58166510D01*
X42178949Y58182928D01*
X42206247Y58194232D01*
X42235226Y58200000D01*
X42250000D01*
X42264774D01*
X42293753Y58194232D01*
X42321051Y58182928D01*
X42345618Y58166510D01*
X42366513Y58145618D01*
X42382928Y58121051D01*
X42394235Y58093750D01*
X42400000Y58064777D01*
Y58050000D01*
Y58035223D01*
X42394235Y58006244D01*
X42382928Y57978949D01*
X42366513Y57954382D01*
X42345618Y57933490D01*
X42321051Y57917072D01*
X42293753Y57905762D01*
X42264774Y57900000D01*
X42250000D01*
D01*
D02*
G37*
G36*
Y51450000D02*
X42235226D01*
X42206247Y51455762D01*
X42178949Y51467072D01*
X42154382Y51483490D01*
X42133487Y51504382D01*
X42117072Y51528949D01*
X42105765Y51556244D01*
X42100000Y51585223D01*
Y51600000D01*
Y51614777D01*
X42105765Y51643750D01*
X42117072Y51671051D01*
X42133487Y51695618D01*
X42154382Y51716510D01*
X42178949Y51732928D01*
X42206247Y51744232D01*
X42235226Y51750000D01*
X42250000D01*
X42264774D01*
X42293753Y51744232D01*
X42321051Y51732928D01*
X42345618Y51716510D01*
X42366513Y51695618D01*
X42382928Y51671051D01*
X42394235Y51643750D01*
X42400000Y51614777D01*
Y51600000D01*
Y51585223D01*
X42394235Y51556244D01*
X42382928Y51528949D01*
X42366513Y51504382D01*
X42345618Y51483490D01*
X42321051Y51467072D01*
X42293753Y51455762D01*
X42264774Y51450000D01*
X42250000D01*
D01*
D02*
G37*
G36*
Y45000000D02*
X42235226D01*
X42206247Y45005765D01*
X42178949Y45017072D01*
X42154382Y45033487D01*
X42133487Y45054379D01*
X42117072Y45078949D01*
X42105765Y45106247D01*
X42100000Y45135226D01*
Y45150000D01*
Y45164774D01*
X42105765Y45193753D01*
X42117072Y45221051D01*
X42133487Y45245618D01*
X42154382Y45266513D01*
X42178949Y45282928D01*
X42206247Y45294235D01*
X42235226Y45300000D01*
X42250000D01*
X42264774D01*
X42293753Y45294235D01*
X42321051Y45282928D01*
X42345618Y45266513D01*
X42366513Y45245618D01*
X42382928Y45221051D01*
X42394235Y45193753D01*
X42400000Y45164774D01*
Y45150000D01*
Y45135226D01*
X42394235Y45106247D01*
X42382928Y45078949D01*
X42366513Y45054379D01*
X42345618Y45033487D01*
X42321051Y45017072D01*
X42293753Y45005765D01*
X42264774Y45000000D01*
X42250000D01*
D01*
D02*
G37*
G36*
X42100000Y38700000D02*
Y38685226D01*
X42105765Y38656247D01*
X42117072Y38628949D01*
X42133487Y38604379D01*
X42154382Y38583487D01*
X42178949Y38567072D01*
X42206247Y38555765D01*
X42235226Y38550000D01*
X42250000D01*
X42264774D01*
X42293753Y38555765D01*
X42321051Y38567072D01*
X42345618Y38583487D01*
X42366513Y38604379D01*
X42382928Y38628949D01*
X42394235Y38656247D01*
X42400000Y38685226D01*
Y38700000D01*
Y38714774D01*
X42394235Y38743753D01*
X42382928Y38771051D01*
X42366513Y38795618D01*
X42345618Y38816513D01*
X42321051Y38832928D01*
X42293753Y38844235D01*
X42264774Y38850000D01*
X42250000D01*
X42235226D01*
X42206247Y38844235D01*
X42178949Y38832928D01*
X42154382Y38816513D01*
X42133487Y38795618D01*
X42117072Y38771051D01*
X42105765Y38743753D01*
X42100000Y38714774D01*
Y38700000D01*
D01*
D02*
G37*
G36*
Y19350000D02*
Y19335226D01*
X42105765Y19306245D01*
X42117072Y19278947D01*
X42133487Y19254379D01*
X42154382Y19233487D01*
X42178949Y19217072D01*
X42206247Y19205763D01*
X42235226Y19200000D01*
X42250000D01*
X42264774D01*
X42293753Y19205763D01*
X42321051Y19217072D01*
X42345618Y19233487D01*
X42366513Y19254379D01*
X42382928Y19278947D01*
X42394235Y19306245D01*
X42400000Y19335226D01*
Y19350000D01*
Y19364774D01*
X42394235Y19393753D01*
X42382928Y19421051D01*
X42366513Y19445619D01*
X42345618Y19466512D01*
X42321051Y19482928D01*
X42293753Y19494235D01*
X42264774Y19500000D01*
X42250000D01*
X42235226D01*
X42206247Y19494235D01*
X42178949Y19482928D01*
X42154382Y19466512D01*
X42133487Y19445619D01*
X42117072Y19421051D01*
X42105765Y19393753D01*
X42100000Y19364774D01*
Y19350000D01*
D01*
D02*
G37*
G36*
Y12900000D02*
Y12885226D01*
X42105765Y12856245D01*
X42117072Y12828947D01*
X42133487Y12804379D01*
X42154382Y12783487D01*
X42178949Y12767071D01*
X42206247Y12755764D01*
X42235226Y12750000D01*
X42250000D01*
X42264774D01*
X42293753Y12755764D01*
X42321051Y12767071D01*
X42345618Y12783487D01*
X42366513Y12804379D01*
X42382928Y12828947D01*
X42394235Y12856245D01*
X42400000Y12885226D01*
Y12900000D01*
Y12914774D01*
X42394235Y12943753D01*
X42382928Y12971051D01*
X42366513Y12995619D01*
X42345618Y13016512D01*
X42321051Y13032928D01*
X42293753Y13044235D01*
X42264774Y13050000D01*
X42250000D01*
X42235226D01*
X42206247Y13044235D01*
X42178949Y13032928D01*
X42154382Y13016512D01*
X42133487Y12995619D01*
X42117072Y12971051D01*
X42105765Y12943753D01*
X42100000Y12914774D01*
Y12900000D01*
D01*
D02*
G37*
G36*
X53850000Y2794999D02*
Y2780225D01*
X53855762Y2751246D01*
X53867072Y2723948D01*
X53883490Y2699380D01*
X53904382Y2678487D01*
X53928949Y2662071D01*
X53956244Y2650764D01*
X53985223Y2644999D01*
X54000000D01*
X54014777D01*
X54043750Y2650764D01*
X54071051Y2662071D01*
X54095618Y2678487D01*
X54116510Y2699380D01*
X54132928Y2723948D01*
X54144232Y2751246D01*
X54150000Y2780225D01*
Y2794999D01*
Y2809773D01*
X54144232Y2838753D01*
X54132928Y2866051D01*
X54116510Y2890619D01*
X54095618Y2911512D01*
X54071051Y2927927D01*
X54043750Y2939235D01*
X54014777Y2944999D01*
X54000000D01*
X53985223D01*
X53956244Y2939235D01*
X53928949Y2927927D01*
X53904382Y2911512D01*
X53883490Y2890619D01*
X53867072Y2866051D01*
X53855762Y2838753D01*
X53850000Y2809773D01*
Y2794999D01*
D01*
D02*
G37*
G36*
X50550000Y6450000D02*
Y6435226D01*
X50555765Y6406247D01*
X50567072Y6378948D01*
X50583487Y6354380D01*
X50604379Y6333487D01*
X50628949Y6317072D01*
X50656247Y6305764D01*
X50685226Y6300000D01*
X50700000D01*
X50714774D01*
X50743753Y6305764D01*
X50771051Y6317072D01*
X50795618Y6333487D01*
X50816513Y6354380D01*
X50832928Y6378948D01*
X50844235Y6406247D01*
X50850000Y6435226D01*
Y6450000D01*
Y6464774D01*
X50844235Y6493753D01*
X50832928Y6521051D01*
X50816513Y6545619D01*
X50795618Y6566512D01*
X50771051Y6582928D01*
X50743753Y6594235D01*
X50714774Y6600000D01*
X50700000D01*
X50685226D01*
X50656247Y6594235D01*
X50628949Y6582928D01*
X50604379Y6566512D01*
X50583487Y6545619D01*
X50567072Y6521051D01*
X50555765Y6493753D01*
X50550000Y6464774D01*
Y6450000D01*
D01*
D02*
G37*
G36*
X49850000Y2794999D02*
Y2780225D01*
X49855765Y2751246D01*
X49867072Y2723948D01*
X49883487Y2699380D01*
X49904382Y2678487D01*
X49928949Y2662071D01*
X49956247Y2650764D01*
X49985226Y2644999D01*
X50000000D01*
X50014774D01*
X50043753Y2650764D01*
X50071051Y2662071D01*
X50095618Y2678487D01*
X50116513Y2699380D01*
X50132928Y2723948D01*
X50144235Y2751246D01*
X50150000Y2780225D01*
Y2794999D01*
Y2809773D01*
X50144235Y2838753D01*
X50132928Y2866051D01*
X50116513Y2890619D01*
X50095618Y2911512D01*
X50071051Y2927927D01*
X50043753Y2939235D01*
X50014774Y2944999D01*
X50000000D01*
X49985226D01*
X49956247Y2939235D01*
X49928949Y2927927D01*
X49904382Y2911512D01*
X49883487Y2890619D01*
X49867072Y2866051D01*
X49855765Y2838753D01*
X49850000Y2809773D01*
Y2794999D01*
D01*
D02*
G37*
G36*
X45850000D02*
Y2780225D01*
X45855765Y2751246D01*
X45867072Y2723948D01*
X45883487Y2699380D01*
X45904379Y2678487D01*
X45928949Y2662071D01*
X45956247Y2650764D01*
X45985226Y2644999D01*
X46000000D01*
X46014774D01*
X46043753Y2650764D01*
X46071051Y2662071D01*
X46095618Y2678487D01*
X46116513Y2699380D01*
X46132928Y2723948D01*
X46144235Y2751246D01*
X46150000Y2780225D01*
Y2794999D01*
Y2809773D01*
X46144235Y2838753D01*
X46132928Y2866051D01*
X46116513Y2890619D01*
X46095618Y2911512D01*
X46071051Y2927927D01*
X46043753Y2939235D01*
X46014774Y2944999D01*
X46000000D01*
X45985226D01*
X45956247Y2939235D01*
X45928949Y2927927D01*
X45904379Y2911512D01*
X45883487Y2890619D01*
X45867072Y2866051D01*
X45855765Y2838753D01*
X45850000Y2809773D01*
Y2794999D01*
D01*
D02*
G37*
G36*
X42100000Y6450000D02*
Y6435226D01*
X42105765Y6406247D01*
X42117072Y6378948D01*
X42133487Y6354380D01*
X42154382Y6333487D01*
X42178949Y6317072D01*
X42206247Y6305764D01*
X42235226Y6300000D01*
X42250000D01*
X42264774D01*
X42293753Y6305764D01*
X42321051Y6317072D01*
X42345618Y6333487D01*
X42366513Y6354380D01*
X42382928Y6378948D01*
X42394235Y6406247D01*
X42400000Y6435226D01*
Y6450000D01*
Y6464774D01*
X42394235Y6493753D01*
X42382928Y6521051D01*
X42366513Y6545619D01*
X42345618Y6566512D01*
X42321051Y6582928D01*
X42293753Y6594235D01*
X42264774Y6600000D01*
X42250000D01*
X42235226D01*
X42206247Y6594235D01*
X42178949Y6582928D01*
X42154382Y6566512D01*
X42133487Y6545619D01*
X42117072Y6521051D01*
X42105765Y6493753D01*
X42100000Y6464774D01*
Y6450000D01*
D01*
D02*
G37*
G36*
X41850000Y2794999D02*
Y2780225D01*
X41855765Y2751246D01*
X41867072Y2723948D01*
X41883487Y2699380D01*
X41904382Y2678487D01*
X41928949Y2662071D01*
X41956247Y2650764D01*
X41985226Y2644999D01*
X42000000D01*
X42014774D01*
X42043753Y2650764D01*
X42071051Y2662071D01*
X42095618Y2678487D01*
X42116513Y2699380D01*
X42132928Y2723948D01*
X42144235Y2751246D01*
X42150000Y2780225D01*
Y2794999D01*
Y2809773D01*
X42144235Y2838753D01*
X42132928Y2866051D01*
X42116513Y2890619D01*
X42095618Y2911512D01*
X42071051Y2927927D01*
X42043753Y2939235D01*
X42014774Y2944999D01*
X42000000D01*
X41985226D01*
X41956247Y2939235D01*
X41928949Y2927927D01*
X41904382Y2911512D01*
X41883487Y2890619D01*
X41867072Y2866051D01*
X41855765Y2838753D01*
X41850000Y2809773D01*
Y2794999D01*
D01*
D02*
G37*
G36*
X25350000Y32100000D02*
X25335226D01*
X25306247Y32105765D01*
X25278947Y32117072D01*
X25254381Y32133487D01*
X25233488Y32154379D01*
X25217072Y32178949D01*
X25205763Y32206247D01*
X25200000Y32235226D01*
Y32250000D01*
Y32264774D01*
X25205763Y32293753D01*
X25217072Y32321051D01*
X25233488Y32345618D01*
X25254381Y32366513D01*
X25278947Y32382928D01*
X25306247Y32394235D01*
X25335226Y32400000D01*
X25350000D01*
X25364774D01*
X25393753Y32394235D01*
X25421053Y32382928D01*
X25445619Y32366513D01*
X25466512Y32345618D01*
X25482928Y32321051D01*
X25494237Y32293753D01*
X25500000Y32264774D01*
Y32250000D01*
Y32235226D01*
X25494237Y32206247D01*
X25482928Y32178949D01*
X25466512Y32154379D01*
X25445619Y32133487D01*
X25421053Y32117072D01*
X25393753Y32105765D01*
X25364774Y32100000D01*
X25350000D01*
D01*
D02*
G37*
G36*
Y25650000D02*
X25335226D01*
X25306247Y25655765D01*
X25278947Y25667072D01*
X25254381Y25683487D01*
X25233488Y25704379D01*
X25217072Y25728949D01*
X25205763Y25756247D01*
X25200000Y25785226D01*
Y25800000D01*
Y25814774D01*
X25205763Y25843753D01*
X25217072Y25871051D01*
X25233488Y25895618D01*
X25254381Y25916513D01*
X25278947Y25932928D01*
X25306247Y25944235D01*
X25335226Y25950000D01*
X25350000D01*
X25364774D01*
X25393753Y25944235D01*
X25421053Y25932928D01*
X25445619Y25916513D01*
X25466512Y25895618D01*
X25482928Y25871051D01*
X25494237Y25843753D01*
X25500000Y25814774D01*
Y25800000D01*
Y25785226D01*
X25494237Y25756247D01*
X25482928Y25728949D01*
X25466512Y25704379D01*
X25445619Y25683487D01*
X25421053Y25667072D01*
X25393753Y25655765D01*
X25364774Y25650000D01*
X25350000D01*
D01*
D02*
G37*
G36*
X33800000Y51450000D02*
X33785226D01*
X33756247Y51455762D01*
X33728949Y51467072D01*
X33704379Y51483490D01*
X33683487Y51504382D01*
X33667072Y51528949D01*
X33655765Y51556244D01*
X33650000Y51585223D01*
Y51600000D01*
Y51614777D01*
X33655765Y51643750D01*
X33667072Y51671051D01*
X33683487Y51695618D01*
X33704379Y51716510D01*
X33728949Y51732928D01*
X33756247Y51744232D01*
X33785226Y51750000D01*
X33800000D01*
X33814774D01*
X33843753Y51744232D01*
X33871051Y51732928D01*
X33895618Y51716510D01*
X33916513Y51695618D01*
X33932928Y51671051D01*
X33944235Y51643750D01*
X33950000Y51614777D01*
Y51600000D01*
Y51585223D01*
X33944235Y51556244D01*
X33932928Y51528949D01*
X33916513Y51504382D01*
X33895618Y51483490D01*
X33871051Y51467072D01*
X33843753Y51455762D01*
X33814774Y51450000D01*
X33800000D01*
D01*
D02*
G37*
G36*
Y57900000D02*
X33785226D01*
X33756247Y57905762D01*
X33728949Y57917072D01*
X33704379Y57933490D01*
X33683487Y57954382D01*
X33667072Y57978949D01*
X33655765Y58006244D01*
X33650000Y58035223D01*
Y58050000D01*
Y58064777D01*
X33655765Y58093750D01*
X33667072Y58121051D01*
X33683487Y58145618D01*
X33704379Y58166510D01*
X33728949Y58182928D01*
X33756247Y58194232D01*
X33785226Y58200000D01*
X33800000D01*
X33814774D01*
X33843753Y58194232D01*
X33871051Y58182928D01*
X33895618Y58166510D01*
X33916513Y58145618D01*
X33932928Y58121051D01*
X33944235Y58093750D01*
X33950000Y58064777D01*
Y58050000D01*
Y58035223D01*
X33944235Y58006244D01*
X33932928Y57978949D01*
X33916513Y57954382D01*
X33895618Y57933490D01*
X33871051Y57917072D01*
X33843753Y57905762D01*
X33814774Y57900000D01*
X33800000D01*
D01*
D02*
G37*
G36*
X34000000Y62350000D02*
X33985226D01*
X33956247Y62355762D01*
X33928949Y62367072D01*
X33904382Y62383490D01*
X33883487Y62404382D01*
X33867072Y62428949D01*
X33855765Y62456244D01*
X33850000Y62485223D01*
Y62500000D01*
Y62514777D01*
X33855765Y62543750D01*
X33867072Y62571051D01*
X33883487Y62595618D01*
X33904382Y62616510D01*
X33928949Y62632928D01*
X33956247Y62644232D01*
X33985226Y62650000D01*
X34000000D01*
X34014774D01*
X34043753Y62644232D01*
X34071051Y62632928D01*
X34095618Y62616510D01*
X34116513Y62595618D01*
X34132928Y62571051D01*
X34144235Y62543750D01*
X34150000Y62514777D01*
Y62500000D01*
Y62485223D01*
X34144235Y62456244D01*
X34132928Y62428949D01*
X34116513Y62404382D01*
X34095618Y62383490D01*
X34071051Y62367072D01*
X34043753Y62355762D01*
X34014774Y62350000D01*
X34000000D01*
D01*
D02*
G37*
G36*
X30000000D02*
X29985226D01*
X29956247Y62355762D01*
X29928949Y62367072D01*
X29904379Y62383490D01*
X29883487Y62404382D01*
X29867072Y62428949D01*
X29855765Y62456244D01*
X29850000Y62485223D01*
Y62500000D01*
Y62514777D01*
X29855765Y62543750D01*
X29867072Y62571051D01*
X29883487Y62595618D01*
X29904379Y62616510D01*
X29928949Y62632928D01*
X29956247Y62644232D01*
X29985226Y62650000D01*
X30000000D01*
X30014774D01*
X30043753Y62644232D01*
X30071051Y62632928D01*
X30095618Y62616510D01*
X30116513Y62595618D01*
X30132928Y62571051D01*
X30144235Y62543750D01*
X30150000Y62514777D01*
Y62500000D01*
Y62485223D01*
X30144235Y62456244D01*
X30132928Y62428949D01*
X30116513Y62404382D01*
X30095618Y62383490D01*
X30071051Y62367072D01*
X30043753Y62355762D01*
X30014774Y62350000D01*
X30000000D01*
D01*
D02*
G37*
G36*
X26000000D02*
X25985226D01*
X25956247Y62355762D01*
X25928949Y62367072D01*
X25904379Y62383490D01*
X25883487Y62404382D01*
X25867072Y62428949D01*
X25855765Y62456244D01*
X25850000Y62485223D01*
Y62500000D01*
Y62514777D01*
X25855765Y62543750D01*
X25867072Y62571051D01*
X25883487Y62595618D01*
X25904379Y62616510D01*
X25928949Y62632928D01*
X25956247Y62644232D01*
X25985226Y62650000D01*
X26000000D01*
X26014774D01*
X26043753Y62644232D01*
X26071051Y62632928D01*
X26095618Y62616510D01*
X26116513Y62595618D01*
X26132928Y62571051D01*
X26144235Y62543750D01*
X26150000Y62514777D01*
Y62500000D01*
Y62485223D01*
X26144235Y62456244D01*
X26132928Y62428949D01*
X26116513Y62404382D01*
X26095618Y62383490D01*
X26071051Y62367072D01*
X26043753Y62355762D01*
X26014774Y62350000D01*
X26000000D01*
D01*
D02*
G37*
G36*
X22000000D02*
X21985226D01*
X21956245Y62355762D01*
X21928947Y62367072D01*
X21904379Y62383490D01*
X21883487Y62404382D01*
X21867072Y62428949D01*
X21855763Y62456244D01*
X21850000Y62485223D01*
Y62500000D01*
Y62514777D01*
X21855763Y62543750D01*
X21867072Y62571051D01*
X21883487Y62595618D01*
X21904379Y62616510D01*
X21928947Y62632928D01*
X21956245Y62644232D01*
X21985226Y62650000D01*
X22000000D01*
X22014774D01*
X22043753Y62644232D01*
X22071051Y62632928D01*
X22095619Y62616510D01*
X22116512Y62595618D01*
X22132928Y62571051D01*
X22144235Y62543750D01*
X22150000Y62514777D01*
Y62500000D01*
Y62485223D01*
X22144235Y62456244D01*
X22132928Y62428949D01*
X22116512Y62404382D01*
X22095619Y62383490D01*
X22071051Y62367072D01*
X22043753Y62355762D01*
X22014774Y62350000D01*
X22000000D01*
D01*
D02*
G37*
G36*
X18000000D02*
X17985226D01*
X17956247Y62355762D01*
X17928947Y62367072D01*
X17904379Y62383490D01*
X17883487Y62404382D01*
X17867072Y62428949D01*
X17855763Y62456244D01*
X17850000Y62485223D01*
Y62500000D01*
Y62514777D01*
X17855763Y62543750D01*
X17867072Y62571051D01*
X17883487Y62595618D01*
X17904379Y62616510D01*
X17928947Y62632928D01*
X17956247Y62644232D01*
X17985226Y62650000D01*
X18000000D01*
X18014774D01*
X18043753Y62644232D01*
X18071051Y62632928D01*
X18095619Y62616510D01*
X18116512Y62595618D01*
X18132928Y62571051D01*
X18144235Y62543750D01*
X18150000Y62514777D01*
Y62500000D01*
Y62485223D01*
X18144235Y62456244D01*
X18132928Y62428949D01*
X18116512Y62404382D01*
X18095619Y62383490D01*
X18071051Y62367072D01*
X18043753Y62355762D01*
X18014774Y62350000D01*
X18000000D01*
D01*
D02*
G37*
G36*
X14000000D02*
X13985226D01*
X13956245Y62355762D01*
X13928947Y62367072D01*
X13904379Y62383490D01*
X13883487Y62404382D01*
X13867072Y62428949D01*
X13855763Y62456244D01*
X13850000Y62485223D01*
Y62500000D01*
Y62514777D01*
X13855763Y62543750D01*
X13867072Y62571051D01*
X13883487Y62595618D01*
X13904379Y62616510D01*
X13928947Y62632928D01*
X13956245Y62644232D01*
X13985226Y62650000D01*
X14000000D01*
X14014774D01*
X14043753Y62644232D01*
X14071051Y62632928D01*
X14095619Y62616510D01*
X14116512Y62595618D01*
X14132928Y62571051D01*
X14144235Y62543750D01*
X14150000Y62514777D01*
Y62500000D01*
Y62485223D01*
X14144235Y62456244D01*
X14132928Y62428949D01*
X14116512Y62404382D01*
X14095619Y62383490D01*
X14071051Y62367072D01*
X14043753Y62355762D01*
X14014774Y62350000D01*
X14000000D01*
D01*
D02*
G37*
G36*
X10000000D02*
X9985226D01*
X9956247Y62355762D01*
X9928948Y62367072D01*
X9904380Y62383490D01*
X9883487Y62404382D01*
X9867072Y62428949D01*
X9855764Y62456244D01*
X9850000Y62485223D01*
Y62500000D01*
Y62514777D01*
X9855764Y62543750D01*
X9867072Y62571051D01*
X9883487Y62595618D01*
X9904380Y62616510D01*
X9928948Y62632928D01*
X9956247Y62644232D01*
X9985226Y62650000D01*
X10000000D01*
X10014774D01*
X10043753Y62644232D01*
X10071051Y62632928D01*
X10095619Y62616510D01*
X10116512Y62595618D01*
X10132928Y62571051D01*
X10144235Y62543750D01*
X10150000Y62514777D01*
Y62500000D01*
Y62485223D01*
X10144235Y62456244D01*
X10132928Y62428949D01*
X10116512Y62404382D01*
X10095619Y62383490D01*
X10071051Y62367072D01*
X10043753Y62355762D01*
X10014774Y62350000D01*
X10000000D01*
D01*
D02*
G37*
G36*
X2000000D02*
X1985226D01*
X1956247Y62355762D01*
X1928948Y62367072D01*
X1904380Y62383490D01*
X1883487Y62404382D01*
X1867072Y62428949D01*
X1855764Y62456244D01*
X1850000Y62485223D01*
Y62500000D01*
Y62514777D01*
X1855764Y62543750D01*
X1867072Y62571051D01*
X1883487Y62595618D01*
X1904380Y62616510D01*
X1928948Y62632928D01*
X1956247Y62644232D01*
X1985226Y62650000D01*
X2000000D01*
X2014774D01*
X2043753Y62644232D01*
X2071051Y62632928D01*
X2095619Y62616510D01*
X2116512Y62595618D01*
X2132928Y62571051D01*
X2144235Y62543750D01*
X2150000Y62514777D01*
Y62500000D01*
Y62485223D01*
X2144235Y62456244D01*
X2132928Y62428949D01*
X2116512Y62404382D01*
X2095619Y62383490D01*
X2071051Y62367072D01*
X2043753Y62355762D01*
X2014774Y62350000D01*
X2000000D01*
D01*
D02*
G37*
G36*
X6000000D02*
X5985226D01*
X5956246Y62355762D01*
X5928948Y62367072D01*
X5904380Y62383490D01*
X5883487Y62404382D01*
X5867072Y62428949D01*
X5855764Y62456244D01*
X5850000Y62485223D01*
Y62500000D01*
Y62514777D01*
X5855764Y62543750D01*
X5867072Y62571051D01*
X5883487Y62595618D01*
X5904380Y62616510D01*
X5928948Y62632928D01*
X5956246Y62644232D01*
X5985226Y62650000D01*
X6000000D01*
X6014774D01*
X6043753Y62644232D01*
X6071051Y62632928D01*
X6095619Y62616510D01*
X6116512Y62595618D01*
X6132928Y62571051D01*
X6144235Y62543750D01*
X6150000Y62514777D01*
Y62500000D01*
Y62485223D01*
X6144235Y62456244D01*
X6132928Y62428949D01*
X6116512Y62404382D01*
X6095619Y62383490D01*
X6071051Y62367072D01*
X6043753Y62355762D01*
X6014774Y62350000D01*
X6000000D01*
D01*
D02*
G37*
G36*
X8450000Y57900000D02*
X8435226D01*
X8406247Y57905762D01*
X8378948Y57917072D01*
X8354381Y57933490D01*
X8333488Y57954382D01*
X8317072Y57978949D01*
X8305764Y58006244D01*
X8300000Y58035223D01*
Y58050000D01*
Y58064777D01*
X8305764Y58093750D01*
X8317072Y58121051D01*
X8333488Y58145618D01*
X8354381Y58166510D01*
X8378948Y58182928D01*
X8406247Y58194232D01*
X8435226Y58200000D01*
X8450000D01*
X8464774D01*
X8493753Y58194232D01*
X8521052Y58182928D01*
X8545619Y58166510D01*
X8566512Y58145618D01*
X8582928Y58121051D01*
X8594236Y58093750D01*
X8600000Y58064777D01*
Y58050000D01*
Y58035223D01*
X8594236Y58006244D01*
X8582928Y57978949D01*
X8566512Y57954382D01*
X8545619Y57933490D01*
X8521052Y57917072D01*
X8493753Y57905762D01*
X8464774Y57900000D01*
X8450000D01*
D01*
D02*
G37*
G36*
X2000000Y58350000D02*
X1985226D01*
X1956247Y58355762D01*
X1928948Y58367072D01*
X1904380Y58383490D01*
X1883487Y58404382D01*
X1867072Y58428949D01*
X1855764Y58456244D01*
X1850000Y58485223D01*
Y58500000D01*
Y58514771D01*
X1855764Y58543750D01*
X1867072Y58571051D01*
X1883487Y58595618D01*
X1904380Y58616510D01*
X1928948Y58632928D01*
X1956247Y58644232D01*
X1985226Y58650000D01*
X2000000D01*
X2014774D01*
X2043753Y58644232D01*
X2071051Y58632928D01*
X2095619Y58616510D01*
X2116512Y58595618D01*
X2132928Y58571051D01*
X2144235Y58543750D01*
X2150000Y58514771D01*
Y58500000D01*
Y58485223D01*
X2144235Y58456244D01*
X2132928Y58428949D01*
X2116512Y58404382D01*
X2095619Y58383490D01*
X2071051Y58367072D01*
X2043753Y58355762D01*
X2014774Y58350000D01*
X2000000D01*
D01*
D02*
G37*
G36*
Y54350000D02*
X1985226D01*
X1956247Y54355762D01*
X1928948Y54367072D01*
X1904380Y54383490D01*
X1883487Y54404382D01*
X1867072Y54428949D01*
X1855764Y54456244D01*
X1850000Y54485223D01*
Y54500000D01*
Y54514777D01*
X1855764Y54543750D01*
X1867072Y54571051D01*
X1883487Y54595618D01*
X1904380Y54616510D01*
X1928948Y54632928D01*
X1956247Y54644232D01*
X1985226Y54650000D01*
X2000000D01*
X2014774D01*
X2043753Y54644232D01*
X2071051Y54632928D01*
X2095619Y54616510D01*
X2116512Y54595618D01*
X2132928Y54571051D01*
X2144235Y54543750D01*
X2150000Y54514777D01*
Y54500000D01*
Y54485223D01*
X2144235Y54456244D01*
X2132928Y54428949D01*
X2116512Y54404382D01*
X2095619Y54383490D01*
X2071051Y54367072D01*
X2043753Y54355762D01*
X2014774Y54350000D01*
X2000000D01*
D01*
D02*
G37*
G36*
X8450000Y51450000D02*
X8435226D01*
X8406247Y51455762D01*
X8378948Y51467072D01*
X8354381Y51483490D01*
X8333488Y51504382D01*
X8317072Y51528949D01*
X8305764Y51556244D01*
X8300000Y51585223D01*
Y51600000D01*
Y51614777D01*
X8305764Y51643750D01*
X8317072Y51671051D01*
X8333488Y51695618D01*
X8354381Y51716510D01*
X8378948Y51732928D01*
X8406247Y51744232D01*
X8435226Y51750000D01*
X8450000D01*
X8464774D01*
X8493753Y51744232D01*
X8521052Y51732928D01*
X8545619Y51716510D01*
X8566512Y51695618D01*
X8582928Y51671051D01*
X8594236Y51643750D01*
X8600000Y51614777D01*
Y51600000D01*
Y51585223D01*
X8594236Y51556244D01*
X8582928Y51528949D01*
X8566512Y51504382D01*
X8545619Y51483490D01*
X8521052Y51467072D01*
X8493753Y51455762D01*
X8464774Y51450000D01*
X8450000D01*
D01*
D02*
G37*
G36*
Y45000000D02*
X8435226D01*
X8406247Y45005765D01*
X8378948Y45017072D01*
X8354381Y45033487D01*
X8333488Y45054379D01*
X8317072Y45078949D01*
X8305764Y45106247D01*
X8300000Y45135226D01*
Y45150000D01*
Y45164774D01*
X8305764Y45193753D01*
X8317072Y45221051D01*
X8333488Y45245618D01*
X8354381Y45266513D01*
X8378948Y45282928D01*
X8406247Y45294235D01*
X8435226Y45300000D01*
X8450000D01*
X8464774D01*
X8493753Y45294235D01*
X8521052Y45282928D01*
X8545619Y45266513D01*
X8566512Y45245618D01*
X8582928Y45221051D01*
X8594236Y45193753D01*
X8600000Y45164774D01*
Y45150000D01*
Y45135226D01*
X8594236Y45106247D01*
X8582928Y45078949D01*
X8566512Y45054379D01*
X8545619Y45033487D01*
X8521052Y45017072D01*
X8493753Y45005765D01*
X8464774Y45000000D01*
X8450000D01*
D01*
D02*
G37*
G36*
X2000000Y50350000D02*
X1985226D01*
X1956247Y50355765D01*
X1928948Y50367072D01*
X1904380Y50383487D01*
X1883487Y50404379D01*
X1867072Y50428949D01*
X1855764Y50456247D01*
X1850000Y50485226D01*
Y50500000D01*
Y50514774D01*
X1855764Y50543753D01*
X1867072Y50571051D01*
X1883487Y50595618D01*
X1904380Y50616513D01*
X1928948Y50632928D01*
X1956247Y50644235D01*
X1985226Y50650000D01*
X2000000D01*
X2014774D01*
X2043753Y50644235D01*
X2071051Y50632928D01*
X2095619Y50616513D01*
X2116512Y50595618D01*
X2132928Y50571051D01*
X2144235Y50543753D01*
X2150000Y50514774D01*
Y50500000D01*
Y50485226D01*
X2144235Y50456247D01*
X2132928Y50428949D01*
X2116512Y50404379D01*
X2095619Y50383487D01*
X2071051Y50367072D01*
X2043753Y50355765D01*
X2014774Y50350000D01*
X2000000D01*
D01*
D02*
G37*
G36*
Y46350000D02*
X1985226D01*
X1956247Y46355765D01*
X1928948Y46367072D01*
X1904380Y46383487D01*
X1883487Y46404379D01*
X1867072Y46428949D01*
X1855764Y46456247D01*
X1850000Y46485226D01*
Y46500000D01*
Y46514774D01*
X1855764Y46543753D01*
X1867072Y46571051D01*
X1883487Y46595618D01*
X1904380Y46616513D01*
X1928948Y46632928D01*
X1956247Y46644235D01*
X1985226Y46650000D01*
X2000000D01*
X2014774D01*
X2043753Y46644235D01*
X2071051Y46632928D01*
X2095619Y46616513D01*
X2116512Y46595618D01*
X2132928Y46571051D01*
X2144235Y46543753D01*
X2150000Y46514774D01*
Y46500000D01*
Y46485226D01*
X2144235Y46456247D01*
X2132928Y46428949D01*
X2116512Y46404379D01*
X2095619Y46383487D01*
X2071051Y46367072D01*
X2043753Y46355765D01*
X2014774Y46350000D01*
X2000000D01*
D01*
D02*
G37*
G36*
Y42350000D02*
X1985226D01*
X1956247Y42355765D01*
X1928948Y42367072D01*
X1904380Y42383487D01*
X1883487Y42404379D01*
X1867072Y42428949D01*
X1855764Y42456247D01*
X1850000Y42485226D01*
Y42500000D01*
Y42514774D01*
X1855764Y42543753D01*
X1867072Y42571051D01*
X1883487Y42595618D01*
X1904380Y42616513D01*
X1928948Y42632928D01*
X1956247Y42644235D01*
X1985226Y42650000D01*
X2000000D01*
X2014774D01*
X2043753Y42644235D01*
X2071051Y42632928D01*
X2095619Y42616513D01*
X2116512Y42595618D01*
X2132928Y42571051D01*
X2144235Y42543753D01*
X2150000Y42514774D01*
Y42500000D01*
Y42485226D01*
X2144235Y42456247D01*
X2132928Y42428949D01*
X2116512Y42404379D01*
X2095619Y42383487D01*
X2071051Y42367072D01*
X2043753Y42355765D01*
X2014774Y42350000D01*
X2000000D01*
D01*
D02*
G37*
G36*
Y34350000D02*
X1985226D01*
X1956247Y34355765D01*
X1928948Y34367072D01*
X1904380Y34383487D01*
X1883487Y34404379D01*
X1867072Y34428949D01*
X1855764Y34456247D01*
X1850000Y34485226D01*
Y34500000D01*
Y34514774D01*
X1855764Y34543753D01*
X1867072Y34571051D01*
X1883487Y34595618D01*
X1904380Y34616513D01*
X1928948Y34632928D01*
X1956247Y34644235D01*
X1985226Y34650000D01*
X2000000D01*
X2014774D01*
X2043753Y34644235D01*
X2071051Y34632928D01*
X2095619Y34616513D01*
X2116512Y34595618D01*
X2132928Y34571051D01*
X2144235Y34543753D01*
X2150000Y34514774D01*
Y34500000D01*
Y34485226D01*
X2144235Y34456247D01*
X2132928Y34428949D01*
X2116512Y34404379D01*
X2095619Y34383487D01*
X2071051Y34367072D01*
X2043753Y34355765D01*
X2014774Y34350000D01*
X2000000D01*
D01*
D02*
G37*
G36*
Y26350000D02*
X1985226D01*
X1956247Y26355765D01*
X1928948Y26367072D01*
X1904380Y26383487D01*
X1883487Y26404379D01*
X1867072Y26428949D01*
X1855764Y26456247D01*
X1850000Y26485226D01*
Y26500000D01*
Y26514774D01*
X1855764Y26543753D01*
X1867072Y26571051D01*
X1883487Y26595618D01*
X1904380Y26616513D01*
X1928948Y26632928D01*
X1956247Y26644235D01*
X1985226Y26650000D01*
X2000000D01*
X2014774D01*
X2043753Y26644235D01*
X2071051Y26632928D01*
X2095619Y26616513D01*
X2116512Y26595618D01*
X2132928Y26571051D01*
X2144235Y26543753D01*
X2150000Y26514774D01*
Y26500000D01*
Y26485226D01*
X2144235Y26456247D01*
X2132928Y26428949D01*
X2116512Y26404379D01*
X2095619Y26383487D01*
X2071051Y26367072D01*
X2043753Y26355765D01*
X2014774Y26350000D01*
X2000000D01*
D01*
D02*
G37*
G36*
Y18350000D02*
X1985226D01*
X1956247Y18355763D01*
X1928948Y18367072D01*
X1904380Y18383487D01*
X1883487Y18404379D01*
X1867072Y18428947D01*
X1855764Y18456245D01*
X1850000Y18485226D01*
Y18500000D01*
Y18514774D01*
X1855764Y18543753D01*
X1867072Y18571051D01*
X1883487Y18595619D01*
X1904380Y18616512D01*
X1928948Y18632928D01*
X1956247Y18644235D01*
X1985226Y18650000D01*
X2000000D01*
X2014774D01*
X2043753Y18644235D01*
X2071051Y18632928D01*
X2095619Y18616512D01*
X2116512Y18595619D01*
X2132928Y18571051D01*
X2144235Y18543753D01*
X2150000Y18514774D01*
Y18500000D01*
Y18485226D01*
X2144235Y18456245D01*
X2132928Y18428947D01*
X2116512Y18404379D01*
X2095619Y18383487D01*
X2071051Y18367072D01*
X2043753Y18355763D01*
X2014774Y18350000D01*
X2000000D01*
D01*
D02*
G37*
G36*
Y14350000D02*
X1985226D01*
X1956247Y14355763D01*
X1928948Y14367072D01*
X1904380Y14383487D01*
X1883487Y14404379D01*
X1867072Y14428947D01*
X1855764Y14456245D01*
X1850000Y14485226D01*
Y14500000D01*
Y14514774D01*
X1855764Y14543753D01*
X1867072Y14571051D01*
X1883487Y14595619D01*
X1904380Y14616512D01*
X1928948Y14632928D01*
X1956247Y14644235D01*
X1985226Y14650000D01*
X2000000D01*
X2014774D01*
X2043753Y14644235D01*
X2071051Y14632928D01*
X2095619Y14616512D01*
X2116512Y14595619D01*
X2132928Y14571051D01*
X2144235Y14543753D01*
X2150000Y14514774D01*
Y14500000D01*
Y14485226D01*
X2144235Y14456245D01*
X2132928Y14428947D01*
X2116512Y14404379D01*
X2095619Y14383487D01*
X2071051Y14367072D01*
X2043753Y14355763D01*
X2014774Y14350000D01*
X2000000D01*
D01*
D02*
G37*
G36*
Y2350000D02*
X1985226D01*
X1956247Y2355764D01*
X1928948Y2367071D01*
X1904380Y2383487D01*
X1883487Y2404380D01*
X1867072Y2428948D01*
X1855764Y2456246D01*
X1850000Y2485226D01*
Y2500000D01*
Y2514773D01*
X1855764Y2543753D01*
X1867072Y2571051D01*
X1883487Y2595619D01*
X1904380Y2616512D01*
X1928948Y2632928D01*
X1956247Y2644235D01*
X1985226Y2650000D01*
X2000000D01*
X2014774D01*
X2043753Y2644235D01*
X2071051Y2632928D01*
X2095619Y2616512D01*
X2116512Y2595619D01*
X2132928Y2571051D01*
X2144235Y2543753D01*
X2150000Y2514773D01*
Y2500000D01*
Y2485226D01*
X2144235Y2456246D01*
X2132928Y2428948D01*
X2116512Y2404380D01*
X2095619Y2383487D01*
X2071051Y2367071D01*
X2043753Y2355764D01*
X2014774Y2350000D01*
X2000000D01*
D01*
D02*
G37*
G36*
Y6350000D02*
X1985226D01*
X1956247Y6355764D01*
X1928948Y6367072D01*
X1904380Y6383487D01*
X1883487Y6404380D01*
X1867072Y6428948D01*
X1855764Y6456246D01*
X1850000Y6485226D01*
Y6500000D01*
Y6514774D01*
X1855764Y6543753D01*
X1867072Y6571051D01*
X1883487Y6595619D01*
X1904380Y6616512D01*
X1928948Y6632928D01*
X1956247Y6644235D01*
X1985226Y6650000D01*
X2000000D01*
X2014774D01*
X2043753Y6644235D01*
X2071051Y6632928D01*
X2095619Y6616512D01*
X2116512Y6595619D01*
X2132928Y6571051D01*
X2144235Y6543753D01*
X2150000Y6514774D01*
Y6500000D01*
Y6485226D01*
X2144235Y6456246D01*
X2132928Y6428948D01*
X2116512Y6404380D01*
X2095619Y6383487D01*
X2071051Y6367072D01*
X2043753Y6355764D01*
X2014774Y6350000D01*
X2000000D01*
D01*
D02*
G37*
G36*
X16750000Y6450000D02*
Y6435226D01*
X16755763Y6406247D01*
X16767072Y6378948D01*
X16783487Y6354380D01*
X16804379Y6333487D01*
X16828947Y6317072D01*
X16856245Y6305764D01*
X16885226Y6300000D01*
X16900000D01*
X16914774D01*
X16943753Y6305764D01*
X16971051Y6317072D01*
X16995619Y6333487D01*
X17016512Y6354380D01*
X17032928Y6378948D01*
X17044235Y6406247D01*
X17050000Y6435226D01*
Y6450000D01*
Y6464774D01*
X17044235Y6493753D01*
X17032928Y6521051D01*
X17016512Y6545619D01*
X16995619Y6566512D01*
X16971051Y6582928D01*
X16943753Y6594235D01*
X16914774Y6600000D01*
X16900000D01*
X16885226D01*
X16856245Y6594235D01*
X16828947Y6582928D01*
X16804379Y6566512D01*
X16783487Y6545619D01*
X16767072Y6521051D01*
X16755763Y6493753D01*
X16750000Y6464774D01*
Y6450000D01*
D01*
D02*
G37*
G36*
X9850000Y2794999D02*
Y2780225D01*
X9855764Y2751246D01*
X9867072Y2723948D01*
X9883487Y2699380D01*
X9904380Y2678487D01*
X9928948Y2662071D01*
X9956247Y2650764D01*
X9985226Y2644999D01*
X10000000D01*
X10014774D01*
X10043753Y2650764D01*
X10071051Y2662071D01*
X10095619Y2678487D01*
X10116512Y2699380D01*
X10132928Y2723948D01*
X10144235Y2751246D01*
X10150000Y2780225D01*
Y2794999D01*
Y2809773D01*
X10144235Y2838753D01*
X10132928Y2866051D01*
X10116512Y2890619D01*
X10095619Y2911512D01*
X10071051Y2927927D01*
X10043753Y2939235D01*
X10014774Y2944999D01*
X10000000D01*
X9985226D01*
X9956247Y2939235D01*
X9928948Y2927927D01*
X9904380Y2911512D01*
X9883487Y2890619D01*
X9867072Y2866051D01*
X9855764Y2838753D01*
X9850000Y2809773D01*
Y2794999D01*
D01*
D02*
G37*
G36*
X33850000D02*
Y2780225D01*
X33855765Y2751246D01*
X33867072Y2723948D01*
X33883487Y2699380D01*
X33904382Y2678487D01*
X33928949Y2662071D01*
X33956247Y2650764D01*
X33985226Y2644999D01*
X34000000D01*
X34014774D01*
X34043753Y2650764D01*
X34071051Y2662071D01*
X34095618Y2678487D01*
X34116513Y2699380D01*
X34132928Y2723948D01*
X34144235Y2751246D01*
X34150000Y2780225D01*
Y2794999D01*
Y2809773D01*
X34144235Y2838753D01*
X34132928Y2866051D01*
X34116513Y2890619D01*
X34095618Y2911512D01*
X34071051Y2927927D01*
X34043753Y2939235D01*
X34014774Y2944999D01*
X34000000D01*
X33985226D01*
X33956247Y2939235D01*
X33928949Y2927927D01*
X33904382Y2911512D01*
X33883487Y2890619D01*
X33867072Y2866051D01*
X33855765Y2838753D01*
X33850000Y2809773D01*
Y2794999D01*
D01*
D02*
G37*
G36*
X29850000D02*
Y2780225D01*
X29855765Y2751246D01*
X29867072Y2723948D01*
X29883487Y2699380D01*
X29904379Y2678487D01*
X29928949Y2662071D01*
X29956247Y2650764D01*
X29985226Y2644999D01*
X30000000D01*
X30014774D01*
X30043753Y2650764D01*
X30071051Y2662071D01*
X30095618Y2678487D01*
X30116513Y2699380D01*
X30132928Y2723948D01*
X30144235Y2751246D01*
X30150000Y2780225D01*
Y2794999D01*
Y2809773D01*
X30144235Y2838753D01*
X30132928Y2866051D01*
X30116513Y2890619D01*
X30095618Y2911512D01*
X30071051Y2927927D01*
X30043753Y2939235D01*
X30014774Y2944999D01*
X30000000D01*
X29985226D01*
X29956247Y2939235D01*
X29928949Y2927927D01*
X29904379Y2911512D01*
X29883487Y2890619D01*
X29867072Y2866051D01*
X29855765Y2838753D01*
X29850000Y2809773D01*
Y2794999D01*
D01*
D02*
G37*
G36*
X25850000D02*
Y2780225D01*
X25855765Y2751246D01*
X25867072Y2723948D01*
X25883487Y2699380D01*
X25904379Y2678487D01*
X25928949Y2662071D01*
X25956247Y2650764D01*
X25985226Y2644999D01*
X26000000D01*
X26014774D01*
X26043753Y2650764D01*
X26071051Y2662071D01*
X26095618Y2678487D01*
X26116513Y2699380D01*
X26132928Y2723948D01*
X26144235Y2751246D01*
X26150000Y2780225D01*
Y2794999D01*
Y2809773D01*
X26144235Y2838753D01*
X26132928Y2866051D01*
X26116513Y2890619D01*
X26095618Y2911512D01*
X26071051Y2927927D01*
X26043753Y2939235D01*
X26014774Y2944999D01*
X26000000D01*
X25985226D01*
X25956247Y2939235D01*
X25928949Y2927927D01*
X25904379Y2911512D01*
X25883487Y2890619D01*
X25867072Y2866051D01*
X25855765Y2838753D01*
X25850000Y2809773D01*
Y2794999D01*
D01*
D02*
G37*
G36*
X21850000D02*
Y2780225D01*
X21855763Y2751246D01*
X21867072Y2723948D01*
X21883487Y2699380D01*
X21904379Y2678487D01*
X21928947Y2662071D01*
X21956245Y2650764D01*
X21985226Y2644999D01*
X22000000D01*
X22014774D01*
X22043753Y2650764D01*
X22071051Y2662071D01*
X22095619Y2678487D01*
X22116512Y2699380D01*
X22132928Y2723948D01*
X22144235Y2751246D01*
X22150000Y2780225D01*
Y2794999D01*
Y2809773D01*
X22144235Y2838753D01*
X22132928Y2866051D01*
X22116512Y2890619D01*
X22095619Y2911512D01*
X22071051Y2927927D01*
X22043753Y2939235D01*
X22014774Y2944999D01*
X22000000D01*
X21985226D01*
X21956245Y2939235D01*
X21928947Y2927927D01*
X21904379Y2911512D01*
X21883487Y2890619D01*
X21867072Y2866051D01*
X21855763Y2838753D01*
X21850000Y2809773D01*
Y2794999D01*
D01*
D02*
G37*
G36*
X17850000D02*
Y2780225D01*
X17855763Y2751246D01*
X17867072Y2723948D01*
X17883487Y2699380D01*
X17904379Y2678487D01*
X17928947Y2662071D01*
X17956247Y2650764D01*
X17985226Y2644999D01*
X18000000D01*
X18014774D01*
X18043753Y2650764D01*
X18071051Y2662071D01*
X18095619Y2678487D01*
X18116512Y2699380D01*
X18132928Y2723948D01*
X18144235Y2751246D01*
X18150000Y2780225D01*
Y2794999D01*
Y2809773D01*
X18144235Y2838753D01*
X18132928Y2866051D01*
X18116512Y2890619D01*
X18095619Y2911512D01*
X18071051Y2927927D01*
X18043753Y2939235D01*
X18014774Y2944999D01*
X18000000D01*
X17985226D01*
X17956247Y2939235D01*
X17928947Y2927927D01*
X17904379Y2911512D01*
X17883487Y2890619D01*
X17867072Y2866051D01*
X17855763Y2838753D01*
X17850000Y2809773D01*
Y2794999D01*
D01*
D02*
G37*
G36*
X37850000D02*
Y2780225D01*
X37855765Y2751246D01*
X37867072Y2723948D01*
X37883487Y2699380D01*
X37904379Y2678487D01*
X37928949Y2662071D01*
X37956247Y2650764D01*
X37985226Y2644999D01*
X38000000D01*
X38014774D01*
X38043753Y2650764D01*
X38071051Y2662071D01*
X38095618Y2678487D01*
X38116513Y2699380D01*
X38132928Y2723948D01*
X38144235Y2751246D01*
X38150000Y2780225D01*
Y2794999D01*
Y2809773D01*
X38144235Y2838753D01*
X38132928Y2866051D01*
X38116513Y2890619D01*
X38095618Y2911512D01*
X38071051Y2927927D01*
X38043753Y2939235D01*
X38014774Y2944999D01*
X38000000D01*
X37985226D01*
X37956247Y2939235D01*
X37928949Y2927927D01*
X37904379Y2911512D01*
X37883487Y2890619D01*
X37867072Y2866051D01*
X37855765Y2838753D01*
X37850000Y2809773D01*
Y2794999D01*
D01*
D02*
G37*
G36*
X33650000Y6450000D02*
Y6435226D01*
X33655765Y6406247D01*
X33667072Y6378948D01*
X33683487Y6354380D01*
X33704379Y6333487D01*
X33728949Y6317072D01*
X33756247Y6305764D01*
X33785226Y6300000D01*
X33800000D01*
X33814774D01*
X33843753Y6305764D01*
X33871051Y6317072D01*
X33895618Y6333487D01*
X33916513Y6354380D01*
X33932928Y6378948D01*
X33944235Y6406247D01*
X33950000Y6435226D01*
Y6450000D01*
Y6464774D01*
X33944235Y6493753D01*
X33932928Y6521051D01*
X33916513Y6545619D01*
X33895618Y6566512D01*
X33871051Y6582928D01*
X33843753Y6594235D01*
X33814774Y6600000D01*
X33800000D01*
X33785226D01*
X33756247Y6594235D01*
X33728949Y6582928D01*
X33704379Y6566512D01*
X33683487Y6545619D01*
X33667072Y6521051D01*
X33655765Y6493753D01*
X33650000Y6464774D01*
Y6450000D01*
D01*
D02*
G37*
G36*
X19688564Y10018563D02*
Y9996933D01*
X19694209Y9954045D01*
X19705405Y9912260D01*
X19721960Y9872294D01*
X19743588Y9834831D01*
X19769923Y9800512D01*
X19800513Y9769923D01*
X19834831Y9743589D01*
X19872295Y9721959D01*
X19912260Y9705405D01*
X19954045Y9694209D01*
X19996933Y9688563D01*
X20018562D01*
X20040192D01*
X20083080Y9694209D01*
X20124866Y9705405D01*
X20164832Y9721959D01*
X20202293Y9743589D01*
X20236613Y9769923D01*
X20267203Y9800512D01*
X20293536Y9834831D01*
X20315166Y9872294D01*
X20331720Y9912260D01*
X20342915Y9954045D01*
X20348563Y9996933D01*
Y10018563D01*
Y10040192D01*
X20342915Y10083080D01*
X20331720Y10124865D01*
X20315166Y10164831D01*
X20293536Y10202294D01*
X20267203Y10236614D01*
X20236613Y10267202D01*
X20202293Y10293536D01*
X20164832Y10315166D01*
X20124866Y10331720D01*
X20083080Y10342916D01*
X20040192Y10348563D01*
X20018562D01*
X19996933D01*
X19954045Y10342916D01*
X19912260Y10331720D01*
X19872295Y10315166D01*
X19834831Y10293536D01*
X19800513Y10267202D01*
X19769923Y10236614D01*
X19743588Y10202294D01*
X19721960Y10164831D01*
X19705405Y10124865D01*
X19694209Y10083080D01*
X19688564Y10040192D01*
Y10018563D01*
D01*
D02*
G37*
G36*
X26406076Y9665009D02*
Y9643380D01*
X26411722Y9600491D01*
X26422919Y9558707D01*
X26439474Y9518741D01*
X26461102Y9481278D01*
X26487439Y9446958D01*
X26518027Y9416370D01*
X26552347Y9390035D01*
X26589810Y9368406D01*
X26629776Y9351852D01*
X26671558Y9340655D01*
X26714447Y9335009D01*
X26736078D01*
X26757706D01*
X26800595Y9340655D01*
X26842380Y9351852D01*
X26882346Y9368406D01*
X26919809Y9390035D01*
X26954129Y9416370D01*
X26984717Y9446958D01*
X27011050Y9481278D01*
X27032681Y9518741D01*
X27049234Y9558707D01*
X27060431Y9600491D01*
X27066077Y9643380D01*
Y9665009D01*
Y9686638D01*
X27060431Y9729527D01*
X27049234Y9771312D01*
X27032681Y9811278D01*
X27011050Y9848741D01*
X26984717Y9883060D01*
X26954129Y9913649D01*
X26919809Y9939983D01*
X26882346Y9961612D01*
X26842380Y9978167D01*
X26800595Y9989363D01*
X26757706Y9995009D01*
X26736078D01*
X26714447D01*
X26671558Y9989363D01*
X26629776Y9978167D01*
X26589810Y9961612D01*
X26552347Y9939983D01*
X26518027Y9913649D01*
X26487439Y9883060D01*
X26461102Y9848741D01*
X26439474Y9811278D01*
X26422919Y9771312D01*
X26411722Y9729527D01*
X26406076Y9686638D01*
Y9665009D01*
D01*
D02*
G37*
G36*
X23224097Y6483029D02*
Y6461400D01*
X23229742Y6418511D01*
X23240939Y6376726D01*
X23257494Y6336760D01*
X23279123Y6299297D01*
X23305457Y6264978D01*
X23336046Y6234389D01*
X23370364Y6208055D01*
X23407828Y6186426D01*
X23447794Y6169871D01*
X23489578Y6158675D01*
X23532468Y6153029D01*
X23554097D01*
X23575726D01*
X23618614Y6158675D01*
X23660399Y6169871D01*
X23700365Y6186426D01*
X23737828Y6208055D01*
X23772148Y6234389D01*
X23802736Y6264978D01*
X23829070Y6299297D01*
X23850700Y6336760D01*
X23867255Y6376726D01*
X23878450Y6418511D01*
X23884097Y6461400D01*
Y6483029D01*
Y6504658D01*
X23878450Y6547547D01*
X23867255Y6589332D01*
X23850700Y6629297D01*
X23829070Y6666760D01*
X23802736Y6701080D01*
X23772148Y6731668D01*
X23737828Y6758003D01*
X23700365Y6779632D01*
X23660399Y6796186D01*
X23618614Y6807383D01*
X23575726Y6813029D01*
X23554097D01*
X23532468D01*
X23489578Y6807383D01*
X23447794Y6796186D01*
X23407828Y6779632D01*
X23370364Y6758003D01*
X23336046Y6731668D01*
X23305457Y6701080D01*
X23279123Y6666760D01*
X23257494Y6629297D01*
X23240939Y6589332D01*
X23229742Y6547547D01*
X23224097Y6504658D01*
Y6483029D01*
D01*
D02*
G37*
G36*
X33650000Y12900000D02*
Y12885226D01*
X33655765Y12856245D01*
X33667072Y12828947D01*
X33683487Y12804379D01*
X33704379Y12783487D01*
X33728949Y12767071D01*
X33756247Y12755764D01*
X33785226Y12750000D01*
X33800000D01*
X33814774D01*
X33843753Y12755764D01*
X33871051Y12767071D01*
X33895618Y12783487D01*
X33916513Y12804379D01*
X33932928Y12828947D01*
X33944235Y12856245D01*
X33950000Y12885226D01*
Y12900000D01*
Y12914774D01*
X33944235Y12943753D01*
X33932928Y12971051D01*
X33916513Y12995619D01*
X33895618Y13016512D01*
X33871051Y13032928D01*
X33843753Y13044235D01*
X33814774Y13050000D01*
X33800000D01*
X33785226D01*
X33756247Y13044235D01*
X33728949Y13032928D01*
X33704379Y13016512D01*
X33683487Y12995619D01*
X33667072Y12971051D01*
X33655765Y12943753D01*
X33650000Y12914774D01*
Y12900000D01*
D01*
D02*
G37*
G36*
X25200000Y19350000D02*
Y19335226D01*
X25205763Y19306245D01*
X25217072Y19278947D01*
X25233488Y19254379D01*
X25254381Y19233487D01*
X25278947Y19217072D01*
X25306247Y19205763D01*
X25335226Y19200000D01*
X25350000D01*
X25364774D01*
X25393753Y19205763D01*
X25421053Y19217072D01*
X25445619Y19233487D01*
X25466512Y19254379D01*
X25482928Y19278947D01*
X25494237Y19306245D01*
X25500000Y19335226D01*
Y19350000D01*
Y19364774D01*
X25494237Y19393753D01*
X25482928Y19421051D01*
X25466512Y19445619D01*
X25445619Y19466512D01*
X25421053Y19482928D01*
X25393753Y19494235D01*
X25364774Y19500000D01*
X25350000D01*
X25335226D01*
X25306247Y19494235D01*
X25278947Y19482928D01*
X25254381Y19466512D01*
X25233488Y19445619D01*
X25217072Y19421051D01*
X25205763Y19393753D01*
X25200000Y19364774D01*
Y19350000D01*
D01*
D02*
G37*
G36*
X23577650Y18857397D02*
Y18835768D01*
X23583296Y18792879D01*
X23594493Y18751096D01*
X23611047Y18711130D01*
X23632677Y18673666D01*
X23659010Y18639346D01*
X23689600Y18608759D01*
X23723920Y18582423D01*
X23761382Y18560794D01*
X23801347Y18544240D01*
X23843132Y18533043D01*
X23886021Y18527397D01*
X23907651D01*
X23929279D01*
X23972168Y18533043D01*
X24013953Y18544240D01*
X24053918Y18560794D01*
X24091382Y18582423D01*
X24125700Y18608759D01*
X24156290Y18639346D01*
X24182623Y18673666D01*
X24204253Y18711130D01*
X24220808Y18751096D01*
X24232004Y18792879D01*
X24237650Y18835768D01*
Y18857397D01*
Y18879027D01*
X24232004Y18921915D01*
X24220808Y18963699D01*
X24204253Y19003667D01*
X24182623Y19041129D01*
X24156290Y19075449D01*
X24125700Y19106036D01*
X24091382Y19132372D01*
X24053918Y19153999D01*
X24013953Y19170555D01*
X23972168Y19181750D01*
X23929279Y19187396D01*
X23907651D01*
X23886021D01*
X23843132Y19181750D01*
X23801347Y19170555D01*
X23761382Y19153999D01*
X23723920Y19132372D01*
X23689600Y19106036D01*
X23659010Y19075449D01*
X23632677Y19041129D01*
X23611047Y19003667D01*
X23594493Y18963699D01*
X23583296Y18921915D01*
X23577650Y18879027D01*
Y18857397D01*
D01*
D02*
G37*
G36*
X28527399Y13907651D02*
Y13886021D01*
X28533044Y13843132D01*
X28544241Y13801347D01*
X28560794Y13761382D01*
X28582425Y13723918D01*
X28608759Y13689600D01*
X28639346Y13659010D01*
X28673666Y13632677D01*
X28711130Y13611047D01*
X28751096Y13594492D01*
X28792880Y13583296D01*
X28835767Y13577650D01*
X28857397D01*
X28879028D01*
X28921915Y13583296D01*
X28963699Y13594492D01*
X29003665Y13611047D01*
X29041129Y13632677D01*
X29075449Y13659010D01*
X29106036Y13689600D01*
X29132373Y13723918D01*
X29154001Y13761382D01*
X29170554Y13801347D01*
X29181750Y13843132D01*
X29187399Y13886021D01*
Y13907651D01*
Y13929279D01*
X29181750Y13972168D01*
X29170554Y14013953D01*
X29154001Y14053918D01*
X29132373Y14091382D01*
X29106036Y14125700D01*
X29075449Y14156290D01*
X29041129Y14182623D01*
X29003665Y14204253D01*
X28963699Y14220807D01*
X28921915Y14232004D01*
X28879028Y14237650D01*
X28857397D01*
X28835767D01*
X28792880Y14232004D01*
X28751096Y14220807D01*
X28711130Y14204253D01*
X28673666Y14182623D01*
X28639346Y14156290D01*
X28608759Y14125700D01*
X28582425Y14091382D01*
X28560794Y14053918D01*
X28544241Y14013953D01*
X28533044Y13972168D01*
X28527399Y13929279D01*
Y13907651D01*
D01*
D02*
G37*
G36*
X16153029Y13554097D02*
Y13532468D01*
X16158675Y13489578D01*
X16169872Y13447794D01*
X16186426Y13407828D01*
X16208055Y13370364D01*
X16234389Y13336044D01*
X16264978Y13305457D01*
X16299297Y13279123D01*
X16336760Y13257494D01*
X16376726Y13240939D01*
X16418510Y13229742D01*
X16461400Y13224097D01*
X16483029D01*
X16504659D01*
X16547546Y13229742D01*
X16589333Y13240939D01*
X16629297Y13257494D01*
X16666760Y13279123D01*
X16701080Y13305457D01*
X16731668Y13336044D01*
X16758003Y13370364D01*
X16779633Y13407828D01*
X16796185Y13447794D01*
X16807384Y13489578D01*
X16813029Y13532468D01*
Y13554097D01*
Y13575726D01*
X16807384Y13618614D01*
X16796185Y13660399D01*
X16779633Y13700365D01*
X16758003Y13737828D01*
X16731668Y13772147D01*
X16701080Y13802736D01*
X16666760Y13829070D01*
X16629297Y13850700D01*
X16589333Y13867255D01*
X16547546Y13878450D01*
X16504659Y13884097D01*
X16483029D01*
X16461400D01*
X16418510Y13878450D01*
X16376726Y13867255D01*
X16336760Y13850700D01*
X16299297Y13829070D01*
X16264978Y13802736D01*
X16234389Y13772147D01*
X16208055Y13737828D01*
X16186426Y13700365D01*
X16169872Y13660399D01*
X16158675Y13618614D01*
X16153029Y13575726D01*
Y13554097D01*
D01*
D02*
G37*
G36*
X19335008Y16736076D02*
Y16714449D01*
X19340656Y16671559D01*
X19351852Y16629774D01*
X19368407Y16589809D01*
X19390034Y16552345D01*
X19416370Y16518027D01*
X19446957Y16487437D01*
X19481277Y16461102D01*
X19518741Y16439474D01*
X19558707Y16422920D01*
X19600491Y16411723D01*
X19643381Y16406078D01*
X19665009D01*
X19686639D01*
X19729527Y16411723D01*
X19771312Y16422920D01*
X19811278Y16439474D01*
X19848741Y16461102D01*
X19883060Y16487437D01*
X19913649Y16518027D01*
X19939983Y16552345D01*
X19961612Y16589809D01*
X19978168Y16629774D01*
X19989363Y16671559D01*
X19995010Y16714449D01*
Y16736076D01*
Y16757706D01*
X19989363Y16800595D01*
X19978168Y16842380D01*
X19961612Y16882346D01*
X19939983Y16919809D01*
X19913649Y16954128D01*
X19883060Y16984717D01*
X19848741Y17011050D01*
X19811278Y17032680D01*
X19771312Y17049236D01*
X19729527Y17060431D01*
X19686639Y17066077D01*
X19665009D01*
X19643381D01*
X19600491Y17060431D01*
X19558707Y17049236D01*
X19518741Y17032680D01*
X19481277Y17011050D01*
X19446957Y16984717D01*
X19416370Y16954128D01*
X19390034Y16919809D01*
X19368407Y16882346D01*
X19351852Y16842380D01*
X19340656Y16800595D01*
X19335008Y16757706D01*
Y16736076D01*
D01*
D02*
G37*
G36*
X16900000Y25650000D02*
X16885226D01*
X16856245Y25655765D01*
X16828947Y25667072D01*
X16804379Y25683487D01*
X16783487Y25704379D01*
X16767072Y25728949D01*
X16755763Y25756247D01*
X16750000Y25785226D01*
Y25800000D01*
Y25814774D01*
X16755763Y25843753D01*
X16767072Y25871051D01*
X16783487Y25895618D01*
X16804379Y25916513D01*
X16828947Y25932928D01*
X16856245Y25944235D01*
X16885226Y25950000D01*
X16900000D01*
X16914774D01*
X16943753Y25944235D01*
X16971051Y25932928D01*
X16995619Y25916513D01*
X17016512Y25895618D01*
X17032928Y25871051D01*
X17044235Y25843753D01*
X17050000Y25814774D01*
Y25800000D01*
Y25785226D01*
X17044235Y25756247D01*
X17032928Y25728949D01*
X17016512Y25704379D01*
X16995619Y25683487D01*
X16971051Y25667072D01*
X16943753Y25655765D01*
X16914774Y25650000D01*
X16900000D01*
D01*
D02*
G37*
G36*
Y38550000D02*
X16885226D01*
X16856245Y38555765D01*
X16828947Y38567072D01*
X16804379Y38583487D01*
X16783487Y38604379D01*
X16767072Y38628949D01*
X16755763Y38656247D01*
X16750000Y38685226D01*
Y38700000D01*
Y38714774D01*
X16755763Y38743753D01*
X16767072Y38771051D01*
X16783487Y38795618D01*
X16804379Y38816513D01*
X16828947Y38832928D01*
X16856245Y38844235D01*
X16885226Y38850000D01*
X16900000D01*
X16914774D01*
X16943753Y38844235D01*
X16971051Y38832928D01*
X16995619Y38816513D01*
X17016512Y38795618D01*
X17032928Y38771051D01*
X17044235Y38743753D01*
X17050000Y38714774D01*
Y38700000D01*
Y38685226D01*
X17044235Y38656247D01*
X17032928Y38628949D01*
X17016512Y38604379D01*
X16995619Y38583487D01*
X16971051Y38567072D01*
X16943753Y38555765D01*
X16914774Y38550000D01*
X16900000D01*
D01*
D02*
G37*
G36*
X23907651Y45312601D02*
X23886021D01*
X23843132Y45318250D01*
X23801347Y45329446D01*
X23761382Y45345999D01*
X23723920Y45367627D01*
X23689600Y45393964D01*
X23659010Y45424551D01*
X23632677Y45458871D01*
X23611047Y45496335D01*
X23594493Y45536301D01*
X23583296Y45578085D01*
X23577650Y45620972D01*
Y45642603D01*
Y45664233D01*
X23583296Y45707120D01*
X23594493Y45748904D01*
X23611047Y45788870D01*
X23632677Y45826334D01*
X23659010Y45860654D01*
X23689600Y45891241D01*
X23723920Y45917575D01*
X23761382Y45939206D01*
X23801347Y45955759D01*
X23843132Y45966956D01*
X23886021Y45972601D01*
X23907651D01*
X23929279D01*
X23972168Y45966956D01*
X24013953Y45955759D01*
X24053918Y45939206D01*
X24091382Y45917575D01*
X24125700Y45891241D01*
X24156290Y45860654D01*
X24182623Y45826334D01*
X24204253Y45788870D01*
X24220808Y45748904D01*
X24232004Y45707120D01*
X24237650Y45664233D01*
Y45642603D01*
Y45620972D01*
X24232004Y45578085D01*
X24220808Y45536301D01*
X24204253Y45496335D01*
X24182623Y45458871D01*
X24156290Y45424551D01*
X24125700Y45393964D01*
X24091382Y45367627D01*
X24053918Y45345999D01*
X24013953Y45329446D01*
X23972168Y45318250D01*
X23929279Y45312601D01*
X23907651D01*
D01*
D02*
G37*
G36*
X25350000Y38550000D02*
X25335226D01*
X25306247Y38555765D01*
X25278947Y38567072D01*
X25254381Y38583487D01*
X25233488Y38604379D01*
X25217072Y38628949D01*
X25205763Y38656247D01*
X25200000Y38685226D01*
Y38700000D01*
Y38714774D01*
X25205763Y38743753D01*
X25217072Y38771051D01*
X25233488Y38795618D01*
X25254381Y38816513D01*
X25278947Y38832928D01*
X25306247Y38844235D01*
X25335226Y38850000D01*
X25350000D01*
X25364774D01*
X25393753Y38844235D01*
X25421053Y38832928D01*
X25445619Y38816513D01*
X25466512Y38795618D01*
X25482928Y38771051D01*
X25494237Y38743753D01*
X25500000Y38714774D01*
Y38700000D01*
Y38685226D01*
X25494237Y38656247D01*
X25482928Y38628949D01*
X25466512Y38604379D01*
X25445619Y38583487D01*
X25421053Y38567072D01*
X25393753Y38555765D01*
X25364774Y38550000D01*
X25350000D01*
D01*
D02*
G37*
G36*
Y51450000D02*
X25335226D01*
X25306247Y51455762D01*
X25278947Y51467072D01*
X25254381Y51483490D01*
X25233488Y51504382D01*
X25217072Y51528949D01*
X25205763Y51556244D01*
X25200000Y51585223D01*
Y51600000D01*
Y51614777D01*
X25205763Y51643750D01*
X25217072Y51671051D01*
X25233488Y51695618D01*
X25254381Y51716510D01*
X25278947Y51732928D01*
X25306247Y51744232D01*
X25335226Y51750000D01*
X25350000D01*
X25364774D01*
X25393753Y51744232D01*
X25421053Y51732928D01*
X25445619Y51716510D01*
X25466512Y51695618D01*
X25482928Y51671051D01*
X25494237Y51643750D01*
X25500000Y51614777D01*
Y51600000D01*
Y51585223D01*
X25494237Y51556244D01*
X25482928Y51528949D01*
X25466512Y51504382D01*
X25445619Y51483490D01*
X25421053Y51467072D01*
X25393753Y51455762D01*
X25364774Y51450000D01*
X25350000D01*
D01*
D02*
G37*
G36*
X16900000Y57900000D02*
X16885226D01*
X16856245Y57905762D01*
X16828947Y57917072D01*
X16804379Y57933490D01*
X16783487Y57954382D01*
X16767072Y57978949D01*
X16755763Y58006244D01*
X16750000Y58035223D01*
Y58050000D01*
Y58064777D01*
X16755763Y58093750D01*
X16767072Y58121051D01*
X16783487Y58145618D01*
X16804379Y58166510D01*
X16828947Y58182928D01*
X16856245Y58194232D01*
X16885226Y58200000D01*
X16900000D01*
X16914774D01*
X16943753Y58194232D01*
X16971051Y58182928D01*
X16995619Y58166510D01*
X17016512Y58145618D01*
X17032928Y58121051D01*
X17044235Y58093750D01*
X17050000Y58064777D01*
Y58050000D01*
Y58035223D01*
X17044235Y58006244D01*
X17032928Y57978949D01*
X17016512Y57954382D01*
X16995619Y57933490D01*
X16971051Y57917072D01*
X16943753Y57905762D01*
X16914774Y57900000D01*
X16900000D01*
D01*
D02*
G37*
G36*
X25350000D02*
X25335226D01*
X25306247Y57905762D01*
X25278947Y57917072D01*
X25254381Y57933490D01*
X25233488Y57954382D01*
X25217072Y57978949D01*
X25205763Y58006244D01*
X25200000Y58035223D01*
Y58050000D01*
Y58064777D01*
X25205763Y58093750D01*
X25217072Y58121051D01*
X25233488Y58145618D01*
X25254381Y58166510D01*
X25278947Y58182928D01*
X25306247Y58194232D01*
X25335226Y58200000D01*
X25350000D01*
X25364774D01*
X25393753Y58194232D01*
X25421053Y58182928D01*
X25445619Y58166510D01*
X25466512Y58145618D01*
X25482928Y58121051D01*
X25494237Y58093750D01*
X25500000Y58064777D01*
Y58050000D01*
Y58035223D01*
X25494237Y58006244D01*
X25482928Y57978949D01*
X25466512Y57954382D01*
X25445619Y57933490D01*
X25421053Y57917072D01*
X25393753Y57905762D01*
X25364774Y57900000D01*
X25350000D01*
D01*
D02*
G37*
G36*
X28857397Y50262350D02*
X28835767D01*
X28792880Y50267996D01*
X28751096Y50279193D01*
X28711130Y50295746D01*
X28673666Y50317377D01*
X28639346Y50343710D01*
X28608759Y50374298D01*
X28582425Y50408618D01*
X28560794Y50446082D01*
X28544241Y50486047D01*
X28533044Y50527832D01*
X28527399Y50570721D01*
Y50592349D01*
Y50613980D01*
X28533044Y50656870D01*
X28544241Y50698651D01*
X28560794Y50738617D01*
X28582425Y50776080D01*
X28608759Y50810400D01*
X28639346Y50840988D01*
X28673666Y50867325D01*
X28711130Y50888953D01*
X28751096Y50905508D01*
X28792880Y50916705D01*
X28835767Y50922351D01*
X28857397D01*
X28879028D01*
X28921915Y50916705D01*
X28963699Y50905508D01*
X29003665Y50888953D01*
X29041129Y50867325D01*
X29075449Y50840988D01*
X29106036Y50810400D01*
X29132373Y50776080D01*
X29154001Y50738617D01*
X29170554Y50698651D01*
X29181750Y50656870D01*
X29187399Y50613980D01*
Y50592349D01*
Y50570721D01*
X29181750Y50527832D01*
X29170554Y50486047D01*
X29154001Y50446082D01*
X29132373Y50408618D01*
X29106036Y50374298D01*
X29075449Y50343710D01*
X29041129Y50317377D01*
X29003665Y50295746D01*
X28963699Y50279193D01*
X28921915Y50267996D01*
X28879028Y50262350D01*
X28857397D01*
D01*
D02*
G37*
G36*
X26736078Y54504993D02*
X26714447D01*
X26671558Y54510638D01*
X26629776Y54521832D01*
X26589810Y54538385D01*
X26552347Y54560016D01*
X26518027Y54586353D01*
X26487439Y54616937D01*
X26461102Y54651257D01*
X26439474Y54688721D01*
X26422919Y54728687D01*
X26411722Y54770471D01*
X26406076Y54813361D01*
Y54834991D01*
Y54856622D01*
X26411722Y54899506D01*
X26422919Y54941290D01*
X26439474Y54981256D01*
X26461102Y55018719D01*
X26487439Y55053040D01*
X26518027Y55083630D01*
X26552347Y55109967D01*
X26589810Y55131592D01*
X26629776Y55148151D01*
X26671558Y55159344D01*
X26714447Y55164990D01*
X26736078D01*
X26757706D01*
X26800595Y55159344D01*
X26842380Y55148151D01*
X26882346Y55131592D01*
X26919809Y55109967D01*
X26954129Y55083630D01*
X26984717Y55053040D01*
X27011050Y55018719D01*
X27032681Y54981256D01*
X27049234Y54941290D01*
X27060431Y54899506D01*
X27066077Y54856622D01*
Y54834991D01*
Y54813361D01*
X27060431Y54770471D01*
X27049234Y54728687D01*
X27032681Y54688721D01*
X27011050Y54651257D01*
X26984717Y54616937D01*
X26954129Y54586353D01*
X26919809Y54560016D01*
X26882346Y54538385D01*
X26842380Y54521832D01*
X26800595Y54510638D01*
X26757706Y54504993D01*
X26736078D01*
D01*
D02*
G37*
G36*
D02*
X26714447D01*
X26671558Y54510638D01*
X26629776Y54521832D01*
X26589810Y54538385D01*
X26552347Y54560016D01*
X26518027Y54586353D01*
X26487439Y54616937D01*
X26461102Y54651257D01*
X26439474Y54688721D01*
X26422919Y54728687D01*
X26411722Y54770471D01*
X26406076Y54813361D01*
Y54834991D01*
Y54856622D01*
X26411722Y54899506D01*
X26422919Y54941290D01*
X26439474Y54981256D01*
X26461102Y55018719D01*
X26487439Y55053040D01*
X26518027Y55083630D01*
X26552347Y55109967D01*
X26589810Y55131592D01*
X26629776Y55148151D01*
X26671558Y55159344D01*
X26714447Y55164990D01*
X26736078D01*
X26757706D01*
X26800595Y55159344D01*
X26842380Y55148151D01*
X26882346Y55131592D01*
X26919809Y55109967D01*
X26954129Y55083630D01*
X26984717Y55053040D01*
X27011050Y55018719D01*
X27032681Y54981256D01*
X27049234Y54941290D01*
X27060431Y54899506D01*
X27066077Y54856622D01*
Y54834991D01*
Y54813361D01*
X27060431Y54770471D01*
X27049234Y54728687D01*
X27032681Y54688721D01*
X27011050Y54651257D01*
X26984717Y54616937D01*
X26954129Y54586353D01*
X26919809Y54560016D01*
X26882346Y54538385D01*
X26842380Y54521832D01*
X26800595Y54510638D01*
X26757706Y54504993D01*
X26736078D01*
D01*
D02*
G37*
G36*
X23554097Y57686969D02*
X23532468D01*
X23489578Y57692615D01*
X23447794Y57703815D01*
X23407828Y57720367D01*
X23370364Y57741998D01*
X23336046Y57768335D01*
X23305457Y57798920D01*
X23279123Y57833240D01*
X23257494Y57870703D01*
X23240939Y57910669D01*
X23229742Y57952454D01*
X23224097Y57995343D01*
Y58016974D01*
Y58038599D01*
X23229742Y58081488D01*
X23240939Y58123273D01*
X23257494Y58163239D01*
X23279123Y58200702D01*
X23305457Y58235022D01*
X23336046Y58265613D01*
X23370364Y58291943D01*
X23407828Y58313574D01*
X23447794Y58330127D01*
X23489578Y58341327D01*
X23532468Y58346973D01*
X23554097D01*
X23575726D01*
X23618614Y58341327D01*
X23660399Y58330127D01*
X23700365Y58313574D01*
X23737828Y58291943D01*
X23772148Y58265613D01*
X23802736Y58235022D01*
X23829070Y58200702D01*
X23850700Y58163239D01*
X23867255Y58123273D01*
X23878450Y58081488D01*
X23884097Y58038599D01*
Y58016974D01*
Y57995343D01*
X23878450Y57952454D01*
X23867255Y57910669D01*
X23850700Y57870703D01*
X23829070Y57833240D01*
X23802736Y57798920D01*
X23772148Y57768335D01*
X23737828Y57741998D01*
X23700365Y57720367D01*
X23660399Y57703815D01*
X23618614Y57692615D01*
X23575726Y57686969D01*
X23554097D01*
D01*
D02*
G37*
G36*
X16483029Y50615903D02*
X16461400D01*
X16418510Y50621548D01*
X16376726Y50632745D01*
X16336760Y50649301D01*
X16299297Y50670929D01*
X16264978Y50697263D01*
X16234389Y50727853D01*
X16208055Y50762173D01*
X16186426Y50799634D01*
X16169872Y50839600D01*
X16158675Y50881384D01*
X16153029Y50924274D01*
Y50945901D01*
Y50967532D01*
X16158675Y51010422D01*
X16169872Y51052206D01*
X16186426Y51092172D01*
X16208055Y51129636D01*
X16234389Y51163953D01*
X16264978Y51194543D01*
X16299297Y51220874D01*
X16336760Y51242505D01*
X16376726Y51259064D01*
X16418510Y51270258D01*
X16461400Y51275903D01*
X16483029D01*
X16504659D01*
X16547546Y51270258D01*
X16589333Y51259064D01*
X16629297Y51242505D01*
X16666760Y51220874D01*
X16701080Y51194543D01*
X16731668Y51163953D01*
X16758003Y51129636D01*
X16779633Y51092172D01*
X16796185Y51052206D01*
X16807384Y51010422D01*
X16813029Y50967532D01*
Y50945901D01*
Y50924274D01*
X16807384Y50881384D01*
X16796185Y50839600D01*
X16779633Y50799634D01*
X16758003Y50762173D01*
X16731668Y50727853D01*
X16701080Y50697263D01*
X16666760Y50670929D01*
X16629297Y50649301D01*
X16589333Y50632745D01*
X16547546Y50621548D01*
X16504659Y50615903D01*
X16483029D01*
D01*
D02*
G37*
G36*
X20018562Y54151434D02*
X19996933D01*
X19954045Y54157080D01*
X19912260Y54168280D01*
X19872295Y54184833D01*
X19834831Y54206464D01*
X19800513Y54232800D01*
X19769923Y54263385D01*
X19743588Y54297705D01*
X19721960Y54335168D01*
X19705405Y54375134D01*
X19694209Y54416919D01*
X19688564Y54459808D01*
Y54481439D01*
Y54503064D01*
X19694209Y54545953D01*
X19705405Y54587738D01*
X19721960Y54627704D01*
X19743588Y54665167D01*
X19769923Y54699487D01*
X19800513Y54730078D01*
X19834831Y54756409D01*
X19872295Y54778040D01*
X19912260Y54794592D01*
X19954045Y54805792D01*
X19996933Y54811438D01*
X20018562D01*
X20040192D01*
X20083080Y54805792D01*
X20124866Y54794592D01*
X20164832Y54778040D01*
X20202293Y54756409D01*
X20236613Y54730078D01*
X20267203Y54699487D01*
X20293536Y54665167D01*
X20315166Y54627704D01*
X20331720Y54587738D01*
X20342915Y54545953D01*
X20348563Y54503064D01*
Y54481439D01*
Y54459808D01*
X20342915Y54416919D01*
X20331720Y54375134D01*
X20315166Y54335168D01*
X20293536Y54297705D01*
X20267203Y54263385D01*
X20236613Y54232800D01*
X20202293Y54206464D01*
X20164832Y54184833D01*
X20124866Y54168280D01*
X20083080Y54157080D01*
X20040192Y54151434D01*
X20018562D01*
D01*
D02*
G37*
G36*
X8300000Y38700000D02*
Y38714774D01*
X8305764Y38743753D01*
X8317072Y38771051D01*
X8333488Y38795618D01*
X8354381Y38816513D01*
X8378948Y38832928D01*
X8406247Y38844235D01*
X8435226Y38850000D01*
X8450000D01*
X8464774D01*
X8493753Y38844235D01*
X8521052Y38832928D01*
X8545619Y38816513D01*
X8566512Y38795618D01*
X8582928Y38771051D01*
X8594236Y38743753D01*
X8600000Y38714774D01*
Y38700000D01*
Y38685226D01*
X8594236Y38656247D01*
X8582928Y38628949D01*
X8566512Y38604379D01*
X8545619Y38583487D01*
X8521052Y38567072D01*
X8493753Y38555765D01*
X8464774Y38550000D01*
X8450000D01*
X8435226D01*
X8406247Y38555765D01*
X8378948Y38567072D01*
X8354381Y38583487D01*
X8333488Y38604379D01*
X8317072Y38628949D01*
X8305764Y38656247D01*
X8300000Y38685226D01*
Y38700000D01*
D01*
D02*
G37*
G36*
D02*
Y38714774D01*
X8305764Y38743753D01*
X8317072Y38771051D01*
X8333488Y38795618D01*
X8354381Y38816513D01*
X8378948Y38832928D01*
X8406247Y38844235D01*
X8435226Y38850000D01*
X8450000D01*
X8464774D01*
X8493753Y38844235D01*
X8521052Y38832928D01*
X8545619Y38816513D01*
X8566512Y38795618D01*
X8582928Y38771051D01*
X8594236Y38743753D01*
X8600000Y38714774D01*
Y38700000D01*
Y38685226D01*
X8594236Y38656247D01*
X8582928Y38628949D01*
X8566512Y38604379D01*
X8545619Y38583487D01*
X8521052Y38567072D01*
X8493753Y38555765D01*
X8464774Y38550000D01*
X8450000D01*
X8435226D01*
X8406247Y38555765D01*
X8378948Y38567072D01*
X8354381Y38583487D01*
X8333488Y38604379D01*
X8317072Y38628949D01*
X8305764Y38656247D01*
X8300000Y38685226D01*
Y38700000D01*
D01*
D02*
G37*
G36*
X2000000Y38350000D02*
X1985226D01*
X1956247Y38355765D01*
X1928948Y38367072D01*
X1904380Y38383487D01*
X1883487Y38404379D01*
X1867072Y38428949D01*
X1855764Y38456247D01*
X1850000Y38485226D01*
Y38500000D01*
Y38514774D01*
X1855764Y38543753D01*
X1867072Y38571051D01*
X1883487Y38595618D01*
X1904380Y38616513D01*
X1928948Y38632928D01*
X1956247Y38644235D01*
X1985226Y38650000D01*
X2000000D01*
X2014774D01*
X2043753Y38644235D01*
X2071051Y38632928D01*
X2095619Y38616513D01*
X2116512Y38595618D01*
X2132928Y38571051D01*
X2144235Y38543753D01*
X2150000Y38514774D01*
Y38500000D01*
Y38485226D01*
X2144235Y38456247D01*
X2132928Y38428949D01*
X2116512Y38404379D01*
X2095619Y38383487D01*
X2071051Y38367072D01*
X2043753Y38355765D01*
X2014774Y38350000D01*
X2000000D01*
D01*
D02*
G37*
G36*
X8450000Y32100000D02*
X8435226D01*
X8406247Y32105765D01*
X8378948Y32117072D01*
X8354381Y32133487D01*
X8333488Y32154379D01*
X8317072Y32178949D01*
X8305764Y32206247D01*
X8300000Y32235226D01*
Y32250000D01*
Y32264774D01*
X8305764Y32293753D01*
X8317072Y32321051D01*
X8333488Y32345618D01*
X8354381Y32366513D01*
X8378948Y32382928D01*
X8406247Y32394235D01*
X8435226Y32400000D01*
X8450000D01*
X8464774D01*
X8493753Y32394235D01*
X8521052Y32382928D01*
X8545619Y32366513D01*
X8566512Y32345618D01*
X8582928Y32321051D01*
X8594236Y32293753D01*
X8600000Y32264774D01*
Y32250000D01*
Y32235226D01*
X8594236Y32206247D01*
X8582928Y32178949D01*
X8566512Y32154379D01*
X8545619Y32133487D01*
X8521052Y32117072D01*
X8493753Y32105765D01*
X8464774Y32100000D01*
X8450000D01*
D01*
D02*
G37*
G36*
X2000000Y10350000D02*
X1985226D01*
X1956247Y10355764D01*
X1928948Y10367071D01*
X1904380Y10383487D01*
X1883487Y10404380D01*
X1867072Y10428948D01*
X1855764Y10456246D01*
X1850000Y10485226D01*
Y10500000D01*
Y10514773D01*
X1855764Y10543753D01*
X1867072Y10571051D01*
X1883487Y10595619D01*
X1904380Y10616512D01*
X1928948Y10632928D01*
X1956247Y10644235D01*
X1985226Y10650000D01*
X2000000D01*
X2014774D01*
X2043753Y10644235D01*
X2071051Y10632928D01*
X2095619Y10616512D01*
X2116512Y10595619D01*
X2132928Y10571051D01*
X2144235Y10543753D01*
X2150000Y10514773D01*
Y10500000D01*
Y10485226D01*
X2144235Y10456246D01*
X2132928Y10428948D01*
X2116512Y10404380D01*
X2095619Y10383487D01*
X2071051Y10367071D01*
X2043753Y10355764D01*
X2014774Y10350000D01*
X2000000D01*
D01*
D02*
G37*
G36*
Y30350000D02*
X1985226D01*
X1956247Y30355765D01*
X1928948Y30367072D01*
X1904380Y30383487D01*
X1883487Y30404379D01*
X1867072Y30428949D01*
X1855764Y30456247D01*
X1850000Y30485226D01*
Y30500000D01*
Y30514774D01*
X1855764Y30543753D01*
X1867072Y30571051D01*
X1883487Y30595618D01*
X1904380Y30616513D01*
X1928948Y30632928D01*
X1956247Y30644235D01*
X1985226Y30650000D01*
X2000000D01*
X2014774D01*
X2043753Y30644235D01*
X2071051Y30632928D01*
X2095619Y30616513D01*
X2116512Y30595618D01*
X2132928Y30571051D01*
X2144235Y30543753D01*
X2150000Y30514774D01*
Y30500000D01*
Y30485226D01*
X2144235Y30456247D01*
X2132928Y30428949D01*
X2116512Y30404379D01*
X2095619Y30383487D01*
X2071051Y30367072D01*
X2043753Y30355765D01*
X2014774Y30350000D01*
X2000000D01*
D01*
D02*
G37*
G36*
X1850000Y22500000D02*
Y22514774D01*
X1855764Y22543753D01*
X1867072Y22571051D01*
X1883487Y22595619D01*
X1904380Y22616512D01*
X1928948Y22632928D01*
X1956247Y22644235D01*
X1985226Y22650000D01*
X2000000D01*
X2014774D01*
X2043753Y22644235D01*
X2071051Y22632928D01*
X2095619Y22616512D01*
X2116512Y22595619D01*
X2132928Y22571051D01*
X2144235Y22543753D01*
X2150000Y22514774D01*
Y22500000D01*
Y22485226D01*
X2144235Y22456245D01*
X2132928Y22428947D01*
X2116512Y22404379D01*
X2095619Y22383487D01*
X2071051Y22367072D01*
X2043753Y22355763D01*
X2014774Y22350000D01*
X2000000D01*
X1985226D01*
X1956247Y22355763D01*
X1928948Y22367072D01*
X1904380Y22383487D01*
X1883487Y22404379D01*
X1867072Y22428947D01*
X1855764Y22456245D01*
X1850000Y22485226D01*
Y22500000D01*
D01*
D02*
G37*
%TF.MD5,7ded9e8c1d9c04f856e65f323020ec8f*%
M02*
