%TF.GenerationSoftware,Altium Limited,Altium Designer,23.9.2 (47)*%
G04 Layer_Color=65535*
%FSLAX45Y45*%
%MOMM*%
%TF.SameCoordinates,B27666AA-0A3C-4052-95A3-D01BD246DD82*%
%TF.FilePolarity,Positive*%
%TF.FileFunction,Legend,Top*%
%TF.Part,Single*%
G01*
G75*
%TA.AperFunction,NonConductor*%
%ADD17C,0.25400*%
G36*
X43238095Y35971429D02*
X43342856D01*
Y35919049D01*
X43447620D01*
Y35761905D01*
X43500000D01*
Y35709525D01*
X43447620D01*
Y35657144D01*
Y35604761D01*
Y35552380D01*
X43395239D01*
Y35500000D01*
X43290475D01*
Y35447620D01*
X43080951D01*
Y35500000D01*
X42976190D01*
Y35552380D01*
X42923810D01*
Y35709525D01*
X42871429D01*
Y35761905D01*
X42923810D01*
Y35866666D01*
X42976190D01*
Y35919049D01*
X43028571D01*
Y35971429D01*
X43133334D01*
Y36023810D01*
X43238095D01*
Y35971429D01*
D02*
G37*
G36*
X47323810Y35133334D02*
X47376190D01*
Y33404761D01*
X47323810D01*
Y33247620D01*
X47271429D01*
Y33142856D01*
X47219049D01*
Y33090475D01*
X47166666D01*
Y33038095D01*
X47114285D01*
Y32985715D01*
X47009525D01*
Y32933334D01*
X46904761D01*
Y32880954D01*
X46747620D01*
Y32828571D01*
X46276190D01*
Y32880954D01*
X46119049D01*
Y32933334D01*
X46014285D01*
Y32985715D01*
X45961905D01*
Y33038095D01*
X45857144D01*
Y33142856D01*
X45804761D01*
Y33195239D01*
X45752380D01*
Y33300000D01*
X45700000D01*
Y33509525D01*
X46171429D01*
Y33457144D01*
X46223810D01*
Y33352380D01*
X46276190D01*
Y33300000D01*
X46380951D01*
Y33247620D01*
X46642856D01*
Y33300000D01*
X46747620D01*
Y33352380D01*
X46800000D01*
Y33404761D01*
X46852380D01*
Y33561905D01*
X46904761D01*
Y33823810D01*
X46800000D01*
Y33771429D01*
X46747620D01*
Y33719049D01*
X46642856D01*
Y33666666D01*
X46485715D01*
Y33614285D01*
X46276190D01*
Y33666666D01*
X46119049D01*
Y33719049D01*
X46014285D01*
Y33771429D01*
X45909525D01*
Y33823810D01*
X45857144D01*
Y33876190D01*
X45804761D01*
Y33928571D01*
X45752380D01*
Y34033334D01*
X45700000D01*
Y34190475D01*
X45647620D01*
Y34609525D01*
X45700000D01*
Y34766666D01*
X45752380D01*
Y34871429D01*
X45804761D01*
Y34976190D01*
X45857144D01*
Y35028571D01*
X45961905D01*
Y35080951D01*
X46014285D01*
Y35133334D01*
X46171429D01*
Y35185715D01*
X46590475D01*
Y35133334D01*
X46695239D01*
Y35080951D01*
X46800000D01*
Y35028571D01*
X46904761D01*
Y35133334D01*
X46957144D01*
Y35185715D01*
X47323810D01*
Y35133334D01*
D02*
G37*
G36*
X45071429D02*
X45176190D01*
Y35080951D01*
X45228571D01*
Y35028571D01*
X45280951D01*
Y34923810D01*
X45333334D01*
Y33614285D01*
X44861905D01*
Y33666666D01*
X44809525D01*
Y34766666D01*
X44757144D01*
Y34819049D01*
X44495239D01*
Y34766666D01*
X44442856D01*
Y34714285D01*
X44390475D01*
Y34661905D01*
X44338095D01*
Y33614285D01*
X43866666D01*
Y35133334D01*
X43919049D01*
Y35185715D01*
X44338095D01*
Y35028571D01*
X44442856D01*
Y35080951D01*
X44495239D01*
Y35133334D01*
X44600000D01*
Y35185715D01*
X45071429D01*
Y35133334D01*
D02*
G37*
G36*
X51042856Y35657144D02*
X51095239D01*
Y35342856D01*
X51147620D01*
Y35028571D01*
X51200000D01*
Y34714285D01*
X51252380D01*
Y34347620D01*
X51304761D01*
Y34033334D01*
X51357141D01*
Y33614285D01*
X50780954D01*
Y33876190D01*
X50728571D01*
Y34347620D01*
X50676190D01*
Y34714285D01*
X50571429D01*
Y34661905D01*
X50519049D01*
Y34557144D01*
X50466666D01*
Y34504761D01*
X50414285D01*
Y34400000D01*
X50361905D01*
Y34347620D01*
X50309525D01*
Y34242856D01*
X50257144D01*
Y34138095D01*
X50204761D01*
Y34085715D01*
X50152380D01*
Y33980951D01*
X50100000D01*
Y33928571D01*
X50047620D01*
Y33876190D01*
X49995239D01*
Y33928571D01*
X49942856D01*
Y33980951D01*
X49890475D01*
Y34085715D01*
X49838095D01*
Y34138095D01*
X49785715D01*
Y34242856D01*
X49733334D01*
Y34295239D01*
X49680951D01*
Y34400000D01*
X49628571D01*
Y34452380D01*
X49576190D01*
Y34557144D01*
X49523810D01*
Y34609525D01*
X49471429D01*
Y34714285D01*
X49366666D01*
Y34347620D01*
X49314285D01*
Y33928571D01*
X49261905D01*
Y33666666D01*
X49209525D01*
Y33614285D01*
X48685715D01*
Y33980951D01*
X48738095D01*
Y34347620D01*
X48790475D01*
Y34714285D01*
X48842856D01*
Y35080951D01*
X48895239D01*
Y35395239D01*
X48947620D01*
Y35709525D01*
X49000000D01*
Y36023810D01*
X49104761D01*
Y35919049D01*
X49157144D01*
Y35866666D01*
X49209525D01*
Y35761905D01*
X49261905D01*
Y35709525D01*
X49314285D01*
Y35657144D01*
X49366666D01*
Y35552380D01*
X49419049D01*
Y35500000D01*
X49471429D01*
Y35395239D01*
X49523810D01*
Y35342856D01*
X49576190D01*
Y35238095D01*
X49628571D01*
Y35185715D01*
X49680951D01*
Y35133334D01*
X49733334D01*
Y35028571D01*
X49785715D01*
Y34976190D01*
X49838095D01*
Y34871429D01*
X49890475D01*
Y34819049D01*
X49942856D01*
Y34714285D01*
X49995239D01*
Y34661905D01*
X50047620D01*
Y34714285D01*
X50100000D01*
Y34819049D01*
X50152380D01*
Y34871429D01*
X50204761D01*
Y34976190D01*
X50257144D01*
Y35028571D01*
X50309525D01*
Y35133334D01*
X50361905D01*
Y35185715D01*
X50414285D01*
Y35290475D01*
X50466666D01*
Y35342856D01*
X50519049D01*
Y35395239D01*
X50571429D01*
Y35500000D01*
X50623810D01*
Y35552380D01*
X50676190D01*
Y35657144D01*
X50728571D01*
Y35709525D01*
X50780954D01*
Y35814285D01*
X50833334D01*
Y35866666D01*
X50885715D01*
Y35919049D01*
X50938095D01*
Y36023810D01*
X51042856D01*
Y35657144D01*
D02*
G37*
G36*
X54447620Y35919049D02*
X54500000D01*
Y34661905D01*
Y34609525D01*
Y33666666D01*
X54447620D01*
Y33614285D01*
X53923810D01*
Y33666666D01*
X53871429D01*
Y35919049D01*
X53923810D01*
Y35971429D01*
X54447620D01*
Y35919049D01*
D02*
G37*
G36*
X52771429D02*
X52980951D01*
Y35866666D01*
X53085712D01*
Y35814285D01*
X53190479D01*
Y35761905D01*
X53295239D01*
Y35709525D01*
X53347620D01*
Y35604761D01*
X53400000D01*
Y35500000D01*
X53452380D01*
Y35342856D01*
X53504761D01*
Y35028571D01*
X53452380D01*
Y34871429D01*
X53400000D01*
Y34766666D01*
X53347620D01*
Y34714285D01*
X53295239D01*
Y34661905D01*
X53242859D01*
Y34609525D01*
X53190479D01*
Y34557144D01*
X53085712D01*
Y34504761D01*
X53033331D01*
Y34452380D01*
X53085712D01*
Y34400000D01*
X53138092D01*
Y34295239D01*
X53190479D01*
Y34242856D01*
X53242859D01*
Y34190475D01*
X53295239D01*
Y34085715D01*
X53347620D01*
Y34033334D01*
X53400000D01*
Y33928571D01*
X53452380D01*
Y33876190D01*
X53504761D01*
Y33771429D01*
X53557141D01*
Y33719049D01*
X53609521D01*
Y33614285D01*
X52980951D01*
Y33666666D01*
X52928571D01*
Y33719049D01*
X52876190D01*
Y33823810D01*
X52823810D01*
Y33928571D01*
X52771429D01*
Y33980951D01*
X52719049D01*
Y34085715D01*
X52666669D01*
Y34138095D01*
X52614288D01*
Y34242856D01*
X52561908D01*
Y34347620D01*
X52509521D01*
Y34400000D01*
X52457141D01*
Y34452380D01*
X52352380D01*
Y34400000D01*
X52300000D01*
Y33614285D01*
X51776190D01*
Y33666666D01*
X51723810D01*
Y35919049D01*
X51776190D01*
Y35971429D01*
X52771429D01*
Y35919049D01*
D02*
G37*
G36*
X43395239Y35133334D02*
X43447620D01*
Y33666666D01*
X43395239D01*
Y33614285D01*
X42976190D01*
Y35185715D01*
X43395239D01*
Y35133334D01*
D02*
G37*
G36*
X41509525Y34661905D02*
X41561905D01*
Y34714285D01*
X41614285D01*
Y34766666D01*
X41666666D01*
Y34819049D01*
X41719049D01*
Y34871429D01*
X41771429D01*
Y34923810D01*
X41823810D01*
Y34976190D01*
X41876190D01*
Y35028571D01*
X41928571D01*
Y35080951D01*
X41980951D01*
Y35133334D01*
X42085715D01*
Y35185715D01*
X42609525D01*
Y35080951D01*
X42557144D01*
Y35028571D01*
X42504761D01*
Y34976190D01*
X42452380D01*
Y34923810D01*
X42400000D01*
Y34871429D01*
X42347620D01*
Y34819049D01*
X42295239D01*
Y34766666D01*
X42242856D01*
Y34714285D01*
X42190475D01*
Y34661905D01*
X42138095D01*
Y34609525D01*
X42085715D01*
Y34557144D01*
X42033334D01*
Y34452380D01*
X42085715D01*
Y34400000D01*
X42138095D01*
Y34347620D01*
X42190475D01*
Y34295239D01*
X42242856D01*
Y34190475D01*
X42295239D01*
Y34138095D01*
X42347620D01*
Y34085715D01*
X42400000D01*
Y33980951D01*
X42452380D01*
Y33928571D01*
X42504761D01*
Y33876190D01*
X42557144D01*
Y33823810D01*
X42609525D01*
Y33771429D01*
X42661905D01*
Y33666666D01*
X42714285D01*
Y33614285D01*
X42138095D01*
Y33666666D01*
X42085715D01*
Y33719049D01*
X42033334D01*
Y33771429D01*
X41980951D01*
Y33823810D01*
X41928571D01*
Y33928571D01*
X41876190D01*
Y33980951D01*
X41823810D01*
Y34033334D01*
X41771429D01*
Y34085715D01*
X41719049D01*
Y34190475D01*
X41666666D01*
Y34242856D01*
X41614285D01*
Y34295239D01*
X41561905D01*
Y34347620D01*
X41509525D01*
Y33614285D01*
X41038095D01*
Y34609525D01*
Y34661905D01*
Y36233334D01*
X41509525D01*
Y34661905D01*
D02*
G37*
G36*
X36638095Y40947620D02*
X36952380D01*
Y40895239D01*
X37161905D01*
Y40842856D01*
X37319049D01*
Y40790475D01*
X37476190D01*
Y40738095D01*
X37633334D01*
Y40685715D01*
X37738095D01*
Y40633334D01*
X37842856D01*
Y40580951D01*
X37947620D01*
Y40528571D01*
X38052380D01*
Y40476190D01*
X38104761D01*
Y40423810D01*
X38209525D01*
Y40371429D01*
X38261905D01*
Y40319049D01*
X38366666D01*
Y40266666D01*
X38419049D01*
Y40214285D01*
X38471429D01*
Y40161905D01*
X38576190D01*
Y40109525D01*
X38628571D01*
Y40057144D01*
X38680951D01*
Y40004761D01*
X38733334D01*
Y39952380D01*
X38785715D01*
Y39900000D01*
X38838095D01*
Y39847620D01*
X38890475D01*
Y39795239D01*
X38942856D01*
Y39742856D01*
X38995239D01*
Y39690475D01*
X39047620D01*
Y39585715D01*
X39100000D01*
Y39533334D01*
X39152380D01*
Y39480954D01*
X39204761D01*
Y39428571D01*
X39257144D01*
Y39323810D01*
X39309525D01*
Y39271429D01*
X39361905D01*
Y39166666D01*
X39414285D01*
Y39114285D01*
X39466666D01*
Y39009525D01*
X39519049D01*
Y38904761D01*
X39571429D01*
Y38800000D01*
X39623810D01*
Y38695239D01*
X39676190D01*
Y38590475D01*
X39728571D01*
Y38485715D01*
X39780951D01*
Y38328571D01*
X39833334D01*
Y38171429D01*
X39885715D01*
Y38014285D01*
X39938095D01*
Y37752380D01*
X39990475D01*
Y37438095D01*
X40042856D01*
Y36338095D01*
X39990475D01*
Y35971429D01*
X39938095D01*
Y35709525D01*
X39885715D01*
Y35500000D01*
X39833334D01*
Y35290475D01*
X39780951D01*
Y35185715D01*
X40304761D01*
Y35133334D01*
X40409525D01*
Y35080951D01*
X40514285D01*
Y35028571D01*
X40566666D01*
Y34976190D01*
X40619049D01*
Y34871429D01*
X40671429D01*
Y33614285D01*
X40200000D01*
Y33771429D01*
X40095239D01*
Y33719049D01*
X40042856D01*
Y33666666D01*
X39938095D01*
Y33614285D01*
X39466666D01*
Y33666666D01*
X39361905D01*
Y33719049D01*
X39257144D01*
Y33823810D01*
X39204761D01*
Y33876190D01*
X39100000D01*
Y33823810D01*
X39047620D01*
Y33719049D01*
X38995239D01*
Y33666666D01*
X38942856D01*
Y33614285D01*
X38890475D01*
Y33509525D01*
X38838095D01*
Y33457144D01*
X38785715D01*
Y33352380D01*
X38733334D01*
Y33300000D01*
X38680951D01*
Y33247620D01*
X38628571D01*
Y33195239D01*
X38576190D01*
Y33142856D01*
X38523810D01*
Y33090475D01*
X38471429D01*
Y33038095D01*
X38419049D01*
Y32933334D01*
X38366666D01*
Y32880954D01*
X38314285D01*
Y32828571D01*
X38261905D01*
Y32776190D01*
X38209525D01*
Y32723810D01*
X38157144D01*
Y32671429D01*
X38052380D01*
Y32619049D01*
X38000000D01*
Y32566666D01*
X37947620D01*
Y32514285D01*
X37895239D01*
Y32461905D01*
X37842856D01*
Y32409525D01*
X37790475D01*
Y32357144D01*
X37738095D01*
Y32304761D01*
X37685715D01*
Y32252380D01*
X37633334D01*
Y31309525D01*
X37685715D01*
Y31257144D01*
X37738095D01*
Y31204761D01*
X38000000D01*
Y31152380D01*
X38104761D01*
Y31100000D01*
X38157144D01*
Y30680951D01*
X38052380D01*
Y30733334D01*
X38000000D01*
Y30785715D01*
X37842856D01*
Y30838095D01*
X37685715D01*
Y30680951D01*
X37633334D01*
Y30052380D01*
X37895239D01*
Y30104761D01*
X38000000D01*
Y30157144D01*
X38104761D01*
Y30209525D01*
X38157144D01*
Y29738095D01*
X38052380D01*
Y29685715D01*
X37947620D01*
Y29633334D01*
X37580954D01*
Y29423810D01*
X37528571D01*
Y29266666D01*
X37476190D01*
Y29109525D01*
X37423810D01*
Y29004761D01*
X37371429D01*
Y28847620D01*
X37319049D01*
Y28742856D01*
X37266666D01*
Y28638095D01*
X37214285D01*
Y28585715D01*
X37161905D01*
Y28480951D01*
X37109525D01*
Y28428571D01*
X37057144D01*
Y28376190D01*
X37004761D01*
Y28323810D01*
X36952380D01*
Y28271429D01*
X36900000D01*
Y28219049D01*
X36847620D01*
Y28114285D01*
X36742856D01*
Y28061905D01*
X36690475D01*
Y28009525D01*
X36638095D01*
Y27957144D01*
X36585715D01*
Y27904761D01*
X36480951D01*
Y27852380D01*
X36428571D01*
Y27800000D01*
X36323810D01*
Y27747620D01*
X36271429D01*
Y27695239D01*
X36166666D01*
Y27642856D01*
X36061905D01*
Y27590475D01*
X35904761D01*
Y27538095D01*
X35747620D01*
Y27485715D01*
X35590475D01*
Y27433334D01*
X35380951D01*
Y27380951D01*
X35171429D01*
Y27328571D01*
X34857144D01*
Y27276190D01*
X34438095D01*
Y27223810D01*
X34333334D01*
Y27119049D01*
X34280954D01*
Y27066666D01*
X34228571D01*
Y27014285D01*
X34176190D01*
Y26909525D01*
X34123810D01*
Y26857144D01*
X34071429D01*
Y26804761D01*
X34019049D01*
Y26752380D01*
X33966666D01*
Y26647620D01*
X33914285D01*
Y26595239D01*
X33861905D01*
Y26542856D01*
X33809525D01*
Y26490475D01*
X33757144D01*
Y26438095D01*
X33704761D01*
Y26385715D01*
X33652380D01*
Y26333334D01*
X33600000D01*
Y26280954D01*
X33547620D01*
Y26228571D01*
X33495239D01*
Y26176190D01*
X33442856D01*
Y26071429D01*
X33338095D01*
Y26019049D01*
X33285715D01*
Y25966666D01*
X33233334D01*
Y25914285D01*
X33180951D01*
Y25861905D01*
X33128571D01*
Y25809525D01*
X33076190D01*
Y25757144D01*
X33023810D01*
Y25704761D01*
X32971429D01*
Y25652380D01*
X32866666D01*
Y25704761D01*
X32814285D01*
Y25652380D01*
X32866666D01*
Y25600000D01*
X32814285D01*
Y25652380D01*
X32604761D01*
Y25704761D01*
X32500000D01*
Y25757144D01*
X32657144D01*
Y25861905D01*
X32761905D01*
Y25914285D01*
X32814285D01*
Y25966666D01*
X32866666D01*
Y26019049D01*
X32919049D01*
Y26071429D01*
X32971429D01*
Y26123810D01*
X33023810D01*
Y26176190D01*
X33076190D01*
Y26228571D01*
X33128571D01*
Y26280954D01*
X33180951D01*
Y26333334D01*
X33233334D01*
Y26385715D01*
X33285715D01*
Y26438095D01*
X33338095D01*
Y26490475D01*
X33390475D01*
Y26542856D01*
X33442856D01*
Y26595239D01*
X33495239D01*
Y26647620D01*
X33547620D01*
Y26700000D01*
X33600000D01*
Y26752380D01*
X33652380D01*
Y26857144D01*
X33704761D01*
Y26909525D01*
X33757144D01*
Y26961905D01*
X33809525D01*
Y27014285D01*
X33861905D01*
Y27066666D01*
X33914285D01*
Y27171429D01*
X33966666D01*
Y27223810D01*
X33861905D01*
Y27276190D01*
X33285715D01*
Y27328571D01*
X32919049D01*
Y27380951D01*
X32657144D01*
Y27433334D01*
X32447620D01*
Y27485715D01*
X32238095D01*
Y27538095D01*
X31976190D01*
Y27590475D01*
X31819049D01*
Y27642856D01*
X31661905D01*
Y27695239D01*
X31557144D01*
Y27747620D01*
X31452380D01*
Y27800000D01*
X31295239D01*
Y27852380D01*
X31190475D01*
Y27904761D01*
X31085715D01*
Y27957144D01*
X30980954D01*
Y28009525D01*
X30876190D01*
Y28061905D01*
X30771429D01*
Y28114285D01*
X30666666D01*
Y28166666D01*
X30614285D01*
Y28219049D01*
X30509525D01*
Y28271429D01*
X30404761D01*
Y28323810D01*
X30300000D01*
Y28376190D01*
X30247620D01*
Y28428571D01*
X30142856D01*
Y28480951D01*
X30090475D01*
Y28533334D01*
X30038095D01*
Y28585715D01*
X29933334D01*
Y28638095D01*
X29880951D01*
Y28690475D01*
X29776190D01*
Y28742856D01*
X29723810D01*
Y28795239D01*
X29671429D01*
Y28847620D01*
X29619049D01*
Y28900000D01*
X29566666D01*
Y28952380D01*
X29514285D01*
Y29004761D01*
X29409525D01*
Y29057144D01*
X29357144D01*
Y29109525D01*
X29304761D01*
Y29161905D01*
X29252380D01*
Y29214285D01*
X29200000D01*
Y29266666D01*
X29147620D01*
Y29319049D01*
X29095239D01*
Y29371429D01*
X29042856D01*
Y29423810D01*
X28990475D01*
Y29476190D01*
X28938095D01*
Y29528571D01*
X28885715D01*
Y29580954D01*
X28833334D01*
Y29685715D01*
X28780951D01*
Y29738095D01*
X28728571D01*
Y29790475D01*
X28676190D01*
Y29895239D01*
X28623810D01*
Y29947620D01*
X28571429D01*
Y30000000D01*
X28519049D01*
Y30104761D01*
X28466666D01*
Y30157144D01*
X28414285D01*
Y30209525D01*
Y30261905D01*
X28361905D01*
Y30314285D01*
X28309525D01*
Y30419049D01*
X28257144D01*
Y30523810D01*
X28204761D01*
Y30576190D01*
X28152380D01*
Y30680951D01*
X28100000D01*
Y30785715D01*
X28047620D01*
Y30942856D01*
X27995239D01*
Y31047620D01*
X27942856D01*
Y31204761D01*
X27890475D01*
Y31361905D01*
X27838095D01*
Y31571429D01*
X27785715D01*
Y31780951D01*
X27733334D01*
Y31990475D01*
X27680954D01*
Y32252380D01*
X27628571D01*
Y32671429D01*
X27576190D01*
Y33142856D01*
X27471429D01*
Y32985715D01*
X27419049D01*
Y32880954D01*
X27366666D01*
Y32723810D01*
X27314285D01*
Y32514285D01*
X27261905D01*
Y32357144D01*
X27209525D01*
Y32147620D01*
X27157144D01*
Y31938095D01*
X27104761D01*
Y31623810D01*
X27052380D01*
Y31204761D01*
X27000000D01*
Y29423810D01*
X27052380D01*
Y28952380D01*
X27104761D01*
Y28690475D01*
X27157144D01*
Y28480951D01*
X27209525D01*
Y28271429D01*
X27261905D01*
Y28061905D01*
X27314285D01*
Y27852380D01*
X27366666D01*
Y27695239D01*
X27419049D01*
Y27590475D01*
X27471429D01*
Y27433334D01*
X27523810D01*
Y27328571D01*
X27576190D01*
Y27223810D01*
X27628571D01*
Y27119049D01*
X27680954D01*
Y27014285D01*
X27733334D01*
Y26961905D01*
X27785715D01*
Y26857144D01*
X27838095D01*
Y26804761D01*
X27890475D01*
Y26700000D01*
X27942856D01*
Y26647620D01*
X27995239D01*
Y26595239D01*
X28047620D01*
Y26490475D01*
X28100000D01*
Y26438095D01*
X28152380D01*
Y26385715D01*
X28204761D01*
Y26280954D01*
X28257144D01*
Y26228571D01*
X28309525D01*
Y26176190D01*
X28361905D01*
Y26123810D01*
X28414285D01*
Y26071429D01*
X28466666D01*
Y26019049D01*
X28519049D01*
Y25966666D01*
X28466666D01*
Y26019049D01*
X28414285D01*
Y26071429D01*
X28361905D01*
Y25966666D01*
X28414285D01*
Y25914285D01*
X28519049D01*
Y25861905D01*
X28571429D01*
Y25914285D01*
X28623810D01*
Y25861905D01*
X28676190D01*
Y25809525D01*
X28728571D01*
Y25704761D01*
X28780951D01*
Y25652380D01*
X28885715D01*
Y25600000D01*
X28938095D01*
Y25547620D01*
X28885715D01*
Y25600000D01*
X28780951D01*
Y25652380D01*
X28676190D01*
Y25704761D01*
X28623810D01*
Y25757144D01*
X28676190D01*
Y25809525D01*
X28571429D01*
Y25757144D01*
X28519049D01*
Y25809525D01*
X28466666D01*
Y25861905D01*
X28361905D01*
Y25914285D01*
X28309525D01*
Y26019049D01*
X28204761D01*
Y25966666D01*
X28257144D01*
Y25914285D01*
X28309525D01*
Y25861905D01*
X28361905D01*
Y25809525D01*
X28414285D01*
Y25704761D01*
X28466666D01*
Y25652380D01*
X28414285D01*
Y25704761D01*
X28361905D01*
Y25757144D01*
X28309525D01*
Y25809525D01*
X28257144D01*
Y25861905D01*
X28204761D01*
Y25914285D01*
X28152380D01*
Y25966666D01*
X28100000D01*
Y26019049D01*
X28047620D01*
Y26176190D01*
X27942856D01*
Y26228571D01*
X27890475D01*
Y26333334D01*
X27838095D01*
Y26385715D01*
X27785715D01*
Y26438095D01*
X27733334D01*
Y26490475D01*
X27680954D01*
Y26595239D01*
X27628571D01*
Y26647620D01*
X27576190D01*
Y26700000D01*
X27523810D01*
Y26804761D01*
X27471429D01*
Y26857144D01*
X27419049D01*
Y27014285D01*
X27366666D01*
Y27066666D01*
X27314285D01*
Y27171429D01*
X27261905D01*
Y27276190D01*
X27209525D01*
Y27433334D01*
X27157144D01*
Y27538095D01*
X27104761D01*
Y27642856D01*
X27052380D01*
Y27800000D01*
X27000000D01*
Y27957144D01*
X26947620D01*
Y28166666D01*
X26895239D01*
Y28376190D01*
X26842856D01*
Y28585715D01*
X26790475D01*
Y28900000D01*
X26738095D01*
Y29319049D01*
X26685715D01*
Y30000000D01*
X26633334D01*
Y30733334D01*
X26685715D01*
Y31466666D01*
X26738095D01*
Y31885715D01*
X26790475D01*
Y32147620D01*
X26842856D01*
Y32357144D01*
X26895239D01*
Y32619049D01*
X26947620D01*
Y32776190D01*
X27000000D01*
Y32933334D01*
X27052380D01*
Y33038095D01*
X27104761D01*
Y33195239D01*
X27157144D01*
Y33300000D01*
X27209525D01*
Y33457144D01*
X27261905D01*
Y33561905D01*
X27314285D01*
Y33666666D01*
X27366666D01*
Y33719049D01*
X27419049D01*
Y33823810D01*
X27471429D01*
Y33928571D01*
X27523810D01*
Y33980951D01*
X27576190D01*
Y34085715D01*
X27628571D01*
Y34242856D01*
X27680954D01*
Y34504761D01*
X27733334D01*
Y34714285D01*
X27785715D01*
Y34923810D01*
X27838095D01*
Y35080951D01*
X27890475D01*
Y35238095D01*
X27942856D01*
Y35395239D01*
X27995239D01*
Y35552380D01*
X28047620D01*
Y35657144D01*
X28100000D01*
Y35761905D01*
X28152380D01*
Y35866666D01*
X28204761D01*
Y35971429D01*
X28257144D01*
Y36076190D01*
X28309525D01*
Y36180954D01*
X28361905D01*
Y36285715D01*
X28414285D01*
Y36338095D01*
X28466666D01*
Y36442856D01*
X28519049D01*
Y36495239D01*
X28571429D01*
Y36600000D01*
X28623810D01*
Y36652380D01*
X28676190D01*
Y36757144D01*
X28728571D01*
Y36809525D01*
X28780951D01*
Y36914285D01*
X28833334D01*
Y36966666D01*
X28885715D01*
Y37019049D01*
X28938095D01*
Y37123810D01*
X28990475D01*
Y37176190D01*
X29042856D01*
Y37228571D01*
X29095239D01*
Y37280951D01*
X29147620D01*
Y37385715D01*
X29200000D01*
Y37438095D01*
X29252380D01*
Y37490475D01*
X29304761D01*
Y37542856D01*
X29357144D01*
Y37595239D01*
X29409525D01*
Y37647620D01*
X29461905D01*
Y37700000D01*
X29514285D01*
Y37752380D01*
X29566666D01*
Y37804761D01*
X29619049D01*
Y37857144D01*
X29671429D01*
Y37909525D01*
X29723810D01*
Y37961905D01*
X29776190D01*
Y38014285D01*
X29828571D01*
Y38066666D01*
X29880951D01*
Y38119049D01*
X29933334D01*
Y38171429D01*
X29985715D01*
Y38223810D01*
X30038095D01*
Y38276190D01*
X30090475D01*
Y38328571D01*
X30142856D01*
Y38380951D01*
X30195239D01*
Y38433334D01*
X30300000D01*
Y38485715D01*
X30352380D01*
Y38538095D01*
X30404761D01*
Y38590475D01*
X30457144D01*
Y38642856D01*
X30561905D01*
Y38695239D01*
X30614285D01*
Y38747620D01*
X30666666D01*
Y38800000D01*
X30719049D01*
Y38852380D01*
X30823810D01*
Y38904761D01*
X30876190D01*
Y38957144D01*
X30928571D01*
Y39009525D01*
X31033334D01*
Y39061905D01*
X31085715D01*
Y39114285D01*
X31190475D01*
Y39166666D01*
X31242856D01*
Y39219049D01*
X31347620D01*
Y39271429D01*
X31400000D01*
Y39323810D01*
X31504761D01*
Y39376190D01*
X31609525D01*
Y39428571D01*
X31661905D01*
Y39480954D01*
X31766666D01*
Y39533334D01*
X31871429D01*
Y39585715D01*
X31976190D01*
Y39638095D01*
X32028571D01*
Y39690475D01*
X32133334D01*
Y39742856D01*
X32238095D01*
Y39795239D01*
X32342856D01*
Y39847620D01*
X32447620D01*
Y39900000D01*
X32552380D01*
Y39952380D01*
X32657144D01*
Y40004761D01*
X32761905D01*
Y40057144D01*
X32866666D01*
Y40109525D01*
X32971429D01*
Y40161905D01*
X33128571D01*
Y40214285D01*
X33233334D01*
Y40266666D01*
X33390475D01*
Y40319049D01*
X33495239D01*
Y40371429D01*
X33652380D01*
Y40423810D01*
X33809525D01*
Y40476190D01*
X33966666D01*
Y40528571D01*
X34071429D01*
Y40580951D01*
X34280954D01*
Y40633334D01*
X34438095D01*
Y40685715D01*
X34647620D01*
Y40738095D01*
X34857144D01*
Y40790475D01*
X35066666D01*
Y40842856D01*
X35276190D01*
Y40895239D01*
X35538095D01*
Y40947620D01*
X35957144D01*
Y41000000D01*
X36638095D01*
Y40947620D01*
D02*
G37*
G36*
X43814285Y31990475D02*
X43919049D01*
Y31938095D01*
X43971429D01*
Y31833334D01*
X44023810D01*
Y31676190D01*
X43971429D01*
Y31571429D01*
X43919049D01*
Y31519049D01*
X43761905D01*
Y31466666D01*
X43657144D01*
Y31519049D01*
X43552380D01*
Y31571429D01*
X43500000D01*
Y31623810D01*
X43447620D01*
Y31728571D01*
X43395239D01*
Y31833334D01*
X43447620D01*
Y31885715D01*
Y31938095D01*
X43500000D01*
Y31990475D01*
X43604761D01*
Y32042856D01*
X43814285D01*
Y31990475D01*
D02*
G37*
G36*
X52090479Y31204761D02*
X52352380D01*
Y31152380D01*
X52457141D01*
Y31100000D01*
X52561908D01*
Y31047620D01*
X52614288D01*
Y30995239D01*
X52666669D01*
Y30942856D01*
X52719049D01*
Y30838095D01*
X52771429D01*
Y30785715D01*
X52823810D01*
Y30628571D01*
X52876190D01*
Y30261905D01*
X52823810D01*
Y30104761D01*
X52771429D01*
Y30000000D01*
X52719049D01*
Y29947620D01*
X52666669D01*
Y29895239D01*
X52614288D01*
Y29842856D01*
X52561908D01*
Y29790475D01*
X52509521D01*
Y29738095D01*
X52404761D01*
Y29685715D01*
X52247620D01*
Y29633334D01*
X51776190D01*
Y29685715D01*
X51566669D01*
Y29738095D01*
X51461908D01*
Y29790475D01*
X51409521D01*
Y29842856D01*
X51357141D01*
Y29895239D01*
X51304761D01*
Y29947620D01*
X51252380D01*
Y30052380D01*
X51200000D01*
Y30104761D01*
X51147620D01*
Y30314285D01*
X51095239D01*
Y30523810D01*
X51147620D01*
Y30733334D01*
X51200000D01*
Y30838095D01*
X51252380D01*
Y30890475D01*
X51304761D01*
Y30995239D01*
X51357141D01*
Y31047620D01*
X51461908D01*
Y31100000D01*
X51514288D01*
Y31152380D01*
X51671429D01*
Y31204761D01*
X51880951D01*
Y31257144D01*
X51985712D01*
Y31204761D01*
X52038092D01*
Y31257144D01*
X52090479D01*
Y31204761D01*
D02*
G37*
G36*
X42557144D02*
X42766666D01*
Y31152380D01*
X42923810D01*
Y31100000D01*
X43028571D01*
Y31047620D01*
X43080951D01*
Y30890475D01*
X43028571D01*
Y30785715D01*
X42976190D01*
Y30680951D01*
X42871429D01*
Y30733334D01*
X42819049D01*
Y30785715D01*
X42714285D01*
Y30838095D01*
X42557144D01*
Y30890475D01*
X42452380D01*
Y30838095D01*
X42347620D01*
Y30733334D01*
X42400000D01*
Y30680951D01*
X42504761D01*
Y30628571D01*
X42609525D01*
Y30576190D01*
X42766666D01*
Y30523810D01*
X42871429D01*
Y30471429D01*
X42976190D01*
Y30419049D01*
X43028571D01*
Y30366666D01*
X43080951D01*
Y30314285D01*
X43133334D01*
Y29842856D01*
X43080951D01*
Y29790475D01*
X43028571D01*
Y29738095D01*
X42976190D01*
Y29685715D01*
X42871429D01*
Y29633334D01*
X42661905D01*
Y29580954D01*
X42452380D01*
Y29633334D01*
X42190475D01*
Y29685715D01*
X42085715D01*
Y29738095D01*
X41980951D01*
Y29790475D01*
X41876190D01*
Y29842856D01*
X41823810D01*
Y30000000D01*
X41876190D01*
Y30104761D01*
X41928571D01*
Y30157144D01*
X41980951D01*
Y30209525D01*
X42033334D01*
Y30157144D01*
X42138095D01*
Y30104761D01*
X42190475D01*
Y30052380D01*
X42295239D01*
Y30000000D01*
X42609525D01*
Y30052380D01*
X42661905D01*
Y30104761D01*
X42609525D01*
Y30209525D01*
X42504761D01*
Y30261905D01*
X42400000D01*
Y30314285D01*
X42242856D01*
Y30366666D01*
X42138095D01*
Y30419049D01*
X42033334D01*
Y30471429D01*
X41980951D01*
Y30576190D01*
X41928571D01*
Y30680951D01*
X41876190D01*
Y30890475D01*
X41928571D01*
Y30995239D01*
X41980951D01*
Y31100000D01*
X42085715D01*
Y31152380D01*
X42190475D01*
Y31204761D01*
X42400000D01*
Y31257144D01*
X42557144D01*
Y31204761D01*
D02*
G37*
G36*
X40985715D02*
X41300000D01*
Y31152380D01*
X41404761D01*
Y31100000D01*
X41509525D01*
Y31047620D01*
X41614285D01*
Y30942856D01*
X41561905D01*
Y30838095D01*
X41509525D01*
Y30733334D01*
X41457144D01*
Y30680951D01*
X41404761D01*
Y30733334D01*
X41300000D01*
Y30785715D01*
X41247620D01*
Y30838095D01*
X41090475D01*
Y30890475D01*
X40933334D01*
Y30838095D01*
X40880954D01*
Y30680951D01*
X40985715D01*
Y30628571D01*
X41142856D01*
Y30576190D01*
X41247620D01*
Y30523810D01*
X41352380D01*
Y30471429D01*
X41457144D01*
Y30419049D01*
X41509525D01*
Y30366666D01*
X41561905D01*
Y30314285D01*
X41614285D01*
Y30157144D01*
X41666666D01*
Y30000000D01*
X41614285D01*
Y29842856D01*
X41561905D01*
Y29738095D01*
X41457144D01*
Y29685715D01*
X41404761D01*
Y29633334D01*
X41195239D01*
Y29580954D01*
X40933334D01*
Y29633334D01*
X40723810D01*
Y29685715D01*
X40566666D01*
Y29738095D01*
X40461905D01*
Y29790475D01*
X40409525D01*
Y29842856D01*
X40304761D01*
Y29947620D01*
X40357144D01*
Y30052380D01*
X40409525D01*
Y30157144D01*
X40461905D01*
Y30209525D01*
X40566666D01*
Y30157144D01*
X40619049D01*
Y30104761D01*
X40723810D01*
Y30052380D01*
X40828571D01*
Y30000000D01*
X41090475D01*
Y30052380D01*
X41142856D01*
Y30157144D01*
X41090475D01*
Y30209525D01*
X41038095D01*
Y30261905D01*
X40880954D01*
Y30314285D01*
X40723810D01*
Y30366666D01*
X40619049D01*
Y30419049D01*
X40566666D01*
Y30471429D01*
X40514285D01*
Y30523810D01*
X40461905D01*
Y30576190D01*
X40409525D01*
Y30995239D01*
X40461905D01*
Y31047620D01*
X40514285D01*
Y31100000D01*
X40566666D01*
Y31152380D01*
X40671429D01*
Y31204761D01*
X40933334D01*
Y31257144D01*
X40985715D01*
Y31204761D01*
D02*
G37*
G36*
X55076190D02*
X55233331D01*
Y31152380D01*
X55338092D01*
Y31100000D01*
X55442859D01*
Y31047620D01*
X55495239D01*
Y30942856D01*
X55547620D01*
Y30785715D01*
X55600000D01*
Y29685715D01*
X55076190D01*
Y29790475D01*
X55023810D01*
Y29738095D01*
X54919049D01*
Y29685715D01*
X54814288D01*
Y29633334D01*
X54395239D01*
Y29685715D01*
X54290479D01*
Y29738095D01*
X54185712D01*
Y29790475D01*
X54133331D01*
Y29842856D01*
X54080951D01*
Y30000000D01*
X54028571D01*
Y30209525D01*
X54080951D01*
Y30366666D01*
X54133331D01*
Y30419049D01*
X54185712D01*
Y30471429D01*
X54238092D01*
Y30523810D01*
X54342859D01*
Y30576190D01*
X54971429D01*
Y30523810D01*
X55076190D01*
Y30785715D01*
X54971429D01*
Y30838095D01*
X54552380D01*
Y30785715D01*
X54395239D01*
Y30733334D01*
X54290479D01*
Y30838095D01*
X54238092D01*
Y30942856D01*
X54185712D01*
Y30995239D01*
Y31100000D01*
X54290479D01*
Y31152380D01*
X54447620D01*
Y31204761D01*
X54709521D01*
Y31257144D01*
X55076190D01*
Y31204761D01*
D02*
G37*
G36*
X57328571Y29685715D02*
X56804761D01*
Y29947620D01*
Y30000000D01*
Y32252380D01*
X57328571D01*
Y29685715D01*
D02*
G37*
G36*
X56438092D02*
X55914288D01*
Y30523810D01*
Y30576190D01*
Y32252380D01*
X56438092D01*
Y29685715D01*
D02*
G37*
G36*
X50728571Y31204761D02*
X50990475D01*
Y30785715D01*
X50728571D01*
Y29685715D01*
X50257144D01*
Y30733334D01*
X50204761D01*
Y30785715D01*
X49995239D01*
Y30838095D01*
Y31204761D01*
X50204761D01*
Y31257144D01*
X50257144D01*
Y31728571D01*
X50728571D01*
Y31204761D01*
D02*
G37*
G36*
X46852380Y30052380D02*
Y30000000D01*
Y29685715D01*
X46380951D01*
Y32252380D01*
X46852380D01*
Y30052380D01*
D02*
G37*
G36*
X43919049Y31152380D02*
X43971429D01*
Y30680951D01*
Y30628571D01*
Y29685715D01*
X43500000D01*
Y30995239D01*
X43447620D01*
Y31100000D01*
X43500000D01*
Y31204761D01*
X43919049D01*
Y31152380D01*
D02*
G37*
G36*
X48161905Y31204761D02*
X48423810D01*
Y31152380D01*
X48528571D01*
Y31100000D01*
X48633334D01*
Y31047620D01*
X48685715D01*
Y30995239D01*
X48738095D01*
Y30890475D01*
X48790475D01*
Y30785715D01*
X48842856D01*
Y30576190D01*
X48895239D01*
Y30314285D01*
X47742856D01*
Y30157144D01*
X47795239D01*
Y30104761D01*
X47847620D01*
Y30052380D01*
X47900000D01*
Y30000000D01*
X48214285D01*
Y30052380D01*
X48319049D01*
Y30104761D01*
X48371429D01*
Y30157144D01*
X48423810D01*
Y30209525D01*
X48528571D01*
Y30157144D01*
X48738095D01*
Y30104761D01*
X48842856D01*
Y30000000D01*
X48790475D01*
Y29895239D01*
X48738095D01*
Y29842856D01*
X48685715D01*
Y29790475D01*
X48580951D01*
Y29738095D01*
X48476190D01*
Y29685715D01*
X48319049D01*
Y29633334D01*
X47795239D01*
Y29685715D01*
X47638095D01*
Y29738095D01*
X47533334D01*
Y29790475D01*
X47480954D01*
Y29842856D01*
X47428571D01*
Y29895239D01*
X47376190D01*
Y29947620D01*
X47323810D01*
Y30000000D01*
X47271429D01*
Y30104761D01*
X47219049D01*
Y30733334D01*
X47271429D01*
Y30838095D01*
X47323810D01*
Y30942856D01*
X47376190D01*
Y30995239D01*
X47428571D01*
Y31047620D01*
X47480954D01*
Y31100000D01*
X47585715D01*
Y31152380D01*
X47690475D01*
Y31204761D01*
X48004761D01*
Y31257144D01*
X48161905D01*
Y31204761D01*
D02*
G37*
G36*
X44861905Y31047620D02*
X44914285D01*
Y31100000D01*
X45019049D01*
Y31152380D01*
X45071429D01*
Y31204761D01*
X45333334D01*
Y31257144D01*
X45385715D01*
Y31204761D01*
X45595239D01*
Y31152380D01*
X45700000D01*
Y31100000D01*
X45804761D01*
Y31047620D01*
X45857144D01*
Y30995239D01*
X45909525D01*
Y30942856D01*
X45961905D01*
Y30838095D01*
X46014285D01*
Y30733334D01*
X46066666D01*
Y30157144D01*
X46014285D01*
Y30000000D01*
X45961905D01*
Y29947620D01*
X45909525D01*
Y29842856D01*
X45857144D01*
Y29790475D01*
X45752380D01*
Y29738095D01*
X45700000D01*
Y29685715D01*
X45542856D01*
Y29633334D01*
X45176190D01*
Y29685715D01*
X45019049D01*
Y29738095D01*
X44966666D01*
Y29790475D01*
X44914285D01*
Y29842856D01*
X44861905D01*
Y29685715D01*
X44338095D01*
Y32252380D01*
X44861905D01*
Y31047620D01*
D02*
G37*
G36*
X39361905Y31204761D02*
X39623810D01*
Y31152380D01*
X39780951D01*
Y31100000D01*
X39833334D01*
Y31047620D01*
X39885715D01*
Y30995239D01*
X39938095D01*
Y30942856D01*
X39990475D01*
Y30890475D01*
X40042856D01*
Y30733334D01*
X40095239D01*
Y30314285D01*
X38942856D01*
Y30209525D01*
X38995239D01*
Y30104761D01*
X39047620D01*
Y30052380D01*
X39152380D01*
Y30000000D01*
X39414285D01*
Y30052380D01*
X39571429D01*
Y30104761D01*
X39623810D01*
Y30157144D01*
X39676190D01*
Y30209525D01*
X39728571D01*
Y30157144D01*
X39938095D01*
Y30104761D01*
X40095239D01*
Y30000000D01*
X40042856D01*
Y29947620D01*
X39990475D01*
Y29895239D01*
X39938095D01*
Y29842856D01*
X39885715D01*
Y29790475D01*
X39833334D01*
Y29738095D01*
X39728571D01*
Y29685715D01*
X39571429D01*
Y29633334D01*
X39047620D01*
Y29685715D01*
X38890475D01*
Y29738095D01*
X38785715D01*
Y29790475D01*
X38680951D01*
Y29842856D01*
X38628571D01*
Y29895239D01*
X38576190D01*
Y30000000D01*
X38523810D01*
Y30052380D01*
X38471429D01*
Y30209525D01*
X38419049D01*
Y30628571D01*
X38471429D01*
Y30733334D01*
Y30785715D01*
X38523810D01*
Y30890475D01*
X38576190D01*
Y30942856D01*
X38628571D01*
Y30995239D01*
X38680951D01*
Y31047620D01*
X38733334D01*
Y31100000D01*
X38785715D01*
Y31152380D01*
X38942856D01*
Y31204761D01*
X39204761D01*
Y31257144D01*
X39361905D01*
Y31204761D01*
D02*
G37*
G36*
X28833334Y25704761D02*
X28780951D01*
Y25757144D01*
X28833334D01*
Y25704761D01*
D02*
G37*
G36*
X28676190Y25600000D02*
X28571429D01*
Y25652380D01*
X28676190D01*
Y25600000D01*
D02*
G37*
G36*
X29042856D02*
X29095239D01*
Y25547620D01*
X29042856D01*
Y25600000D01*
X28990475D01*
Y25652380D01*
X29042856D01*
Y25600000D01*
D02*
G37*
G36*
X32500000Y25652380D02*
X32604761D01*
Y25600000D01*
X32814285D01*
Y25547620D01*
X32761905D01*
Y25495238D01*
X32709525D01*
Y25547620D01*
X32604761D01*
Y25600000D01*
X32552380D01*
Y25547620D01*
X32604761D01*
Y25495238D01*
X32447620D01*
Y25547620D01*
X32342856D01*
Y25495238D01*
X32447620D01*
Y25442857D01*
X32500000D01*
Y25390475D01*
X32342856D01*
Y25442857D01*
X32290475D01*
Y25495238D01*
X32238095D01*
Y25547620D01*
X32290475D01*
Y25600000D01*
X32500000D01*
Y25652380D01*
X32447620D01*
Y25704761D01*
X32500000D01*
Y25652380D01*
D02*
G37*
G36*
X28833334Y25495238D02*
X28780951D01*
Y25547620D01*
X28833334D01*
Y25495238D01*
D02*
G37*
G36*
X32185715Y25442857D02*
X32133334D01*
Y25495238D01*
X32185715D01*
Y25442857D01*
D02*
G37*
G36*
X29200000Y25495238D02*
X29252380D01*
Y25442857D01*
X29200000D01*
Y25495238D01*
X29147620D01*
Y25547620D01*
X29200000D01*
Y25495238D01*
D02*
G37*
G36*
X29042856Y25442857D02*
X28990475D01*
Y25495238D01*
X29042856D01*
Y25442857D01*
D02*
G37*
G36*
X29147620Y25390475D02*
X29095239D01*
Y25442857D01*
X29147620D01*
Y25390475D01*
D02*
G37*
G36*
X28885715D02*
X28833334D01*
Y25442857D01*
X28885715D01*
Y25390475D01*
D02*
G37*
G36*
X29042856Y25338095D02*
X28990475D01*
Y25390475D01*
X29042856D01*
Y25338095D01*
D02*
G37*
G36*
X29304761D02*
X29357144D01*
Y25285715D01*
X29304761D01*
Y25338095D01*
X29200000D01*
Y25390475D01*
X29304761D01*
Y25338095D01*
D02*
G37*
G36*
X32080951Y25390475D02*
X32238095D01*
Y25338095D01*
X32290475D01*
Y25233333D01*
X32238095D01*
Y25285715D01*
X32185715D01*
Y25338095D01*
X32133334D01*
Y25285715D01*
X32028571D01*
Y25442857D01*
X32080951D01*
Y25390475D01*
D02*
G37*
G36*
X31923810Y25285715D02*
Y25233333D01*
X31976190D01*
Y25180952D01*
X31819049D01*
Y25233333D01*
X31766666D01*
Y25285715D01*
X31819049D01*
Y25338095D01*
X31923810D01*
Y25285715D01*
D02*
G37*
G36*
X31661905Y25180952D02*
X31609525D01*
Y25233333D01*
X31661905D01*
Y25180952D01*
D02*
G37*
G36*
X29880951D02*
X29828571D01*
Y25233333D01*
X29880951D01*
Y25180952D01*
D02*
G37*
G36*
X32185715D02*
X32133334D01*
Y25128572D01*
X32080951D01*
Y25233333D01*
X32185715D01*
Y25180952D01*
D02*
G37*
G36*
X32028571Y25076190D02*
X31976190D01*
Y25128572D01*
X32028571D01*
Y25076190D01*
D02*
G37*
G36*
X31557144Y25023808D02*
X31504761D01*
Y25128572D01*
X31557144D01*
Y25023808D01*
D02*
G37*
G36*
X31400000Y25076190D02*
Y25023808D01*
X31347620D01*
Y25128572D01*
X31400000D01*
Y25076190D01*
D02*
G37*
G36*
X31819049Y24971429D02*
X31766666D01*
Y25023808D01*
X31819049D01*
Y24971429D01*
D02*
G37*
G36*
X11348026Y2922040D02*
X11353947D01*
Y2916118D01*
X11365790D01*
Y2910197D01*
X11371711D01*
Y2904276D01*
X11377632D01*
Y2892434D01*
X11383553D01*
Y2880592D01*
X11324342D01*
Y2886513D01*
X11318421D01*
Y2892434D01*
X11312500D01*
Y2898355D01*
X11306579D01*
Y2904276D01*
X11300658D01*
Y2910197D01*
X11294737D01*
Y2927961D01*
X11348026D01*
Y2922040D01*
D02*
G37*
G36*
X11436842Y2833224D02*
X11442763D01*
Y2827303D01*
X11448684D01*
Y2821382D01*
X11460526D01*
Y2809539D01*
X11466447D01*
Y2803618D01*
X11478289D01*
Y2797697D01*
X11484211D01*
Y2791776D01*
X11490132D01*
Y2785855D01*
X11496053D01*
Y2774013D01*
X11501974D01*
Y2720724D01*
X11490132D01*
Y2726645D01*
X11484211D01*
Y2732566D01*
X11478289D01*
Y2738487D01*
X11472368D01*
Y2744408D01*
X11466447D01*
Y2750329D01*
X11460526D01*
Y2756250D01*
X11454605D01*
Y2762171D01*
X11448684D01*
Y2768092D01*
X11442763D01*
Y2774013D01*
X11436842D01*
Y2779934D01*
X11430921D01*
Y2785855D01*
X11425000D01*
Y2791776D01*
X11383553D01*
Y2797697D01*
X11371711D01*
Y2839145D01*
X11436842D01*
Y2833224D01*
D02*
G37*
G36*
X73234418Y2710198D02*
X73228497D01*
Y2704277D01*
X73222577D01*
Y2698356D01*
X73216656D01*
Y2692434D01*
X73210736D01*
Y2686513D01*
X73204816D01*
Y2680592D01*
X73145605D01*
Y2692434D01*
X73151526D01*
Y2704277D01*
X73157446D01*
Y2710198D01*
X73163367D01*
Y2716119D01*
X73175208D01*
Y2722040D01*
X73181128D01*
Y2727961D01*
X73234418D01*
Y2710198D01*
D02*
G37*
G36*
X69548029Y2722040D02*
X69553949D01*
Y2716118D01*
X69565790D01*
Y2710197D01*
X69571710D01*
Y2704276D01*
X69577631D01*
Y2692434D01*
X69583551D01*
Y2680592D01*
X69524341D01*
Y2686513D01*
X69518420D01*
Y2692434D01*
X69512500D01*
Y2698355D01*
X69506580D01*
Y2704276D01*
X69500659D01*
Y2710197D01*
X69494739D01*
Y2727961D01*
X69548029D01*
Y2722040D01*
D02*
G37*
G36*
X11182237Y2922040D02*
X11188158D01*
Y2916118D01*
X11182237D01*
Y2910197D01*
X11176316D01*
Y2904276D01*
X11170395D01*
Y2898355D01*
X11164474D01*
Y2892434D01*
X11158553D01*
Y2886513D01*
X11152631D01*
Y2880592D01*
X11146710D01*
Y2874671D01*
X11140790D01*
Y2868750D01*
X11134869D01*
Y2862829D01*
X11128948D01*
Y2856908D01*
X11123026D01*
Y2850987D01*
X11117105D01*
Y2845066D01*
X11111184D01*
Y2803618D01*
Y2797697D01*
Y2679276D01*
X11099342D01*
Y2685197D01*
X11093421D01*
Y2691118D01*
X11087500D01*
Y2697040D01*
X11081579D01*
Y2702961D01*
X11075658D01*
Y2708882D01*
X11069737D01*
Y2862829D01*
X11075658D01*
Y2868750D01*
X11081579D01*
Y2874671D01*
X11087500D01*
Y2880592D01*
X11093421D01*
Y2886513D01*
X11099342D01*
Y2892434D01*
X11105263D01*
Y2898355D01*
X11111184D01*
Y2910197D01*
X11123026D01*
Y2916118D01*
X11128948D01*
Y2922040D01*
X11134869D01*
Y2927961D01*
X11182237D01*
Y2922040D01*
D02*
G37*
G36*
X11247368Y2898355D02*
X11253289D01*
Y2892434D01*
X11259211D01*
Y2886513D01*
X11265132D01*
Y2880592D01*
X11271053D01*
Y2874671D01*
X11276974D01*
Y2868750D01*
X11282895D01*
Y2862829D01*
X11288816D01*
Y2856908D01*
X11294737D01*
Y2850987D01*
X11300658D01*
Y2845066D01*
X11306579D01*
Y2839145D01*
X11312500D01*
Y2833224D01*
X11318421D01*
Y2827303D01*
X11324342D01*
Y2821382D01*
X11330263D01*
Y2809539D01*
Y2803618D01*
Y2625987D01*
X11324342D01*
Y2620066D01*
X11318421D01*
Y2614145D01*
X11312500D01*
Y2608224D01*
X11306579D01*
Y2602303D01*
X11300658D01*
Y2596382D01*
X11288816D01*
Y2602303D01*
X11282895D01*
Y2803618D01*
X11276974D01*
Y2809539D01*
X11271053D01*
Y2815460D01*
X11265132D01*
Y2821382D01*
X11259211D01*
Y2827303D01*
X11253289D01*
Y2833224D01*
X11247368D01*
Y2839145D01*
X11229605D01*
Y2833224D01*
X11223684D01*
Y2827303D01*
X11217763D01*
Y2821382D01*
X11211842D01*
Y2815460D01*
X11205921D01*
Y2809539D01*
X11200000D01*
Y2590460D01*
X11188158D01*
Y2596382D01*
X11182237D01*
Y2602303D01*
X11176316D01*
Y2608224D01*
X11170395D01*
Y2614145D01*
X11164474D01*
Y2620066D01*
X11158553D01*
Y2625987D01*
X11152631D01*
Y2821382D01*
X11158553D01*
Y2833224D01*
X11164474D01*
Y2839145D01*
X11170395D01*
Y2845066D01*
X11176316D01*
Y2850987D01*
X11182237D01*
Y2856908D01*
X11194079D01*
Y2868750D01*
X11200000D01*
Y2874671D01*
X11211842D01*
Y2880592D01*
X11217763D01*
Y2892434D01*
X11223684D01*
Y2898355D01*
X11229605D01*
Y2904276D01*
X11247368D01*
Y2898355D01*
D02*
G37*
G36*
X11022368Y2697040D02*
X11028290D01*
Y2691118D01*
X11034211D01*
Y2685197D01*
X11040132D01*
Y2679276D01*
X11046053D01*
Y2673355D01*
X11051974D01*
Y2667434D01*
X11057895D01*
Y2661513D01*
X11063816D01*
Y2655592D01*
X11069737D01*
Y2649671D01*
X11075658D01*
Y2643750D01*
X11081579D01*
Y2637829D01*
X11087500D01*
Y2631908D01*
X11093421D01*
Y2625987D01*
X11099342D01*
Y2620066D01*
X11105263D01*
Y2614145D01*
X11111184D01*
Y2608224D01*
X11117105D01*
Y2602303D01*
X11123026D01*
Y2596382D01*
X11128948D01*
Y2590460D01*
X11134869D01*
Y2578618D01*
X11075658D01*
Y2584539D01*
X11069737D01*
Y2590460D01*
X11063816D01*
Y2596382D01*
X11057895D01*
Y2602303D01*
X11051974D01*
Y2608224D01*
X11046053D01*
Y2614145D01*
X11040132D01*
Y2620066D01*
X11034211D01*
Y2625987D01*
X11028290D01*
Y2631908D01*
X11022368D01*
Y2637829D01*
X11016447D01*
Y2643750D01*
X11010526D01*
Y2649671D01*
X11004605D01*
Y2655592D01*
X10998684D01*
Y2661513D01*
X10992763D01*
Y2667434D01*
X10986842D01*
Y2679276D01*
X10980921D01*
Y2774013D01*
X10986842D01*
Y2779934D01*
X10992763D01*
Y2785855D01*
X10998684D01*
Y2791776D01*
X11004605D01*
Y2797697D01*
X11010526D01*
Y2803618D01*
X11016447D01*
Y2809539D01*
X11022368D01*
Y2697040D01*
D02*
G37*
G36*
X69636841Y2633224D02*
X69642761D01*
Y2627303D01*
X69648682D01*
Y2621382D01*
X69660529D01*
Y2609539D01*
X69666449D01*
Y2603618D01*
X69678290D01*
Y2597697D01*
X69684210D01*
Y2591776D01*
X69690131D01*
Y2585855D01*
X69696051D01*
Y2574013D01*
X69701971D01*
Y2520724D01*
X69690131D01*
Y2526645D01*
X69684210D01*
Y2532566D01*
X69678290D01*
Y2538487D01*
X69672369D01*
Y2544408D01*
X69666449D01*
Y2550329D01*
X69660529D01*
Y2556250D01*
X69654602D01*
Y2562171D01*
X69648682D01*
Y2568092D01*
X69642761D01*
Y2574013D01*
X69636841D01*
Y2579934D01*
X69630920D01*
Y2585855D01*
X69625000D01*
Y2591776D01*
X69583551D01*
Y2597697D01*
X69571710D01*
Y2639145D01*
X69636841D01*
Y2633224D01*
D02*
G37*
G36*
X11407237Y2744408D02*
X11413158D01*
Y2738487D01*
X11419079D01*
Y2732566D01*
X11425000D01*
Y2726645D01*
X11430921D01*
Y2720724D01*
X11436842D01*
Y2714803D01*
X11442763D01*
Y2708882D01*
X11448684D01*
Y2702961D01*
X11454605D01*
Y2697040D01*
X11460526D01*
Y2691118D01*
X11466447D01*
Y2685197D01*
X11472368D01*
Y2679276D01*
X11478289D01*
Y2673355D01*
X11484211D01*
Y2667434D01*
X11490132D01*
Y2661513D01*
X11496053D01*
Y2649671D01*
X11501974D01*
Y2554934D01*
X11496053D01*
Y2543092D01*
X11490132D01*
Y2537171D01*
X11484211D01*
Y2531250D01*
X11478289D01*
Y2525329D01*
X11472368D01*
Y2519408D01*
X11460526D01*
Y2631908D01*
X11454605D01*
Y2637829D01*
X11448684D01*
Y2643750D01*
X11442763D01*
Y2649671D01*
X11436842D01*
Y2655592D01*
X11430921D01*
Y2661513D01*
X11425000D01*
Y2667434D01*
X11419079D01*
Y2673355D01*
X11413158D01*
Y2679276D01*
X11407237D01*
Y2685197D01*
X11401316D01*
Y2691118D01*
X11395395D01*
Y2697040D01*
X11389474D01*
Y2702961D01*
X11383553D01*
Y2708882D01*
X11377632D01*
Y2714803D01*
X11371711D01*
Y2750329D01*
X11407237D01*
Y2744408D01*
D02*
G37*
G36*
X10986842Y2608224D02*
X10992763D01*
Y2602303D01*
X10998684D01*
Y2596382D01*
X11004605D01*
Y2590460D01*
X11010526D01*
Y2584539D01*
X11016447D01*
Y2578618D01*
X11022368D01*
Y2572697D01*
X11028290D01*
Y2566776D01*
X11034211D01*
Y2560855D01*
X11040132D01*
Y2554934D01*
X11046053D01*
Y2549013D01*
X11051974D01*
Y2543092D01*
X11057895D01*
Y2537171D01*
X11069737D01*
Y2531250D01*
X11075658D01*
Y2537171D01*
X11093421D01*
Y2531250D01*
X11111184D01*
Y2537171D01*
X11123026D01*
Y2531250D01*
X11134869D01*
Y2537171D01*
X11146710D01*
Y2531250D01*
X11158553D01*
Y2537171D01*
X11164474D01*
Y2531250D01*
X11176316D01*
Y2537171D01*
X11194079D01*
Y2531250D01*
X11211842D01*
Y2537171D01*
X11217763D01*
Y2531250D01*
X11223684D01*
Y2519408D01*
X11217763D01*
Y2513487D01*
X11211842D01*
Y2507566D01*
X11205921D01*
Y2501645D01*
X11200000D01*
Y2495724D01*
X11194079D01*
Y2489803D01*
X11046053D01*
Y2495724D01*
X11040132D01*
Y2501645D01*
X11034211D01*
Y2507566D01*
X11022368D01*
Y2519408D01*
X11016447D01*
Y2525329D01*
X11004605D01*
Y2537171D01*
X10998684D01*
Y2543092D01*
X10986842D01*
Y2554934D01*
X10980921D01*
Y2614145D01*
X10986842D01*
Y2608224D01*
D02*
G37*
G36*
X69382239Y2722040D02*
X69388159D01*
Y2716118D01*
X69382239D01*
Y2710197D01*
X69376318D01*
Y2704276D01*
X69370398D01*
Y2698355D01*
X69364471D01*
Y2692434D01*
X69358551D01*
Y2686513D01*
X69352631D01*
Y2680592D01*
X69346710D01*
Y2674671D01*
X69340790D01*
Y2668750D01*
X69334869D01*
Y2662829D01*
X69328949D01*
Y2656908D01*
X69323029D01*
Y2650987D01*
X69317102D01*
Y2645066D01*
X69311182D01*
Y2603618D01*
Y2597697D01*
Y2479276D01*
X69299341D01*
Y2485197D01*
X69293420D01*
Y2491118D01*
X69287500D01*
Y2497039D01*
X69281580D01*
Y2502960D01*
X69275659D01*
Y2508881D01*
X69269739D01*
Y2662829D01*
X69275659D01*
Y2668750D01*
X69281580D01*
Y2674671D01*
X69287500D01*
Y2680592D01*
X69293420D01*
Y2686513D01*
X69299341D01*
Y2692434D01*
X69305261D01*
Y2698355D01*
X69311182D01*
Y2710197D01*
X69323029D01*
Y2716118D01*
X69328949D01*
Y2722040D01*
X69334869D01*
Y2727961D01*
X69382239D01*
Y2722040D01*
D02*
G37*
G36*
X11383553Y2643750D02*
X11389474D01*
Y2637829D01*
X11395395D01*
Y2631908D01*
X11401316D01*
Y2625987D01*
X11407237D01*
Y2620066D01*
X11413158D01*
Y2608224D01*
X11419079D01*
Y2477961D01*
X11413158D01*
Y2466119D01*
X11407237D01*
Y2454276D01*
X11401316D01*
Y2448355D01*
X11389474D01*
Y2436513D01*
X11377632D01*
Y2430592D01*
X11371711D01*
Y2418750D01*
X11365790D01*
Y2412829D01*
X11359869D01*
Y2406908D01*
X11348026D01*
Y2400987D01*
X11294737D01*
Y2412829D01*
X11300658D01*
Y2418750D01*
X11306579D01*
Y2424671D01*
X11312500D01*
Y2430592D01*
X11318421D01*
Y2436513D01*
X11324342D01*
Y2442434D01*
X11330263D01*
Y2448355D01*
X11336184D01*
Y2454276D01*
X11342105D01*
Y2460197D01*
X11348026D01*
Y2466119D01*
X11353947D01*
Y2472040D01*
X11359869D01*
Y2477961D01*
X11365790D01*
Y2483881D01*
X11371711D01*
Y2649671D01*
X11383553D01*
Y2643750D01*
D02*
G37*
G36*
X11330263Y2501645D02*
X11324342D01*
Y2495724D01*
X11318421D01*
Y2489803D01*
X11312500D01*
Y2483881D01*
X11306579D01*
Y2477961D01*
X11300658D01*
Y2472040D01*
X11294737D01*
Y2466119D01*
X11288816D01*
Y2460197D01*
X11282895D01*
Y2454276D01*
X11276974D01*
Y2448355D01*
X11271053D01*
Y2442434D01*
X11265132D01*
Y2436513D01*
X11259211D01*
Y2430592D01*
X11253289D01*
Y2424671D01*
X11247368D01*
Y2418750D01*
X11241447D01*
Y2412829D01*
X11235526D01*
Y2406908D01*
X11223684D01*
Y2400987D01*
X11134869D01*
Y2406908D01*
X11128948D01*
Y2412829D01*
X11123026D01*
Y2418750D01*
X11111184D01*
Y2430592D01*
X11105263D01*
Y2436513D01*
X11099342D01*
Y2448355D01*
X11211842D01*
Y2454276D01*
X11217763D01*
Y2460197D01*
X11223684D01*
Y2466119D01*
X11229605D01*
Y2472040D01*
X11235526D01*
Y2477961D01*
X11241447D01*
Y2483881D01*
X11247368D01*
Y2489803D01*
X11253289D01*
Y2495724D01*
X11259211D01*
Y2501645D01*
X11265132D01*
Y2507566D01*
X11271053D01*
Y2513487D01*
X11276974D01*
Y2519408D01*
X11282895D01*
Y2525329D01*
X11288816D01*
Y2531250D01*
X11294737D01*
Y2537171D01*
X11300658D01*
Y2543092D01*
X11306579D01*
Y2549013D01*
X11312500D01*
Y2554934D01*
X11318421D01*
Y2560855D01*
X11330263D01*
Y2501645D01*
D02*
G37*
G36*
X69447369Y2698355D02*
X69453290D01*
Y2692434D01*
X69459210D01*
Y2686513D01*
X69465131D01*
Y2680592D01*
X69471051D01*
Y2674671D01*
X69476971D01*
Y2668750D01*
X69482898D01*
Y2662829D01*
X69488818D01*
Y2656908D01*
X69494739D01*
Y2650987D01*
X69500659D01*
Y2645066D01*
X69506580D01*
Y2639145D01*
X69512500D01*
Y2633224D01*
X69518420D01*
Y2627303D01*
X69524341D01*
Y2621382D01*
X69530261D01*
Y2609539D01*
Y2603618D01*
Y2425987D01*
X69524341D01*
Y2420066D01*
X69518420D01*
Y2414145D01*
X69512500D01*
Y2408224D01*
X69506580D01*
Y2402303D01*
X69500659D01*
Y2396382D01*
X69488818D01*
Y2402303D01*
X69482898D01*
Y2603618D01*
X69476971D01*
Y2609539D01*
X69471051D01*
Y2615460D01*
X69465131D01*
Y2621382D01*
X69459210D01*
Y2627303D01*
X69453290D01*
Y2633224D01*
X69447369D01*
Y2639145D01*
X69429608D01*
Y2633224D01*
X69423682D01*
Y2627303D01*
X69417761D01*
Y2621382D01*
X69411841D01*
Y2615460D01*
X69405920D01*
Y2609539D01*
X69400000D01*
Y2390460D01*
X69388159D01*
Y2396382D01*
X69382239D01*
Y2402303D01*
X69376318D01*
Y2408224D01*
X69370398D01*
Y2414145D01*
X69364471D01*
Y2420066D01*
X69358551D01*
Y2425987D01*
X69352631D01*
Y2621382D01*
X69358551D01*
Y2633224D01*
X69364471D01*
Y2639145D01*
X69370398D01*
Y2645066D01*
X69376318D01*
Y2650987D01*
X69382239D01*
Y2656908D01*
X69394080D01*
Y2668750D01*
X69400000D01*
Y2674671D01*
X69411841D01*
Y2680592D01*
X69417761D01*
Y2692434D01*
X69423682D01*
Y2698355D01*
X69429608D01*
Y2704276D01*
X69447369D01*
Y2698355D01*
D02*
G37*
G36*
X69222369Y2497039D02*
X69228290D01*
Y2491118D01*
X69234210D01*
Y2485197D01*
X69240131D01*
Y2479276D01*
X69246051D01*
Y2473355D01*
X69251971D01*
Y2467434D01*
X69257898D01*
Y2461513D01*
X69263818D01*
Y2455592D01*
X69269739D01*
Y2449671D01*
X69275659D01*
Y2443750D01*
X69281580D01*
Y2437829D01*
X69287500D01*
Y2431908D01*
X69293420D01*
Y2425987D01*
X69299341D01*
Y2420066D01*
X69305261D01*
Y2414145D01*
X69311182D01*
Y2408224D01*
X69317102D01*
Y2402303D01*
X69323029D01*
Y2396382D01*
X69328949D01*
Y2390460D01*
X69334869D01*
Y2378618D01*
X69275659D01*
Y2384539D01*
X69269739D01*
Y2390460D01*
X69263818D01*
Y2396382D01*
X69257898D01*
Y2402303D01*
X69251971D01*
Y2408224D01*
X69246051D01*
Y2414145D01*
X69240131D01*
Y2420066D01*
X69234210D01*
Y2425987D01*
X69228290D01*
Y2431908D01*
X69222369D01*
Y2437829D01*
X69216449D01*
Y2443750D01*
X69210529D01*
Y2449671D01*
X69204608D01*
Y2455592D01*
X69198682D01*
Y2461513D01*
X69192761D01*
Y2467434D01*
X69186841D01*
Y2479276D01*
X69180920D01*
Y2574013D01*
X69186841D01*
Y2579934D01*
X69192761D01*
Y2585855D01*
X69198682D01*
Y2591776D01*
X69204608D01*
Y2597697D01*
X69210529D01*
Y2603618D01*
X69216449D01*
Y2609539D01*
X69222369D01*
Y2497039D01*
D02*
G37*
G36*
X69607239Y2544408D02*
X69613159D01*
Y2538487D01*
X69619080D01*
Y2532566D01*
X69625000D01*
Y2526645D01*
X69630920D01*
Y2520724D01*
X69636841D01*
Y2514802D01*
X69642761D01*
Y2508881D01*
X69648682D01*
Y2502960D01*
X69654602D01*
Y2497039D01*
X69660529D01*
Y2491118D01*
X69666449D01*
Y2485197D01*
X69672369D01*
Y2479276D01*
X69678290D01*
Y2473355D01*
X69684210D01*
Y2467434D01*
X69690131D01*
Y2461513D01*
X69696051D01*
Y2449671D01*
X69701971D01*
Y2354934D01*
X69696051D01*
Y2343092D01*
X69690131D01*
Y2337171D01*
X69684210D01*
Y2331250D01*
X69678290D01*
Y2325329D01*
X69672369D01*
Y2319408D01*
X69660529D01*
Y2431908D01*
X69654602D01*
Y2437829D01*
X69648682D01*
Y2443750D01*
X69642761D01*
Y2449671D01*
X69636841D01*
Y2455592D01*
X69630920D01*
Y2461513D01*
X69625000D01*
Y2467434D01*
X69619080D01*
Y2473355D01*
X69613159D01*
Y2479276D01*
X69607239D01*
Y2485197D01*
X69601318D01*
Y2491118D01*
X69595398D01*
Y2497039D01*
X69589471D01*
Y2502960D01*
X69583551D01*
Y2508881D01*
X69577631D01*
Y2514802D01*
X69571710D01*
Y2550329D01*
X69607239D01*
Y2544408D01*
D02*
G37*
G36*
X69186841Y2408224D02*
X69192761D01*
Y2402303D01*
X69198682D01*
Y2396382D01*
X69204608D01*
Y2390460D01*
X69210529D01*
Y2384539D01*
X69216449D01*
Y2378618D01*
X69222369D01*
Y2372697D01*
X69228290D01*
Y2366776D01*
X69234210D01*
Y2360855D01*
X69240131D01*
Y2354934D01*
X69246051D01*
Y2349013D01*
X69251971D01*
Y2343092D01*
X69257898D01*
Y2337171D01*
X69269739D01*
Y2331250D01*
X69275659D01*
Y2337171D01*
X69293420D01*
Y2331250D01*
X69311182D01*
Y2337171D01*
X69323029D01*
Y2331250D01*
X69334869D01*
Y2337171D01*
X69346710D01*
Y2331250D01*
X69358551D01*
Y2337171D01*
X69364471D01*
Y2331250D01*
X69376318D01*
Y2337171D01*
X69394080D01*
Y2331250D01*
X69411841D01*
Y2337171D01*
X69417761D01*
Y2331250D01*
X69423682D01*
Y2319408D01*
X69417761D01*
Y2313487D01*
X69411841D01*
Y2307566D01*
X69405920D01*
Y2301645D01*
X69400000D01*
Y2295724D01*
X69394080D01*
Y2289803D01*
X69246051D01*
Y2295724D01*
X69240131D01*
Y2301645D01*
X69234210D01*
Y2307566D01*
X69222369D01*
Y2319408D01*
X69216449D01*
Y2325329D01*
X69204608D01*
Y2337171D01*
X69198682D01*
Y2343092D01*
X69186841D01*
Y2354934D01*
X69180920D01*
Y2414145D01*
X69186841D01*
Y2408224D01*
D02*
G37*
G36*
X11306579Y2312171D02*
X11318421D01*
Y2306250D01*
X11324342D01*
Y2276645D01*
X11318421D01*
Y2270724D01*
X11288816D01*
Y2276645D01*
X11282895D01*
Y2288487D01*
X11276974D01*
Y2300329D01*
X11282895D01*
Y2312171D01*
X11300658D01*
Y2318092D01*
X11306579D01*
Y2312171D01*
D02*
G37*
G36*
X11040132D02*
X11057895D01*
Y2300329D01*
X11063816D01*
Y2288487D01*
X11057895D01*
Y2276645D01*
X11051974D01*
Y2270724D01*
X11022368D01*
Y2276645D01*
X11016447D01*
Y2288487D01*
X11010526D01*
Y2294408D01*
X11016447D01*
Y2306250D01*
X11022368D01*
Y2312171D01*
X11034211D01*
Y2318092D01*
X11040132D01*
Y2312171D01*
D02*
G37*
G36*
X11756579Y2235197D02*
X11768421D01*
Y2229276D01*
X11774342D01*
Y2223355D01*
X11780263D01*
Y2211513D01*
X11786184D01*
Y2199671D01*
X11792105D01*
Y2093092D01*
X11780263D01*
Y2087171D01*
X11756579D01*
Y2093092D01*
X11750658D01*
Y2099013D01*
X11744737D01*
Y2128618D01*
Y2134540D01*
Y2199671D01*
X11738816D01*
Y2205592D01*
X11709211D01*
Y2199671D01*
X11703290D01*
Y2193750D01*
X11697369D01*
Y2099013D01*
X11691448D01*
Y2093092D01*
X11685526D01*
Y2087171D01*
X11661842D01*
Y2093092D01*
X11655921D01*
Y2099013D01*
X11650000D01*
Y2229276D01*
X11655921D01*
Y2235197D01*
X11691448D01*
Y2229276D01*
X11709211D01*
Y2235197D01*
X11721053D01*
Y2241118D01*
X11756579D01*
Y2235197D01*
D02*
G37*
G36*
X11448684D02*
X11454605D01*
Y2229276D01*
X11460526D01*
Y2217434D01*
X11454605D01*
Y2205592D01*
X11448684D01*
Y2199671D01*
X11442763D01*
Y2193750D01*
X11430921D01*
Y2199671D01*
X11419079D01*
Y2193750D01*
X11407237D01*
Y2181908D01*
X11401316D01*
Y2093092D01*
X11395395D01*
Y2087171D01*
X11371711D01*
Y2093092D01*
X11359869D01*
Y2235197D01*
X11401316D01*
Y2229276D01*
X11413158D01*
Y2235197D01*
X11425000D01*
Y2241118D01*
X11448684D01*
Y2235197D01*
D02*
G37*
G36*
X11205921D02*
X11217763D01*
Y2229276D01*
X11229605D01*
Y2223355D01*
X11235526D01*
Y2217434D01*
X11241447D01*
Y2205592D01*
X11247368D01*
Y2193750D01*
X11253289D01*
Y2134540D01*
X11247368D01*
Y2116776D01*
X11241447D01*
Y2110855D01*
X11235526D01*
Y2104934D01*
X11229605D01*
Y2099013D01*
X11217763D01*
Y2093092D01*
X11211842D01*
Y2087171D01*
X11158553D01*
Y2093092D01*
X11152631D01*
Y2099013D01*
X11146710D01*
Y2104934D01*
X11140790D01*
Y2093092D01*
X11134869D01*
Y2045724D01*
X11093421D01*
Y2229276D01*
X11099342D01*
Y2235197D01*
X11134869D01*
Y2229276D01*
X11140790D01*
Y2223355D01*
X11146710D01*
Y2229276D01*
X11152631D01*
Y2235197D01*
X11164474D01*
Y2241118D01*
X11205921D01*
Y2235197D01*
D02*
G37*
G36*
X69583551Y2443750D02*
X69589471D01*
Y2437829D01*
X69595398D01*
Y2431908D01*
X69601318D01*
Y2425987D01*
X69607239D01*
Y2420066D01*
X69613159D01*
Y2408224D01*
X69619080D01*
Y2277960D01*
X69613159D01*
Y2266118D01*
X69607239D01*
Y2254276D01*
X69601318D01*
Y2248355D01*
X69589471D01*
Y2236513D01*
X69577631D01*
Y2230592D01*
X69571710D01*
Y2218750D01*
X69565790D01*
Y2212829D01*
X69559869D01*
Y2206908D01*
X69548029D01*
Y2200987D01*
X69494739D01*
Y2212829D01*
X69500659D01*
Y2218750D01*
X69506580D01*
Y2224671D01*
X69512500D01*
Y2230592D01*
X69518420D01*
Y2236513D01*
X69524341D01*
Y2242434D01*
X69530261D01*
Y2248355D01*
X69536188D01*
Y2254276D01*
X69542108D01*
Y2260197D01*
X69548029D01*
Y2266118D01*
X69553949D01*
Y2272039D01*
X69559869D01*
Y2277960D01*
X69565790D01*
Y2283881D01*
X69571710D01*
Y2449671D01*
X69583551D01*
Y2443750D01*
D02*
G37*
G36*
X69530261Y2301645D02*
X69524341D01*
Y2295724D01*
X69518420D01*
Y2289803D01*
X69512500D01*
Y2283881D01*
X69506580D01*
Y2277960D01*
X69500659D01*
Y2272039D01*
X69494739D01*
Y2266118D01*
X69488818D01*
Y2260197D01*
X69482898D01*
Y2254276D01*
X69476971D01*
Y2248355D01*
X69471051D01*
Y2242434D01*
X69465131D01*
Y2236513D01*
X69459210D01*
Y2230592D01*
X69453290D01*
Y2224671D01*
X69447369D01*
Y2218750D01*
X69441449D01*
Y2212829D01*
X69435529D01*
Y2206908D01*
X69423682D01*
Y2200987D01*
X69334869D01*
Y2206908D01*
X69328949D01*
Y2212829D01*
X69323029D01*
Y2218750D01*
X69311182D01*
Y2230592D01*
X69305261D01*
Y2236513D01*
X69299341D01*
Y2248355D01*
X69411841D01*
Y2254276D01*
X69417761D01*
Y2260197D01*
X69423682D01*
Y2266118D01*
X69429608D01*
Y2272039D01*
X69435529D01*
Y2277960D01*
X69441449D01*
Y2283881D01*
X69447369D01*
Y2289803D01*
X69453290D01*
Y2295724D01*
X69459210D01*
Y2301645D01*
X69465131D01*
Y2307566D01*
X69471051D01*
Y2313487D01*
X69476971D01*
Y2319408D01*
X69482898D01*
Y2325329D01*
X69488818D01*
Y2331250D01*
X69494739D01*
Y2337171D01*
X69500659D01*
Y2343092D01*
X69506580D01*
Y2349013D01*
X69512500D01*
Y2354934D01*
X69518420D01*
Y2360855D01*
X69530261D01*
Y2301645D01*
D02*
G37*
G36*
X10785526Y2235197D02*
X10797368D01*
Y2229276D01*
X10809211D01*
Y2217434D01*
X10815132D01*
Y2193750D01*
X10791447D01*
Y2199671D01*
X10779605D01*
Y2205592D01*
X10755921D01*
Y2199671D01*
X10744079D01*
Y2193750D01*
X10738158D01*
Y2187829D01*
X10732237D01*
Y2175987D01*
X10726316D01*
Y2146382D01*
X10732237D01*
Y2134540D01*
X10738158D01*
Y2128618D01*
X10750000D01*
Y2122697D01*
X10791447D01*
Y2128618D01*
X10797368D01*
Y2134540D01*
X10809211D01*
Y2128618D01*
X10815132D01*
Y2104934D01*
X10809211D01*
Y2099013D01*
X10803290D01*
Y2093092D01*
X10791447D01*
Y2087171D01*
X10738158D01*
Y2093092D01*
X10726316D01*
Y2099013D01*
X10714474D01*
Y2104934D01*
X10708553D01*
Y2110855D01*
X10702632D01*
Y2116776D01*
X10696710D01*
Y2122697D01*
X10690789D01*
Y2134540D01*
X10684868D01*
Y2193750D01*
X10690789D01*
Y2205592D01*
X10696710D01*
Y2211513D01*
X10702632D01*
Y2217434D01*
X10708553D01*
Y2223355D01*
X10714474D01*
Y2229276D01*
X10726316D01*
Y2235197D01*
X10744079D01*
Y2241118D01*
X10785526D01*
Y2235197D01*
D02*
G37*
G36*
X11567105D02*
X11584869D01*
Y2229276D01*
X11590790D01*
Y2223355D01*
X11602632D01*
Y2217434D01*
X11608553D01*
Y2211513D01*
X11614474D01*
Y2199671D01*
X11620395D01*
Y2187829D01*
X11626316D01*
Y2140461D01*
X11620395D01*
Y2122697D01*
X11614474D01*
Y2116776D01*
X11608553D01*
Y2110855D01*
X11602632D01*
Y2104934D01*
X11596711D01*
Y2099013D01*
X11584869D01*
Y2093092D01*
X11573026D01*
Y2087171D01*
X11519737D01*
Y2093092D01*
X11507895D01*
Y2099013D01*
X11496053D01*
Y2104934D01*
X11490132D01*
Y2110855D01*
X11484211D01*
Y2116776D01*
X11478289D01*
Y2122697D01*
X11472368D01*
Y2134540D01*
X11466447D01*
Y2187829D01*
X11472368D01*
Y2199671D01*
X11478289D01*
Y2211513D01*
X11484211D01*
Y2217434D01*
X11490132D01*
Y2223355D01*
X11496053D01*
Y2229276D01*
X11507895D01*
Y2235197D01*
X11525658D01*
Y2241118D01*
X11567105D01*
Y2235197D01*
D02*
G37*
G36*
X11318421Y2229276D02*
X11324342D01*
Y2128618D01*
Y2122697D01*
Y2093092D01*
X11312500D01*
Y2087171D01*
X11294737D01*
Y2093092D01*
X11282895D01*
Y2235197D01*
X11318421D01*
Y2229276D01*
D02*
G37*
G36*
X11057895Y2093092D02*
X11051974D01*
Y2087171D01*
X11028290D01*
Y2093092D01*
X11016447D01*
Y2229276D01*
X11022368D01*
Y2235197D01*
X11057895D01*
Y2093092D01*
D02*
G37*
G36*
X10886184Y2229276D02*
X10898026D01*
Y2235197D01*
X10909868D01*
Y2241118D01*
X10951316D01*
Y2235197D01*
X10963158D01*
Y2229276D01*
X10969079D01*
Y2223355D01*
X10975000D01*
Y2211513D01*
X10980921D01*
Y2093092D01*
X10975000D01*
Y2087171D01*
X10945395D01*
Y2093092D01*
X10939474D01*
Y2193750D01*
X10933553D01*
Y2205592D01*
X10898026D01*
Y2199671D01*
X10892105D01*
Y2187829D01*
X10886184D01*
Y2093092D01*
X10880263D01*
Y2087171D01*
X10850658D01*
Y2093092D01*
X10844737D01*
Y2335855D01*
X10886184D01*
Y2229276D01*
D02*
G37*
G36*
X69506580Y2112171D02*
X69518420D01*
Y2106250D01*
X69524341D01*
Y2076645D01*
X69518420D01*
Y2070724D01*
X69488818D01*
Y2076645D01*
X69482898D01*
Y2088487D01*
X69476971D01*
Y2100329D01*
X69482898D01*
Y2112171D01*
X69500659D01*
Y2118092D01*
X69506580D01*
Y2112171D01*
D02*
G37*
G36*
X69240131D02*
X69257898D01*
Y2100329D01*
X69263818D01*
Y2088487D01*
X69257898D01*
Y2076645D01*
X69251971D01*
Y2070724D01*
X69222369D01*
Y2076645D01*
X69216449D01*
Y2088487D01*
X69210529D01*
Y2094408D01*
X69216449D01*
Y2106250D01*
X69222369D01*
Y2112171D01*
X69234210D01*
Y2118092D01*
X69240131D01*
Y2112171D01*
D02*
G37*
G36*
X69956580Y2035197D02*
X69968420D01*
Y2029276D01*
X69974341D01*
Y2023355D01*
X69980261D01*
Y2011513D01*
X69986182D01*
Y1999671D01*
X69992108D01*
Y1893092D01*
X69980261D01*
Y1887171D01*
X69956580D01*
Y1893092D01*
X69950659D01*
Y1899013D01*
X69944739D01*
Y1928618D01*
Y1934539D01*
Y1999671D01*
X69938818D01*
Y2005592D01*
X69909210D01*
Y1999671D01*
X69903290D01*
Y1993750D01*
X69897369D01*
Y1899013D01*
X69891449D01*
Y1893092D01*
X69885529D01*
Y1887171D01*
X69861841D01*
Y1893092D01*
X69855920D01*
Y1899013D01*
X69850000D01*
Y2029276D01*
X69855920D01*
Y2035197D01*
X69891449D01*
Y2029276D01*
X69909210D01*
Y2035197D01*
X69921051D01*
Y2041118D01*
X69956580D01*
Y2035197D01*
D02*
G37*
G36*
X69648682D02*
X69654602D01*
Y2029276D01*
X69660529D01*
Y2017434D01*
X69654602D01*
Y2005592D01*
X69648682D01*
Y1999671D01*
X69642761D01*
Y1993750D01*
X69630920D01*
Y1999671D01*
X69619080D01*
Y1993750D01*
X69607239D01*
Y1981908D01*
X69601318D01*
Y1893092D01*
X69595398D01*
Y1887171D01*
X69571710D01*
Y1893092D01*
X69559869D01*
Y2035197D01*
X69601318D01*
Y2029276D01*
X69613159D01*
Y2035197D01*
X69625000D01*
Y2041118D01*
X69648682D01*
Y2035197D01*
D02*
G37*
G36*
X69405920D02*
X69417761D01*
Y2029276D01*
X69429608D01*
Y2023355D01*
X69435529D01*
Y2017434D01*
X69441449D01*
Y2005592D01*
X69447369D01*
Y1993750D01*
X69453290D01*
Y1934539D01*
X69447369D01*
Y1916776D01*
X69441449D01*
Y1910855D01*
X69435529D01*
Y1904934D01*
X69429608D01*
Y1899013D01*
X69417761D01*
Y1893092D01*
X69411841D01*
Y1887171D01*
X69358551D01*
Y1893092D01*
X69352631D01*
Y1899013D01*
X69346710D01*
Y1904934D01*
X69340790D01*
Y1893092D01*
X69334869D01*
Y1845724D01*
X69293420D01*
Y2029276D01*
X69299341D01*
Y2035197D01*
X69334869D01*
Y2029276D01*
X69340790D01*
Y2023355D01*
X69346710D01*
Y2029276D01*
X69352631D01*
Y2035197D01*
X69364471D01*
Y2041118D01*
X69405920D01*
Y2035197D01*
D02*
G37*
G36*
X68985529D02*
X68997369D01*
Y2029276D01*
X69009210D01*
Y2017434D01*
X69015131D01*
Y1993750D01*
X68991449D01*
Y1999671D01*
X68979608D01*
Y2005592D01*
X68955920D01*
Y1999671D01*
X68944080D01*
Y1993750D01*
X68938159D01*
Y1987829D01*
X68932239D01*
Y1975987D01*
X68926318D01*
Y1946381D01*
X68932239D01*
Y1934539D01*
X68938159D01*
Y1928618D01*
X68950000D01*
Y1922697D01*
X68991449D01*
Y1928618D01*
X68997369D01*
Y1934539D01*
X69009210D01*
Y1928618D01*
X69015131D01*
Y1904934D01*
X69009210D01*
Y1899013D01*
X69003290D01*
Y1893092D01*
X68991449D01*
Y1887171D01*
X68938159D01*
Y1893092D01*
X68926318D01*
Y1899013D01*
X68914471D01*
Y1904934D01*
X68908551D01*
Y1910855D01*
X68902631D01*
Y1916776D01*
X68896710D01*
Y1922697D01*
X68890790D01*
Y1934539D01*
X68884869D01*
Y1993750D01*
X68890790D01*
Y2005592D01*
X68896710D01*
Y2011513D01*
X68902631D01*
Y2017434D01*
X68908551D01*
Y2023355D01*
X68914471D01*
Y2029276D01*
X68926318D01*
Y2035197D01*
X68944080D01*
Y2041118D01*
X68985529D01*
Y2035197D01*
D02*
G37*
G36*
X69767108D02*
X69784869D01*
Y2029276D01*
X69790790D01*
Y2023355D01*
X69802631D01*
Y2017434D01*
X69808551D01*
Y2011513D01*
X69814471D01*
Y1999671D01*
X69820398D01*
Y1987829D01*
X69826318D01*
Y1940460D01*
X69820398D01*
Y1922697D01*
X69814471D01*
Y1916776D01*
X69808551D01*
Y1910855D01*
X69802631D01*
Y1904934D01*
X69796710D01*
Y1899013D01*
X69784869D01*
Y1893092D01*
X69773029D01*
Y1887171D01*
X69719739D01*
Y1893092D01*
X69707898D01*
Y1899013D01*
X69696051D01*
Y1904934D01*
X69690131D01*
Y1910855D01*
X69684210D01*
Y1916776D01*
X69678290D01*
Y1922697D01*
X69672369D01*
Y1934539D01*
X69666449D01*
Y1987829D01*
X69672369D01*
Y1999671D01*
X69678290D01*
Y2011513D01*
X69684210D01*
Y2017434D01*
X69690131D01*
Y2023355D01*
X69696051D01*
Y2029276D01*
X69707898D01*
Y2035197D01*
X69725659D01*
Y2041118D01*
X69767108D01*
Y2035197D01*
D02*
G37*
G36*
X69518420Y2029276D02*
X69524341D01*
Y1928618D01*
Y1922697D01*
Y1893092D01*
X69512500D01*
Y1887171D01*
X69494739D01*
Y1893092D01*
X69482898D01*
Y2035197D01*
X69518420D01*
Y2029276D01*
D02*
G37*
G36*
X69257898Y1893092D02*
X69251971D01*
Y1887171D01*
X69228290D01*
Y1893092D01*
X69216449D01*
Y2029276D01*
X69222369D01*
Y2035197D01*
X69257898D01*
Y1893092D01*
D02*
G37*
G36*
X69086182Y2029276D02*
X69098029D01*
Y2035197D01*
X69109869D01*
Y2041118D01*
X69151318D01*
Y2035197D01*
X69163159D01*
Y2029276D01*
X69169080D01*
Y2023355D01*
X69175000D01*
Y2011513D01*
X69180920D01*
Y1893092D01*
X69175000D01*
Y1887171D01*
X69145398D01*
Y1893092D01*
X69139471D01*
Y1993750D01*
X69133551D01*
Y2005592D01*
X69098029D01*
Y1999671D01*
X69092102D01*
Y1987829D01*
X69086182D01*
Y1893092D01*
X69080261D01*
Y1887171D01*
X69050659D01*
Y1893092D01*
X69044739D01*
Y2135855D01*
X69086182D01*
Y2029276D01*
D02*
G37*
%LPC*%
G36*
X46695239Y34766666D02*
X46380951D01*
Y34714285D01*
X46328571D01*
Y34661905D01*
X46276190D01*
Y34609525D01*
X46223810D01*
Y34557144D01*
Y34504761D01*
X46171429D01*
Y34347620D01*
X46223810D01*
Y34190475D01*
X46276190D01*
Y34138095D01*
X46328571D01*
Y34085715D01*
X46485715D01*
Y34033334D01*
X46590475D01*
Y34085715D01*
X46747620D01*
Y34138095D01*
X46800000D01*
Y34190475D01*
X46852380D01*
Y34295239D01*
X46904761D01*
Y34504761D01*
X46852380D01*
Y34661905D01*
X46800000D01*
Y34714285D01*
X46695239D01*
Y34766666D01*
D02*
G37*
G36*
X52771429Y35447620D02*
X52300000D01*
Y34871429D01*
X52666669D01*
Y34923810D01*
X52823810D01*
Y34976190D01*
X52876190D01*
Y35133334D01*
X52928571D01*
Y35238095D01*
X52876190D01*
Y35342856D01*
X52823810D01*
Y35395239D01*
X52771429D01*
Y35447620D01*
D02*
G37*
G36*
X40042856Y34819049D02*
X39728571D01*
Y34766666D01*
X39623810D01*
Y34714285D01*
X39571429D01*
Y34661905D01*
X39519049D01*
Y34609525D01*
Y34557144D01*
X40042856D01*
Y34504761D01*
X40200000D01*
Y34661905D01*
X40147620D01*
Y34766666D01*
X40042856D01*
Y34819049D01*
D02*
G37*
G36*
X36847620Y40580951D02*
X35642856D01*
Y40528571D01*
X35380951D01*
Y40476190D01*
X35171429D01*
Y40423810D01*
X34961905D01*
Y40371429D01*
X34752380D01*
Y40319049D01*
X34542856D01*
Y40266666D01*
X34385715D01*
Y40214285D01*
X34228571D01*
Y40161905D01*
X34071429D01*
Y40109525D01*
X33914285D01*
Y40057144D01*
X33809525D01*
Y40004761D01*
X33652380D01*
Y39952380D01*
X33495239D01*
Y39900000D01*
X33390475D01*
Y39847620D01*
X33233334D01*
Y39795239D01*
X33128571D01*
Y39742856D01*
X33023810D01*
Y39690475D01*
X32866666D01*
Y39638095D01*
X32761905D01*
Y39585715D01*
X32657144D01*
Y39533334D01*
X32552380D01*
Y39480954D01*
X32447620D01*
Y39428571D01*
X32342856D01*
Y39376190D01*
X32290475D01*
Y39323810D01*
X32185715D01*
Y39271429D01*
X32080951D01*
Y39219049D01*
X31976190D01*
Y39166666D01*
X31923810D01*
Y39114285D01*
X31819049D01*
Y39061905D01*
X31714285D01*
Y39009525D01*
X31661905D01*
Y38957144D01*
X31557144D01*
Y38904761D01*
X31504761D01*
Y38852380D01*
X31400000D01*
Y38800000D01*
X31347620D01*
Y38747620D01*
X31242856D01*
Y38695239D01*
X31190475D01*
Y38642856D01*
X31085715D01*
Y38590475D01*
X31033334D01*
Y38538095D01*
X30980954D01*
Y38485715D01*
X30876190D01*
Y38433334D01*
X30823810D01*
Y38380951D01*
X30771429D01*
Y38328571D01*
X30666666D01*
Y38276190D01*
X30614285D01*
Y38223810D01*
X30561905D01*
Y38171429D01*
X30509525D01*
Y38119049D01*
X30457144D01*
Y38066666D01*
X30404761D01*
Y38014285D01*
X30300000D01*
Y37961905D01*
X30247620D01*
Y37909525D01*
X30195239D01*
Y37857144D01*
X30142856D01*
Y37804761D01*
X30090475D01*
Y37752380D01*
X30038095D01*
Y37700000D01*
X29985715D01*
Y37647620D01*
X29933334D01*
Y37595239D01*
X29880951D01*
Y37542856D01*
X29828571D01*
Y37490475D01*
X29776190D01*
Y37438095D01*
X29723810D01*
Y37385715D01*
X29671429D01*
Y37333334D01*
X29619049D01*
Y37280951D01*
X29566666D01*
Y37228571D01*
X29514285D01*
Y37123810D01*
X29461905D01*
Y37071429D01*
X29409525D01*
Y37019049D01*
X29357144D01*
Y36966666D01*
X29304761D01*
Y36861905D01*
X29252380D01*
Y36809525D01*
X29200000D01*
Y36757144D01*
X29147620D01*
Y36704761D01*
X29095239D01*
Y36600000D01*
X29042856D01*
Y36547620D01*
X28990475D01*
Y36495239D01*
X28938095D01*
Y36390475D01*
X28885715D01*
Y36285715D01*
X28833334D01*
Y36233334D01*
X28780951D01*
Y36128571D01*
X28728571D01*
Y36076190D01*
X28676190D01*
Y35971429D01*
X28623810D01*
Y35866666D01*
X28571429D01*
Y35761905D01*
X28519049D01*
Y35657144D01*
X28466666D01*
Y35552380D01*
X28414285D01*
Y35447620D01*
X28361905D01*
Y35290475D01*
X28309525D01*
Y35185715D01*
X28257144D01*
Y35028571D01*
X28204761D01*
Y34871429D01*
X28257144D01*
Y34923810D01*
X28309525D01*
Y34976190D01*
X28361905D01*
Y35028571D01*
X28466666D01*
Y35080951D01*
X28519049D01*
Y35133334D01*
X28571429D01*
Y35185715D01*
X28623810D01*
Y35238095D01*
X28676190D01*
Y35290475D01*
X28780951D01*
Y35342856D01*
X28833334D01*
Y35395239D01*
X28885715D01*
Y35447620D01*
X28990475D01*
Y35500000D01*
X29042856D01*
Y35552380D01*
X29147620D01*
Y35604761D01*
X29200000D01*
Y35657144D01*
X29304761D01*
Y35709525D01*
X29357144D01*
Y35761905D01*
X29461905D01*
Y35814285D01*
X29566666D01*
Y35866666D01*
X29671429D01*
Y35919049D01*
X29723810D01*
Y35971429D01*
X29828571D01*
Y36023810D01*
X29933334D01*
Y36076190D01*
X30038095D01*
Y36128571D01*
X30142856D01*
Y36180954D01*
X30247620D01*
Y36233334D01*
X30404761D01*
Y36285715D01*
X30509525D01*
Y36338095D01*
X30614285D01*
Y36390475D01*
X30771429D01*
Y36442856D01*
X30928571D01*
Y36495239D01*
X31085715D01*
Y36547620D01*
X31242856D01*
Y36600000D01*
X31400000D01*
Y36652380D01*
X31504761D01*
Y36704761D01*
X31661905D01*
Y36757144D01*
X31819049D01*
Y36809525D01*
X32028571D01*
Y36861905D01*
X32238095D01*
Y36914285D01*
X32447620D01*
Y36966666D01*
X32657144D01*
Y37019049D01*
X32971429D01*
Y37071429D01*
X33861905D01*
Y37019049D01*
X34123810D01*
Y36966666D01*
X34333334D01*
Y36914285D01*
X34490475D01*
Y36861905D01*
X34647620D01*
Y36809525D01*
X34752380D01*
Y36757144D01*
X34857144D01*
Y36704761D01*
X34961905D01*
Y36652380D01*
X35066666D01*
Y36600000D01*
X35171429D01*
Y36547620D01*
X35276190D01*
Y36495239D01*
X35328571D01*
Y36442856D01*
X35433334D01*
Y36390475D01*
X35485715D01*
Y36338095D01*
X35590475D01*
Y36285715D01*
X35642856D01*
Y36233334D01*
X35695239D01*
Y36180954D01*
X35747620D01*
Y36128571D01*
X35852380D01*
Y36076190D01*
X35904761D01*
Y36023810D01*
X35957144D01*
Y35971429D01*
X36009525D01*
Y35919049D01*
X36061905D01*
Y35866666D01*
X36114285D01*
Y35814285D01*
X36166666D01*
Y35761905D01*
X36219049D01*
Y35709525D01*
X36271429D01*
Y35604761D01*
X36323810D01*
Y35552380D01*
X36376190D01*
Y35500000D01*
X36428571D01*
Y35447620D01*
X36533334D01*
Y35761905D01*
X36585715D01*
Y36023810D01*
X36638095D01*
Y35971429D01*
X36690475D01*
Y35919049D01*
X36742856D01*
Y35866666D01*
X36795239D01*
Y35761905D01*
X36847620D01*
Y35709525D01*
X36900000D01*
Y35604761D01*
X36952380D01*
Y35552380D01*
X37004761D01*
Y35447620D01*
X37057144D01*
Y35395239D01*
X37109525D01*
Y35290475D01*
X37161905D01*
Y35238095D01*
X37214285D01*
Y35185715D01*
X37266666D01*
Y35080951D01*
X37319049D01*
Y35028571D01*
X37371429D01*
Y34976190D01*
Y34923810D01*
X37423810D01*
Y34871429D01*
X37476190D01*
Y34766666D01*
X37528571D01*
Y34714285D01*
X37580954D01*
Y34661905D01*
X37633334D01*
Y34766666D01*
X37685715D01*
Y34819049D01*
X37738095D01*
Y34923810D01*
X37790475D01*
Y34976190D01*
X37842856D01*
Y35080951D01*
X37895239D01*
Y35133334D01*
X37947620D01*
Y35185715D01*
X38000000D01*
Y35290475D01*
X38052380D01*
Y35342856D01*
X38104761D01*
Y35447620D01*
X38157144D01*
Y35500000D01*
X38209525D01*
Y35604761D01*
X38261905D01*
Y35657144D01*
X38314285D01*
Y35709525D01*
X38366666D01*
Y35814285D01*
X38419049D01*
Y35866666D01*
X38471429D01*
Y35971429D01*
X38523810D01*
Y36023810D01*
X38576190D01*
Y35971429D01*
X38628571D01*
Y35604761D01*
X38680951D01*
Y35290475D01*
X38733334D01*
Y34976190D01*
X38785715D01*
Y34609525D01*
X38838095D01*
Y34295239D01*
X38890475D01*
Y34242856D01*
X38942856D01*
Y34347620D01*
X38995239D01*
Y34452380D01*
X39047620D01*
Y34557144D01*
X39100000D01*
Y34661905D01*
X39152380D01*
Y34766666D01*
X39204761D01*
Y34871429D01*
X39257144D01*
Y35028571D01*
X39309525D01*
Y35133334D01*
X39361905D01*
Y35290475D01*
X39414285D01*
Y35447620D01*
X39466666D01*
Y35604761D01*
X39519049D01*
Y35814285D01*
X39571429D01*
Y36023810D01*
X39623810D01*
Y36390475D01*
X39676190D01*
Y37333334D01*
X39623810D01*
Y37647620D01*
X39571429D01*
Y37857144D01*
X39519049D01*
Y38066666D01*
X39466666D01*
Y38171429D01*
X39414285D01*
Y38328571D01*
X39361905D01*
Y38433334D01*
X39309525D01*
Y38590475D01*
X39257144D01*
Y38695239D01*
X39204761D01*
Y38800000D01*
X39152380D01*
Y38852380D01*
X39100000D01*
Y38957144D01*
X39047620D01*
Y39009525D01*
X38995239D01*
Y39114285D01*
X38942856D01*
Y39166666D01*
X38890475D01*
Y39271429D01*
X38838095D01*
Y39323810D01*
X38785715D01*
Y39376190D01*
X38733334D01*
Y39428571D01*
X38680951D01*
Y39480954D01*
X38628571D01*
Y39533334D01*
X38576190D01*
Y39585715D01*
X38523810D01*
Y39638095D01*
X38471429D01*
Y39690475D01*
X38419049D01*
Y39742856D01*
X38366666D01*
Y39795239D01*
X38314285D01*
Y39847620D01*
X38261905D01*
Y39900000D01*
X38209525D01*
Y39952380D01*
X38104761D01*
Y40004761D01*
X38052380D01*
Y40057144D01*
X37947620D01*
Y40109525D01*
X37895239D01*
Y40161905D01*
X37790475D01*
Y40214285D01*
X37738095D01*
Y40266666D01*
X37633334D01*
Y40319049D01*
X37476190D01*
Y40371429D01*
X37371429D01*
Y40423810D01*
X37214285D01*
Y40476190D01*
X37057144D01*
Y40528571D01*
X36847620D01*
Y40580951D01*
D02*
G37*
G36*
X40042856Y34295239D02*
X39780951D01*
Y34242856D01*
X39728571D01*
Y34190475D01*
X39676190D01*
Y33980951D01*
X39780951D01*
Y33928571D01*
X39990475D01*
Y33980951D01*
X40095239D01*
Y34033334D01*
X40147620D01*
Y34138095D01*
X40200000D01*
Y34190475D01*
X40147620D01*
Y34242856D01*
X40042856D01*
Y34295239D01*
D02*
G37*
G36*
X38209525Y34766666D02*
X38157144D01*
Y34661905D01*
X38104761D01*
Y34557144D01*
X38052380D01*
Y34504761D01*
X38000000D01*
Y34400000D01*
X37947620D01*
Y34347620D01*
X37895239D01*
Y34242856D01*
X37842856D01*
Y34190475D01*
X37790475D01*
Y34085715D01*
X37738095D01*
Y34033334D01*
X37685715D01*
Y33928571D01*
X37633334D01*
Y33876190D01*
X37528571D01*
Y33980951D01*
X37476190D01*
Y34033334D01*
X37423810D01*
Y34138095D01*
X37371429D01*
Y34190475D01*
X37319049D01*
Y34295239D01*
X37266666D01*
Y34347620D01*
X37214285D01*
Y34452380D01*
X37161905D01*
Y34557144D01*
X37109525D01*
Y34609525D01*
X37057144D01*
Y34714285D01*
X36952380D01*
Y34557144D01*
X37004761D01*
Y34452380D01*
X37057144D01*
Y34295239D01*
X37109525D01*
Y34190475D01*
X37161905D01*
Y34085715D01*
X37214285D01*
Y33928571D01*
X37266666D01*
Y33771429D01*
X37319049D01*
Y33561905D01*
X37371429D01*
Y33352380D01*
X37423810D01*
Y33142856D01*
X37476190D01*
Y32933334D01*
X37528571D01*
Y32671429D01*
X37633334D01*
Y32723810D01*
X37685715D01*
Y32776190D01*
X37738095D01*
Y32828571D01*
X37790475D01*
Y32880954D01*
X37842856D01*
Y32933334D01*
X37895239D01*
Y32985715D01*
X37947620D01*
Y33038095D01*
X38000000D01*
Y33090475D01*
X38052380D01*
Y33142856D01*
X38104761D01*
Y33195239D01*
X38157144D01*
Y33247620D01*
X38209525D01*
Y33352380D01*
X38261905D01*
Y33404761D01*
X38314285D01*
Y33457144D01*
X38366666D01*
Y33509525D01*
X38419049D01*
Y33561905D01*
X38471429D01*
Y33614285D01*
X38366666D01*
Y33771429D01*
X38314285D01*
Y34190475D01*
X38261905D01*
Y34661905D01*
X38209525D01*
Y34766666D01*
D02*
G37*
G36*
X33652380Y36704761D02*
X33128571D01*
Y36652380D01*
X32761905D01*
Y36600000D01*
X32500000D01*
Y36547620D01*
X32290475D01*
Y36495239D01*
X32080951D01*
Y36442856D01*
X31923810D01*
Y36390475D01*
X31766666D01*
Y36338095D01*
X31609525D01*
Y36285715D01*
X31452380D01*
Y36233334D01*
X31295239D01*
Y36180954D01*
X31138095D01*
Y36128571D01*
X30980954D01*
Y36076190D01*
X30876190D01*
Y36023810D01*
X30771429D01*
Y35971429D01*
X30614285D01*
Y35919049D01*
X30509525D01*
Y35866666D01*
X30404761D01*
Y35814285D01*
X30247620D01*
Y35761905D01*
X30142856D01*
Y35709525D01*
X30038095D01*
Y35657144D01*
X29933334D01*
Y35604761D01*
X29828571D01*
Y35552380D01*
X29776190D01*
Y35500000D01*
X29671429D01*
Y35447620D01*
X29566666D01*
Y35395239D01*
X29461905D01*
Y35342856D01*
X29409525D01*
Y35290475D01*
X29304761D01*
Y35238095D01*
X29252380D01*
Y35185715D01*
X29147620D01*
Y35133334D01*
X29095239D01*
Y35080951D01*
X29042856D01*
Y35028571D01*
X28938095D01*
Y34976190D01*
X28885715D01*
Y34923810D01*
X28833334D01*
Y34871429D01*
X28780951D01*
Y34819049D01*
X28676190D01*
Y34766666D01*
X28623810D01*
Y34714285D01*
X28571429D01*
Y34661905D01*
X28519049D01*
Y34609525D01*
X28466666D01*
Y34557144D01*
X28414285D01*
Y34504761D01*
X28361905D01*
Y34452380D01*
X28309525D01*
Y34400000D01*
X28257144D01*
Y34295239D01*
X28204761D01*
Y34242856D01*
X28152380D01*
Y34190475D01*
X28100000D01*
Y34138095D01*
X28047620D01*
Y34033334D01*
X27995239D01*
Y33876190D01*
X27942856D01*
Y32566666D01*
X27995239D01*
Y32200000D01*
X28047620D01*
Y31990475D01*
X28100000D01*
Y31780951D01*
X28152380D01*
Y31571429D01*
X28204761D01*
Y31361905D01*
X28257144D01*
Y31204761D01*
X28309525D01*
Y31100000D01*
X28361905D01*
Y30995239D01*
X28414285D01*
Y30890475D01*
X28466666D01*
Y30785715D01*
X28519049D01*
Y30680951D01*
X28571429D01*
Y30576190D01*
X28623810D01*
Y30471429D01*
X28676190D01*
Y30366666D01*
X28728571D01*
Y30314285D01*
X28780951D01*
Y30261905D01*
X28833334D01*
Y30157144D01*
X28885715D01*
Y30104761D01*
X28938095D01*
Y30000000D01*
X28990475D01*
Y29947620D01*
X29042856D01*
Y29895239D01*
X29095239D01*
Y29842856D01*
X29147620D01*
Y29790475D01*
X29200000D01*
Y29738095D01*
X29252380D01*
Y29633334D01*
X29304761D01*
Y29580954D01*
X29357144D01*
Y29528571D01*
X29409525D01*
Y29476190D01*
X29461905D01*
Y29423810D01*
X29514285D01*
Y29371429D01*
X29566666D01*
Y29319049D01*
X29619049D01*
Y29266666D01*
X29671429D01*
Y29214285D01*
X29723810D01*
Y29161905D01*
X29828571D01*
Y29109525D01*
X29880951D01*
Y29057144D01*
X29933334D01*
Y29004761D01*
X29985715D01*
Y28952380D01*
X30090475D01*
Y28900000D01*
X30142856D01*
Y28847620D01*
X30247620D01*
Y28795239D01*
X30300000D01*
Y28742856D01*
X30404761D01*
Y28690475D01*
X30457144D01*
Y28638095D01*
X30509525D01*
Y28585715D01*
X30614285D01*
Y28533334D01*
X30719049D01*
Y28480951D01*
X30771429D01*
Y28428571D01*
X30876190D01*
Y28376190D01*
X30980954D01*
Y28323810D01*
X31085715D01*
Y28271429D01*
X31190475D01*
Y28219049D01*
X31295239D01*
Y28166666D01*
X31400000D01*
Y28114285D01*
X31504761D01*
Y28061905D01*
X31661905D01*
Y28009525D01*
X31819049D01*
Y27957144D01*
X31976190D01*
Y27904761D01*
X32080951D01*
Y27852380D01*
X32290475D01*
Y27800000D01*
X32500000D01*
Y27747620D01*
X32709525D01*
Y27695239D01*
X33023810D01*
Y27642856D01*
X33495239D01*
Y27590475D01*
X34228571D01*
Y27642856D01*
X34280954D01*
Y27695239D01*
X34333334D01*
Y27800000D01*
X34385715D01*
Y27852380D01*
X34438095D01*
Y27957144D01*
X34490475D01*
Y28061905D01*
X34542856D01*
Y28166666D01*
X34595239D01*
Y28219049D01*
X34647620D01*
Y28323810D01*
X34700000D01*
Y28428571D01*
X34752380D01*
Y28533334D01*
X34804761D01*
Y28638095D01*
X34857144D01*
Y28742856D01*
X34909525D01*
Y28847620D01*
X34961905D01*
Y28952380D01*
X35014285D01*
Y29057144D01*
X35066666D01*
Y29109525D01*
X35119049D01*
Y29214285D01*
X35171429D01*
Y29371429D01*
X35223810D01*
Y29476190D01*
X35276190D01*
Y29580954D01*
X35328571D01*
Y29685715D01*
X35380951D01*
Y29790475D01*
X35433334D01*
Y29842856D01*
X35380951D01*
Y29895239D01*
X35328571D01*
Y29947620D01*
X35276190D01*
Y30052380D01*
X35223810D01*
Y30157144D01*
X35171429D01*
Y30680951D01*
X35223810D01*
Y30838095D01*
X35276190D01*
Y30890475D01*
X35328571D01*
Y30942856D01*
X35380951D01*
Y30995239D01*
X35433334D01*
Y31047620D01*
X35485715D01*
Y31100000D01*
X35590475D01*
Y31152380D01*
X35695239D01*
Y31204761D01*
X36009525D01*
Y31257144D01*
X36114285D01*
Y31204761D01*
X36219049D01*
Y31257144D01*
X36271429D01*
Y31309525D01*
X36323810D01*
Y31361905D01*
X36376190D01*
Y31466666D01*
X36428571D01*
Y31519049D01*
X36480951D01*
Y31571429D01*
X36533334D01*
Y31623810D01*
X36585715D01*
Y31728571D01*
X36638095D01*
Y31780951D01*
X36690475D01*
Y31833334D01*
X36742856D01*
Y31885715D01*
X36795239D01*
Y31938095D01*
X36847620D01*
Y31990475D01*
X36900000D01*
Y32042856D01*
X36952380D01*
Y32095239D01*
X37004761D01*
Y32147620D01*
X37057144D01*
Y32200000D01*
X37109525D01*
Y32252380D01*
X37161905D01*
Y32304761D01*
X37214285D01*
Y32566666D01*
X37161905D01*
Y32880954D01*
X37109525D01*
Y33142856D01*
X37057144D01*
Y33352380D01*
X37004761D01*
Y33561905D01*
X36952380D01*
Y33719049D01*
X36900000D01*
Y33771429D01*
X36847620D01*
Y33666666D01*
X36795239D01*
Y33614285D01*
X36271429D01*
Y33666666D01*
X36219049D01*
Y33771429D01*
X36271429D01*
Y34085715D01*
X36323810D01*
Y34452380D01*
X36376190D01*
Y34923810D01*
X36323810D01*
Y35028571D01*
X36271429D01*
Y35080951D01*
X36219049D01*
Y35185715D01*
X36166666D01*
Y35238095D01*
X36114285D01*
Y35290475D01*
X36061905D01*
Y35342856D01*
X36009525D01*
Y35395239D01*
X35957144D01*
Y35500000D01*
X35904761D01*
Y35552380D01*
X35852380D01*
Y35604761D01*
X35800000D01*
Y35657144D01*
X35747620D01*
Y35709525D01*
X35695239D01*
Y35761905D01*
X35642856D01*
Y35814285D01*
X35538095D01*
Y35866666D01*
X35485715D01*
Y35919049D01*
X35433334D01*
Y35971429D01*
X35380951D01*
Y36023810D01*
X35276190D01*
Y36076190D01*
X35223810D01*
Y36128571D01*
X35171429D01*
Y36180954D01*
X35066666D01*
Y36233334D01*
X34961905D01*
Y36285715D01*
X34857144D01*
Y36338095D01*
X34804761D01*
Y36390475D01*
X34700000D01*
Y36442856D01*
X34542856D01*
Y36495239D01*
X34438095D01*
Y36547620D01*
X34228571D01*
Y36600000D01*
X34019049D01*
Y36652380D01*
X33652380D01*
Y36704761D01*
D02*
G37*
G36*
X37266666Y31833334D02*
X37214285D01*
Y31780951D01*
X37161905D01*
Y31728571D01*
X37109525D01*
Y31676190D01*
X37057144D01*
Y31623810D01*
X37004761D01*
Y31571429D01*
X36952380D01*
Y31519049D01*
X36900000D01*
Y31466666D01*
X36847620D01*
Y31414285D01*
X36795239D01*
Y31361905D01*
X36742856D01*
Y31257144D01*
X36690475D01*
Y31204761D01*
X36638095D01*
Y31152380D01*
X36585715D01*
Y31047620D01*
X36533334D01*
Y30628571D01*
X36480951D01*
Y30680951D01*
X36428571D01*
Y30733334D01*
X36323810D01*
Y30680951D01*
X36271429D01*
Y30576190D01*
X36219049D01*
Y30523810D01*
X36166666D01*
Y30419049D01*
X36114285D01*
Y30314285D01*
X36061905D01*
Y30209525D01*
X36009525D01*
Y30157144D01*
X35957144D01*
Y30104761D01*
X36009525D01*
Y30052380D01*
X36271429D01*
Y30104761D01*
X36376190D01*
Y30157144D01*
X36428571D01*
Y30209525D01*
X36533334D01*
Y29738095D01*
X36428571D01*
Y29685715D01*
X36271429D01*
Y29633334D01*
X35695239D01*
Y29528571D01*
X35642856D01*
Y29423810D01*
X35590475D01*
Y29319049D01*
X35538095D01*
Y29214285D01*
X35485715D01*
Y29109525D01*
X35433334D01*
Y29004761D01*
X35380951D01*
Y28900000D01*
X35328571D01*
Y28795239D01*
X35276190D01*
Y28690475D01*
X35223810D01*
Y28585715D01*
X35171429D01*
Y28533334D01*
X35119049D01*
Y28428571D01*
X35066666D01*
Y28323810D01*
X35014285D01*
Y28219049D01*
X34961905D01*
Y28114285D01*
X34909525D01*
Y28009525D01*
X34857144D01*
Y27957144D01*
X34804761D01*
Y27852380D01*
X34752380D01*
Y27747620D01*
X34700000D01*
Y27695239D01*
X34647620D01*
Y27642856D01*
X35066666D01*
Y27695239D01*
X35328571D01*
Y27747620D01*
X35485715D01*
Y27800000D01*
X35642856D01*
Y27852380D01*
X35800000D01*
Y27904761D01*
X35904761D01*
Y27957144D01*
X36009525D01*
Y28009525D01*
X36114285D01*
Y28061905D01*
X36219049D01*
Y28114285D01*
X36271429D01*
Y28166666D01*
X36376190D01*
Y28219049D01*
X36428571D01*
Y28271429D01*
X36480951D01*
Y28323810D01*
X36533334D01*
Y28376190D01*
X36585715D01*
Y28428571D01*
X36638095D01*
Y28480951D01*
X36690475D01*
Y28533334D01*
X36742856D01*
Y28585715D01*
X36795239D01*
Y28638095D01*
X36847620D01*
Y28690475D01*
X36900000D01*
Y28795239D01*
X36952380D01*
Y28900000D01*
X37004761D01*
Y28952380D01*
X37057144D01*
Y29109525D01*
X37109525D01*
Y29266666D01*
X37161905D01*
Y29476190D01*
X37214285D01*
Y29738095D01*
X37161905D01*
Y29790475D01*
X37057144D01*
Y29842856D01*
X37004761D01*
Y29895239D01*
X36952380D01*
Y30000000D01*
X36900000D01*
Y30052380D01*
X36847620D01*
Y30209525D01*
X36795239D01*
Y30628571D01*
X36847620D01*
Y30785715D01*
X36900000D01*
Y30890475D01*
X36952380D01*
Y30942856D01*
X37004761D01*
Y30995239D01*
X37057144D01*
Y31047620D01*
X37109525D01*
Y31100000D01*
X37214285D01*
Y31152380D01*
X37266666D01*
Y31204761D01*
X37319049D01*
Y31414285D01*
X37266666D01*
Y31833334D01*
D02*
G37*
G36*
X35904761Y30733334D02*
X35800000D01*
Y30680951D01*
X35747620D01*
Y30576190D01*
X35695239D01*
Y30366666D01*
X35747620D01*
Y30471429D01*
X35800000D01*
Y30523810D01*
X35852380D01*
Y30628571D01*
X35904761D01*
Y30680951D01*
Y30733334D01*
D02*
G37*
G36*
X27890475Y26595239D02*
X27838095D01*
Y26542856D01*
X27890475D01*
Y26595239D01*
D02*
G37*
G36*
X27995239Y26542856D02*
X27942856D01*
Y26490475D01*
X27995239D01*
Y26542856D01*
D02*
G37*
G36*
X28047620Y26333334D02*
X27995239D01*
Y26228571D01*
X28047620D01*
Y26280954D01*
Y26333334D01*
D02*
G37*
G36*
X28257144Y26176190D02*
X28204761D01*
Y26123810D01*
X28257144D01*
Y26176190D01*
D02*
G37*
G36*
X28152380Y26071429D02*
X28100000D01*
Y26019049D01*
X28152380D01*
Y26071429D01*
D02*
G37*
G36*
X33076190Y25914285D02*
X33023810D01*
Y25861905D01*
X33076190D01*
Y25914285D01*
D02*
G37*
%LPD*%
G36*
X34385715Y31204761D02*
X34595239D01*
Y31152380D01*
X34700000D01*
Y31100000D01*
X34752380D01*
Y31047620D01*
X34804761D01*
Y30995239D01*
X34857144D01*
Y30890475D01*
X34909525D01*
Y29685715D01*
X34438095D01*
Y29790475D01*
X34333334D01*
Y29738095D01*
X34280954D01*
Y29685715D01*
X34123810D01*
Y29633334D01*
X33704761D01*
Y29685715D01*
X33600000D01*
Y29738095D01*
X33547620D01*
Y29790475D01*
X33495239D01*
Y29842856D01*
X33442856D01*
Y29895239D01*
X33390475D01*
Y30314285D01*
X33442856D01*
Y30419049D01*
X33495239D01*
Y30471429D01*
X33600000D01*
Y30523810D01*
X33704761D01*
Y30576190D01*
X34280954D01*
Y30523810D01*
X34385715D01*
Y30576190D01*
X34438095D01*
Y30680951D01*
X34385715D01*
Y30785715D01*
X34333334D01*
Y30838095D01*
X33861905D01*
Y30785715D01*
X33757144D01*
Y30733334D01*
X33652380D01*
Y30785715D01*
X33600000D01*
Y30890475D01*
X33547620D01*
Y30995239D01*
X33495239D01*
Y31100000D01*
X33652380D01*
Y31152380D01*
X33809525D01*
Y31204761D01*
X34019049D01*
Y31257144D01*
X34385715D01*
Y31204761D01*
D02*
G37*
%LPC*%
G36*
X34333334Y30314285D02*
X33966666D01*
Y30261905D01*
X33914285D01*
Y30052380D01*
X33966666D01*
Y30000000D01*
X34071429D01*
Y29947620D01*
X34123810D01*
Y30000000D01*
X34280954D01*
Y30052380D01*
X34333334D01*
Y30104761D01*
X34385715D01*
Y30261905D01*
X34333334D01*
Y30314285D01*
D02*
G37*
G36*
X52038092Y30838095D02*
X51933331D01*
Y30785715D01*
X51828571D01*
Y30733334D01*
X51723810D01*
Y30628571D01*
X51671429D01*
Y30523810D01*
X51619049D01*
Y30366666D01*
X51671429D01*
Y30209525D01*
X51723810D01*
Y30157144D01*
X51776190D01*
Y30104761D01*
X51880951D01*
Y30052380D01*
X52090479D01*
Y30104761D01*
X52195239D01*
Y30157144D01*
X52247620D01*
Y30209525D01*
X52300000D01*
Y30314285D01*
X52352380D01*
Y30576190D01*
X52300000D01*
Y30680951D01*
X52247620D01*
Y30733334D01*
X52195239D01*
Y30785715D01*
X52038092D01*
Y30838095D01*
D02*
G37*
G36*
X55023810Y30314285D02*
X54657141D01*
Y30261905D01*
X54604761D01*
Y30209525D01*
X54552380D01*
Y30052380D01*
X54604761D01*
Y30000000D01*
X54761908D01*
Y29947620D01*
X54814288D01*
Y30000000D01*
X54971429D01*
Y30052380D01*
X55023810D01*
Y30104761D01*
X55076190D01*
Y30157144D01*
Y30209525D01*
Y30261905D01*
X55023810D01*
Y30314285D01*
D02*
G37*
G36*
X48161905Y30890475D02*
X47952380D01*
Y30838095D01*
X47847620D01*
Y30785715D01*
X47795239D01*
Y30733334D01*
X47742856D01*
Y30628571D01*
X48319049D01*
Y30733334D01*
X48266666D01*
Y30838095D01*
X48161905D01*
Y30890475D01*
D02*
G37*
G36*
X45228571Y30838095D02*
X45123810D01*
Y30785715D01*
X45019049D01*
Y30733334D01*
X44966666D01*
Y30680951D01*
X44914285D01*
Y30628571D01*
X44861905D01*
Y30261905D01*
X44914285D01*
Y30157144D01*
X44966666D01*
Y30104761D01*
X45071429D01*
Y30052380D01*
X45333334D01*
Y30104761D01*
X45438095D01*
Y30209525D01*
X45490475D01*
Y30314285D01*
X45542856D01*
Y30576190D01*
X45490475D01*
Y30680951D01*
X45438095D01*
Y30733334D01*
X45385715D01*
Y30785715D01*
X45228571D01*
Y30838095D01*
D02*
G37*
G36*
X39414285Y30890475D02*
X39152380D01*
Y30838095D01*
X39047620D01*
Y30785715D01*
X38995239D01*
Y30733334D01*
Y30628571D01*
X39571429D01*
Y30680951D01*
X39519049D01*
Y30785715D01*
X39466666D01*
Y30838095D01*
X39414285D01*
Y30890475D01*
D02*
G37*
G36*
X11194079Y2199671D02*
X11152631D01*
Y2193750D01*
X11146710D01*
Y2187829D01*
X11140790D01*
Y2170066D01*
X11134869D01*
Y2152303D01*
X11140790D01*
Y2140461D01*
X11146710D01*
Y2134540D01*
X11152631D01*
Y2128618D01*
X11158553D01*
Y2122697D01*
X11188158D01*
Y2128618D01*
X11200000D01*
Y2134540D01*
Y2140461D01*
X11205921D01*
Y2146382D01*
X11211842D01*
Y2175987D01*
X11205921D01*
Y2187829D01*
X11200000D01*
Y2193750D01*
X11194079D01*
Y2199671D01*
D02*
G37*
G36*
X11549342Y2205592D02*
X11537500D01*
Y2199671D01*
X11525658D01*
Y2193750D01*
X11519737D01*
Y2187829D01*
X11513816D01*
Y2181908D01*
X11507895D01*
Y2146382D01*
X11513816D01*
Y2134540D01*
X11519737D01*
Y2128618D01*
X11531579D01*
Y2122697D01*
X11561184D01*
Y2128618D01*
X11567105D01*
Y2134540D01*
X11573026D01*
Y2140461D01*
X11578947D01*
Y2152303D01*
X11584869D01*
Y2170066D01*
X11578947D01*
Y2187829D01*
X11573026D01*
Y2193750D01*
X11567105D01*
Y2199671D01*
X11549342D01*
Y2205592D01*
D02*
G37*
G36*
X69394080Y1999671D02*
X69352631D01*
Y1993750D01*
X69346710D01*
Y1987829D01*
X69340790D01*
Y1970066D01*
X69334869D01*
Y1952302D01*
X69340790D01*
Y1940460D01*
X69346710D01*
Y1934539D01*
X69352631D01*
Y1928618D01*
X69358551D01*
Y1922697D01*
X69388159D01*
Y1928618D01*
X69400000D01*
Y1934539D01*
Y1940460D01*
X69405920D01*
Y1946381D01*
X69411841D01*
Y1975987D01*
X69405920D01*
Y1987829D01*
X69400000D01*
Y1993750D01*
X69394080D01*
Y1999671D01*
D02*
G37*
G36*
X69749341Y2005592D02*
X69737500D01*
Y1999671D01*
X69725659D01*
Y1993750D01*
X69719739D01*
Y1987829D01*
X69713818D01*
Y1981908D01*
X69707898D01*
Y1946381D01*
X69713818D01*
Y1934539D01*
X69719739D01*
Y1928618D01*
X69731580D01*
Y1922697D01*
X69761188D01*
Y1928618D01*
X69767108D01*
Y1934539D01*
X69773029D01*
Y1940460D01*
X69778949D01*
Y1952302D01*
X69784869D01*
Y1970066D01*
X69778949D01*
Y1987829D01*
X69773029D01*
Y1993750D01*
X69767108D01*
Y1999671D01*
X69749341D01*
Y2005592D01*
D02*
G37*
%LPD*%
D17*
X70960553Y2300000D02*
G03*
X70960553Y2300000I-360555J0D01*
G01*
X70700000D02*
G03*
X70700000Y2300000I-100000J0D01*
G01*
X12500000Y2500000D02*
G03*
X12500000Y2500000I-100000J0D01*
G01*
X12760555D02*
G03*
X12760555Y2500000I-360555J0D01*
G01*
X80300000Y400000D02*
Y800000D01*
Y400000D02*
X80600000D01*
X80000000D02*
X80600000D01*
X80100000Y300000D02*
X80200000D01*
X80100000D02*
X80500000D01*
X80200000Y200000D02*
X80400000D01*
X76100000D02*
X76300000D01*
X76000000Y300000D02*
X76400000D01*
X76000000D02*
X76100000D01*
X75900000Y400000D02*
X76500000D01*
X76200000D02*
X76500000D01*
X76200000D02*
Y800000D01*
X4100000Y600000D02*
Y1000000D01*
Y600000D02*
X4400000D01*
X3800000D02*
X4400000D01*
X3900000Y500000D02*
X4000000D01*
X3900000D02*
X4300000D01*
X4000000Y400000D02*
X4200000D01*
X8100000D02*
X8300000D01*
X8000000Y500000D02*
X8400000D01*
X8000000D02*
X8100000D01*
X7900000Y600000D02*
X8500000D01*
X8200000D02*
X8500000D01*
X8200000D02*
Y1000000D01*
X10726967Y1803142D02*
X10701575Y1828534D01*
X10650792D01*
X10625400Y1803142D01*
Y1701575D01*
X10650792Y1676184D01*
X10701575D01*
X10726967Y1701575D01*
Y1752359D01*
X10676183D01*
X10777751Y1777751D02*
Y1676184D01*
Y1726967D01*
X10803142Y1752359D01*
X10828534Y1777751D01*
X10853926D01*
X10955493D02*
X11006277D01*
X11031669Y1752359D01*
Y1676184D01*
X10955493D01*
X10930101Y1701575D01*
X10955493Y1726967D01*
X11031669D01*
X11184019Y1828534D02*
Y1676184D01*
X11107844D01*
X11082452Y1701575D01*
Y1752359D01*
X11107844Y1777751D01*
X11184019D01*
X11234803Y1676184D02*
X11285586D01*
X11260195D01*
Y1777751D01*
X11234803D01*
X11437937Y1676184D02*
X11387154D01*
X11361762Y1701575D01*
Y1752359D01*
X11387154Y1777751D01*
X11437937D01*
X11463329Y1752359D01*
Y1726967D01*
X11361762D01*
X11514112Y1676184D02*
Y1777751D01*
X11590288D01*
X11615680Y1752359D01*
Y1676184D01*
X11691855Y1803142D02*
Y1777751D01*
X11666463D01*
X11717247D01*
X11691855D01*
Y1701575D01*
X11717247Y1676184D01*
X11793422Y1650792D02*
X11894989D01*
X12047340Y1803142D02*
X12021948Y1828534D01*
X11971165D01*
X11945773Y1803142D01*
Y1701575D01*
X11971165Y1676184D01*
X12021948D01*
X12047340Y1701575D01*
X12123515Y1676184D02*
X12174299D01*
X12199691Y1701575D01*
Y1752359D01*
X12174299Y1777751D01*
X12123515D01*
X12098123Y1752359D01*
Y1701575D01*
X12123515Y1676184D01*
X12250474D02*
X12301258D01*
X12275866D01*
Y1777751D01*
X12250474D01*
X12377433Y1676184D02*
X12428216D01*
X12402825D01*
Y1828534D01*
X12377433D01*
X12504392Y1650792D02*
X12605959D01*
X12656743Y1828534D02*
X12758310Y1676184D01*
Y1828534D02*
X12656743Y1676184D01*
X12809093Y1650792D02*
X12910660D01*
X12961444Y1676184D02*
X13037619D01*
X13063011Y1701575D01*
X13037619Y1726967D01*
X12986836D01*
X12961444Y1752359D01*
X12986836Y1777751D01*
X13063011D01*
X13189970Y1676184D02*
X13139188D01*
X13113795Y1701575D01*
Y1752359D01*
X13139188Y1777751D01*
X13189970D01*
X13215363Y1752359D01*
Y1726967D01*
X13113795D01*
X13291537Y1803142D02*
Y1777751D01*
X13266145D01*
X13316930D01*
X13291537D01*
Y1701575D01*
X13316930Y1676184D01*
X13393105Y1777751D02*
Y1701575D01*
X13418497Y1676184D01*
X13494672D01*
Y1777751D01*
X13545454Y1625400D02*
Y1777751D01*
X13621629D01*
X13647021Y1752359D01*
Y1701575D01*
X13621629Y1676184D01*
X13545454D01*
X13799373D02*
X13697806D01*
X13799373Y1777751D01*
Y1803142D01*
X13773981Y1828534D01*
X13723198D01*
X13697806Y1803142D01*
X13850156Y1650792D02*
X13951724D01*
X14002507Y1828534D02*
Y1726967D01*
X14053291Y1676184D01*
X14104074Y1726967D01*
Y1828534D01*
X14154858Y1676184D02*
X14205641D01*
X14180251D01*
Y1828534D01*
X14154858Y1803142D01*
X14281818Y1676184D02*
Y1701575D01*
X14307208D01*
Y1676184D01*
X14281818D01*
X14408775Y1803142D02*
X14434167Y1828534D01*
X14484950D01*
X14510342Y1803142D01*
Y1701575D01*
X14484950Y1676184D01*
X14434167D01*
X14408775Y1701575D01*
Y1803142D01*
X14561127Y1650792D02*
X14662694D01*
X14713477Y1676184D02*
X14764261D01*
X14738869D01*
Y1828534D01*
X14713477Y1803142D01*
X14942003Y1676184D02*
X14840436D01*
X14942003Y1777751D01*
Y1803142D01*
X14916611Y1828534D01*
X14865828D01*
X14840436Y1803142D01*
X14992787Y1650792D02*
X15094354D01*
X15246706Y1676184D02*
X15145137D01*
X15246706Y1777751D01*
Y1803142D01*
X15221313Y1828534D01*
X15170529D01*
X15145137Y1803142D01*
X15297488D02*
X15322881Y1828534D01*
X15373663D01*
X15399055Y1803142D01*
Y1701575D01*
X15373663Y1676184D01*
X15322881D01*
X15297488Y1701575D01*
Y1803142D01*
X15551405Y1676184D02*
X15449838D01*
X15551405Y1777751D01*
Y1803142D01*
X15526015Y1828534D01*
X15475230D01*
X15449838Y1803142D01*
X15602190D02*
X15627580Y1828534D01*
X15678365D01*
X15703757Y1803142D01*
Y1777751D01*
X15678365Y1752359D01*
X15652972D01*
X15678365D01*
X15703757Y1726967D01*
Y1701575D01*
X15678365Y1676184D01*
X15627580D01*
X15602190Y1701575D01*
X68926965Y1603142D02*
X68901575Y1628534D01*
X68850793D01*
X68825403Y1603142D01*
Y1501575D01*
X68850793Y1476183D01*
X68901575D01*
X68926965Y1501575D01*
Y1552359D01*
X68876184D01*
X68977753Y1577751D02*
Y1476183D01*
Y1526967D01*
X69003143Y1552359D01*
X69028534Y1577751D01*
X69053925D01*
X69155493D02*
X69206274D01*
X69231671Y1552359D01*
Y1476183D01*
X69155493D01*
X69130103Y1501575D01*
X69155493Y1526967D01*
X69231671D01*
X69384021Y1628534D02*
Y1476183D01*
X69307843D01*
X69282452Y1501575D01*
Y1552359D01*
X69307843Y1577751D01*
X69384021D01*
X69434802Y1476183D02*
X69485583D01*
X69460193D01*
Y1577751D01*
X69434802D01*
X69637939Y1476183D02*
X69587152D01*
X69561761Y1501575D01*
Y1552359D01*
X69587152Y1577751D01*
X69637939D01*
X69663330Y1552359D01*
Y1526967D01*
X69561761D01*
X69714111Y1476183D02*
Y1577751D01*
X69790289D01*
X69815680Y1552359D01*
Y1476183D01*
X69891858Y1603142D02*
Y1577751D01*
X69866461D01*
X69917249D01*
X69891858D01*
Y1501575D01*
X69917249Y1476183D01*
X69993420Y1450792D02*
X70094989D01*
X70247339Y1603142D02*
X70221948Y1628534D01*
X70171167D01*
X70145770Y1603142D01*
Y1501575D01*
X70171167Y1476183D01*
X70221948D01*
X70247339Y1501575D01*
X70323517Y1476183D02*
X70374298D01*
X70399689Y1501575D01*
Y1552359D01*
X70374298Y1577751D01*
X70323517D01*
X70298126Y1552359D01*
Y1501575D01*
X70323517Y1476183D01*
X70450476D02*
X70501257D01*
X70475867D01*
Y1577751D01*
X70450476D01*
X70577435Y1476183D02*
X70628217D01*
X70602826D01*
Y1628534D01*
X70577435D01*
X70704395Y1450792D02*
X70805957D01*
X70856744Y1628534D02*
X70958313Y1476183D01*
Y1628534D02*
X70856744Y1476183D01*
X71009094Y1450792D02*
X71110663D01*
X71161444Y1476183D02*
X71237622D01*
X71263013Y1501575D01*
X71237622Y1526967D01*
X71186835D01*
X71161444Y1552359D01*
X71186835Y1577751D01*
X71263013D01*
X71389972Y1476183D02*
X71339185D01*
X71313794Y1501575D01*
Y1552359D01*
X71339185Y1577751D01*
X71389972D01*
X71415363Y1552359D01*
Y1526967D01*
X71313794D01*
X71491534Y1603142D02*
Y1577751D01*
X71466144D01*
X71516931D01*
X71491534D01*
Y1501575D01*
X71516931Y1476183D01*
X71593103Y1577751D02*
Y1501575D01*
X71618494Y1476183D01*
X71694672D01*
Y1577751D01*
X71745453Y1425400D02*
Y1577751D01*
X71821631D01*
X71847021Y1552359D01*
Y1501575D01*
X71821631Y1476183D01*
X71745453D01*
X71999371D02*
X71897809D01*
X71999371Y1577751D01*
Y1603142D01*
X71973981Y1628534D01*
X71923199D01*
X71897809Y1603142D01*
X72050159Y1450792D02*
X72151721D01*
X72202509Y1628534D02*
Y1526967D01*
X72253290Y1476183D01*
X72304077Y1526967D01*
Y1628534D01*
X72354858Y1476183D02*
X72405640D01*
X72380249D01*
Y1628534D01*
X72354858Y1603142D01*
X72481818Y1476183D02*
Y1501575D01*
X72507208D01*
Y1476183D01*
X72481818D01*
X72608777Y1603142D02*
X72634167Y1628534D01*
X72684949D01*
X72710345Y1603142D01*
Y1501575D01*
X72684949Y1476183D01*
X72634167D01*
X72608777Y1501575D01*
Y1603142D01*
X72761127Y1450792D02*
X72862695D01*
X72913477Y1476183D02*
X72964264D01*
X72938867D01*
Y1628534D01*
X72913477Y1603142D01*
X73142004Y1476183D02*
X73040436D01*
X73142004Y1577751D01*
Y1603142D01*
X73116614Y1628534D01*
X73065826D01*
X73040436Y1603142D01*
X73192786Y1450792D02*
X73294354D01*
X73446704Y1476183D02*
X73345135D01*
X73446704Y1577751D01*
Y1603142D01*
X73421313Y1628534D01*
X73370526D01*
X73345135Y1603142D01*
X73497485D02*
X73522882Y1628534D01*
X73573663D01*
X73599054Y1603142D01*
Y1501575D01*
X73573663Y1476183D01*
X73522882D01*
X73497485Y1501575D01*
Y1603142D01*
X73751404Y1476183D02*
X73649841D01*
X73751404Y1577751D01*
Y1603142D01*
X73726013Y1628534D01*
X73675232D01*
X73649841Y1603142D01*
X73802191D02*
X73827582Y1628534D01*
X73878363D01*
X73903760Y1603142D01*
Y1577751D01*
X73878363Y1552359D01*
X73852972D01*
X73878363D01*
X73903760Y1526967D01*
Y1501575D01*
X73878363Y1476183D01*
X73827582D01*
X73802191Y1501575D01*
X7769827Y4904699D02*
X7744435Y4930091D01*
X7693652D01*
X7668260Y4904699D01*
Y4803132D01*
X7693652Y4777740D01*
X7744435D01*
X7769827Y4803132D01*
X7896786Y4930091D02*
X7846003D01*
X7820611Y4904699D01*
Y4803132D01*
X7846003Y4777740D01*
X7896786D01*
X7922178Y4803132D01*
Y4904699D01*
X7896786Y4930091D01*
X7972961Y4777740D02*
Y4930091D01*
X8074529Y4777740D01*
Y4930091D01*
X8125312Y4777740D02*
X8176096D01*
X8150704D01*
Y4930091D01*
X8125312Y4904699D01*
X68825403Y1125400D02*
X68876184D01*
X68850793D01*
Y1277751D01*
X68825403Y1252359D01*
X69028534Y1125400D02*
Y1277751D01*
X68952356Y1201575D01*
X69053925D01*
X69104712Y1252359D02*
X69130103Y1277751D01*
X69180884D01*
X69206274Y1252359D01*
Y1150792D01*
X69180884Y1125400D01*
X69130103D01*
X69104712Y1150792D01*
Y1252359D01*
X69409412Y1226967D02*
Y1150792D01*
X69434802Y1125400D01*
X69510980D01*
Y1226967D01*
X69561761Y1277751D02*
X69663330D01*
X69612543D01*
Y1125400D01*
X69714111D02*
X69815680Y1226967D01*
X69866461Y1125400D02*
Y1226967D01*
X69891858D01*
X69917249Y1201575D01*
Y1125400D01*
Y1201575D01*
X69942639Y1226967D01*
X69968030Y1201575D01*
Y1125400D01*
X70018811D02*
X70120380Y1226967D01*
X70171167Y1125400D02*
Y1226967D01*
X70221948Y1277751D01*
X70272729Y1226967D01*
Y1125400D01*
Y1201575D01*
X70171167D01*
X70526648Y1125400D02*
X70475867Y1176183D01*
Y1226967D01*
X70526648Y1277751D01*
X70602826Y1125400D02*
X70653607D01*
X70628217D01*
Y1277751D01*
X70602826Y1252359D01*
X70805957Y1125400D02*
Y1277751D01*
X70729785Y1201575D01*
X70831354D01*
X70882135Y1125400D02*
Y1226967D01*
X70907526D01*
X70932916Y1201575D01*
Y1125400D01*
Y1201575D01*
X70958313Y1226967D01*
X70983704Y1201575D01*
Y1125400D01*
X71034485Y1277751D02*
X71136053D01*
X71085266D01*
Y1125400D01*
X71186835D02*
X71288403Y1226967D01*
X71339185Y1125400D02*
Y1226967D01*
X71364581D01*
X71389972Y1201575D01*
Y1125400D01*
Y1201575D01*
X71415363Y1226967D01*
X71440753Y1201575D01*
Y1125400D01*
X71669281Y1226967D02*
X71720062D01*
X71745453Y1201575D01*
Y1125400D01*
X71669281D01*
X71643890Y1150792D01*
X71669281Y1176183D01*
X71745453D01*
X71821631Y1252359D02*
Y1226967D01*
X71796240D01*
X71847021D01*
X71821631D01*
Y1150792D01*
X71847021Y1125400D01*
X72075549D02*
X72126331D01*
X72100940D01*
Y1277751D01*
X72075549Y1252359D01*
X72202509D02*
X72227899Y1277751D01*
X72278680D01*
X72304077Y1252359D01*
Y1150792D01*
X72278680Y1125400D01*
X72227899D01*
X72202509Y1150792D01*
Y1252359D01*
X72354858D02*
X72380249Y1277751D01*
X72431030D01*
X72456427Y1252359D01*
Y1150792D01*
X72431030Y1125400D01*
X72380249D01*
X72354858Y1150792D01*
Y1252359D01*
X72507208Y1125400D02*
Y1226967D01*
X72557990Y1277751D01*
X72608777Y1226967D01*
Y1125400D01*
Y1201575D01*
X72507208D01*
X72659558Y1125400D02*
X72710345Y1176183D01*
Y1226967D01*
X72659558Y1277751D01*
X68825403Y977751D02*
Y825400D01*
X68926965D01*
X69130103Y876183D02*
X69231671D01*
X69130103Y926967D02*
X69231671D01*
X69434802Y825400D02*
X69485583D01*
X69460193D01*
Y977751D01*
X69434802Y952359D01*
X69561761D02*
X69587152Y977751D01*
X69637939D01*
X69663330Y952359D01*
Y926967D01*
X69637939Y901575D01*
X69663330Y876183D01*
Y850792D01*
X69637939Y825400D01*
X69587152D01*
X69561761Y850792D01*
Y876183D01*
X69587152Y901575D01*
X69561761Y926967D01*
Y952359D01*
X69587152Y901575D02*
X69637939D01*
X69815680Y977751D02*
X69764899Y952359D01*
X69714111Y901575D01*
Y850792D01*
X69739502Y825400D01*
X69790289D01*
X69815680Y850792D01*
Y876183D01*
X69790289Y901575D01*
X69714111D01*
X69866461Y926967D02*
Y850792D01*
X69891858Y825400D01*
X69968030D01*
Y926967D01*
X70018811Y977751D02*
Y825400D01*
Y901575D01*
X70120380D01*
Y977751D01*
Y825400D01*
X68926965Y703142D02*
X68901575Y728534D01*
X68850793D01*
X68825403Y703142D01*
Y677751D01*
X68850793Y652359D01*
X68901575D01*
X68926965Y626967D01*
Y601575D01*
X68901575Y576184D01*
X68850793D01*
X68825403Y601575D01*
X68977753Y576184D02*
X69028534D01*
X69003143D01*
Y728534D01*
X68977753D01*
X69180884Y576184D02*
X69130103D01*
X69104712Y601575D01*
Y652359D01*
X69130103Y677751D01*
X69180884D01*
X69206274Y652359D01*
Y626967D01*
X69104712D01*
X69257062Y677751D02*
Y601575D01*
X69282452Y576184D01*
X69307843Y601575D01*
X69333234Y576184D01*
X69358630Y601575D01*
Y677751D01*
X69561761D02*
Y576184D01*
Y626967D01*
X69587152Y652359D01*
X69612543Y677751D01*
X69637939D01*
X69739502D02*
X69790289D01*
X69815680Y652359D01*
Y576184D01*
X69739502D01*
X69714111Y601575D01*
X69739502Y626967D01*
X69815680D01*
X69891858Y703142D02*
Y677751D01*
X69866461D01*
X69917249D01*
X69891858D01*
Y601575D01*
X69917249Y576184D01*
X70069598D02*
X70018811D01*
X69993420Y601575D01*
Y652359D01*
X70018811Y677751D01*
X70069598D01*
X70094989Y652359D01*
Y626967D01*
X69993420D01*
X70145770Y677751D02*
X70171167D01*
Y652359D01*
X70145770D01*
Y677751D01*
Y601575D02*
X70171167D01*
Y576184D01*
X70145770D01*
Y601575D01*
X70425079Y728534D02*
X70526648D01*
Y703142D01*
X70425079Y601575D01*
Y576184D01*
X70678998Y728534D02*
X70577435D01*
Y652359D01*
X70628217Y677751D01*
X70653607D01*
X70678998Y652359D01*
Y601575D01*
X70653607Y576184D01*
X70602826D01*
X70577435Y601575D01*
X70882135Y728534D02*
X70983704D01*
X70932916D01*
Y576184D01*
X71034485D02*
X71136053Y677751D01*
X71186835Y576184D02*
Y677751D01*
X71212225D01*
X71237622Y652359D01*
Y576184D01*
Y652359D01*
X71263013Y677751D01*
X71288403Y652359D01*
Y576184D01*
X71339185D02*
X71440753Y677751D01*
X71491534Y576184D02*
X71567712D01*
X71593103Y601575D01*
X71567712Y626967D01*
X71516931D01*
X71491534Y652359D01*
X71516931Y677751D01*
X71593103D01*
X71796240Y525400D02*
Y677751D01*
X71872412D01*
X71897809Y652359D01*
Y601575D01*
X71872412Y576184D01*
X71796240D01*
X71973981D02*
X72024762D01*
X72050159Y601575D01*
Y652359D01*
X72024762Y677751D01*
X71973981D01*
X71948590Y652359D01*
Y601575D01*
X71973981Y576184D01*
X72100940Y677751D02*
Y601575D01*
X72126331Y576184D01*
X72202509D01*
Y677751D01*
X72253290D02*
Y576184D01*
Y626967D01*
X72278680Y652359D01*
X72304077Y677751D01*
X72329468D01*
X72557996Y576184D02*
X72608777D01*
X72583386D01*
Y728534D01*
X72557996Y703142D01*
X72684949D02*
X72710345Y728534D01*
X72761127D01*
X72786517Y703142D01*
Y601575D01*
X72761127Y576184D01*
X72710345D01*
X72684949Y601575D01*
Y703142D01*
X72837305D02*
X72862695Y728534D01*
X72913477D01*
X72938867Y703142D01*
Y601575D01*
X72913477Y576184D01*
X72862695D01*
X72837305Y601575D01*
Y703142D01*
X72989655Y728534D02*
Y626967D01*
X73040436Y576184D01*
X73091217Y626967D01*
Y728534D01*
X73167395Y576184D02*
X73218176D01*
X73243573Y601575D01*
Y652359D01*
X73218176Y677751D01*
X73167395D01*
X73142004Y652359D01*
Y601575D01*
X73167395Y576184D01*
X73294354D02*
X73345135D01*
X73319745D01*
Y728534D01*
X73294354D01*
X73446704Y703142D02*
Y677751D01*
X73421313D01*
X73472095D01*
X73446704D01*
Y601575D01*
X73472095Y576184D01*
X10726967Y903142D02*
X10701575Y928534D01*
X10650792D01*
X10625400Y903142D01*
Y877751D01*
X10650792Y852359D01*
X10701575D01*
X10726967Y826967D01*
Y801575D01*
X10701575Y776184D01*
X10650792D01*
X10625400Y801575D01*
X10777751Y776184D02*
X10828534D01*
X10803142D01*
Y928534D01*
X10777751D01*
X10980885Y776184D02*
X10930101D01*
X10904709Y801575D01*
Y852359D01*
X10930101Y877751D01*
X10980885D01*
X11006277Y852359D01*
Y826967D01*
X10904709D01*
X11057060Y877751D02*
Y801575D01*
X11082452Y776184D01*
X11107844Y801575D01*
X11133236Y776184D01*
X11158627Y801575D01*
Y877751D01*
X11361762D02*
Y776184D01*
Y826967D01*
X11387154Y852359D01*
X11412545Y877751D01*
X11437937D01*
X11539504D02*
X11590288D01*
X11615680Y852359D01*
Y776184D01*
X11539504D01*
X11514112Y801575D01*
X11539504Y826967D01*
X11615680D01*
X11691855Y903142D02*
Y877751D01*
X11666463D01*
X11717247D01*
X11691855D01*
Y801575D01*
X11717247Y776184D01*
X11869597D02*
X11818814D01*
X11793422Y801575D01*
Y852359D01*
X11818814Y877751D01*
X11869597D01*
X11894989Y852359D01*
Y826967D01*
X11793422D01*
X11945773Y877751D02*
X11971165D01*
Y852359D01*
X11945773D01*
Y877751D01*
Y801575D02*
X11971165D01*
Y776184D01*
X11945773D01*
Y801575D01*
X12225082Y928534D02*
X12326649D01*
Y903142D01*
X12225082Y801575D01*
Y776184D01*
X12479000Y928534D02*
X12377433D01*
Y852359D01*
X12428216Y877751D01*
X12453608D01*
X12479000Y852359D01*
Y801575D01*
X12453608Y776184D01*
X12402825D01*
X12377433Y801575D01*
X12682134Y928534D02*
X12783702D01*
X12732918D01*
Y776184D01*
X12834485D02*
X12936052Y877751D01*
X12986836Y776184D02*
Y877751D01*
X13012228D01*
X13037619Y852359D01*
Y776184D01*
Y852359D01*
X13063011Y877751D01*
X13088403Y852359D01*
Y776184D01*
X13139188D02*
X13240755Y877751D01*
X13291537Y776184D02*
X13367712D01*
X13393105Y801575D01*
X13367712Y826967D01*
X13316930D01*
X13291537Y852359D01*
X13316930Y877751D01*
X13393105D01*
X13596239Y725400D02*
Y877751D01*
X13672414D01*
X13697806Y852359D01*
Y801575D01*
X13672414Y776184D01*
X13596239D01*
X13773981D02*
X13824765D01*
X13850157Y801575D01*
Y852359D01*
X13824765Y877751D01*
X13773981D01*
X13748589Y852359D01*
Y801575D01*
X13773981Y776184D01*
X13900940Y877751D02*
Y801575D01*
X13926332Y776184D01*
X14002507D01*
Y877751D01*
X14053291D02*
Y776184D01*
Y826967D01*
X14078683Y852359D01*
X14104074Y877751D01*
X14129466D01*
X14357993Y776184D02*
X14408775D01*
X14383385D01*
Y928534D01*
X14357993Y903142D01*
X14484950D02*
X14510342Y928534D01*
X14561127D01*
X14586517Y903142D01*
Y801575D01*
X14561127Y776184D01*
X14510342D01*
X14484950Y801575D01*
Y903142D01*
X14637302D02*
X14662694Y928534D01*
X14713477D01*
X14738869Y903142D01*
Y801575D01*
X14713477Y776184D01*
X14662694D01*
X14637302Y801575D01*
Y903142D01*
X14789653Y928534D02*
Y826967D01*
X14840436Y776184D01*
X14891220Y826967D01*
Y928534D01*
X14967395Y776184D02*
X15018179D01*
X15043571Y801575D01*
Y852359D01*
X15018179Y877751D01*
X14967395D01*
X14942003Y852359D01*
Y801575D01*
X14967395Y776184D01*
X15094354D02*
X15145139D01*
X15119746D01*
Y928534D01*
X15094354D01*
X15246706Y903142D02*
Y877751D01*
X15221313D01*
X15272096D01*
X15246706D01*
Y801575D01*
X15272096Y776184D01*
X10625400Y1177751D02*
Y1025400D01*
X10726967D01*
X10930101Y1076184D02*
X11031669D01*
X10930101Y1126967D02*
X11031669D01*
X11234803Y1025400D02*
X11285586D01*
X11260195D01*
Y1177751D01*
X11234803Y1152359D01*
X11361762D02*
X11387154Y1177751D01*
X11437937D01*
X11463329Y1152359D01*
Y1126967D01*
X11437937Y1101575D01*
X11463329Y1076184D01*
Y1050792D01*
X11437937Y1025400D01*
X11387154D01*
X11361762Y1050792D01*
Y1076184D01*
X11387154Y1101575D01*
X11361762Y1126967D01*
Y1152359D01*
X11387154Y1101575D02*
X11437937D01*
X11615680Y1177751D02*
X11564896Y1152359D01*
X11514112Y1101575D01*
Y1050792D01*
X11539504Y1025400D01*
X11590288D01*
X11615680Y1050792D01*
Y1076184D01*
X11590288Y1101575D01*
X11514112D01*
X11666463Y1126967D02*
Y1050792D01*
X11691855Y1025400D01*
X11768030D01*
Y1126967D01*
X11818814Y1177751D02*
Y1025400D01*
Y1101575D01*
X11920381D01*
Y1177751D01*
Y1025400D01*
X10625400Y1325400D02*
X10676183D01*
X10650792D01*
Y1477751D01*
X10625400Y1452359D01*
X10828534Y1325400D02*
Y1477751D01*
X10752359Y1401575D01*
X10853926D01*
X10904709Y1452359D02*
X10930101Y1477751D01*
X10980885D01*
X11006277Y1452359D01*
Y1350792D01*
X10980885Y1325400D01*
X10930101D01*
X10904709Y1350792D01*
Y1452359D01*
X11209411Y1426967D02*
Y1350792D01*
X11234803Y1325400D01*
X11310978D01*
Y1426967D01*
X11361762Y1477751D02*
X11463329D01*
X11412545D01*
Y1325400D01*
X11514112D02*
X11615680Y1426967D01*
X11666463Y1325400D02*
Y1426967D01*
X11691855D01*
X11717247Y1401575D01*
Y1325400D01*
Y1401575D01*
X11742638Y1426967D01*
X11768030Y1401575D01*
Y1325400D01*
X11818814D02*
X11920381Y1426967D01*
X11971165Y1325400D02*
Y1426967D01*
X12021948Y1477751D01*
X12072732Y1426967D01*
Y1325400D01*
Y1401575D01*
X11971165D01*
X12326649Y1325400D02*
X12275866Y1376183D01*
Y1426967D01*
X12326649Y1477751D01*
X12402825Y1325400D02*
X12453608D01*
X12428217D01*
Y1477751D01*
X12402825Y1452359D01*
X12605959Y1325400D02*
Y1477751D01*
X12529784Y1401575D01*
X12631351D01*
X12682134Y1325400D02*
Y1426967D01*
X12707526D01*
X12732918Y1401575D01*
Y1325400D01*
Y1401575D01*
X12758310Y1426967D01*
X12783702Y1401575D01*
Y1325400D01*
X12834485Y1477751D02*
X12936052D01*
X12885269D01*
Y1325400D01*
X12986836D02*
X13088403Y1426967D01*
X13139188Y1325400D02*
Y1426967D01*
X13164578D01*
X13189970Y1401575D01*
Y1325400D01*
Y1401575D01*
X13215363Y1426967D01*
X13240755Y1401575D01*
Y1325400D01*
X13469279Y1426967D02*
X13520062D01*
X13545454Y1401575D01*
Y1325400D01*
X13469279D01*
X13443887Y1350792D01*
X13469279Y1376183D01*
X13545454D01*
X13621631Y1452359D02*
Y1426967D01*
X13596239D01*
X13647021D01*
X13621631D01*
Y1350792D01*
X13647021Y1325400D01*
X13875548D02*
X13926332D01*
X13900940D01*
Y1477751D01*
X13875548Y1452359D01*
X14002507D02*
X14027899Y1477751D01*
X14078683D01*
X14104074Y1452359D01*
Y1350792D01*
X14078683Y1325400D01*
X14027899D01*
X14002507Y1350792D01*
Y1452359D01*
X14154858D02*
X14180251Y1477751D01*
X14231033D01*
X14256425Y1452359D01*
Y1350792D01*
X14231033Y1325400D01*
X14180251D01*
X14154858Y1350792D01*
Y1452359D01*
X14307208Y1325400D02*
Y1426967D01*
X14357993Y1477751D01*
X14408775Y1426967D01*
Y1325400D01*
Y1401575D01*
X14307208D01*
X14459560Y1325400D02*
X14510342Y1376183D01*
Y1426967D01*
X14459560Y1477751D01*
X79415607Y2113239D02*
X79390216Y2138631D01*
X79339435D01*
X79314038Y2113239D01*
Y2011672D01*
X79339435Y1986280D01*
X79390216D01*
X79415607Y2011672D01*
X79542566Y2138631D02*
X79491785D01*
X79466394Y2113239D01*
Y2011672D01*
X79491785Y1986280D01*
X79542566D01*
X79567957Y2011672D01*
Y2113239D01*
X79542566Y2138631D01*
X79618744Y1986280D02*
Y2138631D01*
X79720306Y1986280D01*
Y2138631D01*
X79771094Y2011672D02*
X79796484Y1986280D01*
X79847266D01*
X79872656Y2011672D01*
Y2113239D01*
X79847266Y2138631D01*
X79796484D01*
X79771094Y2113239D01*
Y2087847D01*
X79796484Y2062455D01*
X79872656D01*
X75316046Y2113239D02*
X75290656Y2138631D01*
X75239874D01*
X75214478Y2113239D01*
Y2011672D01*
X75239874Y1986280D01*
X75290656D01*
X75316046Y2011672D01*
X75443005Y2138631D02*
X75392224D01*
X75366833Y2113239D01*
Y2011672D01*
X75392224Y1986280D01*
X75443005D01*
X75468396Y2011672D01*
Y2113239D01*
X75443005Y2138631D01*
X75519183Y1986280D02*
Y2138631D01*
X75620752Y1986280D01*
Y2138631D01*
X75671533Y2113239D02*
X75696924Y2138631D01*
X75747705D01*
X75773102Y2113239D01*
Y2087847D01*
X75747705Y2062455D01*
X75773102Y2037063D01*
Y2011672D01*
X75747705Y1986280D01*
X75696924D01*
X75671533Y2011672D01*
Y2037063D01*
X75696924Y2062455D01*
X75671533Y2087847D01*
Y2113239D01*
X75696924Y2062455D02*
X75747705D01*
X6842210Y2285488D02*
X6816818Y2310880D01*
X6766035D01*
X6740643Y2285488D01*
Y2183921D01*
X6766035Y2158529D01*
X6816818D01*
X6842210Y2183921D01*
X6969169Y2310880D02*
X6918386D01*
X6892994Y2285488D01*
Y2183921D01*
X6918386Y2158529D01*
X6969169D01*
X6994561Y2183921D01*
Y2285488D01*
X6969169Y2310880D01*
X7045345Y2158529D02*
Y2310880D01*
X7146912Y2158529D01*
Y2310880D01*
X7197695D02*
X7299263D01*
Y2285488D01*
X7197695Y2183921D01*
Y2158529D01*
X79867725Y4663399D02*
X79842334Y4688791D01*
X79791553D01*
X79766162Y4663399D01*
Y4561832D01*
X79791553Y4536440D01*
X79842334D01*
X79867725Y4561832D01*
X79994684Y4688791D02*
X79943903D01*
X79918512Y4663399D01*
Y4561832D01*
X79943903Y4536440D01*
X79994684D01*
X80020081Y4561832D01*
Y4663399D01*
X79994684Y4688791D01*
X80070862Y4536440D02*
Y4688791D01*
X80172430Y4536440D01*
Y4688791D01*
X80324780D02*
X80223212D01*
Y4612615D01*
X80273999Y4638007D01*
X80299390D01*
X80324780Y4612615D01*
Y4561832D01*
X80299390Y4536440D01*
X80248602D01*
X80223212Y4561832D01*
X75867224Y4663399D02*
X75841833Y4688791D01*
X75791052D01*
X75765662Y4663399D01*
Y4561832D01*
X75791052Y4536440D01*
X75841833D01*
X75867224Y4561832D01*
X75994183Y4688791D02*
X75943402D01*
X75918011Y4663399D01*
Y4561832D01*
X75943402Y4536440D01*
X75994183D01*
X76019580Y4561832D01*
Y4663399D01*
X75994183Y4688791D01*
X76070361Y4536440D02*
Y4688791D01*
X76171930Y4536440D01*
Y4688791D01*
X76298889Y4536440D02*
Y4688791D01*
X76222711Y4612615D01*
X76324280D01*
X3782027Y4930099D02*
X3756635Y4955491D01*
X3705852D01*
X3680460Y4930099D01*
Y4828532D01*
X3705852Y4803140D01*
X3756635D01*
X3782027Y4828532D01*
X3908986Y4955491D02*
X3858203D01*
X3832811Y4930099D01*
Y4828532D01*
X3858203Y4803140D01*
X3908986D01*
X3934378Y4828532D01*
Y4930099D01*
X3908986Y4955491D01*
X3985161Y4803140D02*
Y4955491D01*
X4086729Y4803140D01*
Y4955491D01*
X4239079Y4803140D02*
X4137512D01*
X4239079Y4904707D01*
Y4930099D01*
X4213688Y4955491D01*
X4162904D01*
X4137512Y4930099D01*
X3215607Y2313899D02*
X3190215Y2339291D01*
X3139432D01*
X3114040Y2313899D01*
Y2212332D01*
X3139432Y2186940D01*
X3190215D01*
X3215607Y2212332D01*
X3342566Y2339291D02*
X3291783D01*
X3266391Y2313899D01*
Y2212332D01*
X3291783Y2186940D01*
X3342566D01*
X3367958Y2212332D01*
Y2313899D01*
X3342566Y2339291D01*
X3418741Y2186940D02*
Y2339291D01*
X3520309Y2186940D01*
Y2339291D01*
X3571092Y2313899D02*
X3596484Y2339291D01*
X3647268D01*
X3672659Y2313899D01*
Y2288507D01*
X3647268Y2263115D01*
X3621876D01*
X3647268D01*
X3672659Y2237723D01*
Y2212332D01*
X3647268Y2186940D01*
X3596484D01*
X3571092Y2212332D01*
%TF.MD5,247ef7f0b022c36cf40545a112d5da0d*%
M02*
