%TF.GenerationSoftware,Altium Limited,Altium Designer,23.9.2 (47)*%
G04 Layer_Color=16711935*
%FSLAX45Y45*%
%MOMM*%
%TF.SameCoordinates,45DC480F-FB56-4E7A-9A2C-25C5303F6BDF*%
%TF.FilePolarity,Negative*%
%TF.FileFunction,Soldermask,Bot*%
%TF.Part,Single*%
G01*
G75*
%TA.AperFunction,SMDPad,CuDef*%
%ADD18R,20.20320X10.20320*%
%TA.AperFunction,ComponentPad*%
%ADD19C,10.20320*%
%TA.AperFunction,ViaPad*%
%ADD20C,2.20320*%
D18*
X4200000Y1600000D02*
D03*
X8600000D02*
D03*
X80300000Y1400000D02*
D03*
X76200000D02*
D03*
D19*
X76250000Y3950000D02*
D03*
X8600000Y3900000D02*
D03*
X80250000Y3950000D02*
D03*
X4165600D02*
D03*
D20*
X24205643Y32196979D02*
D03*
Y32396979D02*
D03*
Y32596979D02*
D03*
Y32796979D02*
D03*
Y32996979D02*
D03*
Y33196979D02*
D03*
Y33396979D02*
D03*
Y33596979D02*
D03*
Y33796979D02*
D03*
Y31996979D02*
D03*
Y31796979D02*
D03*
Y31596979D02*
D03*
Y34396979D02*
D03*
Y34196979D02*
D03*
Y33996979D02*
D03*
X60100000Y32000000D02*
D03*
Y31800000D02*
D03*
Y31600000D02*
D03*
Y34400000D02*
D03*
Y34200000D02*
D03*
Y34000000D02*
D03*
Y32200000D02*
D03*
Y32400000D02*
D03*
Y32600000D02*
D03*
Y32800000D02*
D03*
Y33000000D02*
D03*
Y33200000D02*
D03*
Y33400000D02*
D03*
Y33600000D02*
D03*
Y33800000D02*
D03*
X74800000Y32200000D02*
D03*
Y32400000D02*
D03*
Y32600000D02*
D03*
Y32800000D02*
D03*
Y33000000D02*
D03*
Y33200000D02*
D03*
Y33400000D02*
D03*
Y33600000D02*
D03*
Y33800000D02*
D03*
Y32000000D02*
D03*
Y31800000D02*
D03*
Y31600000D02*
D03*
Y34400000D02*
D03*
Y34200000D02*
D03*
Y34000000D02*
D03*
X9500000Y32000000D02*
D03*
Y31800000D02*
D03*
Y31600000D02*
D03*
Y34400000D02*
D03*
Y34200000D02*
D03*
Y34000000D02*
D03*
Y32200000D02*
D03*
Y32400000D02*
D03*
Y32600000D02*
D03*
Y32800000D02*
D03*
Y33000000D02*
D03*
Y33200000D02*
D03*
Y33400000D02*
D03*
Y33600000D02*
D03*
Y33800000D02*
D03*
%TF.MD5,8de625d3e6cdf76403b914f0eba2572c*%
M02*
