%TF.GenerationSoftware,Altium Limited,Altium Designer,23.9.2 (47)*%
G04 Layer_Color=65535*
%FSLAX45Y45*%
%MOMM*%
%TF.SameCoordinates,45DC480F-FB56-4E7A-9A2C-25C5303F6BDF*%
%TF.FilePolarity,Positive*%
%TF.FileFunction,Legend,Top*%
%TF.Part,Single*%
G01*
G75*
%TA.AperFunction,NonConductor*%
%ADD15C,0.25400*%
G36*
X11748027Y4422040D02*
X11753948D01*
Y4416118D01*
X11765790D01*
Y4410197D01*
X11771711D01*
Y4404276D01*
X11777632D01*
Y4392434D01*
X11783553D01*
Y4380592D01*
X11724342D01*
Y4386513D01*
X11718421D01*
Y4392434D01*
X11712500D01*
Y4398355D01*
X11706579D01*
Y4404276D01*
X11700658D01*
Y4410197D01*
X11694737D01*
Y4427961D01*
X11748027D01*
Y4422040D01*
D02*
G37*
G36*
X11836842Y4333224D02*
X11842763D01*
Y4327303D01*
X11848684D01*
Y4321382D01*
X11860527D01*
Y4309540D01*
X11866448D01*
Y4303619D01*
X11878290D01*
Y4297698D01*
X11884211D01*
Y4291776D01*
X11890132D01*
Y4285855D01*
X11896053D01*
Y4274013D01*
X11901974D01*
Y4220724D01*
X11890132D01*
Y4226645D01*
X11884211D01*
Y4232566D01*
X11878290D01*
Y4238487D01*
X11872369D01*
Y4244408D01*
X11866448D01*
Y4250329D01*
X11860527D01*
Y4256250D01*
X11854605D01*
Y4262171D01*
X11848684D01*
Y4268092D01*
X11842763D01*
Y4274013D01*
X11836842D01*
Y4279934D01*
X11830921D01*
Y4285855D01*
X11825000D01*
Y4291776D01*
X11783553D01*
Y4297698D01*
X11771711D01*
Y4339145D01*
X11836842D01*
Y4333224D01*
D02*
G37*
G36*
X11582237Y4422040D02*
X11588158D01*
Y4416118D01*
X11582237D01*
Y4410197D01*
X11576316D01*
Y4404276D01*
X11570395D01*
Y4398355D01*
X11564474D01*
Y4392434D01*
X11558553D01*
Y4386513D01*
X11552632D01*
Y4380592D01*
X11546711D01*
Y4374671D01*
X11540790D01*
Y4368750D01*
X11534869D01*
Y4362829D01*
X11528948D01*
Y4356908D01*
X11523026D01*
Y4350987D01*
X11517105D01*
Y4345066D01*
X11511184D01*
Y4303619D01*
Y4297698D01*
Y4179276D01*
X11499342D01*
Y4185197D01*
X11493421D01*
Y4191118D01*
X11487500D01*
Y4197040D01*
X11481579D01*
Y4202961D01*
X11475658D01*
Y4208882D01*
X11469737D01*
Y4362829D01*
X11475658D01*
Y4368750D01*
X11481579D01*
Y4374671D01*
X11487500D01*
Y4380592D01*
X11493421D01*
Y4386513D01*
X11499342D01*
Y4392434D01*
X11505264D01*
Y4398355D01*
X11511184D01*
Y4410197D01*
X11523026D01*
Y4416118D01*
X11528948D01*
Y4422040D01*
X11534869D01*
Y4427961D01*
X11582237D01*
Y4422040D01*
D02*
G37*
G36*
X11647369Y4398355D02*
X11653290D01*
Y4392434D01*
X11659211D01*
Y4386513D01*
X11665132D01*
Y4380592D01*
X11671053D01*
Y4374671D01*
X11676974D01*
Y4368750D01*
X11682895D01*
Y4362829D01*
X11688816D01*
Y4356908D01*
X11694737D01*
Y4350987D01*
X11700658D01*
Y4345066D01*
X11706579D01*
Y4339145D01*
X11712500D01*
Y4333224D01*
X11718421D01*
Y4327303D01*
X11724342D01*
Y4321382D01*
X11730263D01*
Y4309540D01*
Y4303619D01*
Y4125987D01*
X11724342D01*
Y4120066D01*
X11718421D01*
Y4114145D01*
X11712500D01*
Y4108224D01*
X11706579D01*
Y4102303D01*
X11700658D01*
Y4096382D01*
X11688816D01*
Y4102303D01*
X11682895D01*
Y4303619D01*
X11676974D01*
Y4309540D01*
X11671053D01*
Y4315461D01*
X11665132D01*
Y4321382D01*
X11659211D01*
Y4327303D01*
X11653290D01*
Y4333224D01*
X11647369D01*
Y4339145D01*
X11629606D01*
Y4333224D01*
X11623684D01*
Y4327303D01*
X11617763D01*
Y4321382D01*
X11611842D01*
Y4315461D01*
X11605921D01*
Y4309540D01*
X11600000D01*
Y4090460D01*
X11588158D01*
Y4096382D01*
X11582237D01*
Y4102303D01*
X11576316D01*
Y4108224D01*
X11570395D01*
Y4114145D01*
X11564474D01*
Y4120066D01*
X11558553D01*
Y4125987D01*
X11552632D01*
Y4321382D01*
X11558553D01*
Y4333224D01*
X11564474D01*
Y4339145D01*
X11570395D01*
Y4345066D01*
X11576316D01*
Y4350987D01*
X11582237D01*
Y4356908D01*
X11594079D01*
Y4368750D01*
X11600000D01*
Y4374671D01*
X11611842D01*
Y4380592D01*
X11617763D01*
Y4392434D01*
X11623684D01*
Y4398355D01*
X11629606D01*
Y4404276D01*
X11647369D01*
Y4398355D01*
D02*
G37*
G36*
X11422369Y4197040D02*
X11428290D01*
Y4191118D01*
X11434211D01*
Y4185197D01*
X11440132D01*
Y4179276D01*
X11446053D01*
Y4173355D01*
X11451974D01*
Y4167434D01*
X11457895D01*
Y4161513D01*
X11463816D01*
Y4155592D01*
X11469737D01*
Y4149671D01*
X11475658D01*
Y4143750D01*
X11481579D01*
Y4137829D01*
X11487500D01*
Y4131908D01*
X11493421D01*
Y4125987D01*
X11499342D01*
Y4120066D01*
X11505264D01*
Y4114145D01*
X11511184D01*
Y4108224D01*
X11517105D01*
Y4102303D01*
X11523026D01*
Y4096382D01*
X11528948D01*
Y4090460D01*
X11534869D01*
Y4078618D01*
X11475658D01*
Y4084539D01*
X11469737D01*
Y4090460D01*
X11463816D01*
Y4096382D01*
X11457895D01*
Y4102303D01*
X11451974D01*
Y4108224D01*
X11446053D01*
Y4114145D01*
X11440132D01*
Y4120066D01*
X11434211D01*
Y4125987D01*
X11428290D01*
Y4131908D01*
X11422369D01*
Y4137829D01*
X11416448D01*
Y4143750D01*
X11410527D01*
Y4149671D01*
X11404606D01*
Y4155592D01*
X11398684D01*
Y4161513D01*
X11392763D01*
Y4167434D01*
X11386842D01*
Y4179276D01*
X11380921D01*
Y4274013D01*
X11386842D01*
Y4279934D01*
X11392763D01*
Y4285855D01*
X11398684D01*
Y4291776D01*
X11404606D01*
Y4297698D01*
X11410527D01*
Y4303619D01*
X11416448D01*
Y4309540D01*
X11422369D01*
Y4197040D01*
D02*
G37*
G36*
X11807237Y4244408D02*
X11813158D01*
Y4238487D01*
X11819079D01*
Y4232566D01*
X11825000D01*
Y4226645D01*
X11830921D01*
Y4220724D01*
X11836842D01*
Y4214803D01*
X11842763D01*
Y4208882D01*
X11848684D01*
Y4202961D01*
X11854605D01*
Y4197040D01*
X11860527D01*
Y4191118D01*
X11866448D01*
Y4185197D01*
X11872369D01*
Y4179276D01*
X11878290D01*
Y4173355D01*
X11884211D01*
Y4167434D01*
X11890132D01*
Y4161513D01*
X11896053D01*
Y4149671D01*
X11901974D01*
Y4054934D01*
X11896053D01*
Y4043092D01*
X11890132D01*
Y4037171D01*
X11884211D01*
Y4031250D01*
X11878290D01*
Y4025329D01*
X11872369D01*
Y4019408D01*
X11860527D01*
Y4131908D01*
X11854605D01*
Y4137829D01*
X11848684D01*
Y4143750D01*
X11842763D01*
Y4149671D01*
X11836842D01*
Y4155592D01*
X11830921D01*
Y4161513D01*
X11825000D01*
Y4167434D01*
X11819079D01*
Y4173355D01*
X11813158D01*
Y4179276D01*
X11807237D01*
Y4185197D01*
X11801316D01*
Y4191118D01*
X11795395D01*
Y4197040D01*
X11789474D01*
Y4202961D01*
X11783553D01*
Y4208882D01*
X11777632D01*
Y4214803D01*
X11771711D01*
Y4250329D01*
X11807237D01*
Y4244408D01*
D02*
G37*
G36*
X11386842Y4108224D02*
X11392763D01*
Y4102303D01*
X11398684D01*
Y4096382D01*
X11404606D01*
Y4090460D01*
X11410527D01*
Y4084539D01*
X11416448D01*
Y4078618D01*
X11422369D01*
Y4072697D01*
X11428290D01*
Y4066776D01*
X11434211D01*
Y4060855D01*
X11440132D01*
Y4054934D01*
X11446053D01*
Y4049013D01*
X11451974D01*
Y4043092D01*
X11457895D01*
Y4037171D01*
X11469737D01*
Y4031250D01*
X11475658D01*
Y4037171D01*
X11493421D01*
Y4031250D01*
X11511184D01*
Y4037171D01*
X11523026D01*
Y4031250D01*
X11534869D01*
Y4037171D01*
X11546711D01*
Y4031250D01*
X11558553D01*
Y4037171D01*
X11564474D01*
Y4031250D01*
X11576316D01*
Y4037171D01*
X11594079D01*
Y4031250D01*
X11611842D01*
Y4037171D01*
X11617763D01*
Y4031250D01*
X11623684D01*
Y4019408D01*
X11617763D01*
Y4013487D01*
X11611842D01*
Y4007566D01*
X11605921D01*
Y4001645D01*
X11600000D01*
Y3995724D01*
X11594079D01*
Y3989803D01*
X11446053D01*
Y3995724D01*
X11440132D01*
Y4001645D01*
X11434211D01*
Y4007566D01*
X11422369D01*
Y4019408D01*
X11416448D01*
Y4025329D01*
X11404606D01*
Y4037171D01*
X11398684D01*
Y4043092D01*
X11386842D01*
Y4054934D01*
X11380921D01*
Y4114145D01*
X11386842D01*
Y4108224D01*
D02*
G37*
G36*
X11783553Y4143750D02*
X11789474D01*
Y4137829D01*
X11795395D01*
Y4131908D01*
X11801316D01*
Y4125987D01*
X11807237D01*
Y4120066D01*
X11813158D01*
Y4108224D01*
X11819079D01*
Y3977961D01*
X11813158D01*
Y3966119D01*
X11807237D01*
Y3954276D01*
X11801316D01*
Y3948355D01*
X11789474D01*
Y3936513D01*
X11777632D01*
Y3930592D01*
X11771711D01*
Y3918750D01*
X11765790D01*
Y3912829D01*
X11759869D01*
Y3906908D01*
X11748027D01*
Y3900987D01*
X11694737D01*
Y3912829D01*
X11700658D01*
Y3918750D01*
X11706579D01*
Y3924671D01*
X11712500D01*
Y3930592D01*
X11718421D01*
Y3936513D01*
X11724342D01*
Y3942434D01*
X11730263D01*
Y3948355D01*
X11736185D01*
Y3954276D01*
X11742106D01*
Y3960197D01*
X11748027D01*
Y3966119D01*
X11753948D01*
Y3972040D01*
X11759869D01*
Y3977961D01*
X11765790D01*
Y3983882D01*
X11771711D01*
Y4149671D01*
X11783553D01*
Y4143750D01*
D02*
G37*
G36*
X11730263Y4001645D02*
X11724342D01*
Y3995724D01*
X11718421D01*
Y3989803D01*
X11712500D01*
Y3983882D01*
X11706579D01*
Y3977961D01*
X11700658D01*
Y3972040D01*
X11694737D01*
Y3966119D01*
X11688816D01*
Y3960197D01*
X11682895D01*
Y3954276D01*
X11676974D01*
Y3948355D01*
X11671053D01*
Y3942434D01*
X11665132D01*
Y3936513D01*
X11659211D01*
Y3930592D01*
X11653290D01*
Y3924671D01*
X11647369D01*
Y3918750D01*
X11641448D01*
Y3912829D01*
X11635527D01*
Y3906908D01*
X11623684D01*
Y3900987D01*
X11534869D01*
Y3906908D01*
X11528948D01*
Y3912829D01*
X11523026D01*
Y3918750D01*
X11511184D01*
Y3930592D01*
X11505264D01*
Y3936513D01*
X11499342D01*
Y3948355D01*
X11611842D01*
Y3954276D01*
X11617763D01*
Y3960197D01*
X11623684D01*
Y3966119D01*
X11629606D01*
Y3972040D01*
X11635527D01*
Y3977961D01*
X11641448D01*
Y3983882D01*
X11647369D01*
Y3989803D01*
X11653290D01*
Y3995724D01*
X11659211D01*
Y4001645D01*
X11665132D01*
Y4007566D01*
X11671053D01*
Y4013487D01*
X11676974D01*
Y4019408D01*
X11682895D01*
Y4025329D01*
X11688816D01*
Y4031250D01*
X11694737D01*
Y4037171D01*
X11700658D01*
Y4043092D01*
X11706579D01*
Y4049013D01*
X11712500D01*
Y4054934D01*
X11718421D01*
Y4060855D01*
X11730263D01*
Y4001645D01*
D02*
G37*
G36*
X11706579Y3812171D02*
X11718421D01*
Y3806250D01*
X11724342D01*
Y3776645D01*
X11718421D01*
Y3770724D01*
X11688816D01*
Y3776645D01*
X11682895D01*
Y3788487D01*
X11676974D01*
Y3800329D01*
X11682895D01*
Y3812171D01*
X11700658D01*
Y3818092D01*
X11706579D01*
Y3812171D01*
D02*
G37*
G36*
X11440132D02*
X11457895D01*
Y3800329D01*
X11463816D01*
Y3788487D01*
X11457895D01*
Y3776645D01*
X11451974D01*
Y3770724D01*
X11422369D01*
Y3776645D01*
X11416448D01*
Y3788487D01*
X11410527D01*
Y3794408D01*
X11416448D01*
Y3806250D01*
X11422369D01*
Y3812171D01*
X11434211D01*
Y3818092D01*
X11440132D01*
Y3812171D01*
D02*
G37*
G36*
X12156579Y3735197D02*
X12168421D01*
Y3729276D01*
X12174342D01*
Y3723355D01*
X12180263D01*
Y3711513D01*
X12186184D01*
Y3699671D01*
X12192106D01*
Y3593092D01*
X12180263D01*
Y3587171D01*
X12156579D01*
Y3593092D01*
X12150658D01*
Y3599013D01*
X12144737D01*
Y3628618D01*
Y3634540D01*
Y3699671D01*
X12138816D01*
Y3705592D01*
X12109211D01*
Y3699671D01*
X12103290D01*
Y3693750D01*
X12097369D01*
Y3599013D01*
X12091448D01*
Y3593092D01*
X12085527D01*
Y3587171D01*
X12061843D01*
Y3593092D01*
X12055921D01*
Y3599013D01*
X12050000D01*
Y3729276D01*
X12055921D01*
Y3735197D01*
X12091448D01*
Y3729276D01*
X12109211D01*
Y3735197D01*
X12121053D01*
Y3741119D01*
X12156579D01*
Y3735197D01*
D02*
G37*
G36*
X11848684D02*
X11854605D01*
Y3729276D01*
X11860527D01*
Y3717434D01*
X11854605D01*
Y3705592D01*
X11848684D01*
Y3699671D01*
X11842763D01*
Y3693750D01*
X11830921D01*
Y3699671D01*
X11819079D01*
Y3693750D01*
X11807237D01*
Y3681908D01*
X11801316D01*
Y3593092D01*
X11795395D01*
Y3587171D01*
X11771711D01*
Y3593092D01*
X11759869D01*
Y3735197D01*
X11801316D01*
Y3729276D01*
X11813158D01*
Y3735197D01*
X11825000D01*
Y3741119D01*
X11848684D01*
Y3735197D01*
D02*
G37*
G36*
X11605921D02*
X11617763D01*
Y3729276D01*
X11629606D01*
Y3723355D01*
X11635527D01*
Y3717434D01*
X11641448D01*
Y3705592D01*
X11647369D01*
Y3693750D01*
X11653290D01*
Y3634540D01*
X11647369D01*
Y3616776D01*
X11641448D01*
Y3610855D01*
X11635527D01*
Y3604934D01*
X11629606D01*
Y3599013D01*
X11617763D01*
Y3593092D01*
X11611842D01*
Y3587171D01*
X11558553D01*
Y3593092D01*
X11552632D01*
Y3599013D01*
X11546711D01*
Y3604934D01*
X11540790D01*
Y3593092D01*
X11534869D01*
Y3545724D01*
X11493421D01*
Y3729276D01*
X11499342D01*
Y3735197D01*
X11534869D01*
Y3729276D01*
X11540790D01*
Y3723355D01*
X11546711D01*
Y3729276D01*
X11552632D01*
Y3735197D01*
X11564474D01*
Y3741119D01*
X11605921D01*
Y3735197D01*
D02*
G37*
G36*
X11185527D02*
X11197369D01*
Y3729276D01*
X11209211D01*
Y3717434D01*
X11215132D01*
Y3693750D01*
X11191448D01*
Y3699671D01*
X11179606D01*
Y3705592D01*
X11155921D01*
Y3699671D01*
X11144079D01*
Y3693750D01*
X11138158D01*
Y3687829D01*
X11132237D01*
Y3675987D01*
X11126316D01*
Y3646382D01*
X11132237D01*
Y3634540D01*
X11138158D01*
Y3628618D01*
X11150000D01*
Y3622697D01*
X11191448D01*
Y3628618D01*
X11197369D01*
Y3634540D01*
X11209211D01*
Y3628618D01*
X11215132D01*
Y3604934D01*
X11209211D01*
Y3599013D01*
X11203290D01*
Y3593092D01*
X11191448D01*
Y3587171D01*
X11138158D01*
Y3593092D01*
X11126316D01*
Y3599013D01*
X11114474D01*
Y3604934D01*
X11108553D01*
Y3610855D01*
X11102632D01*
Y3616776D01*
X11096711D01*
Y3622697D01*
X11090790D01*
Y3634540D01*
X11084869D01*
Y3693750D01*
X11090790D01*
Y3705592D01*
X11096711D01*
Y3711513D01*
X11102632D01*
Y3717434D01*
X11108553D01*
Y3723355D01*
X11114474D01*
Y3729276D01*
X11126316D01*
Y3735197D01*
X11144079D01*
Y3741119D01*
X11185527D01*
Y3735197D01*
D02*
G37*
G36*
X11967106D02*
X11984869D01*
Y3729276D01*
X11990790D01*
Y3723355D01*
X12002632D01*
Y3717434D01*
X12008553D01*
Y3711513D01*
X12014474D01*
Y3699671D01*
X12020395D01*
Y3687829D01*
X12026316D01*
Y3640461D01*
X12020395D01*
Y3622697D01*
X12014474D01*
Y3616776D01*
X12008553D01*
Y3610855D01*
X12002632D01*
Y3604934D01*
X11996711D01*
Y3599013D01*
X11984869D01*
Y3593092D01*
X11973027D01*
Y3587171D01*
X11919737D01*
Y3593092D01*
X11907895D01*
Y3599013D01*
X11896053D01*
Y3604934D01*
X11890132D01*
Y3610855D01*
X11884211D01*
Y3616776D01*
X11878290D01*
Y3622697D01*
X11872369D01*
Y3634540D01*
X11866448D01*
Y3687829D01*
X11872369D01*
Y3699671D01*
X11878290D01*
Y3711513D01*
X11884211D01*
Y3717434D01*
X11890132D01*
Y3723355D01*
X11896053D01*
Y3729276D01*
X11907895D01*
Y3735197D01*
X11925658D01*
Y3741119D01*
X11967106D01*
Y3735197D01*
D02*
G37*
G36*
X11718421Y3729276D02*
X11724342D01*
Y3628618D01*
Y3622697D01*
Y3593092D01*
X11712500D01*
Y3587171D01*
X11694737D01*
Y3593092D01*
X11682895D01*
Y3735197D01*
X11718421D01*
Y3729276D01*
D02*
G37*
G36*
X11457895Y3593092D02*
X11451974D01*
Y3587171D01*
X11428290D01*
Y3593092D01*
X11416448D01*
Y3729276D01*
X11422369D01*
Y3735197D01*
X11457895D01*
Y3593092D01*
D02*
G37*
G36*
X11286184Y3729276D02*
X11298026D01*
Y3735197D01*
X11309869D01*
Y3741119D01*
X11351316D01*
Y3735197D01*
X11363158D01*
Y3729276D01*
X11369079D01*
Y3723355D01*
X11375000D01*
Y3711513D01*
X11380921D01*
Y3593092D01*
X11375000D01*
Y3587171D01*
X11345395D01*
Y3593092D01*
X11339474D01*
Y3693750D01*
X11333553D01*
Y3705592D01*
X11298026D01*
Y3699671D01*
X11292105D01*
Y3687829D01*
X11286184D01*
Y3593092D01*
X11280263D01*
Y3587171D01*
X11250658D01*
Y3593092D01*
X11244737D01*
Y3835855D01*
X11286184D01*
Y3729276D01*
D02*
G37*
G36*
X68548029Y4422040D02*
X68553949D01*
Y4416118D01*
X68565790D01*
Y4410197D01*
X68571710D01*
Y4404276D01*
X68577631D01*
Y4392434D01*
X68583551D01*
Y4380592D01*
X68524341D01*
Y4386513D01*
X68518420D01*
Y4392434D01*
X68512500D01*
Y4398355D01*
X68506580D01*
Y4404276D01*
X68500659D01*
Y4410197D01*
X68494739D01*
Y4427961D01*
X68548029D01*
Y4422040D01*
D02*
G37*
G36*
X68636841Y4333224D02*
X68642761D01*
Y4327303D01*
X68648688D01*
Y4321382D01*
X68660529D01*
Y4309540D01*
X68666449D01*
Y4303619D01*
X68678290D01*
Y4297698D01*
X68684210D01*
Y4291776D01*
X68690131D01*
Y4285855D01*
X68696051D01*
Y4274013D01*
X68701971D01*
Y4220724D01*
X68690131D01*
Y4226645D01*
X68684210D01*
Y4232566D01*
X68678290D01*
Y4238487D01*
X68672369D01*
Y4244408D01*
X68666449D01*
Y4250329D01*
X68660529D01*
Y4256250D01*
X68654608D01*
Y4262171D01*
X68648688D01*
Y4268092D01*
X68642761D01*
Y4274013D01*
X68636841D01*
Y4279934D01*
X68630920D01*
Y4285855D01*
X68625000D01*
Y4291776D01*
X68583551D01*
Y4297698D01*
X68571710D01*
Y4339145D01*
X68636841D01*
Y4333224D01*
D02*
G37*
G36*
X68382239Y4422040D02*
X68388159D01*
Y4416118D01*
X68382239D01*
Y4410197D01*
X68376318D01*
Y4404276D01*
X68370398D01*
Y4398355D01*
X68364471D01*
Y4392434D01*
X68358551D01*
Y4386513D01*
X68352631D01*
Y4380592D01*
X68346710D01*
Y4374671D01*
X68340790D01*
Y4368750D01*
X68334869D01*
Y4362829D01*
X68328949D01*
Y4356908D01*
X68323029D01*
Y4350987D01*
X68317108D01*
Y4345066D01*
X68311188D01*
Y4303619D01*
Y4297698D01*
Y4179276D01*
X68299341D01*
Y4185197D01*
X68293420D01*
Y4191118D01*
X68287500D01*
Y4197040D01*
X68281580D01*
Y4202961D01*
X68275659D01*
Y4208882D01*
X68269739D01*
Y4362829D01*
X68275659D01*
Y4368750D01*
X68281580D01*
Y4374671D01*
X68287500D01*
Y4380592D01*
X68293420D01*
Y4386513D01*
X68299341D01*
Y4392434D01*
X68305261D01*
Y4398355D01*
X68311188D01*
Y4410197D01*
X68323029D01*
Y4416118D01*
X68328949D01*
Y4422040D01*
X68334869D01*
Y4427961D01*
X68382239D01*
Y4422040D01*
D02*
G37*
G36*
X68447369Y4398355D02*
X68453290D01*
Y4392434D01*
X68459210D01*
Y4386513D01*
X68465131D01*
Y4380592D01*
X68471051D01*
Y4374671D01*
X68476971D01*
Y4368750D01*
X68482898D01*
Y4362829D01*
X68488818D01*
Y4356908D01*
X68494739D01*
Y4350987D01*
X68500659D01*
Y4345066D01*
X68506580D01*
Y4339145D01*
X68512500D01*
Y4333224D01*
X68518420D01*
Y4327303D01*
X68524341D01*
Y4321382D01*
X68530261D01*
Y4309540D01*
Y4303619D01*
Y4125987D01*
X68524341D01*
Y4120066D01*
X68518420D01*
Y4114145D01*
X68512500D01*
Y4108224D01*
X68506580D01*
Y4102303D01*
X68500659D01*
Y4096382D01*
X68488818D01*
Y4102303D01*
X68482898D01*
Y4303619D01*
X68476971D01*
Y4309540D01*
X68471051D01*
Y4315461D01*
X68465131D01*
Y4321382D01*
X68459210D01*
Y4327303D01*
X68453290D01*
Y4333224D01*
X68447369D01*
Y4339145D01*
X68429608D01*
Y4333224D01*
X68423688D01*
Y4327303D01*
X68417761D01*
Y4321382D01*
X68411841D01*
Y4315461D01*
X68405920D01*
Y4309540D01*
X68400000D01*
Y4090460D01*
X68388159D01*
Y4096382D01*
X68382239D01*
Y4102303D01*
X68376318D01*
Y4108224D01*
X68370398D01*
Y4114145D01*
X68364471D01*
Y4120066D01*
X68358551D01*
Y4125987D01*
X68352631D01*
Y4321382D01*
X68358551D01*
Y4333224D01*
X68364471D01*
Y4339145D01*
X68370398D01*
Y4345066D01*
X68376318D01*
Y4350987D01*
X68382239D01*
Y4356908D01*
X68394080D01*
Y4368750D01*
X68400000D01*
Y4374671D01*
X68411841D01*
Y4380592D01*
X68417761D01*
Y4392434D01*
X68423688D01*
Y4398355D01*
X68429608D01*
Y4404276D01*
X68447369D01*
Y4398355D01*
D02*
G37*
G36*
X68222369Y4197040D02*
X68228290D01*
Y4191118D01*
X68234210D01*
Y4185197D01*
X68240131D01*
Y4179276D01*
X68246051D01*
Y4173355D01*
X68251971D01*
Y4167434D01*
X68257898D01*
Y4161513D01*
X68263818D01*
Y4155592D01*
X68269739D01*
Y4149671D01*
X68275659D01*
Y4143750D01*
X68281580D01*
Y4137829D01*
X68287500D01*
Y4131908D01*
X68293420D01*
Y4125987D01*
X68299341D01*
Y4120066D01*
X68305261D01*
Y4114145D01*
X68311188D01*
Y4108224D01*
X68317108D01*
Y4102303D01*
X68323029D01*
Y4096382D01*
X68328949D01*
Y4090460D01*
X68334869D01*
Y4078618D01*
X68275659D01*
Y4084539D01*
X68269739D01*
Y4090460D01*
X68263818D01*
Y4096382D01*
X68257898D01*
Y4102303D01*
X68251971D01*
Y4108224D01*
X68246051D01*
Y4114145D01*
X68240131D01*
Y4120066D01*
X68234210D01*
Y4125987D01*
X68228290D01*
Y4131908D01*
X68222369D01*
Y4137829D01*
X68216449D01*
Y4143750D01*
X68210529D01*
Y4149671D01*
X68204608D01*
Y4155592D01*
X68198688D01*
Y4161513D01*
X68192761D01*
Y4167434D01*
X68186841D01*
Y4179276D01*
X68180920D01*
Y4274013D01*
X68186841D01*
Y4279934D01*
X68192761D01*
Y4285855D01*
X68198688D01*
Y4291776D01*
X68204608D01*
Y4297698D01*
X68210529D01*
Y4303619D01*
X68216449D01*
Y4309540D01*
X68222369D01*
Y4197040D01*
D02*
G37*
G36*
X68607239Y4244408D02*
X68613159D01*
Y4238487D01*
X68619080D01*
Y4232566D01*
X68625000D01*
Y4226645D01*
X68630920D01*
Y4220724D01*
X68636841D01*
Y4214803D01*
X68642761D01*
Y4208882D01*
X68648688D01*
Y4202961D01*
X68654608D01*
Y4197040D01*
X68660529D01*
Y4191118D01*
X68666449D01*
Y4185197D01*
X68672369D01*
Y4179276D01*
X68678290D01*
Y4173355D01*
X68684210D01*
Y4167434D01*
X68690131D01*
Y4161513D01*
X68696051D01*
Y4149671D01*
X68701971D01*
Y4054934D01*
X68696051D01*
Y4043092D01*
X68690131D01*
Y4037171D01*
X68684210D01*
Y4031250D01*
X68678290D01*
Y4025329D01*
X68672369D01*
Y4019408D01*
X68660529D01*
Y4131908D01*
X68654608D01*
Y4137829D01*
X68648688D01*
Y4143750D01*
X68642761D01*
Y4149671D01*
X68636841D01*
Y4155592D01*
X68630920D01*
Y4161513D01*
X68625000D01*
Y4167434D01*
X68619080D01*
Y4173355D01*
X68613159D01*
Y4179276D01*
X68607239D01*
Y4185197D01*
X68601318D01*
Y4191118D01*
X68595398D01*
Y4197040D01*
X68589471D01*
Y4202961D01*
X68583551D01*
Y4208882D01*
X68577631D01*
Y4214803D01*
X68571710D01*
Y4250329D01*
X68607239D01*
Y4244408D01*
D02*
G37*
G36*
X68186841Y4108224D02*
X68192761D01*
Y4102303D01*
X68198688D01*
Y4096382D01*
X68204608D01*
Y4090460D01*
X68210529D01*
Y4084539D01*
X68216449D01*
Y4078618D01*
X68222369D01*
Y4072697D01*
X68228290D01*
Y4066776D01*
X68234210D01*
Y4060855D01*
X68240131D01*
Y4054934D01*
X68246051D01*
Y4049013D01*
X68251971D01*
Y4043092D01*
X68257898D01*
Y4037171D01*
X68269739D01*
Y4031250D01*
X68275659D01*
Y4037171D01*
X68293420D01*
Y4031250D01*
X68311188D01*
Y4037171D01*
X68323029D01*
Y4031250D01*
X68334869D01*
Y4037171D01*
X68346710D01*
Y4031250D01*
X68358551D01*
Y4037171D01*
X68364471D01*
Y4031250D01*
X68376318D01*
Y4037171D01*
X68394080D01*
Y4031250D01*
X68411841D01*
Y4037171D01*
X68417761D01*
Y4031250D01*
X68423688D01*
Y4019408D01*
X68417761D01*
Y4013487D01*
X68411841D01*
Y4007566D01*
X68405920D01*
Y4001645D01*
X68400000D01*
Y3995724D01*
X68394080D01*
Y3989803D01*
X68246051D01*
Y3995724D01*
X68240131D01*
Y4001645D01*
X68234210D01*
Y4007566D01*
X68222369D01*
Y4019408D01*
X68216449D01*
Y4025329D01*
X68204608D01*
Y4037171D01*
X68198688D01*
Y4043092D01*
X68186841D01*
Y4054934D01*
X68180920D01*
Y4114145D01*
X68186841D01*
Y4108224D01*
D02*
G37*
G36*
X68583551Y4143750D02*
X68589471D01*
Y4137829D01*
X68595398D01*
Y4131908D01*
X68601318D01*
Y4125987D01*
X68607239D01*
Y4120066D01*
X68613159D01*
Y4108224D01*
X68619080D01*
Y3977961D01*
X68613159D01*
Y3966119D01*
X68607239D01*
Y3954276D01*
X68601318D01*
Y3948355D01*
X68589471D01*
Y3936513D01*
X68577631D01*
Y3930592D01*
X68571710D01*
Y3918750D01*
X68565790D01*
Y3912829D01*
X68559869D01*
Y3906908D01*
X68548029D01*
Y3900987D01*
X68494739D01*
Y3912829D01*
X68500659D01*
Y3918750D01*
X68506580D01*
Y3924671D01*
X68512500D01*
Y3930592D01*
X68518420D01*
Y3936513D01*
X68524341D01*
Y3942434D01*
X68530261D01*
Y3948355D01*
X68536188D01*
Y3954276D01*
X68542108D01*
Y3960197D01*
X68548029D01*
Y3966119D01*
X68553949D01*
Y3972040D01*
X68559869D01*
Y3977961D01*
X68565790D01*
Y3983882D01*
X68571710D01*
Y4149671D01*
X68583551D01*
Y4143750D01*
D02*
G37*
G36*
X68530261Y4001645D02*
X68524341D01*
Y3995724D01*
X68518420D01*
Y3989803D01*
X68512500D01*
Y3983882D01*
X68506580D01*
Y3977961D01*
X68500659D01*
Y3972040D01*
X68494739D01*
Y3966119D01*
X68488818D01*
Y3960197D01*
X68482898D01*
Y3954276D01*
X68476971D01*
Y3948355D01*
X68471051D01*
Y3942434D01*
X68465131D01*
Y3936513D01*
X68459210D01*
Y3930592D01*
X68453290D01*
Y3924671D01*
X68447369D01*
Y3918750D01*
X68441449D01*
Y3912829D01*
X68435529D01*
Y3906908D01*
X68423688D01*
Y3900987D01*
X68334869D01*
Y3906908D01*
X68328949D01*
Y3912829D01*
X68323029D01*
Y3918750D01*
X68311188D01*
Y3930592D01*
X68305261D01*
Y3936513D01*
X68299341D01*
Y3948355D01*
X68411841D01*
Y3954276D01*
X68417761D01*
Y3960197D01*
X68423688D01*
Y3966119D01*
X68429608D01*
Y3972040D01*
X68435529D01*
Y3977961D01*
X68441449D01*
Y3983882D01*
X68447369D01*
Y3989803D01*
X68453290D01*
Y3995724D01*
X68459210D01*
Y4001645D01*
X68465131D01*
Y4007566D01*
X68471051D01*
Y4013487D01*
X68476971D01*
Y4019408D01*
X68482898D01*
Y4025329D01*
X68488818D01*
Y4031250D01*
X68494739D01*
Y4037171D01*
X68500659D01*
Y4043092D01*
X68506580D01*
Y4049013D01*
X68512500D01*
Y4054934D01*
X68518420D01*
Y4060855D01*
X68530261D01*
Y4001645D01*
D02*
G37*
G36*
X68506580Y3812171D02*
X68518420D01*
Y3806250D01*
X68524341D01*
Y3776645D01*
X68518420D01*
Y3770724D01*
X68488818D01*
Y3776645D01*
X68482898D01*
Y3788487D01*
X68476971D01*
Y3800329D01*
X68482898D01*
Y3812171D01*
X68500659D01*
Y3818092D01*
X68506580D01*
Y3812171D01*
D02*
G37*
G36*
X68240131D02*
X68257898D01*
Y3800329D01*
X68263818D01*
Y3788487D01*
X68257898D01*
Y3776645D01*
X68251971D01*
Y3770724D01*
X68222369D01*
Y3776645D01*
X68216449D01*
Y3788487D01*
X68210529D01*
Y3794408D01*
X68216449D01*
Y3806250D01*
X68222369D01*
Y3812171D01*
X68234210D01*
Y3818092D01*
X68240131D01*
Y3812171D01*
D02*
G37*
G36*
X68956580Y3735197D02*
X68968420D01*
Y3729276D01*
X68974341D01*
Y3723355D01*
X68980261D01*
Y3711513D01*
X68986188D01*
Y3699671D01*
X68992108D01*
Y3593092D01*
X68980261D01*
Y3587171D01*
X68956580D01*
Y3593092D01*
X68950659D01*
Y3599013D01*
X68944739D01*
Y3628618D01*
Y3634540D01*
Y3699671D01*
X68938818D01*
Y3705592D01*
X68909210D01*
Y3699671D01*
X68903290D01*
Y3693750D01*
X68897369D01*
Y3599013D01*
X68891449D01*
Y3593092D01*
X68885529D01*
Y3587171D01*
X68861841D01*
Y3593092D01*
X68855920D01*
Y3599013D01*
X68850000D01*
Y3729276D01*
X68855920D01*
Y3735197D01*
X68891449D01*
Y3729276D01*
X68909210D01*
Y3735197D01*
X68921051D01*
Y3741119D01*
X68956580D01*
Y3735197D01*
D02*
G37*
G36*
X68648688D02*
X68654608D01*
Y3729276D01*
X68660529D01*
Y3717434D01*
X68654608D01*
Y3705592D01*
X68648688D01*
Y3699671D01*
X68642761D01*
Y3693750D01*
X68630920D01*
Y3699671D01*
X68619080D01*
Y3693750D01*
X68607239D01*
Y3681908D01*
X68601318D01*
Y3593092D01*
X68595398D01*
Y3587171D01*
X68571710D01*
Y3593092D01*
X68559869D01*
Y3735197D01*
X68601318D01*
Y3729276D01*
X68613159D01*
Y3735197D01*
X68625000D01*
Y3741119D01*
X68648688D01*
Y3735197D01*
D02*
G37*
G36*
X68405920D02*
X68417761D01*
Y3729276D01*
X68429608D01*
Y3723355D01*
X68435529D01*
Y3717434D01*
X68441449D01*
Y3705592D01*
X68447369D01*
Y3693750D01*
X68453290D01*
Y3634540D01*
X68447369D01*
Y3616776D01*
X68441449D01*
Y3610855D01*
X68435529D01*
Y3604934D01*
X68429608D01*
Y3599013D01*
X68417761D01*
Y3593092D01*
X68411841D01*
Y3587171D01*
X68358551D01*
Y3593092D01*
X68352631D01*
Y3599013D01*
X68346710D01*
Y3604934D01*
X68340790D01*
Y3593092D01*
X68334869D01*
Y3545724D01*
X68293420D01*
Y3729276D01*
X68299341D01*
Y3735197D01*
X68334869D01*
Y3729276D01*
X68340790D01*
Y3723355D01*
X68346710D01*
Y3729276D01*
X68352631D01*
Y3735197D01*
X68364471D01*
Y3741119D01*
X68405920D01*
Y3735197D01*
D02*
G37*
G36*
X67985529D02*
X67997369D01*
Y3729276D01*
X68009210D01*
Y3717434D01*
X68015131D01*
Y3693750D01*
X67991449D01*
Y3699671D01*
X67979608D01*
Y3705592D01*
X67955920D01*
Y3699671D01*
X67944080D01*
Y3693750D01*
X67938159D01*
Y3687829D01*
X67932239D01*
Y3675987D01*
X67926318D01*
Y3646382D01*
X67932239D01*
Y3634540D01*
X67938159D01*
Y3628618D01*
X67950000D01*
Y3622697D01*
X67991449D01*
Y3628618D01*
X67997369D01*
Y3634540D01*
X68009210D01*
Y3628618D01*
X68015131D01*
Y3604934D01*
X68009210D01*
Y3599013D01*
X68003290D01*
Y3593092D01*
X67991449D01*
Y3587171D01*
X67938159D01*
Y3593092D01*
X67926318D01*
Y3599013D01*
X67914471D01*
Y3604934D01*
X67908551D01*
Y3610855D01*
X67902631D01*
Y3616776D01*
X67896710D01*
Y3622697D01*
X67890790D01*
Y3634540D01*
X67884869D01*
Y3693750D01*
X67890790D01*
Y3705592D01*
X67896710D01*
Y3711513D01*
X67902631D01*
Y3717434D01*
X67908551D01*
Y3723355D01*
X67914471D01*
Y3729276D01*
X67926318D01*
Y3735197D01*
X67944080D01*
Y3741119D01*
X67985529D01*
Y3735197D01*
D02*
G37*
G36*
X68767108D02*
X68784869D01*
Y3729276D01*
X68790790D01*
Y3723355D01*
X68802631D01*
Y3717434D01*
X68808551D01*
Y3711513D01*
X68814471D01*
Y3699671D01*
X68820398D01*
Y3687829D01*
X68826318D01*
Y3640461D01*
X68820398D01*
Y3622697D01*
X68814471D01*
Y3616776D01*
X68808551D01*
Y3610855D01*
X68802631D01*
Y3604934D01*
X68796710D01*
Y3599013D01*
X68784869D01*
Y3593092D01*
X68773029D01*
Y3587171D01*
X68719739D01*
Y3593092D01*
X68707898D01*
Y3599013D01*
X68696051D01*
Y3604934D01*
X68690131D01*
Y3610855D01*
X68684210D01*
Y3616776D01*
X68678290D01*
Y3622697D01*
X68672369D01*
Y3634540D01*
X68666449D01*
Y3687829D01*
X68672369D01*
Y3699671D01*
X68678290D01*
Y3711513D01*
X68684210D01*
Y3717434D01*
X68690131D01*
Y3723355D01*
X68696051D01*
Y3729276D01*
X68707898D01*
Y3735197D01*
X68725659D01*
Y3741119D01*
X68767108D01*
Y3735197D01*
D02*
G37*
G36*
X68518420Y3729276D02*
X68524341D01*
Y3628618D01*
Y3622697D01*
Y3593092D01*
X68512500D01*
Y3587171D01*
X68494739D01*
Y3593092D01*
X68482898D01*
Y3735197D01*
X68518420D01*
Y3729276D01*
D02*
G37*
G36*
X68257898Y3593092D02*
X68251971D01*
Y3587171D01*
X68228290D01*
Y3593092D01*
X68216449D01*
Y3729276D01*
X68222369D01*
Y3735197D01*
X68257898D01*
Y3593092D01*
D02*
G37*
G36*
X68086188Y3729276D02*
X68098029D01*
Y3735197D01*
X68109869D01*
Y3741119D01*
X68151318D01*
Y3735197D01*
X68163159D01*
Y3729276D01*
X68169080D01*
Y3723355D01*
X68175000D01*
Y3711513D01*
X68180920D01*
Y3593092D01*
X68175000D01*
Y3587171D01*
X68145398D01*
Y3593092D01*
X68139471D01*
Y3693750D01*
X68133551D01*
Y3705592D01*
X68098029D01*
Y3699671D01*
X68092108D01*
Y3687829D01*
X68086188D01*
Y3593092D01*
X68080261D01*
Y3587171D01*
X68050659D01*
Y3593092D01*
X68044739D01*
Y3835855D01*
X68086188D01*
Y3729276D01*
D02*
G37*
%LPC*%
G36*
X11594079Y3699671D02*
X11552632D01*
Y3693750D01*
X11546711D01*
Y3687829D01*
X11540790D01*
Y3670066D01*
X11534869D01*
Y3652303D01*
X11540790D01*
Y3640461D01*
X11546711D01*
Y3634540D01*
X11552632D01*
Y3628618D01*
X11558553D01*
Y3622697D01*
X11588158D01*
Y3628618D01*
X11600000D01*
Y3634540D01*
Y3640461D01*
X11605921D01*
Y3646382D01*
X11611842D01*
Y3675987D01*
X11605921D01*
Y3687829D01*
X11600000D01*
Y3693750D01*
X11594079D01*
Y3699671D01*
D02*
G37*
G36*
X11949342Y3705592D02*
X11937500D01*
Y3699671D01*
X11925658D01*
Y3693750D01*
X11919737D01*
Y3687829D01*
X11913816D01*
Y3681908D01*
X11907895D01*
Y3646382D01*
X11913816D01*
Y3634540D01*
X11919737D01*
Y3628618D01*
X11931579D01*
Y3622697D01*
X11961185D01*
Y3628618D01*
X11967106D01*
Y3634540D01*
X11973027D01*
Y3640461D01*
X11978948D01*
Y3652303D01*
X11984869D01*
Y3670066D01*
X11978948D01*
Y3687829D01*
X11973027D01*
Y3693750D01*
X11967106D01*
Y3699671D01*
X11949342D01*
Y3705592D01*
D02*
G37*
G36*
X68394080Y3699671D02*
X68352631D01*
Y3693750D01*
X68346710D01*
Y3687829D01*
X68340790D01*
Y3670066D01*
X68334869D01*
Y3652303D01*
X68340790D01*
Y3640461D01*
X68346710D01*
Y3634540D01*
X68352631D01*
Y3628618D01*
X68358551D01*
Y3622697D01*
X68388159D01*
Y3628618D01*
X68400000D01*
Y3634540D01*
Y3640461D01*
X68405920D01*
Y3646382D01*
X68411841D01*
Y3675987D01*
X68405920D01*
Y3687829D01*
X68400000D01*
Y3693750D01*
X68394080D01*
Y3699671D01*
D02*
G37*
G36*
X68749341Y3705592D02*
X68737500D01*
Y3699671D01*
X68725659D01*
Y3693750D01*
X68719739D01*
Y3687829D01*
X68713818D01*
Y3681908D01*
X68707898D01*
Y3646382D01*
X68713818D01*
Y3634540D01*
X68719739D01*
Y3628618D01*
X68731580D01*
Y3622697D01*
X68761188D01*
Y3628618D01*
X68767108D01*
Y3634540D01*
X68773029D01*
Y3640461D01*
X68778949D01*
Y3652303D01*
X68784869D01*
Y3670066D01*
X68778949D01*
Y3687829D01*
X68773029D01*
Y3693750D01*
X68767108D01*
Y3699671D01*
X68749341D01*
Y3705592D01*
D02*
G37*
%LPD*%
D15*
X26389713Y32100000D02*
G03*
X26389713Y32100000I-360555J0D01*
G01*
X58760553Y29800000D02*
G03*
X58760553Y29800000I-360555J0D01*
G01*
X58500000D02*
G03*
X58500000Y29800000I-100000J0D01*
G01*
X69700000Y4000000D02*
G03*
X69700000Y4000000I-100000J0D01*
G01*
X69960553D02*
G03*
X69960553Y4000000I-360555J0D01*
G01*
X13160555D02*
G03*
X13160555Y4000000I-360555J0D01*
G01*
X12900000D02*
G03*
X12900000Y4000000I-100000J0D01*
G01*
X25929156Y32000000D02*
X26129156Y32200000D01*
X25929156D02*
X26129156Y32000000D01*
X8700000Y29000000D02*
X9000000Y28700000D01*
X8400000D02*
X8700000Y29000000D01*
Y27800000D02*
Y29000000D01*
X7100000Y32900000D02*
X7400000Y33200000D01*
X7100000Y32900000D02*
X7400000Y32600000D01*
X7100000Y32900000D02*
X8300000D01*
X77300000Y32600000D02*
X77600000Y32900000D01*
X77300000Y33200000D02*
X77600000Y32900000D01*
X76400000D02*
X77600000D01*
X42600000Y2600000D02*
X42900000Y2900000D01*
X42600000Y3200000D02*
X42900000Y2900000D01*
X41700000D02*
X42900000D01*
X79900000Y5200000D02*
X80200000Y4900000D01*
X80500000Y5200000D01*
X80200000Y4900000D02*
Y6100000D01*
X22900000Y28400000D02*
Y29600000D01*
X22600000Y29300000D02*
X22900000Y29600000D01*
X23200000Y29300000D01*
X13500000Y30700000D02*
Y31900000D01*
X13200000Y31600000D02*
X13500000Y31900000D01*
X13800000Y31600000D01*
X4200000Y5300000D02*
Y6500000D01*
Y5300000D02*
X4500000Y5600000D01*
X3900000D02*
X4200000Y5300000D01*
X8600000Y5000000D02*
Y6200000D01*
X8300000Y5900000D02*
X8600000Y6200000D01*
X8900000Y5900000D01*
X61800000Y28800000D02*
Y30000000D01*
X61500000Y29700000D02*
X61800000Y30000000D01*
X62100000Y29700000D01*
X71100000Y30200000D02*
Y31400000D01*
X70800000Y31100000D02*
X71100000Y31400000D01*
X71400000Y31100000D01*
X76200000Y6200000D02*
X76500000Y5900000D01*
X75900000D02*
X76200000Y6200000D01*
Y5000000D02*
Y6200000D01*
X79300000Y57800000D02*
X81500000D01*
X79300000Y56900000D02*
Y57800000D01*
Y56900000D02*
X81500000D01*
Y57800000D01*
X80300000Y400000D02*
Y800000D01*
Y400000D02*
X80600000D01*
X80000000D02*
X80600000D01*
X80100000Y300000D02*
X80200000D01*
X80100000D02*
X80500000D01*
X80200000Y200000D02*
X80400000D01*
X76100000D02*
X76300000D01*
X76000000Y300000D02*
X76400000D01*
X76000000D02*
X76100000D01*
X75900000Y400000D02*
X76500000D01*
X76200000D02*
X76500000D01*
X76200000D02*
Y800000D01*
X4100000Y600000D02*
Y1000000D01*
Y600000D02*
X4400000D01*
X3800000D02*
X4400000D01*
X3900000Y500000D02*
X4000000D01*
X3900000D02*
X4300000D01*
X4000000Y400000D02*
X4200000D01*
X8600000D02*
X8800000D01*
X8500000Y500000D02*
X8900000D01*
X8500000D02*
X8600000D01*
X8400000Y600000D02*
X9000000D01*
X8700000D02*
X9000000D01*
X8700000D02*
Y1000000D01*
X68026965Y3403143D02*
X68001575Y3428534D01*
X67950793D01*
X67925403Y3403143D01*
Y3301576D01*
X67950793Y3276184D01*
X68001575D01*
X68026965Y3301576D01*
Y3352359D01*
X67976184D01*
X68077753Y3377751D02*
Y3276184D01*
Y3326967D01*
X68103143Y3352359D01*
X68128534Y3377751D01*
X68153925D01*
X68255493D02*
X68306274D01*
X68331671Y3352359D01*
Y3276184D01*
X68255493D01*
X68230103Y3301576D01*
X68255493Y3326967D01*
X68331671D01*
X68484021Y3428534D02*
Y3276184D01*
X68407843D01*
X68382452Y3301576D01*
Y3352359D01*
X68407843Y3377751D01*
X68484021D01*
X68534802Y3276184D02*
X68585583D01*
X68560193D01*
Y3377751D01*
X68534802D01*
X68737939Y3276184D02*
X68687152D01*
X68661761Y3301576D01*
Y3352359D01*
X68687152Y3377751D01*
X68737939D01*
X68763330Y3352359D01*
Y3326967D01*
X68661761D01*
X68814111Y3276184D02*
Y3377751D01*
X68890289D01*
X68915680Y3352359D01*
Y3276184D01*
X68991858Y3403143D02*
Y3377751D01*
X68966461D01*
X69017249D01*
X68991858D01*
Y3301576D01*
X69017249Y3276184D01*
X69093420Y3250792D02*
X69194989D01*
X69347339Y3403143D02*
X69321948Y3428534D01*
X69271167D01*
X69245770Y3403143D01*
Y3301576D01*
X69271167Y3276184D01*
X69321948D01*
X69347339Y3301576D01*
X69423517Y3276184D02*
X69474298D01*
X69499689Y3301576D01*
Y3352359D01*
X69474298Y3377751D01*
X69423517D01*
X69398126Y3352359D01*
Y3301576D01*
X69423517Y3276184D01*
X69550476D02*
X69601257D01*
X69575867D01*
Y3377751D01*
X69550476D01*
X69677435Y3276184D02*
X69728217D01*
X69702826D01*
Y3428534D01*
X69677435D01*
X69804395Y3250792D02*
X69905957D01*
X69956744Y3428534D02*
X70058313Y3276184D01*
Y3428534D02*
X69956744Y3276184D01*
X70109094Y3250792D02*
X70210663D01*
X70261444Y3276184D02*
X70337622D01*
X70363013Y3301576D01*
X70337622Y3326967D01*
X70286835D01*
X70261444Y3352359D01*
X70286835Y3377751D01*
X70363013D01*
X70489972Y3276184D02*
X70439185D01*
X70413794Y3301576D01*
Y3352359D01*
X70439185Y3377751D01*
X70489972D01*
X70515363Y3352359D01*
Y3326967D01*
X70413794D01*
X70591541Y3403143D02*
Y3377751D01*
X70566144D01*
X70616931D01*
X70591541D01*
Y3301576D01*
X70616931Y3276184D01*
X70693103Y3377751D02*
Y3301576D01*
X70718494Y3276184D01*
X70794672D01*
Y3377751D01*
X70845453Y3225400D02*
Y3377751D01*
X70921631D01*
X70947021Y3352359D01*
Y3301576D01*
X70921631Y3276184D01*
X70845453D01*
X71099371D02*
X70997809D01*
X71099371Y3377751D01*
Y3403143D01*
X71073981Y3428534D01*
X71023199D01*
X70997809Y3403143D01*
X71150159Y3250792D02*
X71251721D01*
X71302509Y3428534D02*
Y3326967D01*
X71353290Y3276184D01*
X71404077Y3326967D01*
Y3428534D01*
X71454858Y3276184D02*
X71505640D01*
X71480249D01*
Y3428534D01*
X71454858Y3403143D01*
X71581818Y3276184D02*
Y3301576D01*
X71607208D01*
Y3276184D01*
X71581818D01*
X71810345D02*
X71708777D01*
X71810345Y3377751D01*
Y3403143D01*
X71784949Y3428534D01*
X71734167D01*
X71708777Y3403143D01*
X71861127Y3250792D02*
X71962695D01*
X72013477Y3403143D02*
X72038867Y3428534D01*
X72089655D01*
X72115045Y3403143D01*
Y3301576D01*
X72089655Y3276184D01*
X72038867D01*
X72013477Y3301576D01*
Y3403143D01*
X72165826Y3276184D02*
X72216614D01*
X72191217D01*
Y3428534D01*
X72165826Y3403143D01*
X72292786Y3250792D02*
X72394354D01*
X72546704Y3276184D02*
X72445135D01*
X72546704Y3377751D01*
Y3403143D01*
X72521313Y3428534D01*
X72470526D01*
X72445135Y3403143D01*
X72597485D02*
X72622882Y3428534D01*
X72673663D01*
X72699054Y3403143D01*
Y3301576D01*
X72673663Y3276184D01*
X72622882D01*
X72597485Y3301576D01*
Y3403143D01*
X72851404Y3276184D02*
X72749841D01*
X72851404Y3377751D01*
Y3403143D01*
X72826013Y3428534D01*
X72775232D01*
X72749841Y3403143D01*
X72978363Y3276184D02*
Y3428534D01*
X72902191Y3352359D01*
X73003760D01*
X11126967Y3303142D02*
X11101575Y3328534D01*
X11050792D01*
X11025400Y3303142D01*
Y3201576D01*
X11050792Y3176184D01*
X11101575D01*
X11126967Y3201576D01*
Y3252359D01*
X11076184D01*
X11177751Y3277751D02*
Y3176184D01*
Y3226967D01*
X11203143Y3252359D01*
X11228534Y3277751D01*
X11253926D01*
X11355493D02*
X11406277D01*
X11431669Y3252359D01*
Y3176184D01*
X11355493D01*
X11330102Y3201576D01*
X11355493Y3226967D01*
X11431669D01*
X11584020Y3328534D02*
Y3176184D01*
X11507844D01*
X11482452Y3201576D01*
Y3252359D01*
X11507844Y3277751D01*
X11584020D01*
X11634803Y3176184D02*
X11685586D01*
X11660195D01*
Y3277751D01*
X11634803D01*
X11837937Y3176184D02*
X11787154D01*
X11761762Y3201576D01*
Y3252359D01*
X11787154Y3277751D01*
X11837937D01*
X11863329Y3252359D01*
Y3226967D01*
X11761762D01*
X11914113Y3176184D02*
Y3277751D01*
X11990288D01*
X12015680Y3252359D01*
Y3176184D01*
X12091855Y3303142D02*
Y3277751D01*
X12066463D01*
X12117247D01*
X12091855D01*
Y3201576D01*
X12117247Y3176184D01*
X12193422Y3150792D02*
X12294989D01*
X12447340Y3303142D02*
X12421948Y3328534D01*
X12371165D01*
X12345773Y3303142D01*
Y3201576D01*
X12371165Y3176184D01*
X12421948D01*
X12447340Y3201576D01*
X12523515Y3176184D02*
X12574299D01*
X12599691Y3201576D01*
Y3252359D01*
X12574299Y3277751D01*
X12523515D01*
X12498124Y3252359D01*
Y3201576D01*
X12523515Y3176184D01*
X12650474D02*
X12701258D01*
X12675866D01*
Y3277751D01*
X12650474D01*
X12777433Y3176184D02*
X12828217D01*
X12802824D01*
Y3328534D01*
X12777433D01*
X12904391Y3150792D02*
X13005959D01*
X13056743Y3328534D02*
X13158310Y3176184D01*
Y3328534D02*
X13056743Y3176184D01*
X13209093Y3150792D02*
X13310661D01*
X13361444Y3176184D02*
X13437621D01*
X13463011Y3201576D01*
X13437621Y3226967D01*
X13386836D01*
X13361444Y3252359D01*
X13386836Y3277751D01*
X13463011D01*
X13589970Y3176184D02*
X13539188D01*
X13513795Y3201576D01*
Y3252359D01*
X13539188Y3277751D01*
X13589970D01*
X13615363Y3252359D01*
Y3226967D01*
X13513795D01*
X13691537Y3303142D02*
Y3277751D01*
X13666145D01*
X13716930D01*
X13691537D01*
Y3201576D01*
X13716930Y3176184D01*
X13793105Y3277751D02*
Y3201576D01*
X13818497Y3176184D01*
X13894672D01*
Y3277751D01*
X13945454Y3125400D02*
Y3277751D01*
X14021631D01*
X14047021Y3252359D01*
Y3201576D01*
X14021631Y3176184D01*
X13945454D01*
X14199373D02*
X14097806D01*
X14199373Y3277751D01*
Y3303142D01*
X14173981Y3328534D01*
X14123198D01*
X14097806Y3303142D01*
X14250157Y3150792D02*
X14351724D01*
X14402507Y3328534D02*
Y3226967D01*
X14453291Y3176184D01*
X14504076Y3226967D01*
Y3328534D01*
X14554858Y3176184D02*
X14605643D01*
X14580251D01*
Y3328534D01*
X14554858Y3303142D01*
X14681818Y3176184D02*
Y3201576D01*
X14707208D01*
Y3176184D01*
X14681818D01*
X14910342D02*
X14808775D01*
X14910342Y3277751D01*
Y3303142D01*
X14884950Y3328534D01*
X14834167D01*
X14808775Y3303142D01*
X14961127Y3150792D02*
X15062694D01*
X15113477Y3303142D02*
X15138869Y3328534D01*
X15189653D01*
X15215044Y3303142D01*
Y3201576D01*
X15189653Y3176184D01*
X15138869D01*
X15113477Y3201576D01*
Y3303142D01*
X15265828Y3176184D02*
X15316611D01*
X15291220D01*
Y3328534D01*
X15265828Y3303142D01*
X15392787Y3150792D02*
X15494354D01*
X15646706Y3176184D02*
X15545139D01*
X15646706Y3277751D01*
Y3303142D01*
X15621313Y3328534D01*
X15570529D01*
X15545139Y3303142D01*
X15697488D02*
X15722881Y3328534D01*
X15773663D01*
X15799055Y3303142D01*
Y3201576D01*
X15773663Y3176184D01*
X15722881D01*
X15697488Y3201576D01*
Y3303142D01*
X15951405Y3176184D02*
X15849838D01*
X15951405Y3277751D01*
Y3303142D01*
X15926015Y3328534D01*
X15875230D01*
X15849838Y3303142D01*
X16078365Y3176184D02*
Y3328534D01*
X16002190Y3252359D01*
X16103757D01*
X67925403Y2777751D02*
Y2625400D01*
X68026965D01*
X68230103Y2676184D02*
X68331671D01*
X68230103Y2726967D02*
X68331671D01*
X68534802Y2625400D02*
X68585583D01*
X68560193D01*
Y2777751D01*
X68534802Y2752359D01*
X68661761Y2777751D02*
X68763330D01*
Y2752359D01*
X68661761Y2650792D01*
Y2625400D01*
X68915680Y2777751D02*
X68814111D01*
Y2701575D01*
X68864899Y2726967D01*
X68890289D01*
X68915680Y2701575D01*
Y2650792D01*
X68890289Y2625400D01*
X68839502D01*
X68814111Y2650792D01*
X68966461Y2726967D02*
Y2650792D01*
X68991858Y2625400D01*
X69068030D01*
Y2726967D01*
X69118811Y2777751D02*
Y2625400D01*
Y2701575D01*
X69220380D01*
Y2777751D01*
Y2625400D01*
X67925403Y2925400D02*
X67976184D01*
X67950793D01*
Y3077751D01*
X67925403Y3052359D01*
X68153925Y2925400D02*
X68052356D01*
X68153925Y3026967D01*
Y3052359D01*
X68128534Y3077751D01*
X68077753D01*
X68052356Y3052359D01*
X68204712D02*
X68230103Y3077751D01*
X68280884D01*
X68306274Y3052359D01*
Y2950792D01*
X68280884Y2925400D01*
X68230103D01*
X68204712Y2950792D01*
Y3052359D01*
X68357062Y3026967D02*
Y2950792D01*
X68382452Y2925400D01*
X68458630D01*
Y3026967D01*
X68509412Y3077751D02*
X68610980D01*
X68560193D01*
Y2925400D01*
X68661761D02*
X68763330Y3026967D01*
X68814111Y2925400D02*
Y3026967D01*
X68839502D01*
X68864899Y3001575D01*
Y2925400D01*
Y3001575D01*
X68890289Y3026967D01*
X68915680Y3001575D01*
Y2925400D01*
X68966461D02*
X69068030Y3026967D01*
X69118811Y2925400D02*
Y3026967D01*
X69169598Y3077751D01*
X69220380Y3026967D01*
Y2925400D01*
Y3001575D01*
X69118811D01*
X69474298Y2925400D02*
X69423517Y2976184D01*
Y3026967D01*
X69474298Y3077751D01*
X69550476Y2925400D02*
X69601257D01*
X69575867D01*
Y3077751D01*
X69550476Y3052359D01*
X69778998Y2925400D02*
X69677435D01*
X69778998Y3026967D01*
Y3052359D01*
X69753607Y3077751D01*
X69702826D01*
X69677435Y3052359D01*
X69829785Y2925400D02*
Y3026967D01*
X69855176D01*
X69880566Y3001575D01*
Y2925400D01*
Y3001575D01*
X69905957Y3026967D01*
X69931354Y3001575D01*
Y2925400D01*
X69982135Y3077751D02*
X70083704D01*
X70032916D01*
Y2925400D01*
X70134485D02*
X70236053Y3026967D01*
X70286835Y2925400D02*
Y3026967D01*
X70312225D01*
X70337622Y3001575D01*
Y2925400D01*
Y3001575D01*
X70363013Y3026967D01*
X70388403Y3001575D01*
Y2925400D01*
X70616931Y3026967D02*
X70667712D01*
X70693103Y3001575D01*
Y2925400D01*
X70616931D01*
X70591541Y2950792D01*
X70616931Y2976184D01*
X70693103D01*
X70769281Y3052359D02*
Y3026967D01*
X70743890D01*
X70794672D01*
X70769281D01*
Y2950792D01*
X70794672Y2925400D01*
X71023199D02*
X71073981D01*
X71048590D01*
Y3077751D01*
X71023199Y3052359D01*
X71150159D02*
X71175549Y3077751D01*
X71226331D01*
X71251721Y3052359D01*
Y2950792D01*
X71226331Y2925400D01*
X71175549D01*
X71150159Y2950792D01*
Y3052359D01*
X71302509D02*
X71327899Y3077751D01*
X71378680D01*
X71404077Y3052359D01*
Y2950792D01*
X71378680Y2925400D01*
X71327899D01*
X71302509Y2950792D01*
Y3052359D01*
X71454858Y2925400D02*
Y3026967D01*
X71505640Y3077751D01*
X71556427Y3026967D01*
Y2925400D01*
Y3001575D01*
X71454858D01*
X71607208Y2925400D02*
X71657990Y2976184D01*
Y3026967D01*
X71607208Y3077751D01*
X67925403Y2376183D02*
Y2528534D01*
X68001575D01*
X68026965Y2503142D01*
Y2452359D01*
X68001575Y2426967D01*
X67925403D01*
X67976184D02*
X68026965Y2376183D01*
X68103143Y2477751D02*
X68153925D01*
X68179315Y2452359D01*
Y2376183D01*
X68103143D01*
X68077753Y2401575D01*
X68103143Y2426967D01*
X68179315D01*
X68255493Y2503142D02*
Y2477751D01*
X68230103D01*
X68280884D01*
X68255493D01*
Y2401575D01*
X68280884Y2376183D01*
X68433234D02*
X68382452D01*
X68357062Y2401575D01*
Y2452359D01*
X68382452Y2477751D01*
X68433234D01*
X68458630Y2452359D01*
Y2426967D01*
X68357062D01*
X68610980Y2528534D02*
Y2376183D01*
X68534802D01*
X68509412Y2401575D01*
Y2452359D01*
X68534802Y2477751D01*
X68610980D01*
X68839502Y2376183D02*
Y2503142D01*
Y2452359D01*
X68814111D01*
X68864899D01*
X68839502D01*
Y2503142D01*
X68864899Y2528534D01*
X68966461Y2376183D02*
X69017249D01*
X69042639Y2401575D01*
Y2452359D01*
X69017249Y2477751D01*
X68966461D01*
X68941071Y2452359D01*
Y2401575D01*
X68966461Y2376183D01*
X69093420Y2477751D02*
Y2376183D01*
Y2426967D01*
X69118811Y2452359D01*
X69144208Y2477751D01*
X69169598D01*
X69398126Y2325400D02*
Y2477751D01*
X69474298D01*
X69499689Y2452359D01*
Y2401575D01*
X69474298Y2376183D01*
X69398126D01*
X69550476Y2477751D02*
Y2401575D01*
X69575867Y2376183D01*
X69652045D01*
Y2477751D01*
X69702826Y2376183D02*
X69753607D01*
X69728217D01*
Y2528534D01*
X69702826D01*
X69829785Y2376183D02*
X69905957D01*
X69931354Y2401575D01*
X69905957Y2426967D01*
X69855176D01*
X69829785Y2452359D01*
X69855176Y2477751D01*
X69931354D01*
X70058313Y2376183D02*
X70007526D01*
X69982135Y2401575D01*
Y2452359D01*
X70007526Y2477751D01*
X70058313D01*
X70083704Y2452359D01*
Y2426967D01*
X69982135D01*
X70312225Y2376183D02*
X70363013D01*
X70388403Y2401575D01*
Y2452359D01*
X70363013Y2477751D01*
X70312225D01*
X70286835Y2452359D01*
Y2401575D01*
X70312225Y2376183D01*
X70464581D02*
Y2503142D01*
Y2452359D01*
X70439185D01*
X70489972D01*
X70464581D01*
Y2503142D01*
X70489972Y2528534D01*
X70718494Y2376183D02*
X70769281D01*
X70743890D01*
Y2528534D01*
X70718494Y2503142D01*
X70845453D02*
X70870850Y2528534D01*
X70921631D01*
X70947021Y2503142D01*
Y2401575D01*
X70921631Y2376183D01*
X70870850D01*
X70845453Y2401575D01*
Y2503142D01*
X70997809D02*
X71023199Y2528534D01*
X71073981D01*
X71099371Y2503142D01*
Y2401575D01*
X71073981Y2376183D01*
X71023199D01*
X70997809Y2401575D01*
Y2503142D01*
X71150159Y2376183D02*
Y2477751D01*
X71200940Y2528534D01*
X71251721Y2477751D01*
Y2376183D01*
Y2452359D01*
X71150159D01*
X11025400Y2276183D02*
Y2428534D01*
X11101575D01*
X11126967Y2403142D01*
Y2352359D01*
X11101575Y2326967D01*
X11025400D01*
X11076184D02*
X11126967Y2276183D01*
X11203143Y2377751D02*
X11253926D01*
X11279318Y2352359D01*
Y2276183D01*
X11203143D01*
X11177751Y2301575D01*
X11203143Y2326967D01*
X11279318D01*
X11355493Y2403142D02*
Y2377751D01*
X11330102D01*
X11380885D01*
X11355493D01*
Y2301575D01*
X11380885Y2276183D01*
X11533236D02*
X11482452D01*
X11457060Y2301575D01*
Y2352359D01*
X11482452Y2377751D01*
X11533236D01*
X11558628Y2352359D01*
Y2326967D01*
X11457060D01*
X11710978Y2428534D02*
Y2276183D01*
X11634803D01*
X11609411Y2301575D01*
Y2352359D01*
X11634803Y2377751D01*
X11710978D01*
X11939504Y2276183D02*
Y2403142D01*
Y2352359D01*
X11914113D01*
X11964896D01*
X11939504D01*
Y2403142D01*
X11964896Y2428534D01*
X12066463Y2276183D02*
X12117247D01*
X12142639Y2301575D01*
Y2352359D01*
X12117247Y2377751D01*
X12066463D01*
X12041071Y2352359D01*
Y2301575D01*
X12066463Y2276183D01*
X12193422Y2377751D02*
Y2276183D01*
Y2326967D01*
X12218814Y2352359D01*
X12244206Y2377751D01*
X12269598D01*
X12498124Y2225400D02*
Y2377751D01*
X12574299D01*
X12599691Y2352359D01*
Y2301575D01*
X12574299Y2276183D01*
X12498124D01*
X12650474Y2377751D02*
Y2301575D01*
X12675866Y2276183D01*
X12752042D01*
Y2377751D01*
X12802824Y2276183D02*
X12853609D01*
X12828217D01*
Y2428534D01*
X12802824D01*
X12929784Y2276183D02*
X13005959D01*
X13031351Y2301575D01*
X13005959Y2326967D01*
X12955176D01*
X12929784Y2352359D01*
X12955176Y2377751D01*
X13031351D01*
X13158310Y2276183D02*
X13107526D01*
X13082135Y2301575D01*
Y2352359D01*
X13107526Y2377751D01*
X13158310D01*
X13183702Y2352359D01*
Y2326967D01*
X13082135D01*
X13412228Y2276183D02*
X13463011D01*
X13488403Y2301575D01*
Y2352359D01*
X13463011Y2377751D01*
X13412228D01*
X13386836Y2352359D01*
Y2301575D01*
X13412228Y2276183D01*
X13564578D02*
Y2403142D01*
Y2352359D01*
X13539188D01*
X13589970D01*
X13564578D01*
Y2403142D01*
X13589970Y2428534D01*
X13818497Y2276183D02*
X13869279D01*
X13843887D01*
Y2428534D01*
X13818497Y2403142D01*
X13945454D02*
X13970847Y2428534D01*
X14021631D01*
X14047021Y2403142D01*
Y2301575D01*
X14021631Y2276183D01*
X13970847D01*
X13945454Y2301575D01*
Y2403142D01*
X14097806D02*
X14123198Y2428534D01*
X14173981D01*
X14199373Y2403142D01*
Y2301575D01*
X14173981Y2276183D01*
X14123198D01*
X14097806Y2301575D01*
Y2403142D01*
X14250157Y2276183D02*
Y2377751D01*
X14300940Y2428534D01*
X14351724Y2377751D01*
Y2276183D01*
Y2352359D01*
X14250157D01*
X41925400Y2828534D02*
X42026968Y2676183D01*
Y2828534D02*
X41925400Y2676183D01*
X42103143Y2650791D02*
X42128534Y2676183D01*
Y2701575D01*
X42103143D01*
Y2676183D01*
X42128534D01*
X42103143Y2650791D01*
X42077750Y2625400D01*
X42230099Y2828534D02*
Y2803142D01*
X42280884Y2752359D01*
X42331668Y2803142D01*
Y2828534D01*
X42280884Y2752359D02*
Y2676183D01*
X2065205Y3588871D02*
Y3487304D01*
X2115989Y3436521D01*
X2166773Y3487304D01*
Y3588871D01*
X2217556Y3411129D02*
X2319123D01*
X2369907Y3588871D02*
X2420690D01*
X2395299D01*
Y3436521D01*
X2369907D01*
X2420690D01*
X2496866D02*
Y3538088D01*
X2573041D01*
X2598433Y3512696D01*
Y3436521D01*
X2674608Y3563480D02*
Y3538088D01*
X2649216D01*
X2700000D01*
X2674608D01*
Y3461913D01*
X2700000Y3436521D01*
X2852351D02*
X2801567D01*
X2776175Y3461913D01*
Y3512696D01*
X2801567Y3538088D01*
X2852351D01*
X2877743Y3512696D01*
Y3487304D01*
X2776175D01*
X2928526Y3538088D02*
Y3436521D01*
Y3487304D01*
X2953918Y3512696D01*
X2979310Y3538088D01*
X3004701D01*
X3080877Y3411129D02*
X3182444D01*
X3233227Y3563480D02*
X3258619Y3588871D01*
X3309403D01*
X3334795Y3563480D01*
Y3538088D01*
X3309403Y3512696D01*
X3284011D01*
X3309403D01*
X3334795Y3487304D01*
Y3461913D01*
X3309403Y3436521D01*
X3258619D01*
X3233227Y3461913D01*
X6049375Y3701567D02*
Y3600000D01*
X6100159Y3549216D01*
X6150942Y3600000D01*
Y3701567D01*
X6201726Y3523825D02*
X6303293D01*
X6354077Y3701567D02*
X6455644D01*
X6404860D01*
Y3549216D01*
X6531819D02*
X6582603D01*
X6607995Y3574608D01*
Y3625392D01*
X6582603Y3650784D01*
X6531819D01*
X6506427Y3625392D01*
Y3574608D01*
X6531819Y3549216D01*
X6658778Y3498433D02*
Y3650784D01*
X6734954D01*
X6760345Y3625392D01*
Y3574608D01*
X6734954Y3549216D01*
X6658778D01*
X6811129Y3523825D02*
X6912696D01*
X6988871Y3676175D02*
Y3650784D01*
X6963480D01*
X7014263D01*
X6988871D01*
Y3574608D01*
X7014263Y3549216D01*
X7115830D02*
X7166614D01*
X7192006Y3574608D01*
Y3625392D01*
X7166614Y3650784D01*
X7115830D01*
X7090438Y3625392D01*
Y3574608D01*
X7115830Y3549216D01*
X7242789Y3523825D02*
X7344356D01*
X7395140Y3701567D02*
Y3549216D01*
X7471315D01*
X7496707Y3574608D01*
Y3600000D01*
X7471315Y3625392D01*
X7395140D01*
X7471315D01*
X7496707Y3650784D01*
Y3676175D01*
X7471315Y3701567D01*
X7395140D01*
X7572882Y3549216D02*
X7623666D01*
X7649058Y3574608D01*
Y3625392D01*
X7623666Y3650784D01*
X7572882D01*
X7547491Y3625392D01*
Y3574608D01*
X7572882Y3549216D01*
X7725233Y3676175D02*
Y3650784D01*
X7699841D01*
X7750625D01*
X7725233D01*
Y3574608D01*
X7750625Y3549216D01*
X78973041Y3576175D02*
Y3474608D01*
X79023822Y3423825D01*
X79074609Y3474608D01*
Y3576175D01*
X79125391Y3500000D02*
X79226959D01*
X74065204Y3588871D02*
Y3487304D01*
X74115991Y3436521D01*
X74166772Y3487304D01*
Y3588871D01*
X74217554Y3411129D02*
X74319122D01*
X74369910Y3588871D02*
X74420691D01*
X74395300D01*
Y3436521D01*
X74369910D01*
X74420691D01*
X74496869D02*
Y3538088D01*
X74573041D01*
X74598431Y3512696D01*
Y3436521D01*
X74674609Y3563480D02*
Y3538088D01*
X74649219D01*
X74700000D01*
X74674609D01*
Y3461913D01*
X74700000Y3436521D01*
X74852350D02*
X74801569D01*
X74776178Y3461913D01*
Y3512696D01*
X74801569Y3538088D01*
X74852350D01*
X74877740Y3512696D01*
Y3487304D01*
X74776178D01*
X74928528Y3538088D02*
Y3436521D01*
Y3487304D01*
X74953918Y3512696D01*
X74979309Y3538088D01*
X75004700D01*
X75080878Y3411129D02*
X75182446D01*
X75309406Y3436521D02*
Y3588871D01*
X75233228Y3512696D01*
X75334796D01*
X79425403Y57428534D02*
Y57326965D01*
X79476184Y57276184D01*
X79526965Y57326965D01*
Y57428534D01*
X79577753Y57276184D02*
X79628534D01*
X79603143D01*
Y57377753D01*
X79577753D01*
X79780884Y57276184D02*
X79730103D01*
X79704712Y57301575D01*
Y57352356D01*
X79730103Y57377753D01*
X79780884D01*
X79806274Y57352356D01*
Y57326965D01*
X79704712D01*
X79857062Y57377753D02*
Y57301575D01*
X79882452Y57276184D01*
X79907843Y57301575D01*
X79933234Y57276184D01*
X79958624Y57301575D01*
Y57377753D01*
X80187152Y57276184D02*
Y57403143D01*
Y57352356D01*
X80161761D01*
X80212543D01*
X80187152D01*
Y57403143D01*
X80212543Y57428534D01*
X80288721Y57377753D02*
Y57276184D01*
Y57326965D01*
X80314111Y57352356D01*
X80339502Y57377753D01*
X80364899D01*
X80466461Y57276184D02*
X80517249D01*
X80542639Y57301575D01*
Y57352356D01*
X80517249Y57377753D01*
X80466461D01*
X80441071Y57352356D01*
Y57301575D01*
X80466461Y57276184D01*
X80593420D02*
Y57377753D01*
X80618811D01*
X80644208Y57352356D01*
Y57276184D01*
Y57352356D01*
X80669598Y57377753D01*
X80694989Y57352356D01*
Y57276184D01*
X80923517Y57403143D02*
Y57377753D01*
X80898120D01*
X80948907D01*
X80923517D01*
Y57301575D01*
X80948907Y57276184D01*
X81050476D02*
X81101257D01*
X81126648Y57301575D01*
Y57352356D01*
X81101257Y57377753D01*
X81050476D01*
X81025079Y57352356D01*
Y57301575D01*
X81050476Y57276184D01*
X81177435Y57225403D02*
Y57377753D01*
X81253607D01*
X81278998Y57352356D01*
Y57301575D01*
X81253607Y57276184D01*
X81177435D01*
X11025400Y2825400D02*
X11076184D01*
X11050792D01*
Y2977751D01*
X11025400Y2952359D01*
X11253926Y2825400D02*
X11152359D01*
X11253926Y2926967D01*
Y2952359D01*
X11228534Y2977751D01*
X11177751D01*
X11152359Y2952359D01*
X11304710D02*
X11330102Y2977751D01*
X11380885D01*
X11406277Y2952359D01*
Y2850792D01*
X11380885Y2825400D01*
X11330102D01*
X11304710Y2850792D01*
Y2952359D01*
X11457060Y2926967D02*
Y2850792D01*
X11482452Y2825400D01*
X11558628D01*
Y2926967D01*
X11609411Y2977751D02*
X11710978D01*
X11660195D01*
Y2825400D01*
X11761762D02*
X11863329Y2926967D01*
X11914113Y2825400D02*
Y2926967D01*
X11939504D01*
X11964896Y2901575D01*
Y2825400D01*
Y2901575D01*
X11990288Y2926967D01*
X12015680Y2901575D01*
Y2825400D01*
X12066463D02*
X12168031Y2926967D01*
X12218814Y2825400D02*
Y2926967D01*
X12269598Y2977751D01*
X12320381Y2926967D01*
Y2825400D01*
Y2901575D01*
X12218814D01*
X12574299Y2825400D02*
X12523515Y2876183D01*
Y2926967D01*
X12574299Y2977751D01*
X12650474Y2825400D02*
X12701258D01*
X12675866D01*
Y2977751D01*
X12650474Y2952359D01*
X12878999Y2825400D02*
X12777433D01*
X12878999Y2926967D01*
Y2952359D01*
X12853609Y2977751D01*
X12802824D01*
X12777433Y2952359D01*
X12929784Y2825400D02*
Y2926967D01*
X12955176D01*
X12980566Y2901575D01*
Y2825400D01*
Y2901575D01*
X13005959Y2926967D01*
X13031351Y2901575D01*
Y2825400D01*
X13082135Y2977751D02*
X13183702D01*
X13132918D01*
Y2825400D01*
X13234485D02*
X13336053Y2926967D01*
X13386836Y2825400D02*
Y2926967D01*
X13412228D01*
X13437621Y2901575D01*
Y2825400D01*
Y2901575D01*
X13463011Y2926967D01*
X13488403Y2901575D01*
Y2825400D01*
X13716930Y2926967D02*
X13767712D01*
X13793105Y2901575D01*
Y2825400D01*
X13716930D01*
X13691537Y2850792D01*
X13716930Y2876183D01*
X13793105D01*
X13869279Y2952359D02*
Y2926967D01*
X13843887D01*
X13894672D01*
X13869279D01*
Y2850792D01*
X13894672Y2825400D01*
X14123198D02*
X14173981D01*
X14148590D01*
Y2977751D01*
X14123198Y2952359D01*
X14250157D02*
X14275549Y2977751D01*
X14326332D01*
X14351724Y2952359D01*
Y2850792D01*
X14326332Y2825400D01*
X14275549D01*
X14250157Y2850792D01*
Y2952359D01*
X14402507D02*
X14427899Y2977751D01*
X14478683D01*
X14504076Y2952359D01*
Y2850792D01*
X14478683Y2825400D01*
X14427899D01*
X14402507Y2850792D01*
Y2952359D01*
X14554858Y2825400D02*
Y2926967D01*
X14605643Y2977751D01*
X14656425Y2926967D01*
Y2825400D01*
Y2901575D01*
X14554858D01*
X14707208Y2825400D02*
X14757993Y2876183D01*
Y2926967D01*
X14707208Y2977751D01*
X11025400Y2677751D02*
Y2525400D01*
X11126967D01*
X11330102Y2576184D02*
X11431669D01*
X11330102Y2626967D02*
X11431669D01*
X11634803Y2525400D02*
X11685586D01*
X11660195D01*
Y2677751D01*
X11634803Y2652359D01*
X11761762Y2677751D02*
X11863329D01*
Y2652359D01*
X11761762Y2550792D01*
Y2525400D01*
X12015680Y2677751D02*
X11914113D01*
Y2601575D01*
X11964896Y2626967D01*
X11990288D01*
X12015680Y2601575D01*
Y2550792D01*
X11990288Y2525400D01*
X11939504D01*
X11914113Y2550792D01*
X12066463Y2626967D02*
Y2550792D01*
X12091855Y2525400D01*
X12168031D01*
Y2626967D01*
X12218814Y2677751D02*
Y2525400D01*
Y2601575D01*
X12320381D01*
Y2677751D01*
Y2525400D01*
%TF.MD5,d10c4679a7a28b4c9cad8edfc8c82f8d*%
M02*
