M48
; DRILL file {KiCad 7.0.7} date Mon Sep 25 09:53:45 2023
; FORMAT={-:-/ absolute / inch / decimal}
; #@! TF.CreationDate,2023-09-25T09:53:45+02:00
; #@! TF.GenerationSoftware,Kicad,Pcbnew,7.0.7
; #@! TF.FileFunction,Plated,1,4,PTH
FMAT,2
INCH
; #@! TA.AperFunction,Plated,PTH,ComponentDrill
T1C0.0276
; #@! TA.AperFunction,Plated,PTH,ComponentDrill
T2C0.0433
; #@! TA.AperFunction,Plated,PTH,ComponentDrill
T3C0.0472
; #@! TA.AperFunction,Plated,PTH,ComponentDrill
T4C0.1039
; #@! TA.AperFunction,Plated,PTH,ComponentDrill
T5C0.1063
; #@! TA.AperFunction,Plated,PTH,ComponentDrill
T6C0.2177
%
G90
G05
T1
X0.7098Y-3.3827
X0.7098Y-3.6827
T2
X1.2795Y-2.9134
X1.8701Y-2.9134
T3
X0.7098Y-1.9398
X0.7098Y-2.8256
X2.6079Y-1.4087
X2.6079Y-3.1409
X3.1417Y-3.0335
X3.3465Y-1.25
X3.3465Y-2.1358
X4.874Y-3.0335
X5.0394Y-1.8701
X5.0394Y-2.4606
X5.7894Y-1.7008
X5.7894Y-3.4331
T4
X-0.3953Y-1.5201
X-0.3953Y-1.9453
X-0.3953Y-2.3701
X-0.3953Y-2.7953
X-0.3953Y-3.3201
X-0.3953Y-3.7453
X-0.1902Y-1.5201
X-0.1902Y-1.9453
X-0.1902Y-2.3701
X-0.1902Y-2.7953
X-0.1902Y-3.3201
X-0.1902Y-3.7453
X0.015Y-1.5201
X0.015Y-1.9453
X0.015Y-2.3701
X0.015Y-2.7953
X0.015Y-3.3201
X0.015Y-3.7453
X6.5047Y-1.5201
X6.5047Y-1.9453
X6.5047Y-3.3106
X6.5047Y-3.7358
X6.7098Y-1.5201
X6.7098Y-1.9453
X6.7098Y-3.3106
X6.7098Y-3.7358
X6.915Y-1.5201
X6.915Y-1.9453
X6.915Y-3.3106
X6.915Y-3.7358
T6
X4.4142Y-1.3642
T5
G00X1.2988Y-2.3189
M15
G01X1.2988Y-2.1299
M16
G05
G00X1.9209Y-1.9646
M15
G01X1.9209Y-1.7756
M16
G05
T6
G00X3.9907Y-2.0138
M15
G01X4.088Y-2.0138
M16
G05
T0
M30
