%TF.GenerationSoftware,KiCad,Pcbnew,7.0.7*%
%TF.CreationDate,2023-09-25T12:20:41+02:00*%
%TF.ProjectId,GradientAmplifierFilter_V1,47726164-6965-46e7-9441-6d706c696669,rev?*%
%TF.SameCoordinates,Original*%
%TF.FileFunction,Soldermask,Bot*%
%TF.FilePolarity,Negative*%
%FSLAX46Y46*%
G04 Gerber Fmt 4.6, Leading zero omitted, Abs format (unit mm)*
G04 Created by KiCad (PCBNEW 7.0.7) date 2023-09-25 12:20:41*
%MOMM*%
%LPD*%
G01*
G04 APERTURE LIST*
%ADD10C,12.000000*%
%ADD11C,0.150000*%
%ADD12R,3.200000X8.000000*%
%ADD13C,3.960000*%
%ADD14C,2.200000*%
%ADD15R,10.000000X8.000000*%
%ADD16R,8.000000X8.000000*%
%ADD17R,2.400000X2.400000*%
%ADD18O,2.400000X2.400000*%
%ADD19C,2.400000*%
%ADD20C,1.400000*%
%ADD21O,1.400000X1.400000*%
%TA.AperFunction,Profile*%
%ADD22C,0.150000*%
%TD*%
G04 APERTURE END LIST*
D10*
X-5000000Y-97000000D02*
X-5000000Y-83000000D01*
X-8000000Y-90000000D02*
X0Y-90000000D01*
D11*
X0Y-90000000D02*
X-8000000Y-90000000D01*
D10*
X11000000Y-101000000D02*
X0Y-90000000D01*
X160000000Y-102000000D02*
X11000000Y-101000000D01*
X170000000Y-90500000D02*
X160000000Y-102000000D01*
D11*
X170000000Y-97000000D02*
X170000000Y-90500000D01*
D10*
X170000000Y-84000000D02*
X170000000Y-97000000D01*
X170000000Y-36000000D02*
X170000000Y-43000000D01*
X170000000Y-52000000D02*
X170000000Y-43000000D01*
D11*
X170000000Y-43000000D02*
X170000000Y-52000000D01*
D10*
X160000000Y-34000000D02*
X170000000Y-43000000D01*
X69000000Y-33000000D02*
X160000000Y-34000000D01*
D11*
X66000000Y-36000000D02*
X69000000Y-33000000D01*
D10*
X55000000Y-48000000D02*
X66000000Y-36000000D01*
X48000000Y-48000000D02*
X55000000Y-48000000D01*
X-6000000Y-41000000D02*
X-6000000Y-52000000D01*
D11*
X-6000000Y-35000000D02*
X-6000000Y-41000000D01*
X-6000000Y-41000000D02*
X-6000000Y-35000000D01*
X2000000Y-41000000D02*
X-6000000Y-41000000D01*
D10*
X11000000Y-49000000D02*
X2000000Y-41000000D01*
X18000000Y-49000000D02*
X11000000Y-49000000D01*
X33000000Y-54500000D02*
X18000000Y-47500000D01*
X33000000Y-74000000D02*
X33000000Y-56000000D01*
D12*
%TO.C,U1*%
X32990000Y-56500000D03*
X48790000Y-47500000D03*
%TD*%
D13*
%TO.C,J4*%
X165220000Y-94890000D03*
X165220000Y-84090000D03*
X170430000Y-94890000D03*
X170430000Y-84090000D03*
X175640000Y-94890000D03*
X175640000Y-84090000D03*
%TD*%
D14*
%TO.C,C1*%
X32500000Y-74000000D03*
X47500000Y-74000000D03*
%TD*%
D13*
%TO.C,J1*%
X380000Y-38610000D03*
X380000Y-49410000D03*
X-4830000Y-38610000D03*
X-4830000Y-49410000D03*
X-10040000Y-38610000D03*
X-10040000Y-49410000D03*
%TD*%
D15*
%TO.C,L1*%
X102600000Y-51150000D03*
D16*
X112120000Y-34650000D03*
%TD*%
D17*
%TO.C,R3*%
X147050000Y-43200000D03*
D18*
X147050000Y-87200000D03*
%TD*%
D17*
%TO.C,R1*%
X66240000Y-79780000D03*
D18*
X66240000Y-35780000D03*
%TD*%
D13*
%TO.C,J3*%
X-10040000Y-71000000D03*
X-10040000Y-60200000D03*
X-4830000Y-71000000D03*
X-4830000Y-60200000D03*
X380000Y-71000000D03*
X380000Y-60200000D03*
%TD*%
D17*
%TO.C,R2*%
X123800000Y-77050000D03*
D18*
X79800000Y-77050000D03*
%TD*%
D19*
%TO.C,C4*%
X85000000Y-31750000D03*
X85000000Y-54250000D03*
%TD*%
%TO.C,C2*%
X128000000Y-62500000D03*
X128000000Y-47500000D03*
%TD*%
D13*
%TO.C,J5*%
X165220000Y-49410000D03*
X165220000Y-38610000D03*
X170430000Y-49410000D03*
X170430000Y-38610000D03*
X175640000Y-49410000D03*
X175640000Y-38610000D03*
%TD*%
D19*
%TO.C,C3*%
X18030000Y-49270000D03*
X18030000Y-71770000D03*
%TD*%
D20*
%TO.C,R4*%
X18030000Y-93540000D03*
D21*
X18030000Y-85920000D03*
%TD*%
D13*
%TO.C,J2*%
X380000Y-84330000D03*
X380000Y-95130000D03*
X-4830000Y-84330000D03*
X-4830000Y-95130000D03*
X-10040000Y-84330000D03*
X-10040000Y-95130000D03*
%TD*%
D22*
X-14990000Y-23690000D02*
X180590000Y-23690000D01*
X180590000Y-110050000D01*
X-14990000Y-110050000D01*
X-14990000Y-23690000D01*
X-3070000Y-28770000D02*
G75*
G03*
X-3070000Y-28770000I-4300000J0D01*
G01*
X174600000Y-104970000D02*
G75*
G03*
X174600000Y-104970000I-4300000J0D01*
G01*
X174600000Y-28770000D02*
G75*
G03*
X174600000Y-28770000I-4300000J0D01*
G01*
X-3070000Y-104970000D02*
G75*
G03*
X-3070000Y-104970000I-4300000J0D01*
G01*
M02*
