%TF.GenerationSoftware,KiCad,Pcbnew,7.0.7*%
%TF.CreationDate,2023-09-25T16:49:46+02:00*%
%TF.ProjectId,GradientAmplifierFilter_V1,47726164-6965-46e7-9441-6d706c696669,rev?*%
%TF.SameCoordinates,Original*%
%TF.FileFunction,Soldermask,Top*%
%TF.FilePolarity,Negative*%
%FSLAX46Y46*%
G04 Gerber Fmt 4.6, Leading zero omitted, Abs format (unit mm)*
G04 Created by KiCad (PCBNEW 7.0.7) date 2023-09-25 16:49:46*
%MOMM*%
%LPD*%
G01*
G04 APERTURE LIST*
%ADD10R,5.500000X8.500000*%
%ADD11R,4.500000X11.500000*%
%ADD12C,3.960000*%
%ADD13C,2.200000*%
%ADD14R,2.400000X2.400000*%
%ADD15O,2.400000X2.400000*%
%ADD16C,2.400000*%
%ADD17O,1.400000X1.400000*%
%ADD18C,1.400000*%
%TA.AperFunction,Profile*%
%ADD19C,0.150000*%
%TD*%
G04 APERTURE END LIST*
D10*
%TO.C,L1*%
X102350000Y-51400000D03*
X112550000Y-34250000D03*
%TD*%
D11*
%TO.C,U2*%
X26900000Y-57800000D03*
X51100000Y-46200000D03*
%TD*%
D12*
%TO.C,J4*%
X165220000Y-94890000D03*
X165220000Y-84090000D03*
X170430000Y-94890000D03*
X170430000Y-84090000D03*
X175640000Y-94890000D03*
X175640000Y-84090000D03*
%TD*%
D13*
%TO.C,C1*%
X32500000Y-75000000D03*
X47500000Y-75000000D03*
%TD*%
D12*
%TO.C,J1*%
X380000Y-38610000D03*
X380000Y-49410000D03*
X-4830000Y-38610000D03*
X-4830000Y-49410000D03*
X-10040000Y-38610000D03*
X-10040000Y-49410000D03*
%TD*%
D14*
%TO.C,R3*%
X147050000Y-43200000D03*
D15*
X147050000Y-87200000D03*
%TD*%
D14*
%TO.C,R1*%
X67950000Y-79800000D03*
D15*
X67950000Y-35800000D03*
%TD*%
D12*
%TO.C,J3*%
X-10040000Y-71000000D03*
X-10040000Y-60200000D03*
X-4830000Y-71000000D03*
X-4830000Y-60200000D03*
X380000Y-71000000D03*
X380000Y-60200000D03*
%TD*%
D14*
%TO.C,R2*%
X123800000Y-77050000D03*
D15*
X79800000Y-77050000D03*
%TD*%
D16*
%TO.C,C4*%
X85000000Y-31750000D03*
X85000000Y-54250000D03*
%TD*%
%TO.C,C2*%
X128000000Y-62500000D03*
X128000000Y-47500000D03*
%TD*%
D12*
%TO.C,J5*%
X165220000Y-49410000D03*
X165220000Y-38610000D03*
X170430000Y-49410000D03*
X170430000Y-38610000D03*
X175640000Y-49410000D03*
X175640000Y-38610000D03*
%TD*%
D16*
%TO.C,C3*%
X14000000Y-49270000D03*
X14000000Y-71770000D03*
%TD*%
D17*
%TO.C,R4*%
X18030000Y-85920000D03*
D18*
X18030000Y-93540000D03*
%TD*%
D12*
%TO.C,J2*%
X380000Y-84330000D03*
X380000Y-95130000D03*
X-4830000Y-84330000D03*
X-4830000Y-95130000D03*
X-10040000Y-84330000D03*
X-10040000Y-95130000D03*
%TD*%
D19*
X-14990000Y-23690000D02*
X180590000Y-23690000D01*
X180590000Y-110050000D01*
X-14990000Y-110050000D01*
X-14990000Y-23690000D01*
X-3070000Y-28770000D02*
G75*
G03*
X-3070000Y-28770000I-4300000J0D01*
G01*
X174600000Y-104970000D02*
G75*
G03*
X174600000Y-104970000I-4300000J0D01*
G01*
X174600000Y-28770000D02*
G75*
G03*
X174600000Y-28770000I-4300000J0D01*
G01*
X-3070000Y-104970000D02*
G75*
G03*
X-3070000Y-104970000I-4300000J0D01*
G01*
M02*
