%TF.GenerationSoftware,KiCad,Pcbnew,7.0.7*%
%TF.CreationDate,2023-09-25T16:49:46+02:00*%
%TF.ProjectId,GradientAmplifierFilter_V1,47726164-6965-46e7-9441-6d706c696669,rev?*%
%TF.SameCoordinates,Original*%
%TF.FileFunction,Soldermask,Bot*%
%TF.FilePolarity,Negative*%
%FSLAX46Y46*%
G04 Gerber Fmt 4.6, Leading zero omitted, Abs format (unit mm)*
G04 Created by KiCad (PCBNEW 7.0.7) date 2023-09-25 16:49:46*
%MOMM*%
%LPD*%
G01*
G04 APERTURE LIST*
%ADD10C,12.000000*%
%ADD11C,0.150000*%
%ADD12R,5.500000X8.500000*%
%ADD13R,4.500000X11.500000*%
%ADD14C,3.960000*%
%ADD15C,2.200000*%
%ADD16R,2.400000X2.400000*%
%ADD17O,2.400000X2.400000*%
%ADD18C,2.400000*%
%ADD19O,1.400000X1.400000*%
%ADD20C,1.400000*%
%TA.AperFunction,Profile*%
%ADD21C,0.150000*%
%TD*%
G04 APERTURE END LIST*
D10*
X28000000Y-75000000D02*
X28000000Y-57000000D01*
X160000000Y-102000000D02*
X11000000Y-101000000D01*
X-6000000Y-41000000D02*
X-6000000Y-52000000D01*
X18000000Y-49000000D02*
X11000000Y-49000000D01*
X55000000Y-48000000D02*
X66000000Y-36000000D01*
D11*
X170000000Y-97000000D02*
X170000000Y-90500000D01*
D10*
X170000000Y-36000000D02*
X170000000Y-43000000D01*
X170000000Y-52000000D02*
X170000000Y-43000000D01*
X48000000Y-46000000D02*
X55000000Y-46000000D01*
X170000000Y-90500000D02*
X160000000Y-102000000D01*
X11000000Y-101000000D02*
X0Y-90000000D01*
X11000000Y-49000000D02*
X2000000Y-41000000D01*
D11*
X2000000Y-41000000D02*
X-6000000Y-41000000D01*
D10*
X170000000Y-84000000D02*
X170000000Y-97000000D01*
X-5000000Y-97000000D02*
X-5000000Y-83000000D01*
D11*
X66000000Y-36000000D02*
X69000000Y-33000000D01*
X0Y-90000000D02*
X-8000000Y-90000000D01*
D10*
X69000000Y-33000000D02*
X160000000Y-34000000D01*
D11*
X-6000000Y-41000000D02*
X-6000000Y-35000000D01*
D10*
X160000000Y-34000000D02*
X170000000Y-43000000D01*
D11*
X-6000000Y-35000000D02*
X-6000000Y-41000000D01*
D10*
X33000000Y-54500000D02*
X18000000Y-47500000D01*
X-8000000Y-90000000D02*
X0Y-90000000D01*
D11*
X170000000Y-43000000D02*
X170000000Y-52000000D01*
D12*
%TO.C,L1*%
X102350000Y-51400000D03*
X112550000Y-34250000D03*
%TD*%
D13*
%TO.C,U2*%
X26900000Y-57800000D03*
X51100000Y-46200000D03*
%TD*%
D14*
%TO.C,J4*%
X165220000Y-94890000D03*
X165220000Y-84090000D03*
X170430000Y-94890000D03*
X170430000Y-84090000D03*
X175640000Y-94890000D03*
X175640000Y-84090000D03*
%TD*%
D15*
%TO.C,C1*%
X32500000Y-75000000D03*
X47500000Y-75000000D03*
%TD*%
D14*
%TO.C,J1*%
X380000Y-38610000D03*
X380000Y-49410000D03*
X-4830000Y-38610000D03*
X-4830000Y-49410000D03*
X-10040000Y-38610000D03*
X-10040000Y-49410000D03*
%TD*%
D16*
%TO.C,R3*%
X147050000Y-43200000D03*
D17*
X147050000Y-87200000D03*
%TD*%
D16*
%TO.C,R1*%
X67950000Y-79800000D03*
D17*
X67950000Y-35800000D03*
%TD*%
D14*
%TO.C,J3*%
X-10040000Y-71000000D03*
X-10040000Y-60200000D03*
X-4830000Y-71000000D03*
X-4830000Y-60200000D03*
X380000Y-71000000D03*
X380000Y-60200000D03*
%TD*%
D16*
%TO.C,R2*%
X123800000Y-77050000D03*
D17*
X79800000Y-77050000D03*
%TD*%
D18*
%TO.C,C4*%
X85000000Y-31750000D03*
X85000000Y-54250000D03*
%TD*%
%TO.C,C2*%
X128000000Y-62500000D03*
X128000000Y-47500000D03*
%TD*%
D14*
%TO.C,J5*%
X165220000Y-49410000D03*
X165220000Y-38610000D03*
X170430000Y-49410000D03*
X170430000Y-38610000D03*
X175640000Y-49410000D03*
X175640000Y-38610000D03*
%TD*%
D18*
%TO.C,C3*%
X14000000Y-49270000D03*
X14000000Y-71770000D03*
%TD*%
D19*
%TO.C,R4*%
X18030000Y-85920000D03*
D20*
X18030000Y-93540000D03*
%TD*%
D14*
%TO.C,J2*%
X380000Y-84330000D03*
X380000Y-95130000D03*
X-4830000Y-84330000D03*
X-4830000Y-95130000D03*
X-10040000Y-84330000D03*
X-10040000Y-95130000D03*
%TD*%
D21*
X-14990000Y-23690000D02*
X180590000Y-23690000D01*
X180590000Y-110050000D01*
X-14990000Y-110050000D01*
X-14990000Y-23690000D01*
X-3070000Y-28770000D02*
G75*
G03*
X-3070000Y-28770000I-4300000J0D01*
G01*
X174600000Y-104970000D02*
G75*
G03*
X174600000Y-104970000I-4300000J0D01*
G01*
X174600000Y-28770000D02*
G75*
G03*
X174600000Y-28770000I-4300000J0D01*
G01*
X-3070000Y-104970000D02*
G75*
G03*
X-3070000Y-104970000I-4300000J0D01*
G01*
M02*
