M48
; DRILL file {KiCad 7.0.7} date Mon Sep 25 16:49:48 2023
; FORMAT={-:-/ absolute / inch / decimal}
; #@! TF.CreationDate,2023-09-25T16:49:48+02:00
; #@! TF.GenerationSoftware,Kicad,Pcbnew,7.0.7
; #@! TF.FileFunction,Plated,1,4,PTH
FMAT,2
INCH
; #@! TA.AperFunction,Plated,PTH,ComponentDrill
T1C0.0276
; #@! TA.AperFunction,Plated,PTH,ComponentDrill
T2C0.0433
; #@! TA.AperFunction,Plated,PTH,ComponentDrill
T3C0.0472
; #@! TA.AperFunction,Plated,PTH,ComponentDrill
T4C0.1039
; #@! TA.AperFunction,Plated,PTH,ComponentDrill
T5C0.1575
; #@! TA.AperFunction,Plated,PTH,ComponentDrill
T6C0.1969
%
G90
G05
T1
X0.7098Y-3.3827
X0.7098Y-3.6827
T2
X1.2795Y-2.9528
X1.8701Y-2.9528
T3
X0.5512Y-1.9398
X0.5512Y-2.8256
X2.6752Y-1.4094
X2.6752Y-3.1417
X3.1417Y-3.0335
X3.3465Y-1.25
X3.3465Y-2.1358
X4.874Y-3.0335
X5.0394Y-1.8701
X5.0394Y-2.4606
X5.7894Y-1.7008
X5.7894Y-3.4331
T4
X-0.3953Y-1.5201
X-0.3953Y-1.9453
X-0.3953Y-2.3701
X-0.3953Y-2.7953
X-0.3953Y-3.3201
X-0.3953Y-3.7453
X-0.1902Y-1.5201
X-0.1902Y-1.9453
X-0.1902Y-2.3701
X-0.1902Y-2.7953
X-0.1902Y-3.3201
X-0.1902Y-3.7453
X0.015Y-1.5201
X0.015Y-1.9453
X0.015Y-2.3701
X0.015Y-2.7953
X0.015Y-3.3201
X0.015Y-3.7453
X6.5047Y-1.5201
X6.5047Y-1.9453
X6.5047Y-3.3106
X6.5047Y-3.7358
X6.7098Y-1.5201
X6.7098Y-1.9453
X6.7098Y-3.3106
X6.7098Y-3.7358
X6.915Y-1.5201
X6.915Y-1.9453
X6.915Y-3.3106
X6.915Y-3.7358
T5
G00X1.0591Y-2.1378
M15
G01X1.0591Y-2.4134
M16
G05
G00X2.0118Y-1.6811
M15
G01X2.0118Y-1.9567
M16
G05
T6
G00X4.0295Y-1.9646
M15
G01X4.0295Y-2.0827
M16
G05
G00X4.4311Y-1.2894
M15
G01X4.4311Y-1.4075
M16
G05
T0
M30
