M48
; DRILL file {KiCad 7.0.7} date Mon Oct 16 15:11:53 2023
; FORMAT={-:-/ absolute / metric / decimal}
; #@! TF.CreationDate,2023-10-16T15:11:53+02:00
; #@! TF.GenerationSoftware,Kicad,Pcbnew,7.0.7
; #@! TF.FileFunction,Plated,1,2,PTH
FMAT,2
METRIC
; #@! TA.AperFunction,Plated,PTH,ComponentDrill
T1C0.800
; #@! TA.AperFunction,Plated,PTH,ComponentDrill
T2C0.900
; #@! TA.AperFunction,Plated,PTH,ComponentDrill
T3C1.050
; #@! TA.AperFunction,Plated,PTH,ComponentDrill
T4C5.000
; #@! TA.AperFunction,Plated,PTH,ComponentDrill
T5C6.400
%
G90
G05
T1
X100.36Y-80.05
X100.36Y-85.05
X106.68Y-80.05
X106.68Y-85.05
X152.4Y-80.05
X152.4Y-85.05
X158.75Y-80.05
X158.75Y-85.05
X210.82Y-80.05
X210.82Y-85.05
T2
X192.61Y-80.01
X192.61Y-85.01
X201.93Y-80.01
X201.93Y-85.01
T3
X92.71Y-81.48
X92.71Y-106.48
X143.51Y-81.575
X143.51Y-106.575
T5
X45.72Y-58.42
X45.72Y-124.46
X101.6Y-58.42
X152.4Y-58.42
X219.71Y-58.42
X219.71Y-124.46
T4
G00X65.89Y-71.55
M15
G01X62.89Y-71.55
M16
G05
G00X64.41Y-107.48
M15
G01X67.41Y-107.48
M16
G05
G00X83.04Y-81.75
M15
G01X80.04Y-81.75
M16
G05
G00X81.56Y-117.68
M15
G01X84.56Y-117.68
M16
G05
G00X116.56Y-71.55
M15
G01X113.56Y-71.55
M16
G05
G00X115.21Y-107.48
M15
G01X118.21Y-107.48
M16
G05
G00X133.71Y-81.75
M15
G01X130.71Y-81.75
M16
G05
G00X132.36Y-117.68
M15
G01X135.36Y-117.68
M16
G05
G00X167.36Y-71.55
M15
G01X164.36Y-71.55
M16
G05
G00X167.28Y-107.48
M15
G01X170.28Y-107.48
M16
G05
G00X184.51Y-81.75
M15
G01X181.51Y-81.75
M16
G05
G00X184.43Y-117.68
M15
G01X187.43Y-117.68
M16
G05
T0
M30
