999
"DXF R12 Output" (www.mydxf.blogspot.com)
 0 
SECTION
 2 
HEADER
 9 
$ACADVER
 1 
AC1009
 9 
$EXTMIN
 10 
 0 
 20 
 0 
 9 
$EXTMAX
 10 
 8.5 
 20 
 11 
 0 
ENDSEC
 0 
SECTION
 2 
ENTITIES
0
LINE
8
Calque 1
10
105.058750
20
201.029374
11
102.375139
21
200.951772
0
LINE
8
Calque 1
10
102.375139
20
200.951772
11
99.733656
21
200.722009
0
LINE
8
Calque 1
10
99.733656
20
200.722009
11
97.143172
21
200.344655
0
LINE
8
Calque 1
10
97.143172
20
200.344655
11
94.612560
21
199.824275
0
LINE
8
Calque 1
10
94.612560
20
199.824275
11
92.150695
21
199.165439
0
LINE
8
Calque 1
10
92.150695
20
199.165439
11
89.766449
21
198.372714
0
LINE
8
Calque 1
10
89.766449
20
198.372714
11
87.468695
21
197.450666
0
LINE
8
Calque 1
10
87.468695
20
197.450666
11
85.266306
21
196.403865
0
LINE
8
Calque 1
10
85.266306
20
196.403865
11
83.168156
21
195.236877
0
LINE
8
Calque 1
10
83.168156
20
195.236877
11
81.183117
21
193.954269
0
LINE
8
Calque 1
10
81.183117
20
193.954269
11
79.320062
21
192.560611
0
LINE
8
Calque 1
10
79.320062
20
192.560611
11
77.587866
21
191.060469
0
LINE
8
Calque 1
10
77.587866
20
191.060469
11
75.995400
21
189.458410
0
LINE
8
Calque 1
10
75.995400
20
189.458410
11
74.551538
21
187.759003
0
LINE
8
Calque 1
10
74.551538
20
187.759003
11
73.265153
21
185.966816
0
LINE
8
Calque 1
10
73.265153
20
185.966816
11
72.145119
21
184.086415
0
LINE
8
Calque 1
10
72.145119
20
184.086415
11
71.211207
21
182.146619
0
LINE
8
Calque 1
10
71.211207
20
182.146619
11
70.475887
21
180.178579
0
LINE
8
Calque 1
10
70.475887
20
180.178579
11
69.937079
21
178.190357
0
LINE
8
Calque 1
10
69.937079
20
178.190357
11
69.592698
21
176.190018
0
LINE
8
Calque 1
10
69.592698
20
176.190018
11
69.440665
21
174.185624
0
LINE
8
Calque 1
10
69.440665
20
174.185624
11
69.478896
21
172.185240
0
LINE
8
Calque 1
10
69.478896
20
172.185240
11
69.705310
21
170.196928
0
LINE
8
Calque 1
10
69.705310
20
170.196928
11
70.117825
21
168.228753
0
LINE
8
Calque 1
10
70.117825
20
168.228753
11
70.714359
21
166.288777
0
LINE
8
Calque 1
10
70.714359
20
166.288777
11
71.492830
21
164.385065
0
LINE
8
Calque 1
10
71.492830
20
164.385065
11
72.451156
21
162.525679
0
LINE
8
Calque 1
10
72.451156
20
162.525679
11
73.587256
21
160.718684
0
LINE
8
Calque 1
10
73.587256
20
160.718684
11
74.899046
21
158.972142
0
LINE
8
Calque 1
10
74.899046
20
158.972142
11
76.384447
21
157.294118
0
LINE
8
Calque 1
10
76.384447
20
157.294118
11
78.041374
21
155.692675
0
LINE
8
Calque 1
10
78.041374
20
155.692675
11
79.867747
21
154.175875
0
LINE
8
Calque 1
10
79.867747
20
154.175875
11
81.836572
21
152.768823
0
LINE
8
Calque 1
10
81.836572
20
152.768823
11
83.915267
21
151.492312
0
LINE
8
Calque 1
10
83.915267
20
151.492312
11
86.093365
21
150.347948
0
LINE
8
Calque 1
10
86.093365
20
150.347948
11
88.360399
21
149.337334
0
LINE
8
Calque 1
10
88.360399
20
149.337334
11
90.705903
21
148.462073
0
LINE
8
Calque 1
10
90.705903
20
148.462073
11
93.119410
21
147.723771
0
LINE
8
Calque 1
10
93.119410
20
147.723771
11
98.108568
21
146.664456
0
LINE
8
Calque 1
10
98.108568
20
146.664456
11
103.244140
21
146.172220
0
LINE
8
Calque 1
10
103.244140
20
146.172220
11
108.442395
21
146.259894
0
LINE
8
Calque 1
10
108.442395
20
146.259894
11
111.038862
21
146.525207
0
LINE
8
Calque 1
10
111.038862
20
146.525207
11
113.619600
21
146.940310
0
LINE
8
Calque 1
10
113.619600
20
146.940310
11
116.174142
21
147.506806
0
LINE
8
Calque 1
10
116.174142
20
147.506806
11
118.692023
21
148.226299
0
LINE
8
Calque 1
10
118.692023
20
148.226299
11
121.132808
21
149.089183
0
LINE
8
Calque 1
10
121.132808
20
149.089183
11
123.459092
21
150.080225
0
LINE
8
Calque 1
10
123.459092
20
150.080225
11
125.664944
21
151.192588
0
LINE
8
Calque 1
10
125.664944
20
151.192588
11
127.744437
21
152.419436
0
LINE
8
Calque 1
10
127.744437
20
152.419436
11
129.691642
21
153.753935
0
LINE
8
Calque 1
10
129.691642
20
153.753935
11
131.500629
21
155.189247
0
LINE
8
Calque 1
10
131.500629
20
155.189247
11
133.165470
21
156.718537
0
LINE
8
Calque 1
10
133.165470
20
156.718537
11
134.680236
21
158.334969
0
LINE
8
Calque 1
10
134.680236
20
158.334969
11
136.038998
21
160.031708
0
LINE
8
Calque 1
10
136.038998
20
160.031708
11
137.235828
21
161.801916
0
LINE
8
Calque 1
10
137.235828
20
161.801916
11
138.264796
21
163.638759
0
LINE
8
Calque 1
10
138.264796
20
163.638759
11
139.119974
21
165.535400
0
LINE
8
Calque 1
10
139.119974
20
165.535400
11
139.795433
21
167.485004
0
LINE
8
Calque 1
10
139.795433
20
167.485004
11
140.285244
21
169.480734
0
LINE
8
Calque 1
10
140.285244
20
169.480734
11
140.583479
21
171.515755
0
LINE
8
Calque 1
10
140.583479
20
171.515755
11
140.684208
21
173.583230
0
LINE
8
Calque 1
10
140.684208
20
173.583230
11
140.509881
21
176.295944
0
LINE
8
Calque 1
10
140.509881
20
176.295944
11
139.993350
21
178.962711
0
LINE
8
Calque 1
10
139.993350
20
178.962711
11
139.144291
21
181.565533
0
LINE
8
Calque 1
10
139.144291
20
181.565533
11
137.972381
21
184.086415
0
LINE
8
Calque 1
10
137.972381
20
184.086415
11
136.487297
21
186.507357
0
LINE
8
Calque 1
10
136.487297
20
186.507357
11
134.698713
21
188.810365
0
LINE
8
Calque 1
10
134.698713
20
188.810365
11
132.616306
21
190.977439
0
LINE
8
Calque 1
10
132.616306
20
190.977439
11
130.249753
21
192.990585
0
LINE
8
Calque 1
10
130.249753
20
192.990585
11
127.636664
21
194.813796
0
LINE
8
Calque 1
10
127.636664
20
194.813796
11
124.823772
21
196.418099
0
LINE
8
Calque 1
10
124.823772
20
196.418099
11
121.834438
21
197.796039
0
LINE
8
Calque 1
10
121.834438
20
197.796039
11
118.692023
21
198.940161
0
LINE
8
Calque 1
10
118.692023
20
198.940161
11
115.419885
21
199.843010
0
LINE
8
Calque 1
10
115.419885
20
199.843010
11
112.041387
21
200.497131
0
LINE
8
Calque 1
10
112.041387
20
200.497131
11
108.579889
21
200.895071
0
LINE
8
Calque 1
10
108.579889
20
200.895071
11
105.058750
21
201.029374
0
LINE
8
Calque 1
10
105.058750
20
201.029374
11
105.058750
21
201.029374
 0 
ENDSEC
 0 
EOF