%TF.GenerationSoftware,KiCad,Pcbnew,7.0.7*%
%TF.CreationDate,2023-09-21T13:51:12+02:00*%
%TF.ProjectId,GradientAmplifierFilter_V1,47726164-6965-46e7-9441-6d706c696669,rev?*%
%TF.SameCoordinates,Original*%
%TF.FileFunction,Copper,L1,Top*%
%TF.FilePolarity,Positive*%
%FSLAX46Y46*%
G04 Gerber Fmt 4.6, Leading zero omitted, Abs format (unit mm)*
G04 Created by KiCad (PCBNEW 7.0.7) date 2023-09-21 13:51:12*
%MOMM*%
%LPD*%
G01*
G04 APERTURE LIST*
%TA.AperFunction,ComponentPad*%
%ADD10C,2.100000*%
%TD*%
%TA.AperFunction,ComponentPad*%
%ADD11C,3.300000*%
%TD*%
%TA.AperFunction,ComponentPad*%
%ADD12C,2.800000*%
%TD*%
%TA.AperFunction,ComponentPad*%
%ADD13C,3.960000*%
%TD*%
%TA.AperFunction,ComponentPad*%
%ADD14C,2.400000*%
%TD*%
%TA.AperFunction,ComponentPad*%
%ADD15O,2.400000X2.400000*%
%TD*%
%TA.AperFunction,ComponentPad*%
%ADD16R,3.150000X3.150000*%
%TD*%
%TA.AperFunction,ComponentPad*%
%ADD17C,3.150000*%
%TD*%
G04 APERTURE END LIST*
D10*
%TO.P,C1,5*%
%TO.N,N/C*%
X162560000Y-49870000D03*
%TO.P,C1,4*%
X182860000Y-49870000D03*
%TO.P,C1,3*%
X182860000Y-92370000D03*
%TO.P,C1,2*%
%TO.N,GradientOut-*%
X162560000Y-92370000D03*
D11*
%TO.P,C1,1*%
%TO.N,GradientOut+*%
X172710000Y-71120000D03*
%TD*%
D12*
%TO.P,C6,2*%
%TO.N,GradientOut-*%
X171900000Y-89896300D03*
%TO.P,C6,1*%
%TO.N,GradientOut+*%
X171900000Y-52396300D03*
%TD*%
D13*
%TO.P,J4,1,1*%
%TO.N,GradientOut-*%
X231140000Y-99140000D03*
%TO.P,J4,2,2*%
X231140000Y-88340000D03*
%TO.P,J4,3,3*%
X236350000Y-99140000D03*
%TO.P,J4,4,4*%
X236350000Y-88340000D03*
%TO.P,J4,5,5*%
X241560000Y-99140000D03*
%TO.P,J4,6,6*%
X241560000Y-88340000D03*
%TD*%
%TO.P,J1,1,1*%
%TO.N,GradientIn+*%
X50930000Y-42860000D03*
%TO.P,J1,2,2*%
X50930000Y-53660000D03*
%TO.P,J1,3,3*%
X45720000Y-42860000D03*
%TO.P,J1,4,4*%
X45720000Y-53660000D03*
%TO.P,J1,5,5*%
X40510000Y-42860000D03*
%TO.P,J1,6,6*%
X40510000Y-53660000D03*
%TD*%
D14*
%TO.P,R3,1*%
%TO.N,Earth*%
X220980000Y-70080000D03*
D15*
%TO.P,R3,2*%
%TO.N,GradientOut-*%
X220980000Y-92480000D03*
%TD*%
D13*
%TO.P,J3,1,1*%
%TO.N,Earth*%
X40510000Y-76520000D03*
%TO.P,J3,2,2*%
X40510000Y-65720000D03*
%TO.P,J3,3,3*%
X45720000Y-76520000D03*
%TO.P,J3,4,4*%
X45720000Y-65720000D03*
%TO.P,J3,5,5*%
X50930000Y-76520000D03*
%TO.P,J3,6,6*%
X50930000Y-65720000D03*
%TD*%
D14*
%TO.P,C2,1*%
%TO.N,GradientIn-*%
X59690000Y-95070000D03*
%TO.P,C2,2*%
%TO.N,Earth*%
X59690000Y-72570000D03*
%TD*%
%TO.P,C4,1*%
%TO.N,GradientOut+*%
X210820000Y-44630000D03*
%TO.P,C4,2*%
%TO.N,Earth*%
X210820000Y-67130000D03*
%TD*%
D16*
%TO.P,FL1,1,N1_1*%
%TO.N,GradientIn+*%
X117230000Y-65120000D03*
D17*
%TO.P,FL1,2,N1_2*%
%TO.N,GradientIn-*%
X117230000Y-77120000D03*
%TO.P,FL1,3,N2_1*%
%TO.N,GradientOut-*%
X134230000Y-77120000D03*
%TO.P,FL1,4,N2_2*%
%TO.N,GradientOut+*%
X134230000Y-65120000D03*
%TD*%
D13*
%TO.P,J5,1,1*%
%TO.N,GradientOut+*%
X231140000Y-53660000D03*
%TO.P,J5,2,2*%
X231140000Y-42860000D03*
%TO.P,J5,3,3*%
X236350000Y-53660000D03*
%TO.P,J5,4,4*%
X236350000Y-42860000D03*
%TO.P,J5,5,5*%
X241560000Y-53660000D03*
%TO.P,J5,6,6*%
X241560000Y-42860000D03*
%TD*%
D14*
%TO.P,C3,1*%
%TO.N,GradientIn+*%
X59690000Y-44630000D03*
%TO.P,C3,2*%
%TO.N,Earth*%
X59690000Y-67130000D03*
%TD*%
%TO.P,C5,1*%
%TO.N,GradientOut-*%
X210820000Y-95070000D03*
%TO.P,C5,2*%
%TO.N,Earth*%
X210820000Y-72570000D03*
%TD*%
D12*
%TO.P,C7,1*%
%TO.N,GradientIn+*%
X88080000Y-52396300D03*
%TO.P,C7,2*%
%TO.N,GradientIn-*%
X88080000Y-89896300D03*
%TD*%
D15*
%TO.P,R2,2*%
%TO.N,Earth*%
X220980000Y-64540000D03*
D14*
%TO.P,R2,1*%
%TO.N,GradientOut+*%
X220980000Y-42140000D03*
%TD*%
D13*
%TO.P,J2,1,1*%
%TO.N,GradientIn-*%
X50930000Y-88580000D03*
%TO.P,J2,2,2*%
X50930000Y-99380000D03*
%TO.P,J2,3,3*%
X45720000Y-88580000D03*
%TO.P,J2,4,4*%
X45720000Y-99380000D03*
%TO.P,J2,5,5*%
X40510000Y-88580000D03*
%TO.P,J2,6,6*%
X40510000Y-99380000D03*
%TD*%
M02*
