%TF.GenerationSoftware,KiCad,Pcbnew,7.0.7*%
%TF.CreationDate,2023-09-21T13:51:13+02:00*%
%TF.ProjectId,GradientAmplifierFilter_V1,47726164-6965-46e7-9441-6d706c696669,rev?*%
%TF.SameCoordinates,Original*%
%TF.FileFunction,Legend,Top*%
%TF.FilePolarity,Positive*%
%FSLAX46Y46*%
G04 Gerber Fmt 4.6, Leading zero omitted, Abs format (unit mm)*
G04 Created by KiCad (PCBNEW 7.0.7) date 2023-09-21 13:51:13*
%MOMM*%
%LPD*%
G01*
G04 APERTURE LIST*
%ADD10C,0.150000*%
%ADD11C,0.400000*%
%ADD12C,0.254000*%
%ADD13C,0.100000*%
%ADD14C,0.300000*%
%ADD15C,0.200000*%
%ADD16C,0.120000*%
G04 APERTURE END LIST*
D10*
X71313922Y-33749819D02*
X71885350Y-33749819D01*
X71599636Y-34749819D02*
X71599636Y-33749819D01*
X72361541Y-34749819D02*
X72266303Y-34702200D01*
X72266303Y-34702200D02*
X72218684Y-34654580D01*
X72218684Y-34654580D02*
X72171065Y-34559342D01*
X72171065Y-34559342D02*
X72171065Y-34273628D01*
X72171065Y-34273628D02*
X72218684Y-34178390D01*
X72218684Y-34178390D02*
X72266303Y-34130771D01*
X72266303Y-34130771D02*
X72361541Y-34083152D01*
X72361541Y-34083152D02*
X72504398Y-34083152D01*
X72504398Y-34083152D02*
X72599636Y-34130771D01*
X72599636Y-34130771D02*
X72647255Y-34178390D01*
X72647255Y-34178390D02*
X72694874Y-34273628D01*
X72694874Y-34273628D02*
X72694874Y-34559342D01*
X72694874Y-34559342D02*
X72647255Y-34654580D01*
X72647255Y-34654580D02*
X72599636Y-34702200D01*
X72599636Y-34702200D02*
X72504398Y-34749819D01*
X72504398Y-34749819D02*
X72361541Y-34749819D01*
X73885351Y-34749819D02*
X73885351Y-33749819D01*
X73885351Y-34130771D02*
X73980589Y-34083152D01*
X73980589Y-34083152D02*
X74171065Y-34083152D01*
X74171065Y-34083152D02*
X74266303Y-34130771D01*
X74266303Y-34130771D02*
X74313922Y-34178390D01*
X74313922Y-34178390D02*
X74361541Y-34273628D01*
X74361541Y-34273628D02*
X74361541Y-34559342D01*
X74361541Y-34559342D02*
X74313922Y-34654580D01*
X74313922Y-34654580D02*
X74266303Y-34702200D01*
X74266303Y-34702200D02*
X74171065Y-34749819D01*
X74171065Y-34749819D02*
X73980589Y-34749819D01*
X73980589Y-34749819D02*
X73885351Y-34702200D01*
X75171065Y-34702200D02*
X75075827Y-34749819D01*
X75075827Y-34749819D02*
X74885351Y-34749819D01*
X74885351Y-34749819D02*
X74790113Y-34702200D01*
X74790113Y-34702200D02*
X74742494Y-34606961D01*
X74742494Y-34606961D02*
X74742494Y-34226009D01*
X74742494Y-34226009D02*
X74790113Y-34130771D01*
X74790113Y-34130771D02*
X74885351Y-34083152D01*
X74885351Y-34083152D02*
X75075827Y-34083152D01*
X75075827Y-34083152D02*
X75171065Y-34130771D01*
X75171065Y-34130771D02*
X75218684Y-34226009D01*
X75218684Y-34226009D02*
X75218684Y-34321247D01*
X75218684Y-34321247D02*
X74742494Y-34416485D01*
X76837732Y-34083152D02*
X76837732Y-34749819D01*
X76409161Y-34083152D02*
X76409161Y-34606961D01*
X76409161Y-34606961D02*
X76456780Y-34702200D01*
X76456780Y-34702200D02*
X76552018Y-34749819D01*
X76552018Y-34749819D02*
X76694875Y-34749819D01*
X76694875Y-34749819D02*
X76790113Y-34702200D01*
X76790113Y-34702200D02*
X76837732Y-34654580D01*
X77266304Y-34702200D02*
X77361542Y-34749819D01*
X77361542Y-34749819D02*
X77552018Y-34749819D01*
X77552018Y-34749819D02*
X77647256Y-34702200D01*
X77647256Y-34702200D02*
X77694875Y-34606961D01*
X77694875Y-34606961D02*
X77694875Y-34559342D01*
X77694875Y-34559342D02*
X77647256Y-34464104D01*
X77647256Y-34464104D02*
X77552018Y-34416485D01*
X77552018Y-34416485D02*
X77409161Y-34416485D01*
X77409161Y-34416485D02*
X77313923Y-34368866D01*
X77313923Y-34368866D02*
X77266304Y-34273628D01*
X77266304Y-34273628D02*
X77266304Y-34226009D01*
X77266304Y-34226009D02*
X77313923Y-34130771D01*
X77313923Y-34130771D02*
X77409161Y-34083152D01*
X77409161Y-34083152D02*
X77552018Y-34083152D01*
X77552018Y-34083152D02*
X77647256Y-34130771D01*
X78504399Y-34702200D02*
X78409161Y-34749819D01*
X78409161Y-34749819D02*
X78218685Y-34749819D01*
X78218685Y-34749819D02*
X78123447Y-34702200D01*
X78123447Y-34702200D02*
X78075828Y-34606961D01*
X78075828Y-34606961D02*
X78075828Y-34226009D01*
X78075828Y-34226009D02*
X78123447Y-34130771D01*
X78123447Y-34130771D02*
X78218685Y-34083152D01*
X78218685Y-34083152D02*
X78409161Y-34083152D01*
X78409161Y-34083152D02*
X78504399Y-34130771D01*
X78504399Y-34130771D02*
X78552018Y-34226009D01*
X78552018Y-34226009D02*
X78552018Y-34321247D01*
X78552018Y-34321247D02*
X78075828Y-34416485D01*
X79409161Y-34749819D02*
X79409161Y-33749819D01*
X79409161Y-34702200D02*
X79313923Y-34749819D01*
X79313923Y-34749819D02*
X79123447Y-34749819D01*
X79123447Y-34749819D02*
X79028209Y-34702200D01*
X79028209Y-34702200D02*
X78980590Y-34654580D01*
X78980590Y-34654580D02*
X78932971Y-34559342D01*
X78932971Y-34559342D02*
X78932971Y-34273628D01*
X78932971Y-34273628D02*
X78980590Y-34178390D01*
X78980590Y-34178390D02*
X79028209Y-34130771D01*
X79028209Y-34130771D02*
X79123447Y-34083152D01*
X79123447Y-34083152D02*
X79313923Y-34083152D01*
X79313923Y-34083152D02*
X79409161Y-34130771D01*
X80790114Y-34749819D02*
X80694876Y-34702200D01*
X80694876Y-34702200D02*
X80647257Y-34654580D01*
X80647257Y-34654580D02*
X80599638Y-34559342D01*
X80599638Y-34559342D02*
X80599638Y-34273628D01*
X80599638Y-34273628D02*
X80647257Y-34178390D01*
X80647257Y-34178390D02*
X80694876Y-34130771D01*
X80694876Y-34130771D02*
X80790114Y-34083152D01*
X80790114Y-34083152D02*
X80932971Y-34083152D01*
X80932971Y-34083152D02*
X81028209Y-34130771D01*
X81028209Y-34130771D02*
X81075828Y-34178390D01*
X81075828Y-34178390D02*
X81123447Y-34273628D01*
X81123447Y-34273628D02*
X81123447Y-34559342D01*
X81123447Y-34559342D02*
X81075828Y-34654580D01*
X81075828Y-34654580D02*
X81028209Y-34702200D01*
X81028209Y-34702200D02*
X80932971Y-34749819D01*
X80932971Y-34749819D02*
X80790114Y-34749819D01*
X81552019Y-34083152D02*
X81552019Y-34749819D01*
X81552019Y-34178390D02*
X81599638Y-34130771D01*
X81599638Y-34130771D02*
X81694876Y-34083152D01*
X81694876Y-34083152D02*
X81837733Y-34083152D01*
X81837733Y-34083152D02*
X81932971Y-34130771D01*
X81932971Y-34130771D02*
X81980590Y-34226009D01*
X81980590Y-34226009D02*
X81980590Y-34749819D01*
X83218686Y-34749819D02*
X83218686Y-33749819D01*
X83694876Y-34226009D02*
X84028209Y-34226009D01*
X84171066Y-34749819D02*
X83694876Y-34749819D01*
X83694876Y-34749819D02*
X83694876Y-33749819D01*
X83694876Y-33749819D02*
X84171066Y-33749819D01*
X85171066Y-34654580D02*
X85123447Y-34702200D01*
X85123447Y-34702200D02*
X84980590Y-34749819D01*
X84980590Y-34749819D02*
X84885352Y-34749819D01*
X84885352Y-34749819D02*
X84742495Y-34702200D01*
X84742495Y-34702200D02*
X84647257Y-34606961D01*
X84647257Y-34606961D02*
X84599638Y-34511723D01*
X84599638Y-34511723D02*
X84552019Y-34321247D01*
X84552019Y-34321247D02*
X84552019Y-34178390D01*
X84552019Y-34178390D02*
X84599638Y-33987914D01*
X84599638Y-33987914D02*
X84647257Y-33892676D01*
X84647257Y-33892676D02*
X84742495Y-33797438D01*
X84742495Y-33797438D02*
X84885352Y-33749819D01*
X84885352Y-33749819D02*
X84980590Y-33749819D01*
X84980590Y-33749819D02*
X85123447Y-33797438D01*
X85123447Y-33797438D02*
X85171066Y-33845057D01*
X85790114Y-33749819D02*
X85980590Y-33749819D01*
X85980590Y-33749819D02*
X86075828Y-33797438D01*
X86075828Y-33797438D02*
X86171066Y-33892676D01*
X86171066Y-33892676D02*
X86218685Y-34083152D01*
X86218685Y-34083152D02*
X86218685Y-34416485D01*
X86218685Y-34416485D02*
X86171066Y-34606961D01*
X86171066Y-34606961D02*
X86075828Y-34702200D01*
X86075828Y-34702200D02*
X85980590Y-34749819D01*
X85980590Y-34749819D02*
X85790114Y-34749819D01*
X85790114Y-34749819D02*
X85694876Y-34702200D01*
X85694876Y-34702200D02*
X85599638Y-34606961D01*
X85599638Y-34606961D02*
X85552019Y-34416485D01*
X85552019Y-34416485D02*
X85552019Y-34083152D01*
X85552019Y-34083152D02*
X85599638Y-33892676D01*
X85599638Y-33892676D02*
X85694876Y-33797438D01*
X85694876Y-33797438D02*
X85790114Y-33749819D01*
X87313924Y-33749819D02*
X87980590Y-34749819D01*
X87980590Y-33749819D02*
X87313924Y-34749819D01*
X88361543Y-34749819D02*
X88361543Y-33749819D01*
X88361543Y-33749819D02*
X88742495Y-33749819D01*
X88742495Y-33749819D02*
X88837733Y-33797438D01*
X88837733Y-33797438D02*
X88885352Y-33845057D01*
X88885352Y-33845057D02*
X88932971Y-33940295D01*
X88932971Y-33940295D02*
X88932971Y-34083152D01*
X88932971Y-34083152D02*
X88885352Y-34178390D01*
X88885352Y-34178390D02*
X88837733Y-34226009D01*
X88837733Y-34226009D02*
X88742495Y-34273628D01*
X88742495Y-34273628D02*
X88361543Y-34273628D01*
X89313924Y-34464104D02*
X89790114Y-34464104D01*
X89218686Y-34749819D02*
X89552019Y-33749819D01*
X89552019Y-33749819D02*
X89885352Y-34749819D01*
X91504400Y-34749819D02*
X90932972Y-34749819D01*
X91218686Y-34749819D02*
X91218686Y-33749819D01*
X91218686Y-33749819D02*
X91123448Y-33892676D01*
X91123448Y-33892676D02*
X91028210Y-33987914D01*
X91028210Y-33987914D02*
X90932972Y-34035533D01*
X91837734Y-33749819D02*
X92504400Y-33749819D01*
X92504400Y-33749819D02*
X92075829Y-34749819D01*
X93361543Y-33749819D02*
X92885353Y-33749819D01*
X92885353Y-33749819D02*
X92837734Y-34226009D01*
X92837734Y-34226009D02*
X92885353Y-34178390D01*
X92885353Y-34178390D02*
X92980591Y-34130771D01*
X92980591Y-34130771D02*
X93218686Y-34130771D01*
X93218686Y-34130771D02*
X93313924Y-34178390D01*
X93313924Y-34178390D02*
X93361543Y-34226009D01*
X93361543Y-34226009D02*
X93409162Y-34321247D01*
X93409162Y-34321247D02*
X93409162Y-34559342D01*
X93409162Y-34559342D02*
X93361543Y-34654580D01*
X93361543Y-34654580D02*
X93313924Y-34702200D01*
X93313924Y-34702200D02*
X93218686Y-34749819D01*
X93218686Y-34749819D02*
X92980591Y-34749819D01*
X92980591Y-34749819D02*
X92885353Y-34702200D01*
X92885353Y-34702200D02*
X92837734Y-34654580D01*
X93837734Y-34368866D02*
X94599639Y-34368866D01*
X94980591Y-33749819D02*
X95599638Y-33749819D01*
X95599638Y-33749819D02*
X95266305Y-34130771D01*
X95266305Y-34130771D02*
X95409162Y-34130771D01*
X95409162Y-34130771D02*
X95504400Y-34178390D01*
X95504400Y-34178390D02*
X95552019Y-34226009D01*
X95552019Y-34226009D02*
X95599638Y-34321247D01*
X95599638Y-34321247D02*
X95599638Y-34559342D01*
X95599638Y-34559342D02*
X95552019Y-34654580D01*
X95552019Y-34654580D02*
X95504400Y-34702200D01*
X95504400Y-34702200D02*
X95409162Y-34749819D01*
X95409162Y-34749819D02*
X95123448Y-34749819D01*
X95123448Y-34749819D02*
X95028210Y-34702200D01*
X95028210Y-34702200D02*
X94980591Y-34654580D01*
X96504400Y-33749819D02*
X96028210Y-33749819D01*
X96028210Y-33749819D02*
X95980591Y-34226009D01*
X95980591Y-34226009D02*
X96028210Y-34178390D01*
X96028210Y-34178390D02*
X96123448Y-34130771D01*
X96123448Y-34130771D02*
X96361543Y-34130771D01*
X96361543Y-34130771D02*
X96456781Y-34178390D01*
X96456781Y-34178390D02*
X96504400Y-34226009D01*
X96504400Y-34226009D02*
X96552019Y-34321247D01*
X96552019Y-34321247D02*
X96552019Y-34559342D01*
X96552019Y-34559342D02*
X96504400Y-34654580D01*
X96504400Y-34654580D02*
X96456781Y-34702200D01*
X96456781Y-34702200D02*
X96361543Y-34749819D01*
X96361543Y-34749819D02*
X96123448Y-34749819D01*
X96123448Y-34749819D02*
X96028210Y-34702200D01*
X96028210Y-34702200D02*
X95980591Y-34654580D01*
X97171067Y-33749819D02*
X97266305Y-33749819D01*
X97266305Y-33749819D02*
X97361543Y-33797438D01*
X97361543Y-33797438D02*
X97409162Y-33845057D01*
X97409162Y-33845057D02*
X97456781Y-33940295D01*
X97456781Y-33940295D02*
X97504400Y-34130771D01*
X97504400Y-34130771D02*
X97504400Y-34368866D01*
X97504400Y-34368866D02*
X97456781Y-34559342D01*
X97456781Y-34559342D02*
X97409162Y-34654580D01*
X97409162Y-34654580D02*
X97361543Y-34702200D01*
X97361543Y-34702200D02*
X97266305Y-34749819D01*
X97266305Y-34749819D02*
X97171067Y-34749819D01*
X97171067Y-34749819D02*
X97075829Y-34702200D01*
X97075829Y-34702200D02*
X97028210Y-34654580D01*
X97028210Y-34654580D02*
X96980591Y-34559342D01*
X96980591Y-34559342D02*
X96932972Y-34368866D01*
X96932972Y-34368866D02*
X96932972Y-34130771D01*
X96932972Y-34130771D02*
X96980591Y-33940295D01*
X96980591Y-33940295D02*
X97028210Y-33845057D01*
X97028210Y-33845057D02*
X97075829Y-33797438D01*
X97075829Y-33797438D02*
X97171067Y-33749819D01*
X72028207Y-36359819D02*
X71694874Y-35883628D01*
X71456779Y-36359819D02*
X71456779Y-35359819D01*
X71456779Y-35359819D02*
X71837731Y-35359819D01*
X71837731Y-35359819D02*
X71932969Y-35407438D01*
X71932969Y-35407438D02*
X71980588Y-35455057D01*
X71980588Y-35455057D02*
X72028207Y-35550295D01*
X72028207Y-35550295D02*
X72028207Y-35693152D01*
X72028207Y-35693152D02*
X71980588Y-35788390D01*
X71980588Y-35788390D02*
X71932969Y-35836009D01*
X71932969Y-35836009D02*
X71837731Y-35883628D01*
X71837731Y-35883628D02*
X71456779Y-35883628D01*
X72885350Y-36359819D02*
X72885350Y-35836009D01*
X72885350Y-35836009D02*
X72837731Y-35740771D01*
X72837731Y-35740771D02*
X72742493Y-35693152D01*
X72742493Y-35693152D02*
X72552017Y-35693152D01*
X72552017Y-35693152D02*
X72456779Y-35740771D01*
X72885350Y-36312200D02*
X72790112Y-36359819D01*
X72790112Y-36359819D02*
X72552017Y-36359819D01*
X72552017Y-36359819D02*
X72456779Y-36312200D01*
X72456779Y-36312200D02*
X72409160Y-36216961D01*
X72409160Y-36216961D02*
X72409160Y-36121723D01*
X72409160Y-36121723D02*
X72456779Y-36026485D01*
X72456779Y-36026485D02*
X72552017Y-35978866D01*
X72552017Y-35978866D02*
X72790112Y-35978866D01*
X72790112Y-35978866D02*
X72885350Y-35931247D01*
X73218684Y-35693152D02*
X73599636Y-35693152D01*
X73361541Y-35359819D02*
X73361541Y-36216961D01*
X73361541Y-36216961D02*
X73409160Y-36312200D01*
X73409160Y-36312200D02*
X73504398Y-36359819D01*
X73504398Y-36359819D02*
X73599636Y-36359819D01*
X73932970Y-36359819D02*
X73932970Y-35693152D01*
X73932970Y-35359819D02*
X73885351Y-35407438D01*
X73885351Y-35407438D02*
X73932970Y-35455057D01*
X73932970Y-35455057D02*
X73980589Y-35407438D01*
X73980589Y-35407438D02*
X73932970Y-35359819D01*
X73932970Y-35359819D02*
X73932970Y-35455057D01*
X74409160Y-35693152D02*
X74409160Y-36359819D01*
X74409160Y-35788390D02*
X74456779Y-35740771D01*
X74456779Y-35740771D02*
X74552017Y-35693152D01*
X74552017Y-35693152D02*
X74694874Y-35693152D01*
X74694874Y-35693152D02*
X74790112Y-35740771D01*
X74790112Y-35740771D02*
X74837731Y-35836009D01*
X74837731Y-35836009D02*
X74837731Y-36359819D01*
X75742493Y-35693152D02*
X75742493Y-36502676D01*
X75742493Y-36502676D02*
X75694874Y-36597914D01*
X75694874Y-36597914D02*
X75647255Y-36645533D01*
X75647255Y-36645533D02*
X75552017Y-36693152D01*
X75552017Y-36693152D02*
X75409160Y-36693152D01*
X75409160Y-36693152D02*
X75313922Y-36645533D01*
X75742493Y-36312200D02*
X75647255Y-36359819D01*
X75647255Y-36359819D02*
X75456779Y-36359819D01*
X75456779Y-36359819D02*
X75361541Y-36312200D01*
X75361541Y-36312200D02*
X75313922Y-36264580D01*
X75313922Y-36264580D02*
X75266303Y-36169342D01*
X75266303Y-36169342D02*
X75266303Y-35883628D01*
X75266303Y-35883628D02*
X75313922Y-35788390D01*
X75313922Y-35788390D02*
X75361541Y-35740771D01*
X75361541Y-35740771D02*
X75456779Y-35693152D01*
X75456779Y-35693152D02*
X75647255Y-35693152D01*
X75647255Y-35693152D02*
X75742493Y-35740771D01*
X76171065Y-36312200D02*
X76266303Y-36359819D01*
X76266303Y-36359819D02*
X76456779Y-36359819D01*
X76456779Y-36359819D02*
X76552017Y-36312200D01*
X76552017Y-36312200D02*
X76599636Y-36216961D01*
X76599636Y-36216961D02*
X76599636Y-36169342D01*
X76599636Y-36169342D02*
X76552017Y-36074104D01*
X76552017Y-36074104D02*
X76456779Y-36026485D01*
X76456779Y-36026485D02*
X76313922Y-36026485D01*
X76313922Y-36026485D02*
X76218684Y-35978866D01*
X76218684Y-35978866D02*
X76171065Y-35883628D01*
X76171065Y-35883628D02*
X76171065Y-35836009D01*
X76171065Y-35836009D02*
X76218684Y-35740771D01*
X76218684Y-35740771D02*
X76313922Y-35693152D01*
X76313922Y-35693152D02*
X76456779Y-35693152D01*
X76456779Y-35693152D02*
X76552017Y-35740771D01*
X77028208Y-36264580D02*
X77075827Y-36312200D01*
X77075827Y-36312200D02*
X77028208Y-36359819D01*
X77028208Y-36359819D02*
X76980589Y-36312200D01*
X76980589Y-36312200D02*
X77028208Y-36264580D01*
X77028208Y-36264580D02*
X77028208Y-36359819D01*
X77028208Y-35740771D02*
X77075827Y-35788390D01*
X77075827Y-35788390D02*
X77028208Y-35836009D01*
X77028208Y-35836009D02*
X76980589Y-35788390D01*
X76980589Y-35788390D02*
X77028208Y-35740771D01*
X77028208Y-35740771D02*
X77028208Y-35836009D01*
X78266303Y-35978866D02*
X79028208Y-35978866D01*
X80028207Y-36359819D02*
X79456779Y-36359819D01*
X79742493Y-36359819D02*
X79742493Y-35359819D01*
X79742493Y-35359819D02*
X79647255Y-35502676D01*
X79647255Y-35502676D02*
X79552017Y-35597914D01*
X79552017Y-35597914D02*
X79456779Y-35645533D01*
X80504398Y-36312200D02*
X80504398Y-36359819D01*
X80504398Y-36359819D02*
X80456779Y-36455057D01*
X80456779Y-36455057D02*
X80409160Y-36502676D01*
X81123445Y-35359819D02*
X81218683Y-35359819D01*
X81218683Y-35359819D02*
X81313921Y-35407438D01*
X81313921Y-35407438D02*
X81361540Y-35455057D01*
X81361540Y-35455057D02*
X81409159Y-35550295D01*
X81409159Y-35550295D02*
X81456778Y-35740771D01*
X81456778Y-35740771D02*
X81456778Y-35978866D01*
X81456778Y-35978866D02*
X81409159Y-36169342D01*
X81409159Y-36169342D02*
X81361540Y-36264580D01*
X81361540Y-36264580D02*
X81313921Y-36312200D01*
X81313921Y-36312200D02*
X81218683Y-36359819D01*
X81218683Y-36359819D02*
X81123445Y-36359819D01*
X81123445Y-36359819D02*
X81028207Y-36312200D01*
X81028207Y-36312200D02*
X80980588Y-36264580D01*
X80980588Y-36264580D02*
X80932969Y-36169342D01*
X80932969Y-36169342D02*
X80885350Y-35978866D01*
X80885350Y-35978866D02*
X80885350Y-35740771D01*
X80885350Y-35740771D02*
X80932969Y-35550295D01*
X80932969Y-35550295D02*
X80980588Y-35455057D01*
X80980588Y-35455057D02*
X81028207Y-35407438D01*
X81028207Y-35407438D02*
X81123445Y-35359819D01*
X82075826Y-35359819D02*
X82171064Y-35359819D01*
X82171064Y-35359819D02*
X82266302Y-35407438D01*
X82266302Y-35407438D02*
X82313921Y-35455057D01*
X82313921Y-35455057D02*
X82361540Y-35550295D01*
X82361540Y-35550295D02*
X82409159Y-35740771D01*
X82409159Y-35740771D02*
X82409159Y-35978866D01*
X82409159Y-35978866D02*
X82361540Y-36169342D01*
X82361540Y-36169342D02*
X82313921Y-36264580D01*
X82313921Y-36264580D02*
X82266302Y-36312200D01*
X82266302Y-36312200D02*
X82171064Y-36359819D01*
X82171064Y-36359819D02*
X82075826Y-36359819D01*
X82075826Y-36359819D02*
X81980588Y-36312200D01*
X81980588Y-36312200D02*
X81932969Y-36264580D01*
X81932969Y-36264580D02*
X81885350Y-36169342D01*
X81885350Y-36169342D02*
X81837731Y-35978866D01*
X81837731Y-35978866D02*
X81837731Y-35740771D01*
X81837731Y-35740771D02*
X81885350Y-35550295D01*
X81885350Y-35550295D02*
X81932969Y-35455057D01*
X81932969Y-35455057D02*
X81980588Y-35407438D01*
X81980588Y-35407438D02*
X82075826Y-35359819D01*
X83028207Y-35359819D02*
X83123445Y-35359819D01*
X83123445Y-35359819D02*
X83218683Y-35407438D01*
X83218683Y-35407438D02*
X83266302Y-35455057D01*
X83266302Y-35455057D02*
X83313921Y-35550295D01*
X83313921Y-35550295D02*
X83361540Y-35740771D01*
X83361540Y-35740771D02*
X83361540Y-35978866D01*
X83361540Y-35978866D02*
X83313921Y-36169342D01*
X83313921Y-36169342D02*
X83266302Y-36264580D01*
X83266302Y-36264580D02*
X83218683Y-36312200D01*
X83218683Y-36312200D02*
X83123445Y-36359819D01*
X83123445Y-36359819D02*
X83028207Y-36359819D01*
X83028207Y-36359819D02*
X82932969Y-36312200D01*
X82932969Y-36312200D02*
X82885350Y-36264580D01*
X82885350Y-36264580D02*
X82837731Y-36169342D01*
X82837731Y-36169342D02*
X82790112Y-35978866D01*
X82790112Y-35978866D02*
X82790112Y-35740771D01*
X82790112Y-35740771D02*
X82837731Y-35550295D01*
X82837731Y-35550295D02*
X82885350Y-35455057D01*
X82885350Y-35455057D02*
X82932969Y-35407438D01*
X82932969Y-35407438D02*
X83028207Y-35359819D01*
X84409160Y-35359819D02*
X84742493Y-36359819D01*
X84742493Y-36359819D02*
X85075826Y-35359819D01*
X86123446Y-36074104D02*
X86599636Y-36074104D01*
X86028208Y-36359819D02*
X86361541Y-35359819D01*
X86361541Y-35359819D02*
X86694874Y-36359819D01*
X87599636Y-36264580D02*
X87552017Y-36312200D01*
X87552017Y-36312200D02*
X87409160Y-36359819D01*
X87409160Y-36359819D02*
X87313922Y-36359819D01*
X87313922Y-36359819D02*
X87171065Y-36312200D01*
X87171065Y-36312200D02*
X87075827Y-36216961D01*
X87075827Y-36216961D02*
X87028208Y-36121723D01*
X87028208Y-36121723D02*
X86980589Y-35931247D01*
X86980589Y-35931247D02*
X86980589Y-35788390D01*
X86980589Y-35788390D02*
X87028208Y-35597914D01*
X87028208Y-35597914D02*
X87075827Y-35502676D01*
X87075827Y-35502676D02*
X87171065Y-35407438D01*
X87171065Y-35407438D02*
X87313922Y-35359819D01*
X87313922Y-35359819D02*
X87409160Y-35359819D01*
X87409160Y-35359819D02*
X87552017Y-35407438D01*
X87552017Y-35407438D02*
X87599636Y-35455057D01*
X88742493Y-35312200D02*
X87885351Y-36597914D01*
X89075827Y-36359819D02*
X89075827Y-35359819D01*
X89075827Y-35359819D02*
X89313922Y-35359819D01*
X89313922Y-35359819D02*
X89456779Y-35407438D01*
X89456779Y-35407438D02*
X89552017Y-35502676D01*
X89552017Y-35502676D02*
X89599636Y-35597914D01*
X89599636Y-35597914D02*
X89647255Y-35788390D01*
X89647255Y-35788390D02*
X89647255Y-35931247D01*
X89647255Y-35931247D02*
X89599636Y-36121723D01*
X89599636Y-36121723D02*
X89552017Y-36216961D01*
X89552017Y-36216961D02*
X89456779Y-36312200D01*
X89456779Y-36312200D02*
X89313922Y-36359819D01*
X89313922Y-36359819D02*
X89075827Y-36359819D01*
X90647255Y-36264580D02*
X90599636Y-36312200D01*
X90599636Y-36312200D02*
X90456779Y-36359819D01*
X90456779Y-36359819D02*
X90361541Y-36359819D01*
X90361541Y-36359819D02*
X90218684Y-36312200D01*
X90218684Y-36312200D02*
X90123446Y-36216961D01*
X90123446Y-36216961D02*
X90075827Y-36121723D01*
X90075827Y-36121723D02*
X90028208Y-35931247D01*
X90028208Y-35931247D02*
X90028208Y-35788390D01*
X90028208Y-35788390D02*
X90075827Y-35597914D01*
X90075827Y-35597914D02*
X90123446Y-35502676D01*
X90123446Y-35502676D02*
X90218684Y-35407438D01*
X90218684Y-35407438D02*
X90361541Y-35359819D01*
X90361541Y-35359819D02*
X90456779Y-35359819D01*
X90456779Y-35359819D02*
X90599636Y-35407438D01*
X90599636Y-35407438D02*
X90647255Y-35455057D01*
X78313924Y-37588866D02*
X79075829Y-37588866D01*
X79456781Y-36969819D02*
X80075828Y-36969819D01*
X80075828Y-36969819D02*
X79742495Y-37350771D01*
X79742495Y-37350771D02*
X79885352Y-37350771D01*
X79885352Y-37350771D02*
X79980590Y-37398390D01*
X79980590Y-37398390D02*
X80028209Y-37446009D01*
X80028209Y-37446009D02*
X80075828Y-37541247D01*
X80075828Y-37541247D02*
X80075828Y-37779342D01*
X80075828Y-37779342D02*
X80028209Y-37874580D01*
X80028209Y-37874580D02*
X79980590Y-37922200D01*
X79980590Y-37922200D02*
X79885352Y-37969819D01*
X79885352Y-37969819D02*
X79599638Y-37969819D01*
X79599638Y-37969819D02*
X79504400Y-37922200D01*
X79504400Y-37922200D02*
X79456781Y-37874580D01*
X80694876Y-36969819D02*
X80790114Y-36969819D01*
X80790114Y-36969819D02*
X80885352Y-37017438D01*
X80885352Y-37017438D02*
X80932971Y-37065057D01*
X80932971Y-37065057D02*
X80980590Y-37160295D01*
X80980590Y-37160295D02*
X81028209Y-37350771D01*
X81028209Y-37350771D02*
X81028209Y-37588866D01*
X81028209Y-37588866D02*
X80980590Y-37779342D01*
X80980590Y-37779342D02*
X80932971Y-37874580D01*
X80932971Y-37874580D02*
X80885352Y-37922200D01*
X80885352Y-37922200D02*
X80790114Y-37969819D01*
X80790114Y-37969819D02*
X80694876Y-37969819D01*
X80694876Y-37969819D02*
X80599638Y-37922200D01*
X80599638Y-37922200D02*
X80552019Y-37874580D01*
X80552019Y-37874580D02*
X80504400Y-37779342D01*
X80504400Y-37779342D02*
X80456781Y-37588866D01*
X80456781Y-37588866D02*
X80456781Y-37350771D01*
X80456781Y-37350771D02*
X80504400Y-37160295D01*
X80504400Y-37160295D02*
X80552019Y-37065057D01*
X80552019Y-37065057D02*
X80599638Y-37017438D01*
X80599638Y-37017438D02*
X80694876Y-36969819D01*
X81409162Y-37684104D02*
X81885352Y-37684104D01*
X81313924Y-37969819D02*
X81647257Y-36969819D01*
X81647257Y-36969819D02*
X81980590Y-37969819D01*
D11*
X242039347Y-37072533D02*
X243563157Y-37072533D01*
X242801252Y-37834438D02*
X242801252Y-36310628D01*
X242039347Y-105652533D02*
X243563157Y-105652533D01*
X46459347Y-37834438D02*
X46459347Y-35834438D01*
X47411728Y-36501104D02*
X47411728Y-37834438D01*
X47411728Y-36691580D02*
X47506966Y-36596342D01*
X47506966Y-36596342D02*
X47697442Y-36501104D01*
X47697442Y-36501104D02*
X47983157Y-36501104D01*
X47983157Y-36501104D02*
X48173633Y-36596342D01*
X48173633Y-36596342D02*
X48268871Y-36786819D01*
X48268871Y-36786819D02*
X48268871Y-37834438D01*
X49221252Y-36501104D02*
X49221252Y-38501104D01*
X49221252Y-36596342D02*
X49411728Y-36501104D01*
X49411728Y-36501104D02*
X49792681Y-36501104D01*
X49792681Y-36501104D02*
X49983157Y-36596342D01*
X49983157Y-36596342D02*
X50078395Y-36691580D01*
X50078395Y-36691580D02*
X50173633Y-36882057D01*
X50173633Y-36882057D02*
X50173633Y-37453485D01*
X50173633Y-37453485D02*
X50078395Y-37643961D01*
X50078395Y-37643961D02*
X49983157Y-37739200D01*
X49983157Y-37739200D02*
X49792681Y-37834438D01*
X49792681Y-37834438D02*
X49411728Y-37834438D01*
X49411728Y-37834438D02*
X49221252Y-37739200D01*
X51887919Y-36501104D02*
X51887919Y-37834438D01*
X51030776Y-36501104D02*
X51030776Y-37548723D01*
X51030776Y-37548723D02*
X51126014Y-37739200D01*
X51126014Y-37739200D02*
X51316490Y-37834438D01*
X51316490Y-37834438D02*
X51602205Y-37834438D01*
X51602205Y-37834438D02*
X51792681Y-37739200D01*
X51792681Y-37739200D02*
X51887919Y-37643961D01*
X52554586Y-36501104D02*
X53316490Y-36501104D01*
X52840300Y-35834438D02*
X52840300Y-37548723D01*
X52840300Y-37548723D02*
X52935538Y-37739200D01*
X52935538Y-37739200D02*
X53126014Y-37834438D01*
X53126014Y-37834438D02*
X53316490Y-37834438D01*
X227180299Y-35834438D02*
X227561252Y-35834438D01*
X227561252Y-35834438D02*
X227751728Y-35929676D01*
X227751728Y-35929676D02*
X227942204Y-36120152D01*
X227942204Y-36120152D02*
X228037442Y-36501104D01*
X228037442Y-36501104D02*
X228037442Y-37167771D01*
X228037442Y-37167771D02*
X227942204Y-37548723D01*
X227942204Y-37548723D02*
X227751728Y-37739200D01*
X227751728Y-37739200D02*
X227561252Y-37834438D01*
X227561252Y-37834438D02*
X227180299Y-37834438D01*
X227180299Y-37834438D02*
X226989823Y-37739200D01*
X226989823Y-37739200D02*
X226799347Y-37548723D01*
X226799347Y-37548723D02*
X226704109Y-37167771D01*
X226704109Y-37167771D02*
X226704109Y-36501104D01*
X226704109Y-36501104D02*
X226799347Y-36120152D01*
X226799347Y-36120152D02*
X226989823Y-35929676D01*
X226989823Y-35929676D02*
X227180299Y-35834438D01*
X229751728Y-36501104D02*
X229751728Y-37834438D01*
X228894585Y-36501104D02*
X228894585Y-37548723D01*
X228894585Y-37548723D02*
X228989823Y-37739200D01*
X228989823Y-37739200D02*
X229180299Y-37834438D01*
X229180299Y-37834438D02*
X229466014Y-37834438D01*
X229466014Y-37834438D02*
X229656490Y-37739200D01*
X229656490Y-37739200D02*
X229751728Y-37643961D01*
X230418395Y-36501104D02*
X231180299Y-36501104D01*
X230704109Y-35834438D02*
X230704109Y-37548723D01*
X230704109Y-37548723D02*
X230799347Y-37739200D01*
X230799347Y-37739200D02*
X230989823Y-37834438D01*
X230989823Y-37834438D02*
X231180299Y-37834438D01*
X231846966Y-36501104D02*
X231846966Y-38501104D01*
X231846966Y-36596342D02*
X232037442Y-36501104D01*
X232037442Y-36501104D02*
X232418395Y-36501104D01*
X232418395Y-36501104D02*
X232608871Y-36596342D01*
X232608871Y-36596342D02*
X232704109Y-36691580D01*
X232704109Y-36691580D02*
X232799347Y-36882057D01*
X232799347Y-36882057D02*
X232799347Y-37453485D01*
X232799347Y-37453485D02*
X232704109Y-37643961D01*
X232704109Y-37643961D02*
X232608871Y-37739200D01*
X232608871Y-37739200D02*
X232418395Y-37834438D01*
X232418395Y-37834438D02*
X232037442Y-37834438D01*
X232037442Y-37834438D02*
X231846966Y-37739200D01*
X234513633Y-36501104D02*
X234513633Y-37834438D01*
X233656490Y-36501104D02*
X233656490Y-37548723D01*
X233656490Y-37548723D02*
X233751728Y-37739200D01*
X233751728Y-37739200D02*
X233942204Y-37834438D01*
X233942204Y-37834438D02*
X234227919Y-37834438D01*
X234227919Y-37834438D02*
X234418395Y-37739200D01*
X234418395Y-37739200D02*
X234513633Y-37643961D01*
X235180300Y-36501104D02*
X235942204Y-36501104D01*
X235466014Y-35834438D02*
X235466014Y-37548723D01*
X235466014Y-37548723D02*
X235561252Y-37739200D01*
X235561252Y-37739200D02*
X235751728Y-37834438D01*
X235751728Y-37834438D02*
X235942204Y-37834438D01*
D10*
X70964398Y-29787914D02*
X70678684Y-29645057D01*
X70678684Y-29645057D02*
X70250112Y-29645057D01*
X70250112Y-29645057D02*
X69821541Y-29787914D01*
X69821541Y-29787914D02*
X69535826Y-30073628D01*
X69535826Y-30073628D02*
X69392969Y-30359342D01*
X69392969Y-30359342D02*
X69250112Y-30930771D01*
X69250112Y-30930771D02*
X69250112Y-31359342D01*
X69250112Y-31359342D02*
X69392969Y-31930771D01*
X69392969Y-31930771D02*
X69535826Y-32216485D01*
X69535826Y-32216485D02*
X69821541Y-32502200D01*
X69821541Y-32502200D02*
X70250112Y-32645057D01*
X70250112Y-32645057D02*
X70535826Y-32645057D01*
X70535826Y-32645057D02*
X70964398Y-32502200D01*
X70964398Y-32502200D02*
X71107255Y-32359342D01*
X71107255Y-32359342D02*
X71107255Y-31359342D01*
X71107255Y-31359342D02*
X70535826Y-31359342D01*
X72392969Y-32645057D02*
X72392969Y-30645057D01*
X72392969Y-31216485D02*
X72535826Y-30930771D01*
X72535826Y-30930771D02*
X72678684Y-30787914D01*
X72678684Y-30787914D02*
X72964398Y-30645057D01*
X72964398Y-30645057D02*
X73250112Y-30645057D01*
X75535827Y-32645057D02*
X75535827Y-31073628D01*
X75535827Y-31073628D02*
X75392969Y-30787914D01*
X75392969Y-30787914D02*
X75107255Y-30645057D01*
X75107255Y-30645057D02*
X74535827Y-30645057D01*
X74535827Y-30645057D02*
X74250112Y-30787914D01*
X75535827Y-32502200D02*
X75250112Y-32645057D01*
X75250112Y-32645057D02*
X74535827Y-32645057D01*
X74535827Y-32645057D02*
X74250112Y-32502200D01*
X74250112Y-32502200D02*
X74107255Y-32216485D01*
X74107255Y-32216485D02*
X74107255Y-31930771D01*
X74107255Y-31930771D02*
X74250112Y-31645057D01*
X74250112Y-31645057D02*
X74535827Y-31502200D01*
X74535827Y-31502200D02*
X75250112Y-31502200D01*
X75250112Y-31502200D02*
X75535827Y-31359342D01*
X78250113Y-32645057D02*
X78250113Y-29645057D01*
X78250113Y-32502200D02*
X77964398Y-32645057D01*
X77964398Y-32645057D02*
X77392970Y-32645057D01*
X77392970Y-32645057D02*
X77107255Y-32502200D01*
X77107255Y-32502200D02*
X76964398Y-32359342D01*
X76964398Y-32359342D02*
X76821541Y-32073628D01*
X76821541Y-32073628D02*
X76821541Y-31216485D01*
X76821541Y-31216485D02*
X76964398Y-30930771D01*
X76964398Y-30930771D02*
X77107255Y-30787914D01*
X77107255Y-30787914D02*
X77392970Y-30645057D01*
X77392970Y-30645057D02*
X77964398Y-30645057D01*
X77964398Y-30645057D02*
X78250113Y-30787914D01*
X79678684Y-32645057D02*
X79678684Y-30645057D01*
X79678684Y-29645057D02*
X79535827Y-29787914D01*
X79535827Y-29787914D02*
X79678684Y-29930771D01*
X79678684Y-29930771D02*
X79821541Y-29787914D01*
X79821541Y-29787914D02*
X79678684Y-29645057D01*
X79678684Y-29645057D02*
X79678684Y-29930771D01*
X82250112Y-32502200D02*
X81964398Y-32645057D01*
X81964398Y-32645057D02*
X81392970Y-32645057D01*
X81392970Y-32645057D02*
X81107255Y-32502200D01*
X81107255Y-32502200D02*
X80964398Y-32216485D01*
X80964398Y-32216485D02*
X80964398Y-31073628D01*
X80964398Y-31073628D02*
X81107255Y-30787914D01*
X81107255Y-30787914D02*
X81392970Y-30645057D01*
X81392970Y-30645057D02*
X81964398Y-30645057D01*
X81964398Y-30645057D02*
X82250112Y-30787914D01*
X82250112Y-30787914D02*
X82392970Y-31073628D01*
X82392970Y-31073628D02*
X82392970Y-31359342D01*
X82392970Y-31359342D02*
X80964398Y-31645057D01*
X83678684Y-30645057D02*
X83678684Y-32645057D01*
X83678684Y-30930771D02*
X83821541Y-30787914D01*
X83821541Y-30787914D02*
X84107256Y-30645057D01*
X84107256Y-30645057D02*
X84535827Y-30645057D01*
X84535827Y-30645057D02*
X84821541Y-30787914D01*
X84821541Y-30787914D02*
X84964399Y-31073628D01*
X84964399Y-31073628D02*
X84964399Y-32645057D01*
X85964399Y-30645057D02*
X87107256Y-30645057D01*
X86392970Y-29645057D02*
X86392970Y-32216485D01*
X86392970Y-32216485D02*
X86535827Y-32502200D01*
X86535827Y-32502200D02*
X86821542Y-32645057D01*
X86821542Y-32645057D02*
X87107256Y-32645057D01*
X87964399Y-31787914D02*
X89392971Y-31787914D01*
X87678685Y-32645057D02*
X88678685Y-29645057D01*
X88678685Y-29645057D02*
X89678685Y-32645057D01*
X90678685Y-32645057D02*
X90678685Y-30645057D01*
X90678685Y-30930771D02*
X90821542Y-30787914D01*
X90821542Y-30787914D02*
X91107257Y-30645057D01*
X91107257Y-30645057D02*
X91535828Y-30645057D01*
X91535828Y-30645057D02*
X91821542Y-30787914D01*
X91821542Y-30787914D02*
X91964400Y-31073628D01*
X91964400Y-31073628D02*
X91964400Y-32645057D01*
X91964400Y-31073628D02*
X92107257Y-30787914D01*
X92107257Y-30787914D02*
X92392971Y-30645057D01*
X92392971Y-30645057D02*
X92821542Y-30645057D01*
X92821542Y-30645057D02*
X93107257Y-30787914D01*
X93107257Y-30787914D02*
X93250114Y-31073628D01*
X93250114Y-31073628D02*
X93250114Y-32645057D01*
X94678685Y-30645057D02*
X94678685Y-33645057D01*
X94678685Y-30787914D02*
X94964400Y-30645057D01*
X94964400Y-30645057D02*
X95535828Y-30645057D01*
X95535828Y-30645057D02*
X95821542Y-30787914D01*
X95821542Y-30787914D02*
X95964400Y-30930771D01*
X95964400Y-30930771D02*
X96107257Y-31216485D01*
X96107257Y-31216485D02*
X96107257Y-32073628D01*
X96107257Y-32073628D02*
X95964400Y-32359342D01*
X95964400Y-32359342D02*
X95821542Y-32502200D01*
X95821542Y-32502200D02*
X95535828Y-32645057D01*
X95535828Y-32645057D02*
X94964400Y-32645057D01*
X94964400Y-32645057D02*
X94678685Y-32502200D01*
X97821543Y-32645057D02*
X97535828Y-32502200D01*
X97535828Y-32502200D02*
X97392971Y-32216485D01*
X97392971Y-32216485D02*
X97392971Y-29645057D01*
X98964400Y-32645057D02*
X98964400Y-30645057D01*
X98964400Y-29645057D02*
X98821543Y-29787914D01*
X98821543Y-29787914D02*
X98964400Y-29930771D01*
X98964400Y-29930771D02*
X99107257Y-29787914D01*
X99107257Y-29787914D02*
X98964400Y-29645057D01*
X98964400Y-29645057D02*
X98964400Y-29930771D01*
X99964400Y-30645057D02*
X101107257Y-30645057D01*
X100392971Y-32645057D02*
X100392971Y-30073628D01*
X100392971Y-30073628D02*
X100535828Y-29787914D01*
X100535828Y-29787914D02*
X100821543Y-29645057D01*
X100821543Y-29645057D02*
X101107257Y-29645057D01*
X102107257Y-32645057D02*
X102107257Y-30645057D01*
X102107257Y-29645057D02*
X101964400Y-29787914D01*
X101964400Y-29787914D02*
X102107257Y-29930771D01*
X102107257Y-29930771D02*
X102250114Y-29787914D01*
X102250114Y-29787914D02*
X102107257Y-29645057D01*
X102107257Y-29645057D02*
X102107257Y-29930771D01*
X104678685Y-32502200D02*
X104392971Y-32645057D01*
X104392971Y-32645057D02*
X103821543Y-32645057D01*
X103821543Y-32645057D02*
X103535828Y-32502200D01*
X103535828Y-32502200D02*
X103392971Y-32216485D01*
X103392971Y-32216485D02*
X103392971Y-31073628D01*
X103392971Y-31073628D02*
X103535828Y-30787914D01*
X103535828Y-30787914D02*
X103821543Y-30645057D01*
X103821543Y-30645057D02*
X104392971Y-30645057D01*
X104392971Y-30645057D02*
X104678685Y-30787914D01*
X104678685Y-30787914D02*
X104821543Y-31073628D01*
X104821543Y-31073628D02*
X104821543Y-31359342D01*
X104821543Y-31359342D02*
X103392971Y-31645057D01*
X106107257Y-32645057D02*
X106107257Y-30645057D01*
X106107257Y-31216485D02*
X106250114Y-30930771D01*
X106250114Y-30930771D02*
X106392972Y-30787914D01*
X106392972Y-30787914D02*
X106678686Y-30645057D01*
X106678686Y-30645057D02*
X106964400Y-30645057D01*
X108964400Y-31073628D02*
X107964400Y-31073628D01*
X107964400Y-32645057D02*
X107964400Y-29645057D01*
X107964400Y-29645057D02*
X109392972Y-29645057D01*
X110535829Y-32645057D02*
X110535829Y-30645057D01*
X110535829Y-29645057D02*
X110392972Y-29787914D01*
X110392972Y-29787914D02*
X110535829Y-29930771D01*
X110535829Y-29930771D02*
X110678686Y-29787914D01*
X110678686Y-29787914D02*
X110535829Y-29645057D01*
X110535829Y-29645057D02*
X110535829Y-29930771D01*
X112392972Y-32645057D02*
X112107257Y-32502200D01*
X112107257Y-32502200D02*
X111964400Y-32216485D01*
X111964400Y-32216485D02*
X111964400Y-29645057D01*
X113107258Y-30645057D02*
X114250115Y-30645057D01*
X113535829Y-29645057D02*
X113535829Y-32216485D01*
X113535829Y-32216485D02*
X113678686Y-32502200D01*
X113678686Y-32502200D02*
X113964401Y-32645057D01*
X113964401Y-32645057D02*
X114250115Y-32645057D01*
X116392972Y-32502200D02*
X116107258Y-32645057D01*
X116107258Y-32645057D02*
X115535830Y-32645057D01*
X115535830Y-32645057D02*
X115250115Y-32502200D01*
X115250115Y-32502200D02*
X115107258Y-32216485D01*
X115107258Y-32216485D02*
X115107258Y-31073628D01*
X115107258Y-31073628D02*
X115250115Y-30787914D01*
X115250115Y-30787914D02*
X115535830Y-30645057D01*
X115535830Y-30645057D02*
X116107258Y-30645057D01*
X116107258Y-30645057D02*
X116392972Y-30787914D01*
X116392972Y-30787914D02*
X116535830Y-31073628D01*
X116535830Y-31073628D02*
X116535830Y-31359342D01*
X116535830Y-31359342D02*
X115107258Y-31645057D01*
X117821544Y-32645057D02*
X117821544Y-30645057D01*
X117821544Y-31216485D02*
X117964401Y-30930771D01*
X117964401Y-30930771D02*
X118107259Y-30787914D01*
X118107259Y-30787914D02*
X118392973Y-30645057D01*
X118392973Y-30645057D02*
X118678687Y-30645057D01*
X118964402Y-32930771D02*
X121250116Y-32930771D01*
X121535830Y-29645057D02*
X122535830Y-32645057D01*
X122535830Y-32645057D02*
X123535830Y-29645057D01*
X126107259Y-32645057D02*
X124392973Y-32645057D01*
X125250116Y-32645057D02*
X125250116Y-29645057D01*
X125250116Y-29645057D02*
X124964402Y-30073628D01*
X124964402Y-30073628D02*
X124678687Y-30359342D01*
X124678687Y-30359342D02*
X124392973Y-30502200D01*
X127392973Y-32359342D02*
X127535830Y-32502200D01*
X127535830Y-32502200D02*
X127392973Y-32645057D01*
X127392973Y-32645057D02*
X127250116Y-32502200D01*
X127250116Y-32502200D02*
X127392973Y-32359342D01*
X127392973Y-32359342D02*
X127392973Y-32645057D01*
X129392973Y-29645057D02*
X129678687Y-29645057D01*
X129678687Y-29645057D02*
X129964401Y-29787914D01*
X129964401Y-29787914D02*
X130107259Y-29930771D01*
X130107259Y-29930771D02*
X130250116Y-30216485D01*
X130250116Y-30216485D02*
X130392973Y-30787914D01*
X130392973Y-30787914D02*
X130392973Y-31502200D01*
X130392973Y-31502200D02*
X130250116Y-32073628D01*
X130250116Y-32073628D02*
X130107259Y-32359342D01*
X130107259Y-32359342D02*
X129964401Y-32502200D01*
X129964401Y-32502200D02*
X129678687Y-32645057D01*
X129678687Y-32645057D02*
X129392973Y-32645057D01*
X129392973Y-32645057D02*
X129107259Y-32502200D01*
X129107259Y-32502200D02*
X128964401Y-32359342D01*
X128964401Y-32359342D02*
X128821544Y-32073628D01*
X128821544Y-32073628D02*
X128678687Y-31502200D01*
X128678687Y-31502200D02*
X128678687Y-30787914D01*
X128678687Y-30787914D02*
X128821544Y-30216485D01*
X128821544Y-30216485D02*
X128964401Y-29930771D01*
X128964401Y-29930771D02*
X129107259Y-29787914D01*
X129107259Y-29787914D02*
X129392973Y-29645057D01*
D11*
X36299347Y-105652533D02*
X37823157Y-105652533D01*
X36299347Y-37072533D02*
X37823157Y-37072533D01*
X37061252Y-37834438D02*
X37061252Y-36310628D01*
D12*
X172498333Y-71573365D02*
X172437857Y-71633842D01*
X172437857Y-71633842D02*
X172256428Y-71694318D01*
X172256428Y-71694318D02*
X172135476Y-71694318D01*
X172135476Y-71694318D02*
X171954047Y-71633842D01*
X171954047Y-71633842D02*
X171833095Y-71512889D01*
X171833095Y-71512889D02*
X171772618Y-71391937D01*
X171772618Y-71391937D02*
X171712142Y-71150032D01*
X171712142Y-71150032D02*
X171712142Y-70968603D01*
X171712142Y-70968603D02*
X171772618Y-70726699D01*
X171772618Y-70726699D02*
X171833095Y-70605746D01*
X171833095Y-70605746D02*
X171954047Y-70484794D01*
X171954047Y-70484794D02*
X172135476Y-70424318D01*
X172135476Y-70424318D02*
X172256428Y-70424318D01*
X172256428Y-70424318D02*
X172437857Y-70484794D01*
X172437857Y-70484794D02*
X172498333Y-70545270D01*
X173707857Y-71694318D02*
X172982142Y-71694318D01*
X173344999Y-71694318D02*
X173344999Y-70424318D01*
X173344999Y-70424318D02*
X173224047Y-70605746D01*
X173224047Y-70605746D02*
X173103095Y-70726699D01*
X173103095Y-70726699D02*
X172982142Y-70787175D01*
D13*
X164737819Y-71409633D02*
X164690200Y-71362014D01*
X164690200Y-71362014D02*
X164642580Y-71219157D01*
X164642580Y-71219157D02*
X164642580Y-71123919D01*
X164642580Y-71123919D02*
X164690200Y-70981062D01*
X164690200Y-70981062D02*
X164785438Y-70885824D01*
X164785438Y-70885824D02*
X164880676Y-70838205D01*
X164880676Y-70838205D02*
X165071152Y-70790586D01*
X165071152Y-70790586D02*
X165214009Y-70790586D01*
X165214009Y-70790586D02*
X165404485Y-70838205D01*
X165404485Y-70838205D02*
X165499723Y-70885824D01*
X165499723Y-70885824D02*
X165594961Y-70981062D01*
X165594961Y-70981062D02*
X165642580Y-71123919D01*
X165642580Y-71123919D02*
X165642580Y-71219157D01*
X165642580Y-71219157D02*
X165594961Y-71362014D01*
X165594961Y-71362014D02*
X165547342Y-71409633D01*
X165642580Y-72266776D02*
X165642580Y-72076300D01*
X165642580Y-72076300D02*
X165594961Y-71981062D01*
X165594961Y-71981062D02*
X165547342Y-71933443D01*
X165547342Y-71933443D02*
X165404485Y-71838205D01*
X165404485Y-71838205D02*
X165214009Y-71790586D01*
X165214009Y-71790586D02*
X164833057Y-71790586D01*
X164833057Y-71790586D02*
X164737819Y-71838205D01*
X164737819Y-71838205D02*
X164690200Y-71885824D01*
X164690200Y-71885824D02*
X164642580Y-71981062D01*
X164642580Y-71981062D02*
X164642580Y-72171538D01*
X164642580Y-72171538D02*
X164690200Y-72266776D01*
X164690200Y-72266776D02*
X164737819Y-72314395D01*
X164737819Y-72314395D02*
X164833057Y-72362014D01*
X164833057Y-72362014D02*
X165071152Y-72362014D01*
X165071152Y-72362014D02*
X165166390Y-72314395D01*
X165166390Y-72314395D02*
X165214009Y-72266776D01*
X165214009Y-72266776D02*
X165261628Y-72171538D01*
X165261628Y-72171538D02*
X165261628Y-71981062D01*
X165261628Y-71981062D02*
X165214009Y-71885824D01*
X165214009Y-71885824D02*
X165166390Y-71838205D01*
X165166390Y-71838205D02*
X165071152Y-71790586D01*
D12*
X235926667Y-93044318D02*
X235926667Y-93951461D01*
X235926667Y-93951461D02*
X235866190Y-94132889D01*
X235866190Y-94132889D02*
X235745238Y-94253842D01*
X235745238Y-94253842D02*
X235563809Y-94314318D01*
X235563809Y-94314318D02*
X235442857Y-94314318D01*
X237075714Y-93467651D02*
X237075714Y-94314318D01*
X236773333Y-92983842D02*
X236470952Y-93890984D01*
X236470952Y-93890984D02*
X237257143Y-93890984D01*
X45296667Y-47564318D02*
X45296667Y-48471461D01*
X45296667Y-48471461D02*
X45236190Y-48652889D01*
X45236190Y-48652889D02*
X45115238Y-48773842D01*
X45115238Y-48773842D02*
X44933809Y-48834318D01*
X44933809Y-48834318D02*
X44812857Y-48834318D01*
X46566667Y-48834318D02*
X45840952Y-48834318D01*
X46203809Y-48834318D02*
X46203809Y-47564318D01*
X46203809Y-47564318D02*
X46082857Y-47745746D01*
X46082857Y-47745746D02*
X45961905Y-47866699D01*
X45961905Y-47866699D02*
X45840952Y-47927175D01*
D10*
X225754819Y-81446666D02*
X225278628Y-81779999D01*
X225754819Y-82018094D02*
X224754819Y-82018094D01*
X224754819Y-82018094D02*
X224754819Y-81637142D01*
X224754819Y-81637142D02*
X224802438Y-81541904D01*
X224802438Y-81541904D02*
X224850057Y-81494285D01*
X224850057Y-81494285D02*
X224945295Y-81446666D01*
X224945295Y-81446666D02*
X225088152Y-81446666D01*
X225088152Y-81446666D02*
X225183390Y-81494285D01*
X225183390Y-81494285D02*
X225231009Y-81541904D01*
X225231009Y-81541904D02*
X225278628Y-81637142D01*
X225278628Y-81637142D02*
X225278628Y-82018094D01*
X224754819Y-81113332D02*
X224754819Y-80494285D01*
X224754819Y-80494285D02*
X225135771Y-80827618D01*
X225135771Y-80827618D02*
X225135771Y-80684761D01*
X225135771Y-80684761D02*
X225183390Y-80589523D01*
X225183390Y-80589523D02*
X225231009Y-80541904D01*
X225231009Y-80541904D02*
X225326247Y-80494285D01*
X225326247Y-80494285D02*
X225564342Y-80494285D01*
X225564342Y-80494285D02*
X225659580Y-80541904D01*
X225659580Y-80541904D02*
X225707200Y-80589523D01*
X225707200Y-80589523D02*
X225754819Y-80684761D01*
X225754819Y-80684761D02*
X225754819Y-80970475D01*
X225754819Y-80970475D02*
X225707200Y-81065713D01*
X225707200Y-81065713D02*
X225659580Y-81113332D01*
D14*
D12*
X45296667Y-70424318D02*
X45296667Y-71331461D01*
X45296667Y-71331461D02*
X45236190Y-71512889D01*
X45236190Y-71512889D02*
X45115238Y-71633842D01*
X45115238Y-71633842D02*
X44933809Y-71694318D01*
X44933809Y-71694318D02*
X44812857Y-71694318D01*
X45780476Y-70424318D02*
X46566667Y-70424318D01*
X46566667Y-70424318D02*
X46143333Y-70908127D01*
X46143333Y-70908127D02*
X46324762Y-70908127D01*
X46324762Y-70908127D02*
X46445714Y-70968603D01*
X46445714Y-70968603D02*
X46506190Y-71029080D01*
X46506190Y-71029080D02*
X46566667Y-71150032D01*
X46566667Y-71150032D02*
X46566667Y-71452413D01*
X46566667Y-71452413D02*
X46506190Y-71573365D01*
X46506190Y-71573365D02*
X46445714Y-71633842D01*
X46445714Y-71633842D02*
X46324762Y-71694318D01*
X46324762Y-71694318D02*
X45961905Y-71694318D01*
X45961905Y-71694318D02*
X45840952Y-71633842D01*
X45840952Y-71633842D02*
X45780476Y-71573365D01*
D10*
X54549580Y-83986666D02*
X54597200Y-84034285D01*
X54597200Y-84034285D02*
X54644819Y-84177142D01*
X54644819Y-84177142D02*
X54644819Y-84272380D01*
X54644819Y-84272380D02*
X54597200Y-84415237D01*
X54597200Y-84415237D02*
X54501961Y-84510475D01*
X54501961Y-84510475D02*
X54406723Y-84558094D01*
X54406723Y-84558094D02*
X54216247Y-84605713D01*
X54216247Y-84605713D02*
X54073390Y-84605713D01*
X54073390Y-84605713D02*
X53882914Y-84558094D01*
X53882914Y-84558094D02*
X53787676Y-84510475D01*
X53787676Y-84510475D02*
X53692438Y-84415237D01*
X53692438Y-84415237D02*
X53644819Y-84272380D01*
X53644819Y-84272380D02*
X53644819Y-84177142D01*
X53644819Y-84177142D02*
X53692438Y-84034285D01*
X53692438Y-84034285D02*
X53740057Y-83986666D01*
X53740057Y-83605713D02*
X53692438Y-83558094D01*
X53692438Y-83558094D02*
X53644819Y-83462856D01*
X53644819Y-83462856D02*
X53644819Y-83224761D01*
X53644819Y-83224761D02*
X53692438Y-83129523D01*
X53692438Y-83129523D02*
X53740057Y-83081904D01*
X53740057Y-83081904D02*
X53835295Y-83034285D01*
X53835295Y-83034285D02*
X53930533Y-83034285D01*
X53930533Y-83034285D02*
X54073390Y-83081904D01*
X54073390Y-83081904D02*
X54644819Y-83653332D01*
X54644819Y-83653332D02*
X54644819Y-83034285D01*
X216679580Y-56046666D02*
X216727200Y-56094285D01*
X216727200Y-56094285D02*
X216774819Y-56237142D01*
X216774819Y-56237142D02*
X216774819Y-56332380D01*
X216774819Y-56332380D02*
X216727200Y-56475237D01*
X216727200Y-56475237D02*
X216631961Y-56570475D01*
X216631961Y-56570475D02*
X216536723Y-56618094D01*
X216536723Y-56618094D02*
X216346247Y-56665713D01*
X216346247Y-56665713D02*
X216203390Y-56665713D01*
X216203390Y-56665713D02*
X216012914Y-56618094D01*
X216012914Y-56618094D02*
X215917676Y-56570475D01*
X215917676Y-56570475D02*
X215822438Y-56475237D01*
X215822438Y-56475237D02*
X215774819Y-56332380D01*
X215774819Y-56332380D02*
X215774819Y-56237142D01*
X215774819Y-56237142D02*
X215822438Y-56094285D01*
X215822438Y-56094285D02*
X215870057Y-56046666D01*
X216108152Y-55189523D02*
X216774819Y-55189523D01*
X215727200Y-55427618D02*
X216441485Y-55665713D01*
X216441485Y-55665713D02*
X216441485Y-55046666D01*
D12*
X124792619Y-71029080D02*
X124369285Y-71029080D01*
X124369285Y-71694318D02*
X124369285Y-70424318D01*
X124369285Y-70424318D02*
X124974047Y-70424318D01*
X126062618Y-71694318D02*
X125457856Y-71694318D01*
X125457856Y-71694318D02*
X125457856Y-70424318D01*
X127151190Y-71694318D02*
X126425475Y-71694318D01*
X126788332Y-71694318D02*
X126788332Y-70424318D01*
X126788332Y-70424318D02*
X126667380Y-70605746D01*
X126667380Y-70605746D02*
X126546428Y-70726699D01*
X126546428Y-70726699D02*
X126425475Y-70787175D01*
X235926667Y-47564318D02*
X235926667Y-48471461D01*
X235926667Y-48471461D02*
X235866190Y-48652889D01*
X235866190Y-48652889D02*
X235745238Y-48773842D01*
X235745238Y-48773842D02*
X235563809Y-48834318D01*
X235563809Y-48834318D02*
X235442857Y-48834318D01*
X237136190Y-47564318D02*
X236531428Y-47564318D01*
X236531428Y-47564318D02*
X236470952Y-48169080D01*
X236470952Y-48169080D02*
X236531428Y-48108603D01*
X236531428Y-48108603D02*
X236652381Y-48048127D01*
X236652381Y-48048127D02*
X236954762Y-48048127D01*
X236954762Y-48048127D02*
X237075714Y-48108603D01*
X237075714Y-48108603D02*
X237136190Y-48169080D01*
X237136190Y-48169080D02*
X237196667Y-48290032D01*
X237196667Y-48290032D02*
X237196667Y-48592413D01*
X237196667Y-48592413D02*
X237136190Y-48713365D01*
X237136190Y-48713365D02*
X237075714Y-48773842D01*
X237075714Y-48773842D02*
X236954762Y-48834318D01*
X236954762Y-48834318D02*
X236652381Y-48834318D01*
X236652381Y-48834318D02*
X236531428Y-48773842D01*
X236531428Y-48773842D02*
X236470952Y-48713365D01*
D10*
X65549580Y-56046666D02*
X65597200Y-56094285D01*
X65597200Y-56094285D02*
X65644819Y-56237142D01*
X65644819Y-56237142D02*
X65644819Y-56332380D01*
X65644819Y-56332380D02*
X65597200Y-56475237D01*
X65597200Y-56475237D02*
X65501961Y-56570475D01*
X65501961Y-56570475D02*
X65406723Y-56618094D01*
X65406723Y-56618094D02*
X65216247Y-56665713D01*
X65216247Y-56665713D02*
X65073390Y-56665713D01*
X65073390Y-56665713D02*
X64882914Y-56618094D01*
X64882914Y-56618094D02*
X64787676Y-56570475D01*
X64787676Y-56570475D02*
X64692438Y-56475237D01*
X64692438Y-56475237D02*
X64644819Y-56332380D01*
X64644819Y-56332380D02*
X64644819Y-56237142D01*
X64644819Y-56237142D02*
X64692438Y-56094285D01*
X64692438Y-56094285D02*
X64740057Y-56046666D01*
X64644819Y-55713332D02*
X64644819Y-55094285D01*
X64644819Y-55094285D02*
X65025771Y-55427618D01*
X65025771Y-55427618D02*
X65025771Y-55284761D01*
X65025771Y-55284761D02*
X65073390Y-55189523D01*
X65073390Y-55189523D02*
X65121009Y-55141904D01*
X65121009Y-55141904D02*
X65216247Y-55094285D01*
X65216247Y-55094285D02*
X65454342Y-55094285D01*
X65454342Y-55094285D02*
X65549580Y-55141904D01*
X65549580Y-55141904D02*
X65597200Y-55189523D01*
X65597200Y-55189523D02*
X65644819Y-55284761D01*
X65644819Y-55284761D02*
X65644819Y-55570475D01*
X65644819Y-55570475D02*
X65597200Y-55665713D01*
X65597200Y-55665713D02*
X65549580Y-55713332D01*
X205679580Y-83986666D02*
X205727200Y-84034285D01*
X205727200Y-84034285D02*
X205774819Y-84177142D01*
X205774819Y-84177142D02*
X205774819Y-84272380D01*
X205774819Y-84272380D02*
X205727200Y-84415237D01*
X205727200Y-84415237D02*
X205631961Y-84510475D01*
X205631961Y-84510475D02*
X205536723Y-84558094D01*
X205536723Y-84558094D02*
X205346247Y-84605713D01*
X205346247Y-84605713D02*
X205203390Y-84605713D01*
X205203390Y-84605713D02*
X205012914Y-84558094D01*
X205012914Y-84558094D02*
X204917676Y-84510475D01*
X204917676Y-84510475D02*
X204822438Y-84415237D01*
X204822438Y-84415237D02*
X204774819Y-84272380D01*
X204774819Y-84272380D02*
X204774819Y-84177142D01*
X204774819Y-84177142D02*
X204822438Y-84034285D01*
X204822438Y-84034285D02*
X204870057Y-83986666D01*
X204774819Y-83081904D02*
X204774819Y-83558094D01*
X204774819Y-83558094D02*
X205251009Y-83605713D01*
X205251009Y-83605713D02*
X205203390Y-83558094D01*
X205203390Y-83558094D02*
X205155771Y-83462856D01*
X205155771Y-83462856D02*
X205155771Y-83224761D01*
X205155771Y-83224761D02*
X205203390Y-83129523D01*
X205203390Y-83129523D02*
X205251009Y-83081904D01*
X205251009Y-83081904D02*
X205346247Y-83034285D01*
X205346247Y-83034285D02*
X205584342Y-83034285D01*
X205584342Y-83034285D02*
X205679580Y-83081904D01*
X205679580Y-83081904D02*
X205727200Y-83129523D01*
X205727200Y-83129523D02*
X205774819Y-83224761D01*
X205774819Y-83224761D02*
X205774819Y-83462856D01*
X205774819Y-83462856D02*
X205727200Y-83558094D01*
X205727200Y-83558094D02*
X205679580Y-83605713D01*
D13*
X80917819Y-71409633D02*
X80870200Y-71362014D01*
X80870200Y-71362014D02*
X80822580Y-71219157D01*
X80822580Y-71219157D02*
X80822580Y-71123919D01*
X80822580Y-71123919D02*
X80870200Y-70981062D01*
X80870200Y-70981062D02*
X80965438Y-70885824D01*
X80965438Y-70885824D02*
X81060676Y-70838205D01*
X81060676Y-70838205D02*
X81251152Y-70790586D01*
X81251152Y-70790586D02*
X81394009Y-70790586D01*
X81394009Y-70790586D02*
X81584485Y-70838205D01*
X81584485Y-70838205D02*
X81679723Y-70885824D01*
X81679723Y-70885824D02*
X81774961Y-70981062D01*
X81774961Y-70981062D02*
X81822580Y-71123919D01*
X81822580Y-71123919D02*
X81822580Y-71219157D01*
X81822580Y-71219157D02*
X81774961Y-71362014D01*
X81774961Y-71362014D02*
X81727342Y-71409633D01*
X81822580Y-71742967D02*
X81822580Y-72409633D01*
X81822580Y-72409633D02*
X80822580Y-71981062D01*
D10*
X225754819Y-53506666D02*
X225278628Y-53839999D01*
X225754819Y-54078094D02*
X224754819Y-54078094D01*
X224754819Y-54078094D02*
X224754819Y-53697142D01*
X224754819Y-53697142D02*
X224802438Y-53601904D01*
X224802438Y-53601904D02*
X224850057Y-53554285D01*
X224850057Y-53554285D02*
X224945295Y-53506666D01*
X224945295Y-53506666D02*
X225088152Y-53506666D01*
X225088152Y-53506666D02*
X225183390Y-53554285D01*
X225183390Y-53554285D02*
X225231009Y-53601904D01*
X225231009Y-53601904D02*
X225278628Y-53697142D01*
X225278628Y-53697142D02*
X225278628Y-54078094D01*
X224850057Y-53125713D02*
X224802438Y-53078094D01*
X224802438Y-53078094D02*
X224754819Y-52982856D01*
X224754819Y-52982856D02*
X224754819Y-52744761D01*
X224754819Y-52744761D02*
X224802438Y-52649523D01*
X224802438Y-52649523D02*
X224850057Y-52601904D01*
X224850057Y-52601904D02*
X224945295Y-52554285D01*
X224945295Y-52554285D02*
X225040533Y-52554285D01*
X225040533Y-52554285D02*
X225183390Y-52601904D01*
X225183390Y-52601904D02*
X225754819Y-53173332D01*
X225754819Y-53173332D02*
X225754819Y-52554285D01*
D12*
X45296667Y-75504318D02*
X45296667Y-76411461D01*
X45296667Y-76411461D02*
X45236190Y-76592889D01*
X45236190Y-76592889D02*
X45115238Y-76713842D01*
X45115238Y-76713842D02*
X44933809Y-76774318D01*
X44933809Y-76774318D02*
X44812857Y-76774318D01*
X45840952Y-75625270D02*
X45901428Y-75564794D01*
X45901428Y-75564794D02*
X46022381Y-75504318D01*
X46022381Y-75504318D02*
X46324762Y-75504318D01*
X46324762Y-75504318D02*
X46445714Y-75564794D01*
X46445714Y-75564794D02*
X46506190Y-75625270D01*
X46506190Y-75625270D02*
X46566667Y-75746222D01*
X46566667Y-75746222D02*
X46566667Y-75867175D01*
X46566667Y-75867175D02*
X46506190Y-76048603D01*
X46506190Y-76048603D02*
X45780476Y-76774318D01*
X45780476Y-76774318D02*
X46566667Y-76774318D01*
D15*
%TO.C,C1*%
X142710000Y-71120000D02*
G75*
G03*
X202710000Y-71120000I30000000J0D01*
G01*
X202710000Y-71120000D02*
G75*
G03*
X142710000Y-71120000I-30000000J0D01*
G01*
X142110000Y-71120000D02*
G75*
G03*
X142210000Y-71120000I50000J0D01*
G01*
X142110000Y-71120000D02*
G75*
G03*
X142210000Y-71120000I50000J0D01*
G01*
X142210000Y-71120000D02*
G75*
G03*
X142110000Y-71120000I-50000J0D01*
G01*
X202710000Y-71120000D02*
X202710000Y-71120000D01*
X142710000Y-71120000D02*
X142710000Y-71120000D01*
X142210000Y-71120000D02*
X142210000Y-71120000D01*
X142110000Y-71120000D02*
X142110000Y-71120000D01*
X142110000Y-71120000D02*
X142110000Y-71120000D01*
D16*
%TO.C,C6*%
X192020000Y-92016300D02*
X151780000Y-92016300D01*
X151780000Y-50276300D02*
X151780000Y-92016300D01*
X192020000Y-50276300D02*
X192020000Y-92016300D01*
X192020000Y-50276300D02*
X151780000Y-50276300D01*
D13*
%TO.C,J4*%
X230380000Y-90740000D02*
X230350000Y-96740000D01*
X242320000Y-90740000D02*
X242350000Y-96740000D01*
%TO.C,J1*%
X51690000Y-51260000D02*
X51720000Y-45260000D01*
X39750000Y-51260000D02*
X39720000Y-45260000D01*
D16*
%TO.C,R3*%
X224300000Y-71160000D02*
X224300000Y-91400000D01*
X222420000Y-71160000D02*
X224300000Y-71160000D01*
X219540000Y-71160000D02*
X217660000Y-71160000D01*
X217660000Y-71160000D02*
X217660000Y-91400000D01*
X224300000Y-91400000D02*
X222420000Y-91400000D01*
X217660000Y-91400000D02*
X219540000Y-91400000D01*
%TO.C,   *%
G36*
X221903333Y-112020000D02*
G01*
X221903333Y-112670000D01*
X221728333Y-112670000D01*
X221553333Y-112670000D01*
X221553333Y-112020000D01*
X221553333Y-111370000D01*
X221728333Y-111370000D01*
X221903333Y-111370000D01*
X221903333Y-112020000D01*
G37*
G36*
X224303333Y-112020000D02*
G01*
X224303333Y-112670000D01*
X224120000Y-112670000D01*
X223936666Y-112670000D01*
X223936666Y-112020000D01*
X223936666Y-111370000D01*
X224120000Y-111370000D01*
X224303333Y-111370000D01*
X224303333Y-112020000D01*
G37*
G36*
X224353333Y-108653542D02*
G01*
X224353333Y-108928560D01*
X223894916Y-109386780D01*
X223436498Y-109845000D01*
X223015749Y-109849930D01*
X222595000Y-109854860D01*
X222403605Y-109662430D01*
X222212210Y-109470000D01*
X222736845Y-109470000D01*
X223261480Y-109470000D01*
X223807406Y-108924261D01*
X224353333Y-108378523D01*
X224353333Y-108653542D01*
G37*
G36*
X225461782Y-107170087D02*
G01*
X225911666Y-107620175D01*
X225916434Y-108049254D01*
X225921203Y-108478333D01*
X225728934Y-108669728D01*
X225536666Y-108861123D01*
X225536666Y-108327928D01*
X225536666Y-107794734D01*
X225145000Y-107403333D01*
X224753333Y-107011932D01*
X224753333Y-106865966D01*
X224753333Y-106720000D01*
X224882615Y-106720000D01*
X225011898Y-106720000D01*
X225461782Y-107170087D01*
G37*
G36*
X224700674Y-105299370D02*
G01*
X224780621Y-105379292D01*
X224837551Y-105437372D01*
X224870168Y-105477054D01*
X224877175Y-105501781D01*
X224857275Y-105514996D01*
X224809173Y-105520142D01*
X224731571Y-105520663D01*
X224623174Y-105520002D01*
X224617602Y-105520000D01*
X224327789Y-105520000D01*
X224136666Y-105328333D01*
X223945543Y-105136667D01*
X224242613Y-105136667D01*
X224539683Y-105136667D01*
X224700674Y-105299370D01*
G37*
G36*
X224191673Y-110661477D02*
G01*
X224256647Y-110691202D01*
X224305354Y-110742120D01*
X224311384Y-110752788D01*
X224336022Y-110831179D01*
X224331594Y-110905947D01*
X224302331Y-110971909D01*
X224252465Y-111023883D01*
X224186225Y-111056684D01*
X224107844Y-111065131D01*
X224062361Y-111057842D01*
X223991948Y-111024756D01*
X223940093Y-110970500D01*
X223910098Y-110902695D01*
X223905269Y-110828956D01*
X223928908Y-110756904D01*
X223930592Y-110753997D01*
X223979890Y-110699205D01*
X224045219Y-110665504D01*
X224118505Y-110652919D01*
X224191673Y-110661477D01*
G37*
G36*
X221804258Y-110665424D02*
G01*
X221872794Y-110700820D01*
X221917224Y-110758207D01*
X221936089Y-110836271D01*
X221936666Y-110854794D01*
X221922407Y-110936603D01*
X221882364Y-111000656D01*
X221820638Y-111043963D01*
X221741329Y-111063535D01*
X221657641Y-111058256D01*
X221621992Y-111042045D01*
X221580638Y-111010938D01*
X221571477Y-111002247D01*
X221523019Y-110933658D01*
X221505772Y-110859870D01*
X221519575Y-110786491D01*
X221564265Y-110719132D01*
X221580084Y-110704032D01*
X221628752Y-110669081D01*
X221678717Y-110654917D01*
X221713074Y-110653333D01*
X221804258Y-110665424D01*
G37*
G36*
X221603333Y-106662036D02*
G01*
X221603333Y-107195195D01*
X222136666Y-107728333D01*
X222246391Y-107838288D01*
X222348508Y-107941140D01*
X222440662Y-108034480D01*
X222520498Y-108115897D01*
X222585660Y-108182982D01*
X222633792Y-108233324D01*
X222662540Y-108264513D01*
X222670000Y-108274069D01*
X222654270Y-108278351D01*
X222610827Y-108282009D01*
X222545288Y-108284773D01*
X222463271Y-108286375D01*
X222407103Y-108286667D01*
X222144206Y-108286667D01*
X221682103Y-107823480D01*
X221220000Y-107360294D01*
X221220000Y-106935709D01*
X221220000Y-106511123D01*
X221411666Y-106320000D01*
X221603333Y-106128877D01*
X221603333Y-106662036D01*
G37*
G36*
X224949166Y-107765848D02*
G01*
X225136666Y-107952463D01*
X225136666Y-108587327D01*
X225136206Y-108778307D01*
X225134814Y-108936584D01*
X225132473Y-109062778D01*
X225129166Y-109157506D01*
X225124877Y-109221389D01*
X225119587Y-109255044D01*
X225118217Y-109258596D01*
X225101530Y-109280461D01*
X225064753Y-109322001D01*
X225011455Y-109379406D01*
X224945203Y-109448869D01*
X224869565Y-109526580D01*
X224822567Y-109574167D01*
X224545367Y-109853333D01*
X224270319Y-109853333D01*
X223995271Y-109853333D01*
X224374143Y-109474167D01*
X224753014Y-109095000D01*
X224757340Y-108337116D01*
X224761666Y-107579232D01*
X224949166Y-107765848D01*
G37*
G36*
X223953336Y-105695003D02*
G01*
X224353333Y-106094739D01*
X224353333Y-106961821D01*
X224353333Y-107828902D01*
X224173894Y-108007784D01*
X224110853Y-108069868D01*
X224055855Y-108122597D01*
X224013280Y-108161882D01*
X223987506Y-108183637D01*
X223982227Y-108186667D01*
X223979996Y-108170489D01*
X223977896Y-108123915D01*
X223975964Y-108049878D01*
X223974239Y-107951317D01*
X223972757Y-107831165D01*
X223971555Y-107692359D01*
X223970671Y-107537835D01*
X223970142Y-107370529D01*
X223970000Y-107223916D01*
X223970000Y-106261166D01*
X223761677Y-106053344D01*
X223553355Y-105845522D01*
X223361807Y-106036526D01*
X223170259Y-106227531D01*
X223165962Y-107211265D01*
X223161666Y-108195000D01*
X222974166Y-108007144D01*
X222786666Y-107819289D01*
X222786666Y-106940342D01*
X222786666Y-106061395D01*
X223170002Y-105678330D01*
X223553339Y-105295266D01*
X223953336Y-105695003D01*
G37*
G36*
X225083857Y-105920758D02*
G01*
X225167230Y-105922836D01*
X225235209Y-105925943D01*
X225279965Y-105929786D01*
X225287515Y-105931003D01*
X225311382Y-105940226D01*
X225343606Y-105961269D01*
X225386956Y-105996553D01*
X225444200Y-106048505D01*
X225518107Y-106119549D01*
X225611446Y-106212107D01*
X225631265Y-106231984D01*
X225920000Y-106521962D01*
X225920000Y-106787647D01*
X225919744Y-106877511D01*
X225919039Y-106954378D01*
X225917975Y-107012661D01*
X225916642Y-107046770D01*
X225915691Y-107053333D01*
X225903306Y-107042001D01*
X225870257Y-107009894D01*
X225819413Y-106959849D01*
X225753639Y-106894701D01*
X225675803Y-106817287D01*
X225588771Y-106730442D01*
X225545000Y-106686667D01*
X225178617Y-106320000D01*
X224965975Y-106320000D01*
X224753333Y-106320000D01*
X224753333Y-106120000D01*
X224753333Y-105920000D01*
X224992916Y-105920000D01*
X225083857Y-105920758D01*
G37*
G36*
X221590969Y-108299305D02*
G01*
X221961938Y-108670000D01*
X222724302Y-108670000D01*
X222880123Y-108670284D01*
X223025237Y-108671096D01*
X223156345Y-108672379D01*
X223270148Y-108674075D01*
X223363348Y-108676125D01*
X223432644Y-108678472D01*
X223474738Y-108681057D01*
X223486666Y-108683422D01*
X223475379Y-108699115D01*
X223444202Y-108733769D01*
X223397160Y-108783127D01*
X223338279Y-108842931D01*
X223297559Y-108883422D01*
X223108451Y-109070000D01*
X222485059Y-109068943D01*
X222329087Y-109068246D01*
X222187991Y-109066759D01*
X222064990Y-109064567D01*
X221963302Y-109061755D01*
X221886146Y-109058406D01*
X221836740Y-109054603D01*
X221820000Y-109051572D01*
X221796652Y-109035456D01*
X221753809Y-108999118D01*
X221695336Y-108946107D01*
X221625103Y-108879975D01*
X221546977Y-108804274D01*
X221499166Y-108756979D01*
X221220000Y-108478701D01*
X221220000Y-108203656D01*
X221220000Y-107928611D01*
X221590969Y-108299305D01*
G37*
G36*
X222765697Y-105515966D02*
G01*
X222386666Y-105895266D01*
X222386666Y-106649300D01*
X222386399Y-106804206D01*
X222385635Y-106948360D01*
X222384428Y-107078448D01*
X222382833Y-107191157D01*
X222380906Y-107283175D01*
X222378701Y-107351189D01*
X222376274Y-107391887D01*
X222374166Y-107402552D01*
X222358815Y-107390922D01*
X222324694Y-107359359D01*
X222276092Y-107312006D01*
X222217296Y-107253003D01*
X222182500Y-107217428D01*
X222003333Y-107033085D01*
X222003333Y-106400447D01*
X222003796Y-106209754D01*
X222005195Y-106051770D01*
X222007548Y-105925883D01*
X222010871Y-105831481D01*
X222015181Y-105767953D01*
X222020496Y-105734685D01*
X222021782Y-105731404D01*
X222038469Y-105709538D01*
X222075246Y-105667999D01*
X222128544Y-105610594D01*
X222194796Y-105541131D01*
X222270434Y-105463420D01*
X222317432Y-105415833D01*
X222594632Y-105136667D01*
X222869680Y-105136667D01*
X223144728Y-105136667D01*
X222765697Y-105515966D01*
G37*
G36*
X225381795Y-111345750D02*
G01*
X225457403Y-111369292D01*
X225517875Y-111401733D01*
X225518532Y-111402226D01*
X225556806Y-111431097D01*
X225477730Y-111579715D01*
X225443886Y-111642878D01*
X225415899Y-111694278D01*
X225397409Y-111727279D01*
X225392147Y-111735790D01*
X225375076Y-111733344D01*
X225342052Y-111717454D01*
X225337749Y-111714957D01*
X225269348Y-111690394D01*
X225193834Y-111687782D01*
X225124156Y-111706468D01*
X225090879Y-111727346D01*
X225065081Y-111752415D01*
X225044822Y-111781930D01*
X225029454Y-111820010D01*
X225018331Y-111870774D01*
X225010805Y-111938343D01*
X225006228Y-112026836D01*
X225003953Y-112140373D01*
X225003333Y-112283073D01*
X225003333Y-112284433D01*
X225003333Y-112670000D01*
X224820000Y-112670000D01*
X224636666Y-112670000D01*
X224636666Y-112020000D01*
X224636666Y-111370000D01*
X224820000Y-111370000D01*
X225003333Y-111370000D01*
X225003333Y-111446279D01*
X225003333Y-111522557D01*
X225045391Y-111472574D01*
X225092602Y-111430126D01*
X225156715Y-111389531D01*
X225225746Y-111356975D01*
X225287708Y-111338639D01*
X225308838Y-111336667D01*
X225381795Y-111345750D01*
G37*
G36*
X220370000Y-110992619D02*
G01*
X220370000Y-111531905D01*
X220449320Y-111452584D01*
X220512866Y-111397284D01*
X220577467Y-111361700D01*
X220627335Y-111344573D01*
X220738261Y-111325594D01*
X220849301Y-111330442D01*
X220953434Y-111357138D01*
X221043642Y-111403705D01*
X221112908Y-111468165D01*
X221124774Y-111484756D01*
X221147540Y-111520729D01*
X221165817Y-111554665D01*
X221180162Y-111590718D01*
X221191133Y-111633043D01*
X221199284Y-111685794D01*
X221205175Y-111753125D01*
X221209361Y-111839193D01*
X221212399Y-111948150D01*
X221214846Y-112084152D01*
X221216054Y-112165833D01*
X221223258Y-112670000D01*
X221039488Y-112670000D01*
X220855718Y-112670000D01*
X220850359Y-112215833D01*
X220848354Y-112067859D01*
X220845646Y-111949491D01*
X220841391Y-111857003D01*
X220834742Y-111786670D01*
X220824855Y-111734765D01*
X220810883Y-111697561D01*
X220791981Y-111671332D01*
X220767304Y-111652352D01*
X220736006Y-111636894D01*
X220717254Y-111629179D01*
X220628758Y-111609981D01*
X220540759Y-111623835D01*
X220475941Y-111654995D01*
X220446046Y-111675147D01*
X220422355Y-111697370D01*
X220404151Y-111725590D01*
X220390716Y-111763729D01*
X220381334Y-111815713D01*
X220375288Y-111885464D01*
X220371861Y-111976907D01*
X220370337Y-112093966D01*
X220370000Y-112235019D01*
X220370000Y-112670000D01*
X220186666Y-112670000D01*
X220003333Y-112670000D01*
X220003333Y-111561667D01*
X220003333Y-110453333D01*
X220186666Y-110453333D01*
X220370000Y-110453333D01*
X220370000Y-110992619D01*
G37*
G36*
X228140571Y-111344064D02*
G01*
X228253958Y-111375095D01*
X228349697Y-111433004D01*
X228381690Y-111462685D01*
X228414850Y-111499203D01*
X228441700Y-111535312D01*
X228462972Y-111574990D01*
X228479399Y-111622218D01*
X228491716Y-111680978D01*
X228500657Y-111755250D01*
X228506953Y-111849013D01*
X228511340Y-111966249D01*
X228514551Y-112110937D01*
X228515882Y-112190833D01*
X228523375Y-112670000D01*
X228331000Y-112670000D01*
X228138625Y-112670000D01*
X228133479Y-112215833D01*
X228131793Y-112079893D01*
X228129961Y-111973100D01*
X228127665Y-111891266D01*
X228124581Y-111830207D01*
X228120390Y-111785735D01*
X228114771Y-111753664D01*
X228107401Y-111729808D01*
X228097961Y-111709980D01*
X228094176Y-111703333D01*
X228044811Y-111648622D01*
X227979530Y-111617333D01*
X227905522Y-111608862D01*
X227829976Y-111622606D01*
X227760081Y-111657959D01*
X227703027Y-111714319D01*
X227688237Y-111737435D01*
X227677630Y-111757999D01*
X227669416Y-111780220D01*
X227663291Y-111808435D01*
X227658950Y-111846980D01*
X227656089Y-111900194D01*
X227654404Y-111972412D01*
X227653590Y-112067972D01*
X227653342Y-112191211D01*
X227653333Y-112234769D01*
X227653333Y-112670000D01*
X227470000Y-112670000D01*
X227286666Y-112670000D01*
X227286666Y-112020000D01*
X227286666Y-111370000D01*
X227470000Y-111370000D01*
X227653333Y-111370000D01*
X227653333Y-111456803D01*
X227653333Y-111543607D01*
X227724166Y-111475282D01*
X227804368Y-111408253D01*
X227883718Y-111366602D01*
X227973958Y-111344843D01*
X228012117Y-111340763D01*
X228140571Y-111344064D01*
G37*
G36*
X219339267Y-111342067D02*
G01*
X219476081Y-111365848D01*
X219598371Y-111410718D01*
X219622833Y-111423595D01*
X219686666Y-111459471D01*
X219686666Y-111641462D01*
X219686666Y-111823453D01*
X219625013Y-111769321D01*
X219526230Y-111699301D01*
X219420369Y-111659175D01*
X219299447Y-111645958D01*
X219295000Y-111645946D01*
X219177775Y-111659860D01*
X219079556Y-111700831D01*
X219001650Y-111767842D01*
X218945362Y-111859879D01*
X218919818Y-111937425D01*
X218910335Y-112042537D01*
X218929696Y-112144932D01*
X218974496Y-112238307D01*
X219041331Y-112316361D01*
X219126798Y-112372792D01*
X219162648Y-112386990D01*
X219257082Y-112402803D01*
X219362551Y-112395521D01*
X219468838Y-112367728D01*
X219565722Y-112322007D01*
X219637063Y-112267039D01*
X219686666Y-112217436D01*
X219686666Y-112401667D01*
X219686229Y-112482726D01*
X219684121Y-112537066D01*
X219679146Y-112571301D01*
X219670110Y-112592041D01*
X219655817Y-112605899D01*
X219648893Y-112610648D01*
X219564278Y-112651227D01*
X219457341Y-112680102D01*
X219337311Y-112696316D01*
X219213420Y-112698910D01*
X219094898Y-112686928D01*
X219036666Y-112674138D01*
X218892538Y-112619219D01*
X218768814Y-112538778D01*
X218667307Y-112434305D01*
X218589827Y-112307289D01*
X218589340Y-112306252D01*
X218569703Y-112261160D01*
X218556862Y-112220092D01*
X218549406Y-112173940D01*
X218545924Y-112113595D01*
X218545005Y-112029947D01*
X218545000Y-112020000D01*
X218545740Y-111933535D01*
X218548904Y-111871279D01*
X218555901Y-111824123D01*
X218568143Y-111782957D01*
X218587041Y-111738674D01*
X218589340Y-111733747D01*
X218664823Y-111611138D01*
X218766069Y-111508318D01*
X218890771Y-111427100D01*
X219036622Y-111369296D01*
X219062359Y-111362186D01*
X219198002Y-111340479D01*
X219339267Y-111342067D01*
G37*
G36*
X223219421Y-111352100D02*
G01*
X223333552Y-111395905D01*
X223438457Y-111461528D01*
X223529495Y-111547997D01*
X223602027Y-111654340D01*
X223620799Y-111692926D01*
X223639857Y-111747663D01*
X223658529Y-111820560D01*
X223673017Y-111896618D01*
X223673944Y-111902813D01*
X223682898Y-112060657D01*
X223663872Y-112210618D01*
X223618139Y-112348300D01*
X223546969Y-112469305D01*
X223491863Y-112532795D01*
X223408759Y-112605062D01*
X223324005Y-112654178D01*
X223228139Y-112684079D01*
X223111704Y-112698702D01*
X223090184Y-112699903D01*
X222977920Y-112700147D01*
X222887829Y-112686559D01*
X222810495Y-112655949D01*
X222736504Y-112605126D01*
X222690881Y-112564631D01*
X222603333Y-112481831D01*
X222603333Y-112892582D01*
X222603333Y-113303333D01*
X222420000Y-113303333D01*
X222236666Y-113303333D01*
X222236666Y-112336667D01*
X222236666Y-111986563D01*
X222608314Y-111986563D01*
X222612962Y-112080332D01*
X222638636Y-112169902D01*
X222683719Y-112250191D01*
X222746596Y-112316120D01*
X222825649Y-112362606D01*
X222919263Y-112384569D01*
X222945000Y-112385633D01*
X223010925Y-112379279D01*
X223076289Y-112362989D01*
X223095142Y-112355583D01*
X223176925Y-112301994D01*
X223237899Y-112228891D01*
X223277824Y-112142246D01*
X223296462Y-112048027D01*
X223293576Y-111952204D01*
X223268928Y-111860747D01*
X223222278Y-111779623D01*
X223153390Y-111714804D01*
X223121473Y-111695762D01*
X223030969Y-111665335D01*
X222932688Y-111659479D01*
X222836874Y-111677260D01*
X222753770Y-111717742D01*
X222736693Y-111730868D01*
X222668564Y-111806750D01*
X222626310Y-111893676D01*
X222608314Y-111986563D01*
X222236666Y-111986563D01*
X222236666Y-111370000D01*
X222420000Y-111370000D01*
X222603333Y-111370000D01*
X222603333Y-111461667D01*
X222604787Y-111511879D01*
X222608539Y-111545175D01*
X222612175Y-111553333D01*
X222627408Y-111541921D01*
X222656008Y-111512965D01*
X222672795Y-111494363D01*
X222763448Y-111414499D01*
X222868077Y-111361312D01*
X222982043Y-111333832D01*
X223100705Y-111331085D01*
X223219421Y-111352100D01*
G37*
G36*
X226470214Y-111353376D02*
G01*
X226471819Y-111353678D01*
X226617772Y-111397007D01*
X226747758Y-111467251D01*
X226858179Y-111561694D01*
X226945437Y-111677623D01*
X226974903Y-111733321D01*
X226999576Y-111789023D01*
X227015076Y-111835820D01*
X227023535Y-111884921D01*
X227027084Y-111947537D01*
X227027810Y-112011667D01*
X227017723Y-112163028D01*
X226985057Y-112292223D01*
X226927744Y-112403359D01*
X226843716Y-112500544D01*
X226741292Y-112580994D01*
X226623299Y-112642337D01*
X226487139Y-112683106D01*
X226341872Y-112701957D01*
X226196560Y-112697543D01*
X226090844Y-112677581D01*
X225947120Y-112623047D01*
X225823506Y-112543007D01*
X225722081Y-112439136D01*
X225648939Y-112321485D01*
X225625129Y-112270473D01*
X225609669Y-112228162D01*
X225600777Y-112184758D01*
X225596669Y-112130471D01*
X225595561Y-112055506D01*
X225595546Y-112028333D01*
X225595793Y-112011690D01*
X225960400Y-112011690D01*
X225969693Y-112112450D01*
X226003463Y-112201843D01*
X226070999Y-112293072D01*
X226152432Y-112356057D01*
X226243947Y-112389672D01*
X226341729Y-112392793D01*
X226441966Y-112364295D01*
X226482873Y-112343218D01*
X226537623Y-112301767D01*
X226587649Y-112249060D01*
X226599539Y-112232729D01*
X226622031Y-112195248D01*
X226635625Y-112159649D01*
X226642503Y-112115650D01*
X226644844Y-112052971D01*
X226645000Y-112018400D01*
X226644091Y-111945935D01*
X226639794Y-111896573D01*
X226629749Y-111860098D01*
X226611597Y-111826296D01*
X226595000Y-111801862D01*
X226523152Y-111726411D01*
X226436080Y-111676883D01*
X226340126Y-111653995D01*
X226241636Y-111658465D01*
X226146954Y-111691010D01*
X226072544Y-111742783D01*
X226013178Y-111817871D01*
X225975346Y-111910502D01*
X225960400Y-112011690D01*
X225595793Y-112011690D01*
X225596887Y-111938131D01*
X225601657Y-111871235D01*
X225611223Y-111817685D01*
X225626951Y-111767518D01*
X225633740Y-111749973D01*
X225698203Y-111632214D01*
X225788163Y-111531440D01*
X225899330Y-111449681D01*
X226027410Y-111388965D01*
X226168112Y-111351323D01*
X226317145Y-111338783D01*
X226470214Y-111353376D01*
G37*
D13*
%TO.C,J3*%
X39750000Y-68120000D02*
X39720000Y-74120000D01*
X51690000Y-68120000D02*
X51720000Y-74120000D01*
D16*
%TO.C,C2*%
X55320000Y-97190000D02*
X64060000Y-97190000D01*
X55320000Y-97190000D02*
X55320000Y-70450000D01*
X64060000Y-97190000D02*
X64060000Y-70450000D01*
X55320000Y-70450000D02*
X64060000Y-70450000D01*
%TO.C,C4*%
X215190000Y-42510000D02*
X206450000Y-42510000D01*
X215190000Y-42510000D02*
X215190000Y-69250000D01*
X206450000Y-42510000D02*
X206450000Y-69250000D01*
X215190000Y-69250000D02*
X206450000Y-69250000D01*
D15*
%TO.C,FL1*%
X111730000Y-61920000D02*
X139730000Y-61920000D01*
X111730000Y-80320000D02*
X111730000Y-61920000D01*
D13*
X117230000Y-61320000D02*
X117230000Y-61320000D01*
X117230000Y-61420000D02*
X117230000Y-61420000D01*
D15*
X139730000Y-61920000D02*
X139730000Y-80320000D01*
X139730000Y-80320000D02*
X111730000Y-80320000D01*
D13*
X117230000Y-61420000D02*
G75*
G03*
X117230000Y-61320000I0J50000D01*
G01*
X117230000Y-61320000D02*
G75*
G03*
X117230000Y-61420000I0J-50000D01*
G01*
%TO.C,J5*%
X230380000Y-45260000D02*
X230350000Y-51260000D01*
X242320000Y-45260000D02*
X242350000Y-51260000D01*
D16*
%TO.C,C3*%
X64060000Y-42510000D02*
X55320000Y-42510000D01*
X64060000Y-42510000D02*
X64060000Y-69250000D01*
X55320000Y-42510000D02*
X55320000Y-69250000D01*
X64060000Y-69250000D02*
X55320000Y-69250000D01*
%TO.C,C5*%
X206450000Y-97190000D02*
X215190000Y-97190000D01*
X206450000Y-97190000D02*
X206450000Y-70450000D01*
X215190000Y-97190000D02*
X215190000Y-70450000D01*
X206450000Y-70450000D02*
X215190000Y-70450000D01*
%TO.C,C7*%
X108200000Y-50276300D02*
X67960000Y-50276300D01*
X108200000Y-50276300D02*
X108200000Y-92016300D01*
X67960000Y-50276300D02*
X67960000Y-92016300D01*
X108200000Y-92016300D02*
X67960000Y-92016300D01*
%TO.C,R2*%
X217660000Y-63460000D02*
X219540000Y-63460000D01*
X224300000Y-63460000D02*
X222420000Y-63460000D01*
X217660000Y-43220000D02*
X217660000Y-63460000D01*
X219540000Y-43220000D02*
X217660000Y-43220000D01*
X222420000Y-43220000D02*
X224300000Y-43220000D01*
X224300000Y-43220000D02*
X224300000Y-63460000D01*
D13*
%TO.C,J2*%
X51690000Y-96980000D02*
X51720000Y-90980000D01*
X39750000Y-96980000D02*
X39720000Y-90980000D01*
%TD*%
M02*
