%TF.GenerationSoftware,KiCad,Pcbnew,7.0.7*%
%TF.CreationDate,2023-09-25T09:53:38+02:00*%
%TF.ProjectId,GradientAmplifierFilter_V1,47726164-6965-46e7-9441-6d706c696669,rev?*%
%TF.SameCoordinates,Original*%
%TF.FileFunction,Copper,L3,Inr*%
%TF.FilePolarity,Positive*%
%FSLAX46Y46*%
G04 Gerber Fmt 4.6, Leading zero omitted, Abs format (unit mm)*
G04 Created by KiCad (PCBNEW 7.0.7) date 2023-09-25 09:53:38*
%MOMM*%
%LPD*%
G01*
G04 APERTURE LIST*
%TA.AperFunction,ComponentPad*%
%ADD10R,3.200000X8.000000*%
%TD*%
%TA.AperFunction,ComponentPad*%
%ADD11C,3.960000*%
%TD*%
%TA.AperFunction,ComponentPad*%
%ADD12C,2.200000*%
%TD*%
%TA.AperFunction,ComponentPad*%
%ADD13R,10.000000X8.000000*%
%TD*%
%TA.AperFunction,ComponentPad*%
%ADD14R,8.000000X8.000000*%
%TD*%
%TA.AperFunction,ComponentPad*%
%ADD15R,2.400000X2.400000*%
%TD*%
%TA.AperFunction,ComponentPad*%
%ADD16O,2.400000X2.400000*%
%TD*%
%TA.AperFunction,ComponentPad*%
%ADD17C,2.400000*%
%TD*%
%TA.AperFunction,ComponentPad*%
%ADD18O,1.400000X1.400000*%
%TD*%
%TA.AperFunction,ComponentPad*%
%ADD19C,1.400000*%
%TD*%
%TA.AperFunction,Profile*%
%ADD20C,0.150000*%
%TD*%
G04 APERTURE END LIST*
D10*
%TO.N,GradientIn+*%
%TO.C,U1*%
X32990000Y-56500000D03*
%TO.N,GradientOut+*%
X48790000Y-47500000D03*
%TD*%
D11*
%TO.N,GradientIn-*%
%TO.C,J4*%
X165220000Y-94890000D03*
X165220000Y-84090000D03*
X170430000Y-94890000D03*
X170430000Y-84090000D03*
X175640000Y-94890000D03*
X175640000Y-84090000D03*
%TD*%
D12*
%TO.N,GradientIn+*%
%TO.C,C1*%
X32500000Y-74000000D03*
%TO.N,Net-(C1-Pad2)*%
X47500000Y-74000000D03*
%TD*%
D11*
%TO.N,GradientIn+*%
%TO.C,J1*%
X380000Y-38610000D03*
X380000Y-49410000D03*
X-4830000Y-38610000D03*
X-4830000Y-49410000D03*
X-10040000Y-38610000D03*
X-10040000Y-49410000D03*
%TD*%
D13*
%TO.N,Net-(C2-Pad1)*%
%TO.C,L1*%
X102600000Y-51150000D03*
D14*
%TO.N,GradientOut+*%
X112120000Y-34650000D03*
%TD*%
D15*
%TO.N,Net-(C2-Pad2)*%
%TO.C,R3*%
X147050000Y-43200000D03*
D16*
%TO.N,Earth*%
X147050000Y-87200000D03*
%TD*%
D15*
%TO.N,Net-(C1-Pad2)*%
%TO.C,R1*%
X66240000Y-79780000D03*
D16*
%TO.N,GradientOut+*%
X66240000Y-35780000D03*
%TD*%
D11*
%TO.N,Earth*%
%TO.C,J3*%
X-10040000Y-71000000D03*
X-10040000Y-60200000D03*
X-4830000Y-71000000D03*
X-4830000Y-60200000D03*
X380000Y-71000000D03*
X380000Y-60200000D03*
%TD*%
D15*
%TO.N,Earth*%
%TO.C,R2*%
X123800000Y-77050000D03*
D16*
%TO.N,Net-(C4-Pad2)*%
X79800000Y-77050000D03*
%TD*%
D17*
%TO.N,GradientOut+*%
%TO.C,C4*%
X85000000Y-31750000D03*
%TO.N,Net-(C4-Pad2)*%
X85000000Y-54250000D03*
%TD*%
%TO.N,Net-(C2-Pad1)*%
%TO.C,C2*%
X128000000Y-62500000D03*
%TO.N,Net-(C2-Pad2)*%
X128000000Y-47500000D03*
%TD*%
D11*
%TO.N,GradientOut+*%
%TO.C,J5*%
X165220000Y-49410000D03*
X165220000Y-38610000D03*
X170430000Y-49410000D03*
X170430000Y-38610000D03*
X175640000Y-49410000D03*
X175640000Y-38610000D03*
%TD*%
D17*
%TO.N,GradientIn+*%
%TO.C,C3*%
X18030000Y-49270000D03*
%TO.N,Net-(C3-Pad2)*%
X18030000Y-71770000D03*
%TD*%
D18*
%TO.N,Net-(C3-Pad2)*%
%TO.C,R4*%
X18030000Y-85920000D03*
D19*
%TO.N,GradientIn-*%
X18030000Y-93540000D03*
%TD*%
D11*
%TO.N,GradientIn-*%
%TO.C,J2*%
X380000Y-84330000D03*
X380000Y-95130000D03*
X-4830000Y-84330000D03*
X-4830000Y-95130000D03*
X-10040000Y-84330000D03*
X-10040000Y-95130000D03*
%TD*%
D20*
X-14990000Y-23690000D02*
X180590000Y-23690000D01*
X180590000Y-110050000D01*
X-14990000Y-110050000D01*
X-14990000Y-23690000D01*
X-3070000Y-28770000D02*
G75*
G03*
X-3070000Y-28770000I-4300000J0D01*
G01*
X174600000Y-104970000D02*
G75*
G03*
X174600000Y-104970000I-4300000J0D01*
G01*
X174600000Y-28770000D02*
G75*
G03*
X174600000Y-28770000I-4300000J0D01*
G01*
X-3070000Y-104970000D02*
G75*
G03*
X-3070000Y-104970000I-4300000J0D01*
G01*
M02*
