%TF.GenerationSoftware,KiCad,Pcbnew,7.0.7*%
%TF.CreationDate,2023-09-25T09:53:38+02:00*%
%TF.ProjectId,GradientAmplifierFilter_V1,47726164-6965-46e7-9441-6d706c696669,rev?*%
%TF.SameCoordinates,Original*%
%TF.FileFunction,Copper,L1,Top*%
%TF.FilePolarity,Positive*%
%FSLAX46Y46*%
G04 Gerber Fmt 4.6, Leading zero omitted, Abs format (unit mm)*
G04 Created by KiCad (PCBNEW 7.0.7) date 2023-09-25 09:53:38*
%MOMM*%
%LPD*%
G01*
G04 APERTURE LIST*
%TA.AperFunction,ComponentPad*%
%ADD10R,3.200000X8.000000*%
%TD*%
%TA.AperFunction,ComponentPad*%
%ADD11C,3.960000*%
%TD*%
%TA.AperFunction,ComponentPad*%
%ADD12C,2.200000*%
%TD*%
%TA.AperFunction,ComponentPad*%
%ADD13R,10.000000X8.000000*%
%TD*%
%TA.AperFunction,ComponentPad*%
%ADD14R,8.000000X8.000000*%
%TD*%
%TA.AperFunction,ComponentPad*%
%ADD15R,2.400000X2.400000*%
%TD*%
%TA.AperFunction,ComponentPad*%
%ADD16O,2.400000X2.400000*%
%TD*%
%TA.AperFunction,ComponentPad*%
%ADD17C,2.400000*%
%TD*%
%TA.AperFunction,ComponentPad*%
%ADD18O,1.400000X1.400000*%
%TD*%
%TA.AperFunction,ComponentPad*%
%ADD19C,1.400000*%
%TD*%
%TA.AperFunction,Conductor*%
%ADD20C,5.000000*%
%TD*%
%TA.AperFunction,Profile*%
%ADD21C,0.150000*%
%TD*%
G04 APERTURE END LIST*
D10*
%TO.P,U1,1,1*%
%TO.N,GradientIn+*%
X32990000Y-56500000D03*
%TO.P,U1,2,2*%
%TO.N,GradientOut+*%
X48790000Y-47500000D03*
%TD*%
D11*
%TO.P,J4,1,1*%
%TO.N,GradientIn-*%
X165220000Y-94890000D03*
%TO.P,J4,2,2*%
X165220000Y-84090000D03*
%TO.P,J4,3,3*%
X170430000Y-94890000D03*
%TO.P,J4,4,4*%
X170430000Y-84090000D03*
%TO.P,J4,5,5*%
X175640000Y-94890000D03*
%TO.P,J4,6,6*%
X175640000Y-84090000D03*
%TD*%
D12*
%TO.P,C1,1*%
%TO.N,GradientIn+*%
X32500000Y-74000000D03*
%TO.P,C1,2*%
%TO.N,Net-(C1-Pad2)*%
X47500000Y-74000000D03*
%TD*%
D11*
%TO.P,J1,1,1*%
%TO.N,GradientIn+*%
X380000Y-38610000D03*
%TO.P,J1,2,2*%
X380000Y-49410000D03*
%TO.P,J1,3,3*%
X-4830000Y-38610000D03*
%TO.P,J1,4,4*%
X-4830000Y-49410000D03*
%TO.P,J1,5,5*%
X-10040000Y-38610000D03*
%TO.P,J1,6,6*%
X-10040000Y-49410000D03*
%TD*%
D13*
%TO.P,L1,1*%
%TO.N,Net-(C2-Pad1)*%
X102600000Y-51150000D03*
D14*
%TO.P,L1,2*%
%TO.N,GradientOut+*%
X112120000Y-34650000D03*
%TD*%
D15*
%TO.P,R3,1*%
%TO.N,Net-(C2-Pad2)*%
X147050000Y-43200000D03*
D16*
%TO.P,R3,2*%
%TO.N,Earth*%
X147050000Y-87200000D03*
%TD*%
D15*
%TO.P,R1,1*%
%TO.N,Net-(C1-Pad2)*%
X66240000Y-79780000D03*
D16*
%TO.P,R1,2*%
%TO.N,GradientOut+*%
X66240000Y-35780000D03*
%TD*%
D11*
%TO.P,J3,1,1*%
%TO.N,Earth*%
X-10040000Y-71000000D03*
%TO.P,J3,2,2*%
X-10040000Y-60200000D03*
%TO.P,J3,3,3*%
X-4830000Y-71000000D03*
%TO.P,J3,4,4*%
X-4830000Y-60200000D03*
%TO.P,J3,5,5*%
X380000Y-71000000D03*
%TO.P,J3,6,6*%
X380000Y-60200000D03*
%TD*%
D15*
%TO.P,R2,1*%
%TO.N,Earth*%
X123800000Y-77050000D03*
D16*
%TO.P,R2,2*%
%TO.N,Net-(C4-Pad2)*%
X79800000Y-77050000D03*
%TD*%
D17*
%TO.P,C4,1*%
%TO.N,GradientOut+*%
X85000000Y-31750000D03*
%TO.P,C4,2*%
%TO.N,Net-(C4-Pad2)*%
X85000000Y-54250000D03*
%TD*%
%TO.P,C2,1*%
%TO.N,Net-(C2-Pad1)*%
X128000000Y-62500000D03*
%TO.P,C2,2*%
%TO.N,Net-(C2-Pad2)*%
X128000000Y-47500000D03*
%TD*%
D11*
%TO.P,J5,1,1*%
%TO.N,GradientOut+*%
X165220000Y-49410000D03*
%TO.P,J5,2,2*%
X165220000Y-38610000D03*
%TO.P,J5,3,3*%
X170430000Y-49410000D03*
%TO.P,J5,4,4*%
X170430000Y-38610000D03*
%TO.P,J5,5,5*%
X175640000Y-49410000D03*
%TO.P,J5,6,6*%
X175640000Y-38610000D03*
%TD*%
D17*
%TO.P,C3,1*%
%TO.N,GradientIn+*%
X18030000Y-49270000D03*
%TO.P,C3,2*%
%TO.N,Net-(C3-Pad2)*%
X18030000Y-71770000D03*
%TD*%
D18*
%TO.P,R4,2*%
%TO.N,Net-(C3-Pad2)*%
X18030000Y-85920000D03*
D19*
%TO.P,R4,1*%
%TO.N,GradientIn-*%
X18030000Y-93540000D03*
%TD*%
D11*
%TO.P,J2,1,1*%
%TO.N,GradientIn-*%
X380000Y-84330000D03*
%TO.P,J2,2,2*%
X380000Y-95130000D03*
%TO.P,J2,3,3*%
X-4830000Y-84330000D03*
%TO.P,J2,4,4*%
X-4830000Y-95130000D03*
%TO.P,J2,5,5*%
X-10040000Y-84330000D03*
%TO.P,J2,6,6*%
X-10040000Y-95130000D03*
%TD*%
D20*
%TO.N,Net-(C3-Pad2)*%
X18030000Y-71770000D02*
X18030000Y-85920000D01*
%TO.N,Net-(C1-Pad2)*%
X47500000Y-74000000D02*
X51000000Y-74000000D01*
X51000000Y-74000000D02*
X56220000Y-79220000D01*
X56220000Y-79220000D02*
X56220000Y-79780000D01*
X56220000Y-79780000D02*
X66240000Y-79780000D01*
%TO.N,Net-(C2-Pad1)*%
X119500000Y-62500000D02*
X128000000Y-62500000D01*
X102600000Y-51150000D02*
X108150000Y-51150000D01*
X108150000Y-51150000D02*
X119500000Y-62500000D01*
%TO.N,Net-(C2-Pad2)*%
X135500000Y-47500000D02*
X139800000Y-43200000D01*
X139800000Y-43200000D02*
X147050000Y-43200000D01*
X128000000Y-47500000D02*
X135500000Y-47500000D01*
%TO.N,Net-(C4-Pad2)*%
X85000000Y-64000000D02*
X85000000Y-54250000D01*
X79800000Y-69200000D02*
X85000000Y-64000000D01*
X79800000Y-77050000D02*
X79800000Y-69200000D01*
%TD*%
D21*
X-14990000Y-23690000D02*
X180590000Y-23690000D01*
X180590000Y-110050000D01*
X-14990000Y-110050000D01*
X-14990000Y-23690000D01*
X-3070000Y-28770000D02*
G75*
G03*
X-3070000Y-28770000I-4300000J0D01*
G01*
X174600000Y-104970000D02*
G75*
G03*
X174600000Y-104970000I-4300000J0D01*
G01*
X174600000Y-28770000D02*
G75*
G03*
X174600000Y-28770000I-4300000J0D01*
G01*
X-3070000Y-104970000D02*
G75*
G03*
X-3070000Y-104970000I-4300000J0D01*
G01*
M02*
