%TF.GenerationSoftware,KiCad,Pcbnew,7.0.7*%
%TF.CreationDate,2023-12-18T11:14:39+01:00*%
%TF.ProjectId,PureDevices_IO_Expander,50757265-4465-4766-9963-65735f494f5f,rev?*%
%TF.SameCoordinates,Original*%
%TF.FileFunction,Copper,L1,Top*%
%TF.FilePolarity,Positive*%
%FSLAX46Y46*%
G04 Gerber Fmt 4.6, Leading zero omitted, Abs format (unit mm)*
G04 Created by KiCad (PCBNEW 7.0.7) date 2023-12-18 11:14:39*
%MOMM*%
%LPD*%
G01*
G04 APERTURE LIST*
G04 Aperture macros list*
%AMRoundRect*
0 Rectangle with rounded corners*
0 $1 Rounding radius*
0 $2 $3 $4 $5 $6 $7 $8 $9 X,Y pos of 4 corners*
0 Add a 4 corners polygon primitive as box body*
4,1,4,$2,$3,$4,$5,$6,$7,$8,$9,$2,$3,0*
0 Add four circle primitives for the rounded corners*
1,1,$1+$1,$2,$3*
1,1,$1+$1,$4,$5*
1,1,$1+$1,$6,$7*
1,1,$1+$1,$8,$9*
0 Add four rect primitives between the rounded corners*
20,1,$1+$1,$2,$3,$4,$5,0*
20,1,$1+$1,$4,$5,$6,$7,0*
20,1,$1+$1,$6,$7,$8,$9,0*
20,1,$1+$1,$8,$9,$2,$3,0*%
G04 Aperture macros list end*
%TA.AperFunction,ComponentPad*%
%ADD10C,2.740000*%
%TD*%
%TA.AperFunction,ComponentPad*%
%ADD11C,2.240000*%
%TD*%
%TA.AperFunction,ComponentPad*%
%ADD12C,1.700000*%
%TD*%
%TA.AperFunction,ComponentPad*%
%ADD13RoundRect,0.250000X-0.600000X-0.600000X0.600000X-0.600000X0.600000X0.600000X-0.600000X0.600000X0*%
%TD*%
%TA.AperFunction,ViaPad*%
%ADD14C,6.400000*%
%TD*%
%TA.AperFunction,Conductor*%
%ADD15C,0.250000*%
%TD*%
G04 APERTURE END LIST*
D10*
%TO.P,J12,2,Ext1*%
%TO.N,/GND*%
X99060000Y-38100000D03*
X93980000Y-38100000D03*
X99060000Y-33020000D03*
X93980000Y-33020000D03*
D11*
%TO.P,J12,1,In1*%
%TO.N,/OUT6*%
X96520000Y-35560000D03*
%TD*%
D10*
%TO.P,J11,2,Ext1*%
%TO.N,/GND*%
X99060000Y-50800000D03*
X93980000Y-50800000D03*
X99060000Y-45720000D03*
X93980000Y-45720000D03*
D11*
%TO.P,J11,1,In1*%
%TO.N,/OUT5*%
X96520000Y-48260000D03*
%TD*%
D10*
%TO.P,J10,2,Ext1*%
%TO.N,/GND*%
X99060000Y-63500000D03*
X93980000Y-63500000D03*
X99060000Y-58420000D03*
X93980000Y-58420000D03*
D11*
%TO.P,J10,1,In1*%
%TO.N,/OUT4*%
X96520000Y-60960000D03*
%TD*%
D10*
%TO.P,J9,2,Ext1*%
%TO.N,/GND*%
X99060000Y-76200000D03*
X93980000Y-76200000D03*
X99060000Y-71120000D03*
X93980000Y-71120000D03*
D11*
%TO.P,J9,1,In1*%
%TO.N,/OUT3*%
X96520000Y-73660000D03*
%TD*%
%TO.P,J8,1,In1*%
%TO.N,/OUT2*%
X96520000Y-86360000D03*
D10*
%TO.P,J8,2,Ext1*%
%TO.N,/GND*%
X93980000Y-83820000D03*
X99060000Y-83820000D03*
X93980000Y-88900000D03*
X99060000Y-88900000D03*
%TD*%
%TO.P,J7,2,Ext1*%
%TO.N,/GND*%
X99060000Y-101600000D03*
X93980000Y-101600000D03*
X99060000Y-96520000D03*
X93980000Y-96520000D03*
D11*
%TO.P,J7,1,In1*%
%TO.N,/OUT1*%
X96520000Y-99060000D03*
%TD*%
D10*
%TO.P,J6,2,Ext1*%
%TO.N,/GND*%
X73660000Y-38100000D03*
X68580000Y-38100000D03*
X73660000Y-33020000D03*
X68580000Y-33020000D03*
D11*
%TO.P,J6,1,In1*%
%TO.N,/In6*%
X71120000Y-35560000D03*
%TD*%
D10*
%TO.P,J5,2,Ext1*%
%TO.N,/GND*%
X73660000Y-50800000D03*
X68580000Y-50800000D03*
X73660000Y-45720000D03*
X68580000Y-45720000D03*
D11*
%TO.P,J5,1,In1*%
%TO.N,/In5*%
X71120000Y-48260000D03*
%TD*%
D10*
%TO.P,J4,2,Ext1*%
%TO.N,/GND*%
X73660000Y-63500000D03*
X68580000Y-63500000D03*
X73660000Y-58420000D03*
X68580000Y-58420000D03*
D11*
%TO.P,J4,1,In1*%
%TO.N,/In4*%
X71120000Y-60960000D03*
%TD*%
D10*
%TO.P,J3,2,Ext1*%
%TO.N,/GND*%
X73660000Y-76200000D03*
X68580000Y-76200000D03*
X73660000Y-71120000D03*
X68580000Y-71120000D03*
D11*
%TO.P,J3,1,In1*%
%TO.N,/In3*%
X71120000Y-73660000D03*
%TD*%
D10*
%TO.P,J2,2,Ext1*%
%TO.N,/GND*%
X73660000Y-88900000D03*
X68580000Y-88900000D03*
X73660000Y-83820000D03*
X68580000Y-83820000D03*
D11*
%TO.P,J2,1,In1*%
%TO.N,/In2*%
X71120000Y-86360000D03*
%TD*%
D10*
%TO.P,J1,2,Ext1*%
%TO.N,/GND*%
X73660000Y-101600000D03*
X68580000Y-101600000D03*
X73660000Y-96520000D03*
X68580000Y-96520000D03*
D11*
%TO.P,J1,1,In1*%
%TO.N,/In1*%
X71120000Y-99060000D03*
%TD*%
D12*
%TO.P,J0,20,Pin_20*%
%TO.N,/In1*%
X43180000Y-76200000D03*
%TO.P,J0,19,Pin_19*%
%TO.N,/3.3*%
X40640000Y-76200000D03*
%TO.P,J0,18,Pin_18*%
%TO.N,/In2*%
X43180000Y-73660000D03*
%TO.P,J0,17,Pin_17*%
%TO.N,/GND*%
X40640000Y-73660000D03*
%TO.P,J0,16,Pin_16*%
%TO.N,/In3*%
X43180000Y-71120000D03*
%TO.P,J0,15,Pin_15*%
%TO.N,/OUT1*%
X40640000Y-71120000D03*
%TO.P,J0,14,Pin_14*%
%TO.N,/GND*%
X43180000Y-68580000D03*
%TO.P,J0,13,Pin_13*%
%TO.N,/OUT2*%
X40640000Y-68580000D03*
%TO.P,J0,12,Pin_12*%
%TO.N,/GND*%
X43180000Y-66040000D03*
%TO.P,J0,11,Pin_11*%
%TO.N,/OUT3*%
X40640000Y-66040000D03*
%TO.P,J0,10,Pin_10*%
%TO.N,/GND*%
X43180000Y-63500000D03*
%TO.P,J0,9,Pin_9*%
%TO.N,/OUT4*%
X40640000Y-63500000D03*
%TO.P,J0,8,Pin_8*%
%TO.N,/GND*%
X43180000Y-60960000D03*
%TO.P,J0,7,Pin_7*%
%TO.N,/OUT5*%
X40640000Y-60960000D03*
%TO.P,J0,6,Pin_6*%
%TO.N,/In4*%
X43180000Y-58420000D03*
%TO.P,J0,5,Pin_5*%
%TO.N,/OUT6*%
X40640000Y-58420000D03*
%TO.P,J0,4,Pin_4*%
%TO.N,/In5*%
X43180000Y-55880000D03*
%TO.P,J0,3,Pin_3*%
%TO.N,/GND*%
X40640000Y-55880000D03*
%TO.P,J0,2,Pin_2*%
%TO.N,/In6*%
X43180000Y-53340000D03*
D13*
%TO.P,J0,1,Pin_1*%
%TO.N,/GND*%
X40640000Y-53340000D03*
%TD*%
D14*
%TO.N,/GND*%
X111760000Y-101600000D03*
X111760000Y-25400000D03*
X40640000Y-25400000D03*
X40640000Y-101600000D03*
%TD*%
D15*
%TO.N,/In4*%
X60960000Y-60960000D02*
X71120000Y-60960000D01*
X58420000Y-58420000D02*
X60960000Y-60960000D01*
X43180000Y-58420000D02*
X58420000Y-58420000D01*
%TO.N,/In5*%
X50800000Y-55880000D02*
X58420000Y-48260000D01*
X58420000Y-48260000D02*
X71120000Y-48260000D01*
X43180000Y-55880000D02*
X50800000Y-55880000D01*
%TO.N,/In6*%
X63500000Y-35560000D02*
X71120000Y-35560000D01*
X45720000Y-53340000D02*
X63500000Y-35560000D01*
X43180000Y-53340000D02*
X45720000Y-53340000D01*
%TO.N,/In3*%
X66040000Y-73660000D02*
X71120000Y-73660000D01*
X63500000Y-71120000D02*
X66040000Y-73660000D01*
X43180000Y-71120000D02*
X63500000Y-71120000D01*
%TO.N,/In2*%
X55880000Y-86360000D02*
X71120000Y-86360000D01*
X43180000Y-73660000D02*
X55880000Y-86360000D01*
%TO.N,/In1*%
X43180000Y-76200000D02*
X66040000Y-99060000D01*
X66040000Y-99060000D02*
X71120000Y-99060000D01*
%TD*%
%TA.AperFunction,Conductor*%
%TO.N,/GND*%
G36*
X41242470Y-73909363D02*
G01*
X41248949Y-73915396D01*
X41754925Y-74421373D01*
X41808119Y-74345405D01*
X41862696Y-74301781D01*
X41932195Y-74294588D01*
X41994549Y-74326110D01*
X42011269Y-74345405D01*
X42141505Y-74531401D01*
X42141506Y-74531402D01*
X42308597Y-74698493D01*
X42308603Y-74698498D01*
X42494158Y-74828425D01*
X42537783Y-74883002D01*
X42544977Y-74952500D01*
X42513454Y-75014855D01*
X42494158Y-75031575D01*
X42308597Y-75161505D01*
X42141508Y-75328594D01*
X42011574Y-75514159D01*
X41956997Y-75557784D01*
X41887498Y-75564976D01*
X41825144Y-75533454D01*
X41808424Y-75514158D01*
X41807325Y-75512589D01*
X41693480Y-75350000D01*
X41678494Y-75328597D01*
X41511402Y-75161506D01*
X41511401Y-75161505D01*
X41325405Y-75031269D01*
X41281781Y-74976692D01*
X41274588Y-74907193D01*
X41306110Y-74844839D01*
X41325405Y-74828119D01*
X41401373Y-74774925D01*
X40899116Y-74272669D01*
X40865631Y-74211346D01*
X40870615Y-74141655D01*
X40907640Y-74092193D01*
X40906398Y-74090759D01*
X40939730Y-74061877D01*
X41021761Y-73990798D01*
X41056954Y-73936037D01*
X41109755Y-73890283D01*
X41178914Y-73880339D01*
X41242470Y-73909363D01*
G37*
%TD.AperFunction*%
%TA.AperFunction,Conductor*%
G36*
X41994855Y-71786546D02*
G01*
X42011575Y-71805842D01*
X42141501Y-71991396D01*
X42141506Y-71991402D01*
X42308597Y-72158493D01*
X42308603Y-72158498D01*
X42494158Y-72288425D01*
X42537783Y-72343002D01*
X42544977Y-72412500D01*
X42513454Y-72474855D01*
X42494158Y-72491575D01*
X42308597Y-72621505D01*
X42141505Y-72788597D01*
X42011269Y-72974595D01*
X41956692Y-73018220D01*
X41887194Y-73025414D01*
X41824839Y-72993891D01*
X41808119Y-72974595D01*
X41754925Y-72898626D01*
X41754925Y-72898625D01*
X41248949Y-73404602D01*
X41187626Y-73438087D01*
X41117934Y-73433103D01*
X41062001Y-73391231D01*
X41056953Y-73383961D01*
X41021761Y-73329202D01*
X40906398Y-73229241D01*
X40908708Y-73226574D01*
X40874005Y-73186528D01*
X40864058Y-73117370D01*
X40893080Y-73053813D01*
X40899116Y-73047330D01*
X41401373Y-72545073D01*
X41401373Y-72545072D01*
X41325405Y-72491880D01*
X41281780Y-72437304D01*
X41274586Y-72367805D01*
X41306108Y-72305451D01*
X41325399Y-72288734D01*
X41511401Y-72158495D01*
X41678495Y-71991401D01*
X41808424Y-71805842D01*
X41863002Y-71762217D01*
X41932500Y-71755023D01*
X41994855Y-71786546D01*
G37*
%TD.AperFunction*%
%TA.AperFunction,Conductor*%
G36*
X42702064Y-68806894D02*
G01*
X42757998Y-68848765D01*
X42763039Y-68856025D01*
X42763048Y-68856039D01*
X42798239Y-68910798D01*
X42913602Y-69010759D01*
X42911293Y-69013422D01*
X42946006Y-69053499D01*
X42955935Y-69122660D01*
X42926898Y-69186210D01*
X42920882Y-69192669D01*
X42418625Y-69694925D01*
X42494594Y-69748119D01*
X42538219Y-69802696D01*
X42545413Y-69872194D01*
X42513890Y-69934549D01*
X42494595Y-69951269D01*
X42308594Y-70081508D01*
X42141505Y-70248597D01*
X42011575Y-70434158D01*
X41956998Y-70477783D01*
X41887500Y-70484977D01*
X41825145Y-70453454D01*
X41808425Y-70434158D01*
X41678494Y-70248597D01*
X41511402Y-70081506D01*
X41511396Y-70081501D01*
X41325842Y-69951575D01*
X41282217Y-69896998D01*
X41275023Y-69827500D01*
X41306546Y-69765145D01*
X41325842Y-69748425D01*
X41402248Y-69694925D01*
X41511401Y-69618495D01*
X41678495Y-69451401D01*
X41808732Y-69265403D01*
X41863307Y-69221780D01*
X41932805Y-69214586D01*
X41995160Y-69246109D01*
X42011880Y-69265405D01*
X42065073Y-69341373D01*
X42571050Y-68835395D01*
X42632373Y-68801910D01*
X42702064Y-68806894D01*
G37*
%TD.AperFunction*%
%TA.AperFunction,Conductor*%
G36*
X42702064Y-66266894D02*
G01*
X42757998Y-66308765D01*
X42763039Y-66316025D01*
X42763048Y-66316039D01*
X42798239Y-66370798D01*
X42913602Y-66470759D01*
X42911293Y-66473422D01*
X42946006Y-66513499D01*
X42955935Y-66582660D01*
X42926898Y-66646210D01*
X42920882Y-66652669D01*
X42418625Y-67154925D01*
X42495031Y-67208425D01*
X42538655Y-67263002D01*
X42545848Y-67332501D01*
X42514326Y-67394855D01*
X42495029Y-67411576D01*
X42418625Y-67465072D01*
X42920883Y-67967330D01*
X42954368Y-68028653D01*
X42949384Y-68098345D01*
X42912357Y-68147805D01*
X42913602Y-68149241D01*
X42798238Y-68249202D01*
X42763046Y-68303962D01*
X42710242Y-68349717D01*
X42641083Y-68359660D01*
X42577528Y-68330634D01*
X42571050Y-68324603D01*
X42065073Y-67818626D01*
X42011881Y-67894594D01*
X41957304Y-67938219D01*
X41887806Y-67945413D01*
X41825451Y-67913891D01*
X41808730Y-67894594D01*
X41678494Y-67708597D01*
X41511402Y-67541506D01*
X41511396Y-67541501D01*
X41325842Y-67411575D01*
X41282217Y-67356998D01*
X41275023Y-67287500D01*
X41306546Y-67225145D01*
X41325842Y-67208425D01*
X41402248Y-67154925D01*
X41511401Y-67078495D01*
X41678495Y-66911401D01*
X41808732Y-66725403D01*
X41863307Y-66681780D01*
X41932805Y-66674586D01*
X41995160Y-66706109D01*
X42011880Y-66725405D01*
X42065073Y-66801373D01*
X42571050Y-66295395D01*
X42632373Y-66261910D01*
X42702064Y-66266894D01*
G37*
%TD.AperFunction*%
%TA.AperFunction,Conductor*%
G36*
X42702064Y-63726894D02*
G01*
X42757998Y-63768765D01*
X42763039Y-63776025D01*
X42763048Y-63776039D01*
X42798239Y-63830798D01*
X42913602Y-63930759D01*
X42911293Y-63933422D01*
X42946006Y-63973499D01*
X42955935Y-64042660D01*
X42926898Y-64106210D01*
X42920882Y-64112669D01*
X42418625Y-64614925D01*
X42495031Y-64668425D01*
X42538655Y-64723002D01*
X42545848Y-64792501D01*
X42514326Y-64854855D01*
X42495029Y-64871576D01*
X42418625Y-64925072D01*
X42920883Y-65427330D01*
X42954368Y-65488653D01*
X42949384Y-65558345D01*
X42912357Y-65607805D01*
X42913602Y-65609241D01*
X42798238Y-65709202D01*
X42763046Y-65763962D01*
X42710242Y-65809717D01*
X42641083Y-65819660D01*
X42577528Y-65790634D01*
X42571050Y-65784603D01*
X42065073Y-65278626D01*
X42011881Y-65354594D01*
X41957304Y-65398219D01*
X41887806Y-65405413D01*
X41825451Y-65373891D01*
X41808730Y-65354594D01*
X41678494Y-65168597D01*
X41511402Y-65001506D01*
X41511396Y-65001501D01*
X41325842Y-64871575D01*
X41282217Y-64816998D01*
X41275023Y-64747500D01*
X41306546Y-64685145D01*
X41325842Y-64668425D01*
X41402248Y-64614925D01*
X41511401Y-64538495D01*
X41678495Y-64371401D01*
X41808732Y-64185403D01*
X41863307Y-64141780D01*
X41932805Y-64134586D01*
X41995160Y-64166109D01*
X42011880Y-64185405D01*
X42065073Y-64261373D01*
X42571050Y-63755395D01*
X42632373Y-63721910D01*
X42702064Y-63726894D01*
G37*
%TD.AperFunction*%
%TA.AperFunction,Conductor*%
G36*
X42702064Y-61186894D02*
G01*
X42757998Y-61228765D01*
X42763039Y-61236025D01*
X42763048Y-61236039D01*
X42798239Y-61290798D01*
X42913602Y-61390759D01*
X42911293Y-61393422D01*
X42946006Y-61433499D01*
X42955935Y-61502660D01*
X42926898Y-61566210D01*
X42920882Y-61572669D01*
X42418625Y-62074925D01*
X42495031Y-62128425D01*
X42538655Y-62183002D01*
X42545848Y-62252501D01*
X42514326Y-62314855D01*
X42495029Y-62331576D01*
X42418625Y-62385072D01*
X42920883Y-62887330D01*
X42954368Y-62948653D01*
X42949384Y-63018345D01*
X42912357Y-63067805D01*
X42913602Y-63069241D01*
X42798238Y-63169202D01*
X42763046Y-63223962D01*
X42710242Y-63269717D01*
X42641083Y-63279660D01*
X42577528Y-63250634D01*
X42571050Y-63244603D01*
X42065073Y-62738626D01*
X42011881Y-62814594D01*
X41957304Y-62858219D01*
X41887806Y-62865413D01*
X41825451Y-62833891D01*
X41808730Y-62814594D01*
X41678494Y-62628597D01*
X41511402Y-62461506D01*
X41511396Y-62461501D01*
X41325842Y-62331575D01*
X41282217Y-62276998D01*
X41275023Y-62207500D01*
X41306546Y-62145145D01*
X41325842Y-62128425D01*
X41402248Y-62074925D01*
X41511401Y-61998495D01*
X41678495Y-61831401D01*
X41808732Y-61645403D01*
X41863307Y-61601780D01*
X41932805Y-61594586D01*
X41995160Y-61626109D01*
X42011880Y-61645405D01*
X42065073Y-61721373D01*
X42571050Y-61215395D01*
X42632373Y-61181910D01*
X42702064Y-61186894D01*
G37*
%TD.AperFunction*%
%TA.AperFunction,Conductor*%
G36*
X41994855Y-59086546D02*
G01*
X42011575Y-59105842D01*
X42141500Y-59291395D01*
X42141505Y-59291401D01*
X42308599Y-59458495D01*
X42444556Y-59553693D01*
X42494594Y-59588730D01*
X42538218Y-59643307D01*
X42545411Y-59712806D01*
X42513889Y-59775160D01*
X42494593Y-59791880D01*
X42418626Y-59845072D01*
X42418625Y-59845072D01*
X42920883Y-60347330D01*
X42954368Y-60408653D01*
X42949384Y-60478345D01*
X42912357Y-60527805D01*
X42913602Y-60529241D01*
X42798238Y-60629202D01*
X42763046Y-60683962D01*
X42710242Y-60729717D01*
X42641083Y-60739660D01*
X42577528Y-60710634D01*
X42571050Y-60704603D01*
X42065073Y-60198626D01*
X42011881Y-60274594D01*
X41957304Y-60318219D01*
X41887806Y-60325413D01*
X41825451Y-60293891D01*
X41808730Y-60274594D01*
X41678494Y-60088597D01*
X41511402Y-59921506D01*
X41511396Y-59921501D01*
X41325842Y-59791575D01*
X41282217Y-59736998D01*
X41275023Y-59667500D01*
X41306546Y-59605145D01*
X41325842Y-59588425D01*
X41430606Y-59515068D01*
X41511401Y-59458495D01*
X41678495Y-59291401D01*
X41808424Y-59105842D01*
X41863002Y-59062217D01*
X41932500Y-59055023D01*
X41994855Y-59086546D01*
G37*
%TD.AperFunction*%
%TA.AperFunction,Conductor*%
G36*
X41242470Y-56129363D02*
G01*
X41248949Y-56135396D01*
X41754925Y-56641373D01*
X41808119Y-56565405D01*
X41862696Y-56521781D01*
X41932195Y-56514588D01*
X41994549Y-56546110D01*
X42011269Y-56565405D01*
X42141505Y-56751401D01*
X42141506Y-56751402D01*
X42308597Y-56918493D01*
X42308603Y-56918498D01*
X42494158Y-57048425D01*
X42537783Y-57103002D01*
X42544977Y-57172500D01*
X42513454Y-57234855D01*
X42494158Y-57251575D01*
X42308597Y-57381505D01*
X42141505Y-57548597D01*
X42011575Y-57734158D01*
X41956998Y-57777783D01*
X41887500Y-57784977D01*
X41825145Y-57753454D01*
X41808425Y-57734158D01*
X41678494Y-57548597D01*
X41511402Y-57381506D01*
X41511401Y-57381505D01*
X41325405Y-57251269D01*
X41281781Y-57196692D01*
X41274588Y-57127193D01*
X41306110Y-57064839D01*
X41325405Y-57048119D01*
X41401373Y-56994925D01*
X40899116Y-56492669D01*
X40865631Y-56431346D01*
X40870615Y-56361655D01*
X40907640Y-56312193D01*
X40906398Y-56310759D01*
X40913100Y-56304952D01*
X41021761Y-56210798D01*
X41056954Y-56156037D01*
X41109755Y-56110283D01*
X41178914Y-56100339D01*
X41242470Y-56129363D01*
G37*
%TD.AperFunction*%
%TA.AperFunction,Conductor*%
G36*
X42100346Y-54178331D02*
G01*
X42137568Y-54207681D01*
X42137677Y-54207573D01*
X42138590Y-54208486D01*
X42139976Y-54209579D01*
X42141505Y-54211401D01*
X42308597Y-54378493D01*
X42308603Y-54378498D01*
X42494158Y-54508425D01*
X42537783Y-54563002D01*
X42544977Y-54632500D01*
X42513454Y-54694855D01*
X42494158Y-54711575D01*
X42308597Y-54841505D01*
X42141505Y-55008597D01*
X42011269Y-55194595D01*
X41956692Y-55238220D01*
X41887194Y-55245414D01*
X41824839Y-55213891D01*
X41808119Y-55194595D01*
X41754925Y-55118626D01*
X41754925Y-55118625D01*
X41248949Y-55624602D01*
X41187626Y-55658087D01*
X41117934Y-55653103D01*
X41062001Y-55611231D01*
X41056953Y-55603961D01*
X41021761Y-55549202D01*
X40906398Y-55449241D01*
X40908708Y-55446574D01*
X40874005Y-55406528D01*
X40864058Y-55337370D01*
X40893080Y-55273813D01*
X40899116Y-55267330D01*
X41405605Y-54760841D01*
X41416166Y-54708295D01*
X41464781Y-54658112D01*
X41486923Y-54648282D01*
X41559119Y-54624358D01*
X41559124Y-54624356D01*
X41708345Y-54532315D01*
X41832315Y-54408345D01*
X41924356Y-54259124D01*
X41924357Y-54259120D01*
X41927284Y-54250289D01*
X41967055Y-54192843D01*
X42031570Y-54166018D01*
X42100346Y-54178331D01*
G37*
%TD.AperFunction*%
%TA.AperFunction,Conductor*%
G36*
X115943039Y-21019685D02*
G01*
X115988794Y-21072489D01*
X116000000Y-21124000D01*
X116000000Y-105876000D01*
X115980315Y-105943039D01*
X115927511Y-105988794D01*
X115876000Y-106000000D01*
X36124000Y-106000000D01*
X36056961Y-105980315D01*
X36011206Y-105927511D01*
X36000000Y-105876000D01*
X36000000Y-76200000D01*
X39284341Y-76200000D01*
X39304936Y-76435403D01*
X39304938Y-76435413D01*
X39366094Y-76663655D01*
X39366096Y-76663659D01*
X39366097Y-76663663D01*
X39407999Y-76753521D01*
X39465965Y-76877830D01*
X39465967Y-76877834D01*
X39534696Y-76975988D01*
X39601505Y-77071401D01*
X39768599Y-77238495D01*
X39865384Y-77306264D01*
X39962165Y-77374032D01*
X39962167Y-77374033D01*
X39962170Y-77374035D01*
X40176337Y-77473903D01*
X40404592Y-77535063D01*
X40592918Y-77551539D01*
X40639999Y-77555659D01*
X40640000Y-77555659D01*
X40640001Y-77555659D01*
X40679234Y-77552226D01*
X40875408Y-77535063D01*
X41103663Y-77473903D01*
X41317830Y-77374035D01*
X41511401Y-77238495D01*
X41678495Y-77071401D01*
X41808424Y-76885842D01*
X41863002Y-76842217D01*
X41932500Y-76835023D01*
X41994855Y-76866546D01*
X42011575Y-76885842D01*
X42141500Y-77071395D01*
X42141505Y-77071401D01*
X42308599Y-77238495D01*
X42405384Y-77306264D01*
X42502165Y-77374032D01*
X42502167Y-77374033D01*
X42502170Y-77374035D01*
X42716337Y-77473903D01*
X42944592Y-77535063D01*
X43132918Y-77551539D01*
X43179999Y-77555659D01*
X43180000Y-77555659D01*
X43180001Y-77555659D01*
X43219234Y-77552226D01*
X43415408Y-77535063D01*
X43515873Y-77508143D01*
X43585722Y-77509806D01*
X43635647Y-77540237D01*
X65539197Y-99443788D01*
X65549022Y-99456051D01*
X65549243Y-99455869D01*
X65554214Y-99461878D01*
X65580217Y-99486295D01*
X65604635Y-99509226D01*
X65625529Y-99530120D01*
X65631011Y-99534373D01*
X65635443Y-99538157D01*
X65669418Y-99570062D01*
X65686976Y-99579714D01*
X65703233Y-99590393D01*
X65719064Y-99602673D01*
X65738737Y-99611186D01*
X65761833Y-99621182D01*
X65767077Y-99623750D01*
X65807908Y-99646197D01*
X65820523Y-99649435D01*
X65827305Y-99651177D01*
X65845719Y-99657481D01*
X65864104Y-99665438D01*
X65910157Y-99672732D01*
X65915826Y-99673906D01*
X65960981Y-99685500D01*
X65981016Y-99685500D01*
X66000413Y-99687026D01*
X66020196Y-99690160D01*
X66066583Y-99685775D01*
X66072422Y-99685500D01*
X67698378Y-99685500D01*
X67765417Y-99705185D01*
X67811172Y-99757989D01*
X67821116Y-99827147D01*
X67792091Y-99890703D01*
X67757805Y-99918332D01*
X67566424Y-100022833D01*
X67566416Y-100022838D01*
X67446305Y-100112751D01*
X68070254Y-100736700D01*
X68103739Y-100798023D01*
X68098755Y-100867715D01*
X68065444Y-100912589D01*
X68067450Y-100914707D01*
X67928342Y-101046476D01*
X67913953Y-101067698D01*
X67911161Y-101071818D01*
X67909347Y-101074493D01*
X67855433Y-101118933D01*
X67786050Y-101127171D01*
X67723228Y-101096590D01*
X67719033Y-101092586D01*
X67092752Y-100466305D01*
X67092751Y-100466305D01*
X67002838Y-100586416D01*
X67002833Y-100586424D01*
X66874645Y-100821183D01*
X66874643Y-100821187D01*
X66781163Y-101071818D01*
X66724307Y-101333182D01*
X66724306Y-101333189D01*
X66705223Y-101599998D01*
X66705223Y-101600001D01*
X66724306Y-101866810D01*
X66724307Y-101866817D01*
X66781163Y-102128181D01*
X66874643Y-102378812D01*
X66874645Y-102378816D01*
X67002833Y-102613575D01*
X67002838Y-102613583D01*
X67092751Y-102733692D01*
X67092752Y-102733693D01*
X67719476Y-102106969D01*
X67780799Y-102073484D01*
X67850490Y-102078468D01*
X67901664Y-102114373D01*
X67992009Y-102220735D01*
X68061191Y-102273326D01*
X68102647Y-102329564D01*
X68107118Y-102399291D01*
X68073830Y-102459721D01*
X67446305Y-103087245D01*
X67446305Y-103087246D01*
X67566423Y-103177165D01*
X67566424Y-103177166D01*
X67801183Y-103305354D01*
X67801187Y-103305356D01*
X68051818Y-103398836D01*
X68313182Y-103455692D01*
X68313189Y-103455693D01*
X68579999Y-103474777D01*
X68580001Y-103474777D01*
X68846810Y-103455693D01*
X68846817Y-103455692D01*
X69108181Y-103398836D01*
X69358812Y-103305356D01*
X69358816Y-103305354D01*
X69593584Y-103177161D01*
X69713692Y-103087247D01*
X69713693Y-103087246D01*
X69089745Y-102463299D01*
X69056260Y-102401976D01*
X69061244Y-102332285D01*
X69094609Y-102287466D01*
X69092550Y-102285292D01*
X69097429Y-102280669D01*
X69097431Y-102280669D01*
X69231658Y-102153523D01*
X69250652Y-102125508D01*
X69304562Y-102081067D01*
X69373944Y-102072827D01*
X69436767Y-102103405D01*
X69440966Y-102107413D01*
X70067246Y-102733693D01*
X70067247Y-102733692D01*
X70157161Y-102613584D01*
X70285354Y-102378816D01*
X70285356Y-102378812D01*
X70378836Y-102128181D01*
X70435692Y-101866817D01*
X70435693Y-101866810D01*
X70454777Y-101600001D01*
X70454777Y-101599998D01*
X70435693Y-101333189D01*
X70435692Y-101333182D01*
X70378836Y-101071818D01*
X70285356Y-100821187D01*
X70285354Y-100821183D01*
X70202849Y-100670087D01*
X70187997Y-100601814D01*
X70212414Y-100536350D01*
X70268347Y-100494478D01*
X70338039Y-100489494D01*
X70376471Y-100504933D01*
X70382033Y-100508341D01*
X70382036Y-100508343D01*
X70617681Y-100605950D01*
X70617683Y-100605950D01*
X70617689Y-100605953D01*
X70865714Y-100665498D01*
X71120000Y-100685511D01*
X71374286Y-100665498D01*
X71622311Y-100605953D01*
X71729459Y-100561571D01*
X71857963Y-100508343D01*
X71857964Y-100508341D01*
X71857967Y-100508341D01*
X71863523Y-100504935D01*
X71930968Y-100486688D01*
X71997571Y-100507801D01*
X72042187Y-100561571D01*
X72050651Y-100630926D01*
X72037150Y-100670087D01*
X71954645Y-100821183D01*
X71954643Y-100821187D01*
X71861163Y-101071818D01*
X71804307Y-101333182D01*
X71804306Y-101333189D01*
X71785223Y-101599998D01*
X71785223Y-101600001D01*
X71804306Y-101866810D01*
X71804307Y-101866817D01*
X71861163Y-102128181D01*
X71954643Y-102378812D01*
X71954645Y-102378816D01*
X72082833Y-102613575D01*
X72082838Y-102613583D01*
X72172751Y-102733692D01*
X72172752Y-102733693D01*
X72799476Y-102106969D01*
X72860799Y-102073484D01*
X72930490Y-102078468D01*
X72981664Y-102114373D01*
X73072009Y-102220735D01*
X73141191Y-102273326D01*
X73182647Y-102329564D01*
X73187118Y-102399291D01*
X73153830Y-102459721D01*
X72526305Y-103087245D01*
X72526305Y-103087246D01*
X72646423Y-103177165D01*
X72646424Y-103177166D01*
X72881183Y-103305354D01*
X72881187Y-103305356D01*
X73131818Y-103398836D01*
X73393182Y-103455692D01*
X73393189Y-103455693D01*
X73659999Y-103474777D01*
X73660001Y-103474777D01*
X73926810Y-103455693D01*
X73926817Y-103455692D01*
X74188181Y-103398836D01*
X74438812Y-103305356D01*
X74438816Y-103305354D01*
X74673584Y-103177161D01*
X74793692Y-103087247D01*
X74793693Y-103087246D01*
X74169745Y-102463299D01*
X74136260Y-102401976D01*
X74141244Y-102332285D01*
X74174609Y-102287466D01*
X74172550Y-102285292D01*
X74177429Y-102280669D01*
X74177431Y-102280669D01*
X74311658Y-102153523D01*
X74330652Y-102125508D01*
X74384562Y-102081067D01*
X74453944Y-102072827D01*
X74516767Y-102103405D01*
X74520966Y-102107413D01*
X75147246Y-102733693D01*
X75147247Y-102733692D01*
X75237161Y-102613584D01*
X75365354Y-102378816D01*
X75365356Y-102378812D01*
X75458836Y-102128181D01*
X75515692Y-101866817D01*
X75515693Y-101866810D01*
X75534777Y-101600001D01*
X92105223Y-101600001D01*
X92124306Y-101866810D01*
X92124307Y-101866817D01*
X92181163Y-102128181D01*
X92274643Y-102378812D01*
X92274645Y-102378816D01*
X92402833Y-102613575D01*
X92402838Y-102613583D01*
X92492751Y-102733692D01*
X92492752Y-102733693D01*
X93119476Y-102106969D01*
X93180799Y-102073484D01*
X93250490Y-102078468D01*
X93301664Y-102114373D01*
X93392009Y-102220735D01*
X93461191Y-102273326D01*
X93502647Y-102329564D01*
X93507118Y-102399291D01*
X93473830Y-102459721D01*
X92846305Y-103087245D01*
X92846305Y-103087246D01*
X92966423Y-103177165D01*
X92966424Y-103177166D01*
X93201183Y-103305354D01*
X93201187Y-103305356D01*
X93451818Y-103398836D01*
X93713182Y-103455692D01*
X93713189Y-103455693D01*
X93979999Y-103474777D01*
X93980001Y-103474777D01*
X94246810Y-103455693D01*
X94246817Y-103455692D01*
X94508181Y-103398836D01*
X94758812Y-103305356D01*
X94758816Y-103305354D01*
X94993584Y-103177161D01*
X95113692Y-103087247D01*
X95113693Y-103087246D01*
X94489745Y-102463299D01*
X94456260Y-102401976D01*
X94461244Y-102332285D01*
X94494609Y-102287466D01*
X94492550Y-102285292D01*
X94497429Y-102280669D01*
X94497431Y-102280669D01*
X94631658Y-102153523D01*
X94650652Y-102125508D01*
X94704562Y-102081067D01*
X94773944Y-102072827D01*
X94836767Y-102103405D01*
X94840966Y-102107413D01*
X95467246Y-102733693D01*
X95467247Y-102733692D01*
X95557161Y-102613584D01*
X95685354Y-102378816D01*
X95685356Y-102378812D01*
X95778836Y-102128181D01*
X95835692Y-101866817D01*
X95835693Y-101866810D01*
X95854777Y-101600001D01*
X95854777Y-101599998D01*
X95835693Y-101333189D01*
X95835692Y-101333182D01*
X95778836Y-101071818D01*
X95685356Y-100821187D01*
X95685354Y-100821183D01*
X95602849Y-100670087D01*
X95587997Y-100601814D01*
X95612414Y-100536350D01*
X95668347Y-100494478D01*
X95738039Y-100489494D01*
X95776471Y-100504933D01*
X95782033Y-100508341D01*
X95782036Y-100508343D01*
X96017681Y-100605950D01*
X96017683Y-100605950D01*
X96017689Y-100605953D01*
X96265714Y-100665498D01*
X96520000Y-100685511D01*
X96774286Y-100665498D01*
X97022311Y-100605953D01*
X97129459Y-100561571D01*
X97257963Y-100508343D01*
X97257964Y-100508341D01*
X97257967Y-100508341D01*
X97263523Y-100504935D01*
X97330968Y-100486688D01*
X97397571Y-100507801D01*
X97442187Y-100561571D01*
X97450651Y-100630926D01*
X97437150Y-100670087D01*
X97354645Y-100821183D01*
X97354643Y-100821187D01*
X97261163Y-101071818D01*
X97204307Y-101333182D01*
X97204306Y-101333189D01*
X97185223Y-101599998D01*
X97185223Y-101600001D01*
X97204306Y-101866810D01*
X97204307Y-101866817D01*
X97261163Y-102128181D01*
X97354643Y-102378812D01*
X97354645Y-102378816D01*
X97482833Y-102613575D01*
X97482838Y-102613583D01*
X97572751Y-102733692D01*
X97572752Y-102733693D01*
X98199476Y-102106969D01*
X98260799Y-102073484D01*
X98330490Y-102078468D01*
X98381664Y-102114373D01*
X98472009Y-102220735D01*
X98541191Y-102273326D01*
X98582647Y-102329564D01*
X98587118Y-102399291D01*
X98553830Y-102459721D01*
X97926305Y-103087245D01*
X97926305Y-103087246D01*
X98046423Y-103177165D01*
X98046424Y-103177166D01*
X98281183Y-103305354D01*
X98281187Y-103305356D01*
X98531818Y-103398836D01*
X98793182Y-103455692D01*
X98793189Y-103455693D01*
X99059999Y-103474777D01*
X99060001Y-103474777D01*
X99326810Y-103455693D01*
X99326817Y-103455692D01*
X99588181Y-103398836D01*
X99838812Y-103305356D01*
X99838816Y-103305354D01*
X100073584Y-103177161D01*
X100193692Y-103087247D01*
X100193693Y-103087246D01*
X99569745Y-102463299D01*
X99536260Y-102401976D01*
X99541244Y-102332285D01*
X99574609Y-102287466D01*
X99572550Y-102285292D01*
X99577429Y-102280669D01*
X99577431Y-102280669D01*
X99711658Y-102153523D01*
X99730652Y-102125508D01*
X99784562Y-102081067D01*
X99853944Y-102072827D01*
X99916767Y-102103405D01*
X99920966Y-102107413D01*
X100547246Y-102733693D01*
X100547247Y-102733692D01*
X100637161Y-102613584D01*
X100765354Y-102378816D01*
X100765356Y-102378812D01*
X100858836Y-102128181D01*
X100915692Y-101866817D01*
X100915693Y-101866810D01*
X100934777Y-101600001D01*
X100934777Y-101599998D01*
X100915693Y-101333189D01*
X100915692Y-101333182D01*
X100858836Y-101071818D01*
X100765356Y-100821187D01*
X100765354Y-100821183D01*
X100637166Y-100586424D01*
X100637165Y-100586423D01*
X100547246Y-100466305D01*
X99920523Y-101093029D01*
X99859200Y-101126514D01*
X99789508Y-101121530D01*
X99738334Y-101085624D01*
X99647990Y-100979264D01*
X99578808Y-100926672D01*
X99537351Y-100870430D01*
X99532882Y-100800704D01*
X99566169Y-100740276D01*
X100193693Y-100112752D01*
X100193692Y-100112751D01*
X100073583Y-100022838D01*
X100073575Y-100022833D01*
X99838816Y-99894645D01*
X99838812Y-99894643D01*
X99588181Y-99801163D01*
X99326817Y-99744307D01*
X99326810Y-99744306D01*
X99060001Y-99725223D01*
X99059999Y-99725223D01*
X98793189Y-99744306D01*
X98793182Y-99744307D01*
X98531818Y-99801163D01*
X98281187Y-99894643D01*
X98281183Y-99894645D01*
X98130087Y-99977150D01*
X98061814Y-99992002D01*
X97996349Y-99967585D01*
X97954478Y-99911651D01*
X97949494Y-99841960D01*
X97964936Y-99803523D01*
X97968343Y-99797963D01*
X98065950Y-99562318D01*
X98065949Y-99562318D01*
X98065953Y-99562311D01*
X98125498Y-99314286D01*
X98145511Y-99060000D01*
X98125498Y-98805714D01*
X98065953Y-98557689D01*
X98065950Y-98557681D01*
X97968343Y-98322036D01*
X97968341Y-98322033D01*
X97964933Y-98316471D01*
X97946688Y-98249025D01*
X97967804Y-98182423D01*
X98021576Y-98137809D01*
X98090932Y-98129349D01*
X98130087Y-98142849D01*
X98281183Y-98225354D01*
X98281187Y-98225356D01*
X98531818Y-98318836D01*
X98793182Y-98375692D01*
X98793189Y-98375693D01*
X99059999Y-98394777D01*
X99060001Y-98394777D01*
X99326810Y-98375693D01*
X99326817Y-98375692D01*
X99588181Y-98318836D01*
X99838812Y-98225356D01*
X99838816Y-98225354D01*
X100073584Y-98097161D01*
X100193692Y-98007247D01*
X100193693Y-98007246D01*
X99569745Y-97383299D01*
X99536260Y-97321976D01*
X99541244Y-97252285D01*
X99574609Y-97207466D01*
X99572550Y-97205292D01*
X99577429Y-97200669D01*
X99577431Y-97200669D01*
X99711658Y-97073523D01*
X99730652Y-97045508D01*
X99784562Y-97001067D01*
X99853944Y-96992827D01*
X99916767Y-97023405D01*
X99920966Y-97027413D01*
X100547246Y-97653693D01*
X100547247Y-97653692D01*
X100637161Y-97533584D01*
X100765354Y-97298816D01*
X100765356Y-97298812D01*
X100858836Y-97048181D01*
X100915692Y-96786817D01*
X100915693Y-96786810D01*
X100934777Y-96520001D01*
X100934777Y-96519998D01*
X100915693Y-96253189D01*
X100915692Y-96253182D01*
X100858836Y-95991818D01*
X100765356Y-95741187D01*
X100765354Y-95741183D01*
X100637166Y-95506424D01*
X100637165Y-95506423D01*
X100547246Y-95386305D01*
X99920523Y-96013029D01*
X99859200Y-96046514D01*
X99789508Y-96041530D01*
X99738334Y-96005624D01*
X99647990Y-95899264D01*
X99578808Y-95846672D01*
X99537351Y-95790430D01*
X99532882Y-95720704D01*
X99566169Y-95660276D01*
X100193693Y-95032752D01*
X100193692Y-95032751D01*
X100073583Y-94942838D01*
X100073575Y-94942833D01*
X99838816Y-94814645D01*
X99838812Y-94814643D01*
X99588181Y-94721163D01*
X99326817Y-94664307D01*
X99326810Y-94664306D01*
X99060001Y-94645223D01*
X99059999Y-94645223D01*
X98793189Y-94664306D01*
X98793182Y-94664307D01*
X98531818Y-94721163D01*
X98281187Y-94814643D01*
X98281183Y-94814645D01*
X98046424Y-94942833D01*
X98046416Y-94942838D01*
X97926305Y-95032751D01*
X98550254Y-95656700D01*
X98583739Y-95718023D01*
X98578755Y-95787715D01*
X98545444Y-95832589D01*
X98547450Y-95834707D01*
X98408342Y-95966476D01*
X98393953Y-95987698D01*
X98391161Y-95991818D01*
X98389347Y-95994493D01*
X98335433Y-96038933D01*
X98266050Y-96047171D01*
X98203228Y-96016590D01*
X98199033Y-96012586D01*
X97572752Y-95386305D01*
X97572751Y-95386305D01*
X97482838Y-95506416D01*
X97482833Y-95506424D01*
X97354645Y-95741183D01*
X97354643Y-95741187D01*
X97261163Y-95991818D01*
X97204307Y-96253182D01*
X97204306Y-96253189D01*
X97185223Y-96519998D01*
X97185223Y-96520001D01*
X97204306Y-96786810D01*
X97204307Y-96786817D01*
X97261163Y-97048181D01*
X97354643Y-97298812D01*
X97354645Y-97298816D01*
X97437150Y-97449912D01*
X97452002Y-97518185D01*
X97427585Y-97583649D01*
X97371652Y-97625521D01*
X97301960Y-97630505D01*
X97263531Y-97615068D01*
X97257966Y-97611658D01*
X97257963Y-97611656D01*
X97022318Y-97514049D01*
X97022301Y-97514044D01*
X96774289Y-97454502D01*
X96520000Y-97434489D01*
X96265710Y-97454502D01*
X96017698Y-97514044D01*
X96017681Y-97514049D01*
X95782036Y-97611656D01*
X95782030Y-97611659D01*
X95776463Y-97615071D01*
X95709016Y-97633310D01*
X95642415Y-97612190D01*
X95597806Y-97558414D01*
X95589351Y-97489058D01*
X95602849Y-97449912D01*
X95685354Y-97298816D01*
X95685356Y-97298812D01*
X95778836Y-97048181D01*
X95835692Y-96786817D01*
X95835693Y-96786810D01*
X95854777Y-96520001D01*
X95854777Y-96519998D01*
X95835693Y-96253189D01*
X95835692Y-96253182D01*
X95778836Y-95991818D01*
X95685356Y-95741187D01*
X95685354Y-95741183D01*
X95557166Y-95506424D01*
X95557165Y-95506423D01*
X95467246Y-95386305D01*
X94840523Y-96013029D01*
X94779200Y-96046514D01*
X94709508Y-96041530D01*
X94658334Y-96005624D01*
X94567990Y-95899264D01*
X94498808Y-95846672D01*
X94457351Y-95790430D01*
X94452882Y-95720704D01*
X94486169Y-95660276D01*
X95113693Y-95032752D01*
X95113692Y-95032751D01*
X94993583Y-94942838D01*
X94993575Y-94942833D01*
X94758816Y-94814645D01*
X94758812Y-94814643D01*
X94508181Y-94721163D01*
X94246817Y-94664307D01*
X94246810Y-94664306D01*
X93980001Y-94645223D01*
X93979999Y-94645223D01*
X93713189Y-94664306D01*
X93713182Y-94664307D01*
X93451818Y-94721163D01*
X93201187Y-94814643D01*
X93201183Y-94814645D01*
X92966424Y-94942833D01*
X92966416Y-94942838D01*
X92846305Y-95032751D01*
X93470254Y-95656700D01*
X93503739Y-95718023D01*
X93498755Y-95787715D01*
X93465444Y-95832589D01*
X93467450Y-95834707D01*
X93328342Y-95966476D01*
X93313953Y-95987698D01*
X93311161Y-95991818D01*
X93309347Y-95994493D01*
X93255433Y-96038933D01*
X93186050Y-96047171D01*
X93123228Y-96016590D01*
X93119033Y-96012586D01*
X92492752Y-95386305D01*
X92492751Y-95386305D01*
X92402838Y-95506416D01*
X92402833Y-95506424D01*
X92274645Y-95741183D01*
X92274643Y-95741187D01*
X92181163Y-95991818D01*
X92124307Y-96253182D01*
X92124306Y-96253189D01*
X92105223Y-96519998D01*
X92105223Y-96520001D01*
X92124306Y-96786810D01*
X92124307Y-96786817D01*
X92181163Y-97048181D01*
X92274643Y-97298812D01*
X92274645Y-97298816D01*
X92402833Y-97533575D01*
X92402838Y-97533583D01*
X92492751Y-97653692D01*
X92492752Y-97653693D01*
X93119476Y-97026969D01*
X93180799Y-96993484D01*
X93250490Y-96998468D01*
X93301664Y-97034373D01*
X93392009Y-97140735D01*
X93461191Y-97193326D01*
X93502647Y-97249564D01*
X93507118Y-97319291D01*
X93473830Y-97379721D01*
X92846305Y-98007245D01*
X92846305Y-98007246D01*
X92966423Y-98097165D01*
X92966424Y-98097166D01*
X93201183Y-98225354D01*
X93201187Y-98225356D01*
X93451818Y-98318836D01*
X93713182Y-98375692D01*
X93713189Y-98375693D01*
X93979999Y-98394777D01*
X93980001Y-98394777D01*
X94246810Y-98375693D01*
X94246817Y-98375692D01*
X94508181Y-98318836D01*
X94758812Y-98225356D01*
X94758816Y-98225354D01*
X94909912Y-98142849D01*
X94978184Y-98127997D01*
X95043649Y-98152413D01*
X95085521Y-98208347D01*
X95090505Y-98278038D01*
X95075071Y-98316463D01*
X95071659Y-98322030D01*
X95071656Y-98322036D01*
X94974049Y-98557681D01*
X94974044Y-98557698D01*
X94914502Y-98805710D01*
X94894489Y-99060000D01*
X94914502Y-99314289D01*
X94974044Y-99562301D01*
X94974049Y-99562318D01*
X95071656Y-99797963D01*
X95071658Y-99797966D01*
X95075068Y-99803531D01*
X95093310Y-99870977D01*
X95072193Y-99937579D01*
X95018420Y-99982191D01*
X94949064Y-99990649D01*
X94909912Y-99977150D01*
X94758816Y-99894645D01*
X94758812Y-99894643D01*
X94508181Y-99801163D01*
X94246817Y-99744307D01*
X94246810Y-99744306D01*
X93980001Y-99725223D01*
X93979999Y-99725223D01*
X93713189Y-99744306D01*
X93713182Y-99744307D01*
X93451818Y-99801163D01*
X93201187Y-99894643D01*
X93201183Y-99894645D01*
X92966424Y-100022833D01*
X92966416Y-100022838D01*
X92846305Y-100112751D01*
X93470254Y-100736700D01*
X93503739Y-100798023D01*
X93498755Y-100867715D01*
X93465444Y-100912589D01*
X93467450Y-100914707D01*
X93328342Y-101046476D01*
X93313953Y-101067698D01*
X93311161Y-101071818D01*
X93309347Y-101074493D01*
X93255433Y-101118933D01*
X93186050Y-101127171D01*
X93123228Y-101096590D01*
X93119033Y-101092586D01*
X92492752Y-100466305D01*
X92492751Y-100466305D01*
X92402838Y-100586416D01*
X92402833Y-100586424D01*
X92274645Y-100821183D01*
X92274643Y-100821187D01*
X92181163Y-101071818D01*
X92124307Y-101333182D01*
X92124306Y-101333189D01*
X92105223Y-101599998D01*
X92105223Y-101600001D01*
X75534777Y-101600001D01*
X75534777Y-101599998D01*
X75515693Y-101333189D01*
X75515692Y-101333182D01*
X75458836Y-101071818D01*
X75365356Y-100821187D01*
X75365354Y-100821183D01*
X75237166Y-100586424D01*
X75237165Y-100586423D01*
X75147246Y-100466305D01*
X74520523Y-101093029D01*
X74459200Y-101126514D01*
X74389508Y-101121530D01*
X74338334Y-101085624D01*
X74247990Y-100979264D01*
X74178808Y-100926672D01*
X74137351Y-100870430D01*
X74132882Y-100800704D01*
X74166169Y-100740276D01*
X74793693Y-100112752D01*
X74793692Y-100112751D01*
X74673583Y-100022838D01*
X74673575Y-100022833D01*
X74438816Y-99894645D01*
X74438812Y-99894643D01*
X74188181Y-99801163D01*
X73926817Y-99744307D01*
X73926810Y-99744306D01*
X73660001Y-99725223D01*
X73659999Y-99725223D01*
X73393189Y-99744306D01*
X73393182Y-99744307D01*
X73131818Y-99801163D01*
X72881187Y-99894643D01*
X72881183Y-99894645D01*
X72730087Y-99977150D01*
X72661814Y-99992002D01*
X72596349Y-99967585D01*
X72554478Y-99911651D01*
X72549494Y-99841960D01*
X72564936Y-99803523D01*
X72568343Y-99797963D01*
X72665950Y-99562318D01*
X72665949Y-99562318D01*
X72665953Y-99562311D01*
X72725498Y-99314286D01*
X72745511Y-99060000D01*
X72725498Y-98805714D01*
X72665953Y-98557689D01*
X72665950Y-98557681D01*
X72568343Y-98322036D01*
X72568341Y-98322033D01*
X72564933Y-98316471D01*
X72546688Y-98249025D01*
X72567804Y-98182423D01*
X72621576Y-98137809D01*
X72690932Y-98129349D01*
X72730087Y-98142849D01*
X72881183Y-98225354D01*
X72881187Y-98225356D01*
X73131818Y-98318836D01*
X73393182Y-98375692D01*
X73393189Y-98375693D01*
X73659999Y-98394777D01*
X73660001Y-98394777D01*
X73926810Y-98375693D01*
X73926817Y-98375692D01*
X74188181Y-98318836D01*
X74438812Y-98225356D01*
X74438816Y-98225354D01*
X74673584Y-98097161D01*
X74793692Y-98007247D01*
X74793693Y-98007246D01*
X74169745Y-97383299D01*
X74136260Y-97321976D01*
X74141244Y-97252285D01*
X74174609Y-97207466D01*
X74172550Y-97205292D01*
X74177429Y-97200669D01*
X74177431Y-97200669D01*
X74311658Y-97073523D01*
X74330652Y-97045508D01*
X74384562Y-97001067D01*
X74453944Y-96992827D01*
X74516767Y-97023405D01*
X74520966Y-97027413D01*
X75147246Y-97653693D01*
X75147247Y-97653692D01*
X75237161Y-97533584D01*
X75365354Y-97298816D01*
X75365356Y-97298812D01*
X75458836Y-97048181D01*
X75515692Y-96786817D01*
X75515693Y-96786810D01*
X75534777Y-96520001D01*
X75534777Y-96519998D01*
X75515693Y-96253189D01*
X75515692Y-96253182D01*
X75458836Y-95991818D01*
X75365356Y-95741187D01*
X75365354Y-95741183D01*
X75237166Y-95506424D01*
X75237165Y-95506423D01*
X75147246Y-95386305D01*
X74520523Y-96013029D01*
X74459200Y-96046514D01*
X74389508Y-96041530D01*
X74338334Y-96005624D01*
X74247990Y-95899264D01*
X74178808Y-95846672D01*
X74137351Y-95790430D01*
X74132882Y-95720704D01*
X74166169Y-95660276D01*
X74793693Y-95032752D01*
X74793692Y-95032751D01*
X74673583Y-94942838D01*
X74673575Y-94942833D01*
X74438816Y-94814645D01*
X74438812Y-94814643D01*
X74188181Y-94721163D01*
X73926817Y-94664307D01*
X73926810Y-94664306D01*
X73660001Y-94645223D01*
X73659999Y-94645223D01*
X73393189Y-94664306D01*
X73393182Y-94664307D01*
X73131818Y-94721163D01*
X72881187Y-94814643D01*
X72881183Y-94814645D01*
X72646424Y-94942833D01*
X72646416Y-94942838D01*
X72526305Y-95032751D01*
X73150254Y-95656700D01*
X73183739Y-95718023D01*
X73178755Y-95787715D01*
X73145444Y-95832589D01*
X73147450Y-95834707D01*
X73008342Y-95966476D01*
X72993953Y-95987698D01*
X72991161Y-95991818D01*
X72989347Y-95994493D01*
X72935433Y-96038933D01*
X72866050Y-96047171D01*
X72803228Y-96016590D01*
X72799033Y-96012586D01*
X72172752Y-95386305D01*
X72172751Y-95386305D01*
X72082838Y-95506416D01*
X72082833Y-95506424D01*
X71954645Y-95741183D01*
X71954643Y-95741187D01*
X71861163Y-95991818D01*
X71804307Y-96253182D01*
X71804306Y-96253189D01*
X71785223Y-96519998D01*
X71785223Y-96520001D01*
X71804306Y-96786810D01*
X71804307Y-96786817D01*
X71861163Y-97048181D01*
X71954643Y-97298812D01*
X71954645Y-97298816D01*
X72037150Y-97449912D01*
X72052002Y-97518185D01*
X72027585Y-97583649D01*
X71971652Y-97625521D01*
X71901960Y-97630505D01*
X71863531Y-97615068D01*
X71857966Y-97611658D01*
X71857963Y-97611656D01*
X71622318Y-97514049D01*
X71622301Y-97514044D01*
X71374289Y-97454502D01*
X71120000Y-97434489D01*
X70865710Y-97454502D01*
X70617698Y-97514044D01*
X70617681Y-97514049D01*
X70382036Y-97611656D01*
X70382030Y-97611659D01*
X70376463Y-97615071D01*
X70309016Y-97633310D01*
X70242415Y-97612190D01*
X70197806Y-97558414D01*
X70189351Y-97489058D01*
X70202849Y-97449912D01*
X70285354Y-97298816D01*
X70285356Y-97298812D01*
X70378836Y-97048181D01*
X70435692Y-96786817D01*
X70435693Y-96786810D01*
X70454777Y-96520001D01*
X70454777Y-96519998D01*
X70435693Y-96253189D01*
X70435692Y-96253182D01*
X70378836Y-95991818D01*
X70285356Y-95741187D01*
X70285354Y-95741183D01*
X70157166Y-95506424D01*
X70157165Y-95506423D01*
X70067246Y-95386305D01*
X69440523Y-96013029D01*
X69379200Y-96046514D01*
X69309508Y-96041530D01*
X69258334Y-96005624D01*
X69167990Y-95899264D01*
X69098808Y-95846672D01*
X69057351Y-95790430D01*
X69052882Y-95720704D01*
X69086169Y-95660276D01*
X69713693Y-95032752D01*
X69713692Y-95032751D01*
X69593583Y-94942838D01*
X69593575Y-94942833D01*
X69358816Y-94814645D01*
X69358812Y-94814643D01*
X69108181Y-94721163D01*
X68846817Y-94664307D01*
X68846810Y-94664306D01*
X68580001Y-94645223D01*
X68579999Y-94645223D01*
X68313189Y-94664306D01*
X68313182Y-94664307D01*
X68051818Y-94721163D01*
X67801187Y-94814643D01*
X67801183Y-94814645D01*
X67566424Y-94942833D01*
X67566416Y-94942838D01*
X67446305Y-95032751D01*
X68070254Y-95656700D01*
X68103739Y-95718023D01*
X68098755Y-95787715D01*
X68065444Y-95832589D01*
X68067450Y-95834707D01*
X67928342Y-95966476D01*
X67913953Y-95987698D01*
X67911161Y-95991818D01*
X67909347Y-95994493D01*
X67855433Y-96038933D01*
X67786050Y-96047171D01*
X67723228Y-96016590D01*
X67719033Y-96012586D01*
X67092752Y-95386305D01*
X67092751Y-95386305D01*
X67002838Y-95506416D01*
X67002833Y-95506424D01*
X66874645Y-95741183D01*
X66874643Y-95741187D01*
X66781163Y-95991818D01*
X66724307Y-96253182D01*
X66724306Y-96253189D01*
X66705223Y-96519998D01*
X66705223Y-96520001D01*
X66724306Y-96786810D01*
X66724307Y-96786817D01*
X66781163Y-97048181D01*
X66874643Y-97298812D01*
X66874645Y-97298816D01*
X67002833Y-97533575D01*
X67002838Y-97533583D01*
X67092751Y-97653692D01*
X67092752Y-97653693D01*
X67719476Y-97026969D01*
X67780799Y-96993484D01*
X67850490Y-96998468D01*
X67901664Y-97034373D01*
X67992009Y-97140735D01*
X68061191Y-97193326D01*
X68102647Y-97249564D01*
X68107118Y-97319291D01*
X68073830Y-97379721D01*
X67446305Y-98007245D01*
X67446305Y-98007246D01*
X67566423Y-98097165D01*
X67566424Y-98097166D01*
X67757805Y-98201668D01*
X67807210Y-98251073D01*
X67822062Y-98319346D01*
X67797645Y-98384810D01*
X67741712Y-98426682D01*
X67698378Y-98434500D01*
X66350452Y-98434500D01*
X66283413Y-98414815D01*
X66262771Y-98398181D01*
X44520237Y-76655646D01*
X44486752Y-76594323D01*
X44488142Y-76535876D01*
X44515063Y-76435408D01*
X44535659Y-76200000D01*
X44535659Y-76199998D01*
X44535659Y-76199611D01*
X44535707Y-76199445D01*
X44536131Y-76194606D01*
X44537103Y-76194691D01*
X44555344Y-76132572D01*
X44608148Y-76086817D01*
X44677306Y-76076873D01*
X44740862Y-76105898D01*
X44747340Y-76111930D01*
X55379197Y-86743788D01*
X55389022Y-86756051D01*
X55389243Y-86755869D01*
X55394214Y-86761878D01*
X55420217Y-86786295D01*
X55444635Y-86809226D01*
X55465529Y-86830120D01*
X55471011Y-86834373D01*
X55475443Y-86838157D01*
X55509418Y-86870062D01*
X55526976Y-86879714D01*
X55543235Y-86890395D01*
X55559064Y-86902673D01*
X55601838Y-86921182D01*
X55607056Y-86923738D01*
X55647908Y-86946197D01*
X55667316Y-86951180D01*
X55685717Y-86957480D01*
X55704104Y-86965437D01*
X55747488Y-86972308D01*
X55750119Y-86972725D01*
X55755839Y-86973909D01*
X55800981Y-86985500D01*
X55821016Y-86985500D01*
X55840414Y-86987026D01*
X55860194Y-86990159D01*
X55860195Y-86990160D01*
X55860195Y-86990159D01*
X55860196Y-86990160D01*
X55906583Y-86985775D01*
X55912422Y-86985500D01*
X67698378Y-86985500D01*
X67765417Y-87005185D01*
X67811172Y-87057989D01*
X67821116Y-87127147D01*
X67792091Y-87190703D01*
X67757805Y-87218332D01*
X67566424Y-87322833D01*
X67566416Y-87322838D01*
X67446305Y-87412751D01*
X68070254Y-88036700D01*
X68103739Y-88098023D01*
X68098755Y-88167715D01*
X68065444Y-88212589D01*
X68067450Y-88214707D01*
X67928342Y-88346476D01*
X67913953Y-88367698D01*
X67911161Y-88371818D01*
X67909347Y-88374493D01*
X67855433Y-88418933D01*
X67786050Y-88427171D01*
X67723228Y-88396590D01*
X67719033Y-88392586D01*
X67092752Y-87766305D01*
X67092751Y-87766305D01*
X67002838Y-87886416D01*
X67002833Y-87886424D01*
X66874645Y-88121183D01*
X66874643Y-88121187D01*
X66781163Y-88371818D01*
X66724307Y-88633182D01*
X66724306Y-88633189D01*
X66705223Y-88899998D01*
X66705223Y-88900001D01*
X66724306Y-89166810D01*
X66724307Y-89166817D01*
X66781163Y-89428181D01*
X66874643Y-89678812D01*
X66874645Y-89678816D01*
X67002833Y-89913575D01*
X67002838Y-89913583D01*
X67092751Y-90033692D01*
X67092752Y-90033693D01*
X67719476Y-89406969D01*
X67780799Y-89373484D01*
X67850490Y-89378468D01*
X67901664Y-89414373D01*
X67992009Y-89520735D01*
X68061191Y-89573326D01*
X68102647Y-89629564D01*
X68107118Y-89699291D01*
X68073830Y-89759721D01*
X67446305Y-90387245D01*
X67446305Y-90387246D01*
X67566423Y-90477165D01*
X67566424Y-90477166D01*
X67801183Y-90605354D01*
X67801187Y-90605356D01*
X68051818Y-90698836D01*
X68313182Y-90755692D01*
X68313189Y-90755693D01*
X68579999Y-90774777D01*
X68580001Y-90774777D01*
X68846810Y-90755693D01*
X68846817Y-90755692D01*
X69108181Y-90698836D01*
X69358812Y-90605356D01*
X69358816Y-90605354D01*
X69593584Y-90477161D01*
X69713692Y-90387247D01*
X69713693Y-90387246D01*
X69089745Y-89763299D01*
X69056260Y-89701976D01*
X69061244Y-89632285D01*
X69094609Y-89587466D01*
X69092550Y-89585292D01*
X69097429Y-89580669D01*
X69097431Y-89580669D01*
X69231658Y-89453523D01*
X69250652Y-89425508D01*
X69304562Y-89381067D01*
X69373944Y-89372827D01*
X69436767Y-89403405D01*
X69440966Y-89407413D01*
X70067246Y-90033693D01*
X70067247Y-90033692D01*
X70157161Y-89913584D01*
X70285354Y-89678816D01*
X70285356Y-89678812D01*
X70378836Y-89428181D01*
X70435692Y-89166817D01*
X70435693Y-89166810D01*
X70454777Y-88900001D01*
X70454777Y-88899998D01*
X70435693Y-88633189D01*
X70435692Y-88633182D01*
X70378836Y-88371818D01*
X70285356Y-88121187D01*
X70285354Y-88121183D01*
X70202849Y-87970087D01*
X70187997Y-87901814D01*
X70212414Y-87836350D01*
X70268347Y-87794478D01*
X70338039Y-87789494D01*
X70376471Y-87804933D01*
X70382033Y-87808341D01*
X70382036Y-87808343D01*
X70617681Y-87905950D01*
X70617683Y-87905950D01*
X70617689Y-87905953D01*
X70865714Y-87965498D01*
X71120000Y-87985511D01*
X71374286Y-87965498D01*
X71622311Y-87905953D01*
X71729459Y-87861571D01*
X71857963Y-87808343D01*
X71857964Y-87808341D01*
X71857967Y-87808341D01*
X71863523Y-87804935D01*
X71930968Y-87786688D01*
X71997571Y-87807801D01*
X72042187Y-87861571D01*
X72050651Y-87930926D01*
X72037150Y-87970087D01*
X71954645Y-88121183D01*
X71954643Y-88121187D01*
X71861163Y-88371818D01*
X71804307Y-88633182D01*
X71804306Y-88633189D01*
X71785223Y-88899998D01*
X71785223Y-88900001D01*
X71804306Y-89166810D01*
X71804307Y-89166817D01*
X71861163Y-89428181D01*
X71954643Y-89678812D01*
X71954645Y-89678816D01*
X72082833Y-89913575D01*
X72082838Y-89913583D01*
X72172751Y-90033692D01*
X72172752Y-90033693D01*
X72799476Y-89406969D01*
X72860799Y-89373484D01*
X72930490Y-89378468D01*
X72981664Y-89414373D01*
X73072009Y-89520735D01*
X73141191Y-89573326D01*
X73182647Y-89629564D01*
X73187118Y-89699291D01*
X73153830Y-89759721D01*
X72526305Y-90387245D01*
X72526305Y-90387246D01*
X72646423Y-90477165D01*
X72646424Y-90477166D01*
X72881183Y-90605354D01*
X72881187Y-90605356D01*
X73131818Y-90698836D01*
X73393182Y-90755692D01*
X73393189Y-90755693D01*
X73659999Y-90774777D01*
X73660001Y-90774777D01*
X73926810Y-90755693D01*
X73926817Y-90755692D01*
X74188181Y-90698836D01*
X74438812Y-90605356D01*
X74438816Y-90605354D01*
X74673584Y-90477161D01*
X74793692Y-90387247D01*
X74793693Y-90387246D01*
X74169745Y-89763299D01*
X74136260Y-89701976D01*
X74141244Y-89632285D01*
X74174609Y-89587466D01*
X74172550Y-89585292D01*
X74177429Y-89580669D01*
X74177431Y-89580669D01*
X74311658Y-89453523D01*
X74330652Y-89425508D01*
X74384562Y-89381067D01*
X74453944Y-89372827D01*
X74516767Y-89403405D01*
X74520966Y-89407413D01*
X75147246Y-90033693D01*
X75147247Y-90033692D01*
X75237161Y-89913584D01*
X75365354Y-89678816D01*
X75365356Y-89678812D01*
X75458836Y-89428181D01*
X75515692Y-89166817D01*
X75515693Y-89166810D01*
X75534777Y-88900001D01*
X92105223Y-88900001D01*
X92124306Y-89166810D01*
X92124307Y-89166817D01*
X92181163Y-89428181D01*
X92274643Y-89678812D01*
X92274645Y-89678816D01*
X92402833Y-89913575D01*
X92402838Y-89913583D01*
X92492751Y-90033692D01*
X92492752Y-90033693D01*
X93119476Y-89406969D01*
X93180799Y-89373484D01*
X93250490Y-89378468D01*
X93301664Y-89414373D01*
X93392009Y-89520735D01*
X93461191Y-89573326D01*
X93502647Y-89629564D01*
X93507118Y-89699291D01*
X93473830Y-89759721D01*
X92846305Y-90387245D01*
X92846305Y-90387246D01*
X92966423Y-90477165D01*
X92966424Y-90477166D01*
X93201183Y-90605354D01*
X93201187Y-90605356D01*
X93451818Y-90698836D01*
X93713182Y-90755692D01*
X93713189Y-90755693D01*
X93979999Y-90774777D01*
X93980001Y-90774777D01*
X94246810Y-90755693D01*
X94246817Y-90755692D01*
X94508181Y-90698836D01*
X94758812Y-90605356D01*
X94758816Y-90605354D01*
X94993584Y-90477161D01*
X95113692Y-90387247D01*
X95113693Y-90387246D01*
X94489745Y-89763299D01*
X94456260Y-89701976D01*
X94461244Y-89632285D01*
X94494609Y-89587466D01*
X94492550Y-89585292D01*
X94497429Y-89580669D01*
X94497431Y-89580669D01*
X94631658Y-89453523D01*
X94650652Y-89425508D01*
X94704562Y-89381067D01*
X94773944Y-89372827D01*
X94836767Y-89403405D01*
X94840966Y-89407413D01*
X95467246Y-90033693D01*
X95467247Y-90033692D01*
X95557161Y-89913584D01*
X95685354Y-89678816D01*
X95685356Y-89678812D01*
X95778836Y-89428181D01*
X95835692Y-89166817D01*
X95835693Y-89166810D01*
X95854777Y-88900001D01*
X95854777Y-88899998D01*
X95835693Y-88633189D01*
X95835692Y-88633182D01*
X95778836Y-88371818D01*
X95685356Y-88121187D01*
X95685354Y-88121183D01*
X95602849Y-87970087D01*
X95587997Y-87901814D01*
X95612414Y-87836350D01*
X95668347Y-87794478D01*
X95738039Y-87789494D01*
X95776471Y-87804933D01*
X95782033Y-87808341D01*
X95782036Y-87808343D01*
X96017681Y-87905950D01*
X96017683Y-87905950D01*
X96017689Y-87905953D01*
X96265714Y-87965498D01*
X96520000Y-87985511D01*
X96774286Y-87965498D01*
X97022311Y-87905953D01*
X97129459Y-87861571D01*
X97257963Y-87808343D01*
X97257964Y-87808341D01*
X97257967Y-87808341D01*
X97263523Y-87804935D01*
X97330968Y-87786688D01*
X97397571Y-87807801D01*
X97442187Y-87861571D01*
X97450651Y-87930926D01*
X97437150Y-87970087D01*
X97354645Y-88121183D01*
X97354643Y-88121187D01*
X97261163Y-88371818D01*
X97204307Y-88633182D01*
X97204306Y-88633189D01*
X97185223Y-88899998D01*
X97185223Y-88900001D01*
X97204306Y-89166810D01*
X97204307Y-89166817D01*
X97261163Y-89428181D01*
X97354643Y-89678812D01*
X97354645Y-89678816D01*
X97482833Y-89913575D01*
X97482838Y-89913583D01*
X97572751Y-90033692D01*
X97572752Y-90033693D01*
X98199476Y-89406969D01*
X98260799Y-89373484D01*
X98330490Y-89378468D01*
X98381664Y-89414373D01*
X98472009Y-89520735D01*
X98541191Y-89573326D01*
X98582647Y-89629564D01*
X98587118Y-89699291D01*
X98553830Y-89759721D01*
X97926305Y-90387245D01*
X97926305Y-90387246D01*
X98046423Y-90477165D01*
X98046424Y-90477166D01*
X98281183Y-90605354D01*
X98281187Y-90605356D01*
X98531818Y-90698836D01*
X98793182Y-90755692D01*
X98793189Y-90755693D01*
X99059999Y-90774777D01*
X99060001Y-90774777D01*
X99326810Y-90755693D01*
X99326817Y-90755692D01*
X99588181Y-90698836D01*
X99838812Y-90605356D01*
X99838816Y-90605354D01*
X100073584Y-90477161D01*
X100193692Y-90387247D01*
X100193693Y-90387246D01*
X99569745Y-89763299D01*
X99536260Y-89701976D01*
X99541244Y-89632285D01*
X99574609Y-89587466D01*
X99572550Y-89585292D01*
X99577429Y-89580669D01*
X99577431Y-89580669D01*
X99711658Y-89453523D01*
X99730652Y-89425508D01*
X99784562Y-89381067D01*
X99853944Y-89372827D01*
X99916767Y-89403405D01*
X99920966Y-89407413D01*
X100547246Y-90033693D01*
X100547247Y-90033692D01*
X100637161Y-89913584D01*
X100765354Y-89678816D01*
X100765356Y-89678812D01*
X100858836Y-89428181D01*
X100915692Y-89166817D01*
X100915693Y-89166810D01*
X100934777Y-88900001D01*
X100934777Y-88899998D01*
X100915693Y-88633189D01*
X100915692Y-88633182D01*
X100858836Y-88371818D01*
X100765356Y-88121187D01*
X100765354Y-88121183D01*
X100637166Y-87886424D01*
X100637165Y-87886423D01*
X100547246Y-87766305D01*
X99920523Y-88393029D01*
X99859200Y-88426514D01*
X99789508Y-88421530D01*
X99738334Y-88385624D01*
X99647990Y-88279264D01*
X99578808Y-88226672D01*
X99537351Y-88170430D01*
X99532882Y-88100704D01*
X99566169Y-88040276D01*
X100193693Y-87412752D01*
X100193692Y-87412751D01*
X100073583Y-87322838D01*
X100073575Y-87322833D01*
X99838816Y-87194645D01*
X99838812Y-87194643D01*
X99588181Y-87101163D01*
X99326817Y-87044307D01*
X99326810Y-87044306D01*
X99060001Y-87025223D01*
X99059999Y-87025223D01*
X98793189Y-87044306D01*
X98793182Y-87044307D01*
X98531818Y-87101163D01*
X98281187Y-87194643D01*
X98281183Y-87194645D01*
X98130087Y-87277150D01*
X98061814Y-87292002D01*
X97996349Y-87267585D01*
X97954478Y-87211651D01*
X97949494Y-87141960D01*
X97964936Y-87103523D01*
X97968343Y-87097963D01*
X98065950Y-86862318D01*
X98065949Y-86862318D01*
X98065953Y-86862311D01*
X98125498Y-86614286D01*
X98145511Y-86360000D01*
X98125498Y-86105714D01*
X98065953Y-85857689D01*
X98065950Y-85857681D01*
X97968343Y-85622036D01*
X97968341Y-85622033D01*
X97964933Y-85616471D01*
X97946688Y-85549025D01*
X97967804Y-85482423D01*
X98021576Y-85437809D01*
X98090932Y-85429349D01*
X98130087Y-85442849D01*
X98281183Y-85525354D01*
X98281187Y-85525356D01*
X98531818Y-85618836D01*
X98793182Y-85675692D01*
X98793189Y-85675693D01*
X99059999Y-85694777D01*
X99060001Y-85694777D01*
X99326810Y-85675693D01*
X99326817Y-85675692D01*
X99588181Y-85618836D01*
X99838812Y-85525356D01*
X99838816Y-85525354D01*
X100073584Y-85397161D01*
X100193692Y-85307247D01*
X100193693Y-85307246D01*
X99569745Y-84683299D01*
X99536260Y-84621976D01*
X99541244Y-84552285D01*
X99574609Y-84507466D01*
X99572550Y-84505292D01*
X99577429Y-84500669D01*
X99577431Y-84500669D01*
X99711658Y-84373523D01*
X99730652Y-84345508D01*
X99784562Y-84301067D01*
X99853944Y-84292827D01*
X99916767Y-84323405D01*
X99920966Y-84327413D01*
X100547246Y-84953693D01*
X100547247Y-84953692D01*
X100637161Y-84833584D01*
X100765354Y-84598816D01*
X100765356Y-84598812D01*
X100858836Y-84348181D01*
X100915692Y-84086817D01*
X100915693Y-84086810D01*
X100934777Y-83820001D01*
X100934777Y-83819998D01*
X100915693Y-83553189D01*
X100915692Y-83553182D01*
X100858836Y-83291818D01*
X100765356Y-83041187D01*
X100765354Y-83041183D01*
X100637166Y-82806424D01*
X100637165Y-82806423D01*
X100547246Y-82686305D01*
X99920523Y-83313029D01*
X99859200Y-83346514D01*
X99789508Y-83341530D01*
X99738334Y-83305624D01*
X99647990Y-83199264D01*
X99578808Y-83146672D01*
X99537351Y-83090430D01*
X99532882Y-83020704D01*
X99566169Y-82960276D01*
X100193693Y-82332752D01*
X100193692Y-82332751D01*
X100073583Y-82242838D01*
X100073575Y-82242833D01*
X99838816Y-82114645D01*
X99838812Y-82114643D01*
X99588181Y-82021163D01*
X99326817Y-81964307D01*
X99326810Y-81964306D01*
X99060001Y-81945223D01*
X99059999Y-81945223D01*
X98793189Y-81964306D01*
X98793182Y-81964307D01*
X98531818Y-82021163D01*
X98281187Y-82114643D01*
X98281183Y-82114645D01*
X98046424Y-82242833D01*
X98046416Y-82242838D01*
X97926305Y-82332751D01*
X98550254Y-82956700D01*
X98583739Y-83018023D01*
X98578755Y-83087715D01*
X98545444Y-83132589D01*
X98547450Y-83134707D01*
X98408342Y-83266476D01*
X98393953Y-83287698D01*
X98391161Y-83291818D01*
X98389347Y-83294493D01*
X98335433Y-83338933D01*
X98266050Y-83347171D01*
X98203228Y-83316590D01*
X98199033Y-83312586D01*
X97572752Y-82686305D01*
X97572751Y-82686305D01*
X97482838Y-82806416D01*
X97482833Y-82806424D01*
X97354645Y-83041183D01*
X97354643Y-83041187D01*
X97261163Y-83291818D01*
X97204307Y-83553182D01*
X97204306Y-83553189D01*
X97185223Y-83819998D01*
X97185223Y-83820001D01*
X97204306Y-84086810D01*
X97204307Y-84086817D01*
X97261163Y-84348181D01*
X97354643Y-84598812D01*
X97354645Y-84598816D01*
X97437150Y-84749912D01*
X97452002Y-84818185D01*
X97427585Y-84883649D01*
X97371652Y-84925521D01*
X97301960Y-84930505D01*
X97263531Y-84915068D01*
X97257966Y-84911658D01*
X97257963Y-84911656D01*
X97022318Y-84814049D01*
X97022301Y-84814044D01*
X96774289Y-84754502D01*
X96520000Y-84734489D01*
X96265710Y-84754502D01*
X96017698Y-84814044D01*
X96017681Y-84814049D01*
X95782036Y-84911656D01*
X95782030Y-84911659D01*
X95776463Y-84915071D01*
X95709016Y-84933310D01*
X95642415Y-84912190D01*
X95597806Y-84858414D01*
X95589351Y-84789058D01*
X95602849Y-84749912D01*
X95685354Y-84598816D01*
X95685356Y-84598812D01*
X95778836Y-84348181D01*
X95835692Y-84086817D01*
X95835693Y-84086810D01*
X95854777Y-83820001D01*
X95854777Y-83819998D01*
X95835693Y-83553189D01*
X95835692Y-83553182D01*
X95778836Y-83291818D01*
X95685356Y-83041187D01*
X95685354Y-83041183D01*
X95557166Y-82806424D01*
X95557165Y-82806423D01*
X95467246Y-82686305D01*
X94840523Y-83313029D01*
X94779200Y-83346514D01*
X94709508Y-83341530D01*
X94658334Y-83305624D01*
X94567990Y-83199264D01*
X94498808Y-83146672D01*
X94457351Y-83090430D01*
X94452882Y-83020704D01*
X94486169Y-82960276D01*
X95113693Y-82332752D01*
X95113692Y-82332751D01*
X94993583Y-82242838D01*
X94993575Y-82242833D01*
X94758816Y-82114645D01*
X94758812Y-82114643D01*
X94508181Y-82021163D01*
X94246817Y-81964307D01*
X94246810Y-81964306D01*
X93980001Y-81945223D01*
X93979999Y-81945223D01*
X93713189Y-81964306D01*
X93713182Y-81964307D01*
X93451818Y-82021163D01*
X93201187Y-82114643D01*
X93201183Y-82114645D01*
X92966424Y-82242833D01*
X92966416Y-82242838D01*
X92846305Y-82332751D01*
X93470254Y-82956700D01*
X93503739Y-83018023D01*
X93498755Y-83087715D01*
X93465444Y-83132589D01*
X93467450Y-83134707D01*
X93328342Y-83266476D01*
X93313953Y-83287698D01*
X93311161Y-83291818D01*
X93309347Y-83294493D01*
X93255433Y-83338933D01*
X93186050Y-83347171D01*
X93123228Y-83316590D01*
X93119033Y-83312586D01*
X92492752Y-82686305D01*
X92492751Y-82686305D01*
X92402838Y-82806416D01*
X92402833Y-82806424D01*
X92274645Y-83041183D01*
X92274643Y-83041187D01*
X92181163Y-83291818D01*
X92124307Y-83553182D01*
X92124306Y-83553189D01*
X92105223Y-83819998D01*
X92105223Y-83820001D01*
X92124306Y-84086810D01*
X92124307Y-84086817D01*
X92181163Y-84348181D01*
X92274643Y-84598812D01*
X92274645Y-84598816D01*
X92402833Y-84833575D01*
X92402838Y-84833583D01*
X92492751Y-84953692D01*
X92492752Y-84953693D01*
X93119476Y-84326969D01*
X93180799Y-84293484D01*
X93250490Y-84298468D01*
X93301664Y-84334373D01*
X93392009Y-84440735D01*
X93461191Y-84493326D01*
X93502647Y-84549564D01*
X93507118Y-84619291D01*
X93473830Y-84679721D01*
X92846305Y-85307245D01*
X92846305Y-85307246D01*
X92966423Y-85397165D01*
X92966424Y-85397166D01*
X93201183Y-85525354D01*
X93201187Y-85525356D01*
X93451818Y-85618836D01*
X93713182Y-85675692D01*
X93713189Y-85675693D01*
X93979999Y-85694777D01*
X93980001Y-85694777D01*
X94246810Y-85675693D01*
X94246817Y-85675692D01*
X94508181Y-85618836D01*
X94758812Y-85525356D01*
X94758816Y-85525354D01*
X94909912Y-85442849D01*
X94978184Y-85427997D01*
X95043649Y-85452413D01*
X95085521Y-85508347D01*
X95090505Y-85578038D01*
X95075071Y-85616463D01*
X95071659Y-85622030D01*
X95071656Y-85622036D01*
X94974049Y-85857681D01*
X94974044Y-85857698D01*
X94914502Y-86105710D01*
X94894489Y-86360000D01*
X94914502Y-86614289D01*
X94974044Y-86862301D01*
X94974049Y-86862318D01*
X95071656Y-87097963D01*
X95071658Y-87097966D01*
X95075068Y-87103531D01*
X95093310Y-87170977D01*
X95072193Y-87237579D01*
X95018420Y-87282191D01*
X94949064Y-87290649D01*
X94909912Y-87277150D01*
X94758816Y-87194645D01*
X94758812Y-87194643D01*
X94508181Y-87101163D01*
X94246817Y-87044307D01*
X94246810Y-87044306D01*
X93980001Y-87025223D01*
X93979999Y-87025223D01*
X93713189Y-87044306D01*
X93713182Y-87044307D01*
X93451818Y-87101163D01*
X93201187Y-87194643D01*
X93201183Y-87194645D01*
X92966424Y-87322833D01*
X92966416Y-87322838D01*
X92846305Y-87412751D01*
X93470254Y-88036700D01*
X93503739Y-88098023D01*
X93498755Y-88167715D01*
X93465444Y-88212589D01*
X93467450Y-88214707D01*
X93328342Y-88346476D01*
X93313953Y-88367698D01*
X93311161Y-88371818D01*
X93309347Y-88374493D01*
X93255433Y-88418933D01*
X93186050Y-88427171D01*
X93123228Y-88396590D01*
X93119033Y-88392586D01*
X92492752Y-87766305D01*
X92492751Y-87766305D01*
X92402838Y-87886416D01*
X92402833Y-87886424D01*
X92274645Y-88121183D01*
X92274643Y-88121187D01*
X92181163Y-88371818D01*
X92124307Y-88633182D01*
X92124306Y-88633189D01*
X92105223Y-88899998D01*
X92105223Y-88900001D01*
X75534777Y-88900001D01*
X75534777Y-88899998D01*
X75515693Y-88633189D01*
X75515692Y-88633182D01*
X75458836Y-88371818D01*
X75365356Y-88121187D01*
X75365354Y-88121183D01*
X75237166Y-87886424D01*
X75237165Y-87886423D01*
X75147246Y-87766305D01*
X74520523Y-88393029D01*
X74459200Y-88426514D01*
X74389508Y-88421530D01*
X74338334Y-88385624D01*
X74247990Y-88279264D01*
X74178808Y-88226672D01*
X74137351Y-88170430D01*
X74132882Y-88100704D01*
X74166169Y-88040276D01*
X74793693Y-87412752D01*
X74793692Y-87412751D01*
X74673583Y-87322838D01*
X74673575Y-87322833D01*
X74438816Y-87194645D01*
X74438812Y-87194643D01*
X74188181Y-87101163D01*
X73926817Y-87044307D01*
X73926810Y-87044306D01*
X73660001Y-87025223D01*
X73659999Y-87025223D01*
X73393189Y-87044306D01*
X73393182Y-87044307D01*
X73131818Y-87101163D01*
X72881187Y-87194643D01*
X72881183Y-87194645D01*
X72730087Y-87277150D01*
X72661814Y-87292002D01*
X72596349Y-87267585D01*
X72554478Y-87211651D01*
X72549494Y-87141960D01*
X72564936Y-87103523D01*
X72568343Y-87097963D01*
X72665950Y-86862318D01*
X72665949Y-86862318D01*
X72665953Y-86862311D01*
X72725498Y-86614286D01*
X72745511Y-86360000D01*
X72725498Y-86105714D01*
X72665953Y-85857689D01*
X72665950Y-85857681D01*
X72568343Y-85622036D01*
X72568341Y-85622033D01*
X72564933Y-85616471D01*
X72546688Y-85549025D01*
X72567804Y-85482423D01*
X72621576Y-85437809D01*
X72690932Y-85429349D01*
X72730087Y-85442849D01*
X72881183Y-85525354D01*
X72881187Y-85525356D01*
X73131818Y-85618836D01*
X73393182Y-85675692D01*
X73393189Y-85675693D01*
X73659999Y-85694777D01*
X73660001Y-85694777D01*
X73926810Y-85675693D01*
X73926817Y-85675692D01*
X74188181Y-85618836D01*
X74438812Y-85525356D01*
X74438816Y-85525354D01*
X74673584Y-85397161D01*
X74793692Y-85307247D01*
X74793693Y-85307246D01*
X74169745Y-84683299D01*
X74136260Y-84621976D01*
X74141244Y-84552285D01*
X74174609Y-84507466D01*
X74172550Y-84505292D01*
X74177429Y-84500669D01*
X74177431Y-84500669D01*
X74311658Y-84373523D01*
X74330652Y-84345508D01*
X74384562Y-84301067D01*
X74453944Y-84292827D01*
X74516767Y-84323405D01*
X74520966Y-84327413D01*
X75147246Y-84953693D01*
X75147247Y-84953692D01*
X75237161Y-84833584D01*
X75365354Y-84598816D01*
X75365356Y-84598812D01*
X75458836Y-84348181D01*
X75515692Y-84086817D01*
X75515693Y-84086810D01*
X75534777Y-83820001D01*
X75534777Y-83819998D01*
X75515693Y-83553189D01*
X75515692Y-83553182D01*
X75458836Y-83291818D01*
X75365356Y-83041187D01*
X75365354Y-83041183D01*
X75237166Y-82806424D01*
X75237165Y-82806423D01*
X75147246Y-82686305D01*
X74520523Y-83313029D01*
X74459200Y-83346514D01*
X74389508Y-83341530D01*
X74338334Y-83305624D01*
X74247990Y-83199264D01*
X74178808Y-83146672D01*
X74137351Y-83090430D01*
X74132882Y-83020704D01*
X74166169Y-82960276D01*
X74793693Y-82332752D01*
X74793692Y-82332751D01*
X74673583Y-82242838D01*
X74673575Y-82242833D01*
X74438816Y-82114645D01*
X74438812Y-82114643D01*
X74188181Y-82021163D01*
X73926817Y-81964307D01*
X73926810Y-81964306D01*
X73660001Y-81945223D01*
X73659999Y-81945223D01*
X73393189Y-81964306D01*
X73393182Y-81964307D01*
X73131818Y-82021163D01*
X72881187Y-82114643D01*
X72881183Y-82114645D01*
X72646424Y-82242833D01*
X72646416Y-82242838D01*
X72526305Y-82332751D01*
X73150254Y-82956700D01*
X73183739Y-83018023D01*
X73178755Y-83087715D01*
X73145444Y-83132589D01*
X73147450Y-83134707D01*
X73008342Y-83266476D01*
X72993953Y-83287698D01*
X72991161Y-83291818D01*
X72989347Y-83294493D01*
X72935433Y-83338933D01*
X72866050Y-83347171D01*
X72803228Y-83316590D01*
X72799033Y-83312586D01*
X72172752Y-82686305D01*
X72172751Y-82686305D01*
X72082838Y-82806416D01*
X72082833Y-82806424D01*
X71954645Y-83041183D01*
X71954643Y-83041187D01*
X71861163Y-83291818D01*
X71804307Y-83553182D01*
X71804306Y-83553189D01*
X71785223Y-83819998D01*
X71785223Y-83820001D01*
X71804306Y-84086810D01*
X71804307Y-84086817D01*
X71861163Y-84348181D01*
X71954643Y-84598812D01*
X71954645Y-84598816D01*
X72037150Y-84749912D01*
X72052002Y-84818185D01*
X72027585Y-84883649D01*
X71971652Y-84925521D01*
X71901960Y-84930505D01*
X71863531Y-84915068D01*
X71857966Y-84911658D01*
X71857963Y-84911656D01*
X71622318Y-84814049D01*
X71622301Y-84814044D01*
X71374289Y-84754502D01*
X71120000Y-84734489D01*
X70865710Y-84754502D01*
X70617698Y-84814044D01*
X70617681Y-84814049D01*
X70382036Y-84911656D01*
X70382030Y-84911659D01*
X70376463Y-84915071D01*
X70309016Y-84933310D01*
X70242415Y-84912190D01*
X70197806Y-84858414D01*
X70189351Y-84789058D01*
X70202849Y-84749912D01*
X70285354Y-84598816D01*
X70285356Y-84598812D01*
X70378836Y-84348181D01*
X70435692Y-84086817D01*
X70435693Y-84086810D01*
X70454777Y-83820001D01*
X70454777Y-83819998D01*
X70435693Y-83553189D01*
X70435692Y-83553182D01*
X70378836Y-83291818D01*
X70285356Y-83041187D01*
X70285354Y-83041183D01*
X70157166Y-82806424D01*
X70157165Y-82806423D01*
X70067246Y-82686305D01*
X69440523Y-83313029D01*
X69379200Y-83346514D01*
X69309508Y-83341530D01*
X69258334Y-83305624D01*
X69167990Y-83199264D01*
X69098808Y-83146672D01*
X69057351Y-83090430D01*
X69052882Y-83020704D01*
X69086169Y-82960276D01*
X69713693Y-82332752D01*
X69713692Y-82332751D01*
X69593583Y-82242838D01*
X69593575Y-82242833D01*
X69358816Y-82114645D01*
X69358812Y-82114643D01*
X69108181Y-82021163D01*
X68846817Y-81964307D01*
X68846810Y-81964306D01*
X68580001Y-81945223D01*
X68579999Y-81945223D01*
X68313189Y-81964306D01*
X68313182Y-81964307D01*
X68051818Y-82021163D01*
X67801187Y-82114643D01*
X67801183Y-82114645D01*
X67566424Y-82242833D01*
X67566416Y-82242838D01*
X67446305Y-82332751D01*
X68070254Y-82956700D01*
X68103739Y-83018023D01*
X68098755Y-83087715D01*
X68065444Y-83132589D01*
X68067450Y-83134707D01*
X67928342Y-83266476D01*
X67913953Y-83287698D01*
X67911161Y-83291818D01*
X67909347Y-83294493D01*
X67855433Y-83338933D01*
X67786050Y-83347171D01*
X67723228Y-83316590D01*
X67719033Y-83312586D01*
X67092752Y-82686305D01*
X67092751Y-82686305D01*
X67002838Y-82806416D01*
X67002833Y-82806424D01*
X66874645Y-83041183D01*
X66874643Y-83041187D01*
X66781163Y-83291818D01*
X66724307Y-83553182D01*
X66724306Y-83553189D01*
X66705223Y-83819998D01*
X66705223Y-83820001D01*
X66724306Y-84086810D01*
X66724307Y-84086817D01*
X66781163Y-84348181D01*
X66874643Y-84598812D01*
X66874645Y-84598816D01*
X67002833Y-84833575D01*
X67002838Y-84833583D01*
X67092751Y-84953692D01*
X67092752Y-84953693D01*
X67719476Y-84326969D01*
X67780799Y-84293484D01*
X67850490Y-84298468D01*
X67901664Y-84334373D01*
X67992009Y-84440735D01*
X68061191Y-84493326D01*
X68102647Y-84549564D01*
X68107118Y-84619291D01*
X68073830Y-84679721D01*
X67446305Y-85307245D01*
X67446305Y-85307246D01*
X67566423Y-85397165D01*
X67566424Y-85397166D01*
X67757805Y-85501668D01*
X67807210Y-85551073D01*
X67822062Y-85619346D01*
X67797645Y-85684810D01*
X67741712Y-85726682D01*
X67698378Y-85734500D01*
X56190453Y-85734500D01*
X56123414Y-85714815D01*
X56102772Y-85698181D01*
X44520237Y-74115646D01*
X44486752Y-74054323D01*
X44488142Y-73995876D01*
X44515063Y-73895408D01*
X44535659Y-73660000D01*
X44515063Y-73424592D01*
X44464275Y-73235048D01*
X44453905Y-73196344D01*
X44453904Y-73196343D01*
X44453903Y-73196337D01*
X44354035Y-72982171D01*
X44349499Y-72975692D01*
X44218494Y-72788597D01*
X44051402Y-72621506D01*
X44051396Y-72621501D01*
X43865842Y-72491575D01*
X43822217Y-72436998D01*
X43815023Y-72367500D01*
X43846546Y-72305145D01*
X43865842Y-72288425D01*
X43970606Y-72215068D01*
X44051401Y-72158495D01*
X44218495Y-71991401D01*
X44353651Y-71798377D01*
X44408229Y-71754752D01*
X44455227Y-71745500D01*
X63189548Y-71745500D01*
X63256587Y-71765185D01*
X63277229Y-71781819D01*
X65539197Y-74043788D01*
X65549022Y-74056051D01*
X65549243Y-74055869D01*
X65554214Y-74061878D01*
X65578786Y-74084952D01*
X65604635Y-74109226D01*
X65625529Y-74130120D01*
X65631011Y-74134373D01*
X65635443Y-74138157D01*
X65669418Y-74170062D01*
X65686976Y-74179714D01*
X65703235Y-74190395D01*
X65719064Y-74202673D01*
X65761838Y-74221182D01*
X65767056Y-74223738D01*
X65807908Y-74246197D01*
X65827316Y-74251180D01*
X65845717Y-74257480D01*
X65864104Y-74265437D01*
X65907488Y-74272308D01*
X65910119Y-74272725D01*
X65915839Y-74273909D01*
X65960981Y-74285500D01*
X65981016Y-74285500D01*
X66000414Y-74287026D01*
X66020194Y-74290159D01*
X66020195Y-74290160D01*
X66020195Y-74290159D01*
X66020196Y-74290160D01*
X66066583Y-74285775D01*
X66072422Y-74285500D01*
X67698378Y-74285500D01*
X67765417Y-74305185D01*
X67811172Y-74357989D01*
X67821116Y-74427147D01*
X67792091Y-74490703D01*
X67757805Y-74518332D01*
X67566424Y-74622833D01*
X67566416Y-74622838D01*
X67446305Y-74712751D01*
X68070254Y-75336700D01*
X68103739Y-75398023D01*
X68098755Y-75467715D01*
X68065444Y-75512589D01*
X68067450Y-75514707D01*
X67928342Y-75646476D01*
X67913953Y-75667698D01*
X67911161Y-75671818D01*
X67909347Y-75674493D01*
X67855433Y-75718933D01*
X67786050Y-75727171D01*
X67723228Y-75696590D01*
X67719033Y-75692586D01*
X67092752Y-75066305D01*
X67092751Y-75066305D01*
X67002838Y-75186416D01*
X67002833Y-75186424D01*
X66874645Y-75421183D01*
X66874643Y-75421187D01*
X66781163Y-75671818D01*
X66724307Y-75933182D01*
X66724306Y-75933189D01*
X66705223Y-76199998D01*
X66705223Y-76200001D01*
X66724306Y-76466810D01*
X66724307Y-76466817D01*
X66781163Y-76728181D01*
X66874643Y-76978812D01*
X66874645Y-76978816D01*
X67002833Y-77213575D01*
X67002838Y-77213583D01*
X67092751Y-77333692D01*
X67092752Y-77333693D01*
X67719476Y-76706969D01*
X67780799Y-76673484D01*
X67850490Y-76678468D01*
X67901664Y-76714373D01*
X67992009Y-76820735D01*
X68061191Y-76873326D01*
X68102647Y-76929564D01*
X68107118Y-76999291D01*
X68073830Y-77059721D01*
X67446305Y-77687245D01*
X67446305Y-77687246D01*
X67566423Y-77777165D01*
X67566424Y-77777166D01*
X67801183Y-77905354D01*
X67801187Y-77905356D01*
X68051818Y-77998836D01*
X68313182Y-78055692D01*
X68313189Y-78055693D01*
X68579999Y-78074777D01*
X68580001Y-78074777D01*
X68846810Y-78055693D01*
X68846817Y-78055692D01*
X69108181Y-77998836D01*
X69358812Y-77905356D01*
X69358816Y-77905354D01*
X69593584Y-77777161D01*
X69713692Y-77687247D01*
X69713693Y-77687246D01*
X69089745Y-77063299D01*
X69056260Y-77001976D01*
X69061244Y-76932285D01*
X69094609Y-76887466D01*
X69092550Y-76885292D01*
X69097429Y-76880669D01*
X69097431Y-76880669D01*
X69231658Y-76753523D01*
X69250652Y-76725508D01*
X69304562Y-76681067D01*
X69373944Y-76672827D01*
X69436767Y-76703405D01*
X69440966Y-76707413D01*
X70067246Y-77333693D01*
X70067247Y-77333692D01*
X70157161Y-77213584D01*
X70285354Y-76978816D01*
X70285356Y-76978812D01*
X70378836Y-76728181D01*
X70435692Y-76466817D01*
X70435693Y-76466810D01*
X70454777Y-76200001D01*
X70454777Y-76199998D01*
X70435693Y-75933189D01*
X70435692Y-75933182D01*
X70378836Y-75671818D01*
X70285356Y-75421187D01*
X70285354Y-75421183D01*
X70202849Y-75270087D01*
X70187997Y-75201814D01*
X70212414Y-75136350D01*
X70268347Y-75094478D01*
X70338039Y-75089494D01*
X70376471Y-75104933D01*
X70382033Y-75108341D01*
X70382036Y-75108343D01*
X70617681Y-75205950D01*
X70617683Y-75205950D01*
X70617689Y-75205953D01*
X70865714Y-75265498D01*
X71120000Y-75285511D01*
X71374286Y-75265498D01*
X71622311Y-75205953D01*
X71729611Y-75161508D01*
X71857963Y-75108343D01*
X71857964Y-75108341D01*
X71857967Y-75108341D01*
X71863523Y-75104935D01*
X71930968Y-75086688D01*
X71997571Y-75107801D01*
X72042187Y-75161571D01*
X72050651Y-75230926D01*
X72037150Y-75270087D01*
X71954645Y-75421183D01*
X71954643Y-75421187D01*
X71861163Y-75671818D01*
X71804307Y-75933182D01*
X71804306Y-75933189D01*
X71785223Y-76199998D01*
X71785223Y-76200001D01*
X71804306Y-76466810D01*
X71804307Y-76466817D01*
X71861163Y-76728181D01*
X71954643Y-76978812D01*
X71954645Y-76978816D01*
X72082833Y-77213575D01*
X72082838Y-77213583D01*
X72172751Y-77333692D01*
X72172752Y-77333693D01*
X72799476Y-76706969D01*
X72860799Y-76673484D01*
X72930490Y-76678468D01*
X72981664Y-76714373D01*
X73072009Y-76820735D01*
X73141191Y-76873326D01*
X73182647Y-76929564D01*
X73187118Y-76999291D01*
X73153830Y-77059721D01*
X72526305Y-77687245D01*
X72526305Y-77687246D01*
X72646423Y-77777165D01*
X72646424Y-77777166D01*
X72881183Y-77905354D01*
X72881187Y-77905356D01*
X73131818Y-77998836D01*
X73393182Y-78055692D01*
X73393189Y-78055693D01*
X73659999Y-78074777D01*
X73660001Y-78074777D01*
X73926810Y-78055693D01*
X73926817Y-78055692D01*
X74188181Y-77998836D01*
X74438812Y-77905356D01*
X74438816Y-77905354D01*
X74673584Y-77777161D01*
X74793692Y-77687247D01*
X74793693Y-77687246D01*
X74169745Y-77063299D01*
X74136260Y-77001976D01*
X74141244Y-76932285D01*
X74174609Y-76887466D01*
X74172550Y-76885292D01*
X74177429Y-76880669D01*
X74177431Y-76880669D01*
X74311658Y-76753523D01*
X74330652Y-76725508D01*
X74384562Y-76681067D01*
X74453944Y-76672827D01*
X74516767Y-76703405D01*
X74520966Y-76707413D01*
X75147246Y-77333693D01*
X75147247Y-77333692D01*
X75237161Y-77213584D01*
X75365354Y-76978816D01*
X75365356Y-76978812D01*
X75458836Y-76728181D01*
X75515692Y-76466817D01*
X75515693Y-76466810D01*
X75534777Y-76200001D01*
X92105223Y-76200001D01*
X92124306Y-76466810D01*
X92124307Y-76466817D01*
X92181163Y-76728181D01*
X92274643Y-76978812D01*
X92274645Y-76978816D01*
X92402833Y-77213575D01*
X92402838Y-77213583D01*
X92492751Y-77333692D01*
X92492752Y-77333693D01*
X93119476Y-76706969D01*
X93180799Y-76673484D01*
X93250490Y-76678468D01*
X93301664Y-76714373D01*
X93392009Y-76820735D01*
X93461191Y-76873326D01*
X93502647Y-76929564D01*
X93507118Y-76999291D01*
X93473830Y-77059721D01*
X92846305Y-77687245D01*
X92846305Y-77687246D01*
X92966423Y-77777165D01*
X92966424Y-77777166D01*
X93201183Y-77905354D01*
X93201187Y-77905356D01*
X93451818Y-77998836D01*
X93713182Y-78055692D01*
X93713189Y-78055693D01*
X93979999Y-78074777D01*
X93980001Y-78074777D01*
X94246810Y-78055693D01*
X94246817Y-78055692D01*
X94508181Y-77998836D01*
X94758812Y-77905356D01*
X94758816Y-77905354D01*
X94993584Y-77777161D01*
X95113692Y-77687247D01*
X95113693Y-77687246D01*
X94489745Y-77063299D01*
X94456260Y-77001976D01*
X94461244Y-76932285D01*
X94494609Y-76887466D01*
X94492550Y-76885292D01*
X94497429Y-76880669D01*
X94497431Y-76880669D01*
X94631658Y-76753523D01*
X94650652Y-76725508D01*
X94704562Y-76681067D01*
X94773944Y-76672827D01*
X94836767Y-76703405D01*
X94840966Y-76707413D01*
X95467246Y-77333693D01*
X95467247Y-77333692D01*
X95557161Y-77213584D01*
X95685354Y-76978816D01*
X95685356Y-76978812D01*
X95778836Y-76728181D01*
X95835692Y-76466817D01*
X95835693Y-76466810D01*
X95854777Y-76200001D01*
X95854777Y-76199998D01*
X95835693Y-75933189D01*
X95835692Y-75933182D01*
X95778836Y-75671818D01*
X95685356Y-75421187D01*
X95685354Y-75421183D01*
X95602849Y-75270087D01*
X95587997Y-75201814D01*
X95612414Y-75136350D01*
X95668347Y-75094478D01*
X95738039Y-75089494D01*
X95776471Y-75104933D01*
X95782033Y-75108341D01*
X95782036Y-75108343D01*
X96017681Y-75205950D01*
X96017683Y-75205950D01*
X96017689Y-75205953D01*
X96265714Y-75265498D01*
X96520000Y-75285511D01*
X96774286Y-75265498D01*
X97022311Y-75205953D01*
X97129611Y-75161508D01*
X97257963Y-75108343D01*
X97257964Y-75108341D01*
X97257967Y-75108341D01*
X97263523Y-75104935D01*
X97330968Y-75086688D01*
X97397571Y-75107801D01*
X97442187Y-75161571D01*
X97450651Y-75230926D01*
X97437150Y-75270087D01*
X97354645Y-75421183D01*
X97354643Y-75421187D01*
X97261163Y-75671818D01*
X97204307Y-75933182D01*
X97204306Y-75933189D01*
X97185223Y-76199998D01*
X97185223Y-76200001D01*
X97204306Y-76466810D01*
X97204307Y-76466817D01*
X97261163Y-76728181D01*
X97354643Y-76978812D01*
X97354645Y-76978816D01*
X97482833Y-77213575D01*
X97482838Y-77213583D01*
X97572751Y-77333692D01*
X97572752Y-77333693D01*
X98199476Y-76706969D01*
X98260799Y-76673484D01*
X98330490Y-76678468D01*
X98381664Y-76714373D01*
X98472009Y-76820735D01*
X98541191Y-76873326D01*
X98582647Y-76929564D01*
X98587118Y-76999291D01*
X98553830Y-77059721D01*
X97926305Y-77687245D01*
X97926305Y-77687246D01*
X98046423Y-77777165D01*
X98046424Y-77777166D01*
X98281183Y-77905354D01*
X98281187Y-77905356D01*
X98531818Y-77998836D01*
X98793182Y-78055692D01*
X98793189Y-78055693D01*
X99059999Y-78074777D01*
X99060001Y-78074777D01*
X99326810Y-78055693D01*
X99326817Y-78055692D01*
X99588181Y-77998836D01*
X99838812Y-77905356D01*
X99838816Y-77905354D01*
X100073584Y-77777161D01*
X100193692Y-77687247D01*
X100193693Y-77687246D01*
X99569745Y-77063299D01*
X99536260Y-77001976D01*
X99541244Y-76932285D01*
X99574609Y-76887466D01*
X99572550Y-76885292D01*
X99577429Y-76880669D01*
X99577431Y-76880669D01*
X99711658Y-76753523D01*
X99730652Y-76725508D01*
X99784562Y-76681067D01*
X99853944Y-76672827D01*
X99916767Y-76703405D01*
X99920966Y-76707413D01*
X100547246Y-77333693D01*
X100547247Y-77333692D01*
X100637161Y-77213584D01*
X100765354Y-76978816D01*
X100765356Y-76978812D01*
X100858836Y-76728181D01*
X100915692Y-76466817D01*
X100915693Y-76466810D01*
X100934777Y-76200001D01*
X100934777Y-76199998D01*
X100915693Y-75933189D01*
X100915692Y-75933182D01*
X100858836Y-75671818D01*
X100765356Y-75421187D01*
X100765354Y-75421183D01*
X100637166Y-75186424D01*
X100637165Y-75186423D01*
X100547246Y-75066305D01*
X99920523Y-75693029D01*
X99859200Y-75726514D01*
X99789508Y-75721530D01*
X99738334Y-75685624D01*
X99647990Y-75579264D01*
X99578808Y-75526672D01*
X99537351Y-75470430D01*
X99532882Y-75400704D01*
X99566169Y-75340276D01*
X100193693Y-74712752D01*
X100193692Y-74712751D01*
X100073583Y-74622838D01*
X100073575Y-74622833D01*
X99838816Y-74494645D01*
X99838812Y-74494643D01*
X99588181Y-74401163D01*
X99326817Y-74344307D01*
X99326810Y-74344306D01*
X99060001Y-74325223D01*
X99059999Y-74325223D01*
X98793189Y-74344306D01*
X98793182Y-74344307D01*
X98531818Y-74401163D01*
X98281187Y-74494643D01*
X98281183Y-74494645D01*
X98130087Y-74577150D01*
X98061814Y-74592002D01*
X97996349Y-74567585D01*
X97954478Y-74511651D01*
X97949494Y-74441960D01*
X97964936Y-74403523D01*
X97968343Y-74397963D01*
X98065950Y-74162318D01*
X98065949Y-74162318D01*
X98065953Y-74162311D01*
X98125498Y-73914286D01*
X98145511Y-73660000D01*
X98125498Y-73405714D01*
X98065953Y-73157689D01*
X98065950Y-73157681D01*
X97968343Y-72922036D01*
X97968341Y-72922033D01*
X97964933Y-72916471D01*
X97946688Y-72849025D01*
X97967804Y-72782423D01*
X98021576Y-72737809D01*
X98090932Y-72729349D01*
X98130087Y-72742849D01*
X98281183Y-72825354D01*
X98281187Y-72825356D01*
X98531818Y-72918836D01*
X98793182Y-72975692D01*
X98793189Y-72975693D01*
X99059999Y-72994777D01*
X99060001Y-72994777D01*
X99326810Y-72975693D01*
X99326817Y-72975692D01*
X99588181Y-72918836D01*
X99838812Y-72825356D01*
X99838816Y-72825354D01*
X100073584Y-72697161D01*
X100193692Y-72607247D01*
X100193693Y-72607246D01*
X99569745Y-71983299D01*
X99536260Y-71921976D01*
X99541244Y-71852285D01*
X99574609Y-71807466D01*
X99572550Y-71805292D01*
X99577429Y-71800669D01*
X99577431Y-71800669D01*
X99711658Y-71673523D01*
X99730652Y-71645508D01*
X99784562Y-71601067D01*
X99853944Y-71592827D01*
X99916767Y-71623405D01*
X99920966Y-71627413D01*
X100547246Y-72253693D01*
X100547247Y-72253692D01*
X100637161Y-72133584D01*
X100765354Y-71898816D01*
X100765356Y-71898812D01*
X100858836Y-71648181D01*
X100915692Y-71386817D01*
X100915693Y-71386810D01*
X100934777Y-71120001D01*
X100934777Y-71119998D01*
X100915693Y-70853189D01*
X100915692Y-70853182D01*
X100858836Y-70591818D01*
X100765356Y-70341187D01*
X100765354Y-70341183D01*
X100637166Y-70106424D01*
X100637165Y-70106423D01*
X100547246Y-69986305D01*
X99920523Y-70613029D01*
X99859200Y-70646514D01*
X99789508Y-70641530D01*
X99738334Y-70605624D01*
X99647990Y-70499264D01*
X99578808Y-70446672D01*
X99537351Y-70390430D01*
X99532882Y-70320704D01*
X99566169Y-70260276D01*
X100193693Y-69632752D01*
X100193692Y-69632751D01*
X100073583Y-69542838D01*
X100073575Y-69542833D01*
X99838816Y-69414645D01*
X99838812Y-69414643D01*
X99588181Y-69321163D01*
X99326817Y-69264307D01*
X99326810Y-69264306D01*
X99060001Y-69245223D01*
X99059999Y-69245223D01*
X98793189Y-69264306D01*
X98793182Y-69264307D01*
X98531818Y-69321163D01*
X98281187Y-69414643D01*
X98281183Y-69414645D01*
X98046424Y-69542833D01*
X98046416Y-69542838D01*
X97926305Y-69632751D01*
X98550254Y-70256700D01*
X98583739Y-70318023D01*
X98578755Y-70387715D01*
X98545444Y-70432589D01*
X98547450Y-70434707D01*
X98408342Y-70566476D01*
X98393953Y-70587698D01*
X98391161Y-70591818D01*
X98389347Y-70594493D01*
X98335433Y-70638933D01*
X98266050Y-70647171D01*
X98203228Y-70616590D01*
X98199033Y-70612586D01*
X97572752Y-69986305D01*
X97572751Y-69986305D01*
X97482838Y-70106416D01*
X97482833Y-70106424D01*
X97354645Y-70341183D01*
X97354643Y-70341187D01*
X97261163Y-70591818D01*
X97204307Y-70853182D01*
X97204306Y-70853189D01*
X97185223Y-71119998D01*
X97185223Y-71120001D01*
X97204306Y-71386810D01*
X97204307Y-71386817D01*
X97261163Y-71648181D01*
X97354643Y-71898812D01*
X97354645Y-71898816D01*
X97437150Y-72049912D01*
X97452002Y-72118185D01*
X97427585Y-72183649D01*
X97371652Y-72225521D01*
X97301960Y-72230505D01*
X97263531Y-72215068D01*
X97257966Y-72211658D01*
X97257963Y-72211656D01*
X97022318Y-72114049D01*
X97022301Y-72114044D01*
X96774289Y-72054502D01*
X96520000Y-72034489D01*
X96265710Y-72054502D01*
X96017698Y-72114044D01*
X96017681Y-72114049D01*
X95782036Y-72211656D01*
X95782030Y-72211659D01*
X95776463Y-72215071D01*
X95709016Y-72233310D01*
X95642415Y-72212190D01*
X95597806Y-72158414D01*
X95589351Y-72089058D01*
X95602849Y-72049912D01*
X95685354Y-71898816D01*
X95685356Y-71898812D01*
X95778836Y-71648181D01*
X95835692Y-71386817D01*
X95835693Y-71386810D01*
X95854777Y-71120001D01*
X95854777Y-71119998D01*
X95835693Y-70853189D01*
X95835692Y-70853182D01*
X95778836Y-70591818D01*
X95685356Y-70341187D01*
X95685354Y-70341183D01*
X95557166Y-70106424D01*
X95557165Y-70106423D01*
X95467246Y-69986305D01*
X94840523Y-70613029D01*
X94779200Y-70646514D01*
X94709508Y-70641530D01*
X94658334Y-70605624D01*
X94567990Y-70499264D01*
X94498808Y-70446672D01*
X94457351Y-70390430D01*
X94452882Y-70320704D01*
X94486169Y-70260276D01*
X95113693Y-69632752D01*
X95113692Y-69632751D01*
X94993583Y-69542838D01*
X94993575Y-69542833D01*
X94758816Y-69414645D01*
X94758812Y-69414643D01*
X94508181Y-69321163D01*
X94246817Y-69264307D01*
X94246810Y-69264306D01*
X93980001Y-69245223D01*
X93979999Y-69245223D01*
X93713189Y-69264306D01*
X93713182Y-69264307D01*
X93451818Y-69321163D01*
X93201187Y-69414643D01*
X93201183Y-69414645D01*
X92966424Y-69542833D01*
X92966416Y-69542838D01*
X92846305Y-69632751D01*
X93470254Y-70256700D01*
X93503739Y-70318023D01*
X93498755Y-70387715D01*
X93465444Y-70432589D01*
X93467450Y-70434707D01*
X93328342Y-70566476D01*
X93313953Y-70587698D01*
X93311161Y-70591818D01*
X93309347Y-70594493D01*
X93255433Y-70638933D01*
X93186050Y-70647171D01*
X93123228Y-70616590D01*
X93119033Y-70612586D01*
X92492752Y-69986305D01*
X92492751Y-69986305D01*
X92402838Y-70106416D01*
X92402833Y-70106424D01*
X92274645Y-70341183D01*
X92274643Y-70341187D01*
X92181163Y-70591818D01*
X92124307Y-70853182D01*
X92124306Y-70853189D01*
X92105223Y-71119998D01*
X92105223Y-71120001D01*
X92124306Y-71386810D01*
X92124307Y-71386817D01*
X92181163Y-71648181D01*
X92274643Y-71898812D01*
X92274645Y-71898816D01*
X92402833Y-72133575D01*
X92402838Y-72133583D01*
X92492751Y-72253692D01*
X92492752Y-72253693D01*
X93119476Y-71626969D01*
X93180799Y-71593484D01*
X93250490Y-71598468D01*
X93301664Y-71634373D01*
X93392009Y-71740735D01*
X93461191Y-71793326D01*
X93502647Y-71849564D01*
X93507118Y-71919291D01*
X93473830Y-71979721D01*
X92846305Y-72607245D01*
X92846305Y-72607246D01*
X92966423Y-72697165D01*
X92966424Y-72697166D01*
X93201183Y-72825354D01*
X93201187Y-72825356D01*
X93451818Y-72918836D01*
X93713182Y-72975692D01*
X93713189Y-72975693D01*
X93979999Y-72994777D01*
X93980001Y-72994777D01*
X94246810Y-72975693D01*
X94246817Y-72975692D01*
X94508181Y-72918836D01*
X94758812Y-72825356D01*
X94758816Y-72825354D01*
X94909912Y-72742849D01*
X94978184Y-72727997D01*
X95043649Y-72752413D01*
X95085521Y-72808347D01*
X95090505Y-72878038D01*
X95075071Y-72916463D01*
X95071659Y-72922030D01*
X95071656Y-72922036D01*
X94974049Y-73157681D01*
X94974044Y-73157698D01*
X94914502Y-73405710D01*
X94894489Y-73660000D01*
X94914502Y-73914289D01*
X94974044Y-74162301D01*
X94974049Y-74162318D01*
X95071656Y-74397963D01*
X95071658Y-74397966D01*
X95075068Y-74403531D01*
X95093310Y-74470977D01*
X95072193Y-74537579D01*
X95018420Y-74582191D01*
X94949064Y-74590649D01*
X94909912Y-74577150D01*
X94758816Y-74494645D01*
X94758812Y-74494643D01*
X94508181Y-74401163D01*
X94246817Y-74344307D01*
X94246810Y-74344306D01*
X93980001Y-74325223D01*
X93979999Y-74325223D01*
X93713189Y-74344306D01*
X93713182Y-74344307D01*
X93451818Y-74401163D01*
X93201187Y-74494643D01*
X93201183Y-74494645D01*
X92966424Y-74622833D01*
X92966416Y-74622838D01*
X92846305Y-74712751D01*
X93470254Y-75336700D01*
X93503739Y-75398023D01*
X93498755Y-75467715D01*
X93465444Y-75512589D01*
X93467450Y-75514707D01*
X93328342Y-75646476D01*
X93313953Y-75667698D01*
X93311161Y-75671818D01*
X93309347Y-75674493D01*
X93255433Y-75718933D01*
X93186050Y-75727171D01*
X93123228Y-75696590D01*
X93119033Y-75692586D01*
X92492752Y-75066305D01*
X92492751Y-75066305D01*
X92402838Y-75186416D01*
X92402833Y-75186424D01*
X92274645Y-75421183D01*
X92274643Y-75421187D01*
X92181163Y-75671818D01*
X92124307Y-75933182D01*
X92124306Y-75933189D01*
X92105223Y-76199998D01*
X92105223Y-76200001D01*
X75534777Y-76200001D01*
X75534777Y-76199998D01*
X75515693Y-75933189D01*
X75515692Y-75933182D01*
X75458836Y-75671818D01*
X75365356Y-75421187D01*
X75365354Y-75421183D01*
X75237166Y-75186424D01*
X75237165Y-75186423D01*
X75147246Y-75066305D01*
X74520523Y-75693029D01*
X74459200Y-75726514D01*
X74389508Y-75721530D01*
X74338334Y-75685624D01*
X74247990Y-75579264D01*
X74178808Y-75526672D01*
X74137351Y-75470430D01*
X74132882Y-75400704D01*
X74166169Y-75340276D01*
X74793693Y-74712752D01*
X74793692Y-74712751D01*
X74673583Y-74622838D01*
X74673575Y-74622833D01*
X74438816Y-74494645D01*
X74438812Y-74494643D01*
X74188181Y-74401163D01*
X73926817Y-74344307D01*
X73926810Y-74344306D01*
X73660001Y-74325223D01*
X73659999Y-74325223D01*
X73393189Y-74344306D01*
X73393182Y-74344307D01*
X73131818Y-74401163D01*
X72881187Y-74494643D01*
X72881183Y-74494645D01*
X72730087Y-74577150D01*
X72661814Y-74592002D01*
X72596349Y-74567585D01*
X72554478Y-74511651D01*
X72549494Y-74441960D01*
X72564936Y-74403523D01*
X72568343Y-74397963D01*
X72665950Y-74162318D01*
X72665949Y-74162318D01*
X72665953Y-74162311D01*
X72725498Y-73914286D01*
X72745511Y-73660000D01*
X72725498Y-73405714D01*
X72665953Y-73157689D01*
X72665950Y-73157681D01*
X72568343Y-72922036D01*
X72568341Y-72922033D01*
X72564933Y-72916471D01*
X72546688Y-72849025D01*
X72567804Y-72782423D01*
X72621576Y-72737809D01*
X72690932Y-72729349D01*
X72730087Y-72742849D01*
X72881183Y-72825354D01*
X72881187Y-72825356D01*
X73131818Y-72918836D01*
X73393182Y-72975692D01*
X73393189Y-72975693D01*
X73659999Y-72994777D01*
X73660001Y-72994777D01*
X73926810Y-72975693D01*
X73926817Y-72975692D01*
X74188181Y-72918836D01*
X74438812Y-72825356D01*
X74438816Y-72825354D01*
X74673584Y-72697161D01*
X74793692Y-72607247D01*
X74793693Y-72607246D01*
X74169745Y-71983299D01*
X74136260Y-71921976D01*
X74141244Y-71852285D01*
X74174609Y-71807466D01*
X74172550Y-71805292D01*
X74177429Y-71800669D01*
X74177431Y-71800669D01*
X74311658Y-71673523D01*
X74330652Y-71645508D01*
X74384562Y-71601067D01*
X74453944Y-71592827D01*
X74516767Y-71623405D01*
X74520966Y-71627413D01*
X75147246Y-72253693D01*
X75147247Y-72253692D01*
X75237161Y-72133584D01*
X75365354Y-71898816D01*
X75365356Y-71898812D01*
X75458836Y-71648181D01*
X75515692Y-71386817D01*
X75515693Y-71386810D01*
X75534777Y-71120001D01*
X75534777Y-71119998D01*
X75515693Y-70853189D01*
X75515692Y-70853182D01*
X75458836Y-70591818D01*
X75365356Y-70341187D01*
X75365354Y-70341183D01*
X75237166Y-70106424D01*
X75237165Y-70106423D01*
X75147246Y-69986305D01*
X74520523Y-70613029D01*
X74459200Y-70646514D01*
X74389508Y-70641530D01*
X74338334Y-70605624D01*
X74247990Y-70499264D01*
X74178808Y-70446672D01*
X74137351Y-70390430D01*
X74132882Y-70320704D01*
X74166169Y-70260276D01*
X74793693Y-69632752D01*
X74793692Y-69632751D01*
X74673583Y-69542838D01*
X74673575Y-69542833D01*
X74438816Y-69414645D01*
X74438812Y-69414643D01*
X74188181Y-69321163D01*
X73926817Y-69264307D01*
X73926810Y-69264306D01*
X73660001Y-69245223D01*
X73659999Y-69245223D01*
X73393189Y-69264306D01*
X73393182Y-69264307D01*
X73131818Y-69321163D01*
X72881187Y-69414643D01*
X72881183Y-69414645D01*
X72646424Y-69542833D01*
X72646416Y-69542838D01*
X72526305Y-69632751D01*
X73150254Y-70256700D01*
X73183739Y-70318023D01*
X73178755Y-70387715D01*
X73145444Y-70432589D01*
X73147450Y-70434707D01*
X73008342Y-70566476D01*
X72993953Y-70587698D01*
X72991161Y-70591818D01*
X72989347Y-70594493D01*
X72935433Y-70638933D01*
X72866050Y-70647171D01*
X72803228Y-70616590D01*
X72799033Y-70612586D01*
X72172752Y-69986305D01*
X72172751Y-69986305D01*
X72082838Y-70106416D01*
X72082833Y-70106424D01*
X71954645Y-70341183D01*
X71954643Y-70341187D01*
X71861163Y-70591818D01*
X71804307Y-70853182D01*
X71804306Y-70853189D01*
X71785223Y-71119998D01*
X71785223Y-71120001D01*
X71804306Y-71386810D01*
X71804307Y-71386817D01*
X71861163Y-71648181D01*
X71954643Y-71898812D01*
X71954645Y-71898816D01*
X72037150Y-72049912D01*
X72052002Y-72118185D01*
X72027585Y-72183649D01*
X71971652Y-72225521D01*
X71901960Y-72230505D01*
X71863531Y-72215068D01*
X71857966Y-72211658D01*
X71857963Y-72211656D01*
X71622318Y-72114049D01*
X71622301Y-72114044D01*
X71374289Y-72054502D01*
X71120000Y-72034489D01*
X70865710Y-72054502D01*
X70617698Y-72114044D01*
X70617681Y-72114049D01*
X70382036Y-72211656D01*
X70382030Y-72211659D01*
X70376463Y-72215071D01*
X70309016Y-72233310D01*
X70242415Y-72212190D01*
X70197806Y-72158414D01*
X70189351Y-72089058D01*
X70202849Y-72049912D01*
X70285354Y-71898816D01*
X70285356Y-71898812D01*
X70378836Y-71648181D01*
X70435692Y-71386817D01*
X70435693Y-71386810D01*
X70454777Y-71120001D01*
X70454777Y-71119998D01*
X70435693Y-70853189D01*
X70435692Y-70853182D01*
X70378836Y-70591818D01*
X70285356Y-70341187D01*
X70285354Y-70341183D01*
X70157166Y-70106424D01*
X70157165Y-70106423D01*
X70067246Y-69986305D01*
X69440523Y-70613029D01*
X69379200Y-70646514D01*
X69309508Y-70641530D01*
X69258334Y-70605624D01*
X69167990Y-70499264D01*
X69098808Y-70446672D01*
X69057351Y-70390430D01*
X69052882Y-70320704D01*
X69086169Y-70260276D01*
X69713693Y-69632752D01*
X69713692Y-69632751D01*
X69593583Y-69542838D01*
X69593575Y-69542833D01*
X69358816Y-69414645D01*
X69358812Y-69414643D01*
X69108181Y-69321163D01*
X68846817Y-69264307D01*
X68846810Y-69264306D01*
X68580001Y-69245223D01*
X68579999Y-69245223D01*
X68313189Y-69264306D01*
X68313182Y-69264307D01*
X68051818Y-69321163D01*
X67801187Y-69414643D01*
X67801183Y-69414645D01*
X67566424Y-69542833D01*
X67566416Y-69542838D01*
X67446305Y-69632751D01*
X68070254Y-70256700D01*
X68103739Y-70318023D01*
X68098755Y-70387715D01*
X68065444Y-70432589D01*
X68067450Y-70434707D01*
X67928342Y-70566476D01*
X67913953Y-70587698D01*
X67911161Y-70591818D01*
X67909347Y-70594493D01*
X67855433Y-70638933D01*
X67786050Y-70647171D01*
X67723228Y-70616590D01*
X67719033Y-70612586D01*
X67092752Y-69986305D01*
X67092751Y-69986305D01*
X67002838Y-70106416D01*
X67002833Y-70106424D01*
X66874645Y-70341183D01*
X66874643Y-70341187D01*
X66781163Y-70591818D01*
X66724307Y-70853182D01*
X66724306Y-70853189D01*
X66705223Y-71119998D01*
X66705223Y-71120001D01*
X66724306Y-71386810D01*
X66724307Y-71386817D01*
X66781163Y-71648181D01*
X66874643Y-71898812D01*
X66874645Y-71898816D01*
X67002833Y-72133575D01*
X67002838Y-72133583D01*
X67092751Y-72253692D01*
X67092752Y-72253693D01*
X67719476Y-71626969D01*
X67780799Y-71593484D01*
X67850490Y-71598468D01*
X67901664Y-71634373D01*
X67992009Y-71740735D01*
X68061191Y-71793326D01*
X68102647Y-71849564D01*
X68107118Y-71919291D01*
X68073830Y-71979721D01*
X67446305Y-72607245D01*
X67446305Y-72607246D01*
X67566423Y-72697165D01*
X67566424Y-72697166D01*
X67757805Y-72801668D01*
X67807210Y-72851073D01*
X67822062Y-72919346D01*
X67797645Y-72984810D01*
X67741712Y-73026682D01*
X67698378Y-73034500D01*
X66350453Y-73034500D01*
X66283414Y-73014815D01*
X66262772Y-72998181D01*
X64000803Y-70736212D01*
X63990980Y-70723950D01*
X63990759Y-70724134D01*
X63985786Y-70718123D01*
X63935364Y-70670773D01*
X63920926Y-70656335D01*
X63914475Y-70649883D01*
X63908986Y-70645625D01*
X63904561Y-70641847D01*
X63870582Y-70609938D01*
X63870580Y-70609936D01*
X63870577Y-70609935D01*
X63853029Y-70600288D01*
X63836763Y-70589604D01*
X63820933Y-70577325D01*
X63778168Y-70558818D01*
X63772922Y-70556248D01*
X63732093Y-70533803D01*
X63732092Y-70533802D01*
X63712693Y-70528822D01*
X63694281Y-70522518D01*
X63675898Y-70514562D01*
X63675892Y-70514560D01*
X63629874Y-70507272D01*
X63624152Y-70506087D01*
X63579021Y-70494500D01*
X63579019Y-70494500D01*
X63558984Y-70494500D01*
X63539586Y-70492973D01*
X63532162Y-70491797D01*
X63519805Y-70489840D01*
X63519804Y-70489840D01*
X63473416Y-70494225D01*
X63467578Y-70494500D01*
X44455227Y-70494500D01*
X44388188Y-70474815D01*
X44353652Y-70441623D01*
X44218494Y-70248597D01*
X44051402Y-70081506D01*
X44051401Y-70081505D01*
X43865405Y-69951269D01*
X43821781Y-69896692D01*
X43814588Y-69827193D01*
X43846110Y-69764839D01*
X43865405Y-69748119D01*
X43941373Y-69694925D01*
X43439116Y-69192669D01*
X43405631Y-69131346D01*
X43410615Y-69061655D01*
X43447640Y-69012193D01*
X43446398Y-69010759D01*
X43453100Y-69004952D01*
X43561761Y-68910798D01*
X43596954Y-68856037D01*
X43649755Y-68810283D01*
X43718914Y-68800339D01*
X43782470Y-68829363D01*
X43788949Y-68835396D01*
X44294925Y-69341373D01*
X44294926Y-69341373D01*
X44353598Y-69257582D01*
X44353600Y-69257578D01*
X44453429Y-69043492D01*
X44453433Y-69043483D01*
X44514567Y-68815326D01*
X44514569Y-68815315D01*
X44535157Y-68580001D01*
X44535157Y-68579998D01*
X44514569Y-68344684D01*
X44514567Y-68344673D01*
X44453433Y-68116516D01*
X44453429Y-68116507D01*
X44353600Y-67902423D01*
X44353599Y-67902421D01*
X44294925Y-67818626D01*
X44294925Y-67818625D01*
X43788949Y-68324602D01*
X43727626Y-68358087D01*
X43657934Y-68353103D01*
X43602001Y-68311231D01*
X43596953Y-68303961D01*
X43561761Y-68249202D01*
X43446398Y-68149241D01*
X43448708Y-68146574D01*
X43414005Y-68106528D01*
X43404058Y-68037370D01*
X43433080Y-67973813D01*
X43439116Y-67967330D01*
X43941373Y-67465073D01*
X43864969Y-67411576D01*
X43821344Y-67356999D01*
X43814150Y-67287501D01*
X43845672Y-67225146D01*
X43864968Y-67208425D01*
X43941373Y-67154925D01*
X43439116Y-66652669D01*
X43405631Y-66591346D01*
X43410615Y-66521655D01*
X43447640Y-66472193D01*
X43446398Y-66470759D01*
X43453100Y-66464952D01*
X43561761Y-66370798D01*
X43596954Y-66316037D01*
X43649755Y-66270283D01*
X43718914Y-66260339D01*
X43782470Y-66289363D01*
X43788949Y-66295396D01*
X44294925Y-66801373D01*
X44294926Y-66801373D01*
X44353598Y-66717582D01*
X44353600Y-66717578D01*
X44453429Y-66503492D01*
X44453433Y-66503483D01*
X44514567Y-66275326D01*
X44514569Y-66275315D01*
X44535157Y-66040001D01*
X44535157Y-66039998D01*
X44514569Y-65804684D01*
X44514567Y-65804673D01*
X44453433Y-65576516D01*
X44453429Y-65576507D01*
X44353600Y-65362423D01*
X44353599Y-65362421D01*
X44294925Y-65278626D01*
X44294925Y-65278625D01*
X43788949Y-65784602D01*
X43727626Y-65818087D01*
X43657934Y-65813103D01*
X43602001Y-65771231D01*
X43596953Y-65763961D01*
X43561761Y-65709202D01*
X43446398Y-65609241D01*
X43448708Y-65606574D01*
X43414005Y-65566528D01*
X43404058Y-65497370D01*
X43433080Y-65433813D01*
X43439116Y-65427330D01*
X43941373Y-64925073D01*
X43864969Y-64871576D01*
X43821344Y-64816999D01*
X43814150Y-64747501D01*
X43845672Y-64685146D01*
X43864968Y-64668425D01*
X43941373Y-64614925D01*
X43439116Y-64112669D01*
X43405631Y-64051346D01*
X43410615Y-63981655D01*
X43447640Y-63932193D01*
X43446398Y-63930759D01*
X43481325Y-63900495D01*
X43561761Y-63830798D01*
X43596954Y-63776037D01*
X43649755Y-63730283D01*
X43718914Y-63720339D01*
X43782470Y-63749363D01*
X43788949Y-63755396D01*
X44294925Y-64261373D01*
X44294926Y-64261373D01*
X44353598Y-64177582D01*
X44353600Y-64177578D01*
X44453429Y-63963492D01*
X44453433Y-63963483D01*
X44514567Y-63735326D01*
X44514569Y-63735315D01*
X44535157Y-63500001D01*
X44535157Y-63499998D01*
X44514569Y-63264684D01*
X44514567Y-63264673D01*
X44453433Y-63036516D01*
X44453429Y-63036507D01*
X44353600Y-62822423D01*
X44353599Y-62822421D01*
X44294925Y-62738626D01*
X44294925Y-62738625D01*
X43788949Y-63244602D01*
X43727626Y-63278087D01*
X43657934Y-63273103D01*
X43602001Y-63231231D01*
X43596953Y-63223961D01*
X43561761Y-63169202D01*
X43446398Y-63069241D01*
X43448708Y-63066574D01*
X43414005Y-63026528D01*
X43404058Y-62957370D01*
X43433080Y-62893813D01*
X43439116Y-62887330D01*
X43941373Y-62385073D01*
X43941373Y-62385072D01*
X43864970Y-62331574D01*
X43821345Y-62276997D01*
X43814152Y-62207499D01*
X43845674Y-62145144D01*
X43864970Y-62128424D01*
X43941373Y-62074925D01*
X43439116Y-61572669D01*
X43405631Y-61511346D01*
X43410615Y-61441655D01*
X43447640Y-61392193D01*
X43446398Y-61390759D01*
X43479730Y-61361877D01*
X43561761Y-61290798D01*
X43596954Y-61236037D01*
X43649755Y-61190283D01*
X43718914Y-61180339D01*
X43782470Y-61209363D01*
X43788949Y-61215396D01*
X44294925Y-61721373D01*
X44294926Y-61721373D01*
X44353598Y-61637582D01*
X44353600Y-61637578D01*
X44453429Y-61423492D01*
X44453433Y-61423483D01*
X44514567Y-61195326D01*
X44514569Y-61195315D01*
X44535157Y-60960001D01*
X44535157Y-60959998D01*
X44514569Y-60724684D01*
X44514567Y-60724673D01*
X44453433Y-60496516D01*
X44453429Y-60496507D01*
X44353600Y-60282423D01*
X44353599Y-60282421D01*
X44294925Y-60198626D01*
X44294925Y-60198625D01*
X43788949Y-60704602D01*
X43727626Y-60738087D01*
X43657934Y-60733103D01*
X43602001Y-60691231D01*
X43596953Y-60683961D01*
X43561761Y-60629202D01*
X43446398Y-60529241D01*
X43448708Y-60526574D01*
X43414005Y-60486528D01*
X43404058Y-60417370D01*
X43433080Y-60353813D01*
X43439116Y-60347330D01*
X43941373Y-59845073D01*
X43941373Y-59845072D01*
X43865405Y-59791880D01*
X43821780Y-59737304D01*
X43814586Y-59667805D01*
X43846108Y-59605451D01*
X43865399Y-59588734D01*
X44051401Y-59458495D01*
X44218495Y-59291401D01*
X44353651Y-59098377D01*
X44408229Y-59054752D01*
X44455227Y-59045500D01*
X58109548Y-59045500D01*
X58176587Y-59065185D01*
X58197229Y-59081819D01*
X60459197Y-61343788D01*
X60469022Y-61356051D01*
X60469243Y-61355869D01*
X60474214Y-61361878D01*
X60498786Y-61384952D01*
X60524635Y-61409226D01*
X60545529Y-61430120D01*
X60551011Y-61434373D01*
X60555443Y-61438157D01*
X60589418Y-61470062D01*
X60606976Y-61479714D01*
X60623235Y-61490395D01*
X60639064Y-61502673D01*
X60681838Y-61521182D01*
X60687056Y-61523738D01*
X60727908Y-61546197D01*
X60747316Y-61551180D01*
X60765717Y-61557480D01*
X60784104Y-61565437D01*
X60827488Y-61572308D01*
X60830119Y-61572725D01*
X60835839Y-61573909D01*
X60880981Y-61585500D01*
X60901016Y-61585500D01*
X60920414Y-61587026D01*
X60940194Y-61590159D01*
X60940195Y-61590160D01*
X60940195Y-61590159D01*
X60940196Y-61590160D01*
X60986583Y-61585775D01*
X60992422Y-61585500D01*
X67698378Y-61585500D01*
X67765417Y-61605185D01*
X67811172Y-61657989D01*
X67821116Y-61727147D01*
X67792091Y-61790703D01*
X67757805Y-61818332D01*
X67566424Y-61922833D01*
X67566416Y-61922838D01*
X67446305Y-62012751D01*
X68070254Y-62636700D01*
X68103739Y-62698023D01*
X68098755Y-62767715D01*
X68065444Y-62812589D01*
X68067450Y-62814707D01*
X67928342Y-62946476D01*
X67920956Y-62957370D01*
X67911161Y-62971818D01*
X67909347Y-62974493D01*
X67855433Y-63018933D01*
X67786050Y-63027171D01*
X67723228Y-62996590D01*
X67719033Y-62992586D01*
X67092752Y-62366305D01*
X67092751Y-62366305D01*
X67002838Y-62486416D01*
X67002833Y-62486424D01*
X66874645Y-62721183D01*
X66874643Y-62721187D01*
X66781163Y-62971818D01*
X66724307Y-63233182D01*
X66724306Y-63233189D01*
X66705223Y-63499998D01*
X66705223Y-63500001D01*
X66724306Y-63766810D01*
X66724307Y-63766817D01*
X66781163Y-64028181D01*
X66874643Y-64278812D01*
X66874645Y-64278816D01*
X67002833Y-64513575D01*
X67002838Y-64513583D01*
X67092751Y-64633692D01*
X67092752Y-64633693D01*
X67719476Y-64006969D01*
X67780799Y-63973484D01*
X67850490Y-63978468D01*
X67901664Y-64014373D01*
X67992009Y-64120735D01*
X68061191Y-64173326D01*
X68102647Y-64229564D01*
X68107118Y-64299291D01*
X68073830Y-64359721D01*
X67446305Y-64987245D01*
X67446305Y-64987246D01*
X67566423Y-65077165D01*
X67566424Y-65077166D01*
X67801183Y-65205354D01*
X67801187Y-65205356D01*
X68051818Y-65298836D01*
X68313182Y-65355692D01*
X68313189Y-65355693D01*
X68579999Y-65374777D01*
X68580001Y-65374777D01*
X68846810Y-65355693D01*
X68846817Y-65355692D01*
X69108181Y-65298836D01*
X69358812Y-65205356D01*
X69358816Y-65205354D01*
X69593584Y-65077161D01*
X69713692Y-64987247D01*
X69713693Y-64987246D01*
X69089745Y-64363299D01*
X69056260Y-64301976D01*
X69061244Y-64232285D01*
X69094609Y-64187466D01*
X69092550Y-64185292D01*
X69097429Y-64180669D01*
X69097431Y-64180669D01*
X69231658Y-64053523D01*
X69250652Y-64025508D01*
X69304562Y-63981067D01*
X69373944Y-63972827D01*
X69436767Y-64003405D01*
X69440966Y-64007413D01*
X70067246Y-64633693D01*
X70067247Y-64633692D01*
X70157161Y-64513584D01*
X70285354Y-64278816D01*
X70285356Y-64278812D01*
X70378836Y-64028181D01*
X70435692Y-63766817D01*
X70435693Y-63766810D01*
X70454777Y-63500001D01*
X70454777Y-63499998D01*
X70435693Y-63233189D01*
X70435692Y-63233182D01*
X70378836Y-62971818D01*
X70285356Y-62721187D01*
X70285354Y-62721183D01*
X70202849Y-62570087D01*
X70187997Y-62501814D01*
X70212414Y-62436350D01*
X70268347Y-62394478D01*
X70338039Y-62389494D01*
X70376471Y-62404933D01*
X70382033Y-62408341D01*
X70382036Y-62408343D01*
X70617681Y-62505950D01*
X70617683Y-62505950D01*
X70617689Y-62505953D01*
X70865714Y-62565498D01*
X71120000Y-62585511D01*
X71374286Y-62565498D01*
X71622311Y-62505953D01*
X71729459Y-62461571D01*
X71857963Y-62408343D01*
X71857964Y-62408341D01*
X71857967Y-62408341D01*
X71863523Y-62404935D01*
X71930968Y-62386688D01*
X71997571Y-62407801D01*
X72042187Y-62461571D01*
X72050651Y-62530926D01*
X72037150Y-62570087D01*
X71954645Y-62721183D01*
X71954643Y-62721187D01*
X71861163Y-62971818D01*
X71804307Y-63233182D01*
X71804306Y-63233189D01*
X71785223Y-63499998D01*
X71785223Y-63500001D01*
X71804306Y-63766810D01*
X71804307Y-63766817D01*
X71861163Y-64028181D01*
X71954643Y-64278812D01*
X71954645Y-64278816D01*
X72082833Y-64513575D01*
X72082838Y-64513583D01*
X72172751Y-64633692D01*
X72172752Y-64633693D01*
X72799476Y-64006969D01*
X72860799Y-63973484D01*
X72930490Y-63978468D01*
X72981664Y-64014373D01*
X73072009Y-64120735D01*
X73141191Y-64173326D01*
X73182647Y-64229564D01*
X73187118Y-64299291D01*
X73153830Y-64359721D01*
X72526305Y-64987245D01*
X72526305Y-64987246D01*
X72646423Y-65077165D01*
X72646424Y-65077166D01*
X72881183Y-65205354D01*
X72881187Y-65205356D01*
X73131818Y-65298836D01*
X73393182Y-65355692D01*
X73393189Y-65355693D01*
X73659999Y-65374777D01*
X73660001Y-65374777D01*
X73926810Y-65355693D01*
X73926817Y-65355692D01*
X74188181Y-65298836D01*
X74438812Y-65205356D01*
X74438816Y-65205354D01*
X74673584Y-65077161D01*
X74793692Y-64987247D01*
X74793693Y-64987246D01*
X74169745Y-64363299D01*
X74136260Y-64301976D01*
X74141244Y-64232285D01*
X74174609Y-64187466D01*
X74172550Y-64185292D01*
X74177429Y-64180669D01*
X74177431Y-64180669D01*
X74311658Y-64053523D01*
X74330652Y-64025508D01*
X74384562Y-63981067D01*
X74453944Y-63972827D01*
X74516767Y-64003405D01*
X74520966Y-64007413D01*
X75147246Y-64633693D01*
X75147247Y-64633692D01*
X75237161Y-64513584D01*
X75365354Y-64278816D01*
X75365356Y-64278812D01*
X75458836Y-64028181D01*
X75515692Y-63766817D01*
X75515693Y-63766810D01*
X75534777Y-63500001D01*
X92105223Y-63500001D01*
X92124306Y-63766810D01*
X92124307Y-63766817D01*
X92181163Y-64028181D01*
X92274643Y-64278812D01*
X92274645Y-64278816D01*
X92402833Y-64513575D01*
X92402838Y-64513583D01*
X92492751Y-64633692D01*
X92492752Y-64633693D01*
X93119476Y-64006969D01*
X93180799Y-63973484D01*
X93250490Y-63978468D01*
X93301664Y-64014373D01*
X93392009Y-64120735D01*
X93461191Y-64173326D01*
X93502647Y-64229564D01*
X93507118Y-64299291D01*
X93473830Y-64359721D01*
X92846305Y-64987245D01*
X92846305Y-64987246D01*
X92966423Y-65077165D01*
X92966424Y-65077166D01*
X93201183Y-65205354D01*
X93201187Y-65205356D01*
X93451818Y-65298836D01*
X93713182Y-65355692D01*
X93713189Y-65355693D01*
X93979999Y-65374777D01*
X93980001Y-65374777D01*
X94246810Y-65355693D01*
X94246817Y-65355692D01*
X94508181Y-65298836D01*
X94758812Y-65205356D01*
X94758816Y-65205354D01*
X94993584Y-65077161D01*
X95113692Y-64987247D01*
X95113693Y-64987246D01*
X94489745Y-64363299D01*
X94456260Y-64301976D01*
X94461244Y-64232285D01*
X94494609Y-64187466D01*
X94492550Y-64185292D01*
X94497429Y-64180669D01*
X94497431Y-64180669D01*
X94631658Y-64053523D01*
X94650652Y-64025508D01*
X94704562Y-63981067D01*
X94773944Y-63972827D01*
X94836767Y-64003405D01*
X94840966Y-64007413D01*
X95467246Y-64633693D01*
X95467247Y-64633692D01*
X95557161Y-64513584D01*
X95685354Y-64278816D01*
X95685356Y-64278812D01*
X95778836Y-64028181D01*
X95835692Y-63766817D01*
X95835693Y-63766810D01*
X95854777Y-63500001D01*
X95854777Y-63499998D01*
X95835693Y-63233189D01*
X95835692Y-63233182D01*
X95778836Y-62971818D01*
X95685356Y-62721187D01*
X95685354Y-62721183D01*
X95602849Y-62570087D01*
X95587997Y-62501814D01*
X95612414Y-62436350D01*
X95668347Y-62394478D01*
X95738039Y-62389494D01*
X95776471Y-62404933D01*
X95782033Y-62408341D01*
X95782036Y-62408343D01*
X96017681Y-62505950D01*
X96017683Y-62505950D01*
X96017689Y-62505953D01*
X96265714Y-62565498D01*
X96520000Y-62585511D01*
X96774286Y-62565498D01*
X97022311Y-62505953D01*
X97129459Y-62461571D01*
X97257963Y-62408343D01*
X97257964Y-62408341D01*
X97257967Y-62408341D01*
X97263523Y-62404935D01*
X97330968Y-62386688D01*
X97397571Y-62407801D01*
X97442187Y-62461571D01*
X97450651Y-62530926D01*
X97437150Y-62570087D01*
X97354645Y-62721183D01*
X97354643Y-62721187D01*
X97261163Y-62971818D01*
X97204307Y-63233182D01*
X97204306Y-63233189D01*
X97185223Y-63499998D01*
X97185223Y-63500001D01*
X97204306Y-63766810D01*
X97204307Y-63766817D01*
X97261163Y-64028181D01*
X97354643Y-64278812D01*
X97354645Y-64278816D01*
X97482833Y-64513575D01*
X97482838Y-64513583D01*
X97572751Y-64633692D01*
X97572752Y-64633693D01*
X98199476Y-64006969D01*
X98260799Y-63973484D01*
X98330490Y-63978468D01*
X98381664Y-64014373D01*
X98472009Y-64120735D01*
X98541191Y-64173326D01*
X98582647Y-64229564D01*
X98587118Y-64299291D01*
X98553830Y-64359721D01*
X97926305Y-64987245D01*
X97926305Y-64987246D01*
X98046423Y-65077165D01*
X98046424Y-65077166D01*
X98281183Y-65205354D01*
X98281187Y-65205356D01*
X98531818Y-65298836D01*
X98793182Y-65355692D01*
X98793189Y-65355693D01*
X99059999Y-65374777D01*
X99060001Y-65374777D01*
X99326810Y-65355693D01*
X99326817Y-65355692D01*
X99588181Y-65298836D01*
X99838812Y-65205356D01*
X99838816Y-65205354D01*
X100073584Y-65077161D01*
X100193692Y-64987247D01*
X100193693Y-64987246D01*
X99569745Y-64363299D01*
X99536260Y-64301976D01*
X99541244Y-64232285D01*
X99574609Y-64187466D01*
X99572550Y-64185292D01*
X99577429Y-64180669D01*
X99577431Y-64180669D01*
X99711658Y-64053523D01*
X99730652Y-64025508D01*
X99784562Y-63981067D01*
X99853944Y-63972827D01*
X99916767Y-64003405D01*
X99920966Y-64007413D01*
X100547246Y-64633693D01*
X100547247Y-64633692D01*
X100637161Y-64513584D01*
X100765354Y-64278816D01*
X100765356Y-64278812D01*
X100858836Y-64028181D01*
X100915692Y-63766817D01*
X100915693Y-63766810D01*
X100934777Y-63500001D01*
X100934777Y-63499998D01*
X100915693Y-63233189D01*
X100915692Y-63233182D01*
X100858836Y-62971818D01*
X100765356Y-62721187D01*
X100765354Y-62721183D01*
X100637166Y-62486424D01*
X100637165Y-62486423D01*
X100547246Y-62366305D01*
X99920523Y-62993029D01*
X99859200Y-63026514D01*
X99789508Y-63021530D01*
X99738334Y-62985624D01*
X99647990Y-62879264D01*
X99578808Y-62826672D01*
X99537351Y-62770430D01*
X99532882Y-62700704D01*
X99566169Y-62640276D01*
X100193693Y-62012752D01*
X100193692Y-62012751D01*
X100073583Y-61922838D01*
X100073575Y-61922833D01*
X99838816Y-61794645D01*
X99838812Y-61794643D01*
X99588181Y-61701163D01*
X99326817Y-61644307D01*
X99326810Y-61644306D01*
X99060001Y-61625223D01*
X99059999Y-61625223D01*
X98793189Y-61644306D01*
X98793182Y-61644307D01*
X98531818Y-61701163D01*
X98281187Y-61794643D01*
X98281183Y-61794645D01*
X98130087Y-61877150D01*
X98061814Y-61892002D01*
X97996349Y-61867585D01*
X97954478Y-61811651D01*
X97949494Y-61741960D01*
X97964936Y-61703523D01*
X97968343Y-61697963D01*
X98065950Y-61462318D01*
X98065949Y-61462318D01*
X98065953Y-61462311D01*
X98125498Y-61214286D01*
X98145511Y-60960000D01*
X98125498Y-60705714D01*
X98065953Y-60457689D01*
X98065950Y-60457681D01*
X97968343Y-60222036D01*
X97968341Y-60222033D01*
X97964933Y-60216471D01*
X97946688Y-60149025D01*
X97967804Y-60082423D01*
X98021576Y-60037809D01*
X98090932Y-60029349D01*
X98130087Y-60042849D01*
X98281183Y-60125354D01*
X98281187Y-60125356D01*
X98531818Y-60218836D01*
X98793182Y-60275692D01*
X98793189Y-60275693D01*
X99059999Y-60294777D01*
X99060001Y-60294777D01*
X99326810Y-60275693D01*
X99326817Y-60275692D01*
X99588181Y-60218836D01*
X99838812Y-60125356D01*
X99838816Y-60125354D01*
X100073584Y-59997161D01*
X100193692Y-59907247D01*
X100193693Y-59907246D01*
X99569745Y-59283299D01*
X99536260Y-59221976D01*
X99541244Y-59152285D01*
X99574609Y-59107466D01*
X99572550Y-59105292D01*
X99577429Y-59100669D01*
X99577431Y-59100669D01*
X99711658Y-58973523D01*
X99730652Y-58945508D01*
X99784562Y-58901067D01*
X99853944Y-58892827D01*
X99916767Y-58923405D01*
X99920966Y-58927413D01*
X100547246Y-59553693D01*
X100547247Y-59553692D01*
X100637161Y-59433584D01*
X100765354Y-59198816D01*
X100765356Y-59198812D01*
X100858836Y-58948181D01*
X100915692Y-58686817D01*
X100915693Y-58686810D01*
X100934777Y-58420001D01*
X100934777Y-58419998D01*
X100915693Y-58153189D01*
X100915692Y-58153182D01*
X100858836Y-57891818D01*
X100765356Y-57641187D01*
X100765354Y-57641183D01*
X100637166Y-57406424D01*
X100637165Y-57406423D01*
X100547246Y-57286305D01*
X99920523Y-57913029D01*
X99859200Y-57946514D01*
X99789508Y-57941530D01*
X99738334Y-57905624D01*
X99647990Y-57799264D01*
X99578808Y-57746672D01*
X99537351Y-57690430D01*
X99532882Y-57620704D01*
X99566169Y-57560276D01*
X100193693Y-56932752D01*
X100193692Y-56932751D01*
X100073583Y-56842838D01*
X100073575Y-56842833D01*
X99838816Y-56714645D01*
X99838812Y-56714643D01*
X99588181Y-56621163D01*
X99326817Y-56564307D01*
X99326810Y-56564306D01*
X99060001Y-56545223D01*
X99059999Y-56545223D01*
X98793189Y-56564306D01*
X98793182Y-56564307D01*
X98531818Y-56621163D01*
X98281187Y-56714643D01*
X98281183Y-56714645D01*
X98046424Y-56842833D01*
X98046416Y-56842838D01*
X97926305Y-56932751D01*
X98550254Y-57556700D01*
X98583739Y-57618023D01*
X98578755Y-57687715D01*
X98545444Y-57732589D01*
X98547450Y-57734707D01*
X98408342Y-57866476D01*
X98393953Y-57887698D01*
X98391161Y-57891818D01*
X98389347Y-57894493D01*
X98335433Y-57938933D01*
X98266050Y-57947171D01*
X98203228Y-57916590D01*
X98199033Y-57912586D01*
X97572752Y-57286305D01*
X97572751Y-57286305D01*
X97482838Y-57406416D01*
X97482833Y-57406424D01*
X97354645Y-57641183D01*
X97354643Y-57641187D01*
X97261163Y-57891818D01*
X97204307Y-58153182D01*
X97204306Y-58153189D01*
X97185223Y-58419998D01*
X97185223Y-58420001D01*
X97204306Y-58686810D01*
X97204307Y-58686817D01*
X97261163Y-58948181D01*
X97354643Y-59198812D01*
X97354645Y-59198816D01*
X97437150Y-59349912D01*
X97452002Y-59418185D01*
X97427585Y-59483649D01*
X97371652Y-59525521D01*
X97301960Y-59530505D01*
X97263531Y-59515068D01*
X97257966Y-59511658D01*
X97257963Y-59511656D01*
X97022318Y-59414049D01*
X97022301Y-59414044D01*
X96774289Y-59354502D01*
X96520000Y-59334489D01*
X96265710Y-59354502D01*
X96017698Y-59414044D01*
X96017681Y-59414049D01*
X95782036Y-59511656D01*
X95782030Y-59511659D01*
X95776463Y-59515071D01*
X95709016Y-59533310D01*
X95642415Y-59512190D01*
X95597806Y-59458414D01*
X95589351Y-59389058D01*
X95602849Y-59349912D01*
X95685354Y-59198816D01*
X95685356Y-59198812D01*
X95778836Y-58948181D01*
X95835692Y-58686817D01*
X95835693Y-58686810D01*
X95854777Y-58420001D01*
X95854777Y-58419998D01*
X95835693Y-58153189D01*
X95835692Y-58153182D01*
X95778836Y-57891818D01*
X95685356Y-57641187D01*
X95685354Y-57641183D01*
X95557166Y-57406424D01*
X95557165Y-57406423D01*
X95467246Y-57286305D01*
X94840523Y-57913029D01*
X94779200Y-57946514D01*
X94709508Y-57941530D01*
X94658334Y-57905624D01*
X94567990Y-57799264D01*
X94498808Y-57746672D01*
X94457351Y-57690430D01*
X94452882Y-57620704D01*
X94486169Y-57560276D01*
X95113693Y-56932752D01*
X95113692Y-56932751D01*
X94993583Y-56842838D01*
X94993575Y-56842833D01*
X94758816Y-56714645D01*
X94758812Y-56714643D01*
X94508181Y-56621163D01*
X94246817Y-56564307D01*
X94246810Y-56564306D01*
X93980001Y-56545223D01*
X93979999Y-56545223D01*
X93713189Y-56564306D01*
X93713182Y-56564307D01*
X93451818Y-56621163D01*
X93201187Y-56714643D01*
X93201183Y-56714645D01*
X92966424Y-56842833D01*
X92966416Y-56842838D01*
X92846305Y-56932751D01*
X93470254Y-57556700D01*
X93503739Y-57618023D01*
X93498755Y-57687715D01*
X93465444Y-57732589D01*
X93467450Y-57734707D01*
X93328342Y-57866476D01*
X93313953Y-57887698D01*
X93311161Y-57891818D01*
X93309347Y-57894493D01*
X93255433Y-57938933D01*
X93186050Y-57947171D01*
X93123228Y-57916590D01*
X93119033Y-57912586D01*
X92492752Y-57286305D01*
X92492751Y-57286305D01*
X92402838Y-57406416D01*
X92402833Y-57406424D01*
X92274645Y-57641183D01*
X92274643Y-57641187D01*
X92181163Y-57891818D01*
X92124307Y-58153182D01*
X92124306Y-58153189D01*
X92105223Y-58419998D01*
X92105223Y-58420001D01*
X92124306Y-58686810D01*
X92124307Y-58686817D01*
X92181163Y-58948181D01*
X92274643Y-59198812D01*
X92274645Y-59198816D01*
X92402833Y-59433575D01*
X92402838Y-59433583D01*
X92492751Y-59553692D01*
X92492752Y-59553693D01*
X93119476Y-58926969D01*
X93180799Y-58893484D01*
X93250490Y-58898468D01*
X93301664Y-58934373D01*
X93392009Y-59040735D01*
X93461191Y-59093326D01*
X93502647Y-59149564D01*
X93507118Y-59219291D01*
X93473830Y-59279721D01*
X92846305Y-59907245D01*
X92846305Y-59907246D01*
X92966423Y-59997165D01*
X92966424Y-59997166D01*
X93201183Y-60125354D01*
X93201187Y-60125356D01*
X93451818Y-60218836D01*
X93713182Y-60275692D01*
X93713189Y-60275693D01*
X93979999Y-60294777D01*
X93980001Y-60294777D01*
X94246810Y-60275693D01*
X94246817Y-60275692D01*
X94508181Y-60218836D01*
X94758812Y-60125356D01*
X94758816Y-60125354D01*
X94909912Y-60042849D01*
X94978184Y-60027997D01*
X95043649Y-60052413D01*
X95085521Y-60108347D01*
X95090505Y-60178038D01*
X95075071Y-60216463D01*
X95071659Y-60222030D01*
X95071656Y-60222036D01*
X94974049Y-60457681D01*
X94974044Y-60457698D01*
X94914502Y-60705710D01*
X94894489Y-60960000D01*
X94914502Y-61214289D01*
X94974044Y-61462301D01*
X94974049Y-61462318D01*
X95071656Y-61697963D01*
X95071658Y-61697966D01*
X95075068Y-61703531D01*
X95093310Y-61770977D01*
X95072193Y-61837579D01*
X95018420Y-61882191D01*
X94949064Y-61890649D01*
X94909912Y-61877150D01*
X94758816Y-61794645D01*
X94758812Y-61794643D01*
X94508181Y-61701163D01*
X94246817Y-61644307D01*
X94246810Y-61644306D01*
X93980001Y-61625223D01*
X93979999Y-61625223D01*
X93713189Y-61644306D01*
X93713182Y-61644307D01*
X93451818Y-61701163D01*
X93201187Y-61794643D01*
X93201183Y-61794645D01*
X92966424Y-61922833D01*
X92966416Y-61922838D01*
X92846305Y-62012751D01*
X93470254Y-62636700D01*
X93503739Y-62698023D01*
X93498755Y-62767715D01*
X93465444Y-62812589D01*
X93467450Y-62814707D01*
X93328342Y-62946476D01*
X93320956Y-62957370D01*
X93311161Y-62971818D01*
X93309347Y-62974493D01*
X93255433Y-63018933D01*
X93186050Y-63027171D01*
X93123228Y-62996590D01*
X93119033Y-62992586D01*
X92492752Y-62366305D01*
X92492751Y-62366305D01*
X92402838Y-62486416D01*
X92402833Y-62486424D01*
X92274645Y-62721183D01*
X92274643Y-62721187D01*
X92181163Y-62971818D01*
X92124307Y-63233182D01*
X92124306Y-63233189D01*
X92105223Y-63499998D01*
X92105223Y-63500001D01*
X75534777Y-63500001D01*
X75534777Y-63499998D01*
X75515693Y-63233189D01*
X75515692Y-63233182D01*
X75458836Y-62971818D01*
X75365356Y-62721187D01*
X75365354Y-62721183D01*
X75237166Y-62486424D01*
X75237165Y-62486423D01*
X75147246Y-62366305D01*
X74520523Y-62993029D01*
X74459200Y-63026514D01*
X74389508Y-63021530D01*
X74338334Y-62985624D01*
X74247990Y-62879264D01*
X74178808Y-62826672D01*
X74137351Y-62770430D01*
X74132882Y-62700704D01*
X74166169Y-62640276D01*
X74793693Y-62012752D01*
X74793692Y-62012751D01*
X74673583Y-61922838D01*
X74673575Y-61922833D01*
X74438816Y-61794645D01*
X74438812Y-61794643D01*
X74188181Y-61701163D01*
X73926817Y-61644307D01*
X73926810Y-61644306D01*
X73660001Y-61625223D01*
X73659999Y-61625223D01*
X73393189Y-61644306D01*
X73393182Y-61644307D01*
X73131818Y-61701163D01*
X72881187Y-61794643D01*
X72881183Y-61794645D01*
X72730087Y-61877150D01*
X72661814Y-61892002D01*
X72596349Y-61867585D01*
X72554478Y-61811651D01*
X72549494Y-61741960D01*
X72564936Y-61703523D01*
X72568343Y-61697963D01*
X72665950Y-61462318D01*
X72665949Y-61462318D01*
X72665953Y-61462311D01*
X72725498Y-61214286D01*
X72745511Y-60960000D01*
X72725498Y-60705714D01*
X72665953Y-60457689D01*
X72665950Y-60457681D01*
X72568343Y-60222036D01*
X72568341Y-60222033D01*
X72564933Y-60216471D01*
X72546688Y-60149025D01*
X72567804Y-60082423D01*
X72621576Y-60037809D01*
X72690932Y-60029349D01*
X72730087Y-60042849D01*
X72881183Y-60125354D01*
X72881187Y-60125356D01*
X73131818Y-60218836D01*
X73393182Y-60275692D01*
X73393189Y-60275693D01*
X73659999Y-60294777D01*
X73660001Y-60294777D01*
X73926810Y-60275693D01*
X73926817Y-60275692D01*
X74188181Y-60218836D01*
X74438812Y-60125356D01*
X74438816Y-60125354D01*
X74673584Y-59997161D01*
X74793692Y-59907247D01*
X74793693Y-59907246D01*
X74169745Y-59283299D01*
X74136260Y-59221976D01*
X74141244Y-59152285D01*
X74174609Y-59107466D01*
X74172550Y-59105292D01*
X74177429Y-59100669D01*
X74177431Y-59100669D01*
X74311658Y-58973523D01*
X74330652Y-58945508D01*
X74384562Y-58901067D01*
X74453944Y-58892827D01*
X74516767Y-58923405D01*
X74520966Y-58927413D01*
X75147246Y-59553693D01*
X75147247Y-59553692D01*
X75237161Y-59433584D01*
X75365354Y-59198816D01*
X75365356Y-59198812D01*
X75458836Y-58948181D01*
X75515692Y-58686817D01*
X75515693Y-58686810D01*
X75534777Y-58420001D01*
X75534777Y-58419998D01*
X75515693Y-58153189D01*
X75515692Y-58153182D01*
X75458836Y-57891818D01*
X75365356Y-57641187D01*
X75365354Y-57641183D01*
X75237166Y-57406424D01*
X75237165Y-57406423D01*
X75147246Y-57286305D01*
X74520523Y-57913029D01*
X74459200Y-57946514D01*
X74389508Y-57941530D01*
X74338334Y-57905624D01*
X74247990Y-57799264D01*
X74178808Y-57746672D01*
X74137351Y-57690430D01*
X74132882Y-57620704D01*
X74166169Y-57560276D01*
X74793693Y-56932752D01*
X74793692Y-56932751D01*
X74673583Y-56842838D01*
X74673575Y-56842833D01*
X74438816Y-56714645D01*
X74438812Y-56714643D01*
X74188181Y-56621163D01*
X73926817Y-56564307D01*
X73926810Y-56564306D01*
X73660001Y-56545223D01*
X73659999Y-56545223D01*
X73393189Y-56564306D01*
X73393182Y-56564307D01*
X73131818Y-56621163D01*
X72881187Y-56714643D01*
X72881183Y-56714645D01*
X72646424Y-56842833D01*
X72646416Y-56842838D01*
X72526305Y-56932751D01*
X73150254Y-57556700D01*
X73183739Y-57618023D01*
X73178755Y-57687715D01*
X73145444Y-57732589D01*
X73147450Y-57734707D01*
X73008342Y-57866476D01*
X72993953Y-57887698D01*
X72991161Y-57891818D01*
X72989347Y-57894493D01*
X72935433Y-57938933D01*
X72866050Y-57947171D01*
X72803228Y-57916590D01*
X72799033Y-57912586D01*
X72172752Y-57286305D01*
X72172751Y-57286305D01*
X72082838Y-57406416D01*
X72082833Y-57406424D01*
X71954645Y-57641183D01*
X71954643Y-57641187D01*
X71861163Y-57891818D01*
X71804307Y-58153182D01*
X71804306Y-58153189D01*
X71785223Y-58419998D01*
X71785223Y-58420001D01*
X71804306Y-58686810D01*
X71804307Y-58686817D01*
X71861163Y-58948181D01*
X71954643Y-59198812D01*
X71954645Y-59198816D01*
X72037150Y-59349912D01*
X72052002Y-59418185D01*
X72027585Y-59483649D01*
X71971652Y-59525521D01*
X71901960Y-59530505D01*
X71863531Y-59515068D01*
X71857966Y-59511658D01*
X71857963Y-59511656D01*
X71622318Y-59414049D01*
X71622301Y-59414044D01*
X71374289Y-59354502D01*
X71120000Y-59334489D01*
X70865710Y-59354502D01*
X70617698Y-59414044D01*
X70617681Y-59414049D01*
X70382036Y-59511656D01*
X70382030Y-59511659D01*
X70376463Y-59515071D01*
X70309016Y-59533310D01*
X70242415Y-59512190D01*
X70197806Y-59458414D01*
X70189351Y-59389058D01*
X70202849Y-59349912D01*
X70285354Y-59198816D01*
X70285356Y-59198812D01*
X70378836Y-58948181D01*
X70435692Y-58686817D01*
X70435693Y-58686810D01*
X70454777Y-58420001D01*
X70454777Y-58419998D01*
X70435693Y-58153189D01*
X70435692Y-58153182D01*
X70378836Y-57891818D01*
X70285356Y-57641187D01*
X70285354Y-57641183D01*
X70157166Y-57406424D01*
X70157165Y-57406423D01*
X70067246Y-57286305D01*
X69440523Y-57913029D01*
X69379200Y-57946514D01*
X69309508Y-57941530D01*
X69258334Y-57905624D01*
X69167990Y-57799264D01*
X69098808Y-57746672D01*
X69057351Y-57690430D01*
X69052882Y-57620704D01*
X69086169Y-57560276D01*
X69713693Y-56932752D01*
X69713692Y-56932751D01*
X69593583Y-56842838D01*
X69593575Y-56842833D01*
X69358816Y-56714645D01*
X69358812Y-56714643D01*
X69108181Y-56621163D01*
X68846817Y-56564307D01*
X68846810Y-56564306D01*
X68580001Y-56545223D01*
X68579999Y-56545223D01*
X68313189Y-56564306D01*
X68313182Y-56564307D01*
X68051818Y-56621163D01*
X67801187Y-56714643D01*
X67801183Y-56714645D01*
X67566424Y-56842833D01*
X67566416Y-56842838D01*
X67446305Y-56932751D01*
X68070254Y-57556700D01*
X68103739Y-57618023D01*
X68098755Y-57687715D01*
X68065444Y-57732589D01*
X68067450Y-57734707D01*
X67928342Y-57866476D01*
X67913953Y-57887698D01*
X67911161Y-57891818D01*
X67909347Y-57894493D01*
X67855433Y-57938933D01*
X67786050Y-57947171D01*
X67723228Y-57916590D01*
X67719033Y-57912586D01*
X67092752Y-57286305D01*
X67092751Y-57286305D01*
X67002838Y-57406416D01*
X67002833Y-57406424D01*
X66874645Y-57641183D01*
X66874643Y-57641187D01*
X66781163Y-57891818D01*
X66724307Y-58153182D01*
X66724306Y-58153189D01*
X66705223Y-58419998D01*
X66705223Y-58420001D01*
X66724306Y-58686810D01*
X66724307Y-58686817D01*
X66781163Y-58948181D01*
X66874643Y-59198812D01*
X66874645Y-59198816D01*
X67002833Y-59433575D01*
X67002838Y-59433583D01*
X67092751Y-59553692D01*
X67092752Y-59553693D01*
X67719476Y-58926969D01*
X67780799Y-58893484D01*
X67850490Y-58898468D01*
X67901664Y-58934373D01*
X67992009Y-59040735D01*
X68061191Y-59093326D01*
X68102647Y-59149564D01*
X68107118Y-59219291D01*
X68073830Y-59279721D01*
X67446305Y-59907245D01*
X67446305Y-59907246D01*
X67566423Y-59997165D01*
X67566424Y-59997166D01*
X67757805Y-60101668D01*
X67807210Y-60151073D01*
X67822062Y-60219346D01*
X67797645Y-60284810D01*
X67741712Y-60326682D01*
X67698378Y-60334500D01*
X61270453Y-60334500D01*
X61203414Y-60314815D01*
X61182772Y-60298181D01*
X58920803Y-58036212D01*
X58910980Y-58023950D01*
X58910759Y-58024134D01*
X58905786Y-58018123D01*
X58855364Y-57970773D01*
X58840926Y-57956335D01*
X58834475Y-57949883D01*
X58828986Y-57945625D01*
X58824561Y-57941847D01*
X58790582Y-57909938D01*
X58790580Y-57909936D01*
X58790577Y-57909935D01*
X58773029Y-57900288D01*
X58756763Y-57889604D01*
X58740933Y-57877325D01*
X58698168Y-57858818D01*
X58692922Y-57856248D01*
X58652093Y-57833803D01*
X58652092Y-57833802D01*
X58632693Y-57828822D01*
X58614281Y-57822518D01*
X58595898Y-57814562D01*
X58595892Y-57814560D01*
X58549874Y-57807272D01*
X58544152Y-57806087D01*
X58499021Y-57794500D01*
X58499019Y-57794500D01*
X58478984Y-57794500D01*
X58459586Y-57792973D01*
X58452162Y-57791797D01*
X58439805Y-57789840D01*
X58439804Y-57789840D01*
X58393416Y-57794225D01*
X58387578Y-57794500D01*
X44455227Y-57794500D01*
X44388188Y-57774815D01*
X44353652Y-57741623D01*
X44218494Y-57548597D01*
X44051402Y-57381506D01*
X44051396Y-57381501D01*
X43865842Y-57251575D01*
X43822217Y-57196998D01*
X43815023Y-57127500D01*
X43846546Y-57065145D01*
X43865842Y-57048425D01*
X43942248Y-56994925D01*
X44051401Y-56918495D01*
X44218495Y-56751401D01*
X44353651Y-56558377D01*
X44408229Y-56514752D01*
X44455227Y-56505500D01*
X50717257Y-56505500D01*
X50732877Y-56507224D01*
X50732904Y-56506939D01*
X50740660Y-56507671D01*
X50740667Y-56507673D01*
X50809814Y-56505500D01*
X50839350Y-56505500D01*
X50846228Y-56504630D01*
X50852041Y-56504172D01*
X50898627Y-56502709D01*
X50917869Y-56497117D01*
X50936912Y-56493174D01*
X50956792Y-56490664D01*
X51000122Y-56473507D01*
X51005646Y-56471617D01*
X51009396Y-56470527D01*
X51050390Y-56458618D01*
X51067629Y-56448422D01*
X51085103Y-56439862D01*
X51103727Y-56432488D01*
X51103727Y-56432487D01*
X51103732Y-56432486D01*
X51141449Y-56405082D01*
X51146305Y-56401892D01*
X51186420Y-56378170D01*
X51200589Y-56363999D01*
X51215379Y-56351368D01*
X51231587Y-56339594D01*
X51261299Y-56303676D01*
X51265212Y-56299376D01*
X58642771Y-48921819D01*
X58704095Y-48888334D01*
X58730453Y-48885500D01*
X67698378Y-48885500D01*
X67765417Y-48905185D01*
X67811172Y-48957989D01*
X67821116Y-49027147D01*
X67792091Y-49090703D01*
X67757805Y-49118332D01*
X67566424Y-49222833D01*
X67566416Y-49222838D01*
X67446305Y-49312751D01*
X68070254Y-49936700D01*
X68103739Y-49998023D01*
X68098755Y-50067715D01*
X68065444Y-50112589D01*
X68067450Y-50114707D01*
X67928342Y-50246476D01*
X67913953Y-50267698D01*
X67911161Y-50271818D01*
X67909347Y-50274493D01*
X67855433Y-50318933D01*
X67786050Y-50327171D01*
X67723228Y-50296590D01*
X67719033Y-50292586D01*
X67092752Y-49666305D01*
X67092751Y-49666305D01*
X67002838Y-49786416D01*
X67002833Y-49786424D01*
X66874645Y-50021183D01*
X66874643Y-50021187D01*
X66781163Y-50271818D01*
X66724307Y-50533182D01*
X66724306Y-50533189D01*
X66705223Y-50799998D01*
X66705223Y-50800001D01*
X66724306Y-51066810D01*
X66724307Y-51066817D01*
X66781163Y-51328181D01*
X66874643Y-51578812D01*
X66874645Y-51578816D01*
X67002833Y-51813575D01*
X67002838Y-51813583D01*
X67092751Y-51933692D01*
X67092752Y-51933693D01*
X67719476Y-51306969D01*
X67780799Y-51273484D01*
X67850490Y-51278468D01*
X67901664Y-51314373D01*
X67992009Y-51420735D01*
X68061191Y-51473326D01*
X68102647Y-51529564D01*
X68107118Y-51599291D01*
X68073830Y-51659721D01*
X67446305Y-52287245D01*
X67446305Y-52287246D01*
X67566423Y-52377165D01*
X67566424Y-52377166D01*
X67801183Y-52505354D01*
X67801187Y-52505356D01*
X68051818Y-52598836D01*
X68313182Y-52655692D01*
X68313189Y-52655693D01*
X68579999Y-52674777D01*
X68580001Y-52674777D01*
X68846810Y-52655693D01*
X68846817Y-52655692D01*
X69108181Y-52598836D01*
X69358812Y-52505356D01*
X69358816Y-52505354D01*
X69593584Y-52377161D01*
X69713692Y-52287247D01*
X69713693Y-52287246D01*
X69089745Y-51663299D01*
X69056260Y-51601976D01*
X69061244Y-51532285D01*
X69094609Y-51487466D01*
X69092550Y-51485292D01*
X69097429Y-51480669D01*
X69097431Y-51480669D01*
X69231658Y-51353523D01*
X69250652Y-51325508D01*
X69304562Y-51281067D01*
X69373944Y-51272827D01*
X69436767Y-51303405D01*
X69440966Y-51307413D01*
X70067246Y-51933693D01*
X70067247Y-51933692D01*
X70157161Y-51813584D01*
X70285354Y-51578816D01*
X70285356Y-51578812D01*
X70378836Y-51328181D01*
X70435692Y-51066817D01*
X70435693Y-51066810D01*
X70454777Y-50800001D01*
X70454777Y-50799998D01*
X70435693Y-50533189D01*
X70435692Y-50533182D01*
X70378836Y-50271818D01*
X70285356Y-50021187D01*
X70285354Y-50021183D01*
X70202849Y-49870087D01*
X70187997Y-49801814D01*
X70212414Y-49736350D01*
X70268347Y-49694478D01*
X70338039Y-49689494D01*
X70376471Y-49704933D01*
X70382033Y-49708341D01*
X70382036Y-49708343D01*
X70617681Y-49805950D01*
X70617683Y-49805950D01*
X70617689Y-49805953D01*
X70865714Y-49865498D01*
X71120000Y-49885511D01*
X71374286Y-49865498D01*
X71622311Y-49805953D01*
X71729459Y-49761571D01*
X71857963Y-49708343D01*
X71857964Y-49708341D01*
X71857967Y-49708341D01*
X71863523Y-49704935D01*
X71930968Y-49686688D01*
X71997571Y-49707801D01*
X72042187Y-49761571D01*
X72050651Y-49830926D01*
X72037150Y-49870087D01*
X71954645Y-50021183D01*
X71954643Y-50021187D01*
X71861163Y-50271818D01*
X71804307Y-50533182D01*
X71804306Y-50533189D01*
X71785223Y-50799998D01*
X71785223Y-50800001D01*
X71804306Y-51066810D01*
X71804307Y-51066817D01*
X71861163Y-51328181D01*
X71954643Y-51578812D01*
X71954645Y-51578816D01*
X72082833Y-51813575D01*
X72082838Y-51813583D01*
X72172751Y-51933692D01*
X72172752Y-51933693D01*
X72799476Y-51306969D01*
X72860799Y-51273484D01*
X72930490Y-51278468D01*
X72981664Y-51314373D01*
X73072009Y-51420735D01*
X73141191Y-51473326D01*
X73182647Y-51529564D01*
X73187118Y-51599291D01*
X73153830Y-51659721D01*
X72526305Y-52287245D01*
X72526305Y-52287246D01*
X72646423Y-52377165D01*
X72646424Y-52377166D01*
X72881183Y-52505354D01*
X72881187Y-52505356D01*
X73131818Y-52598836D01*
X73393182Y-52655692D01*
X73393189Y-52655693D01*
X73659999Y-52674777D01*
X73660001Y-52674777D01*
X73926810Y-52655693D01*
X73926817Y-52655692D01*
X74188181Y-52598836D01*
X74438812Y-52505356D01*
X74438816Y-52505354D01*
X74673584Y-52377161D01*
X74793692Y-52287247D01*
X74793693Y-52287246D01*
X74169745Y-51663299D01*
X74136260Y-51601976D01*
X74141244Y-51532285D01*
X74174609Y-51487466D01*
X74172550Y-51485292D01*
X74177429Y-51480669D01*
X74177431Y-51480669D01*
X74311658Y-51353523D01*
X74330652Y-51325508D01*
X74384562Y-51281067D01*
X74453944Y-51272827D01*
X74516767Y-51303405D01*
X74520966Y-51307413D01*
X75147246Y-51933693D01*
X75147247Y-51933692D01*
X75237161Y-51813584D01*
X75365354Y-51578816D01*
X75365356Y-51578812D01*
X75458836Y-51328181D01*
X75515692Y-51066817D01*
X75515693Y-51066810D01*
X75534777Y-50800001D01*
X92105223Y-50800001D01*
X92124306Y-51066810D01*
X92124307Y-51066817D01*
X92181163Y-51328181D01*
X92274643Y-51578812D01*
X92274645Y-51578816D01*
X92402833Y-51813575D01*
X92402838Y-51813583D01*
X92492751Y-51933692D01*
X92492752Y-51933693D01*
X93119476Y-51306969D01*
X93180799Y-51273484D01*
X93250490Y-51278468D01*
X93301664Y-51314373D01*
X93392009Y-51420735D01*
X93461191Y-51473326D01*
X93502647Y-51529564D01*
X93507118Y-51599291D01*
X93473830Y-51659721D01*
X92846305Y-52287245D01*
X92846305Y-52287246D01*
X92966423Y-52377165D01*
X92966424Y-52377166D01*
X93201183Y-52505354D01*
X93201187Y-52505356D01*
X93451818Y-52598836D01*
X93713182Y-52655692D01*
X93713189Y-52655693D01*
X93979999Y-52674777D01*
X93980001Y-52674777D01*
X94246810Y-52655693D01*
X94246817Y-52655692D01*
X94508181Y-52598836D01*
X94758812Y-52505356D01*
X94758816Y-52505354D01*
X94993584Y-52377161D01*
X95113692Y-52287247D01*
X95113693Y-52287246D01*
X94489745Y-51663299D01*
X94456260Y-51601976D01*
X94461244Y-51532285D01*
X94494609Y-51487466D01*
X94492550Y-51485292D01*
X94497429Y-51480669D01*
X94497431Y-51480669D01*
X94631658Y-51353523D01*
X94650652Y-51325508D01*
X94704562Y-51281067D01*
X94773944Y-51272827D01*
X94836767Y-51303405D01*
X94840966Y-51307413D01*
X95467246Y-51933693D01*
X95467247Y-51933692D01*
X95557161Y-51813584D01*
X95685354Y-51578816D01*
X95685356Y-51578812D01*
X95778836Y-51328181D01*
X95835692Y-51066817D01*
X95835693Y-51066810D01*
X95854777Y-50800001D01*
X95854777Y-50799998D01*
X95835693Y-50533189D01*
X95835692Y-50533182D01*
X95778836Y-50271818D01*
X95685356Y-50021187D01*
X95685354Y-50021183D01*
X95602849Y-49870087D01*
X95587997Y-49801814D01*
X95612414Y-49736350D01*
X95668347Y-49694478D01*
X95738039Y-49689494D01*
X95776471Y-49704933D01*
X95782033Y-49708341D01*
X95782036Y-49708343D01*
X96017681Y-49805950D01*
X96017683Y-49805950D01*
X96017689Y-49805953D01*
X96265714Y-49865498D01*
X96520000Y-49885511D01*
X96774286Y-49865498D01*
X97022311Y-49805953D01*
X97129459Y-49761571D01*
X97257963Y-49708343D01*
X97257964Y-49708341D01*
X97257967Y-49708341D01*
X97263523Y-49704935D01*
X97330968Y-49686688D01*
X97397571Y-49707801D01*
X97442187Y-49761571D01*
X97450651Y-49830926D01*
X97437150Y-49870087D01*
X97354645Y-50021183D01*
X97354643Y-50021187D01*
X97261163Y-50271818D01*
X97204307Y-50533182D01*
X97204306Y-50533189D01*
X97185223Y-50799998D01*
X97185223Y-50800001D01*
X97204306Y-51066810D01*
X97204307Y-51066817D01*
X97261163Y-51328181D01*
X97354643Y-51578812D01*
X97354645Y-51578816D01*
X97482833Y-51813575D01*
X97482838Y-51813583D01*
X97572751Y-51933692D01*
X97572752Y-51933693D01*
X98199476Y-51306969D01*
X98260799Y-51273484D01*
X98330490Y-51278468D01*
X98381664Y-51314373D01*
X98472009Y-51420735D01*
X98541191Y-51473326D01*
X98582647Y-51529564D01*
X98587118Y-51599291D01*
X98553830Y-51659721D01*
X97926305Y-52287245D01*
X97926305Y-52287246D01*
X98046423Y-52377165D01*
X98046424Y-52377166D01*
X98281183Y-52505354D01*
X98281187Y-52505356D01*
X98531818Y-52598836D01*
X98793182Y-52655692D01*
X98793189Y-52655693D01*
X99059999Y-52674777D01*
X99060001Y-52674777D01*
X99326810Y-52655693D01*
X99326817Y-52655692D01*
X99588181Y-52598836D01*
X99838812Y-52505356D01*
X99838816Y-52505354D01*
X100073584Y-52377161D01*
X100193692Y-52287247D01*
X100193693Y-52287246D01*
X99569745Y-51663299D01*
X99536260Y-51601976D01*
X99541244Y-51532285D01*
X99574609Y-51487466D01*
X99572550Y-51485292D01*
X99577429Y-51480669D01*
X99577431Y-51480669D01*
X99711658Y-51353523D01*
X99730652Y-51325508D01*
X99784562Y-51281067D01*
X99853944Y-51272827D01*
X99916767Y-51303405D01*
X99920966Y-51307413D01*
X100547246Y-51933693D01*
X100547247Y-51933692D01*
X100637161Y-51813584D01*
X100765354Y-51578816D01*
X100765356Y-51578812D01*
X100858836Y-51328181D01*
X100915692Y-51066817D01*
X100915693Y-51066810D01*
X100934777Y-50800001D01*
X100934777Y-50799998D01*
X100915693Y-50533189D01*
X100915692Y-50533182D01*
X100858836Y-50271818D01*
X100765356Y-50021187D01*
X100765354Y-50021183D01*
X100637166Y-49786424D01*
X100637165Y-49786423D01*
X100547246Y-49666305D01*
X99920523Y-50293029D01*
X99859200Y-50326514D01*
X99789508Y-50321530D01*
X99738334Y-50285624D01*
X99647990Y-50179264D01*
X99578808Y-50126672D01*
X99537351Y-50070430D01*
X99532882Y-50000704D01*
X99566169Y-49940276D01*
X100193693Y-49312752D01*
X100193692Y-49312751D01*
X100073583Y-49222838D01*
X100073575Y-49222833D01*
X99838816Y-49094645D01*
X99838812Y-49094643D01*
X99588181Y-49001163D01*
X99326817Y-48944307D01*
X99326810Y-48944306D01*
X99060001Y-48925223D01*
X99059999Y-48925223D01*
X98793189Y-48944306D01*
X98793182Y-48944307D01*
X98531818Y-49001163D01*
X98281187Y-49094643D01*
X98281183Y-49094645D01*
X98130087Y-49177150D01*
X98061814Y-49192002D01*
X97996349Y-49167585D01*
X97954478Y-49111651D01*
X97949494Y-49041960D01*
X97964936Y-49003523D01*
X97968343Y-48997963D01*
X98065950Y-48762318D01*
X98065949Y-48762318D01*
X98065953Y-48762311D01*
X98125498Y-48514286D01*
X98145511Y-48260000D01*
X98125498Y-48005714D01*
X98065953Y-47757689D01*
X98057844Y-47738112D01*
X97968343Y-47522036D01*
X97968341Y-47522033D01*
X97964933Y-47516471D01*
X97946688Y-47449025D01*
X97967804Y-47382423D01*
X98021576Y-47337809D01*
X98090932Y-47329349D01*
X98130087Y-47342849D01*
X98281183Y-47425354D01*
X98281187Y-47425356D01*
X98531818Y-47518836D01*
X98793182Y-47575692D01*
X98793189Y-47575693D01*
X99059999Y-47594777D01*
X99060001Y-47594777D01*
X99326810Y-47575693D01*
X99326817Y-47575692D01*
X99588181Y-47518836D01*
X99838812Y-47425356D01*
X99838816Y-47425354D01*
X100073584Y-47297161D01*
X100193692Y-47207247D01*
X100193693Y-47207246D01*
X99569745Y-46583299D01*
X99536260Y-46521976D01*
X99541244Y-46452285D01*
X99574609Y-46407466D01*
X99572550Y-46405292D01*
X99577429Y-46400669D01*
X99577431Y-46400669D01*
X99711658Y-46273523D01*
X99730652Y-46245508D01*
X99784562Y-46201067D01*
X99853944Y-46192827D01*
X99916767Y-46223405D01*
X99920966Y-46227413D01*
X100547246Y-46853693D01*
X100547247Y-46853692D01*
X100637161Y-46733584D01*
X100765354Y-46498816D01*
X100765356Y-46498812D01*
X100858836Y-46248181D01*
X100915692Y-45986817D01*
X100915693Y-45986810D01*
X100934777Y-45720001D01*
X100934777Y-45719998D01*
X100915693Y-45453189D01*
X100915692Y-45453182D01*
X100858836Y-45191818D01*
X100765356Y-44941187D01*
X100765354Y-44941183D01*
X100637166Y-44706424D01*
X100637165Y-44706423D01*
X100547246Y-44586305D01*
X99920523Y-45213029D01*
X99859200Y-45246514D01*
X99789508Y-45241530D01*
X99738334Y-45205624D01*
X99647990Y-45099264D01*
X99578808Y-45046672D01*
X99537351Y-44990430D01*
X99532882Y-44920704D01*
X99566169Y-44860276D01*
X100193693Y-44232752D01*
X100193692Y-44232751D01*
X100073583Y-44142838D01*
X100073575Y-44142833D01*
X99838816Y-44014645D01*
X99838812Y-44014643D01*
X99588181Y-43921163D01*
X99326817Y-43864307D01*
X99326810Y-43864306D01*
X99060001Y-43845223D01*
X99059999Y-43845223D01*
X98793189Y-43864306D01*
X98793182Y-43864307D01*
X98531818Y-43921163D01*
X98281187Y-44014643D01*
X98281183Y-44014645D01*
X98046424Y-44142833D01*
X98046416Y-44142838D01*
X97926305Y-44232751D01*
X98550254Y-44856700D01*
X98583739Y-44918023D01*
X98578755Y-44987715D01*
X98545444Y-45032589D01*
X98547450Y-45034707D01*
X98408342Y-45166476D01*
X98393953Y-45187698D01*
X98391161Y-45191818D01*
X98389347Y-45194493D01*
X98335433Y-45238933D01*
X98266050Y-45247171D01*
X98203228Y-45216590D01*
X98199033Y-45212586D01*
X97572752Y-44586305D01*
X97572751Y-44586305D01*
X97482838Y-44706416D01*
X97482833Y-44706424D01*
X97354645Y-44941183D01*
X97354643Y-44941187D01*
X97261163Y-45191818D01*
X97204307Y-45453182D01*
X97204306Y-45453189D01*
X97185223Y-45719998D01*
X97185223Y-45720001D01*
X97204306Y-45986810D01*
X97204307Y-45986817D01*
X97261163Y-46248181D01*
X97354643Y-46498812D01*
X97354645Y-46498816D01*
X97437150Y-46649912D01*
X97452002Y-46718185D01*
X97427585Y-46783649D01*
X97371652Y-46825521D01*
X97301960Y-46830505D01*
X97263531Y-46815068D01*
X97257966Y-46811658D01*
X97257963Y-46811656D01*
X97022318Y-46714049D01*
X97022301Y-46714044D01*
X96774289Y-46654502D01*
X96520000Y-46634489D01*
X96265710Y-46654502D01*
X96017698Y-46714044D01*
X96017681Y-46714049D01*
X95782036Y-46811656D01*
X95782030Y-46811659D01*
X95776463Y-46815071D01*
X95709016Y-46833310D01*
X95642415Y-46812190D01*
X95597806Y-46758414D01*
X95589351Y-46689058D01*
X95602849Y-46649912D01*
X95685354Y-46498816D01*
X95685356Y-46498812D01*
X95778836Y-46248181D01*
X95835692Y-45986817D01*
X95835693Y-45986810D01*
X95854777Y-45720001D01*
X95854777Y-45719998D01*
X95835693Y-45453189D01*
X95835692Y-45453182D01*
X95778836Y-45191818D01*
X95685356Y-44941187D01*
X95685354Y-44941183D01*
X95557166Y-44706424D01*
X95557165Y-44706423D01*
X95467246Y-44586305D01*
X94840523Y-45213029D01*
X94779200Y-45246514D01*
X94709508Y-45241530D01*
X94658334Y-45205624D01*
X94567990Y-45099264D01*
X94498808Y-45046672D01*
X94457351Y-44990430D01*
X94452882Y-44920704D01*
X94486169Y-44860276D01*
X95113693Y-44232752D01*
X95113692Y-44232751D01*
X94993583Y-44142838D01*
X94993575Y-44142833D01*
X94758816Y-44014645D01*
X94758812Y-44014643D01*
X94508181Y-43921163D01*
X94246817Y-43864307D01*
X94246810Y-43864306D01*
X93980001Y-43845223D01*
X93979999Y-43845223D01*
X93713189Y-43864306D01*
X93713182Y-43864307D01*
X93451818Y-43921163D01*
X93201187Y-44014643D01*
X93201183Y-44014645D01*
X92966424Y-44142833D01*
X92966416Y-44142838D01*
X92846305Y-44232751D01*
X93470254Y-44856700D01*
X93503739Y-44918023D01*
X93498755Y-44987715D01*
X93465444Y-45032589D01*
X93467450Y-45034707D01*
X93328342Y-45166476D01*
X93313953Y-45187698D01*
X93311161Y-45191818D01*
X93309347Y-45194493D01*
X93255433Y-45238933D01*
X93186050Y-45247171D01*
X93123228Y-45216590D01*
X93119033Y-45212586D01*
X92492752Y-44586305D01*
X92492751Y-44586305D01*
X92402838Y-44706416D01*
X92402833Y-44706424D01*
X92274645Y-44941183D01*
X92274643Y-44941187D01*
X92181163Y-45191818D01*
X92124307Y-45453182D01*
X92124306Y-45453189D01*
X92105223Y-45719998D01*
X92105223Y-45720001D01*
X92124306Y-45986810D01*
X92124307Y-45986817D01*
X92181163Y-46248181D01*
X92274643Y-46498812D01*
X92274645Y-46498816D01*
X92402833Y-46733575D01*
X92402838Y-46733583D01*
X92492751Y-46853692D01*
X92492752Y-46853693D01*
X93119476Y-46226969D01*
X93180799Y-46193484D01*
X93250490Y-46198468D01*
X93301664Y-46234373D01*
X93392009Y-46340735D01*
X93461191Y-46393326D01*
X93502647Y-46449564D01*
X93507118Y-46519291D01*
X93473830Y-46579721D01*
X92846305Y-47207245D01*
X92846305Y-47207246D01*
X92966423Y-47297165D01*
X92966424Y-47297166D01*
X93201183Y-47425354D01*
X93201187Y-47425356D01*
X93451818Y-47518836D01*
X93713182Y-47575692D01*
X93713189Y-47575693D01*
X93979999Y-47594777D01*
X93980001Y-47594777D01*
X94246810Y-47575693D01*
X94246817Y-47575692D01*
X94508181Y-47518836D01*
X94758812Y-47425356D01*
X94758816Y-47425354D01*
X94909912Y-47342849D01*
X94978184Y-47327997D01*
X95043649Y-47352413D01*
X95085521Y-47408347D01*
X95090505Y-47478038D01*
X95075071Y-47516463D01*
X95071659Y-47522030D01*
X95071656Y-47522036D01*
X94974049Y-47757681D01*
X94974044Y-47757698D01*
X94914502Y-48005710D01*
X94894489Y-48260000D01*
X94914502Y-48514289D01*
X94974044Y-48762301D01*
X94974049Y-48762318D01*
X95071656Y-48997963D01*
X95071658Y-48997966D01*
X95075068Y-49003531D01*
X95093310Y-49070977D01*
X95072193Y-49137579D01*
X95018420Y-49182191D01*
X94949064Y-49190649D01*
X94909912Y-49177150D01*
X94758816Y-49094645D01*
X94758812Y-49094643D01*
X94508181Y-49001163D01*
X94246817Y-48944307D01*
X94246810Y-48944306D01*
X93980001Y-48925223D01*
X93979999Y-48925223D01*
X93713189Y-48944306D01*
X93713182Y-48944307D01*
X93451818Y-49001163D01*
X93201187Y-49094643D01*
X93201183Y-49094645D01*
X92966424Y-49222833D01*
X92966416Y-49222838D01*
X92846305Y-49312751D01*
X93470254Y-49936700D01*
X93503739Y-49998023D01*
X93498755Y-50067715D01*
X93465444Y-50112589D01*
X93467450Y-50114707D01*
X93328342Y-50246476D01*
X93313953Y-50267698D01*
X93311161Y-50271818D01*
X93309347Y-50274493D01*
X93255433Y-50318933D01*
X93186050Y-50327171D01*
X93123228Y-50296590D01*
X93119033Y-50292586D01*
X92492752Y-49666305D01*
X92492751Y-49666305D01*
X92402838Y-49786416D01*
X92402833Y-49786424D01*
X92274645Y-50021183D01*
X92274643Y-50021187D01*
X92181163Y-50271818D01*
X92124307Y-50533182D01*
X92124306Y-50533189D01*
X92105223Y-50799998D01*
X92105223Y-50800001D01*
X75534777Y-50800001D01*
X75534777Y-50799998D01*
X75515693Y-50533189D01*
X75515692Y-50533182D01*
X75458836Y-50271818D01*
X75365356Y-50021187D01*
X75365354Y-50021183D01*
X75237166Y-49786424D01*
X75237165Y-49786423D01*
X75147246Y-49666305D01*
X74520523Y-50293029D01*
X74459200Y-50326514D01*
X74389508Y-50321530D01*
X74338334Y-50285624D01*
X74247990Y-50179264D01*
X74178808Y-50126672D01*
X74137351Y-50070430D01*
X74132882Y-50000704D01*
X74166169Y-49940276D01*
X74793693Y-49312752D01*
X74793692Y-49312751D01*
X74673583Y-49222838D01*
X74673575Y-49222833D01*
X74438816Y-49094645D01*
X74438812Y-49094643D01*
X74188181Y-49001163D01*
X73926817Y-48944307D01*
X73926810Y-48944306D01*
X73660001Y-48925223D01*
X73659999Y-48925223D01*
X73393189Y-48944306D01*
X73393182Y-48944307D01*
X73131818Y-49001163D01*
X72881187Y-49094643D01*
X72881183Y-49094645D01*
X72730087Y-49177150D01*
X72661814Y-49192002D01*
X72596349Y-49167585D01*
X72554478Y-49111651D01*
X72549494Y-49041960D01*
X72564936Y-49003523D01*
X72568343Y-48997963D01*
X72665950Y-48762318D01*
X72665949Y-48762318D01*
X72665953Y-48762311D01*
X72725498Y-48514286D01*
X72745511Y-48260000D01*
X72725498Y-48005714D01*
X72665953Y-47757689D01*
X72657844Y-47738112D01*
X72568343Y-47522036D01*
X72568341Y-47522033D01*
X72564933Y-47516471D01*
X72546688Y-47449025D01*
X72567804Y-47382423D01*
X72621576Y-47337809D01*
X72690932Y-47329349D01*
X72730087Y-47342849D01*
X72881183Y-47425354D01*
X72881187Y-47425356D01*
X73131818Y-47518836D01*
X73393182Y-47575692D01*
X73393189Y-47575693D01*
X73659999Y-47594777D01*
X73660001Y-47594777D01*
X73926810Y-47575693D01*
X73926817Y-47575692D01*
X74188181Y-47518836D01*
X74438812Y-47425356D01*
X74438816Y-47425354D01*
X74673584Y-47297161D01*
X74793692Y-47207247D01*
X74793693Y-47207246D01*
X74169745Y-46583299D01*
X74136260Y-46521976D01*
X74141244Y-46452285D01*
X74174609Y-46407466D01*
X74172550Y-46405292D01*
X74177429Y-46400669D01*
X74177431Y-46400669D01*
X74311658Y-46273523D01*
X74330652Y-46245508D01*
X74384562Y-46201067D01*
X74453944Y-46192827D01*
X74516767Y-46223405D01*
X74520966Y-46227413D01*
X75147246Y-46853693D01*
X75147247Y-46853692D01*
X75237161Y-46733584D01*
X75365354Y-46498816D01*
X75365356Y-46498812D01*
X75458836Y-46248181D01*
X75515692Y-45986817D01*
X75515693Y-45986810D01*
X75534777Y-45720001D01*
X75534777Y-45719998D01*
X75515693Y-45453189D01*
X75515692Y-45453182D01*
X75458836Y-45191818D01*
X75365356Y-44941187D01*
X75365354Y-44941183D01*
X75237166Y-44706424D01*
X75237165Y-44706423D01*
X75147246Y-44586305D01*
X74520523Y-45213029D01*
X74459200Y-45246514D01*
X74389508Y-45241530D01*
X74338334Y-45205624D01*
X74247990Y-45099264D01*
X74178808Y-45046672D01*
X74137351Y-44990430D01*
X74132882Y-44920704D01*
X74166169Y-44860276D01*
X74793693Y-44232752D01*
X74793692Y-44232751D01*
X74673583Y-44142838D01*
X74673575Y-44142833D01*
X74438816Y-44014645D01*
X74438812Y-44014643D01*
X74188181Y-43921163D01*
X73926817Y-43864307D01*
X73926810Y-43864306D01*
X73660001Y-43845223D01*
X73659999Y-43845223D01*
X73393189Y-43864306D01*
X73393182Y-43864307D01*
X73131818Y-43921163D01*
X72881187Y-44014643D01*
X72881183Y-44014645D01*
X72646424Y-44142833D01*
X72646416Y-44142838D01*
X72526305Y-44232751D01*
X73150254Y-44856700D01*
X73183739Y-44918023D01*
X73178755Y-44987715D01*
X73145444Y-45032589D01*
X73147450Y-45034707D01*
X73008342Y-45166476D01*
X72993953Y-45187698D01*
X72991161Y-45191818D01*
X72989347Y-45194493D01*
X72935433Y-45238933D01*
X72866050Y-45247171D01*
X72803228Y-45216590D01*
X72799033Y-45212586D01*
X72172752Y-44586305D01*
X72172751Y-44586305D01*
X72082838Y-44706416D01*
X72082833Y-44706424D01*
X71954645Y-44941183D01*
X71954643Y-44941187D01*
X71861163Y-45191818D01*
X71804307Y-45453182D01*
X71804306Y-45453189D01*
X71785223Y-45719998D01*
X71785223Y-45720001D01*
X71804306Y-45986810D01*
X71804307Y-45986817D01*
X71861163Y-46248181D01*
X71954643Y-46498812D01*
X71954645Y-46498816D01*
X72037150Y-46649912D01*
X72052002Y-46718185D01*
X72027585Y-46783649D01*
X71971652Y-46825521D01*
X71901960Y-46830505D01*
X71863531Y-46815068D01*
X71857966Y-46811658D01*
X71857963Y-46811656D01*
X71622318Y-46714049D01*
X71622301Y-46714044D01*
X71374289Y-46654502D01*
X71120000Y-46634489D01*
X70865710Y-46654502D01*
X70617698Y-46714044D01*
X70617681Y-46714049D01*
X70382036Y-46811656D01*
X70382030Y-46811659D01*
X70376463Y-46815071D01*
X70309016Y-46833310D01*
X70242415Y-46812190D01*
X70197806Y-46758414D01*
X70189351Y-46689058D01*
X70202849Y-46649912D01*
X70285354Y-46498816D01*
X70285356Y-46498812D01*
X70378836Y-46248181D01*
X70435692Y-45986817D01*
X70435693Y-45986810D01*
X70454777Y-45720001D01*
X70454777Y-45719998D01*
X70435693Y-45453189D01*
X70435692Y-45453182D01*
X70378836Y-45191818D01*
X70285356Y-44941187D01*
X70285354Y-44941183D01*
X70157166Y-44706424D01*
X70157165Y-44706423D01*
X70067246Y-44586305D01*
X69440523Y-45213029D01*
X69379200Y-45246514D01*
X69309508Y-45241530D01*
X69258334Y-45205624D01*
X69167990Y-45099264D01*
X69098808Y-45046672D01*
X69057351Y-44990430D01*
X69052882Y-44920704D01*
X69086169Y-44860276D01*
X69713693Y-44232752D01*
X69713692Y-44232751D01*
X69593583Y-44142838D01*
X69593575Y-44142833D01*
X69358816Y-44014645D01*
X69358812Y-44014643D01*
X69108181Y-43921163D01*
X68846817Y-43864307D01*
X68846810Y-43864306D01*
X68580001Y-43845223D01*
X68579999Y-43845223D01*
X68313189Y-43864306D01*
X68313182Y-43864307D01*
X68051818Y-43921163D01*
X67801187Y-44014643D01*
X67801183Y-44014645D01*
X67566424Y-44142833D01*
X67566416Y-44142838D01*
X67446305Y-44232751D01*
X68070254Y-44856700D01*
X68103739Y-44918023D01*
X68098755Y-44987715D01*
X68065444Y-45032589D01*
X68067450Y-45034707D01*
X67928342Y-45166476D01*
X67913953Y-45187698D01*
X67911161Y-45191818D01*
X67909347Y-45194493D01*
X67855433Y-45238933D01*
X67786050Y-45247171D01*
X67723228Y-45216590D01*
X67719033Y-45212586D01*
X67092752Y-44586305D01*
X67092751Y-44586305D01*
X67002838Y-44706416D01*
X67002833Y-44706424D01*
X66874645Y-44941183D01*
X66874643Y-44941187D01*
X66781163Y-45191818D01*
X66724307Y-45453182D01*
X66724306Y-45453189D01*
X66705223Y-45719998D01*
X66705223Y-45720001D01*
X66724306Y-45986810D01*
X66724307Y-45986817D01*
X66781163Y-46248181D01*
X66874643Y-46498812D01*
X66874645Y-46498816D01*
X67002833Y-46733575D01*
X67002838Y-46733583D01*
X67092751Y-46853692D01*
X67092752Y-46853693D01*
X67719476Y-46226969D01*
X67780799Y-46193484D01*
X67850490Y-46198468D01*
X67901664Y-46234373D01*
X67992009Y-46340735D01*
X68061191Y-46393326D01*
X68102647Y-46449564D01*
X68107118Y-46519291D01*
X68073830Y-46579721D01*
X67446305Y-47207245D01*
X67446305Y-47207246D01*
X67566423Y-47297165D01*
X67566424Y-47297166D01*
X67757805Y-47401668D01*
X67807210Y-47451073D01*
X67822062Y-47519346D01*
X67797645Y-47584810D01*
X67741712Y-47626682D01*
X67698378Y-47634500D01*
X58502737Y-47634500D01*
X58487120Y-47632776D01*
X58487093Y-47633062D01*
X58479331Y-47632327D01*
X58410203Y-47634500D01*
X58380650Y-47634500D01*
X58379929Y-47634590D01*
X58373757Y-47635369D01*
X58367945Y-47635826D01*
X58321378Y-47637290D01*
X58321367Y-47637292D01*
X58302134Y-47642879D01*
X58283094Y-47646822D01*
X58263217Y-47649334D01*
X58263210Y-47649335D01*
X58263208Y-47649336D01*
X58263206Y-47649336D01*
X58263205Y-47649337D01*
X58219868Y-47666494D01*
X58214342Y-47668386D01*
X58169611Y-47681382D01*
X58169608Y-47681383D01*
X58152363Y-47691581D01*
X58134901Y-47700135D01*
X58116272Y-47707511D01*
X58116267Y-47707513D01*
X58078564Y-47734906D01*
X58073682Y-47738112D01*
X58033580Y-47761828D01*
X58019408Y-47776000D01*
X58004623Y-47788628D01*
X57988412Y-47800407D01*
X57958709Y-47836310D01*
X57954776Y-47840631D01*
X54262786Y-51532623D01*
X50577228Y-55218181D01*
X50515905Y-55251666D01*
X50489547Y-55254500D01*
X44455227Y-55254500D01*
X44388188Y-55234815D01*
X44353652Y-55201623D01*
X44218494Y-55008597D01*
X44051402Y-54841506D01*
X44051396Y-54841501D01*
X43865842Y-54711575D01*
X43822217Y-54656998D01*
X43815023Y-54587500D01*
X43846546Y-54525145D01*
X43865842Y-54508425D01*
X43888026Y-54492891D01*
X44051401Y-54378495D01*
X44218495Y-54211401D01*
X44353651Y-54018377D01*
X44408229Y-53974752D01*
X44455227Y-53965500D01*
X45637257Y-53965500D01*
X45652877Y-53967224D01*
X45652904Y-53966939D01*
X45660660Y-53967671D01*
X45660667Y-53967673D01*
X45729814Y-53965500D01*
X45759350Y-53965500D01*
X45766228Y-53964630D01*
X45772041Y-53964172D01*
X45818627Y-53962709D01*
X45837869Y-53957117D01*
X45856912Y-53953174D01*
X45876792Y-53950664D01*
X45920122Y-53933507D01*
X45925646Y-53931617D01*
X45929396Y-53930527D01*
X45970390Y-53918618D01*
X45987629Y-53908422D01*
X46005103Y-53899862D01*
X46023727Y-53892488D01*
X46023727Y-53892487D01*
X46023732Y-53892486D01*
X46061449Y-53865082D01*
X46066305Y-53861892D01*
X46106420Y-53838170D01*
X46120589Y-53823999D01*
X46135379Y-53811368D01*
X46151587Y-53799594D01*
X46181299Y-53763676D01*
X46185212Y-53759376D01*
X63722771Y-36221819D01*
X63784095Y-36188334D01*
X63810453Y-36185500D01*
X67698378Y-36185500D01*
X67765417Y-36205185D01*
X67811172Y-36257989D01*
X67821116Y-36327147D01*
X67792091Y-36390703D01*
X67757805Y-36418332D01*
X67566424Y-36522833D01*
X67566416Y-36522838D01*
X67446305Y-36612751D01*
X68070254Y-37236700D01*
X68103739Y-37298023D01*
X68098755Y-37367715D01*
X68065444Y-37412589D01*
X68067450Y-37414707D01*
X67928342Y-37546476D01*
X67913953Y-37567698D01*
X67911161Y-37571818D01*
X67909347Y-37574493D01*
X67855433Y-37618933D01*
X67786050Y-37627171D01*
X67723228Y-37596590D01*
X67719033Y-37592586D01*
X67092752Y-36966305D01*
X67092751Y-36966305D01*
X67002838Y-37086416D01*
X67002833Y-37086424D01*
X66874645Y-37321183D01*
X66874643Y-37321187D01*
X66781163Y-37571818D01*
X66724307Y-37833182D01*
X66724306Y-37833189D01*
X66705223Y-38099998D01*
X66705223Y-38100001D01*
X66724306Y-38366810D01*
X66724307Y-38366817D01*
X66781163Y-38628181D01*
X66874643Y-38878812D01*
X66874645Y-38878816D01*
X67002833Y-39113575D01*
X67002838Y-39113583D01*
X67092751Y-39233692D01*
X67092752Y-39233693D01*
X67719476Y-38606969D01*
X67780799Y-38573484D01*
X67850490Y-38578468D01*
X67901664Y-38614373D01*
X67992009Y-38720735D01*
X68061191Y-38773326D01*
X68102647Y-38829564D01*
X68107118Y-38899291D01*
X68073830Y-38959721D01*
X67446305Y-39587245D01*
X67446305Y-39587246D01*
X67566423Y-39677165D01*
X67566424Y-39677166D01*
X67801183Y-39805354D01*
X67801187Y-39805356D01*
X68051818Y-39898836D01*
X68313182Y-39955692D01*
X68313189Y-39955693D01*
X68579999Y-39974777D01*
X68580001Y-39974777D01*
X68846810Y-39955693D01*
X68846817Y-39955692D01*
X69108181Y-39898836D01*
X69358812Y-39805356D01*
X69358816Y-39805354D01*
X69593584Y-39677161D01*
X69713692Y-39587247D01*
X69713693Y-39587246D01*
X69089745Y-38963299D01*
X69056260Y-38901976D01*
X69061244Y-38832285D01*
X69094609Y-38787466D01*
X69092550Y-38785292D01*
X69097429Y-38780669D01*
X69097431Y-38780669D01*
X69231658Y-38653523D01*
X69250652Y-38625508D01*
X69304562Y-38581067D01*
X69373944Y-38572827D01*
X69436767Y-38603405D01*
X69440966Y-38607413D01*
X70067246Y-39233693D01*
X70067247Y-39233692D01*
X70157161Y-39113584D01*
X70285354Y-38878816D01*
X70285356Y-38878812D01*
X70378836Y-38628181D01*
X70435692Y-38366817D01*
X70435693Y-38366810D01*
X70454777Y-38100001D01*
X70454777Y-38099998D01*
X70435693Y-37833189D01*
X70435692Y-37833182D01*
X70378836Y-37571818D01*
X70285356Y-37321187D01*
X70285354Y-37321183D01*
X70202849Y-37170087D01*
X70187997Y-37101814D01*
X70212414Y-37036350D01*
X70268347Y-36994478D01*
X70338039Y-36989494D01*
X70376471Y-37004933D01*
X70382033Y-37008341D01*
X70382036Y-37008343D01*
X70617681Y-37105950D01*
X70617683Y-37105950D01*
X70617689Y-37105953D01*
X70865714Y-37165498D01*
X71120000Y-37185511D01*
X71374286Y-37165498D01*
X71622311Y-37105953D01*
X71729459Y-37061571D01*
X71857963Y-37008343D01*
X71857964Y-37008341D01*
X71857967Y-37008341D01*
X71863523Y-37004935D01*
X71930968Y-36986688D01*
X71997571Y-37007801D01*
X72042187Y-37061571D01*
X72050651Y-37130926D01*
X72037150Y-37170087D01*
X71954645Y-37321183D01*
X71954643Y-37321187D01*
X71861163Y-37571818D01*
X71804307Y-37833182D01*
X71804306Y-37833189D01*
X71785223Y-38099998D01*
X71785223Y-38100001D01*
X71804306Y-38366810D01*
X71804307Y-38366817D01*
X71861163Y-38628181D01*
X71954643Y-38878812D01*
X71954645Y-38878816D01*
X72082833Y-39113575D01*
X72082838Y-39113583D01*
X72172751Y-39233692D01*
X72172752Y-39233693D01*
X72799476Y-38606969D01*
X72860799Y-38573484D01*
X72930490Y-38578468D01*
X72981664Y-38614373D01*
X73072009Y-38720735D01*
X73141191Y-38773326D01*
X73182647Y-38829564D01*
X73187118Y-38899291D01*
X73153830Y-38959721D01*
X72526305Y-39587245D01*
X72526305Y-39587246D01*
X72646423Y-39677165D01*
X72646424Y-39677166D01*
X72881183Y-39805354D01*
X72881187Y-39805356D01*
X73131818Y-39898836D01*
X73393182Y-39955692D01*
X73393189Y-39955693D01*
X73659999Y-39974777D01*
X73660001Y-39974777D01*
X73926810Y-39955693D01*
X73926817Y-39955692D01*
X74188181Y-39898836D01*
X74438812Y-39805356D01*
X74438816Y-39805354D01*
X74673584Y-39677161D01*
X74793692Y-39587247D01*
X74793693Y-39587246D01*
X74169745Y-38963299D01*
X74136260Y-38901976D01*
X74141244Y-38832285D01*
X74174609Y-38787466D01*
X74172550Y-38785292D01*
X74177429Y-38780669D01*
X74177431Y-38780669D01*
X74311658Y-38653523D01*
X74330652Y-38625508D01*
X74384562Y-38581067D01*
X74453944Y-38572827D01*
X74516767Y-38603405D01*
X74520966Y-38607413D01*
X75147246Y-39233693D01*
X75147247Y-39233692D01*
X75237161Y-39113584D01*
X75365354Y-38878816D01*
X75365356Y-38878812D01*
X75458836Y-38628181D01*
X75515692Y-38366817D01*
X75515693Y-38366810D01*
X75534777Y-38100001D01*
X92105223Y-38100001D01*
X92124306Y-38366810D01*
X92124307Y-38366817D01*
X92181163Y-38628181D01*
X92274643Y-38878812D01*
X92274645Y-38878816D01*
X92402833Y-39113575D01*
X92402838Y-39113583D01*
X92492751Y-39233692D01*
X92492752Y-39233693D01*
X93119476Y-38606969D01*
X93180799Y-38573484D01*
X93250490Y-38578468D01*
X93301664Y-38614373D01*
X93392009Y-38720735D01*
X93461191Y-38773326D01*
X93502647Y-38829564D01*
X93507118Y-38899291D01*
X93473830Y-38959721D01*
X92846305Y-39587245D01*
X92846305Y-39587246D01*
X92966423Y-39677165D01*
X92966424Y-39677166D01*
X93201183Y-39805354D01*
X93201187Y-39805356D01*
X93451818Y-39898836D01*
X93713182Y-39955692D01*
X93713189Y-39955693D01*
X93979999Y-39974777D01*
X93980001Y-39974777D01*
X94246810Y-39955693D01*
X94246817Y-39955692D01*
X94508181Y-39898836D01*
X94758812Y-39805356D01*
X94758816Y-39805354D01*
X94993584Y-39677161D01*
X95113692Y-39587247D01*
X95113693Y-39587246D01*
X94489745Y-38963299D01*
X94456260Y-38901976D01*
X94461244Y-38832285D01*
X94494609Y-38787466D01*
X94492550Y-38785292D01*
X94497429Y-38780669D01*
X94497431Y-38780669D01*
X94631658Y-38653523D01*
X94650652Y-38625508D01*
X94704562Y-38581067D01*
X94773944Y-38572827D01*
X94836767Y-38603405D01*
X94840966Y-38607413D01*
X95467246Y-39233693D01*
X95467247Y-39233692D01*
X95557161Y-39113584D01*
X95685354Y-38878816D01*
X95685356Y-38878812D01*
X95778836Y-38628181D01*
X95835692Y-38366817D01*
X95835693Y-38366810D01*
X95854777Y-38100001D01*
X95854777Y-38099998D01*
X95835693Y-37833189D01*
X95835692Y-37833182D01*
X95778836Y-37571818D01*
X95685356Y-37321187D01*
X95685354Y-37321183D01*
X95602849Y-37170087D01*
X95587997Y-37101814D01*
X95612414Y-37036350D01*
X95668347Y-36994478D01*
X95738039Y-36989494D01*
X95776471Y-37004933D01*
X95782033Y-37008341D01*
X95782036Y-37008343D01*
X96017681Y-37105950D01*
X96017683Y-37105950D01*
X96017689Y-37105953D01*
X96265714Y-37165498D01*
X96520000Y-37185511D01*
X96774286Y-37165498D01*
X97022311Y-37105953D01*
X97129459Y-37061571D01*
X97257963Y-37008343D01*
X97257964Y-37008341D01*
X97257967Y-37008341D01*
X97263523Y-37004935D01*
X97330968Y-36986688D01*
X97397571Y-37007801D01*
X97442187Y-37061571D01*
X97450651Y-37130926D01*
X97437150Y-37170087D01*
X97354645Y-37321183D01*
X97354643Y-37321187D01*
X97261163Y-37571818D01*
X97204307Y-37833182D01*
X97204306Y-37833189D01*
X97185223Y-38099998D01*
X97185223Y-38100001D01*
X97204306Y-38366810D01*
X97204307Y-38366817D01*
X97261163Y-38628181D01*
X97354643Y-38878812D01*
X97354645Y-38878816D01*
X97482833Y-39113575D01*
X97482838Y-39113583D01*
X97572751Y-39233692D01*
X97572752Y-39233693D01*
X98199476Y-38606969D01*
X98260799Y-38573484D01*
X98330490Y-38578468D01*
X98381664Y-38614373D01*
X98472009Y-38720735D01*
X98541191Y-38773326D01*
X98582647Y-38829564D01*
X98587118Y-38899291D01*
X98553830Y-38959721D01*
X97926305Y-39587245D01*
X97926305Y-39587246D01*
X98046423Y-39677165D01*
X98046424Y-39677166D01*
X98281183Y-39805354D01*
X98281187Y-39805356D01*
X98531818Y-39898836D01*
X98793182Y-39955692D01*
X98793189Y-39955693D01*
X99059999Y-39974777D01*
X99060001Y-39974777D01*
X99326810Y-39955693D01*
X99326817Y-39955692D01*
X99588181Y-39898836D01*
X99838812Y-39805356D01*
X99838816Y-39805354D01*
X100073584Y-39677161D01*
X100193692Y-39587247D01*
X100193693Y-39587246D01*
X99569745Y-38963299D01*
X99536260Y-38901976D01*
X99541244Y-38832285D01*
X99574609Y-38787466D01*
X99572550Y-38785292D01*
X99577429Y-38780669D01*
X99577431Y-38780669D01*
X99711658Y-38653523D01*
X99730652Y-38625508D01*
X99784562Y-38581067D01*
X99853944Y-38572827D01*
X99916767Y-38603405D01*
X99920966Y-38607413D01*
X100547246Y-39233693D01*
X100547247Y-39233692D01*
X100637161Y-39113584D01*
X100765354Y-38878816D01*
X100765356Y-38878812D01*
X100858836Y-38628181D01*
X100915692Y-38366817D01*
X100915693Y-38366810D01*
X100934777Y-38100001D01*
X100934777Y-38099998D01*
X100915693Y-37833189D01*
X100915692Y-37833182D01*
X100858836Y-37571818D01*
X100765356Y-37321187D01*
X100765354Y-37321183D01*
X100637166Y-37086424D01*
X100637165Y-37086423D01*
X100547246Y-36966305D01*
X99920523Y-37593029D01*
X99859200Y-37626514D01*
X99789508Y-37621530D01*
X99738334Y-37585624D01*
X99647990Y-37479264D01*
X99578808Y-37426672D01*
X99537351Y-37370430D01*
X99532882Y-37300704D01*
X99566169Y-37240276D01*
X100193693Y-36612752D01*
X100193692Y-36612751D01*
X100073583Y-36522838D01*
X100073575Y-36522833D01*
X99838816Y-36394645D01*
X99838812Y-36394643D01*
X99588181Y-36301163D01*
X99326817Y-36244307D01*
X99326810Y-36244306D01*
X99060001Y-36225223D01*
X99059999Y-36225223D01*
X98793189Y-36244306D01*
X98793182Y-36244307D01*
X98531818Y-36301163D01*
X98281187Y-36394643D01*
X98281183Y-36394645D01*
X98130087Y-36477150D01*
X98061814Y-36492002D01*
X97996349Y-36467585D01*
X97954478Y-36411651D01*
X97949494Y-36341960D01*
X97964936Y-36303523D01*
X97968343Y-36297963D01*
X98065950Y-36062318D01*
X98065949Y-36062318D01*
X98065953Y-36062311D01*
X98125498Y-35814286D01*
X98145511Y-35560000D01*
X98125498Y-35305714D01*
X98065953Y-35057689D01*
X98045170Y-35007514D01*
X97968343Y-34822036D01*
X97968341Y-34822033D01*
X97964933Y-34816471D01*
X97946688Y-34749025D01*
X97967804Y-34682423D01*
X98021576Y-34637809D01*
X98090932Y-34629349D01*
X98130087Y-34642849D01*
X98281183Y-34725354D01*
X98281187Y-34725356D01*
X98531818Y-34818836D01*
X98793182Y-34875692D01*
X98793189Y-34875693D01*
X99059999Y-34894777D01*
X99060001Y-34894777D01*
X99326810Y-34875693D01*
X99326817Y-34875692D01*
X99588181Y-34818836D01*
X99838812Y-34725356D01*
X99838816Y-34725354D01*
X100073584Y-34597161D01*
X100193692Y-34507247D01*
X100193693Y-34507246D01*
X99569745Y-33883299D01*
X99536260Y-33821976D01*
X99541244Y-33752285D01*
X99574609Y-33707466D01*
X99572550Y-33705292D01*
X99577429Y-33700669D01*
X99577431Y-33700669D01*
X99711658Y-33573523D01*
X99730652Y-33545508D01*
X99784562Y-33501067D01*
X99853944Y-33492827D01*
X99916767Y-33523405D01*
X99920966Y-33527413D01*
X100547246Y-34153693D01*
X100547247Y-34153692D01*
X100637161Y-34033584D01*
X100765354Y-33798816D01*
X100765356Y-33798812D01*
X100858836Y-33548181D01*
X100915692Y-33286817D01*
X100915693Y-33286810D01*
X100934777Y-33020001D01*
X100934777Y-33019998D01*
X100915693Y-32753189D01*
X100915692Y-32753182D01*
X100858836Y-32491818D01*
X100765356Y-32241187D01*
X100765354Y-32241183D01*
X100637166Y-32006424D01*
X100637165Y-32006423D01*
X100547246Y-31886305D01*
X99920523Y-32513029D01*
X99859200Y-32546514D01*
X99789508Y-32541530D01*
X99738334Y-32505624D01*
X99647990Y-32399264D01*
X99578808Y-32346672D01*
X99537351Y-32290430D01*
X99532882Y-32220704D01*
X99566169Y-32160276D01*
X100193693Y-31532752D01*
X100193692Y-31532751D01*
X100073583Y-31442838D01*
X100073575Y-31442833D01*
X99838816Y-31314645D01*
X99838812Y-31314643D01*
X99588181Y-31221163D01*
X99326817Y-31164307D01*
X99326810Y-31164306D01*
X99060001Y-31145223D01*
X99059999Y-31145223D01*
X98793189Y-31164306D01*
X98793182Y-31164307D01*
X98531818Y-31221163D01*
X98281187Y-31314643D01*
X98281183Y-31314645D01*
X98046424Y-31442833D01*
X98046416Y-31442838D01*
X97926305Y-31532751D01*
X98550254Y-32156700D01*
X98583739Y-32218023D01*
X98578755Y-32287715D01*
X98545444Y-32332589D01*
X98547450Y-32334707D01*
X98408342Y-32466476D01*
X98393953Y-32487698D01*
X98391161Y-32491818D01*
X98389347Y-32494493D01*
X98335433Y-32538933D01*
X98266050Y-32547171D01*
X98203228Y-32516590D01*
X98199033Y-32512586D01*
X97572752Y-31886305D01*
X97572751Y-31886305D01*
X97482838Y-32006416D01*
X97482833Y-32006424D01*
X97354645Y-32241183D01*
X97354643Y-32241187D01*
X97261163Y-32491818D01*
X97204307Y-32753182D01*
X97204306Y-32753189D01*
X97185223Y-33019998D01*
X97185223Y-33020001D01*
X97204306Y-33286810D01*
X97204307Y-33286817D01*
X97261163Y-33548181D01*
X97354643Y-33798812D01*
X97354645Y-33798816D01*
X97437150Y-33949912D01*
X97452002Y-34018185D01*
X97427585Y-34083649D01*
X97371652Y-34125521D01*
X97301960Y-34130505D01*
X97263531Y-34115068D01*
X97257966Y-34111658D01*
X97257963Y-34111656D01*
X97022318Y-34014049D01*
X97022301Y-34014044D01*
X96774289Y-33954502D01*
X96520000Y-33934489D01*
X96265710Y-33954502D01*
X96017698Y-34014044D01*
X96017681Y-34014049D01*
X95782036Y-34111656D01*
X95782030Y-34111659D01*
X95776463Y-34115071D01*
X95709016Y-34133310D01*
X95642415Y-34112190D01*
X95597806Y-34058414D01*
X95589351Y-33989058D01*
X95602849Y-33949912D01*
X95685354Y-33798816D01*
X95685356Y-33798812D01*
X95778836Y-33548181D01*
X95835692Y-33286817D01*
X95835693Y-33286810D01*
X95854777Y-33020001D01*
X95854777Y-33019998D01*
X95835693Y-32753189D01*
X95835692Y-32753182D01*
X95778836Y-32491818D01*
X95685356Y-32241187D01*
X95685354Y-32241183D01*
X95557166Y-32006424D01*
X95557165Y-32006423D01*
X95467246Y-31886305D01*
X94840523Y-32513029D01*
X94779200Y-32546514D01*
X94709508Y-32541530D01*
X94658334Y-32505624D01*
X94567990Y-32399264D01*
X94498808Y-32346672D01*
X94457351Y-32290430D01*
X94452882Y-32220704D01*
X94486169Y-32160276D01*
X95113693Y-31532752D01*
X95113692Y-31532751D01*
X94993583Y-31442838D01*
X94993575Y-31442833D01*
X94758816Y-31314645D01*
X94758812Y-31314643D01*
X94508181Y-31221163D01*
X94246817Y-31164307D01*
X94246810Y-31164306D01*
X93980001Y-31145223D01*
X93979999Y-31145223D01*
X93713189Y-31164306D01*
X93713182Y-31164307D01*
X93451818Y-31221163D01*
X93201187Y-31314643D01*
X93201183Y-31314645D01*
X92966424Y-31442833D01*
X92966416Y-31442838D01*
X92846305Y-31532751D01*
X93470254Y-32156700D01*
X93503739Y-32218023D01*
X93498755Y-32287715D01*
X93465444Y-32332589D01*
X93467450Y-32334707D01*
X93328342Y-32466476D01*
X93313953Y-32487698D01*
X93311161Y-32491818D01*
X93309347Y-32494493D01*
X93255433Y-32538933D01*
X93186050Y-32547171D01*
X93123228Y-32516590D01*
X93119033Y-32512586D01*
X92492752Y-31886305D01*
X92492751Y-31886305D01*
X92402838Y-32006416D01*
X92402833Y-32006424D01*
X92274645Y-32241183D01*
X92274643Y-32241187D01*
X92181163Y-32491818D01*
X92124307Y-32753182D01*
X92124306Y-32753189D01*
X92105223Y-33019998D01*
X92105223Y-33020001D01*
X92124306Y-33286810D01*
X92124307Y-33286817D01*
X92181163Y-33548181D01*
X92274643Y-33798812D01*
X92274645Y-33798816D01*
X92402833Y-34033575D01*
X92402838Y-34033583D01*
X92492751Y-34153692D01*
X92492752Y-34153693D01*
X93119476Y-33526969D01*
X93180799Y-33493484D01*
X93250490Y-33498468D01*
X93301664Y-33534373D01*
X93392009Y-33640735D01*
X93461191Y-33693326D01*
X93502647Y-33749564D01*
X93507118Y-33819291D01*
X93473830Y-33879721D01*
X92846305Y-34507245D01*
X92846305Y-34507246D01*
X92966423Y-34597165D01*
X92966424Y-34597166D01*
X93201183Y-34725354D01*
X93201187Y-34725356D01*
X93451818Y-34818836D01*
X93713182Y-34875692D01*
X93713189Y-34875693D01*
X93979999Y-34894777D01*
X93980001Y-34894777D01*
X94246810Y-34875693D01*
X94246817Y-34875692D01*
X94508181Y-34818836D01*
X94758812Y-34725356D01*
X94758816Y-34725354D01*
X94909912Y-34642849D01*
X94978184Y-34627997D01*
X95043649Y-34652413D01*
X95085521Y-34708347D01*
X95090505Y-34778038D01*
X95075071Y-34816463D01*
X95071659Y-34822030D01*
X95071656Y-34822036D01*
X94974049Y-35057681D01*
X94974044Y-35057698D01*
X94914502Y-35305710D01*
X94894489Y-35560000D01*
X94914502Y-35814289D01*
X94974044Y-36062301D01*
X94974049Y-36062318D01*
X95071656Y-36297963D01*
X95071658Y-36297966D01*
X95075068Y-36303531D01*
X95093310Y-36370977D01*
X95072193Y-36437579D01*
X95018420Y-36482191D01*
X94949064Y-36490649D01*
X94909912Y-36477150D01*
X94758816Y-36394645D01*
X94758812Y-36394643D01*
X94508181Y-36301163D01*
X94246817Y-36244307D01*
X94246810Y-36244306D01*
X93980001Y-36225223D01*
X93979999Y-36225223D01*
X93713189Y-36244306D01*
X93713182Y-36244307D01*
X93451818Y-36301163D01*
X93201187Y-36394643D01*
X93201183Y-36394645D01*
X92966424Y-36522833D01*
X92966416Y-36522838D01*
X92846305Y-36612751D01*
X93470254Y-37236700D01*
X93503739Y-37298023D01*
X93498755Y-37367715D01*
X93465444Y-37412589D01*
X93467450Y-37414707D01*
X93328342Y-37546476D01*
X93313953Y-37567698D01*
X93311161Y-37571818D01*
X93309347Y-37574493D01*
X93255433Y-37618933D01*
X93186050Y-37627171D01*
X93123228Y-37596590D01*
X93119033Y-37592586D01*
X92492752Y-36966305D01*
X92492751Y-36966305D01*
X92402838Y-37086416D01*
X92402833Y-37086424D01*
X92274645Y-37321183D01*
X92274643Y-37321187D01*
X92181163Y-37571818D01*
X92124307Y-37833182D01*
X92124306Y-37833189D01*
X92105223Y-38099998D01*
X92105223Y-38100001D01*
X75534777Y-38100001D01*
X75534777Y-38099998D01*
X75515693Y-37833189D01*
X75515692Y-37833182D01*
X75458836Y-37571818D01*
X75365356Y-37321187D01*
X75365354Y-37321183D01*
X75237166Y-37086424D01*
X75237165Y-37086423D01*
X75147246Y-36966305D01*
X74520523Y-37593029D01*
X74459200Y-37626514D01*
X74389508Y-37621530D01*
X74338334Y-37585624D01*
X74247990Y-37479264D01*
X74178808Y-37426672D01*
X74137351Y-37370430D01*
X74132882Y-37300704D01*
X74166169Y-37240276D01*
X74793693Y-36612752D01*
X74793692Y-36612751D01*
X74673583Y-36522838D01*
X74673575Y-36522833D01*
X74438816Y-36394645D01*
X74438812Y-36394643D01*
X74188181Y-36301163D01*
X73926817Y-36244307D01*
X73926810Y-36244306D01*
X73660001Y-36225223D01*
X73659999Y-36225223D01*
X73393189Y-36244306D01*
X73393182Y-36244307D01*
X73131818Y-36301163D01*
X72881187Y-36394643D01*
X72881183Y-36394645D01*
X72730087Y-36477150D01*
X72661814Y-36492002D01*
X72596349Y-36467585D01*
X72554478Y-36411651D01*
X72549494Y-36341960D01*
X72564936Y-36303523D01*
X72568343Y-36297963D01*
X72665950Y-36062318D01*
X72665949Y-36062318D01*
X72665953Y-36062311D01*
X72725498Y-35814286D01*
X72745511Y-35560000D01*
X72725498Y-35305714D01*
X72665953Y-35057689D01*
X72645170Y-35007514D01*
X72568343Y-34822036D01*
X72568341Y-34822033D01*
X72564933Y-34816471D01*
X72546688Y-34749025D01*
X72567804Y-34682423D01*
X72621576Y-34637809D01*
X72690932Y-34629349D01*
X72730087Y-34642849D01*
X72881183Y-34725354D01*
X72881187Y-34725356D01*
X73131818Y-34818836D01*
X73393182Y-34875692D01*
X73393189Y-34875693D01*
X73659999Y-34894777D01*
X73660001Y-34894777D01*
X73926810Y-34875693D01*
X73926817Y-34875692D01*
X74188181Y-34818836D01*
X74438812Y-34725356D01*
X74438816Y-34725354D01*
X74673584Y-34597161D01*
X74793692Y-34507247D01*
X74793693Y-34507246D01*
X74169745Y-33883299D01*
X74136260Y-33821976D01*
X74141244Y-33752285D01*
X74174609Y-33707466D01*
X74172550Y-33705292D01*
X74177429Y-33700669D01*
X74177431Y-33700669D01*
X74311658Y-33573523D01*
X74330652Y-33545508D01*
X74384562Y-33501067D01*
X74453944Y-33492827D01*
X74516767Y-33523405D01*
X74520966Y-33527413D01*
X75147246Y-34153693D01*
X75147247Y-34153692D01*
X75237161Y-34033584D01*
X75365354Y-33798816D01*
X75365356Y-33798812D01*
X75458836Y-33548181D01*
X75515692Y-33286817D01*
X75515693Y-33286810D01*
X75534777Y-33020001D01*
X75534777Y-33019998D01*
X75515693Y-32753189D01*
X75515692Y-32753182D01*
X75458836Y-32491818D01*
X75365356Y-32241187D01*
X75365354Y-32241183D01*
X75237166Y-32006424D01*
X75237165Y-32006423D01*
X75147246Y-31886305D01*
X74520523Y-32513029D01*
X74459200Y-32546514D01*
X74389508Y-32541530D01*
X74338334Y-32505624D01*
X74247990Y-32399264D01*
X74178808Y-32346672D01*
X74137351Y-32290430D01*
X74132882Y-32220704D01*
X74166169Y-32160276D01*
X74793693Y-31532752D01*
X74793692Y-31532751D01*
X74673583Y-31442838D01*
X74673575Y-31442833D01*
X74438816Y-31314645D01*
X74438812Y-31314643D01*
X74188181Y-31221163D01*
X73926817Y-31164307D01*
X73926810Y-31164306D01*
X73660001Y-31145223D01*
X73659999Y-31145223D01*
X73393189Y-31164306D01*
X73393182Y-31164307D01*
X73131818Y-31221163D01*
X72881187Y-31314643D01*
X72881183Y-31314645D01*
X72646424Y-31442833D01*
X72646416Y-31442838D01*
X72526305Y-31532751D01*
X73150254Y-32156700D01*
X73183739Y-32218023D01*
X73178755Y-32287715D01*
X73145444Y-32332589D01*
X73147450Y-32334707D01*
X73008342Y-32466476D01*
X72993953Y-32487698D01*
X72991161Y-32491818D01*
X72989347Y-32494493D01*
X72935433Y-32538933D01*
X72866050Y-32547171D01*
X72803228Y-32516590D01*
X72799033Y-32512586D01*
X72172752Y-31886305D01*
X72172751Y-31886305D01*
X72082838Y-32006416D01*
X72082833Y-32006424D01*
X71954645Y-32241183D01*
X71954643Y-32241187D01*
X71861163Y-32491818D01*
X71804307Y-32753182D01*
X71804306Y-32753189D01*
X71785223Y-33019998D01*
X71785223Y-33020001D01*
X71804306Y-33286810D01*
X71804307Y-33286817D01*
X71861163Y-33548181D01*
X71954643Y-33798812D01*
X71954645Y-33798816D01*
X72037150Y-33949912D01*
X72052002Y-34018185D01*
X72027585Y-34083649D01*
X71971652Y-34125521D01*
X71901960Y-34130505D01*
X71863531Y-34115068D01*
X71857966Y-34111658D01*
X71857963Y-34111656D01*
X71622318Y-34014049D01*
X71622301Y-34014044D01*
X71374289Y-33954502D01*
X71120000Y-33934489D01*
X70865710Y-33954502D01*
X70617698Y-34014044D01*
X70617681Y-34014049D01*
X70382036Y-34111656D01*
X70382030Y-34111659D01*
X70376463Y-34115071D01*
X70309016Y-34133310D01*
X70242415Y-34112190D01*
X70197806Y-34058414D01*
X70189351Y-33989058D01*
X70202849Y-33949912D01*
X70285354Y-33798816D01*
X70285356Y-33798812D01*
X70378836Y-33548181D01*
X70435692Y-33286817D01*
X70435693Y-33286810D01*
X70454777Y-33020001D01*
X70454777Y-33019998D01*
X70435693Y-32753189D01*
X70435692Y-32753182D01*
X70378836Y-32491818D01*
X70285356Y-32241187D01*
X70285354Y-32241183D01*
X70157166Y-32006424D01*
X70157165Y-32006423D01*
X70067246Y-31886305D01*
X69440523Y-32513029D01*
X69379200Y-32546514D01*
X69309508Y-32541530D01*
X69258334Y-32505624D01*
X69167990Y-32399264D01*
X69098808Y-32346672D01*
X69057351Y-32290430D01*
X69052882Y-32220704D01*
X69086169Y-32160276D01*
X69713693Y-31532752D01*
X69713692Y-31532751D01*
X69593583Y-31442838D01*
X69593575Y-31442833D01*
X69358816Y-31314645D01*
X69358812Y-31314643D01*
X69108181Y-31221163D01*
X68846817Y-31164307D01*
X68846810Y-31164306D01*
X68580001Y-31145223D01*
X68579999Y-31145223D01*
X68313189Y-31164306D01*
X68313182Y-31164307D01*
X68051818Y-31221163D01*
X67801187Y-31314643D01*
X67801183Y-31314645D01*
X67566424Y-31442833D01*
X67566416Y-31442838D01*
X67446305Y-31532751D01*
X68070254Y-32156700D01*
X68103739Y-32218023D01*
X68098755Y-32287715D01*
X68065444Y-32332589D01*
X68067450Y-32334707D01*
X67928342Y-32466476D01*
X67913953Y-32487698D01*
X67911161Y-32491818D01*
X67909347Y-32494493D01*
X67855433Y-32538933D01*
X67786050Y-32547171D01*
X67723228Y-32516590D01*
X67719033Y-32512586D01*
X67092752Y-31886305D01*
X67092751Y-31886305D01*
X67002838Y-32006416D01*
X67002833Y-32006424D01*
X66874645Y-32241183D01*
X66874643Y-32241187D01*
X66781163Y-32491818D01*
X66724307Y-32753182D01*
X66724306Y-32753189D01*
X66705223Y-33019998D01*
X66705223Y-33020001D01*
X66724306Y-33286810D01*
X66724307Y-33286817D01*
X66781163Y-33548181D01*
X66874643Y-33798812D01*
X66874645Y-33798816D01*
X67002833Y-34033575D01*
X67002838Y-34033583D01*
X67092751Y-34153692D01*
X67092752Y-34153693D01*
X67719476Y-33526969D01*
X67780799Y-33493484D01*
X67850490Y-33498468D01*
X67901664Y-33534373D01*
X67992009Y-33640735D01*
X68061191Y-33693326D01*
X68102647Y-33749564D01*
X68107118Y-33819291D01*
X68073830Y-33879721D01*
X67446305Y-34507245D01*
X67446305Y-34507246D01*
X67566423Y-34597165D01*
X67566424Y-34597166D01*
X67757805Y-34701668D01*
X67807210Y-34751073D01*
X67822062Y-34819346D01*
X67797645Y-34884810D01*
X67741712Y-34926682D01*
X67698378Y-34934500D01*
X63582738Y-34934500D01*
X63567121Y-34932776D01*
X63567094Y-34933062D01*
X63559332Y-34932327D01*
X63490204Y-34934500D01*
X63460650Y-34934500D01*
X63459929Y-34934590D01*
X63453757Y-34935369D01*
X63447945Y-34935826D01*
X63401373Y-34937290D01*
X63401372Y-34937290D01*
X63382129Y-34942881D01*
X63363079Y-34946825D01*
X63343211Y-34949334D01*
X63343209Y-34949335D01*
X63299884Y-34966488D01*
X63294357Y-34968380D01*
X63249610Y-34981381D01*
X63249609Y-34981382D01*
X63232367Y-34991579D01*
X63214899Y-35000137D01*
X63196269Y-35007513D01*
X63196267Y-35007514D01*
X63158576Y-35034898D01*
X63153694Y-35038105D01*
X63113579Y-35061830D01*
X63099408Y-35076000D01*
X63084623Y-35088628D01*
X63068412Y-35100407D01*
X63038709Y-35136310D01*
X63034776Y-35140631D01*
X54254246Y-43921163D01*
X45497228Y-52678181D01*
X45435905Y-52711666D01*
X45409547Y-52714500D01*
X44455227Y-52714500D01*
X44388188Y-52694815D01*
X44353652Y-52661623D01*
X44218494Y-52468597D01*
X44051402Y-52301506D01*
X44051395Y-52301501D01*
X44031035Y-52287245D01*
X44008769Y-52271654D01*
X43857834Y-52165967D01*
X43857830Y-52165965D01*
X43818626Y-52147684D01*
X43643663Y-52066097D01*
X43643659Y-52066096D01*
X43643655Y-52066094D01*
X43415413Y-52004938D01*
X43415403Y-52004936D01*
X43180001Y-51984341D01*
X43179999Y-51984341D01*
X42944596Y-52004936D01*
X42944586Y-52004938D01*
X42716344Y-52066094D01*
X42716335Y-52066098D01*
X42502171Y-52165964D01*
X42502169Y-52165965D01*
X42308597Y-52301505D01*
X42141505Y-52468597D01*
X42139977Y-52470419D01*
X42139101Y-52471001D01*
X42137676Y-52472427D01*
X42137389Y-52472140D01*
X42081804Y-52509119D01*
X42011943Y-52510224D01*
X41952575Y-52473384D01*
X41927285Y-52429712D01*
X41924359Y-52420882D01*
X41924356Y-52420875D01*
X41832315Y-52271654D01*
X41708345Y-52147684D01*
X41559124Y-52055643D01*
X41559119Y-52055641D01*
X41392697Y-52000494D01*
X41392690Y-52000493D01*
X41289986Y-51990000D01*
X40890000Y-51990000D01*
X40890000Y-52727698D01*
X40870315Y-52794737D01*
X40817511Y-52840492D01*
X40748355Y-52850436D01*
X40675766Y-52840000D01*
X40675763Y-52840000D01*
X40604237Y-52840000D01*
X40604233Y-52840000D01*
X40531645Y-52850436D01*
X40462487Y-52840492D01*
X40409684Y-52794736D01*
X40390000Y-52727698D01*
X40390000Y-51990000D01*
X39990028Y-51990000D01*
X39990012Y-51990001D01*
X39887302Y-52000494D01*
X39720880Y-52055641D01*
X39720875Y-52055643D01*
X39571654Y-52147684D01*
X39447684Y-52271654D01*
X39355643Y-52420875D01*
X39355641Y-52420880D01*
X39300494Y-52587302D01*
X39300493Y-52587309D01*
X39290000Y-52690013D01*
X39290000Y-53090000D01*
X40026653Y-53090000D01*
X40093692Y-53109685D01*
X40139447Y-53162489D01*
X40149391Y-53231647D01*
X40145631Y-53248933D01*
X40140000Y-53268111D01*
X40140000Y-53411888D01*
X40145631Y-53431067D01*
X40145630Y-53500936D01*
X40107855Y-53559714D01*
X40044299Y-53588738D01*
X40026653Y-53590000D01*
X39290001Y-53590000D01*
X39290001Y-53989986D01*
X39300494Y-54092697D01*
X39355641Y-54259119D01*
X39355643Y-54259124D01*
X39447684Y-54408345D01*
X39571654Y-54532315D01*
X39720875Y-54624356D01*
X39720882Y-54624359D01*
X39793075Y-54648281D01*
X39850520Y-54688053D01*
X39877344Y-54752569D01*
X39877463Y-54763910D01*
X40380883Y-55267330D01*
X40414368Y-55328653D01*
X40409384Y-55398345D01*
X40372357Y-55447805D01*
X40373602Y-55449241D01*
X40258238Y-55549202D01*
X40223046Y-55603962D01*
X40170242Y-55649717D01*
X40101083Y-55659660D01*
X40037528Y-55630634D01*
X40031050Y-55624603D01*
X39525072Y-55118625D01*
X39466401Y-55202419D01*
X39366570Y-55416507D01*
X39366566Y-55416516D01*
X39305432Y-55644673D01*
X39305430Y-55644684D01*
X39284843Y-55879998D01*
X39284843Y-55880001D01*
X39305430Y-56115315D01*
X39305432Y-56115326D01*
X39366566Y-56343483D01*
X39366570Y-56343492D01*
X39466400Y-56557579D01*
X39466402Y-56557583D01*
X39525072Y-56641373D01*
X39525073Y-56641373D01*
X40031050Y-56135395D01*
X40092373Y-56101910D01*
X40162064Y-56106894D01*
X40217998Y-56148765D01*
X40223039Y-56156025D01*
X40258239Y-56210798D01*
X40365442Y-56303689D01*
X40373602Y-56310759D01*
X40371293Y-56313422D01*
X40406006Y-56353499D01*
X40415935Y-56422660D01*
X40386898Y-56486210D01*
X40380882Y-56492669D01*
X39878625Y-56994925D01*
X39954594Y-57048119D01*
X39998219Y-57102696D01*
X40005413Y-57172194D01*
X39973890Y-57234549D01*
X39954595Y-57251269D01*
X39768594Y-57381508D01*
X39601505Y-57548597D01*
X39465965Y-57742169D01*
X39465964Y-57742171D01*
X39366098Y-57956335D01*
X39366094Y-57956344D01*
X39304938Y-58184586D01*
X39304936Y-58184596D01*
X39284341Y-58419999D01*
X39284341Y-58420000D01*
X39304936Y-58655403D01*
X39304938Y-58655413D01*
X39366094Y-58883655D01*
X39366096Y-58883659D01*
X39366097Y-58883663D01*
X39407999Y-58973521D01*
X39465965Y-59097830D01*
X39465967Y-59097834D01*
X39534696Y-59195988D01*
X39601501Y-59291396D01*
X39601506Y-59291402D01*
X39768597Y-59458493D01*
X39768603Y-59458498D01*
X39954158Y-59588425D01*
X39997783Y-59643002D01*
X40004977Y-59712500D01*
X39973454Y-59774855D01*
X39954158Y-59791575D01*
X39768597Y-59921505D01*
X39601505Y-60088597D01*
X39465965Y-60282169D01*
X39465964Y-60282171D01*
X39366098Y-60496335D01*
X39366094Y-60496344D01*
X39304938Y-60724586D01*
X39304936Y-60724596D01*
X39284341Y-60959999D01*
X39284341Y-60960000D01*
X39304936Y-61195403D01*
X39304938Y-61195413D01*
X39366094Y-61423655D01*
X39366096Y-61423659D01*
X39366097Y-61423663D01*
X39432568Y-61566210D01*
X39465965Y-61637830D01*
X39465967Y-61637834D01*
X39559196Y-61770977D01*
X39601501Y-61831396D01*
X39601506Y-61831402D01*
X39768597Y-61998493D01*
X39768603Y-61998498D01*
X39954158Y-62128425D01*
X39997783Y-62183002D01*
X40004977Y-62252500D01*
X39973454Y-62314855D01*
X39954158Y-62331575D01*
X39768597Y-62461505D01*
X39601505Y-62628597D01*
X39465965Y-62822169D01*
X39465964Y-62822171D01*
X39366098Y-63036335D01*
X39366094Y-63036344D01*
X39304938Y-63264586D01*
X39304936Y-63264596D01*
X39284341Y-63499999D01*
X39284341Y-63500000D01*
X39304936Y-63735403D01*
X39304938Y-63735413D01*
X39366094Y-63963655D01*
X39366096Y-63963659D01*
X39366097Y-63963663D01*
X39407999Y-64053521D01*
X39465965Y-64177830D01*
X39465967Y-64177834D01*
X39524462Y-64261373D01*
X39601501Y-64371396D01*
X39601506Y-64371402D01*
X39768597Y-64538493D01*
X39768603Y-64538498D01*
X39954158Y-64668425D01*
X39997783Y-64723002D01*
X40004977Y-64792500D01*
X39973454Y-64854855D01*
X39954158Y-64871575D01*
X39768597Y-65001505D01*
X39601505Y-65168597D01*
X39465965Y-65362169D01*
X39465964Y-65362171D01*
X39366098Y-65576335D01*
X39366094Y-65576344D01*
X39304938Y-65804586D01*
X39304936Y-65804596D01*
X39284341Y-66039999D01*
X39284341Y-66040000D01*
X39304936Y-66275403D01*
X39304938Y-66275413D01*
X39366094Y-66503655D01*
X39366096Y-66503659D01*
X39366097Y-66503663D01*
X39432568Y-66646210D01*
X39465965Y-66717830D01*
X39465967Y-66717834D01*
X39524462Y-66801373D01*
X39601501Y-66911396D01*
X39601506Y-66911402D01*
X39768597Y-67078493D01*
X39768603Y-67078498D01*
X39954158Y-67208425D01*
X39997783Y-67263002D01*
X40004977Y-67332500D01*
X39973454Y-67394855D01*
X39954158Y-67411575D01*
X39768597Y-67541505D01*
X39601505Y-67708597D01*
X39465965Y-67902169D01*
X39465964Y-67902171D01*
X39366098Y-68116335D01*
X39366094Y-68116344D01*
X39304938Y-68344586D01*
X39304936Y-68344596D01*
X39284341Y-68579999D01*
X39284341Y-68580000D01*
X39304936Y-68815403D01*
X39304938Y-68815413D01*
X39366094Y-69043655D01*
X39366096Y-69043659D01*
X39366097Y-69043663D01*
X39432568Y-69186210D01*
X39465965Y-69257830D01*
X39465967Y-69257834D01*
X39510311Y-69321163D01*
X39601501Y-69451396D01*
X39601506Y-69451402D01*
X39768597Y-69618493D01*
X39768603Y-69618498D01*
X39954158Y-69748425D01*
X39997783Y-69803002D01*
X40004977Y-69872500D01*
X39973454Y-69934855D01*
X39954158Y-69951575D01*
X39768597Y-70081505D01*
X39601505Y-70248597D01*
X39465965Y-70442169D01*
X39465964Y-70442171D01*
X39366098Y-70656335D01*
X39366094Y-70656344D01*
X39304938Y-70884586D01*
X39304936Y-70884596D01*
X39284341Y-71119999D01*
X39284341Y-71120000D01*
X39304936Y-71355403D01*
X39304938Y-71355413D01*
X39366094Y-71583655D01*
X39366096Y-71583659D01*
X39366097Y-71583663D01*
X39407999Y-71673521D01*
X39465965Y-71797830D01*
X39465967Y-71797834D01*
X39534696Y-71895988D01*
X39601505Y-71991401D01*
X39768599Y-72158495D01*
X39904556Y-72253693D01*
X39954594Y-72288730D01*
X39998218Y-72343307D01*
X40005411Y-72412806D01*
X39973889Y-72475160D01*
X39954593Y-72491880D01*
X39878626Y-72545072D01*
X39878625Y-72545072D01*
X40380883Y-73047330D01*
X40414368Y-73108653D01*
X40409384Y-73178345D01*
X40372357Y-73227805D01*
X40373602Y-73229241D01*
X40258238Y-73329202D01*
X40223046Y-73383962D01*
X40170242Y-73429717D01*
X40101083Y-73439660D01*
X40037528Y-73410634D01*
X40031050Y-73404603D01*
X39525072Y-72898625D01*
X39466401Y-72982419D01*
X39366570Y-73196507D01*
X39366566Y-73196516D01*
X39305432Y-73424673D01*
X39305430Y-73424684D01*
X39284843Y-73659998D01*
X39284843Y-73660001D01*
X39305430Y-73895315D01*
X39305432Y-73895326D01*
X39366566Y-74123483D01*
X39366570Y-74123492D01*
X39466400Y-74337579D01*
X39466402Y-74337583D01*
X39525072Y-74421373D01*
X39525073Y-74421373D01*
X40031050Y-73915395D01*
X40092373Y-73881910D01*
X40162064Y-73886894D01*
X40217998Y-73928765D01*
X40223039Y-73936025D01*
X40223048Y-73936039D01*
X40258239Y-73990798D01*
X40373602Y-74090759D01*
X40371293Y-74093422D01*
X40406006Y-74133499D01*
X40415935Y-74202660D01*
X40386898Y-74266210D01*
X40380882Y-74272669D01*
X39878625Y-74774925D01*
X39954594Y-74828119D01*
X39998219Y-74882696D01*
X40005413Y-74952194D01*
X39973890Y-75014549D01*
X39954595Y-75031269D01*
X39768594Y-75161508D01*
X39601505Y-75328597D01*
X39465965Y-75522169D01*
X39465964Y-75522171D01*
X39366098Y-75736335D01*
X39366094Y-75736344D01*
X39304938Y-75964586D01*
X39304936Y-75964596D01*
X39284341Y-76199999D01*
X39284341Y-76200000D01*
X36000000Y-76200000D01*
X36000000Y-21124000D01*
X36019685Y-21056961D01*
X36072489Y-21011206D01*
X36124000Y-21000000D01*
X115876000Y-21000000D01*
X115943039Y-21019685D01*
G37*
%TD.AperFunction*%
%TD*%
M02*
