%TF.GenerationSoftware,KiCad,Pcbnew,7.0.7*%
%TF.CreationDate,2023-12-18T11:14:40+01:00*%
%TF.ProjectId,PureDevices_IO_Expander,50757265-4465-4766-9963-65735f494f5f,rev?*%
%TF.SameCoordinates,Original*%
%TF.FileFunction,Soldermask,Bot*%
%TF.FilePolarity,Negative*%
%FSLAX46Y46*%
G04 Gerber Fmt 4.6, Leading zero omitted, Abs format (unit mm)*
G04 Created by KiCad (PCBNEW 7.0.7) date 2023-12-18 11:14:40*
%MOMM*%
%LPD*%
G01*
G04 APERTURE LIST*
G04 Aperture macros list*
%AMRoundRect*
0 Rectangle with rounded corners*
0 $1 Rounding radius*
0 $2 $3 $4 $5 $6 $7 $8 $9 X,Y pos of 4 corners*
0 Add a 4 corners polygon primitive as box body*
4,1,4,$2,$3,$4,$5,$6,$7,$8,$9,$2,$3,0*
0 Add four circle primitives for the rounded corners*
1,1,$1+$1,$2,$3*
1,1,$1+$1,$4,$5*
1,1,$1+$1,$6,$7*
1,1,$1+$1,$8,$9*
0 Add four rect primitives between the rounded corners*
20,1,$1+$1,$2,$3,$4,$5,0*
20,1,$1+$1,$4,$5,$6,$7,0*
20,1,$1+$1,$6,$7,$8,$9,0*
20,1,$1+$1,$8,$9,$2,$3,0*%
G04 Aperture macros list end*
%ADD10C,2.740000*%
%ADD11C,2.240000*%
%ADD12C,1.700000*%
%ADD13RoundRect,0.250000X-0.600000X-0.600000X0.600000X-0.600000X0.600000X0.600000X-0.600000X0.600000X0*%
G04 APERTURE END LIST*
D10*
%TO.C,J12*%
X99060000Y-38100000D03*
X93980000Y-38100000D03*
X99060000Y-33020000D03*
X93980000Y-33020000D03*
D11*
X96520000Y-35560000D03*
%TD*%
D10*
%TO.C,J11*%
X99060000Y-50800000D03*
X93980000Y-50800000D03*
X99060000Y-45720000D03*
X93980000Y-45720000D03*
D11*
X96520000Y-48260000D03*
%TD*%
D10*
%TO.C,J10*%
X99060000Y-63500000D03*
X93980000Y-63500000D03*
X99060000Y-58420000D03*
X93980000Y-58420000D03*
D11*
X96520000Y-60960000D03*
%TD*%
D10*
%TO.C,J9*%
X99060000Y-76200000D03*
X93980000Y-76200000D03*
X99060000Y-71120000D03*
X93980000Y-71120000D03*
D11*
X96520000Y-73660000D03*
%TD*%
%TO.C,J8*%
X96520000Y-86360000D03*
D10*
X93980000Y-83820000D03*
X99060000Y-83820000D03*
X93980000Y-88900000D03*
X99060000Y-88900000D03*
%TD*%
%TO.C,J7*%
X99060000Y-101600000D03*
X93980000Y-101600000D03*
X99060000Y-96520000D03*
X93980000Y-96520000D03*
D11*
X96520000Y-99060000D03*
%TD*%
D10*
%TO.C,J6*%
X73660000Y-38100000D03*
X68580000Y-38100000D03*
X73660000Y-33020000D03*
X68580000Y-33020000D03*
D11*
X71120000Y-35560000D03*
%TD*%
D10*
%TO.C,J5*%
X73660000Y-50800000D03*
X68580000Y-50800000D03*
X73660000Y-45720000D03*
X68580000Y-45720000D03*
D11*
X71120000Y-48260000D03*
%TD*%
D10*
%TO.C,J4*%
X73660000Y-63500000D03*
X68580000Y-63500000D03*
X73660000Y-58420000D03*
X68580000Y-58420000D03*
D11*
X71120000Y-60960000D03*
%TD*%
D10*
%TO.C,J3*%
X73660000Y-76200000D03*
X68580000Y-76200000D03*
X73660000Y-71120000D03*
X68580000Y-71120000D03*
D11*
X71120000Y-73660000D03*
%TD*%
D10*
%TO.C,J2*%
X73660000Y-88900000D03*
X68580000Y-88900000D03*
X73660000Y-83820000D03*
X68580000Y-83820000D03*
D11*
X71120000Y-86360000D03*
%TD*%
D10*
%TO.C,J1*%
X73660000Y-101600000D03*
X68580000Y-101600000D03*
X73660000Y-96520000D03*
X68580000Y-96520000D03*
D11*
X71120000Y-99060000D03*
%TD*%
D12*
%TO.C,J0*%
X43180000Y-76200000D03*
X40640000Y-76200000D03*
X43180000Y-73660000D03*
X40640000Y-73660000D03*
X43180000Y-71120000D03*
X40640000Y-71120000D03*
X43180000Y-68580000D03*
X40640000Y-68580000D03*
X43180000Y-66040000D03*
X40640000Y-66040000D03*
X43180000Y-63500000D03*
X40640000Y-63500000D03*
X43180000Y-60960000D03*
X40640000Y-60960000D03*
X43180000Y-58420000D03*
X40640000Y-58420000D03*
X43180000Y-55880000D03*
X40640000Y-55880000D03*
X43180000Y-53340000D03*
D13*
X40640000Y-53340000D03*
%TD*%
M02*
