M48
; DRILL file {KiCad 7.0.7} date Mon Dec 18 11:12:43 2023
; FORMAT={-:-/ absolute / inch / decimal}
; #@! TF.CreationDate,2023-12-18T11:12:43+01:00
; #@! TF.GenerationSoftware,Kicad,Pcbnew,7.0.7
; #@! TF.FileFunction,Plated,1,2,PTH
FMAT,2
INCH
; #@! TA.AperFunction,Plated,PTH,ComponentDrill
T1C0.0394
; #@! TA.AperFunction,Plated,PTH,ComponentDrill
T2C0.0472
; #@! TA.AperFunction,Plated,PTH,ComponentDrill
T3C0.0669
; #@! TA.AperFunction,Plated,PTH,ViaDrill
T4C0.1732
%
G90
G05
T1
X1.6Y-2.1
X1.6Y-2.2
X1.6Y-2.3
X1.6Y-2.4
X1.6Y-2.5
X1.6Y-2.6
X1.6Y-2.7
X1.6Y-2.8
X1.6Y-2.9
X1.6Y-3.0
X1.7Y-2.1
X1.7Y-2.2
X1.7Y-2.3
X1.7Y-2.4
X1.7Y-2.5
X1.7Y-2.6
X1.7Y-2.7
X1.7Y-2.8
X1.7Y-2.9
X1.7Y-3.0
T2
X2.8Y-1.4
X2.8Y-1.9
X2.8Y-2.4
X2.8Y-2.9
X2.8Y-3.4
X2.8Y-3.9
X3.8Y-1.4
X3.8Y-1.9
X3.8Y-2.4
X3.8Y-2.9
X3.8Y-3.4
X3.8Y-3.9
T3
X2.7Y-1.3
X2.7Y-1.5
X2.7Y-1.8
X2.7Y-2.0
X2.7Y-2.3
X2.7Y-2.5
X2.7Y-2.8
X2.7Y-3.0
X2.7Y-3.3
X2.7Y-3.5
X2.7Y-3.8
X2.7Y-4.0
X2.9Y-1.3
X2.9Y-1.5
X2.9Y-1.8
X2.9Y-2.0
X2.9Y-2.3
X2.9Y-2.5
X2.9Y-2.8
X2.9Y-3.0
X2.9Y-3.3
X2.9Y-3.5
X2.9Y-3.8
X2.9Y-4.0
X3.7Y-1.3
X3.7Y-1.5
X3.7Y-1.8
X3.7Y-2.0
X3.7Y-2.3
X3.7Y-2.5
X3.7Y-2.8
X3.7Y-3.0
X3.7Y-3.3
X3.7Y-3.5
X3.7Y-3.8
X3.7Y-4.0
X3.9Y-1.3
X3.9Y-1.5
X3.9Y-1.8
X3.9Y-2.0
X3.9Y-2.3
X3.9Y-2.5
X3.9Y-2.8
X3.9Y-3.0
X3.9Y-3.3
X3.9Y-3.5
X3.9Y-3.8
X3.9Y-4.0
T4
X1.6Y-1.0
X1.6Y-4.0
X4.4Y-1.0
X4.4Y-4.0
T0
M30
